/* XPM */
static char *_0dcf32c5e8c4452fa473aafaddc46adzicFjNBmjqUdVEI8[] = {
/* columns rows colors chars-per-pixel */
"64 64 196 2 ",
"   c #3B2B26",
".  c #3F2F2A",
"X  c #3F302A",
"o  c #3D3533",
"O  c #3D3534",
"+  c #3E3A3A",
"@  c #41322C",
"#  c #43332E",
"$  c #43342E",
"%  c #43352E",
"&  c #44342E",
"*  c #453730",
"=  c #4C3332",
"-  c #473932",
";  c #473A32",
":  c #4E3935",
">  c #4C3D36",
",  c #4C3E36",
"<  c #4E3F38",
"1  c #50423A",
"2  c #50433A",
"3  c #53443C",
"4  c #55453E",
"5  c #55473E",
"6  c #54483E",
"7  c #3F3F41",
"8  c #444041",
"9  c #454141",
"0  c #484241",
"q  c #4C4441",
"w  c #42494F",
"e  c #4D4A49",
"r  c #574840",
"t  c #574940",
"y  c #594A42",
"u  c #584C42",
"i  c #5B4C44",
"p  c #5B4F44",
"a  c #5D4E46",
"s  c #514F4D",
"d  c #5D5146",
"f  c #5F5048",
"g  c #44535C",
"h  c #48555C",
"j  c #4E565C",
"k  c #575351",
"l  c #585553",
"z  c #52585C",
"x  c #5A5B5C",
"c  c #5E5D5C",
"v  c #62534B",
"b  c #62544A",
"n  c #64574C",
"m  c #65574D",
"M  c #66594E",
"N  c #6A5D52",
"B  c #6D5F54",
"V  c #6D6055",
"C  c #6E6156",
"Z  c #6F6156",
"A  c #6E6057",
"S  c #6F6057",
"D  c #706358",
"F  c #736659",
"G  c #73655B",
"H  c #73665A",
"J  c #73665B",
"K  c #75685C",
"L  c #76695C",
"P  c #776A5F",
"I  c #78695F",
"U  c #465D6A",
"Y  c #525B60",
"T  c #54636C",
"R  c #486777",
"E  c #4A6C7E",
"W  c #586C77",
"Q  c #666A6A",
"!  c #706E67",
"~  c #796C61",
"^  c #7C6E63",
"/  c #7E7065",
"(  c #7F7465",
")  c #677277",
"_  c #807267",
"`  c #817566",
"'  c #837469",
"]  c #897E6E",
"[  c #8B7D71",
"{  c #8B7E71",
"}  c #8B8170",
"|  c #8F8273",
" . c #96897B",
".. c #9B907F",
"X. c #4B7185",
"o. c #4C768B",
"O. c #4D7B92",
"+. c #517D92",
"@. c #567F92",
"#. c #687B85",
"$. c #C46D86",
"%. c #5A8192",
"&. c #708085",
"*. c #788285",
"=. c #618192",
"-. c #698492",
";. c #718892",
":. c #5D8EA6",
">. c #5C92AD",
",. c #668CA0",
"<. c #688EA2",
"1. c #6B97AD",
"2. c #6B97AE",
"3. c #759DAD",
"4. c #639EBB",
"5. c #659EBB",
"6. c #6FA1BB",
"7. c #7AA7BB",
"8. c #6AA9C8",
"9. c #72ACC8",
"0. c #74ACC8",
"q. c #74ACC9",
"w. c #6DAFD0",
"e. c #71B4D6",
"r. c #71B5D6",
"t. c #75B6D6",
"y. c #79BFE4",
"u. c #78C0E4",
"i. c #7DC1E4",
"p. c #7CC2E4",
"a. c #9D9380",
"s. c #9E9281",
"d. c #808F92",
"f. c #A69686",
"g. c #AAA08C",
"h. c #ACA18E",
"j. c #ACA897",
"k. c #B0A792",
"l. c #B7AD98",
"z. c #BBAD9A",
"x. c #B9B09A",
"c. c #899CA0",
"v. c #92A8AD",
"b. c #91B2BB",
"n. c #CB9298",
"m. c #CC9298",
"M. c #C2B9A2",
"N. c #C4BCA4",
"B. c #CDC5AC",
"V. c #D6C4B0",
"C. c #D8D1B6",
"Z. c #97BCC8",
"A. c #97BCC9",
"S. c #98BCC9",
"D. c #85BED6",
"F. c #99C6D6",
"G. c #8CC8E4",
"H. c #96CCE3",
"J. c #9CD0E4",
"K. c #80CBF1",
"L. c #82CCF2",
"P. c #83CCF2",
"I. c #83D1F8",
"U. c #87D7FF",
"Y. c #8BD9FF",
"T. c #8FDBFF",
"R. c #92D4F2",
"E. c #92DCFF",
"W. c #93DCFF",
"Q. c #97DEFF",
"!. c #9BDFFF",
"~. c #ADD7E3",
"^. c #B1D9E4",
"/. c #B5DAE4",
"(. c #9BE0FF",
"). c #9FE1FF",
"_. c #9EE2FF",
"`. c #A2E3FF",
"'. c #A2E4FF",
"]. c #A6E5FF",
"[. c #A6E6FF",
"{. c #AAE7FF",
"}. c #ABE7FF",
"|. c #AEE9FF",
" X c #B2EAFF",
".X c #B2EBFF",
"XX c #B6ECFF",
"oX c #B9E9F8",
"OX c #BAEDFF",
"+X c #BAEEFF",
"@X c #BEEFFF",
"#X c #C2F2FF",
"$X c #C6F3FF",
"%X c #C9F4FF",
"&X c #CDF4FF",
"*X c #D4F6FF",
/* pixels */
"$X$X$X$X$X$X$X$X$X$X$X$X$X$X$X$X$X$X$X$X$X$X$X$X$X$X$X$X$X$X$X$X$X$X$X$X$X$X$X$X$X$X$X$X$X$X$X$X$X$X$X$X$X$X$X$X$X$X$X$X$X$X$X$X",
"$X$X$X$X$X$X$X$X$X$X$X$X$X$X$X$X$X$X$X$X$X$X$X$X$X$X$X$X$X$X$X$X$X$X$X$X$X$X$X$X$X$X$X$X$X$X$X$X$X$X$X$X$X$X$X$X$X$X$X$X$X$X$X$X",
"$X$X$X$X$X$X$X$X$X$X$X$X$X$X$X$X$X$X$X$X$X$X$X$X$X$X$X$X$X$X$X$X$X$X$X$X$X$X$X$X$X$X$X$X$X$X$X$X$X$X$X$X$X$X$X$X$X$X$X$X$X$X$X$X",
"$X$X$X$X$X$X$X$X$X$X$X$X$XQ.).$X$X$X$X$X$X$X XT.OX$X$X$X$XT.`.$X$X$X$X$X$XT.{.$X$X$X$X$X$X$X$X$X$X.XT.OX$X$X$X$X$X$X$X$X$X$X$X$X",
"$X$X$X$X$X$X$X$X$X$X$X$X$X`.].$X$X$X$X$X$X$XXX).OX#X|.@X$X).|.$X$X$X$X$X$X).|.$X XXX$X X|.|.OX$X$XXX).OX$X$X$X$X$X$X$X$X$X$X$X$X",
"$X$X$X$X$X$X$X$X$X$X$X$X$X$X$X$X$X$X$X$X$X$X$X$X$X@XU.|.$X$X$X$X$X$X$X$X$X$X$X$XT.Q.$XQ.U.U.].$X$X$X$X$X$X$X$X$X$X$X$X$X$X$X$X$X",
"$X$X$X$X$X$X$X$X$X$X$X XT.@X$X$X'.Q.$X{.T.@X$X$X(.Q.@X#X$X$X$X$X(.).$X$X$X$X{.T.XX|.T.Y.T.@X].T.$X$X$X(.Q.$X$X$X$X$X$X$X$X$X$X$X",
"$X$X$X$X$X$X$X$X$X$X$XXX).|.|.|.].).|.(.U.{.|.|.].).|.@X$X|.XX$X{.].$XXX|.|.].).|.].U.U.Y.|.(.U.|.|.|.].).|.@X$X|.XX$X$X$X$X$X$X",
"$X$X$X$X$X$X$X$X$X$X$X$X$XT.U.U.|.@XU.U.U.U.U.U.XX@XU.{.$XU.!.$X$X$X$X).U.U.].#XT.U.U.U.U.U.U.U.U.U.U.XX@XU.|.$XU.).$X$X$X$X$X$X",
"$X$X$X$X$X`.(.$X$X$XQ.].$XXXXXXX].E.U.U.U.|.].U.E.Q.U.E.Q.U.E.!.OXOX(.].XXU.T.(.U.U.U.U.U.U.).XXU.U.U.E.Q.XX#X$XXX@X$X$X$X$X$X$X",
"$X$X$X$X$X`.).$X@XXXQ.].XXXXXXXXQ.U.U.U.U. X`.U.U.U.U.U.U.Q.Q.U.{.{.E.|.XXU.U.U.U.U.U.U.U.P.H.~.p.p.U.E.).XX@X$XXXOX$X$X$X$X$X$X",
"$X$X$X$X$X$X$X$X).U.$X|.U.U.U.U.U.U.U.U.U.U.U.U.U.U.U.U.U.$X}.U.U.(.$X).U.U.U.U.U.U.U.U.U.9.        9.XX@XU.|.$XU.).$X$X$X$X$X$X",
"$X$XQ.].$X$X#XQ.].XXQ.T.U.|.{.U.U.U.U.U.U.U.U.U.U.U.U.U.U.E.E.U.U.Y.(.U.U.U.U.U.U.U.U.U.U.9.        S.`.!.U.E.Q.XX|.(.@XOXE..X$X",
"$X$XQ.{.$XOX|.U.].XXU.Y.Q.XX)       8 U.U.U.U.U.U.U.U.U.U.U.U.U.U.U.U.U.U.U.U.U.U.U.U.U.Y.9.    _ _ >   %.U.T.Q.XX].Q.#XOX(.XX$X",
"$X$X#X$X$XQ.U.U.U.U.U.).$XT.W       > U.U.U.U.U.U.U.U.U.U.U.U.U.U.U.U.U.U.U.U.U.U.U.U.U.U.9.    _ _ >   %.U.|.$XU.).#X$X$X$X$X$X",
"$X$X$X$X$XOX XU.'.XXU.T.Q.U.W   v j.j.j j p.U.U.U.9.j j j g G.U.U.U.U.U.U.U.U.U.U.U.U.U.U.9.    M m B B c j #.Q.XX|.(.@X$X$X$X$X",
"$X$X$X#XXX#X@XU.].XXU.U.U.U.W   L C.N.    y.U.U.Y.2.        p.U.U.U.U.U.U.U.U.U.U.U.U.U.U.q.  @ d d ^ ^ i   z !.XX`.U.@X$X$X$X$X",
"$X$X$X|.U.XX@XU.U.U.U.U.U.U.W   M h.s.    p.U.6.=.#.] `     p.U.U.U.U.U.U.U.U.U.U.U.U.U.U.y.#.@.> > J / d   c $XU.U.U.@X$X$X$X$X",
"$X$X$X@XXX).E.U.U.U.U.U.U.U.W   4 / L     G.U.W   L C.N.    p.U.U.U.U.U.U.U.U.U.U.U.U.U.U.U.U.U.    D _ i   z !.U.Q.XX$X$X$X$X$X",
"$X$X$X#XXX).Q.U.T.Q.U.U.U.U.W   2 J D ; * <.1.j   L C.N.    p.U.U.U.U.U.U.U.U.U.U.U.U.U.U.U.U.U.    B _ a   j U.Q.].XX#X$X$X$X$X",
"$X$X$X|.U.XX@XU.|.$XU.U.U.U.W   ; d d d i .       L C.N.    p.U.U.U.U.U.U.U.U.U.U.U.U.U.U.U.U.U.    D ' y   j U.$X|.U.@X$X$X$X$X",
"|.Q.$X|.U.E.Q.XX].Q.U.U.p.p.T @ 2 n f d d ; & @ X G B.z.    u.U.U.U.U.U.U.U.U.U.U.U.U.U.U.U.U.U.    B _ y   x XXQ.).XX$XOXQ. X$X",
"|.Q.$X XQ.Q.).$X).U.Q.E.8   2 d N ^ ^ d v ^ ^ B i N ( ~     p.U.U.U.U.U.U.U.U.U.U.U.U.U.U.U.U.U.    D _ f   c XXU.).$X$XOXQ.XX$X",
"$X#X$X$X$X$X$X$X).U.$X|.9   2 d N _ ^ d d ^ ^ N v N ( L     p.U.U.U.U.U.U.U.U.U.U.U.U.U.U.U.U.U.    Z _ i   j U.U.).$X$X$X$X$X$X",
"$X$X$XXXQ.OX#XQ.Y.p.q 0 6 u Z ^ / / ' ^ ^ _ _ ^ ^ G f a     p.U.U.U.U.U.U.U.U.U.U.U.U.U.U.U.U.U.    B ' d   x XXXX|.Q.@X$X$X$X$X",
"$X$X$X X(.OX@XQ.E.G.    t d J / / ( ( / _ _ _ _ _ ~ f y     p.U.U.U.U.U.U.U.U.U.U.U.U.U.U.U.U.U.    B ( i   x XXXX].Q.#X$X$X$X$X",
"$X$X$X$X$Xv.c c c k 6 6 J ~ ^ ' / ' ' / _ _ _ _ ^ G a a 0 t Y Y j j j j j j j j j j z z j j j j t r G / d   j U.U.).$X$X$X$X$X$X",
"|.Q.$X$X$Xd.      X d d ^ / ' ` ( / ' / _ _ _ _ ( G f f f p X                                   d f ~ ' y   j U.XX@X$X).`.$X{.!.",
"|.Q.$X$X$XA.;.Q   @ Z Z b i | h.s./ ~ i a ^ _ _ ( ^ B B f f X   * , r y y > > i f q < q f f p f V Z Z Z 4   z Q.$X$X$X!.`.$X].).",
"$X$X$X$X$XQ.E.v.  % _ _ %   ..C.x./ ~     ~ ( / / / / / f f X   2 a N / ^ d d ^ ( N f N / ( / ( / ' n d , . c $X$X$X$X$X$X$X$X$X",
"$X$X$X$X$X^.S.*.  % _ _ @   s.C.x./ ^     ~ ^ ' ' ' / / f d X   , 5 m ' ^ d d ^ / N f N / / / ( K ~ d t e c #.Q.Q.].$X$X$X$X$X$X",
"$X$X$X$X$X;.      % _ _ *   ..C.l./ ~     ~ ( ( / ( / / p d X       4 ' ^ d d ^ ( N f N / ' ( / f d %   -.@X).T.U.).$X$X#X@X#X$X",
"$X$X$X$X$Xc.q q 0 e J ~ r 2 f.V.z.[ / < < ~ ' / ( ^ ^ L u t * @ @ @ y / ^ v v ^ ( S f Z / / ^ ~ 6 t e 8 ,.U.|.$XU.).$X$XXXU.|.$X",
"$X$X$X$X$X$X$X$XXXJ..   N.C.n.$.n.C.C.C.C.| / ' ( K f u     y f J ' ' / ( _ ' / / ' / ' / S         9.].{.U.Q.).|.XX$X$X#X|.@X$X",
"$X$X$X$X$X$X$X@X#X/.    N.C.n.$.m.C.C.C.C.[ ( ^ ( ~ a i     s i J ' / ( ( / / ' / ` ' / ( S         9.|.XXU.U.U.@X#X$X@X#X$X$X$X",
"$X$X$X$X$X$X@XU.{.$Xp.p.k < : = : < < < 2 @ * t f N ^ ~ ~ ~ / / ^ / ( ' _ ' ( / ` B d Z ' S     p.p.L.U.U.U.U.U.U.).$XT.Q.$X$X$X",
"$X$X$XXX!.@X#X|.{.).}.`.9                     2 f N ^ ' / ' / / ( / ' / _ _ _ _ ` N d N / Z     U.U.Y.U.U.U.U.U.|.XX$X X X$X$X$X",
"$X$X$X XE.XX$X$X).U.@X{.6.1.1.1.2.2.2.2.1.o   @ * r N B ' / ( ' G N N N N N N N N d d ( l. .    4.4.L.U.U.U.Y.T.@X#X$X@X#X$X#X@X",
"$X$X$X$X$X$X$X$X`.U.U.U.U.U.U.U.U.U.U.U.U.8       ; f v ' / / / N f d d f f f f d d d } C.k.X   O.%.^.!.U.U.|.$XU.).$XT.Q.$X).T.",
"$X$X$X$X$X].).).].}.U.U.U.U.U.U.U.U.I.8.8.U g +   2 Z Z ( ^ n i 2 2 , , , > > > 2 > > ` C.x.i d g h 3.9.p.|.].).|.].).|. X$XXX X",
"$X$X$X$X$X`.T.U.].@XU.U.U.U.U.U.U.U.p.:.O.O.O.w X 6 ( / / ( *                         ~ C.M./ /     R O.9.@X(.U.@X|.T.XX#X$X$X$X",
"$X$X$X$X$X$X@XU.U.U.U.U.U.U.U.U.U.U.p.O.O.X.R j d ~  . .S Z X   O 7 +         + 7 7 7 ! j.h. . .    R O.8.U.U.U.U.).$XT.Q.$X$X$X",
"$X$X$X$X$X{.!. X!.U.U.U.U.U.U.U.U.U.L.+.O.O   a.C.C.C.M.        U O.U         X.O.O.O.U   f C.C.    R O.8.U.).|.U.).$X X X$X$X$X",
"$X$X$X$X$X!.Q.@X!.U.U.U.U.U.U.U.U.U.p.+.O.O   a.C.C.C.M.        U O.U         X.O.O.O.U   f C.C.    R O.8.U.{.OXT.).@X$X$X$X$X$X",
"$X$X$X$X$X$X@XU.U.U.U.U.U.U.U.U.U.U.U.U.U.8           o O.O.O.O.O.O.O.O.O.O.O.O.O.O.O.U         O.O.u.U.U.U.U.U.$X|.U.@X$X$X$X$X",
"$X$X).|.$X$X#X}.Q.U.|.).U.U.U.U.U.U.U.U.U.8           o O.O.O.O.O.O.O.O.O.O.O.O.O.O.O.U         O.%.J.T.Y.|.(.U.).].|.#XOX).XX$X",
"$X$XE.`.$X$X$X@X).T.@X].U.U.U.U.U.U.U.U.U.p.p.:.X.X.X.X.O.O.O.O.O.O.O.O.O.O.O.O.O.O.O.o.X.X.X.X.p.R.oX(.!.OX).T.U.).$X$XOXT. X$X",
"$X$X$X$X$X$X@XU.|.$XU.U.U.U.U.U.U.U.U.U.U.U.U.4.O.O.O.O.O.O.O.O.O.O.O.O.O.O.O.O.O.O.O.O.O.O.O.O.Y.U.U.XX@XU.{.$XU.).$X$X$X$X$X$X",
"$X$X$X$X$X].).|.].).U.U.U.{.`.U.U.U.U.U.U.U.U.u.r.r.r.w.O.O.O.O.O.O.O.O.O.O.O.O.O.O.O.>.t.F.D.r.U.U.U.(.(.U.(.).{.].).#X$X$X$X$X",
"$X$X@X#X$X).Q.$X).U.T.Y.U.XX XU.U.U.U.U.U.U.U.U.U.U.Y.p.O.O.O.O.O.O.O.O.O.+.O.O.O.O.O.4.T.@X'.U.T.Y.U.U.U.T.T.T.$X.XT.@X$X$X$X$X",
"$X$XU.).$X$X$X$X).U.$X|.U.U.U.U.U.U.U.U.U.U.U.U.U.U.U.I.4.4.4.6.4.4.4.4.4.b.7.4.4.4.4.r.U.U.U.U.#X{.U.U.T.$X$X$X$X$X$X$X$X$X$X$X",
"$X$X|.XX$X$X$X$X X|.).].|.Y.E.|.(.U.U.U.U.{.).U.U.U.U.U.U.U.U.U.U.U.U.U.U.).E.U.U.U.U.].{.U.U.U.).(.U.].|.).XX$X).|.$X$X$X$X$X$X",
"$X$X$X$X$X$X$X$X$X$XT.).@XT.E.@X(.U.U.U.U.XX{.U.U.U.U.U.U.U.U.U.T.Y.U.Y.T.U.U.U.T.Y.U.|.XXU.U.U.T.Y.U.|.XXT..X$XT.'.$X$X$X$X$X$X",
"$X$X$X$X$X$X$X$X$X$X$X|.U.U.U.Y.U.U.U.U.U.U.U.U.U.U.U.U.U.U.U.U.XXXXU.|.$XU.U.U.@XXXU.U.U.U.U.U.$X|.U.U.T.$X$X$X$X$X$X$X$X$X$X$X",
"$X$X$X$X$X$X$X$X$X$X$XOX].Y.T.].].'.U.U.U.U.U.U.).'.U.U.U.U.U.U.).).U.(.].].].].].].].T.Y.].(.U.[.[.].].{.$X$X$X$X$X$X$X$X$X$X$X",
"$X$X$X$X$X$X$X$X$X$X$X$X$XT.Q.$X$X@XU.U.U.U.U.U.XX@XU.U.U.U.U.U.U.U.U.U.U.$X$X$XT.Q.$XQ.T.$X'.U.U._.$X$X$X$X$X$X$X$X$X$X$X$X$X$X",
"$X$X$X$X$X$X$X$X).U.$X$X$X$X$X$X).U.U.'.$XT.U.U.U.U.U.U.U.$X|.U.XXXXU.|.$X$X].U.@XXXU.XX@XU.].$X$X|.U.XX$X$X).U.$X$X$X$X$X$X$X&X",
"$X$X$X$X$X$X$X$X.X].$X$X$X$X$X$X.X'.U.(.].Y.E.].T.Y.].E.U.].].].].].].OX$X$XXX].#X@X].@X#X].XX$X$XOX].@X$X$X.X].$X$X$X$X$X$X$X%X",
"$X$X$X$X$X$X$X$X$X$X$X$X$X$X$X$X$X@XU.U.U.U.).$X(.Y.$X).U.U.).$X(.Q.$X$X$X$X$X$X$X$X$X$X$X$X$X$X$X$X$X$X$X$X$X$X$X$X$X$X$X$X$X$X",
"$X$X$X$X$X$X$X$X$X$X$X$X$X$XXXU.|.$X$X$X$X$X|.U.XX@XU.U.U.U.).$X#X$X$X).U.$X$X$XY.(.$X$X$X$X].U.$X$X$X$X$X$X$X$X$X$X$X$X$X$X$X$X",
"$X$X$X$X$X$X$X$X$X$X$X$X$X$X@X].+X$X$X$X$X{.].].@X#X].].].]..X$X$X$X$X.X].$X$X$X{.|.$X$X$X$XXX].$X$X$X$X$X$X$X$X$X$X$X$X$X$X$X$X",
"$X$X$X$X$X$X$X$X$X$X$X$X$X$X$X$X$X$X$X$X$XT.).$X$X$X$X$X$X$X$X$X$X$X$X$X$X$X$X$X$X$X$X$X$X$X$X$X$X$X$X$X$X$X$X$X$X$X$X$X$X$X$X$X",
"%X%X$X$X$X$X$X$X$X$X$X|.U.@X$X$X$X$X$X$X$X$X$X$X$X$X$X).U.$X$X$X$X$X$X$X$X$X$X$X$X$X$X$X$X$X$X$X$X$X$X$X$X$X$X$X$X$X$X$X$X$X$X$X",
"*X*X$X$X$X$X$X$X$X$X$XOX].#X$X$X$X$X$X$X$X$X$X$X$X$X$X|.].$X$X$X$X$X$X$X$X$X$X$X$X$X$X$X$X$X$X$X$X$X$X$X$X$X$X$X$X$X$X$X$X$X$X$X"
};
