/* XPM */
static char *a0285454b7f247cacd48764e052cd2d2ulM8qqHkGuqCdEF4[] = {
/* columns rows colors chars-per-pixel */
"64 64 196 2 ",
"   c #3B2B26",
".  c #3F2F2A",
"X  c #3F302A",
"o  c #3C302D",
"O  c #3D3533",
"+  c #3D3534",
"@  c #43342E",
"#  c #43352E",
"$  c #44342E",
"%  c #45352F",
"&  c #453630",
"*  c #483932",
"=  c #4C3C36",
"-  c #4C3D36",
";  c #4C3E36",
":  c #4E3F38",
">  c #5D3B3E",
",  c #4D4038",
"<  c #4E4038",
"1  c #4F4038",
"2  c #50433A",
"3  c #52433C",
"4  c #53433C",
"5  c #55453E",
"6  c #54483E",
"7  c #3F3F41",
"8  c #444041",
"9  c #4E4641",
"0  c #42494E",
"q  c #5F4141",
"w  c #574840",
"e  c #534B45",
"r  c #514A46",
"t  c #584A41",
"y  c #584C42",
"u  c #594C42",
"i  c #5B4F44",
"p  c #5D4E46",
"a  c #5D5146",
"s  c #57504A",
"d  c #5D544F",
"f  c #4A4E51",
"g  c #49555C",
"h  c #4E565C",
"j  c #52575C",
"k  c #56585B",
"l  c #52585C",
"z  c #5A5B5C",
"x  c #5E5D5C",
"c  c #605248",
"v  c #61554A",
"b  c #62544A",
"n  c #64564C",
"m  c #65574E",
"M  c #66594E",
"N  c #675B50",
"B  c #685B51",
"V  c #6A5D52",
"C  c #6B5D52",
"Z  c #6B5C53",
"A  c #6D6155",
"S  c #6F6156",
"D  c #6E6057",
"F  c #6F6057",
"G  c #6D645A",
"H  c #706358",
"J  c #73665A",
"K  c #73665B",
"L  c #76695C",
"P  c #77695F",
"I  c #776A5E",
"U  c #776A5F",
"Y  c #78695F",
"T  c #465D6A",
"R  c #4B5F6A",
"E  c #53616A",
"W  c #5F686C",
"Q  c #476270",
"!  c #486777",
"~  c #576B77",
"^  c #5C6D77",
"/  c #796C61",
"(  c #7A6F61",
")  c #7C6E63",
"_  c #7E7065",
"`  c #677277",
"'  c #6F7677",
"]  c #807267",
"[  c #827569",
"{  c #877C6C",
"}  c #897E6E",
"|  c #847E73",
" . c #8B7D71",
".. c #8B7E71",
"X. c #8B8170",
"o. c #8E8172",
"O. c #968A7B",
"+. c #4B7184",
"@. c #4B7185",
"#. c #4C768B",
"$. c #547485",
"%. c #5E7987",
"&. c #4D7B92",
"*. c #517D92",
"=. c #C46D86",
"-. c #5B8192",
";. c #5F8392",
":. c #6B8089",
">. c #618192",
",. c #618492",
"<. c #688792",
"1. c #718B92",
"2. c #758A92",
"3. c #578CA6",
"4. c #5C92AD",
"5. c #668CA0",
"6. c #6B97AD",
"7. c #6B97AE",
"8. c #759DAD",
"9. c #6499B4",
"0. c #639EBB",
"q. c #7BA0AD",
"w. c #7CA0AD",
"e. c #6FA1BB",
"r. c #66A3C1",
"t. c #6AA9C8",
"y. c #6AA9C9",
"u. c #6CAAC8",
"i. c #71ACC8",
"p. c #74ACC8",
"a. c #74ACC9",
"s. c #78AFC8",
"d. c #7CAFC8",
"f. c #72B4D6",
"g. c #79B7D7",
"h. c #74BADD",
"j. c #7DC1E3",
"k. c #78C0E4",
"l. c #7DC1E4",
"z. c #9D9380",
"x. c #808F92",
"c. c #A19584",
"v. c #A99E8B",
"b. c #B1A792",
"n. c #B7AD98",
"m. c #B9B09A",
"M. c #82A1AD",
"N. c #9BB4BB",
"B. c #C38F92",
"V. c #C79396",
"C. c #CC9298",
"Z. c #C4BCA4",
"A. c #CDC5AC",
"S. c #D8D1B6",
"D. c #8AB7C8",
"F. c #94C5D6",
"G. c #A3C1C9",
"H. c #97CEE4",
"J. c #80CBF1",
"K. c #82CCF1",
"L. c #83CDF2",
"P. c #83D1F8",
"I. c #87D7FF",
"U. c #8BD9FF",
"Y. c #8FDBFF",
"T. c #9AD7F2",
"R. c #92DCFF",
"E. c #93DCFF",
"W. c #92DDFF",
"Q. c #97DEFF",
"!. c #A5D3E3",
"~. c #A5D3E4",
"^. c #A9D5E4",
"/. c #9BE0FF",
"(. c #9FE1FF",
"). c #9EE2FF",
"_. c #A2E3FF",
"`. c #A2E4FF",
"'. c #A6E5FF",
"]. c #A6E6FF",
"[. c #AAE7FF",
"{. c #ABE7FF",
"}. c #AEE9FF",
"|. c #BDE6F2",
" X c #B1E6F8",
".X c #B2EAFF",
"XX c #B2EBFF",
"oX c #B6ECFF",
"OX c #BAEDFF",
"+X c #BAEEFF",
"@X c #BEEFFF",
"#X c #C1ECF8",
"$X c #C2F2FF",
"%X c #C6F3FF",
"&X c #CDF4FF",
"*X c #D4F6FF",
/* pixels */
"%X%X%X%X%X%X%X%X%X%X%X%X%X%X%X%X%X%X%X%X%X%X%X%X%X%X%X%X%X%X%X%X%X%X%X%X%X%X%X%X%X%X%X%X%X%X%X%X%X%X%X%X%X%X%X%X%X%X%X%X%X%X%X%X",
"%X%X%X%X%X%X%X%X%X%X%X%X%X%X%X%X%X%X%X%X%X%X%X%X%X%X%X%X%X%X%X%X%X%X%X%X%X%X%X%X%X%X%X%X%X%X%X%X%X%X%X%X%X%X%X%X%X%X%X%X%X%X%X%X",
"%X%X%X%X%X%X%X%X%X%X%X%X%X%X%X%X%X%X%X%X%X%X%X%X%X%X%X%X%X%X%X%X%X%X%X%X%X%X%X%X%X%X%X%X%X%X%X%X%X%X%X%X%X%X%X%X%X%X%X%X%X%X%X%X",
"%X%X%X%X%X%X%X%X%X%X%X%X%XQ.(.%X%X%X%X%X%X%X.XY.OX%X%X%X%XY._.%X%X%X%X%X%XY.[.%X%X%X%X%X%X%X%X%X%XXXY.OX%X%X%X%X%X%X%X%X%X%X%X%X",
"%X%X%X%X%X%X%X%X%X%X%X%X%X_.'.%X%X%X%X%X%X%XoX(.OX$X}.@X%X(.}.%X%X%X%X%X%X(.}.%X}.oX%X}.}.}.OX%X%XoX(.OX%X%X%X%X%X%X%X%X%X%X%X%X",
"%X%X%X%X%X%X%X%X%X%X%X%X%X%X%X%X%X%X%X%X%X%X%X%X%X@XI.}.%X%X%X%X%X%X%X%X%X%X%X%XU./.%X/.I.I.'.%X%X%X%X%X%X%X%X%X%X%X%X%X%X%X%X%X",
"%X%X%X%X%X%X%X%X%X%X%X.XY.@X%X%X_.Q.%X[.Y.@X%X%XQ.Q.@X$X%X%X%X%XQ._.%X%X%X%X[.Y.oX}.Y.U.Y.@X'.Y.%X%X%X/./.%X%X%X%X%X%X%X%X%X%X%X",
"%X%X%X%X%X%X%X%X%X%X%XoX(.}.}.}.'._.}.Q.I.[.}.}.[.(.}.@X%X}.oX%X[.'.%XoX}.}.'.(.}.'.I.I.U.}./.I.}.}.}.'.(.[.@X%X}.oX%X%X%X%X%X%X",
"%X%X%X%X%X%X%X%X%X%X%X%X%XY.I.I.}.@XI.I.I.I.I.I.oX@XI.}.#XI.(.%X%X%X%X(.I.I.'.$XY.I.I.I.I.I.I.I.I.I.I.oX@XI.}.%XI.(.%X%X%X%X%X%X",
"%X%X%X%X%X_./.%X%X%XQ.'.%XoXoXoX'.R.I.I.I.}.'.I.Q.R.I.Q.Q.I.R.Q.OXOX/.'.oXI.Y./.I.I.I.I.I.I.(.oXI.I.I.R./.oX$X%XoX@X%X%X%X%X%X%X",
"%X%X%X%X%X_.(.%X@XoXQ.'.oXoXoXoXQ.I.I.I.I..X_.I.I.I.I.I.I.Q.E.I.[.[.R.}.oXI.I.I.I.I.I.I.I.I.(.oXI.I.I.R./.oX@X%XoXOX%X%X%X%X%X%X",
"%X%X%X%X%X%X%X%X(.I.%X}.I.I.I.I.I.I.I.I.I.I.I.I.I.I.I.I.I.%X}.I.I./.%X(.I.I.I.I.I.I.I.I.I.I.I.I.I.I.I.oX@XI.[.$XI.(.%X%X%X%X%X%X",
"%X%XQ.'.%X%X$XQ.'.oXQ.Y.I.}.[.I.I.I.I.I.I.I.I.I.I.I.I.I.I.Q.R.I.I.U./.I.I.I.I.I.I.I.I.I.I.I.I.I.I./.XX(.R.I.R./.oX}./.@X+XR.XX%X",
"%X%XQ.[.%XOX}.I.'.oXI.U.Q.oX[.I.I.I.I.I.I.I.I.I.I.I.I.I.I.I.I.I.I.I.I.I.I.I.I.I.I.I.I.I.I.I.I.I.I./.oXR.I.I.Y./.oX`.Q.$XOX/.oX%X",
"%X%X%X%X%XQ.I.I.I.I.I.(.%Xd.        l.I.I.I.I.I.I.I.I.I.I.I.I.I.I.I.I.I.I.I.I.I.I.I.I.I.I.I.I.I.I.I.I.I.I.I.}.%XI.(.$X%X%X%X%X%X",
"%X%X%X%X%XOX.XI.`.oXI.Y.Q.i.        l.I.I.I.I.I.I.I.I.I.I.I.I.I.I.I.I.I.I.I.I.I.I.I.I.I.I.I.I.I.I.I.I.I.I.I.R.Q.oX}./.@X%X%X%X%X",
"%X%X%X$XoX$X@XI.'.oXI.6.h k S V     l.I.I.I.I.I.I.I.I.I.I.I.I.I.I.I.I.I.I.I.I.I.I.I.I.I.I.~ h h h >.I.I.I.I.U./.XX`.I.@X%X%X%X%X",
"%X%X%X}.I.oX@XI.I.I.I.>.  ; _ P     l.I.I.I.I.I.I.I.I.I.I.I.I.I.I.I.I.I.I.I.I.I.I.I.I.I.I.8       ~ I.I.I.I.[.%XI.I.I.@X%X%X%X%X",
"%X%X%X@XoX(.R.I.I.6.>.W p b S B     l.I.I.I.I.I.I.I.I.I.I.I.I.I.I.K.>.>.>.>.g.I.I.I.L.;.>.| { w   ~ I.I.I.I.R./.I./.XX%X%X%X%X%X",
"%X%X%X$XoX(.Q.I.Y.l   p _ Y a i     l.I.I.I.I.I.I.I.I.I.I.I.I.I.I.j.        6.I.I.I.j.    Z.S./   ~ I.I.I./.Y.I./.`.oX$X%X%X%X%X",
"%X%X%X}.I.oX@XI.}.x   p ] K 2 e ~ ~ L.I.I.I.I.I.I.I.I.I.I.I.I.I.I.j.    V P :.6.a.I.l.    v.n.V   ~ I.I.Y.%X(.I.%X}.I.@X%X$X%X%X",
"}.Q.%X}.I.R.Q.oX'.l   p ] D   8 I.I.I.I.I.I.I.I.I.I.I.I.I.I.I.I.I.j.    Z.S.L   ~ I.l.    / _ 5   ~ I.I.U.Q.'.oX/.(.oX%XOX/.XX%X",
"}.Q.%X.XQ.Q.(.%X(.h   p ] D   8 I.I.I.I.I.I.I.I.I.I.I.I.I.I.I.I.I.j.    Z.S.P   E j.a.. . K ) 3   ^ Q.U.I.Q.}.XXI.(.%X%XoXQ.oX%X",
"%X%X%X%X$X%X%X%X(.h   p ] D   8 I.I.I.I.I.I.I.I.I.I.I.I.I.I.I.I.I.j.    Z.S.L       X p a a a *   ' %XQ.Y.%X(.I.I.(.%X%X%X%X%X%X",
"%X%X%XoXR.OX$XQ.U.h   a ] D   8 I.I.I.I.I.I.I.I.I.I.I.I.I.I.I.I.I.j.    Z.S.P       X a a a a *   ` Q.U.U.Q.'.oXXX}.Q.@X%X%X%X%X",
"%X%X%X.X/.OX@XQ.Q.l   i ] D   8 I.I.I.I.I.I.I.I.I.I.I.I.I.I.I.I.I.l.    [ ..S y m / K a i / ) m y e 8 h I.Q.}.oXoX'.Q.$X%X%X%X%X",
"%X%X%X%X%X%X%X%X%Xx   p ] D   8 I.I.I.I.I.I.I.I.I.I.I.I.I.I.I.I.I.l.    P _ V a Z ] ) a a ) _ V a ,   8 Y.$X(.I.I.(.%X%X%X%X%X%X",
"}.Q.%X%X%X%X%X%X[.j   p ] D   8 I.I.I.I.I.I.I.I.I.I.I.I.I.I.I.I.I.l.    b M S P ) ] ) / / _ _ _ / V 6 s l x Y.U.oX@X%X(.`.%X[./.",
"}.Q.%X%X%XOXoX%X(.h   p _ S   8 I.I.I.I.I.I.I.I.I.I.U.I.I.I.I.I.I.j.    y a J _ ] ] ] ] ] ] ] ] _ J a i     Y./.%X&X%X/.`.%X'.(.",
"%X%X%X%X$X/.Y.%X(.h   p _ J ; 9 >.>.>.>.>.>.>.>.>.>.>.>.%.;.<.*.;.%., - a a J _ ] ] ] ] ] ] ] ] _ _ S N , , 1.2.2.2.G.&X%X%X%X%X",
"%X%X%X%X%XOXOX%XOXz   p ] / a w                         .         X a a a a K _ ] ] _ _ ] ] _ ] _ _ _ / a a         2.&X%X%X%X%X",
"%X%X%X%X%X%X%X%X$Xx   6 K K V V 5 5 5 5 - * - 5 3 * * 3 w - * &   X a a V V / _ ] ] ) m V ) [ O.c.o.M N N V     E ' N.%X$X@X$X%X",
"%X%X%X%X%X%X%X%X(.l   , a M _ _ ] ] ] ] V a V ] _ a a / ) S a ,   X a a _ _ [ _ ] ] L     L ] n.S.O.$ % ] ]     p._.%X%XoXI.}.%X",
"%X%X%X%X%X%X%X%XoX` 8 , 6 d _ _ ] ] ] ] V a V ] ) a a _ ] M i ;   X a a / _ _ [ ] ] L     ] ] n.S.O.  % ] ]     M.!.|.&X$X}.@X%X",
"%X%X%X%X%X%X%X@X$X%XI.>.X # a b ] ] ] ] V a V ] ) a a / ] 5       X a a ) ] [ _ ] ] L     L ] n.S.O.  $ ] ]         2.#X$X%X%X%X",
"%X%X%X%X%X%X@XI.}.%XU.>.  # a b ] ] ] ] V a V ] ) a a _ _ 6   .   X a a ) ] _ [ ] ] L     L ] n.S.O.  $ ] ]         x.R.Q.%X%X%X",
"%X%X%XoX(.@X$X}.'.(.[.T.j.6.X X % # / ) _ ) _ ] ] ) ) ] ] ) / Z w 5 . $ p b P ) ] ] X.Z.Z.A.A.V.C.B.Z.b.$ $ j.j.!.^.|..X}.%X%X%X",
"%X%X%XXXR.oX%X%X(.I.@X[.I.i.        / ] ] ] ] ] ] ] ] ] ] _ ] J a w     i a J [ ] ] X.S.S.S.S.n.=.C.S.Z.    I.Y.@X$X%X@X$X%X$X@X",
"%X%X%X%X%X%X%X%X(.I.I.I.I.J.a.e.    / ] H M S ] ] ] ] ] _ [ _ _ P U G S P / S M a 1 2 v v v d 6 > q n n p.p.}.%XI.(.%XY.Q.%X_.Y.",
"%X%X%X%X%X'.(.(.'.}.I.I.I.I.I.j.    Y ] V a V ] ] ] ] ] [ _ [ _ [ _ _ [ ) _ V a 2           X #       1 R.[.'.`.}.'.(.}..X%XoX.X",
"%X%X%X%X%X(.Y.I.'.@XI.I.I.j.t.9.    c.v.) a n Z S D D D D A D P _ _ [ _ J S w : &   O >.e.5.5.3.>.,.;.<.Y.@X/.I.@X}.Y.oX$X%X%X%X",
"%X%X%X%X%X%X@XI.I.I.I.I.U.k.&.@.    Z.S.o.a a a a a a a a a a Z _ [ _ [ b p *       8 U.l.l.k.Y.I.I.I.I.I.I.I.I.I.(.%XY.Q.%X%X%X",
"%X%X%X%X%X'.(.}.Q.U.I.J.k.t.! T ; = Z.S.} 6 5 6 5 6 6 w 6 6 6 a D S ] ] V N =   . 7 g k.k.k.l.R.I.I.I.I.I.I.(.}.I.(.%X.X.X%X%X%X",
"%X%X%X%X%X/./.@X(.I.I.t.-.!   + ] ] A.S.P                         & ] ] ] ) 5   0 &.&.&.4.k./.l.I.I.I.I.I.I.[.OXY.(.@X%X%X%X%X%X",
"%X%X%X%X%X%X@XI.I.I.I.u.&.!   % ....m.Z.G O O O O         o O o   # / P ....m ; f @.#.&.&.k.l.R.I.I.I.I.I.I.I.I.%X}.I.@X%X%X%X%X",
"%X%X(.}.%X%X$X}.Q.I.[.d.&.!   2 S.S.2   T &.&.&.+.        T &.T         Z.S.S.S.z.  + &.3.l.R.l.I.Q.}.Y.U.}./.I.(.'.}.$XOX(.oX%X",
"%X%XY.`.%X%X%X@X_.Y.#XD.&.!   : S.S.,   T &.&.&.+.        T &.T         Z.S.S.S.z.  + -.&.l.U.R.I./.@X(.Q.OX(.Y.I.(.%X%XOXY..X%X",
"%X%X%X%X%X%X@XI.}.%XI.P.J.f.@.! ; ;     T &.&.&.&.+.+.+.@.#.&.#.@.@.@.+.r ; : : &   8 k.l.I.U.l.I.I.I.oX@XI.}.%XI.(.%X%X%X%X%X%X",
"%X%X%X%X%X'.(.}.'.(.I.I.I.H.;.+.        T &.&.&.&.&.&.&.&.&.&.&.&.&.&.&.+           8 I.U.}./.I.I.I.I././.I.Q.(.}.'.(.$X%X%X%X%X",
"%X%X@X$X$X(.Q.%X(.I.Y.U.I.}.F.t.T T T T @.&.&.&.&.&.&.&.&.&.&.&.&.&.&.&.Q R T T $.6.e.I.Y.@X`.I.Y.U.I.I.I.Y.Y.Y.%X.XY.@X%X%X%X%X",
"%X%XI.(.%X%X%X%X(.I.%X}.I.I.I.j.&.&.&.&.&.&.&.&.&.&.&.&.&.&.&.&.&.&.&.&.&.1.;.&.0.I.I.I.I.I.I.I.%X}.I.I.Y.%X%X%X%X%X%X%X%X%X%X%X",
"%X%X}.oX%X%X%X%XoX}.(.'.}.I./.}.s.t.t.t.3.,.-.&.&.&.&.&.&.&.&.&.&.&.&.&.r.d.i.t.h.I.I.'.[.I.I.I.(.Q.I.`.}.(.oX%X(.}.%X%X%X%X%X%X",
"%X%X%X%X%X%X%X%X%X%XY.).OXY./.OX/.I.I.I.0.<.;.&.&.&.&.&.&.&.&.&.&.&.&.*.L.U.I.I.Y.U.I.}.oXI.I.I.Y.U.I.}.oXY.XX%XY.`.%X%X%X%X%X%X",
"%X%X%X%X%X%X%X%X%X%X%X}.I.I.I.I.I.I.I.I.t.4.4.4.4.4.4.4.4.4.4.4.q.q.4.8.#XI.I.I.@XoXI.I.I.I.I.I.%X}.I.I.Y.%X%X%X%X%X%X%X%X%X%X%X",
"%X%X%X%X%X%X%X%X%X%X%X+X].U.U.'.'.`.I.I.I.I.I.I.(.`.I.I.I.I.I.I.(.(.I./.'.'.'.'.'.'.'.Y.U.'.Q.I.'.'.'.'.[.%X%X%X%X%X%X%X%X%X%X%X",
"%X%X%X%X%X%X%X%X%X%X%X%X%XU./.%X%X@XI.I.I.I.I.I.oX@XI.I.I.I.I.I.I.I.I.I.I.%X%X%XY.Q.%XQ.Y.%X'.I.I.(.%X%X%X%X%X%X%X%X%X%X%X%X%X%X",
"%X%X%X%X%X%X%X%X).I.%X%X%X%X%X%X(.I.I.`.%XY.I.I.I.I.I.I.I.%X}.I.oXoXI.}.%X%X'.I.@XoXI.oX@XI.'.%X%X}.I.oX%X%X(.I.%X%X%X%X%X%X%X&X",
"%X%X%X%X%X%X%X%XXX'.%X%X%X%X%X%XXX`.I./.'.U.R.'.Y.U.'.R.I.'.'.'.'.'.'.+X%X%XoX'.$X@X'.@X$X'.oX%X%XOX'.@X%X%XXX'.%X%X%X%X%X%X%X%X",
"%X%X%X%X%X%X%X%X%X%X%X%X%X%X%X%X%X@XI.I.I.I.(.%X/.Y.%X(.I.I.(.%X/./.@X%X%X%X%X%X$X%X%X%X%X%X%X%X%X%X%X%X%X%X%X%X%X%X%X%X%X%X%X%X",
"%X%X%X%X%X%X%X%X%X%X%X%X%X%XoXI.}.%X%X%X%X%X}.I.oX+XI.I.I.I.(.%X%X%X%X(.I.%X%X%XY./.%X%X%X%X'.I.%X%X%X%X%X%X%X%X%X%X%X%X%X%X%X%X",
"%X%X%X%X%X%X%X%X%X%X%X%X%X%X@X'.OX%X%X%X%X[.'.'.@X$X'.'.'.'.XX%X%X%X%XXX'.%X%X%X[.}.%X%X%X%XoX'.%X%X%X%X%X%X%X%X%X%X%X%X%X%X%X%X",
"%X%X%X%X%X%X%X%X%X%X%X%X%X%X%X%X%X%X%X%X%XY.(.%X%X%X%X%X%X%X%X%X%X%X%X%X%X%X%X%X%X%X%X%X%X%X%X%X%X%X%X%X%X%X%X%X%X%X%X%X%X%X%X%X",
"&X&X%X%X%X%X%X%X%X%X%X}.I.@X%X%X%X%X%X%X%X%X%X%X%X%X%X(.I.%X%X%X%X%X%X%X%X%X%X%X%X%X%X%X%X%X%X%X%X%X%X%X%X%X%X%X%X%X%X%X%X%X%X%X",
"*X*X%X%X%X%X%X%X%X%X%X+X'.$X%X%X%X%X%X%X%X%X%X%X%X%X%XXX'.%X%X%X%X%X%X%X%X%X%X%X%X%X%X%X%X%X%X%X%X%X%X%X%X%X%X%X%X%X%X%X%X%X%X%X"
};
