/* XPM */
static char *_7876892c6b84f0d9f5fabb469ae1f57Dr7eP8tktpsAAlOB[] = {
/* columns rows colors chars-per-pixel */
"64 64 171 2 ",
"   c #3B2B26",
".  c #3F302A",
"X  c #3D3533",
"o  c #3D3534",
"O  c #41322C",
"+  c #42322C",
"@  c #43342E",
"#  c #44342E",
"$  c #473A32",
"%  c #423A37",
"&  c #483932",
"*  c #4C3D36",
"=  c #413B3A",
"-  c #4E4038",
";  c #4F4038",
":  c #4F453F",
">  c #50433A",
",  c #54453E",
"<  c #54473E",
"1  c #444041",
"2  c #454141",
"3  c #42494E",
"4  c #42494F",
"5  c #4D4A49",
"6  c #4B4D4E",
"7  c #564840",
"8  c #564940",
"9  c #534C46",
"0  c #584A41",
"q  c #584C42",
"w  c #594C42",
"e  c #5E4F46",
"r  c #5D5146",
"t  c #4E5355",
"y  c #44535C",
"u  c #4E575C",
"i  c #61554A",
"p  c #64574C",
"a  c #65574E",
"s  c #66574E",
"d  c #66594E",
"f  c #685B50",
"g  c #6B5C53",
"h  c #6C5D54",
"j  c #6C5F55",
"k  c #6C6154",
"l  c #6F6156",
"z  c #6F6057",
"x  c #706358",
"c  c #72655A",
"v  c #73665A",
"b  c #73665B",
"n  c #75685D",
"m  c #76695C",
"M  c #77695F",
"N  c #776A5F",
"B  c #78695F",
"V  c #465D6A",
"C  c #565F64",
"Z  c #5E6363",
"A  c #476270",
"S  c #486777",
"D  c #546870",
"F  c #576B77",
"G  c #796B61",
"H  c #7A6C61",
"J  c #7C6E63",
"K  c #7E7065",
"L  c #7F7465",
"P  c #807267",
"I  c #897E6E",
"U  c #8B7E71",
"Y  c #4B7185",
"T  c #4B768B",
"R  c #547485",
"E  c #587785",
"W  c #5C7685",
"Q  c #5F7987",
"!  c #51788B",
"~  c #4D7B92",
"^  c #517D92",
"/  c #707F85",
"(  c #588092",
")  c #5A8192",
"_  c #5D8292",
"`  c #5F8392",
"'  c #578399",
"]  c #54869F",
"[  c #618492",
"{  c #698492",
"}  c #688792",
"|  c #6D8692",
" . c #718892",
".. c #718B92",
"X. c #72949F",
"o. c #77969F",
"O. c #7B989F",
"+. c #5486A0",
"@. c #578CA6",
"#. c #5B92AD",
"$. c #658BA0",
"%. c #6B97AD",
"&. c #6B97AE",
"*. c #7A9DAD",
"=. c #6098B4",
"-. c #639DBB",
";. c #639EBB",
":. c #6FA1BB",
">. c #7BA7BB",
",. c #66A3C1",
"<. c #6AA9C8",
"1. c #6AA9C9",
"2. c #74ACC8",
"3. c #74ACC9",
"4. c #6DAED0",
"5. c #6DAFD0",
"6. c #71B4D6",
"7. c #71B5D6",
"8. c #72B4D6",
"9. c #79B7D7",
"0. c #74BADD",
"q. c #7DC1E4",
"w. c #7EC1E4",
"e. c #9D9380",
"r. c #AAA18C",
"t. c #84ACBB",
"y. c #8BAFBB",
"u. c #C4BCA4",
"i. c #D8D1B6",
"p. c #85B5C8",
"a. c #86B5C8",
"s. c #8DBDCF",
"d. c #A3C1C8",
"f. c #90CBE4",
"g. c #9DD0E4",
"h. c #80CBF1",
"j. c #80CCF2",
"k. c #8ED1F2",
"l. c #83D1F8",
"z. c #87D7FF",
"x. c #8BD9FF",
"c. c #8FDBFF",
"v. c #9DD9F1",
"b. c #92DCFF",
"n. c #93DCFF",
"m. c #97DEFF",
"M. c #9BDFFF",
"N. c #A9D6E4",
"B. c #A2D6EB",
"V. c #9BE0FF",
"C. c #9FE1FF",
"Z. c #9EE2FF",
"A. c #A2E3FF",
"S. c #A2E4FF",
"D. c #A6E5FF",
"F. c #A7E5FF",
"G. c #AAE7FF",
"H. c #AEE9FF",
"J. c #BBE6F2",
"K. c #B2EAFF",
"L. c #B2EBFF",
"P. c #B6ECFF",
"I. c #BAEDFF",
"U. c #BAEEFF",
"Y. c #BEEFFF",
"T. c #C2F1FF",
"R. c #C2F2FF",
"E. c #C6F3FF",
"W. c #C9F4FF",
"Q. c #D4F6FF",
"!. c #E1F9FF",
/* pixels */
"E.E.E.E.E.E.E.E.E.E.E.E.E.E.E.E.E.E.E.E.E.E.E.E.E.E.E.E.E.E.E.E.E.E.E.E.E.E.E.E.E.E.E.E.E.E.E.E.E.E.E.E.E.E.E.E.E.E.E.E.E.E.E.E.",
"E.E.E.E.E.E.E.E.E.E.E.E.E.E.E.E.E.E.E.E.E.E.E.E.E.E.E.E.E.E.E.E.E.E.E.E.E.E.E.E.E.E.E.E.E.E.E.E.E.E.E.E.E.E.E.E.E.E.E.E.E.E.E.E.",
"E.E.E.E.E.E.E.E.E.E.E.E.E.E.E.E.E.E.E.E.E.E.E.E.E.E.E.E.E.E.E.E.E.E.E.E.E.E.E.E.E.E.E.E.E.E.E.E.E.E.E.E.E.E.E.E.E.E.E.E.E.E.E.E.",
"E.E.E.E.E.E.E.E.E.E.E.E.E.m.C.E.E.E.E.E.E.E.L.c.I.E.E.E.E.c.S.E.E.E.E.E.E.c.G.E.E.E.E.E.E.E.E.E.E.K.c.I.E.E.E.E.E.E.E.E.E.E.E.E.",
"E.E.E.E.E.E.E.E.E.E.E.E.E.A.D.E.E.E.E.E.E.E.P.C.I.R.H.Y.E.C.H.E.E.E.E.E.E.C.K.E.H.P.E.K.H.H.I.E.E.P.C.I.E.E.E.E.E.E.E.E.E.E.E.E.",
"E.E.E.E.E.E.E.E.E.E.E.E.E.E.E.E.E.R.E.E.E.E.E.E.E.Y.z.H.E.R.E.E.E.E.E.E.E.E.E.E.c.V.E.m.z.z.D.E.E.E.E.E.E.E.E.E.E.E.E.E.E.E.E.E.",
"E.E.E.E.E.E.E.E.E.E.E.K.c.Y.E.E.S.V.E.G.c.Y.E.E.V.m.Y.R.E.E.E.E.V.C.E.E.E.E.G.c.P.H.c.x.c.Y.D.c.E.E.E.V.m.E.E.E.E.E.E.E.E.E.E.E.",
"E.E.E.E.E.E.E.E.E.E.E.P.C.H.H.H.D.C.H.V.z.G.H.H.D.C.H.Y.E.H.P.E.G.D.E.P.H.H.D.C.H.D.z.z.x.H.V.z.H.H.H.D.C.H.Y.E.H.P.E.E.E.E.E.E.",
"E.E.E.E.E.E.E.E.E.E.E.E.E.c.z.z.H.Y.z.z.z.z.z.z.P.Y.z.H.E.z.V.E.E.E.E.C.z.z.D.E.c.z.z.z.z.z.z.z.z.z.z.P.Y.z.H.E.z.C.E.E.E.E.E.E.",
"E.E.E.E.E.A.V.E.E.E.m.D.E.P.P.P.D.b.z.z.$.| | Q >.b.z.b.m.z.b.m.I.I.V.v. .[ | | 9.z.z.z.z.z.C.P.z.z.z.b.m.P.R.E.P.Y.E.E.E.E.E.E.",
"E.E.E.E.E.A.C.E.Y.P.m.D.P.P.P.P.m.z.z.z.1       F x.z.z.z.m.b.z.G.H.b.g.        %.z.z.z.z.z.C.P.z.z.z.b.C.P.Y.E.P.I.E.E.E.E.E.E.",
"E.E.E.E.E.E.E.E.C.z.E.H.z.z.z.z.z.z.z.z.2   - p / 2.3.z.z.E.H.z.z.k.d.*.r d #   %.z.z.z.z.z.z.z.z.z.z.P.Y.z.H.E.z.C.E.E.E.E.E.E.",
"E.E.m.D.E.E.R.m.D.P.m.c.z.H.G.z.z.z.z.z.2   e.i.e.  1 z.z.m.c.z.z.%.  - i.i.-   %.z.z.z.z.z.z.z.z.V.L.C.b.x.b.b.P.H.m.Y.I.b.L.E.",
"E.E.m.G.E.I.H.z.D.P.z.x.m.P.G.z.z.z.z.z.2   e.i.e.  1 z.z.x.z.z.z.%.  - i.i.-   %.z.z.z.z.z.z.z.z.V.P.b.z.z.c.V.P.S.m.R.I.V.P.E.",
"E.E.R.E.E.m.z.z.z.z.z.C.E.c.z.z.z.z.z.z.2   e.i.r.r 8             $ r k i.i.-   %.z.z.z.z.z.z.z.z.z.z.z.z.z.H.R.z.C.R.E.E.E.E.E.",
"E.E.E.E.E.I.K.z.S.P.z.c.m.z.z.z.z.z.z.c.2   e.i.r.r 8             $ r k i.i.-   %.z.z.z.z.z.z.z.z.z.z.z.z.z.b.V.P.H.V.Y.E.E.E.E.",
"E.E.E.R.P.R.Y.z.D.P.z.z.z.z.z.z.z.z.z.z.1   j U G e s M M M B B B l r r U U #   %.z.z.z.z.z.z.z.z.z.z.z.z.z.x.V.L.S.z.Y.E.E.E.E.",
"E.E.E.H.z.P.Y.z.z.z.z.z.z.z.z.z.z.z.z.z.1   d L b r p K K L P P P b r d P P #   %.z.z.z.z.z.z.z.z.z.z.z.z.z.G.E.z.z.z.Y.E.E.E.E.",
"E.E.E.Y.P.C.b.z.z.z.z.z.z.z.z.3.F F F F 9 > l K J b G P P P P P P J v B P P 7 2 Z F F F W z.z.z.z.z.z.z.z.z.b.V.z.V.L.E.E.E.E.E.",
"E.E.E.R.P.C.m.z.c.V.z.z.z.z.z.%.        q r b K P P J P P P P P P P P P P P p r %       1 z.z.z.z.z.z.z.z.V.c.z.V.S.P.R.E.E.E.E.",
"E.E.E.H.z.P.Y.z.H.E.z.z.z.z.x.5.F Z     d j M K P P P P P P P P P P P P P P z l *   2 F W z.z.z.z.z.z.z.c.E.C.z.E.H.z.Y.E.R.E.E.",
"H.m.E.H.z.b.m.P.S.V.z.z.z.z.z.x.z.q.    G K P L P P P P P P P P P P P P P P J P >   F z.z.z.z.z.z.z.z.z.x.m.D.P.V.C.P.E.I.V.L.E.",
"H.m.E.K.m.m.C.E.Z.z.V.b.z.z.z.w.1.&.    H P P P J x j j h J P P P P P P P P P J 8   C 3.3.z.z.z.z.x.m.x.z.m.H.L.z.C.E.E.P.m.P.E.",
"E.R.E.E.E.E.E.E.Z.z.R.H.z.z.z.%.        M P P P s         G P P P P P P P P P P >       1 z.z.z.z.C.E.m.c.E.C.z.z.C.E.E.E.E.E.E.",
"E.E.E.P.b.I.R.m.x.z.m.c.z.z.z.%.        N L L P a         G P P P P P P P P P P >       1 z.z.z.z.c.m.x.x.m.D.P.L.H.m.Y.E.E.E.E.",
"E.E.E.K.V.I.Y.V.m.m.z.z.z.z.z.z.x.q.    q r r r >   # P P #   > r r r q     q r $   F x.z.z.z.z.z.z.z.z.z.m.H.P.P.D.m.R.E.E.E.E.",
"E.E.E.E.E.E.E.E.E.R.z.z.z.z.z.z.x.q.    q r r r >   # P P #   > r r r q     q r $   F z.z.z.z.z.z.z.z.z.c.R.C.z.z.C.E.E.E.E.E.E.",
"H.m.E.E.E.E.E.E.G.m.z.z.z.z.z.z.z.w.3.3.5 @ @ . .   @ a s g z < # * r q     # # Q 3.q.z.z.z.z.z.z.z.z.z.x.m.x.z.P.Y.E.C.S.E.G.V.",
"H.m.E.E.E.I.P.E.C.z.V.m.m.x.z.z.z.z.z.z.2           O r r H P <   * r q         %.z.z.z.z.z.z.z.z.x.m.x.z.z.c.m.E.E.E.V.S.E.D.C.",
"E.E.E.E.R.V.c.E.V.z.E.R.R.c.z.z.z.z.z.z.:.%.u   # > * $ & H P <   * b k     } %.q.z.z.z.z.z.z.z.z.C.E.m.z.z.H.E.E.E.E.E.E.E.E.E.",
"E.E.E.E.E.I.I.E.I.P.V.m.m.z.z.z.z.z.z.z.z.z.F   $ r q     M K <   7 K J     q.x.z.z.z.z.z.z.z.z.z.c.m.x.x.P.D.m.m.D.E.E.E.E.E.E.",
"E.E.E.E.E.E.E.E.R.Y.c.x.z.z.z.z.z.z.z.z.:.%.Z % < h d     G P <   7 K J $ $ $.&.q.z.z.z.z.z.z.z.z.z.z.z.c.Y.C.c.z.C.E.E.R.Y.R.E.",
"E.E.E.E.E.E.E.E.Z.x.R.G.z.z.z.z.z.z.z.z.2   > e s P G     G K ,   > P J r r @   %.z.z.z.z.z.z.z.z.z.z.z.z.z.H.E.z.C.E.E.P.z.H.E.",
"E.E.E.E.E.E.E.E.L.G.C.V.z.z.z.z.z.z.z.z.2   < f x P G     G P ,   7 P J s s +   %.z.z.z.z.z.z.z.z.z.z.D.G.z.m.C.H.P.E.E.R.H.Y.E.",
"E.E.E.E.E.E.E.Y.Y.W.z.z.z.z.z.z.z.z.z.z.2   a P P P b     b P 7   , K P P P +   %.z.z.z.z.z.z.z.z.z.z.H.P.z.z.z.Y.R.E.Y.R.E.E.E.",
"E.E.E.E.E.E.Y.z.H.W.z.z.z.z.z.z.z.z.z.z.2   a P P P G     G P 7   7 K K P P #   %.z.z.z.z.z.z.z.z.z.z.z.z.z.z.z.z.C.E.c.m.E.E.E.",
"E.E.E.P.Z.U.R.H.D.Z.H.Z.z.z.z.z.z.z.z.z.2   s P P P G     G K >   7 P P P P @   %.z.z.z.z.z.z.z.z.z.z.z.z.z.z.z.H.P.E.K.K.E.E.E.",
"E.E.E.L.c.P.E.E.Z.z.U.H.z.z.z.z.z.z.z.z.2   s K P P G     G K 8   7 P P P P @   %.z.z.z.z.z.z.z.z.x.c.z.z.z.x.c.Y.R.E.Y.R.E.R.Y.",
"E.E.E.E.E.E.E.E.Z.z.z.z.z.z.z.z.z.z.z.z.2   s P P P G , 7 J K p > a P P P P @   %.z.z.z.z.z.z.z.z.C.E.m.z.z.H.E.z.C.E.c.m.E.C.c.",
"E.E.E.E.E.G.Z.Z.D.H.z.z.z.z.z.z.z.z.z.z.2   s P P P H e r J K j r h P P P P @   %.z.z.z.z.z.z.z.z.c.C.c.x.H.D.C.H.D.C.H.K.E.P.K.",
"E.E.E.E.E.Z.c.z.D.I.z.z.z.z.z.z.z.l.-.-.=   d P P P K G b H P H b G K P P P O   R -.8.z.z.z.z.z.z.z.z.z.c.Y.V.z.Y.H.c.P.R.E.E.E.",
"E.E.E.E.E.E.Y.z.z.z.z.z.z.z.x.x.z.h.~ ~ o   s P K L K P P K K J P P P P K L #   V ~ -.z.z.z.z.z.z.z.z.z.z.z.z.z.z.C.E.c.m.E.E.E.",
"E.E.E.E.R.G.Z.H.V.z.z.z.z.z.z.q.8.4.~ ~ X   e b G L P P P h d G P P P P b b #   V ~ #.6.0.z.z.z.z.z.z.z.z.z.C.H.z.C.E.K.K.E.E.E.",
"E.E.E.E.E.Z.V.Y.V.z.z.z.z.z.z.7.~ ~ ~ ~ o   > r h P P K P #   d P P K K e r @   V ~ ~ ~ ] z.z.z.z.z.z.z.z.z.G.I.c.C.Y.E.E.E.E.E.",
"E.E.E.E.E.E.Y.z.z.z.z.z.c.q.q.4.~ ~ ~ ~ 1 o : 0 d L L H L @   t K H K H q q % X A ~ ~ ~ ] j.j.z.z.z.z.z.z.z.z.z.E.H.z.Y.E.E.E.E.",
"E.E.Z.H.E.E.R.H.V.z.H.C.z.1.' ~ ~ ~ ~ ~ ~ ~ 3   < L K r r .   - r h L M     Y ~ ~ ~ ~ ~ ~ ~ ~ j.z.m.H.c.x.H.V.z.C.D.H.R.I.C.P.E.",
"E.E.c.S.E.E.E.Y.C.c.I.G.z.4.~ ~ ~ ~ ~ ~ ~ ~ 4   > J H r r .   - r j K M     Y ~ ~ ~ ~ ~ ~ ~ ~ j.z.V.Y.C.M.I.C.c.z.C.E.E.I.c.K.E.",
"E.E.E.E.E.E.Y.z.H.E.z.z.z.1.~ ~ ~ ~ ~ ~ ~ ~ 4   k i.i.    Y ~ 3   G i.u.    Y ~ ~ ~ ~ ~ ~ ~ ~ j.z.z.z.P.Y.z.G.E.z.C.E.E.E.E.E.E.",
"E.E.E.E.E.D.C.H.D.C.z.z.z.a.` ! ~ ~ ~ ~ ~ ~ 3   n i.u.    Y ~ 3   b i.i.    Y ~ ~ ~ ~ ~ ( } ' q.z.z.z.V.V.z.m.C.H.D.C.R.E.E.E.E.",
"E.E.Y.R.R.C.V.R.C.z.c.x.z.D.g.1.~ ~ ~ ~ ~ ~ 3   n i.u.    Y ~ 3   x i.r.    Y ~ ~ ~ ~ ~ ] N.f.z.c.x.z.z.z.c.c.c.E.K.c.Y.E.E.E.E.",
"E.E.z.C.E.E.E.E.Z.z.E.H.z.z.z.6.' ~ ~ ~ ~ ( 3   n i.u.    Y ~ 3   M i.i.    E ~ ~ ~ ~ ~ ] x.z.z.E.H.z.z.c.E.E.E.E.E.E.E.E.E.E.E.",
"E.E.H.P.E.E.E.E.P.H.C.D.H.x.b.B.<.;.~ ( ~ ( A y Z I L     Y ~ 3   < I L y y T ~ ~ ~ @.p.s.z.z.z.C.m.z.S.H.C.P.E.C.H.E.E.E.E.E.E.",
"E.E.E.E.E.E.E.E.E.E.c.C.Y.c.b.Y.V.q.' ( ~ [ [ ~ A         Y ~ 3       X ^ ~ ~ ~ ~ ~ :.G.P.z.z.z.c.x.z.H.P.c.L.E.c.S.E.E.E.E.E.E.",
"E.E.E.E.E.E.E.E.E.E.E.H.z.z.z.x.z.z.;.;.:.:.] ~ S 3 3 3 3 T ~ V 6 6 3 t ..~ =.:.y.t.7.z.z.z.z.z.E.H.z.z.c.E.E.E.E.E.E.E.E.E.E.E.",
"E.E.E.E.E.E.E.E.E.E.E.I.S.x.c.D.D.Z.z.z.w.z.-.~ ( ) ( ( ~ ~ ~ ~ ( ( ~ ( _ ` v.D.D.D.S.c.x.D.m.z.D.D.D.D.G.E.E.E.E.E.E.E.E.E.E.E.",
"E.E.E.E.E.E.E.E.E.E.E.E.E.c.V.E.E.Y.z.z.z.z.,.] X.X.] ] ] ] ] ] ] ] ] ] ] O.J.E.c.b.R.V.c.E.D.z.z.C.E.E.E.E.E.E.E.E.E.E.E.E.E.E.",
"E.E.E.E.E.E.E.E.C.z.E.E.E.E.E.E.C.z.z.S.E.c.z.z.z.z.z.z.z.E.H.z.I.P.z.H.E.E.D.z.Y.P.z.P.Y.z.D.E.E.H.z.P.E.E.C.z.E.E.E.E.E.E.E.W.",
"E.E.E.E.E.E.E.E.L.S.E.E.E.E.E.E.L.S.z.V.D.x.b.D.c.x.D.b.z.D.D.D.S.G.D.U.E.E.P.D.R.Y.D.Y.R.D.P.E.E.I.D.Y.E.E.K.D.E.E.E.E.E.E.E.W.",
"E.E.E.E.E.E.E.E.E.E.E.E.E.E.E.E.E.Y.z.z.z.z.C.E.V.c.E.Z.z.z.C.E.V.V.R.E.E.E.E.E.R.E.E.E.E.E.E.E.E.E.E.E.E.E.E.E.E.E.E.E.E.E.E.E.",
"E.E.E.E.E.E.E.E.E.E.E.E.E.E.P.z.H.E.E.E.E.E.H.z.P.Y.z.z.z.z.C.E.R.E.R.Z.z.E.E.E.c.V.E.E.E.E.D.z.E.E.E.E.E.E.E.E.E.E.E.E.E.E.E.E.",
"E.E.E.E.E.E.E.E.E.E.E.E.E.E.Y.D.I.E.E.E.E.G.D.D.Y.R.D.D.D.D.L.E.E.E.E.L.D.E.E.E.G.H.E.E.E.E.P.D.E.E.E.E.E.E.E.E.E.E.E.E.E.E.E.E.",
"E.E.E.E.E.E.E.E.E.E.E.E.E.E.E.E.E.E.E.E.E.c.C.E.E.E.E.E.E.E.E.E.E.E.E.E.E.E.E.E.E.E.E.E.E.E.E.E.E.E.E.E.E.E.E.E.E.E.E.E.E.E.E.E.",
"E.E.E.E.E.E.E.E.E.E.E.H.z.Y.E.E.E.E.E.E.E.E.E.E.E.E.E.C.z.E.E.E.E.E.E.E.E.E.E.E.E.E.E.E.E.E.E.E.E.E.E.E.E.E.E.E.E.E.E.E.E.E.E.E.",
"Q.!.E.E.E.E.E.E.E.E.E.I.D.R.E.E.E.E.E.E.E.E.E.E.E.E.E.H.D.E.E.E.E.E.E.E.E.E.E.E.E.E.E.E.E.E.E.E.E.E.E.E.E.E.E.E.E.E.E.E.E.E.E.E."
};
