/* XPM */
static char *_a1728e4263b48bf971b6ee00eabeee6Hm2PnVbrfACoshHV[] = {
/* columns rows colors chars-per-pixel */
"64 64 164 2 ",
"   c #3B2B26",
".  c #3F2F2A",
"X  c #3F302A",
"o  c #3D3534",
"O  c #43342E",
"+  c #44342E",
"@  c #473A32",
"#  c #493A33",
"$  c #4A3B34",
"%  c #4C3D36",
"&  c #4C3E36",
"*  c #4E4038",
"=  c #4F4038",
"-  c #4A423D",
";  c #50423A",
":  c #50433A",
">  c #53443C",
",  c #55453E",
"<  c #55463E",
"1  c #55473E",
"2  c #54483E",
"3  c #3F3F41",
"4  c #444041",
"5  c #454141",
"6  c #42494E",
"7  c #484949",
"8  c #574840",
"9  c #584B41",
"0  c #594A42",
"q  c #584C42",
"w  c #5D4E46",
"e  c #5D5146",
"r  c #54504E",
"t  c #5F5248",
"y  c #424E55",
"u  c #44535C",
"i  c #4E565C",
"p  c #535759",
"a  c #615349",
"s  c #62534A",
"d  c #61554A",
"f  c #62544A",
"g  c #66574E",
"h  c #66594E",
"j  c #635851",
"k  c #6B5C52",
"l  c #6A5D52",
"z  c #6B5C53",
"x  c #6C5F54",
"c  c #6D5F54",
"v  c #6C6154",
"b  c #6F6056",
"n  c #6E6057",
"m  c #6F6057",
"M  c #72655A",
"N  c #73655A",
"B  c #73675A",
"V  c #75685D",
"C  c #77695F",
"Z  c #78695F",
"A  c #475A65",
"S  c #465D6A",
"D  c #53616A",
"F  c #5D676A",
"G  c #476270",
"H  c #516670",
"J  c #526A77",
"K  c #576B77",
"L  c #6A6A65",
"P  c #7A6C60",
"I  c #7C6E63",
"U  c #7E7065",
"Y  c #807267",
"T  c #887C6D",
"R  c #897E6E",
"E  c #8B7E71",
"W  c #938877",
"Q  c #948D7E",
"!  c #9B8F7F",
"~  c #4B7184",
"^  c #4C768B",
"/  c #5C7685",
"(  c #4D7B92",
")  c #4F7C92",
"_  c #517D92",
"`  c #547E92",
"'  c #C46D86",
"]  c #C77A8C",
"[  c #5F8392",
"{  c #518099",
"}  c #54869F",
"|  c #638592",
" . c #688792",
".. c #648D9F",
"X. c #718B92",
"o. c #6A909F",
"O. c #6B97AD",
"+. c #639EBB",
"@. c #69A0BB",
"#. c #6FA1BB",
"$. c #66A3C1",
"%. c #6AA9C8",
"&. c #74ACC8",
"*. c #74ACC9",
"=. c #71B4D6",
"-. c #79B7D7",
";. c #7DC1E3",
":. c #78C0E4",
">. c #7DC1E4",
",. c #7CC6EB",
"<. c #9D9280",
"1. c #9D9380",
"2. c #A19584",
"3. c #A99E8B",
"4. c #A9A18C",
"5. c #ACA18E",
"6. c #AEA590",
"7. c #B1A792",
"8. c #B7AD98",
"9. c #89AFBB",
"0. c #D0ACA4",
"q. c #C2B9A2",
"w. c #C4BCA4",
"e. c #D3B8AA",
"r. c #CDC5AC",
"t. c #D3CBB1",
"y. c #D7CAB3",
"u. c #D8D1B6",
"i. c #8AC6E3",
"p. c #89C8E4",
"a. c #93CFEB",
"s. c #80CBF1",
"d. c #82CCF2",
"f. c #8AD0F2",
"g. c #83D1F8",
"h. c #87D7FF",
"j. c #8BD9FF",
"k. c #8FDBFF",
"l. c #92DCFF",
"z. c #97DEFF",
"x. c #9BDFFF",
"c. c #9BE0FF",
"v. c #9FE1FF",
"b. c #9EE2FF",
"n. c #A2E3FF",
"m. c #A2E4FF",
"M. c #A6E5FF",
"N. c #A6E6FF",
"B. c #AAE7FF",
"V. c #ABE7FF",
"C. c #AEE9FF",
"Z. c #B2EAFF",
"A. c #B2EBFF",
"S. c #B6ECFF",
"D. c #BAEDFF",
"F. c #BAEEFF",
"G. c #BEEFFF",
"H. c #C2F1FF",
"J. c #C2F2FF",
"K. c #C6F3FF",
"L. c #C9F4FF",
"P. c #CDF4FF",
"I. c #D4F6FF",
"U. c #E1F9FF",
/* pixels */
"K.K.K.K.K.K.K.K.K.K.K.K.K.K.K.K.K.K.K.K.K.K.K.K.K.K.K.K.K.K.K.K.K.K.K.K.K.K.K.K.K.K.K.K.K.K.K.K.K.K.K.K.K.K.K.K.K.K.K.K.K.K.K.K.",
"K.K.K.K.K.K.K.K.K.K.K.K.K.K.K.K.K.K.K.K.K.K.K.K.K.K.K.K.K.K.K.K.K.K.K.K.K.K.K.K.K.K.K.K.K.K.K.K.K.K.K.K.K.K.K.K.K.K.K.K.K.K.K.K.",
"K.K.K.K.K.K.K.K.K.K.K.K.K.K.K.K.K.K.K.K.K.K.K.K.K.K.K.K.K.K.K.K.K.K.K.K.K.K.K.K.K.K.K.K.K.K.K.K.K.K.K.K.K.K.K.K.K.K.K.K.K.K.K.K.",
"K.K.K.K.K.K.K.K.K.K.K.K.K.z.v.K.K.K.K.K.K.K.Z.k.D.K.K.K.K.k.m.K.K.K.K.K.K.k.B.K.K.K.K.K.K.K.K.K.K.Z.k.D.K.K.K.K.K.K.K.K.K.K.K.K.",
"K.K.K.K.K.K.K.K.K.K.K.K.K.n.M.K.K.K.K.K.K.K.S.v.D.J.C.G.K.v.C.K.K.K.K.K.K.v.Z.K.Z.S.K.Z.C.C.D.K.K.S.v.S.K.K.K.K.K.K.K.K.K.K.K.K.",
"K.K.K.K.K.K.K.K.K.K.K.K.K.K.K.K.K.K.K.K.K.K.K.K.K.G.h.C.K.K.K.K.K.K.K.K.K.K.K.K.k.z.K.z.h.h.M.K.K.K.K.K.K.K.K.K.K.K.K.K.K.K.K.K.",
"K.K.K.K.K.K.K.K.K.K.K.Z.k.G.K.K.m.z.K.B.k.G.K.K.c.z.G.J.K.K.K.K.c.v.K.K.K.K.B.k.S.C.k.j.k.G.M.k.K.K.K.c.c.K.K.K.K.K.K.K.K.K.K.K.",
"K.K.K.K.K.K.K.K.K.K.K.S.v.C.C.C.M.v.C.c.h.B.C.C.M.v.C.G.K.C.S.K.B.M.K.S.C.C.m.v.C.M.h.h.j.C.c.h.C.C.C.M.c.C.G.K.C.S.K.K.K.K.K.K.",
"K.K.K.K.K.K.K.K.K.K.K.K.K.k.h.h.C.G.h.h.h.h.h.h.S.G.h.C.K.h.v.K.K.K.K.v.h.h.M.K.k.h.h.h.h.h.h.h.h.h.h.S.G.h.C.K.h.v.K.K.K.K.K.K.",
"K.K.K.K.K.n.c.K.K.K.z.M.K.S.S.S.M.l.h.h.h.C.M.h.z.l.;.i.i.;.f.x.D.D.c.M.S.h.k.z.h.h.h.h.h.h.v.S.h.h.h.l.c.S.J.K.S.G.K.K.K.K.K.K.",
"K.K.K.K.K.n.v.K.G.S.z.M.S.S.S.S.z.h.h.h.h.Z.n.h.h.h.5       K h.B.B.l.C.S.h.h.h.h.h.h.h.h.h.v.S.h.h.h.l.c.S.G.K.S.D.K.K.K.K.K.K.",
"K.K.K.K.K.K.K.K.v.h.K.C.h.h.h.h.h.h.h.h.h.h.h.h.h.h.5       K j.h.c.K.v.h.h.h.h.h.h.h.h.h.h.h.h.h.h.h.S.G.h.B.J.h.v.K.K.K.K.K.K.",
"K.K.z.M.K.K.J.z.M.S.z.k.h.C.B.h.h.h.h.h.h.h.h.h.h.h.4   f Z z 5 i j.z.j.h.h.h.h.h.h.h.h.h.h.h.h.h.c.A.v.l.h.l.c.S.C.z.G.D.l.A.K.",
"K.K.z.B.K.D.C.h.M.S.h.j.z.S.B.h.h.h.h.h.h.h.h.h.h.h.5   h Y h   5 h.h.h.h.h.h.h.h.h.h.h.h.h.h.h.h.c.S.l.h.h.k.c.S.M.z.J.D.c.S.K.",
"K.K.J.K.K.z.h.h.h.h.h.v.K.k.h.h.h.h.h.h.h.h.h.h.h.h.5   , h g v L p i ;.h.h.h.h.h.h.h.h.h.h.h.h.h.h.h.h.h.h.C.K.h.v.J.K.K.K.K.K.",
"K.K.K.K.K.D.Z.h.m.S.h.k.z.h.h.h.h.h.h.h.h.h.h.h.h.h.5   ; f z Y C     ;.h.h.h.h.h.h.h.h.h.h.h.h.h.h.h.h.h.h.l.z.S.C.c.G.K.K.K.K.",
"K.K.K.J.S.J.G.h.M.A.h.h.h.h.h.h.h.h.h.h.h.h.h.h.h.h...` p & w Y C     >.h.h.h.h.h.h.h.h.h.h.h.h.h.h.h.h.h.h.j.c.A.m.h.G.K.K.K.K.",
"K.K.K.C.h.S.G.h.h.h.h.h.h.h.h.h.h.h.h.h.h.h.h.h.h.h.h.h.K O , Y C     >.h.h.h.h.h.h.h.h.h.h.h.h.h.h.h.h.h.h.N.K.h.h.h.G.K.K.K.K.",
"K.K.K.G.S.v.l.h.h.h.h.h.h.h.h.h.h.h.h.h.h.h.h.h.h.h.h.h.K   , Y C     >.h.h.h.h.h.h.h.h.h.h.h.h.h.h.h.h.h.h.k.c.h.c.A.K.K.K.K.K.",
"K.K.K.J.S.v.z.h.k.c.h.h.h.h.h.h.h.h.h.h.h.h.h.h.h.h.h.h.K   , Y C     ;.h.h.h.h.h.h.h.h.h.h.h.h.h.h.h.h.h.c.k.h.c.m.S.J.K.K.K.K.",
"K.K.K.C.h.S.G.h.B.K.h.h.h.h.h.h.h.h.h.h.h.h.h.h.h.h.;.;.D + , I B . X &.;.d.h.h.h.h.h.h.h.h.h.h.h.h.h.h.k.K.v.h.K.C.h.G.K.J.K.K.",
"C.z.K.C.h.l.z.S.m.c.h.h.h.h.h.h.h.h.h.h.h.h.h.h.h.h.5   * e e e e e e .   O.h.h.h.h.h.h.h.h.h.h.h.h.h.h.j.z.M.S.c.v.S.K.D.c.A.K.",
"C.z.K.Z.z.z.v.K.v.h.z.l.h.h.h.h.h.h.h.h.h.h.h.h.h.h.5 . ; e e e e e e .   O.h.h.h.h.h.h.h.h.h.h.h.j.z.j.h.z.C.S.h.v.K.K.S.z.S.K.",
"K.J.K.K.K.K.K.K.v.h.K.C.h.h.h.h.h.h.h.h.h.#.5 5 5 5 , 9 v I I I I I I e q - 5 5 5 K h.h.h.h.h.h.h.v.K.z.k.K.v.h.h.v.K.K.K.K.K.K.",
"K.K.K.S.l.D.J.z.j.h.z.k.h.h.h.h.h.h.h.h.h.O.        9 e N Y Y Y U U Y f e $       i h.h.h.h.h.h.h.k.z.j.j.z.M.S.A.C.z.G.K.K.K.K.",
"K.K.K.Z.c.D.G.c.z.z.h.h.h.h.h.h.h.h.h.h.h.O.  X h h # @ l Y Y Y Y Y Y * @ q g ;   i h.h.h.h.h.h.h.h.h.h.h.z.C.S.S.M.z.J.K.K.K.K.",
"K.K.K.K.K.K.K.K.K.J.h.h.h.h.h.h.h.h.h.h.h.O.  O Y Y +   g Y Y Y Y Y Y +   g Y w   i h.h.h.h.h.h.h.h.h.h.k.J.v.h.h.v.K.K.K.K.K.K.",
"C.z.K.K.K.K.K.K.B.z.h.h.h.h.h.h.h.h.h.h.h.O.  $ 5.5.9 & 2 w g v v w w * & T 5.B   i h.h.h.h.h.h.h.h.h.h.j.z.j.h.S.G.K.v.m.K.B.c.",
"C.z.K.K.K.D.S.K.v.h.c.z.z.j.h.h.h.h.h.h.h.O.  * u.u.v e #   @ e 9     9 e 4.u.R   i h.h.h.h.h.h.h.j.z.j.h.h.k.z.K.K.K.c.m.K.M.v.",
"K.K.K.K.J.c.k.K.c.h.K.J.J.k.h.h.h.h.h.h.h.O.  * u.u.B h ; O ; h f + O f h 6.u.R   i h.h.h.h.h.h.h.v.K.z.h.h.C.K.K.K.K.K.K.K.K.K.",
"K.K.K.K.K.D.D.K.D.S.c.z.z.h.h.h.h.h.h.h.h.O.  * u.u.E Y l e l Y I e e I Y 8.u.R   i h.h.h.h.h.h.h.k.z.j.j.S.M.z.z.M.K.K.K.K.K.K.",
"K.K.K.K.K.K.K.K.J.G.k.j.h.h.h.h.h.h.h.h.h.O.  * u.u.E Y l e l Y I e e I Y 8.u.R   i h.h.h.h.h.h.h.h.h.h.k.G.v.k.h.v.K.K.J.G.J.K.",
"K.K.K.K.K.K.K.K.b.h.K.B.h.h.h.h.h.5       @ t f Y Y Y Y Y Y Y Y U Y Y Y Y Y Y v e ,         &.h.h.h.h.h.h.h.C.J.h.v.K.K.S.h.C.K.",
"K.K.K.K.K.K.K.K.S.C.b.c.h.h.h.h.h.5       @ e f Y Y Y Y Y Y Y Y Y Y Y Y Y Y Y N e ,         &.h.h.h.h.N.B.h.c.v.C.S.K.K.J.C.G.K.",
"K.K.K.K.K.K.K.G.J.K.h.h.h.h.h.h.h.>.>.D   > I I Y Y Y Y Y Y 1.r.q.Y Y Y Y Y Y I I x     >.>.,.h.h.h.h.C.S.h.h.h.G.J.K.G.J.K.K.K.",
"K.K.K.K.K.K.G.h.C.K.h.h.h.h.h.h.h.h.h.K   , Y U Y Y Y Y Y Y 2.u.r.Y Y Y Y Y Y Y U n     j.h.j.h.h.h.h.h.h.h.h.h.h.v.K.k.c.K.K.K.",
"K.K.K.S.v.G.J.C.M.v.C.b.h.h.h.h.h./ K 3   $ z c Y Y 9 , v U 2.u.r.Y Y 9 8 c Y P l t     K K >.h.h.h.h.h.h.h.h.h.C.S.K.Z.C.K.K.K.",
"K.K.K.A.k.S.K.K.b.h.G.B.h.h.h.h.h.5       $ e f Y Y +   l U 2.u.r.Y Y +   g U x w 8         *.h.h.j.k.h.h.h.j.k.G.J.K.G.J.K.J.G.",
"K.K.K.K.K.K.K.K.v.h.j.h.h.h.h.h.h./ K 5   % l c Y Y O   U 2.8.u.y.2.2.&   j U P c w     K K -.h.h.v.K.c.h.h.C.K.h.v.K.k.z.K.v.k.",
"K.K.K.K.K.M.v.v.M.C.h.h.h.h.h.h.h.h.h.K   9 I Y Y Y O   1.u.u.u.u.u.u.&   j U U I c     h.h.h.h.h.k.v.k.j.B.M.v.C.M.v.C.Z.K.S.Z.",
"K.K.K.K.K.v.k.h.M.G.h.h.h.h.h.h.h.,.>.J 3 r v v Y Y f f 7.u.y.e.e.u.u.c s P Y P x j 3 3 :.:.g.h.h.h.h.h.k.G.c.h.G.C.k.S.J.K.K.K.",
"K.K.K.K.K.K.G.h.h.h.h.h.h.h.h.h.h.} ( ( ( S   O Y Y r.u.u.u.0.' ] u.u.u.u.2.Y w   3 ( ( ( ( :.h.h.h.h.h.h.h.h.h.h.v.K.k.z.J.K.K.",
"K.K.K.K.K.M.v.C.c.h.h.h.h.h.h.h.h.} ( ( ( S   O Y Y r.u.u.u.0.' ] u.u.u.u.2.Y w   3 ( ( ( ( :.h.h.h.h.h.h.h.v.C.h.v.K.Z.Z.K.K.K.",
"K.K.K.K.K.c.z.G.c.h.h.h.h.h.,.) ) ( ( ( ( ( ( ~         * t l U I w w +       u ( ( ( ( ( ( ( ( %.h.h.h.h.h.B.D.k.v.G.K.K.K.K.K.",
"K.K.K.K.K.K.G.h.h.h.h.h.h.h.,.) ( ( ( ( ( ( ( ~         * e x U I e e +       u ( ( ( ( ( ( ( ( %.h.h.h.h.h.h.h.K.C.h.G.K.K.K.K.",
"K.K.v.C.K.K.J.C.c.j.B.v.h.h.d.) ( ( ( ( ( ( ( ~     g l h e q $ $ e e l c &   u ( ( ( ( ( ( ( ( %.z.C.k.j.C.c.h.v.M.C.J.D.v.S.K.",
"K.K.k.m.K.K.K.G.b.l.G.B.h.h.,.) ( ( ( ( ( ( ( ~     I U l e *   . e e I Y ,   u ( ( ( ( ( ( ( ( %.c.G.v.z.G.v.k.h.v.K.K.D.k.A.K.",
"K.K.K.K.K.K.G.h.C.K.h.h.h.h.g.=.=.{ ( ( ( ( ( ~     4.8.B $ 7 S A @ @ 4.8.c   u ( ( ( ( ( ( %.=.,.h.h.A.G.h.C.K.h.v.K.K.K.K.K.K.",
"K.K.K.K.K.M.v.C.M.v.h.h.h.B.m.h.h.} ( ( ( ( ( ~     w.u.P   6 ( ~     w.u.C   u ( ( ( ( ) | p.h.h.h.h.z.c.h.z.v.C.M.v.J.K.K.K.K.",
"K.K.G.J.K.v.z.K.v.h.k.j.h.S.A.h.h.$.+.} ( ( ( ^ 6 6 Q 1.t   6 ( ~     W ! L 6 G ( ( ( ( @.9.a.h.k.j.h.h.h.k.k.k.K.Z.k.G.K.K.K.K.",
"K.K.h.v.K.K.K.K.v.h.K.C.h.h.h.h.h.h.h.@.( ( ( ( ( ( o       6 ( ~         F [ ) ( ( ) ) h.h.h.h.K.C.h.h.k.K.K.K.K.K.K.K.K.K.K.K.",
"K.K.C.S.K.K.K.K.S.C.v.M.C.j.l.C.c.h.h.$.} o...} ( ( 3 o o o y ( ~ o o o o H ) { } } } o.B.h.h.h.v.z.h.M.C.v.S.K.v.C.K.K.K.K.K.K.",
"K.K.K.K.K.K.K.K.K.K.k.v.G.k.l.G.c.h.h.h.h.S.C.,.( ( ( ( ( ( ( ( _ ) ) ) ) ) ( %.k.j.h.C.S.h.h.h.k.j.h.C.S.k.A.K.k.m.K.K.K.K.K.K.",
"K.K.K.K.K.K.K.K.K.K.K.C.h.h.h.h.h.h.h.h.h.h.h.d.( ( ( ) ( ( ( (  . .) | X.( ( %.G.S.h.h.h.h.h.h.K.C.h.h.k.K.K.K.K.K.K.K.K.K.K.K.",
"K.K.K.K.K.K.K.K.K.K.K.D.m.j.k.M.M.m.h.h.h.h.h.h.v.m.h.h.h.h.h.h.v.v.h.c.M.M.M.M.M.M.M.k.j.M.z.h.M.M.M.M.B.K.K.K.K.K.K.K.K.K.K.K.",
"K.K.K.K.K.K.K.K.K.K.K.K.K.k.c.K.K.G.h.h.h.h.h.h.A.G.h.h.h.h.h.h.h.h.h.h.h.K.K.K.k.z.K.z.k.K.M.h.h.v.K.K.K.K.K.K.K.K.K.K.K.K.K.K.",
"K.K.K.K.K.K.K.K.b.h.K.K.K.K.K.K.v.h.h.m.J.k.h.h.h.h.h.h.h.K.C.h.A.S.h.C.K.K.M.h.G.S.h.S.G.h.M.K.K.C.h.S.K.K.v.h.K.K.K.K.K.K.K.P.",
"K.K.K.K.K.K.K.K.A.M.K.K.K.K.K.K.A.m.h.c.M.j.l.M.k.j.M.l.h.M.M.M.M.M.M.D.K.K.S.M.J.G.M.G.J.M.S.K.K.D.M.G.K.K.Z.M.K.K.K.K.K.K.K.L.",
"K.K.K.K.K.K.K.K.K.K.K.K.K.K.K.K.K.G.h.h.h.h.v.K.c.j.K.v.h.h.v.K.c.c.J.K.K.K.K.K.J.K.K.K.K.K.K.K.K.K.K.K.K.K.K.K.K.K.K.K.K.K.K.K.",
"K.K.K.K.K.K.K.K.K.K.K.K.K.K.S.h.C.K.K.K.K.K.C.h.S.G.h.h.h.h.v.K.J.K.K.v.h.K.K.K.k.c.K.K.K.K.M.h.K.K.K.K.K.K.K.K.K.K.K.K.K.K.K.K.",
"K.K.K.K.K.K.K.K.K.K.K.K.K.K.G.M.D.K.K.K.K.B.M.M.G.J.M.M.M.M.A.K.K.K.K.A.M.K.K.K.B.C.K.K.K.K.S.M.K.K.K.K.K.K.K.K.K.K.K.K.K.K.K.K.",
"K.K.K.K.K.K.K.K.K.K.K.K.K.K.K.K.K.K.K.K.K.k.v.K.K.K.K.K.K.K.K.K.K.K.K.K.K.K.K.K.K.K.K.K.K.K.K.K.K.K.K.K.K.K.K.K.K.K.K.K.K.K.K.K.",
"L.L.K.K.K.K.K.K.K.K.K.C.h.G.K.K.K.K.K.K.K.K.K.K.K.K.K.v.h.K.K.K.K.K.K.K.K.K.K.K.K.K.K.K.K.K.K.K.K.K.K.K.K.K.K.K.K.K.K.K.K.K.K.K.",
"I.I.K.K.K.K.K.K.K.K.K.D.M.J.K.K.K.K.K.K.K.K.K.K.K.K.K.A.M.K.K.K.K.K.K.K.K.K.K.K.K.K.K.K.K.K.K.K.K.K.K.K.K.K.K.K.K.K.K.K.K.K.K.K."
};
