/* XPM */
static char *_b359bcc343f49e389875b81815fc3dfzplyZnSxcKyTv3CF[] = {
/* columns rows colors chars-per-pixel */
"64 64 108 2 ",
"   c #233717",
".  c #171F33",
"X  c #1A1C33",
"o  c #1E1935",
"O  c #33063D",
"+  c #3A003F",
"@  c #1E2A25",
"#  c #083E26",
"$  c #083F26",
"%  c #03322B",
"&  c #0B3D38",
"*  c #145305",
"=  c #165800",
"-  c #0C4515",
";  c #0E4910",
":  c #11521D",
">  c #14581A",
",  c #196110",
"<  c #1A6515",
"1  c #1F7210",
"2  c #237805",
"3  c #0E4C20",
"4  c #134D25",
"5  c #340E42",
"6  c #45024B",
"7  c #490350",
"8  c #570954",
"9  c #55055D",
"0  c #441A57",
"q  c #441B57",
"w  c #600C5B",
"e  c #590661",
"r  c #620965",
"t  c #690D67",
"y  c #6A0D6A",
"u  c #6D1967",
"i  c #76116F",
"p  c #771C6E",
"a  c #7B1372",
"s  c #7D1571",
"d  c #134745",
"f  c #1C5152",
"g  c #2F7555",
"h  c #245B60",
"j  c #2C666E",
"k  c #34707B",
"l  c #921A68",
"z  c #821675",
"x  c #841676",
"c  c #8B1972",
"v  c #871878",
"b  c #941C71",
"n  c #981E76",
"m  c #9D1F76",
"M  c #A01F6A",
"N  c #A02074",
"B  c #A92373",
"V  c #CC2F6F",
"C  c #C42C70",
"Z  c #2B8B05",
"A  c #319800",
"S  c #3D7A88",
"D  c #584481",
"F  c #604885",
"G  c #60538E",
"H  c #606B9F",
"J  c #6579AB",
"K  c #408085",
"L  c #458495",
"P  c #5598AF",
"I  c #5599AF",
"U  c #6B86B7",
"Y  c #6689B5",
"T  c #5EA4BD",
"R  c #6F93C3",
"E  c #66ADCA",
"W  c #66AECA",
"Q  c #74A1CF",
"!  c #78AFDB",
"~  c #77C3E5",
"^  c #7FCDF2",
"/  c #87D7FF",
"(  c #8BD9FF",
")  c #8FDBFF",
"_  c #92DCFF",
"`  c #97DEFF",
"'  c #9BDFFF",
"]  c #9BE0FF",
"[  c #9FE1FF",
"{  c #9EE2FF",
"}  c #A2E3FF",
"|  c #A2E4FF",
" . c #A6E5FF",
".. c #A6E6FF",
"X. c #AAE7FF",
"o. c #AEE9FF",
"O. c #B2EAFF",
"+. c #B2EBFF",
"@. c #B6ECFF",
"#. c #BAEDFF",
"$. c #BAEEFF",
"%. c #BEEFFF",
"&. c #C2F1FF",
"*. c #C2F2FF",
"=. c #C6F3FF",
"-. c #C9F4FF",
";. c #D4F6FF",
":. c #E1F9FF",
/* pixels */
"=.=.=.=.=.=.=.=.=.=.=.=.=.=.=.=.=.=.=.=.=.=.=.=.=.=.=.=.=.=.=.=.=.=.=.=.=.=.=.=.=.=.=.=.=.=.=.=.=.=.=.=.=.=.=.=.=.=.=.=.=.=.=.=.",
"=.=.=.=.=.=.=.=.=.=.=.=.=.=.=.=.=.=.=.=.=.=.=.=.=.=.=.=.=.=.=.=.=.=.=.=.=.=.=.=.=.=.=.=.=.=.=.=.=.=.=.=.=.=.=.=.=.=.=.=.=.=.=.=.",
"=.=.=.=.=.=.=.=.=.=.=.=.=.=.=.=.=.=.=.=.=.=.=.=.=.=.=.=.=.=.=.=.=.=.=.=.=.=.=.=.=.=.=.=.=.=.=.=.=.=.=.=.=.=.=.=.=.=.=.=.=.=.=.=.",
"=.=.=.=.=.=.=.=.=.=.=.=.=.` [ =.=.=.=.=.=.=.O.) #.=.=.=.=.) } =.=.=.=.=.=.) X.=.=.=.=.=.=.=.=.=.=.+.) #.=.=.=.=.=.=.=.=.=.=.=.=.",
"=.=.=.=.=.=.=.=.=.=.=.=.=.}  .=.=.=.=.=.=.=.@.} #.*.o.%.=.[ o.=.=.=.=.=.=.[ O.=.+.@.=.o.o.o.#.=.=.@.[ #.=.=.=.=.=.=.=.=.=.=.=.=.",
"=.=.=.=.=.=.=.=.=.=.=.=.=.=.=.=.=.=.=.=.=.=.=.=.=.%./ o.=.*.=.=.=.=.=.=.=.=.=.=.( ] =.] / /  .=.=.=.=.=.=.=.=.=.=.=.=.=.=.=.=.=.",
"=.=.=.=.=.=.=.=.=.=.=.O.) %.=.=.} ` =.X.) %.=.=.' ` %.*.=.=.=.=.] [ =.=.=.=.X.) @.o.) ( ) %. .) =.=.=.] ` =.=.=.=.=.=.=.=.=.=.=.",
"=.=.=.=.=.=.=.=.=.=.=.@.[ o.o.o. .[ o.' / X.o.o. .[ o.%.=.o.@.=.X. .=.@.o.o. .[ o. ./ / ( o.] / o.o.o. .[ X.%.=.o.@.=.=.=.=.=.=.",
"=.=.=.=.=.=.=.=.=.=.=.=.=.) / / o.%./ / / / / / @.%./ o.=./ ' =.=.=.=.[ / /  .*.) / / / / / / / / / / @.%./ o.=./ [ =.=.=.=.=.=.",
"=.=.=.=.=.} ] =.=.=.`  .=.@.@.@. ._ / / / o. ./ _ _ / _ ` / _ ' #.#.]  .@./ ) ] / / / / / / [ @./ / / _ ] @.*.=.@.%.=.=.=.=.=.=.",
"=.=.=.=.=.} [ =.%.@.`  .@.@.@.@.` / / / / O.} / / / / / / ` _ /  .X._ o.+./ / / / / / / / / [ @./ / / _ ] @.%.=.@.#.=.=.=.=.=.=.",
"=.=.=.=.=.=.=.=.[ / =.o./ / / / / / / / / / / / / / / / / =.o./ / ] =.[ / / / / / / / / / / / / / / / @.%./ o.=./ [ =.=.=.=.=.=.",
"=.=.`  .=.=.*.`  .@.` ) / o.X./ / / / / / / / / / / / / / ' ) / / ( ] ( / / / / / / / / / / / / / ] +.[ _ / _ _ @.o.] %.$.] X.=.",
"=.=.` X.=.#.o./  .@./ ( ` @.X./ / / / / / / / / / / / / / / / / / / / / / / / / / / / / / / / / / ] @._ / / _ ] @. ._ *.#.] @.=.",
"=.=.*.=.=.` / / / / / [ =.) / / / / / / / / / / / / / / / / / / / / / / / / / / / / / / / / / / / / / / / / o.*./ [ *.=.=.=.=.=.",
"=.=.=.=.=.#.O./ | @./ ) ` / / / / / / / / / / / / / / / / / / / / / / / / / / / / / / / / / / / / / / / / / _ ] @.o.] %.=.=.=.=.",
"=.=.=.*.@.*.%./  .@./ / / / / / / / / / / / / / / / / / / / / / / / / / / / / / / / / / / / / / / / / / / / ( ] +.| / %.=.=.=.=.",
"=.=.=.o./ @.%./ / / / / / / / / / W h h h h h h h / / / / / / / / / / / / / / / / / / / / / / / / / / / / / X.=./ / / %.=.=.=.=.",
"=.=.=.%.@.[ _ / / / / / / / / / / I % % % % % % % / / / / / / / / / / / / / / / / / / / / / / / / / / / / / _ ] / ] +.=.=.=.=.=.",
"=.=.=.*.@.[ ` / ) ` / / / / / / / T h h % % 3 3 3 E E ~ / / W W E E W W W W W W W W ~ / / / / / / / / / / ] ) / ] | @.*.=.=.=.=.",
"=.=.=.o./ @.%./ o.=./ / / / / / / / / / % % > A A % % L / / % % % % % % % % % % % % I / / / / / / / / / ) =.[ / =.o./ %.=.*.=.=.",
"o.` =.o./ _ ` @. .` / / / / / / / / / / % % < A A % % S / ( % % % % % % % % % % % % I / / / / / / / / / ( `  .@.] [ @.=.#.] +.=.",
"o.` =.O.` ` [ =.] / ` _ / / / / / / / / ~ ~ K 3 3 * * 4 d d * * 2 Z Z Z Z : % d ~ ~ ^ / / / / / / ( ] ( / ` o.+./ [ =.=.@.` @.=.",
"=.*.=.=.=.=.=.=.[ / =.o./ / / / / / / / / / S % % = = - % % = = 2 A A A A > % d / / / / / / / / / [ *.` ) =.[ / / [ =.=.=.=.=.=.",
"=.=.=.@._ #.*.` ( / ` ) / / / / / ~ P P I I j % %     @ X . ; ; > 2 1 1 1 g k S / / / / / / / / / ) ` ( ( `  .@.+.o.` %.=.=.=.=.",
"=.=.=.O.] #.%.] ` ` / / / / / / / I % % % % % % % + + + + + % % % % % % % I / / / / / / / / / / / / / / / ` o.@.@. .` *.=.=.=.=.",
"=.=.=.=.=.=.=.=.=.*./ / / / / / / I % % % % % % % + + + + + % % % % % # % I / / / / / / / / / / / / / / ) *.[ / / [ =.=.=.=.=.=.",
"o.` =.=.=.=.=.=.X.` / / / / / h d & % % % % X O O s s t 9 9 p p p p u O O Y / / / / / / / / / / / / / / ( ` ( / @.%.=.[ | =.X.] ",
"o.` =.=.=.#.@.=.[ / ] ` ` ( / d % % % % % % o + + v v y e e v v v v v 5 + U ( ( / / / / / / / / / ( ` ( / / ) ` =.=.=.] | =. .[ ",
"=.=.=.=.*.] ) =.] / =.*.*.) / d % f L L o o 5 7 7 v v a y i y i b B M 8 8 D H J / / / / / / / / / [ =.` / / o.=.=.=.=.=.=.=.=.=.",
"=.=.=.=.=.#.#.=.#.@.] ` ` / / d % k / / + + 7 e e v v v v v e e M V C x v 8 5 0 / / / / / / / / / ) ` ( ( @. .` `  .=.=.=.=.=.=.",
"=.=.=.=.=.=.=.=.*.%.) ( / / / d % k / / + + 7 e e v v v v v e e M V V v v 8 + 0 / / / / / / / / / / / / ) %.[ ) / [ =.=.*.%.*.=.",
"=.=.=.=.=.=.=.=.[ / =.o./ / / / / / / / + + 7 e e v v B V V e e i v v v v 8 5 0 / / / / / / / / / / / / / / o.=./ [ =.=.@./ o.=.",
"=.=.=.=.=.=.=.=.@.o.[ ` / / / / / / / / + + 7 e e v v B V V e e i v v v v 8 5 0 / / / / / / / / / / / X.X./ ` [ o.@.=.=.*.o.%.=.",
"=.=.=.=.=.=.=.%.*.=./ / / / / / / / / / + + 7 e e v v n B B l l c v v v c 8 + 0 / / / / / / / / / / / o.@./ / / %.*.=.%.*.=.=.=.",
"=.=.=.=.=.=.%./ o.=./ / / / / / / / / / + + 7 e e v v v v v V V N v v v c 8 + 0 / / / / / / / / / / / / / / / / / [ =.) ` =.=.=.",
"=.=.=.@.[ %.*.o. .[ o.[ / / / / / / / / + + 7 e e x x x v v C C N v v v v 8 5 0 / / / / / / / / / / / / / / / / o.@.=.O.O.=.=.=.",
"=.=.=.O.) @.=.=.[ / %.X./ / / / / / / / + + 7 e e e e i v v v v v v v v v 9 + 0 / / / / / / / / / _ ) / / / ( _ %.*.=.%.*.=.&.%.",
"=.=.=.=.=.=.=.=.[ / / / / / / / / / / / 5 + 6 e e e e y v v v v v v v v c 8 + 0 / / / / / / / / / ' =.` / / o.=./ [ =.) ` =.' _ ",
"=.=.=.=.=. .[ [  .o./ / / / / / / / / / U U D 6 6 e e r y y y y y y y 8 8 G U R / / / / / / / / / ) } ) / O. .' o. .[ o.O.=.@.O.",
"=.=.=.=.=.[ ) /  .%./ / / / / / / / / / / / H + + 9 e e e e e e e e 9 5 + U / / / / / / / / / / / / / / ) %.] / %.o.) @.*.=.=.=.",
"=.=.=.=.=.=.%./ / / / / / / / / / / / / / / J 0 q 9 9 9 9 9 9 9 9 9 9 0 0 R / / / / / / / / / / / / / / / / / / / [ =.) ` =.=.=.",
"=.=.=.=.=. .[ o.` / / / / / / / / / / / / / ( / / + + + + + + + + + 0 / / / / / / / / / / / / / / / / / / / [ o./ [ =.O.O.=.=.=.",
"=.=.=.=.=.] ] %.' / / / / / / / / / / / / / / / / + + + + + + + + + 0 / / / / / / / / / / / / / / / / / / / X.#.) [ %.=.=.=.=.=.",
"=.=.=.=.=.=.%./ / / / / / / / / / / / / / / / / / Q Q Q Q Q Q Q Q Q ! / / / / / / / / / / / / / / / / / / / / / =.o./ %.=.=.=.=.",
"=.=.[ o.=.=.*.o.' / o.[ / / / / / / / / / / / / / / / / / / / / / / / / / / / / / / / / / / / / / ` o.) ( o.] / [  .o.*.#.[ @.=.",
"=.=.) | =.=.=.%.} ) %.X./ / / / / / / / / / / / / / / / / / / / / / / / / / / / / / / / / / / / / ] %.[ ' #.[ ) / [ =.=.#.) O.=.",
"=.=.=.=.=.=.%./ o.=./ / / / / / / / / / / / / / / / / / / / / / / / / / / / / / / / / / / / / / / / / @.%./ X.=./ [ =.=.=.=.=.=.",
"=.=.=.=.=. .[ o. .[ / / / X.| / / / / / / / / / / / / / / / / / / / / / / / / / / / / / ( o.] / / / / ` ] / ` [ o. .[ *.=.=.=.=.",
"=.=.%.*.=.[ ` =.[ / ) ( / @.+./ / / / / / / / / / / / / / / / / / / / / / ) ( / / / / / ) %.| / ) ( / / / ) ) ) =.O.) %.=.=.=.=.",
"=.=./ [ =.=.=.=.] / =.o./ / / / / / / / / / / / / / / / / / / / / / / / / =. ./ / / / / / / / / =.o./ / ) =.=.=.=.=.=.=.=.=.=.=.",
"=.=.o.@.=.=.=.=.@.o.[  .o.( _ o.] / / / / X.[ / / / / / / / / / / / / / / [ _ / / / /  .X./ / / [ ` /  .o.[ @.=.[ o.=.=.=.=.=.=.",
"=.=.=.=.=.=.=.=.=.=.) [ %.) _ %.] / / / / @.X./ / / / / / / / / ) ( / ( ) / / / ) ( / o.@./ / / ) ( / o.@.) O.=.) | =.=.=.=.=.=.",
"=.=.=.=.=.=.=.=.=.=.=.o./ / / / / / / / / / / / / / / / / / / / @.@./ o.=./ / / %.@./ / / / / / =.o./ / ) =.=.=.=.=.=.=.=.=.=.=.",
"=.=.=.=.=.=.=.=.=.=.=.#.| ( )  . .| / / / / / / [ | / / / / / / [ [ / ]  . . . . . . .) (  .` /  . . . .X.=.=.=.=.=.=.=.=.=.=.=.",
"=.=.=.=.=.=.=.=.=.=.=.=.=.) ] =.=.%./ / / / / / @.%./ / / / / / / / / / / =.=.=.) ` =.` ) =. ./ / [ =.=.=.=.=.=.=.=.=.=.=.=.=.=.",
"=.=.=.=.=.=.=.=.[ / =.=.=.=.=.=.[ / / | =.) / / / / / / / =.o./ @.@./ o.=.=. ./ %.@./ @.%./  .=.=.o./ @.=.=.[ / =.=.=.=.=.=.=.-.",
"=.=.=.=.=.=.=.=.+. .=.=.=.=.=.=.+.| / ]  .( _  .) (  ._ /  . . . . . .#.=.=.@. .*.%. .%.*. .@.=.=.#. .%.=.=.O. .=.=.=.=.=.=.=.-.",
"=.=.=.=.=.=.=.=.=.=.=.=.=.=.=.=.=.%./ / / / [ =.] ) =.{ / / [ =.` ` =.*.=.=.=.=.*.=.=.=.=.=.=.=.=.=.=.=.=.=.=.=.=.=.=.=.=.=.=.=.",
"=.=.=.=.=.=.=.=.=.=.=.=.=.=.@./ o.=.=.=.=.=.o./ @.%./ / / / [ =.=.=.=.[ / =.=.=.) ] =.=.=.=. ./ =.=.=.=.=.=.=.=.=.=.=.=.=.=.=.=.",
"=.=.=.=.=.=.=.=.=.=.=.=.=.=.%. .#.=.=.=.=.X. . .%.*. . . . .+.=.=.=.=.+. .=.=.=.X.o.=.=.=.=.@. .=.=.=.=.=.=.=.=.=.=.=.=.=.=.=.=.",
"=.=.=.=.=.=.=.=.=.=.=.=.=.=.=.=.=.=.=.=.=.) [ =.=.=.=.=.=.=.=.=.=.=.=.=.=.=.=.=.=.=.=.=.=.=.=.=.=.=.=.=.=.=.=.=.=.=.=.=.=.=.=.=.",
"-.-.=.=.=.=.=.=.=.=.=.o./ %.=.=.=.=.=.=.=.=.=.=.=.=.=.[ / =.=.=.=.=.=.=.=.=.=.=.=.=.=.=.=.=.=.=.=.=.=.=.=.=.=.=.=.=.=.=.=.=.=.=.",
";.;.=.=.=.=.=.=.=.=.=.#. .*.=.=.=.=.=.=.=.=.=.=.=.=.=.o. .=.=.=.=.=.=.=.=.=.=.=.=.=.=.=.=.=.=.=.=.=.=.=.=.=.=.=.=.=.=.=.=.=.=.=."
};
