/* XPM */
static char *_bac88c897174387b977dcfb98442886r8r2bRPM0edA5bXE[] = {
/* columns rows colors chars-per-pixel */
"64 64 143 2 ",
"   c #F36401",
".  c #F36503",
"X  c #F46400",
"o  c #F56B01",
"O  c #F57000",
"+  c #F47002",
"@  c #F67B00",
"#  c #F77905",
"$  c #F87F01",
"%  c #F47718",
"&  c #E67220",
"*  c #E57322",
"=  c #E77921",
"-  c #F68500",
";  c #F68602",
":  c #F88501",
">  c #FB8607",
",  c #F78801",
"<  c #F99300",
"1  c #F99401",
"2  c #FB9803",
"3  c #FB9F00",
"4  c #FE9309",
"5  c #FF9A0A",
"6  c #FBA001",
"7  c #F9A701",
"8  c #FFA407",
"9  c #FCAB00",
"0  c #FEAD02",
"q  c #FFAE05",
"w  c #FAA40A",
"e  c #FDB300",
"r  c #FFB303",
"t  c #FBB700",
"y  c #FEB700",
"u  c #FFB902",
"i  c #F3A010",
"p  c #EA9621",
"a  c #E39730",
"s  c #F9AC37",
"d  c #FFC300",
"f  c #FFC800",
"g  c #FECE00",
"h  c #FFD101",
"j  c #FFD600",
"k  c #FED900",
"l  c #FFDB00",
"z  c #FFDC09",
"x  c #FFC912",
"c  c #FEDA15",
"v  c #FFE000",
"b  c #FEE200",
"n  c #FFE500",
"m  c #FFEA00",
"M  c #FFEB09",
"N  c #FFE414",
"B  c #FFEB12",
"V  c #FFEC15",
"C  c #FFD024",
"Z  c #FFED24",
"A  c #FFE72D",
"S  c #FFEE36",
"D  c #D88142",
"F  c #DA9242",
"G  c #D28B50",
"H  c #D28E51",
"J  c #CC9B5F",
"K  c #F79B42",
"L  c #F8A54D",
"P  c #F9AD49",
"I  c #CB8F60",
"U  c #CA9062",
"Y  c #CDA761",
"T  c #FBC74E",
"R  c #FFDD55",
"E  c #FFE35A",
"W  c #FFF151",
"Q  c #FFF155",
"!  c #FFF15A",
"~  c #FFF25E",
"^  c #D1C560",
"/  c #D2CB60",
"(  c #FAC16C",
")  c #E9D765",
"_  c #FFE467",
"`  c #FFE46B",
"'  c #FFE66B",
"]  c #FEEA6B",
"[  c #FFEE68",
"{  c #FFF26B",
"}  c #FFF36C",
"|  c #FFF47E",
" . c #BD9D80",
".. c #BD9E81",
"X. c #B7A890",
"o. c #B7AD90",
"O. c #AFABA0",
"+. c #AFACA0",
"@. c #A9B3AF",
"#. c #A9B3B0",
"$. c #A2BABF",
"%. c #C3CD80",
"&. c #FCD381",
"*. c #FFF690",
"=. c #FFF79D",
"-. c #FFF7A4",
";. c #FFF8AB",
":. c #A2BAC0",
">. c #9BC2CF",
",. c #94C9DF",
"<. c #8ECFEF",
"1. c #94C8E0",
"2. c #8ED0EF",
"3. c #87D7FF",
"4. c #8BD9FF",
"5. c #8EDBFF",
"6. c #8FDBFF",
"7. c #92DCFF",
"8. c #93DCFF",
"9. c #97DEFF",
"0. c #9ADFFF",
"q. c #9BDFFF",
"w. c #9AE0FF",
"e. c #9EE1FF",
"r. c #9FE1FF",
"t. c #A2E3FF",
"y. c #A6E4FF",
"u. c #A6E5FF",
"i. c #ABE6FF",
"p. c #AAE7FF",
"a. c #AEE9FF",
"s. c #B2EAFF",
"d. c #B2EBFF",
"f. c #B6EBFF",
"g. c #B6ECFF",
"h. c #BAEEFF",
"j. c #BEEFFF",
"k. c #C2F1FF",
"l. c #C6F3FF",
"z. c #C9F4FF",
"x. c #CDF4FF",
"c. c #D4F6FF",
"v. c #E1F9FF",
/* pixels */
"l.l.l.l.l.l.l.l.l.l.l.l.l.l.l.l.l.l.l.l.l.l.l.l.l.l.l.l.l.l.l.l.l.l.l.l.l.l.l.l.l.l.l.l.l.l.l.l.l.l.l.l.l.l.l.l.l.l.l.l.l.l.l.l.",
"l.l.l.l.l.l.l.l.l.l.l.l.l.l.l.l.l.l.l.l.l.l.l.l.l.l.l.l.l.l.l.l.l.l.l.l.l.l.l.l.l.l.l.l.l.l.l.l.l.l.l.l.l.l.l.l.l.l.l.l.l.l.l.l.",
"l.l.l.l.l.l.l.l.l.l.l.l.l.l.l.l.l.l.l.l.l.l.l.l.l.l.l.l.l.l.l.l.l.l.l.l.l.l.l.l.l.l.l.l.l.l.l.l.l.l.l.l.l.l.l.l.l.l.l.l.l.l.l.l.",
"l.l.l.l.l.l.l.l.l.l.l.l.l.9.r.l.l.l.l.l.l.l.s.6.h.l.l.l.l.6.t.l.l.l.l.l.l.6.p.l.l.l.l.l.l.l.l.l.l.s.6.h.l.l.l.l.l.l.l.l.l.l.l.l.",
"l.l.l.l.l.l.l.l.l.l.l.l.l.t.y.l.l.l.l.l.l.l.f.t.h.k.a.j.l.r.a.l.l.l.l.l.l.r.a.l.s.g.l.s.a.a.h.l.l.g.r.g.l.l.l.l.l.l.l.l.l.l.l.l.",
"l.l.l.l.l.l.l.l.l.l.l.l.l.l.l.l.l.l.l.l.l.l.l.l.l.j.3.a.l.l.l.l.l.l.l.l.l.l.l.l.6.9.l.9.3.4.y.l.l.l.l.l.l.l.l.l.l.l.l.l.l.l.l.l.",
"l.l.l.l.l.l.l.l.l.l.l.s.6.j.l.l.t.9.l.p.6.j.l.l.q.9.j.k.l.l.l.l.q.r.l.l.l.l.p.6.g.a.7.3.6.j.y.6.l.l.l.w.9.l.l.l.l.l.l.l.l.l.l.l.",
"l.l.l.l.l.l.l.l.l.l.l.g.r.a.a.a.y.r.a.q.3.p.a.a.y.r.a.j.l.a.f.l.p.y.l.f.a.a.y.r.a.y.3.3.4.a.w.3.a.a.a.y.r.a.j.l.a.g.l.l.l.l.l.l.",
"l.l.l.l.l.l.l.l.l.l.l.l.l.6.3.3.p.j.3.3.3.3.3.3.f.j.3.p.l.3.r.l.l.l.l.r.3.3.y.l.6.3.3.3.3.3.3.3.3.3.3.g.j.3.a.l.3.r.l.l.l.l.l.l.",
"l.l.l.l.l.t.w.l.l.l.9.y.l.g.g.g.y.7.3.3.3.a.y.3.9.9.3.7.9.3.6.w.h.h.9.y.f.3.6.9.3.3.3.3.3.3.r.s.3.3.3.7.q.f.k.l.g.j.l.l.l.l.l.l.",
"l.l.l.l.l.t.r.l.j.g.9.y.g.g.g.g.9.3.3.3.3.s.t.3.3.3.3.3.3.9.7.3.p.a.9.p.f.3.3.3.3.3.3.3.3.3.r.g.3.3.3.7.r.f.j.l.g.h.l.l.l.l.l.l.",
"l.l.l.l.l.l.l.l.r.3.l.a.3.3.3.3.3.3.3.3.3.3.3.3.3.3.3.3.3.l.a.3.3.q.l.q.3.3.3.3.3.3.3.3.3.3.3.3.3.3.3.g.j.3.p.l.3.r.l.l.l.l.l.l.",
"l.l.9.y.l.l.k.9.y.g.9.6.3.a.p.3.3.3.3.3.3.3.3.3.3.3.3.3.3.9.6.3.3.4.9.4.3.3.3.3.3.3.3.3.3.3.3.3.3.9.g.r.7.3.7.9.g.a.9.j.h.9.s.l.",
"l.l.9.p.l.h.a.3.y.f.3.4.9.g.p.3.3.3.3.3.3.3.3.3.3.3.3.3.3.3.3.3.3.3.3.3.3.3.3.3.3.3.3.3.3.3.3.3.3.w.g.7.3.3.6.9.g.y.9.k.h.9.f.l.",
"l.l.l.l.l.9.3.3.3.3.3.r.k.6.3.3.3.3.3.3.3.3.3.3.3.3.3.3.3.3.3.3.3.3.3.3.3.3.3.3.3.3.3.3.3.3.3.3.3.3.3.3.3.3.a.l.3.r.l.l.l.l.l.l.",
"l.l.l.l.l.h.s.3.t.g.3.6.9.3.3.3.3.3.3.3.3.3.3.3.3.3.3.3.3.3.3.3.3.3.3.3.3.3.3.3.3.3.3.3.3.3.3.3.3.3.3.3.3.3.7.9.g.a.9.j.l.l.l.l.",
"l.l.l.k.g.k.j.3.y.f.3.3.3.3.3.3.3.3.3.3.3.3.3.3.3.3.3.3.3.3.3.3.3.3.3.3.3.3.3.3.3.3.3.3.3.3.3.3.3.3.3.3.3.3.6.9.f.t.3.j.l.l.l.l.",
"l.l.l.a.3.g.j.3.3.3.3.3.3.3.3.3.3.3.3.3.3.3.3.3.3.3.3.3.3.3.2. ..... .#.3.3.3.3.3.3.3.3.3.3.3.3.3.3.3.3.3.3.p.l.3.4.3.j.l.l.l.l.",
"l.l.l.j.g.r.7.3.3.3.3.3.3.3.3.3.3.3.3.3.3.3.3.3.3.3.3.3.3.3.,.    .   U 3.3.3.3.3.3.3.3.3.3.3.3.3.3.3.3.3.3.7.9.3.9.s.l.l.l.l.l.",
"l.l.l.k.g.r.9.3.6.9.3.3.3.3.3.3.3.3.3.3.3.3.3.3.3.3.3.3.<.,.$.O + + o H ,.,.3.3.3.3.3.3.3.3.3.3.3.3.3.3.3.9.6.3.9.y.g.k.l.l.l.l.",
"l.l.l.a.3.g.j.3.a.l.3.3.3.3.3.3.3.3.3.3.3.3.3.3.3.3.3.3. .X O d d d d 6     3.3.3.3.3.3.3.3.3.3.3.3.3.3.7.l.r.3.l.a.3.j.l.l.l.l.",
"a.9.l.a.3.7.9.g.y.9.3.3.3.3.3.3.3.3.3.3.3.3.3.3.3.3.3.3. .. O d d d d 6   . 3.3.3.3.3.3.3.3.3.3.3.3.3.3.4.9.y.f.9.r.f.l.h.9.s.l.",
"p.9.l.s.9.9.r.l.r.3.9.7.3.3.3.3.3.3.3.3.3.3.3.3.3.3.U D p 9 e v v v v f 9 9 D D #.3.3.3.3.3.3.3.3.4.9.3.3.9.p.f.3.r.l.l.h.9.g.l.",
"l.l.l.l.l.l.l.l.r.3.l.a.3.3.3.3.3.3.3.3.3.3.3.3.3.3.* . < d f m m m m l d d .   +.3.3.3.3.3.3.3.3.r.l.9.6.l.r.3.3.r.l.l.l.l.l.l.",
"l.l.l.f.9.h.k.9.3.3.9.6.3.3.3.3.3.3.3.3.3.3.3.3.3.3.*   1 d f m m m m l d d   . +.3.3.3.3.3.3.3.3.6.9.3.4.9.y.g.g.a.9.j.l.l.l.l.",
"l.l.l.s.9.h.j.9.9.9.3.3.3.3.3.3.3.3.3.3.3.3.3.3.3.3.*   1 d f m m m m l d d . . o.3.3.3.3.3.3.3.3.3.3.3.3.9.a.f.g.y.9.k.l.l.l.l.",
"l.l.l.l.l.l.l.l.l.l.3.3.3.3.3.3.3.3.3.3.3.3.3.<.,.,.= o 2 d f B V V V z d d o o X.1.<.3.3.3.3.3.3.3.3.3.6.l.r.3.3.r.l.l.l.l.l.l.",
"a.9.l.l.l.l.l.l.p.9.3.3.3.3.3.3.3.3.3.3.3.3.3.:.    4 5 q d x *.*.*.*.E d d 5 5 #   U 3.3.3.3.3.3.3.3.3.4.9.4.3.g.j.l.r.t.l.p.w.",
"a.9.l.l.l.h.f.l.q.3.9.9.9.3.3.3.3.3.3.3.3.3.3.:.. . 4 5 q d x *.*.*.*.E d d 5 5 # . U 3.3.3.3.3.3.3.q.3.3.3.6.9.l.l.l.w.t.l.y.r.",
"l.l.l.l.l.9.6.l.r.3.l.l.l.6.3.3.3.3.3.3.3.3.3.$.X X 0 u g l N -.-.-.-.[ v v u u - . I 3.3.3.3.3.3.r.l.q.3.3.p.l.l.l.l.l.l.l.l.l.",
"l.l.l.l.l.h.h.l.h.f.9.q.9.3.3.3.3.3.3.3.3.3.3.$.X X y d j m V ;.;.;.;.} m m d d -   I 3.3.3.3.3.3.7.q.3.4.g.y.9.9.y.l.l.l.l.l.l.",
"l.l.l.l.l.l.l.l.k.j.6.3.3.3.3.3.3.3.3.3.3.@. .J 1 < g j v m V ;.;.;.;.} m m j j 9 < a  . .3.3.3.3.3.3.3.6.j.r.6.3.r.l.l.k.j.k.l.",
"l.l.l.l.l.l.l.l.r.3.l.a.3.3.3.3.3.3.3.3.3.I   @ d d n m m m V ;.;.;.;.{ m m m m h d 3 . . 3.3.3.3.3.3.3.3.3.a.l.3.r.l.l.f.3.a.l.",
"l.l.l.l.l.l.l.l.f.a.r.9.3.3.3.3.3.3.3.1.1.G o $ d d n m v l c ;.;.;.;.] l l m m h d 6 o o 1.1.2.3.3.4.y.p.3.q.r.a.f.l.l.k.a.j.l.",
"l.l.l.l.l.l.l.j.k.l.3.3.3.3.3.3.3.3.3.    > 5 8 d d n m 7 . % ;.;.;.;.( . . m m h d y 5 5 . . +.3.3.3.p.f.3.3.3.j.k.l.j.k.l.l.l.",
"l.l.l.l.l.l.j.3.p.l.3.3.3.3.3.3.3.3.3.. . > 5 8 d d v m 7 . % ;.;.;.;.( . . m m h d r 5 5   . +.3.3.3.3.3.3.3.3.3.r.l.6.9.l.l.l.",
"l.l.l.g.r.j.k.a.y.r.a.r.3.3.3.3.3.3.3.  . 2 u d v v ! } s   % ;.;.;.;.( . . } } A v h u u . . +.3.3.3.3.3.3.3.3.a.g.l.s.s.l.l.l.",
"l.l.l.s.6.f.l.l.r.3.j.p.3.3.3.3.3.3.3.. . 6 d g m m | *.P   % ;.;.;.;.( . . *.*.S m l d d . . +.3.4.6.3.3.3.3.6.j.k.l.j.k.l.k.j.",
"l.l.l.l.l.l.l.l.r.3.3.3.3.3.3.3.3.3.3.  . 3 d g m m W ! T K L ;.;.;.;.&.K K ! ! Z m l d d .   +.3.r.l.9.3.3.p.l.3.r.l.6.9.l.r.6.",
"l.l.l.l.l.y.r.r.y.a.3.3.3.3.3.3.3.3.3.. . 6 d g m m m m Q ;.;.;.;.;.;.;.;.;.m m m m l d d .   O.3.6.r.6.4.a.y.t.a.y.r.a.s.l.g.s.",
"l.l.l.l.l.r.6.3.p.j.3.3.3.3.3.3.3.3.3.* * i u d m m V M ! ;.;.;.;.;.;.;.;.;.B B M m j y u * * @.3.3.3.3.6.j.q.3.j.a.6.g.k.l.l.l.",
"l.l.l.l.l.l.j.3.3.3.3.3.3.3.3.3.3.3.3.3.3.U   - m m *.*.=.;.;.;.;.;.;.;.;.;.*.*.S m t     3.3.3.3.3.3.3.3.3.3.3.3.r.l.6.9.l.l.l.",
"l.l.l.l.l.y.r.a.9.3.3.3.3.3.3.3.3.3.3.3.3.U . - v m *.*.=.;.;.;.;.;.;.;.;.;.*.*.S m t     3.3.3.3.3.3.3.3.3.w.a.3.r.k.s.a.l.l.l.",
"l.l.l.l.l.r.9.j.q.3.3.3.3.3.3.3.3.3.3.3.3.>.:.o.; ; x C _ ;.;.;.;.;.;.;.;.;.C C w - F :.$.3.3.3.3.3.3.3.3.3.a.j.6.r.j.l.l.l.l.l.",
"l.l.l.l.l.l.j.3.3.3.3.3.3.3.3.3.3.3.3.3.3.3.3.$.    e d R ;.;.;.;.;.;.;.;.;.d d ,   U 3.3.3.3.3.3.3.3.3.3.3.3.3.l.a.3.j.l.l.l.l.",
"l.l.r.a.l.l.k.a.9.3.a.r.3.3.3.3.3.3.3.3.3.3.3.,.J U ^ / ) ' ' { { { } [ ` ` / / Y U +.3.3.3.3.3.3.9.a.6.4.a.9.3.r.y.a.k.h.r.g.l.",
"l.l.6.t.l.l.l.j.t.6.j.p.3.3.3.3.3.3.3.3.3.3.3.3.3.3.3.3.%.d f m m m m l d d 3.3.3.3.3.3.3.3.3.3.3.w.j.r.w.j.r.6.3.r.l.l.h.6.s.l.",
"l.l.l.l.l.l.j.3.p.l.3.3.3.3.3.3.3.3.3.3.3.3.3.3.3.3.3.3.%.d f m m m m j d d 3.3.3.3.3.3.3.3.3.3.3.3.3.s.h.3.a.l.3.r.l.l.l.l.l.l.",
"l.l.l.l.l.y.r.a.t.r.3.3.3.a.r.3.3.3.3.3.3.3.3.3.3.3.3.3.3.3.3.3.3.3.3.3.3.3.3.3.3.3.3.3.4.a.w.3.3.3.3.9.w.3.9.r.a.y.r.j.l.l.l.l.",
"l.l.j.k.l.r.w.l.r.3.6.4.3.d.d.3.3.3.3.3.3.3.3.3.3.3.3.3.3.3.3.3.3.3.3.3.3.6.4.3.3.3.3.3.6.j.t.3.6.4.3.3.3.6.6.6.l.s.6.j.l.l.l.l.",
"l.l.3.r.l.l.l.l.r.3.l.a.3.3.3.3.3.3.3.3.3.3.3.3.3.3.3.3.3.3.3.3.3.3.3.3.3.l.y.3.3.3.3.3.3.3.3.3.l.a.3.3.6.l.l.l.l.l.l.l.l.l.l.l.",
"l.l.a.g.l.l.l.l.g.a.r.y.a.4.7.a.w.3.3.3.3.a.w.3.3.3.3.3.3.3.3.3.3.3.3.3.3.e.6.3.3.3.3.t.p.3.3.3.r.9.3.y.a.r.g.l.r.a.l.l.l.l.l.l.",
"l.l.l.l.l.l.l.l.l.l.6.r.j.6.7.j.w.3.3.3.3.d.a.3.3.3.3.3.3.3.3.3.6.4.3.4.6.3.3.3.6.4.3.a.g.3.3.3.6.4.3.a.g.6.s.l.6.t.l.l.l.l.l.l.",
"l.l.l.l.l.l.l.l.l.l.l.a.3.3.3.3.3.3.3.3.3.3.3.3.3.3.3.3.3.3.3.3.g.g.3.a.l.3.3.3.j.g.3.3.3.3.3.3.l.a.3.3.6.k.l.l.l.l.l.l.l.l.l.l.",
"l.l.l.l.l.l.l.l.l.l.l.h.y.4.6.y.y.t.3.3.3.3.3.3.r.t.3.3.3.3.3.3.e.e.3.w.y.y.y.y.y.y.y.6.4.y.w.3.y.y.y.y.a.l.l.l.l.l.l.l.l.l.l.l.",
"l.l.l.l.l.l.l.l.l.l.l.l.l.6.9.l.l.j.3.3.3.3.3.3.g.j.3.3.3.3.3.3.3.3.3.3.3.l.l.l.6.9.l.w.6.l.t.3.3.r.l.l.k.l.l.l.l.l.l.l.l.l.l.l.",
"l.l.l.l.l.l.l.l.r.3.l.l.l.l.l.l.e.3.3.y.l.6.3.3.3.3.3.4.3.k.a.3.g.g.3.a.l.l.y.3.j.g.3.g.j.3.y.l.l.a.3.g.l.l.r.3.l.l.l.l.l.l.l.x.",
"l.l.l.l.l.l.l.l.s.t.l.l.l.l.l.l.d.t.3.w.y.4.7.y.6.4.y.7.3.p.t.p.y.y.y.h.l.l.g.y.k.j.y.j.k.y.g.l.l.h.y.j.l.l.s.y.l.l.l.l.l.l.l.z.",
"l.l.l.l.l.l.l.l.l.l.l.l.l.l.l.l.l.j.3.3.3.3.r.l.w.6.l.e.3.3.e.l.w.w.l.l.l.l.l.l.l.l.l.l.l.l.l.l.l.l.l.l.l.l.l.l.l.l.l.l.l.l.l.l.",
"l.l.l.l.l.l.l.l.l.l.l.l.l.l.g.3.a.l.l.l.l.l.a.3.g.h.3.3.3.3.e.l.l.l.l.w.3.l.l.l.6.9.l.l.l.l.y.3.l.l.l.l.l.l.l.l.l.l.l.l.l.l.l.l.",
"l.l.l.l.l.l.l.l.l.l.l.l.l.l.j.y.h.l.l.l.k.a.y.y.j.k.y.y.y.y.d.l.l.l.l.d.y.l.l.l.a.a.k.l.l.l.g.y.l.l.l.l.l.l.l.l.l.l.l.l.l.l.l.l.",
"l.l.l.l.l.l.l.l.l.l.l.l.l.l.l.l.l.l.l.l.l.6.e.l.l.l.l.l.l.l.l.l.l.l.l.l.l.l.l.l.l.l.l.l.l.l.l.l.l.l.l.l.l.l.l.l.l.l.l.l.l.l.l.l.",
"z.z.l.l.l.l.l.l.l.l.l.a.3.j.l.l.l.l.l.l.l.l.l.l.l.l.l.e.3.l.l.l.l.l.l.l.l.l.l.l.l.l.l.l.l.l.l.l.l.l.l.l.l.l.l.l.l.l.l.l.l.l.l.l.",
"c.c.l.l.l.l.l.l.l.l.l.h.y.k.l.l.l.l.l.l.l.l.l.l.l.l.l.a.y.l.l.l.l.l.l.l.l.l.l.l.l.l.l.l.l.l.l.l.l.l.l.l.l.l.l.l.l.l.l.l.l.l.l.l."
};
