/* XPM */
static char *e809476d22d44555e34e5280ed1b3b33do8YojFfiU9dNLBW[] = {
/* columns rows colors chars-per-pixel */
"64 64 163 2 ",
"   c #F36503",
".  c #F36603",
"X  c #F46400",
"o  c #F56B01",
"O  c #F56F00",
"+  c #F57000",
"@  c #F67601",
"#  c #F67205",
"$  c #F67A03",
"%  c #F67C02",
"&  c #F77905",
"*  c #F97F05",
"=  c #F07D15",
"-  c #F47718",
";  c #E67220",
":  c #E57322",
">  c #F78603",
",  c #F88700",
"<  c #FA8707",
"1  c #F78802",
"2  c #F88801",
"3  c #FC8C07",
"4  c #F79702",
"5  c #F99300",
"6  c #FB9F01",
"7  c #FE9308",
"8  c #FE9309",
"9  c #FE9908",
"0  c #FF9A0A",
"q  c #FF9F08",
"w  c #F38A17",
"e  c #F59017",
"r  c #FBA001",
"t  c #FEA205",
"y  c #FCAB00",
"u  c #FEA805",
"i  c #FFAE05",
"p  c #FBB101",
"a  c #FFB303",
"s  c #FEB701",
"d  c #FFB304",
"f  c #FAB801",
"g  c #FBB801",
"h  c #FFB902",
"j  c #FFBE02",
"k  c #FABA1B",
"l  c #E98B21",
"z  c #F6892D",
"x  c #EAA521",
"c  c #FBBB2E",
"v  c #FCC301",
"b  c #FFC300",
"n  c #FEC500",
"m  c #FFC800",
"M  c #FFCD00",
"N  c #FFCA04",
"B  c #FFCC04",
"V  c #FFD200",
"C  c #FFD601",
"Z  c #FFDB00",
"A  c #FFDA0A",
"S  c #FFDE09",
"D  c #FFE000",
"F  c #FFE500",
"G  c #FFEA00",
"H  c #FFEB12",
"J  c #FFEB15",
"K  c #FFE01B",
"L  c #FFED24",
"P  c #FFED26",
"I  c #FFED2B",
"U  c #FFEB2D",
"Y  c #FFEE36",
"T  c #FFEE3D",
"R  c #D98140",
"E  c #D88142",
"W  c #D88242",
"Q  c #D28E4F",
"!  c #D28B51",
"~  c #D28E50",
"^  c #D49950",
"/  c #F79B42",
"(  c #F79C42",
")  c #DBA341",
"_  c #F8A54D",
"`  c #F9AE57",
"'  c #FABF5A",
"]  c #FBBF5A",
"[  c #CB8F60",
"{  c #CA9062",
"}  c #CC9661",
"|  c #C59970",
" . c #C59C70",
".. c #CB9A71",
"X. c #FBC55A",
"o. c #FFEF40",
"O. c #FFF048",
"+. c #FFEE51",
"@. c #FFE25A",
"#. c #FFEF5A",
"$. c #FFF052",
"%. c #FFF155",
"&. c #FFF15A",
"*. c #FAC16C",
"=. c #FED864",
"-. c #FEDE69",
";. c #FBCA76",
":. c #FFEF60",
">. c #FFE46B",
",. c #FFE96B",
"<. c #FFF26B",
"1. c #FFF175",
"2. c #FFF47E",
"3. c #BD9D80",
"4. c #B0AB9F",
"5. c #AFABA0",
"6. c #AFACA0",
"7. c #A9B3AF",
"8. c #A9B3B0",
"9. c #A2BABF",
"0. c #FFF480",
"q. c #FEE596",
"w. c #FFF690",
"e. c #FFF695",
"r. c #FFF79A",
"t. c #FEEEA0",
"y. c #FFF7A0",
"u. c #FFF7A3",
"i. c #FFF8AB",
"p. c #A2BAC0",
"a. c #9BC1CF",
"s. c #95C9DF",
"d. c #8ECFEF",
"f. c #9DD7EF",
"g. c #87D7FF",
"h. c #8BD9FF",
"j. c #8EDBFF",
"k. c #8FDBFF",
"l. c #92DCFF",
"z. c #93DCFF",
"x. c #97DEFF",
"c. c #9ADFFF",
"v. c #9BDFFF",
"b. c #9AE0FF",
"n. c #9EE1FF",
"m. c #9FE1FF",
"M. c #A2E3FF",
"N. c #A6E4FF",
"B. c #A6E5FF",
"V. c #ABE6FF",
"C. c #AAE7FF",
"Z. c #AEE9FF",
"A. c #B2EAFF",
"S. c #B2EBFF",
"D. c #B6EBFF",
"F. c #B6ECFF",
"G. c #BAEEFF",
"H. c #BEEFFF",
"J. c #C2F1FF",
"K. c #C6F3FF",
"L. c #C9F4FF",
"P. c #CDF4FF",
"I. c #D4F6FF",
/* pixels */
"K.K.K.K.K.K.K.K.K.K.K.K.K.K.K.K.K.K.K.K.K.K.K.K.K.K.K.K.K.K.K.K.K.K.K.K.K.K.K.K.K.K.K.K.K.K.K.K.K.K.K.K.K.K.K.K.K.K.K.K.K.K.K.K.",
"K.K.K.K.K.K.K.K.K.K.K.K.K.K.K.K.K.K.K.K.K.K.K.K.K.K.K.K.K.K.K.K.K.K.K.K.K.K.K.K.K.K.K.K.K.K.K.K.K.K.K.K.K.K.K.K.K.K.K.K.K.K.K.K.",
"K.K.K.K.K.K.K.K.K.K.K.K.K.K.K.K.K.K.K.K.K.K.K.K.K.K.K.K.K.K.K.K.K.K.K.K.K.K.K.K.K.K.K.K.K.K.K.K.K.K.K.K.K.K.K.K.K.K.K.K.K.K.K.K.",
"K.K.K.K.K.K.K.K.K.K.K.K.K.x.m.K.K.K.K.K.K.K.A.k.G.K.K.K.K.k.M.K.K.K.K.K.K.k.C.K.K.K.K.K.K.K.K.K.K.A.k.G.K.K.K.K.K.K.K.K.K.K.K.K.",
"K.K.K.K.K.K.K.K.K.K.K.K.K.M.N.K.K.K.K.K.K.K.D.v.G.J.Z.H.K.m.Z.K.K.K.K.K.K.m.A.K.A.F.K.A.Z.Z.G.K.K.F.m.F.K.K.K.K.K.K.K.K.K.K.K.K.",
"K.K.K.K.K.K.K.K.K.K.K.K.K.K.K.K.K.K.K.K.K.K.L.K.K.H.g.Z.K.K.K.K.K.K.K.K.K.K.K.K.k.x.K.x.g.g.N.K.K.K.K.K.K.K.K.K.K.K.K.K.K.K.K.K.",
"K.K.K.K.K.K.K.K.K.K.K.A.k.H.K.K.M.v.K.C.l.H.K.K.v.x.H.J.K.K.K.K.v.m.K.K.K.K.C.k.F.Z.k.h.k.H.N.k.K.K.K.b.x.K.K.K.K.K.K.K.K.K.K.K.",
"K.K.K.K.K.K.K.K.K.K.K.F.m.Z.Z.Z.N.v.Z.v.g.C.Z.Z.N.m.Z.H.K.Z.D.K.C.M.K.D.Z.Z.N.v.Z.N.g.g.h.Z.v.g.Z.Z.Z.N.m.Z.H.K.Z.F.K.K.K.K.K.K.",
"K.K.K.K.K.K.K.K.K.K.K.K.K.k.g.g.C.H.g.g.g.g.g.g.D.H.g.C.K.g.m.K.K.K.K.m.g.g.N.K.k.g.g.g.g.g.g.g.g.g.g.F.H.g.Z.K.g.m.K.K.K.K.K.K.",
"K.K.K.K.K.M.b.K.K.K.x.N.K.F.F.F.N.l.g.g.g.Z.N.g.x.l.g.l.x.g.k.x.G.G.x.N.F.g.k.x.g.g.g.g.g.g.m.F.g.g.g.l.v.D.J.K.F.H.K.K.K.K.K.K.",
"K.K.K.K.K.M.m.K.H.F.x.N.F.F.F.F.x.g.g.g.g.D.M.g.g.g.g.g.g.x.v.g.C.Z.x.C.D.g.g.g.g.g.g.g.g.g.m.F.g.g.g.l.m.D.H.K.F.G.K.K.K.K.K.K.",
"K.K.K.K.K.K.K.K.m.g.K.Z.g.g.g.g.g.g.g.g.g.g.g.g.g.g.g.g.g.K.C.g.g.x.K.m.g.g.g.g.g.g.g.g.g.g.g.g.g.g.g.F.H.g.C.K.g.m.K.K.K.K.K.K.",
"K.K.x.N.K.K.J.x.N.F.x.k.g.Z.C.g.g.g.g.g.g.g.g.g.g.s.s.s.s.f.k.g.g.h.x.h.g.g.g.g.g.g.g.g.g.g.g.g.g.x.F.m.l.g.l.x.F.Z.x.H.G.x.A.K.",
"K.K.x.C.K.G.Z.g.N.D.g.h.x.F.C.g.g.g.g.g.g.g.g.g.g..     . E g.g.g.g.g.g.g.g.g.g.g.g.g.g.g.g.g.g.g.b.F.l.g.g.k.x.F.N.x.J.G.x.D.K.",
"K.K.K.K.K.x.g.g.g.g.g.m.J.k.g.g.g.g.g.g.g.g.g.g.g.      . E g.g.g.g.g.g.g.g.g.g.g.g.g.g.g.g.g.g.g.g.g.g.g.g.Z.K.g.m.K.K.K.K.K.K.",
"K.K.K.K.K.G.A.g.M.F.g.k.x.g.g.g.g.g.g.g.g.g.8.; ; s s s s 6 ; ; s.g.g.g.g.g.g.g.g.g.g.g.g.g.g.g.g.g.g.g.g.g.l.x.F.Z.x.H.K.K.K.K.",
"K.K.K.J.F.J.H.g.N.F.g.g.g.g.g.g.g.g.g.g.g.g.4.. X b b b b y X X s.g.g.g.g.g.g.g.g.g.g.g.g.g.g.g.g.g.g.g.g.g.k.x.D.M.g.H.K.K.K.K.",
"K.K.K.Z.g.F.H.g.g.g.g.g.g.g.g.g.g.g.g.g.7.3.^ 5 5 C C C C n 5 5  .3.9.g.g.g.g.g.g.g.g.g.g.g.g.g.g.g.g.g.g.g.C.K.g.h.g.H.K.K.K.K.",
"K.K.K.H.F.m.l.g.g.g.g.g.g.g.g.g.g.g.g.g.[ . > n n G G G G Z b b + X 3.g.g.g.g.g.g.g.g.g.g.g.g.g.g.g.g.g.g.g.l.x.g.x.A.K.K.K.K.K.",
"K.K.K.J.F.m.x.g.k.x.g.g.g.g.g.g.g.g.s.s.Q O 5 n n G G G G F b b @ O | s.s.g.g.g.g.g.g.g.g.g.g.g.g.g.g.g.g.x.k.g.x.N.F.J.K.K.K.K.",
"K.K.K.Z.g.F.H.g.Z.K.g.g.g.g.g.g.g.g.. . 6 b V G G G G G G F b b q 0 * X ; g.g.g.g.g.g.g.g.g.g.g.g.g.g.g.l.K.m.g.K.Z.g.H.K.K.K.K.",
"Z.x.K.Z.g.l.x.F.N.x.g.g.g.g.g.g.g.g.. . 6 b V G G G G G G Z b b q 0 * X ; h.g.g.g.g.g.g.g.g.g.g.g.g.g.g.h.x.N.D.x.m.D.K.G.x.A.K.",
"C.x.K.A.x.x.m.K.m.g.x.l.g.g.g.g.g.g.. . p Z F G G 0.0.0.0.:.Z F j h t 3 w W E a.g.g.g.g.g.g.g.g.g.h.x.g.g.x.C.D.g.m.K.K.G.x.F.K.",
"K.K.K.K.K.K.K.K.m.g.K.Z.g.g.g.g.g.g.. . g G G G G i.i.i.i.0.G G n b i 0 8 X X 9.g.g.g.g.g.g.g.g.g.m.K.x.k.K.m.g.g.m.K.K.K.K.K.K.",
"K.K.K.D.x.G.J.x.g.g.x.k.g.g.g.g.g.g.. . c O.O.O.O.i.i.i.i.e.%.%.A C b i u * * } 3.7.g.g.g.g.g.g.g.k.x.g.h.x.N.D.F.Z.x.H.K.K.K.K.",
"K.K.K.A.x.G.H.x.x.x.g.g.g.g.g.g.g.g.X X ] w.w.w.w.i.i.i.i.i.i.i.J G C n j 0 0 O X [ g.g.g.g.g.g.g.g.g.g.g.x.Z.D.F.N.x.J.K.K.K.K.",
"K.K.K.K.K.K.K.K.K.K.g.g.g.g.g.d.s.s.O O X.w.w.w.e.i.i.i.i.i.i.i.I J A m b q t * O ~ s.s.g.g.g.g.g.g.g.g.k.K.m.g.g.m.K.K.K.K.K.K.",
"Z.x.K.K.K.K.K.K.C.x.g.g.g.g.g.4.X X b b @.w.r.i.i.i.i.i.i.i.i.i.i.i.%.G F b b b n r X X g.g.g.g.g.g.g.g.h.x.h.g.F.H.K.m.M.K.C.b.",
"Z.x.K.K.K.G.D.K.v.g.x.x.x.g.g.4.X X b b @.w.r.i.i.i.i.i.i.i.i.i.i.i.%.G F b b b n r X X g.g.g.g.g.g.v.g.g.g.k.v.K.K.K.b.M.K.N.m.",
"K.K.K.K.K.x.k.K.m.g.K.K.K...E l y y F Z #.w.r.i.i.i.i.i.i.i.i.i.i.i.e.0.1.Z Z F Z n y y R E 7.g.g.m.J.v.g.g.C.K.K.K.K.K.K.K.K.K.",
"K.K.K.K.K.G.G.K.G.D.x.v.x.E . 1 b b F G #.w.r.i.i.i.i.i.i.i.i.i.i.i.i.i.r.G G G G Z b b . X 6.g.g.l.b.g.h.F.N.x.x.N.K.K.K.K.K.K.",
"K.K.K.K.K.K.K.K.J.H.k.g.g.E . > b b G G &.w.r.i.i.i.i.i.i.i.i.i.i.i.i.i.y.%.%.J G Z b b 5 5 ^ 3.7.g.g.g.k.H.m.k.g.m.K.K.J.H.J.K.",
"K.K.K.K.K.K.K.K.m.g.K.C.g.E . > n n G G &.w.r.i.i.i.i.i.i.i.i.i.i.i.i.i.i.i.i.I G Z b n b b 1 X [ g.g.g.g.g.V.K.g.m.K.K.D.g.Z.K.",
"K.K.K.K.K.K.K.K.F.Z.m.v.g.E   > j j G G &.w.r.i.i.i.i.t.q.t.i.i.i.i.t.q.q.i.i.T H S n m j j 1 . ~ s.s.N.Z.g.v.m.Z.D.K.K.J.Z.H.K.",
"K.K.K.K.K.K.K.H.J.K.g.g.g.E . & 0 0 G G &.w.r.i.i.i.i./   z i.i.i.i.`   - i.i.r.w.&.G G 0 0 0 0 < . . Z.D.g.g.g.H.J.K.H.J.K.K.K.",
"K.K.K.K.K.K.H.g.Z.K.g.g.g.E . & 0 0 G G &.w.r.i.i.i.i./   z i.i.i.i.`   - i.i.e.w.&.G G 0 0 0 0 < . . g.g.g.g.g.g.m.K.l.x.K.K.K.",
"K.K.K.F.m.H.J.Z.N.m.C.m.g.E . & 0 0 M M K P $.i.i.i.i./   z i.i.i.i.`   - i.i.e.w.&.G G 0 0 0 0 < .   g.g.g.g.g.Z.D.K.A.A.K.K.K.",
"K.K.K.A.k.F.K.K.m.g.H.C.g.E . $ 0 0 b b Z G o.i.i.i.i./   z i.i.i.i.`   - i.i.r.w.&.G G 0 0 0 0 < .   g.g.g.g.l.H.J.K.H.J.K.J.H.",
"K.K.K.K.K.K.K.K.m.g.g.g.g.E . $ 0 0 a a C G T y.y.i.i.*./ ` i.i.i.i.;./ _ i.i.e.w.&.G G 0 0 0 0 <   . x.g.g.C.K.g.m.K.k.x.K.v.l.",
"K.K.K.K.K.N.m.m.N.Z.g.g.g.E   $ 0 0 0 0 N G Y w.w.i.i.i.i.i.i.i.i.i.i.i.i.i.i.r.w.&.G G 0 0 0 9 < .   k.g.A.C.v.Z.N.m.Z.A.K.D.Z.",
"K.K.K.K.K.m.j.g.C.H.g.g.g.[ ; = 8 8 0 0 N F U 2.2.i.i.i.i.i.i.i.i.i.i.i.i.i.i.2.2.+.Z F q q 0 8 w : ; g.k.H.v.g.H.Z.k.S.J.K.K.K.",
"K.K.K.K.K.K.H.g.g.g.g.g.g.g.g.4.X   0 0 d b V G G i.i.i.i.i.i.i.i.i.i.i.i.i.i.I G Z n n b b > . [ g.g.g.g.g.g.g.g.m.K.k.x.K.K.K.",
"K.K.K.K.K.N.m.Z.x.g.g.g.g.g.g.4.X X 0 0 d n V G G i.i.i.i.i.i.i.i.i.i.i.i.i.i.U G Z b b n b > . [ g.g.g.g.g.m.Z.g.m.K.A.S.K.K.K.",
"K.K.K.K.K.b.b.H.v.g.g.g.g.g.g.s.9.9.# # $ $ 6 G G r.r.u.i.i.i.i.i.i.i.i.i.r.e.L G v % % % % | 9.s.g.g.g.g.g.C.H.k.m.H.K.K.K.K.K.",
"K.K.K.K.K.K.H.g.g.g.g.g.g.g.g.g.g.g.. . . . 4 G F w.w.r.i.i.i.i.i.i.i.i.i.w.w.L G g . . . . 5.g.g.g.g.g.g.g.g.g.K.Z.g.H.K.K.K.K.",
"K.K.m.Z.K.K.J.Z.x.g.Z.m.g.g.g.g.g.g.{ { [ { ) f f X.] =.>.,.<.<.<.<.,.>.-.] X.k g x { [ [ [ p.g.g.x.Z.k.h.Z.x.g.m.N.Z.J.G.m.F.K.",
"K.K.j.M.K.K.K.H.v.l.H.C.g.g.g.g.g.g.g.g.g.g.5.X     . r n m G G G G C b s         [ g.g.g.g.g.g.g.v.H.m.x.H.b.j.g.m.K.K.G.j.A.K.",
"K.K.K.K.K.K.H.g.Z.K.g.g.g.g.g.g.g.g.g.g.g.g.6.  . . . r n M G G G G C b s         { g.g.g.g.g.g.g.g.g.A.H.h.Z.K.g.m.K.K.K.K.K.K.",
"K.K.K.K.K.N.m.Z.N.m.g.g.g.C.M.g.g.g.g.g.g.g.g.g.g.g.g.g.g.g.g.g.g.g.g.g.g.g.g.g.g.g.g.g.h.Z.b.g.g.g.g.x.v.g.x.m.Z.N.m.H.K.K.K.K.",
"K.K.H.J.K.m.b.J.m.g.j.h.g.F.S.g.g.g.g.g.g.g.g.g.g.g.g.g.g.g.g.g.g.g.g.g.g.j.h.g.g.g.g.g.k.H.M.g.k.h.g.g.g.k.k.k.K.A.k.H.K.K.K.K.",
"K.K.g.m.K.K.K.K.m.g.K.Z.g.g.g.g.g.g.g.g.g.g.g.g.g.g.g.g.g.g.g.g.g.g.g.g.g.K.N.g.g.g.g.g.h.g.g.g.K.Z.g.g.k.K.K.K.K.K.K.K.K.K.K.K.",
"K.K.Z.F.K.K.K.K.F.Z.m.N.Z.h.l.Z.b.g.g.g.g.C.m.g.g.g.g.g.g.g.g.g.g.g.g.g.g.m.l.g.g.g.g.N.C.g.g.g.m.x.g.M.Z.M.F.K.m.Z.K.K.K.K.K.K.",
"K.K.K.K.K.K.K.K.K.K.j.m.H.j.l.H.b.g.g.g.g.F.C.g.g.g.g.g.g.g.g.g.j.h.g.h.j.g.g.g.k.h.g.Z.F.g.g.g.j.h.g.Z.F.j.A.K.k.M.K.K.K.K.K.K.",
"K.K.K.K.K.K.K.K.K.K.K.Z.g.g.g.g.g.g.g.g.g.g.g.g.g.g.g.g.g.g.g.g.F.F.g.Z.K.g.g.g.H.F.g.g.g.g.g.g.K.Z.g.g.j.K.K.K.K.K.K.K.K.K.K.K.",
"K.K.K.K.K.K.K.K.K.K.K.G.N.h.j.N.N.M.g.g.g.g.g.g.m.M.g.g.g.g.g.g.m.m.g.b.N.N.N.N.N.N.N.k.h.N.b.g.N.N.N.N.C.K.K.K.K.K.K.K.K.K.K.K.",
"K.K.K.K.K.K.K.K.K.K.K.K.K.j.x.K.K.H.g.g.g.g.g.g.S.H.g.g.g.g.g.g.g.g.g.g.g.K.K.J.k.x.K.x.k.K.M.g.g.m.K.K.K.K.K.K.K.K.K.K.K.K.K.K.",
"K.K.K.K.K.K.K.K.m.g.K.K.K.K.K.K.m.g.g.N.K.j.g.g.g.g.g.g.g.K.Z.g.F.F.g.Z.K.K.N.g.H.F.g.F.H.g.N.K.K.Z.g.D.K.K.m.g.K.K.K.K.K.K.K.L.",
"K.K.K.K.K.K.K.K.A.N.K.K.K.K.K.K.S.M.g.x.N.h.l.N.j.h.B.l.g.B.B.B.N.N.N.G.K.K.F.N.J.H.N.H.J.N.F.K.K.G.N.H.K.K.A.N.K.K.K.K.K.K.K.L.",
"K.K.K.K.K.K.K.K.K.K.K.K.K.K.K.K.K.H.g.g.g.g.m.K.b.j.K.n.g.g.n.K.b.b.J.K.K.K.K.K.K.K.K.K.K.K.K.K.K.K.K.K.K.K.K.K.K.K.K.K.K.K.K.K.",
"K.K.K.K.K.K.K.K.K.K.K.K.K.K.F.g.Z.K.K.K.K.K.Z.g.F.H.g.g.g.g.n.K.J.K.K.m.g.K.K.K.k.x.K.K.K.K.N.g.K.K.K.K.K.K.K.K.K.K.K.K.K.K.K.K.",
"K.K.K.K.K.K.K.K.K.K.K.K.K.K.H.N.G.K.K.K.K.C.N.N.H.J.N.N.B.B.S.K.K.K.K.S.N.K.K.K.C.Z.K.K.K.K.F.N.K.K.K.K.K.K.K.K.K.K.K.K.K.K.K.K.",
"K.K.K.K.K.K.K.K.K.K.K.K.K.K.K.K.K.K.K.K.K.j.M.K.K.K.K.K.K.K.K.K.K.K.K.K.K.K.K.K.K.K.K.K.K.K.K.K.K.K.K.K.K.K.K.K.K.K.K.K.K.K.K.K.",
"L.L.K.K.K.K.K.K.K.K.K.Z.g.H.K.K.K.K.K.K.K.K.K.K.K.K.K.n.g.K.K.K.K.K.K.K.K.K.K.K.K.K.K.K.K.K.K.K.K.K.K.K.K.K.K.K.K.K.K.K.K.K.K.K.",
"I.I.K.K.K.K.K.K.K.K.K.G.N.J.K.K.K.K.K.K.K.K.K.K.K.K.K.S.N.K.K.K.K.K.K.K.K.K.K.K.K.K.K.K.K.K.K.K.K.K.K.K.K.K.K.K.K.K.K.K.K.K.K.K."
};
