/* XPM */
static char *a8abfaa6fa914d59d199165cd155751fP5etmffUeiGzch3f[] = {
/* columns rows colors chars-per-pixel */
"64 64 160 2 ",
"   c #F36401",
".  c #F36503",
"X  c #F46400",
"o  c #F56B01",
"O  c #F56F00",
"+  c #F46C04",
"@  c #F47603",
"#  c #F67C02",
"$  c #F77905",
"%  c #F97F05",
"&  c #EE7D12",
"*  c #E67220",
"=  c #E57322",
"-  c #E77923",
";  c #E77D20",
":  c #E07D31",
">  c #E07F30",
",  c #F68102",
"<  c #F68602",
"1  c #F88003",
"2  c #F88700",
"3  c #FA8704",
"4  c #F98D01",
"5  c #FC8C07",
"6  c #F6870B",
"7  c #F99300",
"8  c #FB9F00",
"9  c #FE9308",
"0  c #FF9A0A",
"q  c #FF9F08",
"w  c #F68818",
"e  c #FFA407",
"r  c #FCAB01",
"t  c #FEAD03",
"y  c #FFAE05",
"u  c #FEB700",
"i  c #FAB800",
"p  c #FFB902",
"a  c #FDBD00",
"s  c #FFB806",
"d  c #F3A110",
"f  c #F68926",
"g  c #F68A2D",
"h  c #E89421",
"j  c #F7922D",
"k  c #E18C31",
"l  c #FFC300",
"z  c #FFCC01",
"x  c #FFD200",
"c  c #FFD600",
"v  c #FFDB00",
"b  c #FFE000",
"n  c #FFE500",
"m  c #FFEA00",
"M  c #FFEB09",
"N  c #FFE212",
"B  c #FFEB12",
"V  c #FFE01B",
"C  c #FFD420",
"Z  c #FFD52B",
"A  c #FDD436",
"S  c #FFD636",
"D  c #FFD73E",
"F  c #FFED24",
"G  c #FFED2B",
"H  c #FFEE36",
"J  c #D88140",
"K  c #D88142",
"L  c #DA8741",
"P  c #D98743",
"I  c #DB8E42",
"U  c #D29152",
"Y  c #D49A50",
"T  c #F79B42",
"R  c #CA9061",
"E  c #CA9062",
"W  c #C49671",
"Q  c #FFD740",
"!  c #FEDC4B",
"~  c #FFE540",
"^  c #FFEF40",
"/  c #FFEE4B",
"(  c #FFF048",
")  c #FFE35A",
"_  c #FFF155",
"`  c #FFF15A",
"'  c #FFF15B",
"]  c #FBC06C",
"[  c #FFE861",
"{  c #FFE46B",
"}  c #FFE96B",
"|  c #FFF26B",
" . c #FFF36C",
".. c #FFF475",
"X. c #FFF47E",
"o. c #BD9D80",
"O. c #BD9E81",
"+. c #B6A591",
"@. c #B7A890",
"#. c #B0AB9F",
"$. c #AFABA0",
"%. c #AFACA0",
"&. c #A9B3B0",
"*. c #A2BABF",
"=. c #FCD381",
"-. c #FDDC8B",
";. c #FFEB80",
":. c #FFEF80",
">. c #FFF480",
",. c #FFF58B",
"<. c #FFF58F",
"1. c #FEE596",
"2. c #FDE696",
"3. c #FFF690",
"4. c #FFF196",
"5. c #FFF695",
"6. c #FFF79A",
"7. c #FFF79C",
"8. c #FFF79D",
"9. c #FEEFA1",
"0. c #FFF7A1",
"q. c #FFF7A4",
"w. c #FFF8A7",
"e. c #FFF7A9",
"r. c #FFF8AB",
"t. c #9BC1CF",
"y. c #94C9DF",
"u. c #95C9DF",
"i. c #98CADF",
"p. c #A5CFDF",
"a. c #8ECFEF",
"s. c #8ED0EF",
"d. c #87D7FF",
"f. c #8BD9FF",
"g. c #8EDBFF",
"h. c #8FDBFF",
"j. c #92DCFF",
"k. c #97DEFF",
"l. c #9ADFFF",
"z. c #9BDFFF",
"x. c #9AE0FF",
"c. c #9EE1FF",
"v. c #9FE1FF",
"b. c #A2E3FF",
"n. c #A6E4FF",
"m. c #A6E5FF",
"M. c #ABE6FF",
"N. c #AAE7FF",
"B. c #AEE9FF",
"V. c #B2EAFF",
"C. c #B2EBFF",
"Z. c #B6EBFF",
"A. c #B6ECFF",
"S. c #BAEEFF",
"D. c #BEEFFF",
"F. c #C2F1FF",
"G. c #C6F3FF",
"H. c #C9F4FF",
"J. c #CDF4FF",
"K. c #D4F6FF",
/* pixels */
"G.G.G.G.G.G.G.G.G.G.G.G.G.G.G.G.G.G.G.G.G.G.G.G.G.G.G.G.G.G.G.G.G.G.G.G.G.G.G.G.G.G.G.G.G.G.G.G.G.G.G.G.G.G.G.G.G.G.G.G.G.G.G.G.",
"G.G.G.G.G.G.G.G.G.G.G.G.G.G.G.G.G.G.G.G.G.G.G.G.G.G.G.G.G.G.G.G.G.G.G.G.G.G.G.G.G.G.G.G.G.G.G.G.G.G.G.G.G.G.G.G.G.G.G.G.G.G.G.G.",
"G.G.G.G.G.G.G.G.G.G.G.G.G.G.G.G.G.G.G.G.G.G.G.G.G.G.G.G.G.G.G.G.G.G.G.G.G.G.G.G.G.G.G.G.G.G.G.G.G.G.G.G.G.G.G.G.G.G.G.G.G.G.G.G.",
"G.G.G.G.G.G.G.G.G.G.G.G.G.k.v.G.G.G.G.G.G.G.V.h.S.G.G.G.G.h.b.G.G.G.G.G.G.h.N.G.G.G.G.G.G.G.G.G.G.V.h.S.G.G.G.G.G.G.G.G.G.G.G.G.",
"G.G.G.G.G.G.G.G.G.G.G.G.G.b.n.G.G.G.G.G.G.G.Z.v.S.F.B.D.G.v.B.G.G.G.G.G.G.v.V.G.V.A.G.V.B.B.S.G.G.A.v.A.G.G.G.G.G.G.G.G.G.G.G.G.",
"G.G.G.G.G.G.G.G.G.G.G.G.G.G.G.G.G.G.G.G.G.G.G.G.G.D.d.B.G.G.G.G.G.G.G.G.G.G.G.G.h.k.G.k.d.d.n.G.G.G.G.G.G.G.G.G.G.G.G.G.G.G.G.G.",
"G.G.G.G.G.G.G.G.G.G.G.V.h.D.G.G.b.k.G.N.h.D.G.G.z.k.D.F.G.G.G.G.z.v.G.G.G.G.N.h.A.B.h.f.h.D.n.h.G.G.G.x.k.G.G.G.G.G.G.G.G.G.G.G.",
"G.G.G.G.G.G.G.G.G.G.G.A.v.B.B.B.n.v.B.z.d.N.B.B.n.v.B.D.G.B.Z.G.N.n.G.Z.B.B.n.z.B.n.d.d.f.B.z.d.B.B.B.n.v.B.D.G.B.A.G.G.G.G.G.G.",
"G.G.G.G.G.G.G.G.G.G.G.G.G.h.d.d.B.D.d.d.d.d.d.d.Z.D.d.N.G.d.v.G.G.G.G.v.d.d.n.G.h.d.d.d.d.d.d.d.d.d.d.A.D.d.B.G.d.v.G.G.G.G.G.G.",
"G.G.G.G.G.b.x.G.G.G.k.n.G.A.A.A.n.j.d.d.d.B.n.d.j.k.d.j.k.d.h.z.S.S.k.n.A.d.h.k.d.d.d.d.d.d.v.A.d.d.d.j.z.Z.F.G.A.D.G.G.G.G.G.G.",
"G.G.G.G.G.b.v.G.D.A.k.n.A.A.A.A.k.d.d.d.d.V.b.d.d.d.d.d.d.k.j.d.N.B.k.N.Z.d.d.d.d.d.d.d.d.d.v.A.d.d.d.j.v.Z.D.G.A.S.G.G.G.G.G.G.",
"G.G.G.G.G.G.G.G.v.d.G.B.d.d.d.d.d.d.d.d.d.d.d.d.d.d.d.d.d.G.B.d.d.k.G.v.d.d.d.d.d.d.d.d.d.d.d.d.d.d.d.A.D.d.N.G.d.v.G.G.G.G.G.G.",
"G.G.k.n.G.G.F.k.n.A.k.h.d.B.N.d.d.d.d.d.d.d.d.d.d.d.d.d.d.k.h.d.y.i.p.i.a.d.d.d.d.d.d.d.d.d.d.d.d.k.A.v.j.d.j.k.A.B.k.D.S.k.V.G.",
"G.G.k.N.G.S.B.d.n.Z.d.f.k.A.N.d.d.d.d.d.d.d.d.d.d.d.d.d.d.d.d.d.. X . . E d.d.d.d.d.d.d.d.d.d.d.d.x.A.j.d.d.h.k.A.n.k.F.S.k.Z.G.",
"G.G.G.G.G.k.d.d.d.d.d.v.F.h.d.d.d.d.d.d.d.d.d.d.d.d.d.d.d.d.d.d.. . . . E d.d.d.d.d.d.d.d.d.d.d.d.d.d.d.d.d.B.G.d.v.G.G.G.G.G.G.",
"G.G.G.G.G.S.V.d.b.A.d.h.k.d.d.d.d.d.d.d.d.d.d.d.d.d.d.d.d.&.* * p u u u d * * d.d.d.d.d.d.d.d.d.d.d.d.d.d.d.j.k.A.B.k.D.G.G.G.G.",
"G.G.G.F.A.F.D.d.n.Z.d.d.d.d.d.d.d.d.d.d.d.d.d.d.d.d.d.d.d.#.X X l l l l 8 X X d.d.d.d.d.d.d.d.d.d.d.d.d.d.d.h.k.Z.b.d.D.G.G.G.G.",
"G.G.G.B.d.A.D.d.d.d.d.d.d.d.d.d.d.d.d.d.d.d.d.d.d.d.d.#.o.Y 7 7 c c c c p 7 7 o.o.t.d.d.d.d.d.d.d.d.d.d.d.d.N.G.d.f.d.D.G.G.G.G.",
"G.G.G.D.A.v.j.d.d.d.d.d.d.d.d.d.d.d.d.d.d.d.d.d.d.d.d.J X 2 l l m m m m v l l X X #.d.d.d.d.d.d.d.d.d.d.d.d.j.k.d.k.V.G.G.G.G.G.",
"G.G.G.F.A.v.k.d.h.k.d.d.d.d.d.d.d.d.d.d.d.d.d.d.d.y.y.L o 4 z l B B M m v l l + o @.y.a.d.d.d.d.d.d.d.d.d.k.h.d.k.n.A.F.G.G.G.G.",
"G.G.G.B.d.A.D.d.B.G.d.d.d.d.d.d.d.d.d.d.d.d.d.d.y.X X 5 0 s m m 3.3.H m v l l 0 0 $ X J d.d.d.d.d.d.d.d.j.G.v.d.G.B.d.D.G.G.G.G.",
"B.k.G.B.d.j.k.A.n.k.d.d.d.d.d.d.d.d.d.d.d.d.d.d.y.X X 5 0 s m m 3.3.H m v l l e 0 $ . J d.d.d.d.d.d.d.d.f.k.n.Z.k.v.Z.G.S.k.V.G.",
"N.k.G.V.k.k.v.G.v.d.k.j.d.d.d.d.d.d.d.d.d.d.%.J : 5 5 y p z m m 3.3... .( v v 0 0 $ . K d.d.d.d.d.f.k.d.d.k.N.Z.d.v.G.G.S.k.A.G.",
"G.G.G.G.G.G.G.G.v.d.G.B.d.d.d.d.d.d.d.d.d.d.o.  o 0 0 p l x m m 3.3.3.3.' m m 0 0 $ . K d.d.d.d.d.v.G.k.h.G.v.d.d.v.G.G.G.G.G.G.",
"G.G.G.Z.k.S.F.k.d.d.k.h.d.d.d.d.d.d.d.d.+.o.I % 3 y y z c V ( ( 8.8.5.3.` m m y y % X J d.d.d.d.d.h.k.d.f.k.n.A.A.B.k.D.G.G.G.G.",
"G.G.G.V.k.S.D.k.k.k.d.d.d.d.d.d.d.d.d.d.* X % 0 0 l l v m H 3.3.r.r.6.3.` m m l l < X J d.d.d.d.d.d.d.d.d.k.B.Z.A.n.k.F.G.G.G.G.",
"G.G.G.G.G.G.G.G.G.G.d.d.d.d.d.d.d.a.y.y.- @ 3 e e l z N B ^ 5.3.r.r.6.5.` m m l l 4 o k y.y.d.d.d.d.d.d.h.G.v.d.d.v.G.G.G.G.G.G.",
"B.k.G.G.G.G.G.G.N.k.d.d.d.d.d.d.d.*.X X u l l l z m m  .3.6.r.r.r.r.r.r. .m m l l l a r X X y.d.d.d.d.d.f.k.f.d.A.D.G.v.b.G.N.x.",
"B.k.G.G.G.S.Z.G.z.d.k.k.k.d.d.d.d.*.X X p l l l z m m  .3.6.r.r.r.r.r.r.| m m l l l l r X X y.d.d.f.k.d.d.d.h.k.G.G.G.x.b.G.n.v.",
"G.G.G.G.G.k.h.G.v.d.G.G.G.h.d.+.J k r r v v ~ ;.;.>.>.8.q.e.r.r.r.r.r.r.<. . .v v z l p 5 5 I J $.v.G.z.d.d.N.G.G.G.G.G.G.G.G.G.",
"G.G.G.G.G.S.S.G.S.Z.k.z.k.d.d.R X # l l n m _ r.e.r.r.r.r.r.r.r.r.r.r.r.0.3.3.m m x l u 0 0 + . o.j.k.d.f.A.n.k.k.n.G.G.G.G.G.G.",
"G.G.G.G.G.G.G.G.F.D.h.d.d.d.d.R . , c c ( _ >.r.e.r.r.r.r.r.r.r.r.r.r.r.w.8.8._ _ C l s 0 0 +   o.d.d.d.h.D.v.h.d.v.G.G.F.D.F.G.",
"G.G.G.G.G.G.G.G.v.d.G.B.d.d.d.R   < m m 5.r.r.r.r.r.r.r.r.r.r.r.r.r.r.r.r.r.r.r.e.Q l p 0 0 + . o.d.d.d.d.d.B.G.d.v.G.G.A.d.B.G.",
"G.G.G.G.G.G.G.G.Z.B.v.k.d.d.d.R . 6 B B 5.r.r.r.r.2.2.r.r.r.r.r.2.2.9.r.r.r.e.e.e.D l p 0 0 + . o.d.d.n.N.d.k.v.B.A.G.G.F.B.D.G.",
"G.G.G.G.G.G.G.D.F.G.d.d.d.d.d.R . f <.<.r.r.r.r.2..   =.r.r.r.r.X . ] r.r.r.r.3.3.S l p 0 0 + . o.d.d.B.A.d.d.d.D.F.G.D.F.G.G.G.",
"G.G.G.G.G.G.D.d.N.G.d.d.d.d.d.R . f <.<.q.r.r.r.2..   =.r.r.r.r.. . ] r.r.r.r.3.3.S l p 0 0 + . o.d.d.d.d.d.d.d.d.v.G.h.k.G.G.G.",
"G.G.G.A.v.D.F.B.n.v.B.v.d.d.d.R . 6 F F 7.r.r.r.2.. . =.r.r.r.r.. . ] r.r.r.r.q.q.D l p 0 0 + . o.d.d.d.d.d.d.d.B.A.G.V.V.G.G.G.",
"G.G.G.V.h.Z.G.G.v.d.D.N.d.d.d.R . < m m 5.r.r.r.2.. . =.r.r.r.r.. . ] r.r.r.r.r.e.Q l u 0 e + . o.f.g.d.d.d.f.h.D.F.G.D.F.G.F.D.",
"G.G.G.G.G.G.G.G.v.d.d.d.d.d.d.R . , v v 4.r.r.r.0.T T -.r.r.r.r.T T =.r.q.0.0. .| Z l s 0 0 + . o.b.G.x.d.d.N.G.d.v.G.h.k.G.v.h.",
"G.G.G.G.G.n.v.v.n.B.d.d.d.d.d.R . # l l 4.r.r.r.r.r.r.r.r.r.r.r.r.r.r.e.0.3.3.m m x l s 0 0 +   o.g.v.g.f.B.n.v.B.n.v.B.V.G.A.V.",
"G.G.G.G.G.v.g.d.N.D.d.d.d.d.d.W = & p p X.5.0.e.r.r.r.r.r.r.r.r.r.r.e.e.5.X.X.n n z l u 9 9 - * +.d.d.d.h.D.x.d.D.B.h.C.F.G.G.G.",
"G.G.G.G.G.G.D.d.d.d.d.d.d.d.d.d.d.*.X   v n _ r.r.r.r.r.r.r.r.r.r.r.6.3.` m m l l l l r X X y.d.d.d.d.d.d.d.d.d.d.v.G.h.k.G.G.G.",
"G.G.G.G.G.n.v.B.k.d.d.d.d.d.d.d.d.*.    v m _ r.r.r.r.r.r.r.r.r.r.r.6.3.` m m l l l l r     y.d.d.d.d.d.d.d.v.B.d.v.G.V.B.G.G.G.",
"G.G.G.G.G.v.k.D.z.d.d.d.d.d.d.d.d.s.*.*.h < w g j G G <.r.r.r.r.r.r.6.3.` m m # # # # k *.*.d.d.d.d.d.d.d.d.N.D.h.v.D.G.G.G.G.G.",
"G.G.G.G.G.G.D.d.d.d.d.d.d.d.d.d.d.d.d.d.*   . . @ m m >.r.r.r.r.r.r.6.3.` m m   . . . J d.d.d.d.d.d.d.d.d.d.d.d.G.B.d.D.G.G.G.G.",
"G.G.v.B.G.G.F.B.k.d.B.v.d.d.d.d.d.d.d.d.W R E E U i i ! { } | |  . .[ ) A i i E R R R o.d.d.d.d.d.k.B.h.f.B.k.d.v.n.B.F.S.v.A.G.",
"G.G.g.b.G.G.G.D.v.h.D.N.d.d.d.d.d.d.d.d.d.d.d.d.y..   r l x m m m m x l 8 . . d.d.d.d.d.d.d.d.d.d.x.D.v.k.D.v.g.d.v.G.G.S.g.V.G.",
"G.G.G.G.G.G.D.d.N.G.d.d.d.d.d.d.d.d.d.d.d.d.d.d.y..   r l x m m m m x l 8 . . d.d.d.d.d.d.d.d.d.d.d.d.V.D.d.B.G.d.v.G.G.G.G.G.G.",
"G.G.G.G.G.n.v.N.n.v.d.d.d.N.b.f.d.d.d.d.d.d.d.d.d.d.d.d.d.d.d.d.d.d.d.d.d.d.d.d.d.d.d.d.f.B.x.d.d.d.d.k.z.d.k.v.B.n.v.D.G.G.G.G.",
"G.G.D.F.G.v.x.G.v.d.g.f.d.A.V.d.d.d.d.d.d.d.d.d.d.d.d.d.d.d.d.d.d.d.d.d.d.g.f.d.d.d.d.d.h.D.b.d.h.f.d.d.d.h.h.h.G.V.h.D.G.G.G.G.",
"G.G.d.v.G.G.G.G.v.d.G.B.d.d.d.d.d.d.d.d.d.d.d.d.d.d.d.d.d.d.d.d.d.d.d.d.d.G.n.d.d.d.d.d.f.d.d.d.G.B.d.d.h.G.G.G.G.G.G.G.G.G.G.G.",
"G.G.B.A.G.G.G.G.C.B.v.n.B.f.j.B.x.d.d.d.d.N.v.d.d.d.d.d.d.d.d.d.d.d.d.d.d.v.j.d.d.d.d.n.N.d.d.d.v.k.d.n.B.v.A.G.v.B.G.G.G.G.G.G.",
"G.G.G.G.G.G.G.G.G.G.g.v.D.g.j.D.x.d.d.d.d.A.N.d.d.d.d.d.d.d.d.d.g.f.d.f.g.d.d.d.h.f.d.B.A.d.d.d.h.f.d.B.A.h.V.G.h.b.G.G.G.G.G.G.",
"G.G.G.G.G.G.G.G.G.G.G.B.d.d.d.d.d.d.d.d.d.d.d.d.d.d.d.d.d.d.d.d.A.A.d.B.G.d.d.d.D.A.d.d.d.d.d.d.G.B.d.d.h.G.G.G.G.G.G.G.G.G.G.G.",
"G.G.G.G.G.G.G.G.G.G.G.S.b.f.g.n.n.b.d.d.d.d.d.d.v.b.d.d.d.d.d.d.v.v.d.x.n.n.n.n.n.n.n.h.f.n.x.d.n.n.n.n.N.G.G.G.G.G.G.G.G.G.G.G.",
"G.G.G.G.G.G.G.G.G.G.G.G.G.g.k.G.G.D.d.d.d.d.d.d.C.D.d.d.d.d.d.d.d.d.d.d.d.G.G.F.h.k.G.k.h.G.b.d.d.v.G.G.G.G.G.G.G.G.G.G.G.G.G.G.",
"G.G.G.G.G.G.G.G.b.d.G.G.G.G.G.G.v.d.d.n.G.g.d.d.d.d.d.d.d.G.B.d.A.A.d.B.G.G.n.d.D.A.d.A.D.d.n.G.G.B.d.A.G.G.v.d.G.G.G.G.G.G.G.H.",
"G.G.G.G.G.G.G.G.V.n.G.G.G.G.G.G.C.b.d.k.n.f.j.n.g.f.m.j.d.m.m.m.n.n.n.S.G.G.A.n.F.D.n.D.F.n.A.G.G.S.n.D.G.G.V.n.G.G.G.G.G.G.G.H.",
"G.G.G.G.G.G.G.G.G.G.G.G.G.G.G.G.G.D.d.d.d.d.v.G.x.g.G.c.d.d.c.G.x.j.G.G.G.G.G.G.G.G.G.G.G.G.G.G.G.G.G.G.G.G.G.G.G.G.G.G.G.G.G.G.",
"G.G.G.G.G.G.G.G.G.G.G.G.G.G.A.d.B.G.G.G.G.G.B.d.A.D.d.d.d.d.c.G.G.G.G.v.d.G.G.G.h.k.G.G.G.G.n.d.G.G.G.G.G.G.G.G.G.G.G.G.G.G.G.G.",
"G.G.G.G.G.G.G.G.G.G.G.G.G.G.D.n.S.G.G.G.G.N.n.n.D.F.n.n.m.m.C.G.G.G.G.C.n.G.G.G.N.B.G.G.G.G.A.n.G.G.G.G.G.G.G.G.G.G.G.G.G.G.G.G.",
"G.G.G.G.G.G.G.G.G.G.G.G.G.G.G.G.G.G.G.G.G.g.b.G.G.G.G.G.G.G.G.G.G.G.G.G.G.G.G.G.G.G.G.G.G.G.G.G.G.G.G.G.G.G.G.G.G.G.G.G.G.G.G.G.",
"H.H.G.G.G.G.G.G.G.G.G.B.d.D.G.G.G.G.G.G.G.G.G.G.G.G.G.c.d.G.G.G.G.G.G.G.G.G.G.G.G.G.G.G.G.G.G.G.G.G.G.G.G.G.G.G.G.G.G.G.G.G.G.G.",
"K.K.G.G.G.G.G.G.G.G.G.S.n.F.G.G.G.G.G.G.G.G.G.G.G.G.G.C.n.G.G.G.G.G.G.G.G.G.G.G.G.G.G.G.G.G.G.G.G.G.G.G.G.G.G.G.G.G.G.G.G.G.G.G."
};
