/* XPM */
static char *_850ab99f7fe4ec1cc50cb56e9c76bc6YLQ9JzM8xqRK30Wm[] = {
/* columns rows colors chars-per-pixel */
"64 64 163 2 ",
"   c #F36401",
".  c #F36503",
"X  c #F36603",
"o  c #F46400",
"O  c #F56B01",
"+  c #F56F00",
"@  c #F46C04",
"#  c #F47103",
"$  c #F67102",
"%  c #F57400",
"&  c #F47502",
"*  c #F67205",
"=  c #F67C02",
"-  c #F97F05",
";  c #F57716",
":  c #E67220",
">  c #E57322",
",  c #E77923",
"<  c #E77D20",
"1  c #F88700",
"2  c #FB8606",
"3  c #FB8B05",
"4  c #FB8907",
"5  c #FC8C07",
"6  c #F99200",
"7  c #F99401",
"8  c #FE9308",
"9  c #FF9A0A",
"0  c #FF9F08",
"q  c #FBA001",
"w  c #FFA407",
"e  c #FBAB01",
"r  c #FCAB00",
"t  c #FFAE05",
"y  c #FFAC06",
"u  c #FFAE07",
"i  c #FFA208",
"p  c #FEB700",
"a  c #FFB304",
"s  c #FAB800",
"d  c #FBB800",
"f  c #FFB902",
"g  c #FBBE00",
"h  c #FFB805",
"j  c #FFB806",
"k  c #F3B711",
"l  c #E08230",
"z  c #E18432",
"x  c #E38A33",
"c  c #E18C31",
"v  c #FABC36",
"b  c #FFC300",
"n  c #FFC501",
"m  c #FCC800",
"M  c #FFCA00",
"N  c #FFCC00",
"B  c #FFD100",
"V  c #FDD200",
"C  c #FFD600",
"Z  c #FDD900",
"A  c #FEDA00",
"S  c #FFDB01",
"D  c #FFE201",
"F  c #FFE500",
"G  c #FFEA00",
"H  c #FFE612",
"J  c #FFEB12",
"K  c #FFEC1B",
"L  c #FFED24",
"P  c #FFED2B",
"I  c #FFEB2D",
"U  c #FFEE2D",
"Y  c #FFEE36",
"T  c #D88140",
"R  c #D88142",
"E  c #D28E52",
"W  c #D39353",
"Q  c #D49A50",
"!  c #E88942",
"~  c #E19141",
"^  c #F79B42",
"/  c #FABF5A",
"(  c #CB8F60",
")  c #CA9062",
"_  c #FEDF4B",
"`  c #FCCB5D",
"'  c #FFF048",
"]  c #FFF04F",
"[  c #FFF155",
"{  c #FFF15A",
"}  c #FFF25D",
"|  c #FBC660",
" . c #FFE46B",
".. c #FFF264",
"X. c #FFF06B",
"o. c #FFF26B",
"O. c #FFF36C",
"+. c #FFF47C",
"@. c #FFF47E",
"#. c #BD9D80",
"$. c #BD9E81",
"%. c #B6A590",
"&. c #B6A591",
"*. c #AFACA0",
"=. c #AFACA1",
"-. c #B0ACA0",
";. c #A9B3B0",
":. c #ADB5B0",
">. c #A2BABF",
",. c #C7B6A0",
"<. c #D3BBA0",
"1. c #FCD381",
"2. c #FDDC8B",
"3. c #FEED8E",
"4. c #FFF481",
"5. c #FDE596",
"6. c #FEE596",
"7. c #FDE696",
"8. c #FFF690",
"9. c #FFF696",
"0. c #FFF697",
"q. c #FFF79D",
"w. c #FEEFA1",
"e. c #FFF7A0",
"r. c #FFF7A1",
"t. c #FFF7A4",
"y. c #FFF8A7",
"u. c #FFF7A9",
"i. c #FFF8AA",
"p. c #FFF8AB",
"a. c #A2BAC0",
"s. c #95C9DF",
"d. c #98CADF",
"f. c #8ECFEF",
"g. c #87D7FF",
"h. c #8BD9FF",
"j. c #8EDBFF",
"k. c #8FDBFF",
"l. c #92DCFF",
"z. c #97DEFF",
"x. c #9ADFFF",
"c. c #9BDFFF",
"v. c #9AE0FF",
"b. c #9EE1FF",
"n. c #9FE1FF",
"m. c #A2E3FF",
"M. c #A6E4FF",
"N. c #A6E5FF",
"B. c #ABE6FF",
"V. c #AAE7FF",
"C. c #AEE9FF",
"Z. c #B2EAFF",
"A. c #B2EBFF",
"S. c #B6EBFF",
"D. c #B6ECFF",
"F. c #BAEEFF",
"G. c #BEEFFF",
"H. c #C2F1FF",
"J. c #C6F3FF",
"K. c #C9F4FF",
"L. c #CDF4FF",
"P. c #D4F6FF",
"I. c #E1F9FF",
/* pixels */
"J.J.J.J.J.J.J.J.J.J.J.J.J.J.J.J.J.J.J.J.J.J.J.J.J.J.J.J.J.J.J.J.J.J.J.J.J.J.J.J.J.J.J.J.J.J.J.J.J.J.J.J.J.J.J.J.J.J.J.J.J.J.J.J.",
"J.J.J.J.J.J.J.J.J.J.J.J.J.J.J.J.J.J.J.J.J.J.J.J.J.J.J.J.J.J.J.J.J.J.J.J.J.J.J.J.J.J.J.J.J.J.J.J.J.J.J.J.J.J.J.J.J.J.J.J.J.J.J.J.",
"J.J.J.J.J.J.J.J.J.J.J.J.J.J.J.J.J.J.J.J.J.J.J.J.J.J.J.J.J.J.J.J.J.J.J.J.J.J.J.J.J.J.J.J.J.J.J.J.J.J.J.J.J.J.J.J.J.J.J.J.J.J.J.J.",
"J.J.J.J.J.J.J.J.J.J.J.J.J.z.n.J.J.J.J.J.J.J.Z.k.F.J.J.J.J.k.m.J.J.J.J.J.J.k.V.J.J.J.J.J.J.J.J.J.J.Z.k.F.J.J.J.J.J.J.J.J.J.J.J.J.",
"J.J.J.J.J.J.J.J.J.J.J.J.J.m.M.J.J.J.J.J.J.J.D.n.F.H.C.G.J.n.C.J.J.J.J.J.J.n.Z.J.Z.D.J.Z.C.C.F.J.J.D.n.F.J.J.J.J.J.J.J.J.J.J.J.J.",
"J.J.J.J.J.J.J.J.J.J.J.J.J.J.J.J.J.J.J.J.J.J.J.J.J.G.g.C.J.J.J.J.J.J.J.J.J.J.J.J.k.z.J.z.g.g.M.J.J.J.J.J.J.J.J.J.J.J.J.J.J.J.J.J.",
"J.J.J.J.J.J.J.J.J.J.J.Z.k.G.J.J.m.z.J.V.j.G.J.J.c.z.G.H.J.J.J.J.c.n.J.J.J.J.V.k.D.C.k.h.k.G.M.k.J.J.J.v.z.J.J.J.J.J.J.J.J.J.J.J.",
"J.J.J.J.J.J.J.J.J.J.J.D.n.C.C.C.M.n.C.v.g.V.C.C.M.n.C.G.J.C.S.J.V.M.J.D.C.C.M.c.C.M.g.g.h.C.c.g.C.C.C.M.n.V.G.J.C.D.J.J.J.J.J.J.",
"J.J.J.J.J.J.J.J.J.J.J.J.J.k.g.g.C.G.g.g.g.g.g.g.D.G.g.C.J.g.n.J.J.J.J.n.g.g.M.J.k.g.g.g.g.g.g.g.g.g.g.D.G.g.C.J.g.n.J.J.J.J.J.J.",
"J.J.J.J.J.m.v.J.J.J.z.M.J.D.D.D.M.l.g.g.g.C.M.g.l.l.g.l.z.g.j.z.F.F.z.M.D.g.k.z.g.g.g.g.g.g.n.D.g.g.g.l.c.S.H.J.D.G.J.J.J.J.J.J.",
"J.J.J.J.J.m.n.J.G.D.z.M.D.D.D.D.v.g.g.g.g.Z.m.g.g.g.g.g.g.z.l.g.V.C.z.V.S.g.g.g.g.g.g.g.g.g.n.D.g.g.g.l.n.S.G.J.D.F.J.J.J.J.J.J.",
"J.J.J.J.J.J.J.J.n.g.J.C.g.g.g.g.g.g.g.g.g.g.g.g.g.g.g.g.g.J.V.g.g.z.J.n.g.g.g.g.g.g.g.g.g.g.g.g.g.g.g.D.G.g.V.J.g.n.J.J.J.J.J.J.",
"J.J.z.M.J.J.H.z.M.D.z.k.g.C.V.g.g.g.g.g.g.g.g.g.g.g.g.g.g.z.j.g.g.h.z.h.g.g.g.g.g.g.g.g.g.g.g.g.g.z.D.n.l.g.l.z.D.C.z.G.F.z.Z.J.",
"J.J.z.V.J.F.C.g.M.S.g.h.z.D.V.g.g.g.g.g.g.g.g.g.g.g.g.g.g.g.g.g.g.g.g.g.g.g.g.g.g.g.g.g.g.g.g.g.g.v.D.l.g.g.k.z.D.M.z.H.F.z.S.J.",
"J.J.J.J.J.z.g.g.g.g.g.n.H.k.g.g.g.g.g.g.g.g.g.g.g.g.g.g.g.g.g.g.g.g.g.g.g.g.g.g.g.g.g.g.g.g.g.g.g.g.g.g.g.g.C.J.g.n.J.J.J.J.J.J.",
"J.J.J.J.J.F.Z.g.m.D.g.k.z.g.g.g.g.g.g.g.g.g.g.g.g.g.g.g.g.g.g.g.g.g.g.g.g.g.g.g.g.g.g.g.g.g.g.g.g.g.g.g.g.g.l.z.D.C.z.G.J.J.J.J.",
"J.J.J.H.D.H.G.g.M.S.g.g.g.g.g.g.g.g.g.g.g.g.g.g.g.g.g.g.g.g.g.g.g.g.g.g.g.g.g.g.g.g.g.g.g.g.g.g.g.g.g.g.g.g.k.z.S.m.g.G.J.J.J.J.",
"J.J.J.C.g.D.G.g.g.g.g.g.g.g.g.g.g.g.g.g.g.g.g.g.g.;.#.#.#.#.#.#.#.#.%.g.g.g.g.g.g.g.g.g.g.g.g.g.g.g.g.g.g.g.V.J.g.g.g.G.J.J.J.J.",
"J.J.J.G.D.n.l.g.g.g.g.g.g.g.g.g.g.g.g.g.g.g.g.g.g.( X       X X   X > g.g.g.g.g.g.g.g.g.g.g.g.g.g.g.g.g.g.g.l.z.g.z.D.J.J.J.J.J.",
"J.J.J.H.D.n.z.g.k.z.g.g.g.g.g.g.g.g.g.g.g.g.g.s.s.E # + # # & & # # < s.s.g.g.g.g.g.g.g.g.g.g.g.g.g.g.g.g.z.l.g.z.M.D.H.J.J.J.J.",
"J.J.J.C.g.D.G.g.C.J.g.g.g.g.g.g.g.g.g.g.g.g.g.> X i n b b n F G C b p   X a.g.g.g.g.g.g.g.g.g.g.g.g.g.g.l.J.n.g.J.C.g.G.J.J.J.J.",
"C.z.J.C.g.l.z.D.M.z.g.g.g.g.g.g.g.g.g.g.g.g.g.>   q b b b n F G C n p X X a.g.g.g.g.g.g.g.g.g.g.g.g.g.g.h.z.M.S.z.n.S.J.F.z.Z.J.",
"V.z.J.Z.z.z.n.J.n.g.z.l.g.g.g.g.g.g.g.g.g.g.g.>   q n M A D G G F A V X X a.g.a.R R T T ;.g.g.g.g.h.z.g.g.z.V.S.g.n.J.J.F.z.S.J.",
"J.J.J.J.J.J.J.J.n.g.J.C.g.g.g.g.g.g.g.g.g.g.g.>   0 n N G G G G G G A X   a.g.*.X X     *.g.g.g.g.n.J.z.k.J.n.g.g.n.J.J.J.J.J.J.",
"J.J.J.S.z.F.H.z.g.g.z.k.g.g.g.g.g.g.g.g.g.g.g.: o e C A G G ' ' ] [ _     ( #.Q 7 7 7 7 Q #.*.g.g.l.c.g.h.z.M.D.D.C.z.F.J.J.J.J.",
"J.J.J.Z.z.F.G.z.z.z.g.g.g.g.g.g.g.g.g.g.g.g.g.> o d G G G G +.8.q.u.7.  X X X 1 b b b b 1   T g.g.g.g.g.g.z.C.D.D.M.z.H.J.J.J.J.",
"J.J.J.J.J.J.J.J.J.J.g.g.g.g.g.g.g.g.g.g.f.s.s.< + g G G G G 4.8.r.p.7.; ; $ + 6 n M M M 7 # l s.s.g.g.g.k.J.n.g.g.n.J.J.J.J.J.J.",
"C.z.J.J.J.J.J.J.V.z.g.g.g.g.g.g.g.g.g.g.>.o o p b A G G G G 9.i.i.p.p.p.i.U G G G G G G G G M     s.g.g.h.z.g.g.D.G.J.n.m.J.V.v.",
"C.z.J.J.J.F.S.J.c.g.z.z.z.g.g.g.g.g.g.g.>.    p b A G G G G 9.i.p.p.p.p.i.U G G G G G G G G n o   s.z.g.g.g.k.z.J.J.J.v.m.J.M.n.",
"J.J.J.J.J.z.k.J.n.g.J.J.J.k.g.g.g.g.%.T z 5 5 C A G G K O.O.i.i.p.p.p.p.i.+.O.O.O.O.G G G G A e e ~ ! :.g.g.C.J.J.J.J.J.J.J.J.J.",
"J.J.J.J.J.F.F.J.F.S.z.c.z.g.g.g.g.g.(   $ 9 9 D G G G L 8.8.i.i.p.p.p.p.i.9.8.8.8.8.G G G G D n n #   -.h.D.M.z.z.M.J.J.J.J.J.J.",
"J.J.J.J.J.J.J.J.H.G.k.g.g.g.g.g.#.#.x - 3 t t D G U ' } q.q.i.i.p.p.p.p.p.r.q.q.q.q.' ' K G A b b $ X -.k.G.n.k.g.n.J.J.H.G.H.J.",
"J.J.J.J.J.J.J.J.n.g.J.V.g.g.g.g.o   2 9 w b n F G { 8.0.p.p.p.p.p.p.p.p.p.p.p.p.p.p.8.8.Y G D b b $ X -.g.g.C.J.h.c.J.J.S.g.C.J.",
"J.J.J.J.J.J.J.J.S.C.n.z.g.f.s.s.O O 4 9 w M n H J ..8.3.5.7.p.p.p.p.p.7.7.p.p.p.p.p.+.4.I F A g g #   ,.V.g.c.c.C.S.J.J.H.C.G.J.",
"J.J.J.J.J.J.J.G.H.J.g.g.g.=.X X 9 9 9 9 t G G @.8.r.p.1.. . 7.p.p.p.7.X X 1.p.p.p.p.G G V b h 9 9 @ X <.S.g.g.g.G.H.J.G.H.J.J.J.",
"J.J.J.J.J.J.G.g.C.J.g.g.g.=.X X 9 9 9 0 u G G 4.8.r.p.1.. . 7.p.p.p.7.X X 1.p.p.p.p.G G V b f 9 9 @ X =.g.g.g.g.h.c.J.l.z.J.J.J.",
"J.J.J.D.n.G.H.C.M.n.C.n.g.=.  X 9 9 y j n G G @.8.r.u.1.X . 5.p.p.p.7.. X 1.p.t.0.0.G G g i i 9 9 @   *.g.g.g.g.C.S.J.Z.Z.J.J.J.",
"J.J.J.Z.k.D.J.J.n.g.G.V.g.=.X   9 9 a b M G G @.8.r.p.1.X X 7.p.p.p.7.. X 1.p.r.8.8.G G h 9 9 9 9 @ . =.g.g.g.l.G.H.J.G.H.J.H.G.",
"J.J.J.J.J.J.J.J.n.g.g.g.g.=.X X 9 9 a b M G G @.8.r.p.7.^ ^ w.p.p.p.w.^ ^ 2.p.r.8.8.G G h 9 9 9 9 @ X *.g.g.V.J.g.n.J.k.z.J.c.l.",
"J.J.J.J.J.M.n.n.M.C.g.g.g.=.    9 9 a b M G G @.8.r.p.p.p.p.p.p.p.p.p.p.p.p.p.r.8.8.G G h 9 9 9 9 @ X *.h.C.V.n.C.M.n.C.C.J.S.Z.",
"J.J.J.J.J.n.k.g.M.G.g.g.g.;.> > 8 8 t g n F F O.@.0.t.u.u.p.p.p.p.p.p.p.p.u.t.0.@.@.D F h 0 9 8 8 , > ;.k.G.v.g.G.C.j.D.H.J.J.J.",
"J.J.J.J.J.J.G.g.g.g.g.g.g.g.g.g.o o 2 9 w n n D G { 8.0.p.p.p.p.p.p.p.p.p.0.8.{ G G b b b b e     s.g.g.g.g.g.g.g.n.J.j.z.J.J.J.",
"J.J.J.J.J.M.n.C.z.g.g.g.g.g.g.g.o o 2 9 i b b F G { 8.0.p.p.p.p.p.p.p.p.p.0.8.{ G G b b b b e     s.g.g.g.g.n.C.g.n.J.Z.A.J.J.J.",
"J.J.J.J.J.n.z.G.c.g.g.g.g.g.g.g.>.>.W # % = = A G { 8.0.p.p.p.p.p.p.p.p.p.0.8.{ G G = = = = c a.>.g.g.g.g.g.V.G.k.n.G.J.J.J.J.J.",
"J.J.J.J.J.J.G.g.g.g.g.g.g.g.g.g.g.g.(     X X A G { 8.0.i.i.i.i.p.p.u.i.p.0.8.{ G G   X X X T g.g.g.g.g.g.g.g.g.J.C.g.G.J.J.J.J.",
"J.J.n.C.J.J.H.C.z.g.C.n.g.g.g.g.g.g.=.( ) ) ) k d v / `  . .X.X.X.X.X. . .| / v d d ( ( ) ( #.g.g.z.C.k.h.C.z.g.n.M.C.H.F.n.D.J.",
"J.J.k.m.J.J.J.G.n.k.G.V.g.g.g.g.g.g.g.g.g.g.h.> X X   = n n F G G G D b b =   X   X g.g.g.g.g.g.g.c.G.n.z.G.n.j.g.n.J.J.F.j.Z.J.",
"J.J.J.J.J.J.G.g.C.J.g.g.g.g.g.g.g.g.g.g.g.g.g.> X X X = b b F G G G F n b - X X X X g.g.g.g.g.g.g.g.g.S.G.g.V.J.g.n.J.J.J.J.J.J.",
"J.J.J.J.J.M.n.V.M.n.g.g.g.V.m.g.g.g.g.g.g.g.g.g.g.g.g.g.g.g.g.g.g.g.g.g.g.g.g.g.g.g.g.g.h.C.v.g.g.g.g.z.c.g.z.n.C.M.n.H.J.J.J.J.",
"J.J.G.H.J.n.z.J.n.g.j.j.g.D.Z.g.g.g.g.g.g.g.g.g.g.g.g.g.g.g.g.g.g.g.g.g.g.j.h.g.g.g.g.g.j.G.m.g.k.h.g.g.g.k.k.h.J.Z.k.G.J.J.J.J.",
"J.J.g.n.J.J.J.J.v.g.J.C.g.g.g.g.g.g.g.g.g.g.g.g.g.g.g.g.g.g.g.g.g.g.g.g.g.J.M.g.g.g.g.g.g.g.g.g.J.C.g.g.k.J.J.J.J.J.J.J.J.J.J.J.",
"J.J.C.D.J.J.J.J.D.C.n.M.C.h.l.C.v.g.g.g.g.V.n.g.g.g.g.g.g.g.g.g.g.g.g.g.g.n.l.g.g.g.g.M.V.g.g.g.n.z.g.M.C.n.D.J.n.C.J.J.J.J.J.J.",
"J.J.J.J.J.J.J.J.J.J.j.n.G.j.l.G.v.g.g.g.g.D.V.g.g.g.g.g.g.g.g.g.j.h.g.h.j.g.g.g.j.h.g.C.D.g.g.g.k.h.g.C.D.k.Z.J.k.m.J.J.J.J.J.J.",
"J.J.J.J.J.J.J.J.J.J.H.C.g.g.g.g.g.g.g.g.g.g.g.g.g.g.g.g.g.g.g.g.D.D.g.C.J.g.g.g.G.D.g.g.g.g.g.g.J.C.g.g.k.J.J.J.H.J.J.J.J.J.J.J.",
"J.J.J.J.J.J.J.J.J.J.J.F.M.h.j.M.M.m.g.g.g.g.g.g.n.m.g.g.g.g.g.g.n.n.g.v.M.M.M.M.M.M.M.j.h.M.v.g.M.M.M.M.V.J.J.J.J.J.J.J.J.J.J.J.",
"J.J.J.J.J.J.J.J.J.J.J.J.J.j.c.J.J.G.g.g.g.g.g.g.D.G.g.g.g.g.g.g.g.g.g.g.g.J.J.J.j.z.J.v.j.J.m.g.g.n.J.J.J.J.J.J.J.J.J.J.J.J.J.J.",
"J.J.J.J.J.J.J.J.n.g.J.J.J.J.J.J.n.g.g.M.J.j.g.g.g.g.g.h.g.J.C.g.D.D.g.C.J.J.M.g.G.D.g.D.G.g.M.J.J.C.g.D.J.J.n.g.J.J.J.J.J.J.J.L.",
"J.J.J.J.J.J.J.J.Z.M.J.J.J.J.J.J.A.m.g.z.M.h.l.M.j.h.M.l.g.N.N.N.M.M.M.F.J.J.D.M.H.G.M.G.H.M.D.J.J.F.M.G.J.J.Z.M.J.J.J.J.J.J.J.K.",
"J.J.J.J.J.J.J.J.J.J.J.J.J.J.J.J.J.G.g.g.g.g.n.J.v.j.J.b.g.g.b.J.v.l.J.J.J.J.J.J.J.J.J.J.J.J.J.J.J.J.J.J.J.J.J.J.J.J.J.J.J.J.J.J.",
"J.J.J.J.J.J.J.J.J.J.J.J.J.J.D.g.C.J.J.J.J.J.C.g.D.F.g.g.g.g.b.J.J.J.J.n.g.J.J.J.j.z.J.J.J.J.M.g.J.J.J.J.J.J.J.J.J.J.J.J.J.J.J.J.",
"J.J.J.J.J.J.J.J.J.J.J.J.J.J.G.M.F.J.J.J.J.V.M.M.G.H.M.M.N.N.A.J.J.J.J.A.M.J.J.J.V.C.J.J.J.J.D.M.J.J.J.J.J.J.J.J.J.J.J.J.J.J.J.J.",
"J.J.J.J.J.J.J.J.J.J.J.J.J.J.J.J.J.J.J.J.J.j.m.J.J.J.J.J.J.J.J.J.J.J.J.J.J.J.J.J.J.J.J.J.J.J.J.J.J.J.J.J.J.J.J.J.J.J.J.J.J.J.J.J.",
"J.J.J.J.J.J.J.J.J.J.J.C.g.G.J.J.J.J.J.J.J.J.J.J.J.J.J.b.g.J.J.J.J.J.J.J.J.J.J.J.J.J.J.J.J.J.J.J.J.J.J.J.J.J.J.J.J.J.J.J.J.J.J.J.",
"P.I.J.J.J.J.J.J.J.J.J.F.M.H.J.J.J.J.J.J.J.J.J.J.J.J.J.A.M.J.J.J.J.J.J.J.J.J.J.J.J.J.J.J.J.J.J.J.J.J.J.J.J.J.J.J.J.J.J.J.J.J.J.J."
};
