/* XPM */
static char *a17053fd4dfc4377e566856f42b0d711nwgkCHBBblxVbzqs[] = {
/* columns rows colors chars-per-pixel */
"64 64 107 2 ",
"   c #B3631F",
".  c #B26C1F",
"X  c #B36C1F",
"o  c #BE7C1C",
"O  c #A85C21",
"+  c #B26E2A",
"@  c #A36C3D",
"#  c #B27035",
"$  c #C86F1A",
"%  c #DE7C16",
"&  c #CE7E24",
"*  c #C17429",
"=  c #9F7B58",
"-  c #BE823D",
";  c #C88C1A",
":  c #CE8F19",
">  c #DF8515",
",  c #FF8F0F",
"<  c #FF930F",
"1  c #FF990F",
"2  c #FF9D0F",
"3  c #F48811",
"4  c #DEAC16",
"5  c #DEAD16",
"6  c #FFA30F",
"7  c #FFAC0F",
"8  c #F4A511",
"9  c #E9BC13",
"0  c #E9BD13",
"q  c #C88E25",
"w  c #C89030",
"e  c #C99130",
"r  c #FFC00F",
"t  c #FFC90F",
"y  c #FFD30F",
"u  c #FFDD0F",
"i  c #F4CC11",
"p  c #FFE125",
"a  c #FFE430",
"s  c #FFE53B",
"d  c #BE8548",
"f  c #BD9B45",
"g  c #B58754",
"h  c #9B8A74",
"j  c #9C8A74",
"k  c #A38665",
"l  c #A38A65",
"z  c #A69A72",
"x  c #C8995C",
"c  c #C9995C",
"v  c #DEB957",
"b  c #C0AA7D",
"n  c #FFEA51",
"m  c #FFD57D",
"M  c #F4E075",
"N  c #FFF27D",
"B  c #FFF37D",
"V  c #52A0C7",
"C  c #979A90",
"Z  c #93A9AB",
"A  c #93A8AC",
"S  c #93A9AC",
"D  c #9BACAC",
"F  c #9FAEAC",
"G  c #91B0B9",
"H  c #B4BCA5",
"J  c #F4EBAB",
"K  c #FFFBA9",
"L  c #FFFDB4",
"P  c #FFFFBF",
"I  c #8FB8C7",
"U  c #8FB9C7",
"Y  c #8FB8C8",
"T  c #8BC7E3",
"R  c #8BC8E3",
"E  c #97CCE3",
"W  c #89D0F1",
"Q  c #87D7FF",
"!  c #8BD9FF",
"~  c #8FDBFF",
"^  c #92DCFF",
"/  c #97DEFF",
"(  c #9BDFFF",
")  c #AED7E3",
"_  c #9BE0FF",
"`  c #9FE1FF",
"'  c #9EE2FF",
"]  c #A2E3FF",
"[  c #A3E3FF",
"{  c #A2E4FF",
"}  c #A6E5FF",
"|  c #A6E6FF",
" . c #AAE7FF",
".. c #AEE9FF",
"X. c #B2EAFF",
"o. c #B2EBFF",
"O. c #B6ECFF",
"+. c #BAEDFF",
"@. c #BAEEFF",
"#. c #BEEFFF",
"$. c #C4E9F1",
"%. c #C2F1FF",
"&. c #C2F2FF",
"*. c #C6F3FF",
"=. c #C9F4FF",
"-. c #D4F6FF",
";. c #E1F9FF",
/* pixels */
"*.*.*.*.*.*.*.*.*.*.*.*.*.*.*.*.*.*.*.*.*.*.*.*.*.*.*.*.*.*.*.*.*.*.*.*.*.*.*.*.*.*.*.*.*.*.*.*.*.*.*.*.*.*.*.*.*.*.*.*.*.*.*.*.",
"*.*.*.*.*.*.*.*.*.*.*.*.*.*.*.*.*.*.*.*.*.*.*.*.*.*.*.*.*.*.*.*.*.*.*.*.*.*.*.*.*.*.*.*.*.*.*.*.*.*.*.*.*.*.*.*.*.*.*.*.*.*.*.*.",
"*.*.*.*.*.*.*.*.*.*.*.*.*.*.*.*.*.*.*.*.*.*.*.*.*.*.*.*.*.*.*.*.*.*.*.*.*.*.*.*.*.*.*.*.*.*.*.*.*.*.*.*.*.*.*.*.*.*.*.*.*.*.*.*.",
"*.*.*.*.*.*.*.*.*.*.*.*.*./ ` *.*.*.*.*.*.*.X.~ +.*.*.*.*.~ { *.*.*.*.*.*.~  .*.*.*.*.*.*.*.*.*.*.X.~ +.*.*.*.*.*.*.*.*.*.*.*.*.",
"*.*.*.*.*.*.*.*.*.*.*.*.*.] } *.*.*.*.*.*.*.O.` +.&...#.*.` ..*.*.*.*.*.*.` X.*.X.O.*.X.....+.*.*.O.` +.*.*.*.*.*.*.*.*.*.*.*.*.",
"*.*.*.*.*.*.*.*.*.*.*.*.*.*.*.*.*.&.*.*.*.*.*.*.*.#.Q ..*.*.*.*.*.*.*.*.*.*.*.*.~ / *./ Q Q } *.*.*.*.*.*.*.*.*.*.*.*.*.*.*.*.*.",
"*.*.*.*.*.*.*.*.*.*.*.X.~ #.*.*.{ _ *. .~ #.*.*._ / #.&.*.*.*.*._ ` *.*.*.*. .~ X.X.~ ! ~ #.} ~ *.*.*._ / *.*.*.*.*.*.*.*.*.*.*.",
"*.*.*.*.*.*.*.*.*.*.*.O.` ......} ` .._ Q  .....} ` ..#.*...O.*. .} *.O.....{ ` ..} Q Q ! ..` Q ......} ` ..#.*...O.*.*.*.*.*.*.",
"*.*.*.*.*.*.*.*.*.*.*.*.*.~ Q Q ..#.Q Q Q Q Q Q O.#.Q ..*.Q ` &.*.*.*.` Q Q  .*.~ Q Q Q Q Q Q Q Q Q Q O.#.Q ..*.Q ` *.*.*.*.*.*.",
"*.*.*.*.*.] _ *.*.*./ } *.O.O.O.{ ^ Q Q Q ..} Q ^ ^ Q ^ _ Q ~ ( +.+._ } X.Q ^ / Q Q Q Q Q Q ` X.Q Q Q ^ / O.&.*.O.#.*.*.*.*.*.*.",
"*.*.*.*.*.] ` *.#.O./ } O.O.O.O._ Q Q Q Q X.{ Q Q Q Q Q Q / ^ Q  . .^ ..X.Q Q Q Q Q Q Q Q Q ] X.Q Q Q ^ ` O.#.*.O.+.*.*.*.*.*.*.",
"*.*.*.*.*.*.*.*.` Q *...Q Q Q Q Q Q Q Q Q Q Q Q Q Q Q Q Q $.) T R E $.` Q Q Q Q Q Q Q Q Q Q Q Q Q Q Q O.#.Q ..*.Q ` *.*.*.*.*.*.",
"*.*./ } *.*.&./ } O./ ~ Q .. .Q Q Q Q Q Q Q Q Q Q Q Q Q Q D O O O O D Q Q Q Q Q Q Q Q Q Q Q Q Q Q _ o.` ^ ! ^ ^ O.../ #.+.^ o.*.",
"*.*./  .*.+...Q } O.Q ! / O. .Q Q Q Q Q Q Q Q Q Q Q Q Q Q S O O O O A Q Q Q Q Q Q Q Q Q Q Q Q Q Q _ O.^ Q Q ~ _ O.{ / &.+._ O.*.",
"*.*.&.*.*./ Q Q Q Q Q ` *.~ Q Q Q Q Q Q Q Q Q Q Q Q Q Q Q S O O i 9 f = C Q Q Q Q Q Q Q Q Q Q Q Q Q Q Q Q Q ..&.Q ` &.*.*.*.*.*.",
"*.*.*.*.*.+.X.Q { O.Q ~ / Q Q Q Q Q Q Q Q Q Q Q Q Q Q Q Q S O O u u ; O h Q Q Q Q Q Q Q Q Q Q Q Q Q Q Q Q Q ^ _ O..._ #.*.*.*.*.",
"*.*.*.&.O.&.#.Q } o.Q Q Q Q Q Q Q Q Q Q Q Q Q Q Q Q Q Q Q S O O s s w O h Q Q Q Q Q Q Q Q Q Q Q Q Q Q Q Q Q ~ _ o.{ Q #.*.*.*.*.",
"*.*.*...Q O.#.Q Q Q Q Q Q Q Q Q Q Q Q Q Q Q Q Q Q Q Q Q Q S O O P P x O h Q Q Q Q Q Q Q Q Q Q Q Q Q Q Q Q Q | *.Q Q Q #.*.*.*.*.",
"*.*.*.#.O.` ^ Q Q Q Q Q Q Q Q Q Q Q Q Q Q Q Q Q Q Q Q Q Q S O O P P x O j Q Q Q Q Q Q Q Q Q Q Q Q Q Q Q Q Q ^ _ Q / O.*.*.*.*.*.",
"*.*.*.&.O.` / Q ~ _ Q Q Q Q Q Q Q Q Q Q Q Q Q Q Q Q Q h @ * 3 3 p p q O j Q Q Q Q Q Q Q Q Q Q Q Q Q Q Q Q _ ~ Q / } O.&.*.*.*.*.",
"*.*.*...Q O.#.Q  .*.Q Q Q Q Q Q Q Q Q Q Q Q Q Q Q Q Q h O $ , , u u ; O h Q Q Q Q Q Q Q Q Q Q Q Q Q Q Q ~ *.` Q *...Q #.*.&.*.*.",
"../ *...Q ^ / O.{ _ Q Q Q Q Q Q Q Q Q Q Q Q Q Q Q Z Z g $ > 7 7 n n v x b H H Q Q Q Q Q Q Q Q Q Q Q Q Q ! / } O._ ` O.*.+._ o.*.",
"../ *.X./ / ` *.` Q / ^ Q Q Q Q Q Q Q Q Q Q Q Q Q O O % , 7 u u P P P P m , , Q Q Q Q Q Q Q Q Q Q ! / ! Q / ..o.Q ` *.*.O./ O.*.",
"*.&.*.*.*.*.*.*.` Q *...Q Q Q Q Q Q Q Q Q Q Q Q Q O O % , 7 u u P P P P m , , Q Q Q Q Q Q Q Q Q Q ` *./ ~ *.` Q Q ` *.*.*.*.*.*.",
"*.*.*.O.^ +.&./ ! Q / ~ Q Q Q Q Q Q O O O O O O O < , , , 7 u u P P P P P P P O O A Q Q Q Q Q Q Q ~ / ! ! / } O.o.../ #.*.*.*.*.",
"*.*.*.X._ +.#._ / / Q Q Q Q Q Q Q Q O O   + O O O < , , , 7 u u P P P P P P P O O S Q Q Q Q Q Q Q Q Q Q Q / ..O.O.} / &.*.*.*.*.",
"*.*.*.*.*.*.*.*.*.&.Q Q Q Q Q Y h h 5 5 v b v 5 4 , , , , 7 u u P P P P P P P % % g h h h h h h U Q Q Q ~ &.` Q Q ` *.*.*.*.*.*.",
"../ *.*.*.*.*.*. ./ Q Q Q Q Q S O O u u B P B u u , , , , 7 u u P P P P P P P , , $ O O O O O O S Q Q Q ! / ! Q O.#.*.` { *. ._ ",
"../ *.*.*.+.O.*.` Q _ / / ! Q S O O i i m J M i i 1 1 < , 7 u u K K L P P P P 1 < & # + . . O O S ! / ! Q Q ~ / *.*.*._ { *.} ` ",
"*.*.*.*.&._ ~ *._ Q *.&.&.~ Q S O O O O O O O O O u u 7 , 7 u u u u N P P P P u u N P N u u O O S ` *./ Q Q ..*.*.*.*.*.*.*.*.*.",
"*.*.*.*.*.+.+.*.+.O._ / / Q Q S O O O O O O O O O u u 7 , 7 u u u u N P P P P u u N P N u u O O S ~ / ! ! O.} / / } *.*.*.*.*.*.",
"*.*.*.*.*.*.*.*.&.#.~ ! Q Q Q R U U U U U U C O O u u 7 , 1 6 6 u u a s s s s o ; - d # o o U U W Q Q Q ~ #.` ~ Q ` *.*.&.#.&.*.",
"*.*.*.*.*.*.*.*.` Q *...Q Q Q Q Q Q Q Q Q Q S O O u u 7 , , , , u u u u u u u O O O O O O O Q Q Q Q Q Q Q Q X.*.Q ` *.*.X.Q ..*.",
"*.*.*.*.*.*.*.*.O...` / Q Q Q Q Q Q Q Q Q Q G = = 9 9 8 6 2 , , t t t t t 9 9 = = = = = = = Q Q Q Q Q ]  .Q / ` X.X.*.*.*...#.*.",
"*.*.*.*.*.*.*.#.&.*.Q Q Q Q Q Q Q Q Q Q Q Q Q Q Q O O 5 u r , , , , , , % O O Q Q Q Q Q Q Q Q Q Q Q Q ..O.Q Q Q #.&.*.#.&.*.*.*.",
"*.*.*.*.*.*.#.Q ..*.Q Q Q Q Q Q Q Q Q Q Q Q Q Q Q O O 5 u r , , , , , , % O O Q Q Q Q Q Q Q Q Q Q Q Q Q Q Q Q Q Q ` *.~ / *.*.*.",
"*.*.*.O.` #.&...} ` ..` Q Q Q Q Q Q Q Q Q Q Q Q Q T T l X : y y         k T T Q Q Q Q Q Q Q Q Q Q Q Q Q Q Q Q Q X.X.*.X.X.*.*.*.",
"*.*.*.X.~ O.*.*.` Q #. .Q Q Q Q Q Q Q Q Q Q Q Q Q Q Q h O ; u u O O O O h Q Q Q Q Q Q Q Q Q Q Q Q ~ ~ Q Q Q Q ~ #.&.*.#.&.*.&.#.",
"*.*.*.*.*.*.*.*.` Q Q Q Q Q Q Q Q Q Q Q Q Q Q Q Q Q Q h O e n n O O = h S Q Q Q Q Q Q Q Q Q Q Q Q ( *./ Q Q ..*.Q ` *.~ ( *.` ~ ",
"*.*.*.*.*.} ` ` } ..Q Q Q Q Q Q Q Q Q Q Q Q Q Q Q Q Q h O x P P O O S Q Q Q Q Q Q Q Q Q Q Q Q Q Q ~ ] ~ Q ..} ] ..} ` ..X.*.X.X.",
"*.*.*.*.*.` ~ Q } #.Q Q Q Q Q Q Q Q Q Q Q Q Q Q Q Q Q h O x P P O O A Q Q Q Q Q Q Q Q Q Q Q Q Q Q Q Q Q ~ #._ Q #...~ O.&.*.*.*.",
"*.*.*.*.*.*.#.Q Q Q Q Q Q Q Q Q Q Q Q Q Q Q Q Q Q Q Q h O ; u u O O A Q Q Q Q Q Q Q Q Q Q Q Q Q Q Q Q Q Q Q Q Q Q ` *.~ / *.*.*.",
"*.*.*.*.*.} ` .._ Q Q Q Q Q Q Q Q Q Q Q Q Q Q Q Q Q Q h O ; u u O O A Q Q Q Q Q Q Q Q Q Q Q Q Q Q Q Q Q Q Q ` ..Q ` *.X.X.*.*.*.",
"*.*.*.*.*._ _ #._ Q Q Q Q Q Q Q Q Q Q Q Q Q Q Q Q Q Q U S z ; ; O O A Q Q Q Q Q Q Q Q Q Q Q Q Q Q Q Q Q Q Q  .+.~ ` #.*.*.*.*.*.",
"*.*.*.*.*.*.#.Q Q Q Q Q Q Q Q Q Q Q Q Q Q Q Q Q Q Q Q Q Q Z O O O O A Q Q Q Q Q Q Q Q Q Q Q Q Q Q Q Q Q Q Q Q Q *...Q #.*.*.*.*.",
"*.*.` ..*.*.&.../ Q ..` Q Q Q Q Q Q Q Q Q Q Q Q Q Q Q Q Q G @ @ @ @ G Q Q Q Q Q Q Q Q Q Q Q Q Q Q / ..~ ! .._ Q ` } ..&.+.` O.*.",
"*.*.~ { *.*.*.#.` ~ #. .Q Q Q Q Q Q Q Q Q Q Q Q Q Q Q Q Q Q Q Q Q Q Q Q Q Q Q Q Q Q Q Q Q Q Q Q Q _ #.` _ +.` ~ Q ` *.*.+.~ X.*.",
"*.*.*.*.*.*.#.Q ..*.Q Q Q Q Q Q Q Q Q Q Q Q Q Q Q Q Q Q Q Q Q Q Q Q Q Q Q Q Q Q Q Q Q Q Q Q Q Q Q Q Q O.#.Q  .*.Q ` *.*.*.*.*.*.",
"*.*.*.*.*.} ` ..} ` Q Q Q  .{ Q Q Q Q Q Q V V V V V V V V V V V V V V V V V V V V V V Q ! .._ Q Q Q Q _ _ Q / ` ..} ` &.*.*.*.*.",
"*.*.#.&.&.` / *.` Q ~ ! Q O.X.Q Q Q Q Q Q V V V V V V V V V V V V V V V V V V V V V V Q ~ #.{ Q ~ ! Q Q Q ~ ~ ~ *.X.~ #.*.*.*.*.",
"*.*.Q ` *.*.*.*.` Q *...Q Q Q Q Q Q V V V V V V V V V V V V V V V V V V V V V V V V V V V V Q Q *...Q Q ~ *.*.*.*.*.*.*.*.*.*.*.",
"*.*...O.*.*.*.*.O...` } ..! ^ .._ Q V V V V V V V V V V V V V V V V V V V V V V V V V V V V Q Q ` / Q { ..` O.*.` ..*.*.*.*.*.*.",
"*.*.*.*.*.*.*.*.*.*.~ ` #.~ ^ #._ Q V V V V V V V V V V V V V V V V V V V V V V V V V V V V Q Q ~ ! Q ..O.~ o.*.~ { *.*.*.*.*.*.",
"*.*.*.*.*.*.*.*.*.*.*...Q Q Q Q Q Q Q Q Q V V V V V V V V V V V V V V V V V V V V V V Q Q Q Q Q *...Q Q ~ *.*.*.*.*.*.*.*.*.*.*.",
"*.*.*.*.*.*.*.*.*.*.*.+.{ ! ~ } } { Q Q Q V V V V V V V V V V V V V V V V V V V V V V ~ ! } / Q } } } }  .*.*.*.*.*.*.*.*.*.*.*.",
"*.*.*.*.*.*.*.*.*.*.*.*.*.~ _ *.*.#.Q Q Q V V V V V V V V V V V V V V V V V V V V V V / ~ *.} Q Q ` *.*.*.*.*.*.*.*.*.*.*.*.*.*.",
"*.*.*.*.*.*.*.*.` Q *.*.*.*.*.*.` Q Q { *.~ Q Q Q Q Q Q Q *...Q O.O.Q ..*.*.} Q #.O.Q O.#.Q } *.*...Q O.*.*.` Q *.*.*.*.*.*.*.=.",
"*.*.*.*.*.*.*.*.o.} *.*.*.*.*.*.o.{ Q _ } ! ^ } ~ ! } ^ Q } } } } } } +.*.*.O.} &.#.} #.&.} O.*.*.+.} #.*.*.X.} *.*.*.*.*.*.*.=.",
"*.*.*.*.*.*.*.*.*.*.*.*.*.*.*.*.*.#.Q Q Q Q ` *._ ! *.` Q Q ` *./ / *.*.*.*.*.*.*.*.*.*.*.*.*.*.*.*.*.*.*.*.*.*.*.*.*.*.*.*.*.*.",
"*.*.*.*.*.*.*.*.*.*.*.*.*.*.O.Q ..*.*.*.*.*...Q O.#.Q Q Q Q ` *.*.*.*.` Q *.*.*.! _ *.*.*.*.} Q *.*.*.*.*.*.*.*.*.*.*.*.*.*.*.*.",
"*.*.*.*.*.*.*.*.*.*.*.*.*.*.#.} +.*.*.*.*. .} } #.&.} } } } o.*.*.*.*.o.} *.*.*. ...*.*.*.*.O.} *.*.*.*.*.*.*.*.*.*.*.*.*.*.*.*.",
"*.*.*.*.*.*.*.*.*.*.*.*.*.*.*.*.*.*.*.*.*.~ ` *.*.*.*.*.*.*.*.*.*.*.*.*.*.*.*.*.*.*.*.*.*.*.*.*.*.*.*.*.*.*.*.*.*.*.*.*.*.*.*.*.",
"=.=.*.*.*.*.*.*.*.*.*...Q #.*.*.*.*.*.*.*.*.*.*.*.*.*.` Q *.*.*.*.*.*.*.*.*.*.*.*.*.*.*.*.*.*.*.*.*.*.*.*.*.*.*.*.*.*.*.*.*.*.*.",
"-.-.*.*.*.*.*.*.*.*.*.+.} &.*.*.*.*.*.*.*.*.*.*.*.*.*...} *.*.*.*.*.*.*.*.*.*.*.*.*.*.*.*.*.*.*.*.*.*.*.*.*.*.*.*.*.*.*.*.*.*.*."
};
