/* XPM */
static char *cf28faf414004d6f9d45b7f73df8fe46Dl5ovIqOIk1WEYNt[] = {
/* columns rows colors chars-per-pixel */
"64 64 113 2 ",
"   c #363533",
".  c #3D3B38",
"X  c #434340",
"o  c #464643",
"O  c #494643",
"+  c #494644",
"@  c #40494D",
"#  c #4B4E4D",
"$  c #51524D",
"%  c #56524E",
"&  c #57524E",
"*  c #565451",
"=  c #565854",
"-  c #585B57",
";  c #5D5B56",
":  c #5A5D5B",
">  c #635E5A",
",  c #5E6059",
"<  c #61635C",
"1  c #61635D",
"2  c #6A645F",
"3  c #4A5D66",
"4  c #576971",
"5  c #536B76",
"6  c #566F79",
"7  c #54727F",
"8  c #636661",
"9  c #6E6863",
"0  c #716C66",
"q  c #6D726F",
"w  c #747169",
"e  c #78756D",
"r  c #78786F",
"t  c #677779",
"y  c #797C73",
"u  c #7F7D75",
"i  c #7F7E75",
"p  c #547280",
"a  c #597B8C",
"s  c #5E8699",
"d  c #62808C",
"f  c #758C94",
"g  c #689AB2",
"h  c #699AB2",
"j  c #689AB3",
"k  c #749FB3",
"l  c #6EA4BF",
"z  c #52A0C7",
"x  c #7CABC3",
"c  c #73AECC",
"v  c #73AFCC",
"b  c #7DC3E5",
"n  c #7CC3E6",
"m  c #7DC3E6",
"M  c #878B80",
"N  c #8D8E84",
"B  c #878E88",
"V  c #888E88",
"C  c #888F89",
"Z  c #919488",
"A  c #94978B",
"S  c #949A8D",
"D  c #919A97",
"F  c #9BA092",
"G  c #A2A89A",
"H  c #A7AEA1",
"J  c #A5ABA7",
"K  c #A9B1A5",
"L  c #ABB3A8",
"P  c #ABB4A8",
"I  c #AAB4AD",
"U  c #B0B9AF",
"Y  c #B5C3BF",
"T  c #BAC5BD",
"R  c #B9C5BE",
"E  c #88C8E6",
"W  c #82CDF2",
"Q  c #87D7FF",
"!  c #8BD8FF",
"~  c #8BD9FF",
"^  c #8EDBFF",
"/  c #8FDBFF",
"(  c #92DCFF",
")  c #93DCFF",
"_  c #97DEFF",
"`  c #9ADFFF",
"'  c #9BDFFF",
"]  c #A0D2E6",
"[  c #9AE0FF",
"{  c #9EE1FF",
"}  c #9FE1FF",
"|  c #A2E3FF",
" . c #A6E4FF",
".. c #A6E5FF",
"X. c #ABE6FF",
"o. c #AAE7FF",
"O. c #AEE9FF",
"+. c #BDE7F2",
"@. c #B2EAFF",
"#. c #B2EBFF",
"$. c #B6EBFF",
"%. c #B6ECFF",
"&. c #BAEEFF",
"*. c #BEEFFF",
"=. c #C3D1CB",
"-. c #C6D4CF",
";. c #C8D7D3",
":. c #C2F1FF",
">. c #C6F3FF",
",. c #C9F4FF",
"<. c #CDF4FF",
"1. c #D4F6FF",
"2. c #E1F9FF",
/* pixels */
">.>.>.>.>.>.>.>.>.>.>.>.>.>.>.>.>.>.>.>.>.>.>.>.>.>.>.>.>.>.>.>.>.>.>.>.>.>.>.>.>.>.>.>.>.>.>.>.>.>.>.>.>.>.>.>.>.>.>.>.>.>.>.>.",
">.>.>.>.>.>.>.>.>.>.>.>.>.>.>.>.>.>.>.>.>.>.>.>.>.>.>.>.>.>.>.>.>.>.>.>.>.>.>.>.>.>.>.>.>.>.>.>.>.>.>.>.>.>.>.>.>.>.>.>.>.>.>.>.",
">.>.>.>.>.>.>.>.>.>.>.>.>.>.>.>.>.>.>.>.>.>.>.>.>.>.>.>.>.>.>.>.>.>.>.>.>.>.>.>.>.>.>.>.>.>.>.>.>.>.>.>.>.>.>.>.>.>.>.>.>.>.>.>.",
">.>.>.>.>.>.>.>.>.>.>.>.>._ } >.>.>.>.>.>.>.@./ &.>.>.>.>./ | >.>.>.>.>.>./ o.>.>.>.>.>.>.>.>.>.>.@./ &.>.>.>.>.>.>.>.>.>.>.>.>.",
">.>.>.>.>.>.>.>.>.>.>.>.>.|  .>.>.>.>.>.>.>.$.} &.:.O.*.>.} O.>.>.>.>.>.>.} O.>.@.%.>.@.O.O.&.>.>.%.} &.>.>.>.>.>.>.>.>.>.>.>.>.",
">.>.>.>.>.>.>.>.>.>.>.>.>.>.>.>.>.>.>.>.>.>.>.>.>.*.Q O.>.>.>.>.>.>.>.>.>.>.>.>./ _ >._ Q Q  .:.>.>.>.>.>.>.>.>.>.>.>.>.>.>.>.>.",
">.>.>.>.>.>.>.>.>.>.>.@./ *.>.>.| _ >.o./ *.>.>.' _ *.:.>.>.>.>.' } >.>.>.>.o./ %.O.^ ~ ^ *. ./ >.>.>.[ _ >.>.>.>.>.>.>.>.>.>.>.",
">.>.>.>.>.>.>.>.>.>.>.%.} O.O.O. .} O.' Q o.O.O. .} O.*.>.O.$.>.o. .>.$.O.O. .} O. .~ Q ~ O.' Q O.O.O. .} o.*.>.O.%.>.>.>.>.>.>.",
">.>.>.>.>.>.>.>.>.>.>.>.>./ Q Q O.*.Q Q Q Q Q Q $.*.! o.>.Q ' >.>.>.>.} Q Q  .>./ Q Q Q Q Q Q Q Q Q Q %.*.Q O.>.Q } >.>.>.>.>.>.",
">.>.>.>.>.| [ >.>.>._  .>.%.%.%. .( Q Q Q O. .Q ( ( Q ( _ Q ( _ &.&._  .%.Q / _ Q Q Q Q Q Q } %.Q Q Q ( ' $.:.>.%.*.>.>.>.>.>.>.",
">.>.>.>.>.| } >.*.%._  .%.%.%.%._ Q Q Q Q $.| Q Q Q Q Q Q _ ' Q o.O._ o.$.Q Q Q Q Q Q Q Q Q } %.Q Q Q ( } $.*.>.%.&.>.>.>.>.>.>.",
">.>.>.>.>.>.>.>.} Q >.O.Q Q Q Q Q Q Q Q Q Q Q Q Q Q Q Q Q +.] b n E +.} Q Q Q Q Q Q Q Q Q Q Q Q Q Q Q %.*.Q o.>.Q } >.>.>.>.>.>.",
">.>._  .>.>.:._  .%._ / Q O.o.Q Q Q Q Q Q Q Q Q Q Q Q Q Q g         k ~ Q Q Q Q Q Q Q Q Q Q Q Q Q _ %.} ( Q ( _ %.O._ *.&._ @.>.",
">.>._ o.>.&.O.Q  .$.Q ~ _ %.o.Q Q Q Q Q Q Q Q Q Q Q Q Q ~ g         g ~ Q Q Q Q Q Q Q Q Q Q Q Q Q [ %.( Q Q / _ %. ._ :.&._ $.>.",
">.>.>.>.>._ Q Q Q Q Q } :./ Q Q Q Q Q Q Q Q Q Q Q Q Q Q Q g     M M t 3 s Q Q Q Q Q Q Q Q Q Q Q Q Q Q Q Q Q O.>.Q } >.>.>.>.>.>.",
">.>.>.>.>.&.@.Q | %.Q / _ Q Q Q Q Q Q Q Q Q Q Q Q Q Q Q Q g     G G :   7 Q Q Q Q Q Q Q Q Q Q Q Q Q Q Q Q Q ( _ %.O._ *.>.>.>.>.",
">.>.>.:.%.:.*.Q  .$.Q Q Q Q Q Q Q Q Q Q Q Q Q Q Q Q Q Q Q g     P P 8   7 Q Q Q Q Q Q Q Q Q Q Q Q Q Q Q Q Q / _ $.| Q *.>.>.>.>.",
">.>.>.O.Q %.*.Q Q Q Q Q Q Q Q Q Q Q Q Q Q Q Q Q Q Q Q Q ! g     ;.;.q   7 Q Q Q Q Q Q Q Q Q Q Q Q Q Q Q Q Q o.>.Q Q Q *.>.>.>.>.",
">.>.>.*.%.} ( Q Q Q Q Q Q Q Q Q Q Q Q Q Q Q Q Q Q Q Q Q Q g     ;.;.q   7 Q Q Q Q Q Q Q Q Q Q Q Q Q Q Q Q Q ( _ Q _ %.>.>.>.>.>.",
">.>.>.:.%.} _ Q / _ Q Q Q Q Q Q Q Q Q Q Q Q Q Q Q Q Q a @ # > > H H 1   7 Q Q Q Q Q Q Q Q Q Q Q Q Q Q Q Q _ ( Q _  .%.:.>.>.>.>.",
">.>.>.O.Q %.*.Q O.>.Q Q Q Q Q Q Q Q Q Q Q Q Q Q Q Q Q 7   o 2 2 G G ;   7 Q Q Q Q Q Q Q Q Q Q Q Q Q Q Q ( >.} Q >.O.Q *.>.>.>.>.",
"O._ >.O.Q ( _ %. ._ Q Q Q Q Q Q Q Q Q Q Q Q Q Q Q g g 4 O ; i u U U C q f x x Q Q Q Q Q Q Q Q Q Q Q Q Q ~ _  .$._ } $.>.&._ @.>.",
"o._ >.@._ _ } >.} Q _ ( Q Q Q Q Q Q Q Q Q Q Q Q Q     % 2 i G G ;.;.;.;.J 2 2 Q Q Q Q Q Q Q Q Q Q ~ _ Q Q _ o.$.Q } >.>.&._ $.>.",
">.>.>.>.>.>.>.>.} Q >.O.Q Q Q Q Q Q Q Q Q Q Q Q Q     % 2 i G G ;.;.;.;.J 2 2 Q Q Q Q Q Q Q Q Q Q } >._ / >.} Q Q } >.>.>.>.>.>.",
">.>.>.$._ &.:._ Q Q _ / Q Q Q Q Q Q               2 2 2 2 u G G ;.;.;.;.;.;.;.    g Q Q Q Q Q Q Q ( ' Q ~ _  .%.%.O._ &.>.>.>.>.",
">.>.>.@._ &.*._ _ _ Q Q Q Q Q Q Q Q               2 2 2 2 u G G ;.;.;.;.;.;.;.    g Q Q Q Q Q Q Q Q Q Q Q _ O.%.%. ._ :.>.>.>.>.",
">.>.>.>.>.>.>.>.>.>.Q Q Q Q Q c 7 7 y y V D B y y 2 2 2 2 u G G ;.;.;.;.;.;.;.* & 4 p p 7 7 7 7 v Q Q Q / >.} Q Q } >.>.>.>.>.>.",
"O._ >.>.>.>.>.>.o._ Q Q Q Q Q g     G G R ;.R G G 2 2 2 9 i G G ;.;.;.;.;.;.;.2 2 O             g Q Q Q ~ _ Q Q %.*.>.} | >.o.[ ",
"O._ >.>.>.&.$.>.' Q _ _ _ Q Q g     S S I Y I S S 0 0 9 2 i G G =.=.-.;.;.;.;.0 0 * O o X X     g ~ _ ! Q Q / _ >.>.>.[ | >. .} ",
">.>.>.>.>._ / >.} Q >.>.>./ Q g                   G G i 2 u G G G G R ;.;.;.;.G G R ;.R G G     g ' >.' Q Q O.>.>.>.>.>.>.>.>.>.",
">.>.>.>.>.&.&.>.&.$._ ' _ Q Q g                   G G i 2 u G G G G R ;.;.;.;.G G R ;.Y G G     g ( _ Q ~ %. ._ _  .>.>.>.>.>.>.",
">.>.>.>.>.>.>.>.:.*./ Q Q Q Q b c v v v v v s     G G i 2 0 e e G G K P P P P $ $ - : = $ $ c c W Q Q Q / *.} / Q } >.>.:.*.:.>.",
">.>.>.>.>.>.>.>.} Q >.o.Q Q Q Q Q Q Q Q Q Q g     G G i 2 2 2 2 G G G G G G G               Q Q Q Q Q Q Q Q o.>.Q ' >.>.$.Q O.>.",
">.>.>.>.>.>.>.>.$.O.} _ Q Q Q Q Q Q Q Q Q Q l 3 3 M M r e w 2 2 A A A A Z M M 3 3 3 3 3 3 3 Q Q Q Q Q  .o.Q ' | @.$.>.>.:.O.*.>.",
">.>.>.>.>.>.>.*.:.>.Q Q Q Q Q Q Q Q Q Q Q Q Q Q ~     y G N 9 2 2 2 2 2 %     / Q Q Q Q Q Q Q Q Q Q Q O.$.Q Q Q *.:.>.*.:.>.>.>.",
">.>.>.>.>.>.*.Q O.>.Q Q Q Q Q Q Q Q Q Q Q Q Q Q Q     y G N 8 9 2 2 2 2 %     Q Q Q Q Q Q Q Q Q Q Q Q Q Q Q Q Q Q } >./ _ >.>.>.",
">.>.>.%.} *.:.O. .} O.} Q Q Q Q Q Q Q Q Q Q Q Q Q n b 6 o , F F . . . . 5 b b Q Q Q Q Q Q Q Q Q Q Q Q Q Q Q Q Q O.%.>.@.@.>.>.>.",
">.>.>.@./ $.>.>.} Q *.o.Q Q Q Q Q Q Q Q Q Q Q Q Q Q Q 7   , G G         7 Q Q Q Q Q Q Q Q Q Q Q Q ~ / Q Q Q Q / *.:.>.*.:.>.:.*.",
">.>.>.>.>.>.>.>.} Q Q Q Q Q Q Q Q Q Q Q Q Q Q Q Q Q Q 7   8 U U     3 7 g Q Q Q Q Q Q Q Q Q Q Q Q } >._ Q Q o.>.Q } >./ _ >.} / ",
">.>.>.>.>. .} }  .O.Q Q Q Q Q Q Q Q Q Q Q Q Q Q Q Q Q p   q ;.;.    g Q Q Q Q Q Q Q Q Q Q Q Q Q Q / } / Q O.o.| O. .} O.@.>.$.O.",
">.>.>.>.>.} / Q o.*.Q Q Q Q Q Q Q Q Q Q Q Q Q Q Q Q Q p   q ;.;.    g Q Q Q Q Q Q Q Q Q Q Q Q Q Q Q Q Q / *.[ Q *.O./ %.:.>.>.>.",
">.>.>.>.>.>.*.Q Q Q Q Q Q Q Q Q Q Q Q Q Q Q Q Q Q Q Q p   , G G     g Q Q Q Q Q Q Q Q Q Q Q Q Q Q Q Q Q Q Q Q Q Q } >./ _ >.>.>.",
">.>.>.>.>. .} O._ Q Q Q Q Q Q Q Q Q Q Q Q Q Q Q Q Q Q p   , F G     g Q Q Q Q Q Q Q Q Q Q Q Q Q Q Q Q Q Q Q } O.Q } >.@.@.>.>.>.",
">.>.>.>.>.} _ *.' Q Q Q Q Q Q Q Q Q Q Q Q Q Q Q Q Q Q v g d , ,     g Q Q Q Q Q Q Q Q Q Q Q Q Q Q Q Q Q Q Q o.*./ } *.>.>.>.>.>.",
">.>.>.>.>.>.*.Q Q Q Q Q Q Q Q Q Q Q Q Q Q Q Q Q Q Q Q Q Q g         g Q Q Q Q Q Q Q Q Q Q Q Q Q Q Q Q Q Q Q Q Q >.O.Q *.>.>.>.>.",
">.>.} O.>.>.:.O._ Q O.} Q Q Q Q Q Q Q Q Q Q Q Q Q Q Q Q Q l @ @ @ @ l Q Q Q Q Q Q Q Q Q Q Q Q Q Q _ o./ ~ O._ Q }  .O.:.&.} %.>.",
">.>./ | >.>.>.*.| / *.o.Q Q Q Q Q Q Q Q Q Q Q Q Q Q Q Q Q Q Q Q Q Q Q Q Q Q Q Q Q Q Q Q Q Q Q Q Q [ *.} _ *.[ ^ Q } >.>.&.^ @.>.",
">.>.>.>.>.>.*.Q o.>.Q Q Q Q Q Q Q Q Q Q Q Q Q Q Q Q Q Q Q Q Q Q Q Q Q Q Q Q Q Q Q Q Q Q Q Q Q Q Q Q Q $.*.Q O.>.Q } >.>.>.>.>.>.",
">.>.>.>.>. .} o. .} Q Q Q o...Q Q Q Q Q Q z z z z z z z z z z z z z z z z z z z z z z Q ~ O.[ Q Q Q Q _ ' Q _ } O. .} *.>.>.>.>.",
">.>.*.:.>.} _ >.} Q ^ ^ Q %.O.Q Q Q Q Q Q z z z z z z z z z z z z z z z z z z z z z z ~ / *.| Q / ~ Q Q Q / / / >.@./ *.>.>.>.>.",
">.>.Q } >.>.>.>.[ Q >.O.Q Q Q Q Q Q z z z z z z z z z z z z z z z z z z z z z z z z z z z z Q Q >.O.Q Q / >.>.>.>.>.>.>.>.>.>.>.",
">.>.O.%.>.>.>.>.%.O.}  .O.~ ( O.[ Q z z z z z z z z z z z z z z z z z z z z z z z z z z z z Q Q } _ Q  .O.} %.>.} O.>.>.>.>.>.>.",
">.>.>.>.>.>.>.>.>.>./ } *.^ ( *.[ Q z z z z z z z z z z z z z z z z z z z z z z z z z z z z Q Q / ~ Q O.%./ @.>./ | >.>.>.>.>.>.",
">.>.>.>.>.>.>.>.>.>.:.O.Q Q Q Q Q Q Q Q Q z z z z z z z z z z z z z z z z z z z z z z Q Q Q Q Q >.O.Q Q / >.>.>.>.>.>.>.>.>.>.>.",
">.>.>.>.>.>.>.>.>.>.>.&. .~ ^  . ...Q Q Q z z z z z z z z z z z z z z z z z z z z z z / ~  .[ Q  . . . .o.>.>.>.>.>.>.>.>.>.>.>.",
">.>.>.>.>.>.>.>.>.>.>.>.>./ ' >.>.*.Q Q Q z z z z z z z z z z z z z z z z z z z z z z _ / >.| Q Q } >.>.>.>.>.>.>.>.>.>.>.>.>.>.",
">.>.>.>.>.>.>.>.} Q >.>.>.>.>.>.{ Q Q ..>.~ Q Q Q Q Q Q Q >.o.~ %.%.Q O.>.>. .Q *.%.Q %.*.Q  .>.>.O.Q %.>.>.} Q >.>.>.>.>.>.>.,.",
">.>.>.>.>.>.>.>.@. .>.>.>.>.>.>.O...Q [  .~ (  .^ ~ ..( Q  . ... . . .%.>.>.%. .:.*. .*.:. .%.>.>.&. .*.>.>.@. .>.>.>.>.>.>.>.,.",
">.>.>.>.>.>.>.>.>.>.>.>.>.>.>.>.>.*.Q Q Q Q } >.[ ^ >.{ Q Q } >._ _ >.>.>.>.>.>.>.>.>.>.>.>.>.>.>.>.>.>.>.>.>.>.>.>.>.>.>.>.>.>.",
">.>.>.>.>.>.>.>.>.>.>.>.>.>.%.Q O.>.>.>.>.>.O.Q %.*.Q Q Q Q } >.>.>.>.} Q >.>.>./ _ >.>.>.>. .Q >.>.>.>.>.>.>.>.>.>.>.>.>.>.>.>.",
">.>.>.>.>.>.>.>.>.>.>.>.>.>.*. .&.>.>.>.>.o. . .*.>. . . . .#.>.>.>.>.#. .>.>.>.o.O.>.>.>.>.%. .>.>.>.>.>.>.>.>.>.>.>.>.>.>.>.>.",
">.>.>.>.>.>.>.>.>.>.>.>.>.>.>.>.>.>.>.>.>.^ { >.>.>.>.>.>.>.>.>.>.>.>.>.>.>.>.>.>.>.>.>.>.>.>.>.>.>.>.>.>.>.>.>.>.>.>.>.>.>.>.>.",
",.,.>.>.>.>.>.>.>.>.>.O.Q *.>.>.>.>.>.>.>.>.>.>.>.>.>.} Q >.>.>.>.>.>.>.>.>.>.>.>.>.>.>.>.>.>.>.>.>.>.>.>.>.>.>.>.>.>.>.>.>.>.>.",
"1.1.>.>.>.>.>.>.>.>.>.&. .:.>.>.>.>.>.>.>.>.>.>.>.>.>.O. .>.>.>.>.>.>.>.>.>.>.>.>.>.>.>.>.>.>.>.>.>.>.>.>.>.>.>.>.>.>.>.>.>.>.>."
};
