/* XPM */
static char *result[] = {
/* columns rows colors chars-per-pixel */
"64 64 222 2 ",
"   c #220A1F",
".  c #260B1D",
"X  c #2E0C19",
"o  c #340C16",
"O  c #340D16",
"+  c #3B0D12",
"@  c #3C0D12",
"#  c #3C0E13",
"$  c #310C18",
"%  c #310E19",
"&  c #2D141F",
"*  c #38131D",
"=  c #0D082B",
"-  c #09082D",
";  c #0A092D",
":  c #0A092E",
">  c #0B0A2F",
",  c #130927",
"<  c #170925",
"1  c #1B0923",
"2  c #1B0A23",
"3  c #1F0A21",
"4  c #1F0A22",
"5  c #1F0B22",
"6  c #100829",
"7  c #100929",
"8  c #1C0F2B",
"9  c #0C0B30",
"0  c #0D0C30",
"q  c #0D0C31",
"w  c #0E0D31",
"e  c #100F34",
"r  c #131237",
"t  c #141338",
"y  c #16153A",
"u  c #18173D",
"i  c #19183F",
"p  c #211028",
"a  c #351A27",
"s  c #410E0F",
"d  c #420E0E",
"f  c #430E0E",
"g  c #420E0F",
"h  c #430E0F",
"j  c #440F0F",
"k  c #49120D",
"l  c #4F130D",
"z  c #4E180D",
"x  c #50160C",
"c  c #55160D",
"v  c #5D1E0A",
"b  c #5D1E0B",
"n  c #5B180D",
"m  c #5E1A0D",
"M  c #5C1C0C",
"N  c #441010",
"B  c #441011",
"V  c #441112",
"C  c #451213",
"Z  c #411414",
"A  c #441815",
"S  c #551F13",
"D  c #611B0C",
"F  c #58220D",
"G  c #5A2A19",
"H  c #5A2B1F",
"J  c #632209",
"K  c #63220A",
"L  c #662309",
"P  c #61240B",
"I  c #692609",
"U  c #6D200C",
"Y  c #6B2A0A",
"T  c #6F2A08",
"R  c #752E07",
"E  c #70220C",
"W  c #73230C",
"Q  c #6D350C",
"!  c #6E360E",
"~  c #7C3206",
"^  c #71310A",
"/  c #783208",
"(  c #7E3108",
")  c #7A380D",
"_  c #603718",
"`  c #5C3724",
"'  c #6B4527",
"]  c #724523",
"[  c #724623",
"{  c #7E5429",
"}  c #1C1B43",
"|  c #1C1B45",
" . c #1D1C47",
".. c #802E09",
"X. c #823606",
"o. c #8E3E04",
"O. c #8F3E04",
"+. c #82330B",
"@. c #943D05",
"#. c #8A4206",
"$. c #82480B",
"%. c #82490B",
"&. c #954103",
"*. c #954203",
"=. c #9B4303",
"-. c #9B4602",
";. c #9B4603",
":. c #9D4602",
">. c #9C4603",
",. c #9B4F05",
"<. c #91450A",
"1. c #994D0A",
"2. c #935609",
"3. c #975C0A",
"4. c #804214",
"5. c #A14902",
"6. c #A84E01",
"7. c #A45103",
"8. c #AC5401",
"9. c #AC5D03",
"0. c #AA5F05",
"q. c #A0560A",
"w. c #A75E09",
"e. c #B05902",
"r. c #B45F02",
"t. c #B55F02",
"y. c #9A610F",
"u. c #A36408",
"i. c #B86502",
"p. c #B96502",
"a. c #B3620D",
"s. c #AC7009",
"d. c #BD7405",
"f. c #BE7708",
"g. c #815529",
"h. c #875729",
"j. c #905F26",
"k. c #8A612E",
"l. c #8A612F",
"z. c #A17D39",
"x. c #C17102",
"c. c #C57703",
"v. c #C07405",
"b. c #C97C03",
"n. c #CA7F05",
"m. c #8E7362",
"M. c #B18021",
"N. c #BE922C",
"B. c #CE8104",
"V. c #CD8807",
"C. c #CE8B06",
"Z. c #C18308",
"A. c #D18704",
"S. c #D28704",
"D. c #D38A05",
"F. c #D68D04",
"G. c #D59107",
"H. c #D69707",
"J. c #DB9304",
"K. c #DA9305",
"L. c #DC9907",
"P. c #CB861B",
"I. c #CE8C1B",
"U. c #E39E05",
"Y. c #E39F05",
"T. c #DBA71F",
"R. c #E3A206",
"E. c #E7A405",
"W. c #E7A406",
"Q. c #EBAA06",
"!. c #ECAE0C",
"~. c #EDB212",
"^. c #EFB618",
"/. c #F0BA1E",
"(. c #F0BB1E",
"). c #C78520",
"_. c #C98926",
"`. c #CE922D",
"'. c #EDB923",
"]. c #F2BE24",
"[. c #F0BF38",
"{. c #F3C329",
"}. c #F4C730",
"|. c #F6CF3B",
" X c #9F856E",
".X c #A0866F",
"XX c #A8957E",
"oX c #DEB040",
"OX c #D0B44F",
"+X c #D1B44F",
"@X c #DCC254",
"#X c #DCC354",
"$X c #EFC840",
"%X c #F1C445",
"&X c #F3CE41",
"*X c #F7D341",
"=X c #FADB4D",
"-X c #FADC4D",
";X c #EBC35E",
":X c #E7D05A",
">X c #E8D05A",
",X c #EED459",
"<X c #FDE359",
"1X c #FCE459",
"2X c #FDE459",
"3X c #FAE25F",
"4X c #FEE75F",
"5X c #F3DF60",
"6X c #F4D46B",
"7X c #FFEC65",
"8X c #F9EA9D",
"9X c #CFC3A0",
"0X c #E2DCB4",
"qX c #FAEEA3",
"wX c #FCF6A6",
"eX c #FEF9AE",
"rX c #E6E0B7",
"tX c #EDE5B7",
"yX c #E7E1B8",
"uX c #FEFEC9",
"iX c #FDFECF",
"pX c #FEFFD0",
/* pixels */
"- - - - - - - - - - - - - - - - - - - - - - - - - - - - - - - - - - - - - - - - - - - - - - - - - - - - - - - - - - - - - - - - ",
"- - - - - - - - - - - - - - - - - - - - - - - - - - - - - - - - - - - - - - - - - - - - - - - - - - - - - - - - - - - - - - - - ",
"- - - - - - - - - - - - - - - - - - - - - - - - - - - - - - - - - - - - - - - - - - - - - - - - - - - - - - - - - - - - - - - - ",
"- - - - - - - - - - - - - - - - - - - - - - - - - - - - - - - - - - - - - - - - - - - - - - - - - - - - - - - - - - - - - - - - ",
"- - - - - - - - - - - - - - - - - - - - - - - - - - - - - - - - - - - - - - - - - - - - - - - - - - - - - - - - - - - - - - - - ",
"- - - - - - - - - - - - - - - - - - - - - - - - - - - - - - - - - - - - - - - - - - - - - - - - - - - - - - - - - - - - - - - - ",
"- - - - - - - - - - - - - - - - - - - - - - - - - - - - - - - - - - - - - - - - - - - - - - - - - - - - - - - - - - - - - - - - ",
"- - - - - - - - - - - - - - - - - - - - - - - - - - - - - - - - - - - - - - - - - - - - - - - - - - - - - - - - - - - - - - - - ",
"- - - - - - - - - - - - - - - - - - - - - - - - - - - - - - - - - - - - - - - - - - - - - - - - - - - - - - - - - - - - - - - - ",
"- - - - - - - - - - - - - - - - - - - - - - - - - - - - - - - - - - - - - - - - - - - - - - - - - - - - - - - - - - - - - - - - ",
"- - - - - - - - - - - - - - - - - - - - - - - - - - - - - - . f @ - - - - - - - - - - - - - - - - - - - - - - - - - - - - - - - ",
"- - - - - - - - - - - - - - - - - - - - - - - - - - - - % # m.0X9X+ + 7 - - - - - - - - - - - - - - - - - - - - - - - - - - - - ",
"- - - - - - - - - - - - - - - - - - - - - - - - - = o o XX9XrXiXtXO.O.Z o 1 - - - - - - - - - - - - - - - - - - - - - - - - - - ",
"- - - - - - - - - - - - - - - - - - - - - - - - 6 a  X.XyXpX8X6X;X6.6.~ R A 2 - - - - - - - - - - - - - - - - - - - - - - - - - ",
"- - - - - - - - - - - - - - - - - - - - - - - - < H wXuXpX8X%XQ.W.x.6.6.6.I X - - - - - - - - - - - - - - - - - - - - - - - - - ",
"- - - - - - - - - - - - - - - - - - - < < < < <   G 7XeXqX[.Q.Q.Q.Q.i.8.6.I $ < < < < < 6 - - - - - - - - - - - - - - - - - - - ",
"- - - - - - - - - - - - - - - - = 7 7 x F F F F z G 7X7X(.Q.Q.Q.Q.Q.Q.e.6.I z F F F F F & 7 = - - - - - - - - - - - - - - - - - ",
"- - - - - - - - - - - - - - - - < f f 6.J.Q.Q.Q.Z.G 7X7X(.Q.Q.Q.Q.Q.Q.e.6.I $.Q.Q.Q.Q.Q.%.f X - - - - - - - - - - - - - - - - - ",
"- - - - - - - - - - - - - - - 3 ] 7X7X7X(.Q.Q.Q.Z.G 7X7X(.Q.Q.Q.Q.Q.Q.e.6.I $.Q.Q.Q.Q.Q.Q.Q.s.o - - - - - - - - - - - - - - - - ",
"- - - - - - - - - - - - - - 3 ' @X7X7X7X(.B.p.p.,.G 7X7XP.F.Q.Q.Q.Q.<...:.I ^ p.p.p.Q.Q.Q.S.7./ $ - - - - - - - - - - - - - - - ",
"- - - - - - - - - - - - - - . l.7X7X7X7XI.#.I I K G 7X`.a.p.F.Q.R.q.W W ..M x I I I x.x.x.r.6.O.@ - - - - - - - - - - - - - - - ",
"- - - - - - - - - - - - - p _ N.7X7X7Xz.4.j.z.z.z.z.z.) -.6.p.v.w.W W m n h.z.z.z.z.R R 0.p.6.;.Y . 9 - - - - - - - - - - - - - ",
"- - - - - - - - - - - - - * y./.*X&XoXf { +X7X7X7X,XI I R X.*.@.E D D g.k.+X7X7X3XoXI k s.b.6.6.;.f q - - - - - - - - - - - - - ",
"- - - - - - - - - - - - - O 3.Q.E.S.o.[ #X7X<X=X=X$X6.6.T v R ( D [ [ 5X7X<X=X=X$X6.6.J u.d.t.6.;.f 9 - - - - - - - - - - - - - ",
"- - - - - - - - - - - - - O 3.Q.K.;.f 7X7X4X}.Q.Q.U.e.e.6.6.~ S ] 7X7X2X2X].Q.Q.U.e.6.6.I 3.A.6.;.f > - - - - - - - - - - - - - ",
"- - - - - - - - - - - - - O 3.Q.K.;.f 7X7X{.Q.Q.Q.Q.Q.Q.i.6.6._.7X7X7X~.Q.Q.Q.Q.Q.Q.6.6.I 3.A.6.;.f : - - - - - - - - - - - - - ",
"- - - - - - - - - - - - - O 3.Q.K.;.f 7X7X{.Q.Q.Q.Q.Q.Q.E.Y.c._.1X~.~.Q.Q.Q.Q.Q.Q.Q.6.6.I 3.A.6.;.f : - - - - - - - - - - - - - ",
"- - - - - - - - - - - - - O 3.Q.K.;.f 7X7X{.Q.Q.Q.Q.Q.Q.Q.Q.b._.1XQ.Q.Q.Q.Q.Q.Q.Q.Q.6.6.I 3.A.6.;.f : - - - - - - - - - - - - - ",
"- - - - - - - - - - - - - O 3.Q.K.;.f 7X7X{.Q.Q.Q.Q.Q.Q.Q.Q.b._.1XQ.Q.Q.Q.Q.Q.Q.Q.Q.6.6.I 3.A.6.;.j : - - - - - - - - - - - - - ",
"- - - - - - - - - - - - - O 3.Q.K.;.f 7X7X{.Q.Q.Q.Q.Q.Q.Q.Q.b._.1XQ.Q.Q.Q.Q.Q.Q.Q.Q.6.6.I 3.A.6.;.N ; - - - - - - - - - - - - - ",
"- - - - - - - - - - - - - O 3.Q.K.;.f 7X7X{.Q.Q.Q.Q.Q.Q.Q.Q.b._.1XQ.Q.Q.Q.Q.Q.Q.Q.Q.6.6.I 3.A.6.>.V - - - - - - - - - - - - - - ",
"- - - - - - - - - - - - - O 3.Q.K.;.f 7X7X{.Q.Q.Q.Q.Q.Q.Q.Q.b._.1XQ.Q.Q.Q.Q.Q.Q.Q.Q.6.6.I 3.A.6.>.C - - - - - - - - - - - - - - ",
"- - - - - - - - - - - - - O 3.Q.K.;.f 7X7X{.Q.Q.Q.Q.Q.Q.Q.Q.b._.1XQ.Q.Q.Q.Q.Q.Q.Q.Q.6.6.I 3.A.6.>.C : - - - - - - - - - - - - - ",
"- - - - - - - - - - - - - O 3.Q.K.;.f 7X7X{.Q.Q.Q.Q.Q.Q.Q.Q.b._.1XQ.Q.Q.Q.Q.Q.Q.Q.Q.6.6.I 3.A.6.;.B : - - - - - - - - - - - - - ",
"- - - - - - - - - - - - - O 3.Q.K.;.f 7X7X{.Q.Q.Q.Q.Q.Q.Q.Q.b._.1XQ.Q.Q.Q.Q.Q.Q.Q.Q.6.6.I 3.A.6.;.h > - - - - - - - - - - - - - ",
"- - - - - - - - - - - - - O 3.Q.K.;.f 7X7X{.Q.Q.Q.Q.Q.Q.Q.Q.b._.1XQ.Q.Q.Q.Q.Q.Q.Q.Q.6.6.I 3.A.6.;.f 0 - - - - - - - - - - - - - ",
"- - - - - - - - - - - - - O 3.Q.K.;.f 7X7X{.Q.Q.Q.Q.Q.Q.Q.Q.b._.1XQ.Q.Q.Q.Q.Q.Q.Q.Q.6.6.I 3.A.6.;.f w - - - - - - - - - - - - - ",
"- - - - - - - - - - - - - O 3.Q.K.;.f 7X7X{.Q.Q.Q.Q.Q.Q.Q.Q.b._.1XQ.Q.Q.Q.Q.Q.Q.Q.Q.6.6.I 3.A.6.;.f e - - - - - - - - - - - - - ",
"- - - - - - - - - - - - - O 3.Q.K.;.f 7X7X{.Q.Q.Q.Q.Q.Q.Q.Q.b._.1XQ.Q.Q.Q.Q.Q.Q.Q.Q.6.6.I 3.A.6.;.f r - - - - - - - - - - - - - ",
"- - - - - - - - - - - - - O 3.Q.K.;.f 7X7X{.Q.Q.Q.Q.Q.Q.Q.Q.b._.1XQ.Q.Q.Q.Q.Q.Q.Q.Q.6.6.I 3.A.6.;.f t - - - - - - - - - - - - - ",
"- - - - - - - - - - - - - O 3.Q.K.;.f 7X7X{.Q.Q.Q.Q.Q.Q.Q.Q.b._.1XQ.Q.Q.Q.Q.Q.Q.Q.Q.6.6.I 3.A.6.;.f u - - - - - - - - - - - - - ",
"- - - - - - - - - - - - - O 3.Q.K.;.f 7X7X{.Q.Q.Q.Q.Q.Q.Q.Q.b._.1XQ.Q.Q.Q.Q.Q.Q.Q.Q.6.6.I 3.A.6.;.f } - - - - - - - - - - - - - ",
"- - - - - - - - - - - - - O 3.Q.K.;.f 7X7X{.Q.Q.Q.Q.Q.Q.Q.Q.b._.1XQ.Q.Q.Q.Q.Q.Q.Q.Q.6.6.I 3.A.6.;.f  .- - - - - - - - - - - - - ",
"- - - - - - - - - - - - - O 3.Q.K.;.f 7X7X{.Q.Q.Q.R.q.q.L.Q.b._.1XQ.Q.w.q.V.Q.Q.Q.Q.6.6.I 3.A.6.;.f  .- - - - - - - - - - - - - ",
"- - - - - - - - - - - - - O 3.Q.K.;.f 7X7X{.Q.Q.Q.L.W W V.Q.b._.1XQ.Q.+.W f.Q.Q.Q.Q.6.6.I 3.A.6.;.f  .- - - - - - - - - - - - - ",
"- - - - - - - - - - - - - O 3.Q.K.;.f 7X7X{.Q.Q.Q.L.W W V.Q.b._.1XQ.Q.+.W f.Q.Q.Q.Q.6.6.I 3.A.6.;.f  .- - - - - - - - - - - - - ",
"- - - - - - - - - - - - - O 3.Q.K.;.f 7X7X{.Q.Q.Q.L.<.<.G.Q.b._.1XQ.Q.1.<.V.Q.Q.Q.Q.6.6.I 3.A.6.;.f  .- - - - - - - - - - - - - ",
"- - - - - - - - - - - - - O 3.Q.K.;.f 7X7X{.Q.Q.Q.Q.Q.Q.Q.Q.b._.1XQ.Q.Q.Q.Q.Q.Q.Q.Q.6.6.I 3.A.6.;.f  .- - - - - - - - - - - - - ",
"- - - - - - - - - - - - - O 3.Q.K.;.f 7X7X{.Q.Q.Q.Q.Q.Q.Q.Q.b._.1XQ.Q.Q.Q.Q.Q.Q.Q.Q.6.6.I 3.A.6.;.f  .- - - - - - - - - - - - - ",
"- - - - - - - - - - - - - O 3.Q.K.;.f 7X7X{.Q.Q.Q.Q.Q.Q.Q.Q.b._.1XQ.Q.Q.Q.Q.Q.Q.Q.Q.6.6.I 3.A.6.;.f  .- - - - - - - - - - - - - ",
"- - - - - - - - - - - - - O 3.Q.K.;.f 7X7X{.Q.Q.Q.Q.Q.Q.Q.Q.b._.1XQ.Q.Q.Q.Q.Q.Q.Q.Q.6.6.I 3.A.6.;.f  .- - - - - - - - - - - - - ",
"- - - - - - - - - - - - - O 3.Q.K.;.f 7X7X{.Q.Q.Q.Q.Q.Q.Q.Q.b._.1XQ.Q.Q.Q.Q.Q.Q.Q.Q.6.6.I 3.A.6.;.f | - - - - - - - - - - - - - ",
"- - - - - - - - - - - - - O 3.Q.K.;.f 7X7X{.Q.Q.Q.Q.Q.Q.Q.Q.b._.1XQ.Q.Q.Q.Q.Q.Q.Q.Q.6.6.I 3.A.6.;.f i - - - - - - - - - - - - - ",
"- - - - - - - - - - - - - O 3.Q.K.;.f 7X7X{.Q.Q.Q.Q.Q.Q.Q.Q.b._.1XQ.Q.Q.Q.Q.Q.Q.Q.Q.6.6.I 3.A.6.;.f y - - - - - - - - - - - - - ",
"- - - - - - - - - - - - , ` M.^.K.;.f 7X7X{.Q.Q.Q.Q.Q.Q.Q.Q.b._.1XQ.Q.Q.Q.Q.Q.Q.Q.Q.6.6.I 3.A.8.9.Q 8 = - - - - - - - - - - - - ",
"- - - - - - - - - - - - + OX7X*XK.;.f 7X7X{.Q.Q.Q.Q.Q.Q.Q.Q.b._.1XQ.Q.Q.Q.Q.Q.Q.Q.Q.6.6.I 3.A.p.Q.Q.f < - - - - - - - - - - - - ",
"- - - - - - - - - - - f >X7X7X*XK.;.f 7X7X{.Q.Q.Q.Q.Q.Q.Q.Q.b._.1XQ.Q.Q.Q.Q.Q.Q.Q.Q.6.6.I 3.A.p.Q.Q.Q.! 5 - - - - - - - - - - - ",
"- - - - - - - - - - - g :X7X|.!.K.;.f 7X7X{.Q.Q.Q.Q.Q.Q.Q.Q.b._.1XQ.Q.Q.Q.Q.Q.Q.Q.Q.6.6.I 3.A.6.p.Q.Q.Q 4 - - - - - - - - - - - ",
"- - - - - - - - - - - s T.(.~.Q.K.;.f 7X7X{.Q.Q.Q.Q.Q.Q.Q.Q.b._.1XQ.Q.Q.Q.Q.Q.Q.Q.Q.6.6.I 3.A.6.8.p.p.P 3 - - - - - - - - - - - ",
"- - - - - - - - - - - g H.Q.Q.Q.K.;.f 7X7X{.Q.Q.Q.Q.Q.Q.Q.Q.b._.1XQ.Q.Q.Q.Q.Q.Q.Q.Q.6.6.I 3.A.6.6.6.6.b 3 - - - - - - - - - - - ",
"- - - - - - - - - - - g H.Q.Q.Q.K.;.f 7X7X{.Q.Q.Q.Q.Q.Q.Q.Q.b._.1XQ.Q.Q.Q.Q.Q.Q.Q.Q.6.6.I 3.A.6.6.6.6.b 3 - - - - - - - - - - - ",
"- - - - - - - - - - - d H.Q.Q.Q.K.;.f 7X7X{.Q.Q.Q.Q.Q.Q.Q.Q.b._.1XQ.Q.Q.Q.Q.Q.Q.Q.Q.6.6.I 3.A.6.6.6.6.b 3 - - - - - - - - - - - ",
"- - - - - - - - - - - f C.Y.Y.Y.D.&.f 2X2X'.Y.Y.Y.Y.Y.Y.Y.Y.c.).-XY.Y.Y.Y.Y.Y.Y.Y.Y.5.5.L 2.n.5.5.5.5.b 3 - - - - - - - - - - - ",
"- - - - - - - - - - - f -.6.6.6.=.U f Q.Q.x.6.6.6.6.6.6.6.6.6.x.U.6.6.6.6.6.6.6.6.6.W W c R @.W W W W l 3 - - - - - - - - - - - "
};
