/* XPM */
static char *_6fb74e4f2b941d1833aec59e3e4cf81Jzm80c36AwXGGIXB[] = {
/* columns rows colors chars-per-pixel */
"64 64 64 1 ",
"  c #74C857",
". c #7CC759",
"X c #7CC859",
"o c #7CC85A",
"O c #A2BF68",
"+ c #A3BF68",
"@ c #ABBF6B",
"# c #B3BC6C",
"$ c #B2BC6D",
"% c #B3BE6D",
"& c #B3BF6D",
"* c #BABB6F",
"= c #BEBB70",
"- c #C2B973",
"; c #C2BA72",
": c #D1B778",
"> c #D2B778",
", c #DBBA7B",
"< c #DBBB7B",
"1 c #E1B47D",
"2 c #E3BA7D",
"3 c #83C55C",
"4 c #84C55C",
"5 c #8CC45F",
"6 c #84C85C",
"7 c #85C85D",
"8 c #8BC85F",
"9 c #8DC85F",
"0 c #93C262",
"q c #93C362",
"w c #9BC165",
"e c #95C862",
"r c #95C863",
"t c #9DC865",
"y c #A5C568",
"u c #ACC36B",
"i c #ADC46B",
"p c #A5C868",
"a c #A6C868",
"s c #AEC86A",
"d c #B6C86D",
"f c #BCC170",
"g c #BEC970",
"h c #C4C073",
"j c #C5C273",
"k c #C6C873",
"l c #C7C973",
"z c #CCC874",
"x c #CFC876",
"c c #D7C878",
"v c #D7C979",
"b c #DFC97C",
"n c #E5C07E",
"m c #E7C67E",
"M c #E8C97F",
"N c #F0B083",
"B c #F2B383",
"V c #F3B783",
"C c #F3BA83",
"Z c #F4BD83",
"A c #EEC481",
"S c #F6C384",
"D c #F8C984",
"F c #F8CA84",
/* pixels */
"Dblll   elllo7DMlmFFFFMlcFclo  6lt sllxFFDDDxllvFd allk   plllDD",
"Dd           7Dv dFFFFM aFp           7FFFDDe  eFd            DD",
"de           odp eddddi 9d5           oddddd4  7de            dd",
"                                                                ",
"                                                                ",
"                                                                ",
"                                                                ",
"                                                                ",
"N%                                                            NN",
"N%                                                            BC",
"Dd                                                            DF",
"lt                                                            ll",
"                                                                ",
"%%%4                                                        y#$#",
"NNN0                                                        :NNN",
"Sh0.                                                        50SS",
"Dd                                                            DD",
"Dd                                                            DD",
"Dd                                                            DD",
"DZN0                                                        :NDD",
"DZBu0                                                     40,BFF",
"DDDBN                                                     -NDDFF",
"DDDx;                                                     +-ADFF",
"DDDe                                                        cDFF",
"Dxp7                                                        epDD",
"Dd                                                            DD",
"Dd                                                            DD",
"Dd                                                            DF",
"7o                                                            49",
"7o                                                            7X",
"Fd                                                            DD",
"ca                                                            vv",
"                                                                ",
"                                                                ",
"                                                                ",
";;;3                                                        %;;*",
"NNN0                                                        :NBN",
"Sh0X                                                        50SD",
"Dd                                                            DD",
"Dd                                                            DD",
"Dg3                                                         44DF",
"DZN0                                                        :NDF",
"DZVu0                                                     30,VDF",
"DDDVN                                                     -NSDDF",
"DDD;%                                                     w%mFDD",
"DDDe                                                        cFDD",
"Dxp4                                                        epDF",
"Dd                                                            DF",
"Dn>5                                                        *>DD",
"DZNq                                                        >NDD",
"                                                                ",
"                                                                ",
"                                                                ",
"p9                                                            pp",
"Dd                                                            DD",
"de                                                            dd",
"                                                                ",
"                                                                ",
"                                                                ",
"                                                                ",
"                                                                ",
"Sd           4N> fBBNN1 pN+           4BBNNN0  0N%            BN",
"Dleq0   X000X6V<0;VVVV2efV%0o  oe7 9eeyVVVVBie0iV% 4e0e   4e0eCB",
"DDDVN   yNNN69DDFFFFFFFFFFVN4  eFd vDDDSDFFDDDDDDd ;NN1   lFFFFF"
};
