/* XPM */
static char *result[] = {
/* columns rows colors chars-per-pixel */
"64 64 172 2 ",
"   c black",
".  c #0C0202",
"X  c #150406",
"o  c #180404",
"O  c #1C090E",
"+  c #250606",
"@  c #2C0707",
"#  c #2D000A",
"$  c #2D080E",
"%  c #310808",
"&  c #3E0A0A",
"*  c #2D0E16",
"=  c #300E17",
"-  c #37121C",
";  c #3E1C29",
":  c #3B1824",
">  c #362327",
",  c #4A0B0C",
"<  c #570E0E",
"1  c #4E0E14",
"2  c #471015",
"3  c #5A101C",
"4  c #5F0718",
"5  c #6D0E13",
"6  c #7E0E1F",
"7  c #631010",
"8  c #6A1418",
"9  c #73171D",
"0  c #531B2B",
"q  c #6C1321",
"w  c #7D1520",
"e  c #600932",
"r  c #601A3C",
"t  c #5B283B",
"y  c #602637",
"u  c #792234",
"i  c #403F40",
"p  c #60364A",
"a  c #603D53",
"s  c #7D3B53",
"d  c #800C20",
"f  c #960620",
"g  c #87182B",
"h  c #88182B",
"j  c #9E1C32",
"k  c #941A2D",
"l  c #A50325",
"z  c #B50029",
"x  c #A01C2E",
"c  c #AA1E34",
"v  c #9D253C",
"b  c #8A303D",
"n  c #B52039",
"m  c #AA243A",
"M  c #B90441",
"N  c #BD1E44",
"B  c #863849",
"V  c #823D57",
"C  c #943C56",
"Z  c #BA2540",
"A  c #BF2A47",
"S  c #BF2A48",
"D  c #B82248",
"F  c #BE304D",
"G  c #BF3B5A",
"H  c #AB3652",
"J  c #BB3F61",
"K  c #CA0043",
"L  c #C8024A",
"P  c #D00B4F",
"I  c #C71E4B",
"U  c #D60052",
"Y  c #DE0C5B",
"T  c #C42F4F",
"R  c #C73C5D",
"E  c #CE395D",
"W  c #C93456",
"Q  c #D81667",
"!  c #E40E62",
"~  c #EA136D",
"^  c #EF0F71",
"/  c #F8147B",
"(  c #D72F62",
")  c #CE3E62",
"_  c #D33F64",
"`  c #DC376A",
"'  c #D93F70",
"]  c #8A4749",
"[  c #9D4054",
"{  c #9D465D",
"}  c #AD405A",
"|  c #9F4374",
" . c #8E5272",
".. c #A45C7D",
"X. c #B15977",
"o. c #B9547C",
"O. c #A54A63",
"+. c #C24065",
"@. c #CF4267",
"#. c #C04D6E",
"$. c #D34A6F",
"%. c #D5466D",
"&. c #DE4973",
"*. c #DF4E78",
"=. c #D2597F",
"-. c #DC547E",
";. c #E14E79",
":. c #E4537F",
">. c #FF1884",
",. c #FD1681",
"<. c #FF288C",
"1. c #FF2E90",
"2. c #FF3594",
"3. c #FF3A9A",
"4. c #BA5980",
"5. c #A0658B",
"6. c #BF7AA6",
"7. c #DA5980",
"8. c #D45C87",
"9. c #E55985",
"0. c #E65D8A",
"q. c #EA5D8C",
"w. c #E55582",
"e. c #FA4B97",
"r. c #C56182",
"t. c #DB628C",
"y. c #D07283",
"u. c #D86391",
"i. c #DA6C98",
"p. c #D9729E",
"a. c #EE6594",
"s. c #EB6B9C",
"d. c #F16798",
"f. c #F36C9E",
"g. c #FF4CA6",
"h. c #F06FA0",
"j. c #E471A0",
"k. c #EC76A3",
"l. c #EE75A8",
"z. c #EF78A8",
"x. c #F771A5",
"c. c #F876AB",
"v. c #F77AAC",
"b. c #FC68B0",
"n. c #FA7DB1",
"m. c #FF7FC7",
"M. c #DF80AD",
"N. c #DF84B3",
"B. c #F183AF",
"V. c #ED81B4",
"C. c #E88AB0",
"Z. c #F580B4",
"A. c #FA82B6",
"S. c #FA84BA",
"D. c #F38ABE",
"F. c #FB89BC",
"G. c #DF8EC2",
"H. c #F78DC4",
"J. c #FC8AC1",
"K. c #FF8ACD",
"L. c #FF92C6",
"P. c #FF95CC",
"I. c #FF98CF",
"U. c #FF9BD3",
"Y. c #FF9ED8",
"T. c #FFACD4",
"R. c #FFA2DE",
"E. c #FFC6E2",
"W. c #FFCEEE",
"Q. c #FFEEF8",
"!. c #FFFBFF",
"~. c None",
/* pixels */
"~.~.~.~.~.~.~.~.~.~.~.~.~.~.~.~.~.~.~.~.~.~.~.~.~.~.~.~.~.~.~.~.~.~.~.~.~.~.~.~.~.~.~.~.~.~.~.~.~.~.~.~.~.~.~.~.~.~.~.~.~.~.~.~.",
"~.~.~.~.~.~.~.~.~.~.~.~.~.~.~.~.~.~.~.~.~.~.~.~.~.~.~.~.~.~.~.~.~.~.~.~.~.~.~.~.~.~.~.~.~.~.~.~.~.~.~.~.~.~.~.~.~.~.~.~.~.~.~.~.",
"~.~.~.~.~.~.~.~.~.~.~.~.~.~.~.~.~.~.~.~.~.~.~.~.~.~.~.~.~.~.~.~.~.~.~.~.~.~.~.~.~.~.~.~.~.~.~.~.~.~.~.~.~.~.~.~.~.~.~.~.~.~.~.~.",
"~.~.~.~.~.~.~.~.~.~.~.~.~.~.~.~.~.~.~.~.~.~.~.~.~.~.~.~.~.~.~.~.~.~.~.~.~.~.~.~.~.~.~.~.~.~.~.~.~.~.~.~.~.~.~.~.~.~.~.~.~.~.~.~.",
"~.~.~.~.~.~.~.~.~.~.~.~.~.~.~.~.~.~.~.~.~.~.~.~.~.~.~.~.~.~.~.~.~.~.~.~.~.~.~.~.~.~.~.~.~.~.~.~.~.~.~.~.~.~.~.~.~.~.~.~.~.~.~.~.",
"~.~.~.~.~.~.~.~.~.~.~.~.~.~.~.~.~.~.~.~.~.~.~.~.~.~.~.~.~.~.~.~.~.~.~.~.~.~.~.~.~.~.~.~.~.~.~.~.~.~.~.~.~.~.~.~.~.~.~.~.~.~.~.~.",
"~.~.~.~.~.~.~.~.~.~.~.~.~.~.~.~.~.~.~.~.~.~.~.~.~.~.~.~.~.~.~.~.~.~.~.~.~.~.~.~.~.~.~.~.~.~.~.~.~.~.~.~.~.~.~.~.~.~.~.~.~.~.~.~.",
"~.~.~.~.~.~.~.~.~.~.~.~.~.~.~.~.~.~.~.~.~.~.~.~.~.~.~.~.~.~.~.~.~.~.~.~.~.~.~.~.~.~.~.~.~.~.~.~.~.~.~.~.~.~.~.~.~.~.~.~.~.~.~.~.",
"~.~.~.~.~.~.~.~.~.~.~.~.~.~.~.~.~.~.~.~.~.~.~.~.~.~.~.~.~.~.~.~.~.~.~.~.~.~.~.~.~.~.~.~.~.~.~.~.~.~.~.~.~.~.~.~.~.~.~.~.~.~.~.~.",
"~.~.~.~.~.~.~.~.~.~.~.~.~.~.~.~.~.~.~.~.~.~.~.~.~.~.~.~.~.~.~.~.~.~.~.~.~.~.~.~.~.~.~.~.~.~.~.~.~.~.~.~.~.~.~.~.~.~.~.~.~.~.~.~.",
"~.~.~.~.~.~.~.~.~.~.~.~.~.~.~.~.~.~.~.~.~.~.~.~.~.~.~.~.~.~.~.~.~.~.~.~.~.~.~.~.~.~.~.~.~.~.~.~.~.~.~.~.~.~.~.~.~.~.~.~.~.~.~.~.",
"~.~.~.~.~.~.~.~.~.~.~.~.~.~.~.~.~.~.~.~.~.~.~.~.~.~.~.~.~.~.~.~.~.~.~.~.~.~.~.~.~.~.~.~.~.~.~.~.~.~.~.~.~.~.~.~.~.~.~.~.~.~.~.~.",
"~.~.~.~.~.~.~.~.~.~.~.~.~.~.~.~.~.~.~.~.~.~.~.~.~.~.~.~.~.~.~.~.~.~.~.~.~.~.~.~.~.~.~.~.~.~.~.~.~.~.~.~.~.~.~.~.~.~.~.~.~.~.~.~.",
"~.~.~.~.~.~.~.~.~.~.~.~.~.~.~.~.~.~.~.~.~.~.~.~.~.~.~.~.~.~.~.~.~.~.~.~.~.~.~.~.~.~.~.~.~.~.~.~.~.~.~.~.~.~.~.~.~.~.~.~.~.~.~.~.",
"~.~.~.~.~.~.~.~.~.~.~.~.~.~.~.~.~.~.~.~.~.~.~.~.~.~.~.~.~.~.~.~.~.~.~.~.~.~.~.~.~.~.~.~.~.~.~.~.~.~.~.~.~.~.~.~.~.~.~.~.~.~.~.~.",
"~.~.~.~.~.~.~.~.~.~.~.~.~.~.~.~.~.~.~.~.~.                                            ~.~.~.~.~.~.~.~.~.~.~.~.~.~.~.~.~.~.~.~.~.",
"~.~.~.~.~.~.~.~.~.~.~.~.~.~.~.~.~.~.~.~.~.                                            ~.~.~.~.~.~.~.~.~.~.~.~.~.~.~.~.~.~.~.~.~.",
"~.~.~.~.~.~.~.~.~.~.~.~.~.~.~.~.~.        @ < 8 @.} p.C.N.G.G.G.G.G.G.G.M.M.i.u.8.} ) *         ~.~.~.~.~.~.~.~.~.~.~.~.~.~.~.~.",
"~.~.~.~.~.~.~.~.~.~.~.~.~.~.~.~.~.        % 7 9 &.&.Z.L.I.R.R.R.R.R.R.R.L.L.n.x.h.;.&.-         ~.~.~.~.~.~.~.~.~.~.~.~.~.~.~.~.",
"~.~.~.~.~.~.~.~.~.~.~.~.~.~.~.~.X + + p p s { O.s.s.F.U.U.R.R.R.R.H.j.j.v.l.S.S.s.E E B t t 0 0 ~.~.~.~.~.~.~.~.~.~.~.~.~.~.~.~.",
"~.~.~.~.~.~.~.~.~.~.~.~.~.~.    + 7 7 L.L.U.R.R.R.R.R.R.R.R.R.R.R.t.n n &.&.Z.R.n.m n 0.x.a.&.&.      ~.~.~.~.~.~.~.~.~.~.~.~.~.",
"~.~.~.~.~.~.~.~.~.~.~.~.~.~.    + 7 7 L.L.U.R.R.R.R.R.R.R.R.R.R.R.8.n n &.&.Z.R.z.D n 0.x.a.&.&.      ~.~.~.~.~.~.~.~.~.~.~.~.~.",
"~.~.~.~.~.~.~.~.~.~.~.~.    , 7 [ L.L.R.R.R.R.R.R.R.R.R.R.R.R.R.R.W.!.!.7 7 r.L.T.!.!.i   a R.R.7 7 %     ~.~.~.~.~.~.~.~.~.~.~.",
"~.~.~.~.~.~.~.~.~.~.~.~.    , 7 [ L.L.R.R.R.R.R.R.R.R.R.R.R.R.R.R.W.!.!.7 7 r.J.T.!.!.i   a R.R.7 7 %     ~.~.~.~.~.~.~.~.~.~.~.",
"~.~.~.~.~.~.~.~.~.~.~.~.    [ #.i.U.U.R.R.R.R.R.R.R.R.R.R.R.R.R.R.C.y.y.+ + ..L.V.y.y.>   a R.R.#.#.y     ~.~.~.~.~.~.~.~.~.~.~.",
"~.~.~.~.~.~.~.~.~.~.~.~.    o.l.S.R.R.R.R.R.R.R.R.R.R.R.R.R.R.R.R.t.n n     ..L.k.n n $   a R.R.x.x.s     ~.~.~.~.~.~.~.~.~.~.~.",
"~.~.~.~.~.~.~.~.~.~.~.~.X X o.c.S.R.R.R.R.R.R.R.R.R.R.R.R.R.R.R.R.t.Z Z     ..L.z.Z Z $   a R.R.c.c.V . . ~.~.~.~.~.~.~.~.~.~.~.",
"~.~.~.~.~.~.~.~.~.    $ n n k.L.L.L.L.R.R.R.R.R.R.R.R.R.R.R.R.R.R.l.&.&.    5.R.H.&.&.-   a R.R.R.R.X.7 <     ~.~.~.~.~.~.~.~.~.",
"~.~.~.~.~.~.~.~.~.    $ n n k.L.L.L.L.R.R.R.R.R.R.R.R.R.R.R.R.R.R.z.&.&.    5.R.H.&.&.-   a R.R.R.R.X.7 <     ~.~.~.~.~.~.~.~.~.",
"~.~.~.~.~.~.~.~.~.    - _ _ v.L.L.R.Y.R.R.R.R.R.R.R.R.R.K.3.3.3.3.e.d.d.    5.R.K.d.d.:   r 3.3.R.R.p.G H     ~.~.~.~.~.~.~.~.~.",
"~.~.~.~.~.~.~.~.~.    - &.;.n.L.I.R.R.R.R.R.R.R.R.R.R.R.m.,.>.>.>.e.x.x.    5.R.I.x.x.;   e >.>.R.R.l.;.+.    ~.~.~.~.~.~.~.~.~.",
"~.~.~.~.~.~.~.~.~.    : 9.9.c.A.L.R.R.R.R.R.R.R.R.R.R.Y.K.g.g.g.g.b.S.S.a a 6.R.Y.S.S. .a | g.g.R.Y.h.;.+.    ~.~.~.~.~.~.~.~.~.",
"~.~.~.~.~.~.~.~.~.    ; x.x.x.x.A.R.R.R.R.R.R.R.R.R.I.L.I.R.R.R.R.R.R.R.R.R.R.R.R.R.R.R.R.R.R.R.R.R.l.&.+.    ~.~.~.~.~.~.~.~.~.",
"~.~.~.~.~.~.~.~.~.    ; x.x.x.x.A.R.R.R.R.R.R.R.R.R.I.L.I.R.R.R.R.R.R.R.R.R.R.R.R.R.R.R.R.R.R.R.R.R.l.&.+.    ~.~.~.~.~.~.~.~.~.",
"~.~.~.~.~.~.~.~.~.    ; x.x.w.;.s.R.R.R.R.R.R.R.L.L.n.x.n.R.R.R.R.R.R.R.R.R.R.R.V.F F D.R.R.R.R.R.R.J.f.8.    ~.~.~.~.~.~.~.~.~.",
"~.~.~.~.~.~.~.~.~.    0 x.x.:.&.s.R.R.R.R.R.R.R.L.L.n.x.n.R.R.R.R.R.R.R.R.R.R.R.V.n n V.R.R.R.R.R.R.J.x.u.    ~.~.~.~.~.~.~.~.~.",
"~.~.~.~.~.~.~.~.~.    : q.q.@.T 7.J.J.U.U.I.U.I.A.A.d.q.h.R.R.R.R.R.R.R.R.R.R.R.H.7.7.D.U.U.U.U.J.J.s.$.J     ~.~.~.~.~.~.~.~.~.",
"~.~.~.~.~.~.~.~.~.    - &.&.T n ) x.x.J.L.L.L.J.x.x.w.&.0.R.R.R.R.R.R.R.R.R.R.R.Y.L.L.L.L.L.L.L.x.x.$.n j     ~.~.~.~.~.~.~.~.~.",
"~.~.~.~.~.~.~.~.~.    = @.@.T n E d.d.F.F.F.F.A.f.d.*.%.0.R.Y.R.Y.R.R.R.Y.R.R.R.U.L.L.L.L.L.L.L.x.x.%.m k     ~.~.~.~.~.~.~.~.~.",
"~.~.~.~.~.~.~.~.~.    o 7 7 G &.E n n &.&.&.&.&.&.&.T n R L.L.L.L.L.L.L.L.L.L.L.L.L.L.L.L.L.L.L.x.x.H 7 <     ~.~.~.~.~.~.~.~.~.",
"~.~.~.~.~.~.~.~.~.    o 7 7 R &.) n n &.&.&.&.&.&.&.T n W J.L.L.L.L.L.L.L.L.L.L.L.L.L.L.L.L.L.L.x.x.H 7 <     ~.~.~.~.~.~.~.~.~.",
"~.~.~.~.~.~.~.~.~.~.~.. + + v T W E E T T T T T T T n n m [ [ [ C } [ [ $.$.7.a.s.n.n.n.n.n.n.n._ @.u + + ~.~.~.~.~.~.~.~.~.~.~.",
"~.~.~.~.~.~.~.~.~.~.~.~.    h n T &.&.n n n n n n n n n x 7 7 7 7 7 7 7 n n E ;.w.x.x.x.x.x.x.x.n n 0     ~.~.~.~.~.~.~.~.~.~.~.",
"~.~.~.~.~.~.~.~.~.~.~.~.    q h v G G A A A A A x x N T D b b ] ] B b b I I ( ` ' =.=.0.0.0.q.0.h h 1     ~.~.~.~.~.~.~.~.~.~.~.",
"~.~.~.~.~.~.~.~.~.~.~.~.~.~.    + 7 7 &.&.&.&.@.7 7 Q >.2.L.L.Q.!.E.L.L.>.>.! U M 7 7 x n n n n       ~.~.~.~.~.~.~.~.~.~.~.~.~.",
"~.~.~.~.~.~.~.~.~.~.~.~.~.~.    + 7 7 &.&.&.&.@.7 8 Q >.2.L.L.Q.!.E.L.L.>.>.! U M 7 7 x n n n n       ~.~.~.~.~.~.~.~.~.~.~.~.~.",
"~.~.~.~.~.~.~.~.~.~.~.~.~.~.~.~.~.. . O O 2 9 w l l ~ >.>.<.<.2.2.2.<.<.>.>./ / ^ L L 6 8 , X X ~.~.~.~.~.~.~.~.~.~.~.~.~.~.~.~.",
"~.~.~.~.~.~.~.~.~.~.~.~.~.~.~.~.~.        % 7 5 z z ~ >.>.>.>.>./ >.>.>.>.>.>.>.^ U U d 7 ,     ~.~.~.~.~.~.~.~.~.~.~.~.~.~.~.~.",
"~.~.~.~.~.~.~.~.~.~.~.~.~.~.~.~.~.        + & , f f P ! ! ! ! ! ! ! ! ! ! ! ! ! Y K K 4 , +     ~.~.~.~.~.~.~.~.~.~.~.~.~.~.~.~.",
"~.~.~.~.~.~.~.~.~.~.~.~.~.~.~.~.~.~.~.~.~.    . 7 7 l z z z z z z z z z z z z z z z z #     ~.~.~.~.~.~.~.~.~.~.~.~.~.~.~.~.~.~.",
"~.~.~.~.~.~.~.~.~.~.~.~.~.~.~.~.~.~.~.~.~.    . 7 7 f z z z z z z z z z z z z z z z z #     ~.~.~.~.~.~.~.~.~.~.~.~.~.~.~.~.~.~.",
"~.~.~.~.~.~.~.~.~.~.~.~.~.~.~.~.~.~.~.~.~.~.~.~.                                      ~.~.~.~.~.~.~.~.~.~.~.~.~.~.~.~.~.~.~.~.~.",
"~.~.~.~.~.~.~.~.~.~.~.~.~.~.~.~.~.~.~.~.~.~.~.~.                                      ~.~.~.~.~.~.~.~.~.~.~.~.~.~.~.~.~.~.~.~.~.",
"~.~.~.~.~.~.~.~.~.~.~.~.~.~.~.~.~.~.~.~.~.~.~.~.~.~.~.~.~.~.~.~.~.~.~.~.~.~.~.~.~.~.~.~.~.~.~.~.~.~.~.~.~.~.~.~.~.~.~.~.~.~.~.~.",
"~.~.~.~.~.~.~.~.~.~.~.~.~.~.~.~.~.~.~.~.~.~.~.~.~.~.~.~.~.~.~.~.~.~.~.~.~.~.~.~.~.~.~.~.~.~.~.~.~.~.~.~.~.~.~.~.~.~.~.~.~.~.~.~.",
"~.~.~.~.~.~.~.~.~.~.~.~.~.~.~.~.~.~.~.~.~.~.~.~.~.~.~.~.~.~.~.~.~.~.~.~.~.~.~.~.~.~.~.~.~.~.~.~.~.~.~.~.~.~.~.~.~.~.~.~.~.~.~.~.",
"~.~.~.~.~.~.~.~.~.~.~.~.~.~.~.~.~.~.~.~.~.~.~.~.~.~.~.~.~.~.~.~.~.~.~.~.~.~.~.~.~.~.~.~.~.~.~.~.~.~.~.~.~.~.~.~.~.~.~.~.~.~.~.~.",
"~.~.~.~.~.~.~.~.~.~.~.~.~.~.~.~.~.~.~.~.~.~.~.~.~.~.~.~.~.~.~.~.~.~.~.~.~.~.~.~.~.~.~.~.~.~.~.~.~.~.~.~.~.~.~.~.~.~.~.~.~.~.~.~.",
"~.~.~.~.~.~.~.~.~.~.~.~.~.~.~.~.~.~.~.~.~.~.~.~.~.~.~.~.~.~.~.~.~.~.~.~.~.~.~.~.~.~.~.~.~.~.~.~.~.~.~.~.~.~.~.~.~.~.~.~.~.~.~.~.",
"~.~.~.~.~.~.~.~.~.~.~.~.~.~.~.~.~.~.~.~.~.~.~.~.~.~.~.~.~.~.~.~.~.~.~.~.~.~.~.~.~.~.~.~.~.~.~.~.~.~.~.~.~.~.~.~.~.~.~.~.~.~.~.~.",
"~.~.~.~.~.~.~.~.~.~.~.~.~.~.~.~.~.~.~.~.~.~.~.~.~.~.~.~.~.~.~.~.~.~.~.~.~.~.~.~.~.~.~.~.~.~.~.~.~.~.~.~.~.~.~.~.~.~.~.~.~.~.~.~.",
"~.~.~.~.~.~.~.~.~.~.~.~.~.~.~.~.~.~.~.~.~.~.~.~.~.~.~.~.~.~.~.~.~.~.~.~.~.~.~.~.~.~.~.~.~.~.~.~.~.~.~.~.~.~.~.~.~.~.~.~.~.~.~.~.",
"~.~.~.~.~.~.~.~.~.~.~.~.~.~.~.~.~.~.~.~.~.~.~.~.~.~.~.~.~.~.~.~.~.~.~.~.~.~.~.~.~.~.~.~.~.~.~.~.~.~.~.~.~.~.~.~.~.~.~.~.~.~.~.~.",
"~.~.~.~.~.~.~.~.~.~.~.~.~.~.~.~.~.~.~.~.~.~.~.~.~.~.~.~.~.~.~.~.~.~.~.~.~.~.~.~.~.~.~.~.~.~.~.~.~.~.~.~.~.~.~.~.~.~.~.~.~.~.~.~."
};
