/* XPM */
static char *result[] = {
/* columns rows colors chars-per-pixel */
"64 64 176 2 ",
"   c black",
".  c #0B0202",
"X  c #150406",
"o  c #190404",
"O  c #1C090E",
"+  c #240606",
"@  c #2D080E",
"#  c #23070B",
"$  c #310808",
"%  c #3E0A0A",
"&  c #37121C",
"*  c #3B141F",
"=  c #3C0B13",
"-  c #3D1C29",
";  c #3A1723",
":  c #4A0C0C",
">  c #560E0E",
",  c #430C15",
"<  c #4A0F18",
"1  c #550F1A",
"2  c #55131C",
"3  c #710019",
"4  c #631010",
"5  c #6D1215",
"6  c #72171C",
"7  c #78141A",
"8  c #531B2B",
"9  c #5D1220",
"0  c #4B1725",
"q  c #7C0026",
"w  c #711423",
"e  c #7C1E32",
"r  c #592538",
"t  c #5C2A3E",
"y  c #6F2439",
"u  c #622335",
"i  c #7A3849",
"p  c #603D53",
"a  c #7B3852",
"s  c #7E445E",
"d  c #7D4C68",
"f  c #820A19",
"g  c #96061F",
"h  c #960620",
"j  c #9E0024",
"k  c #980A24",
"l  c #841C2A",
"z  c #88182B",
"x  c #880134",
"c  c #9E1C32",
"v  c #A20629",
"b  c #B50029",
"n  c #B9002E",
"m  c #B50C2F",
"M  c #AA0639",
"N  c #BD0033",
"B  c #BA0932",
"V  c #AB1E34",
"C  c #B52039",
"Z  c #A42139",
"A  c #C5003D",
"S  c #8B2D48",
"D  c #8C2B42",
"F  c #9F2943",
"G  c #9A3447",
"H  c #923A57",
"J  c #BA2540",
"K  c #BF2A47",
"L  c #AF334E",
"P  c #A3314C",
"I  c #BE304D",
"U  c #A73756",
"Y  c #BF3B5A",
"T  c #BF1263",
"R  c #BF2B73",
"E  c #CA0143",
"W  c #C71947",
"Q  c #D60052",
"!  c #DB0358",
"~  c #DC0C59",
"^  c #C7165A",
"/  c #D41B56",
"(  c #C42F4F",
")  c #C93456",
"_  c #C53757",
"`  c #EA0C6B",
"'  c #E31B68",
"]  c #DE286D",
"[  c #C93865",
"{  c #D43E64",
"}  c #F32A7D",
"|  c #804B66",
" . c #9A4666",
".. c #80516F",
"X. c #BB6171",
"o. c #C44064",
"O. c #CE4266",
"+. c #C04C6D",
"@. c #D9446C",
"#. c #D24A6E",
"$. c #DE4973",
"%. c #D54E74",
"&. c #D15176",
"*. c #DB567F",
"=. c #E14E79",
"-. c #E1547F",
";. c #FF1884",
":. c #FF3493",
">. c #FF3A9A",
",. c #F33C88",
"<. c #B65D81",
"1. c #AD6087",
"2. c #BF7AA7",
"3. c #CF478D",
"4. c #D35A82",
"5. c #E35481",
"6. c #E75986",
"7. c #E75E8C",
"8. c #EA5D8C",
"9. c #FF439B",
"0. c #F45797",
"q. c #C3658E",
"w. c #DA618B",
"e. c #D27386",
"r. c #C96E96",
"t. c #D86391",
"y. c #DF6995",
"u. c #ED6393",
"i. c #EB6B9B",
"p. c #E36794",
"a. c #F16798",
"s. c #F26C9E",
"d. c #EA719E",
"f. c #FF4CA6",
"g. c #FF53A8",
"h. c #D87EAB",
"j. c #D67DAE",
"k. c #F66BA1",
"l. c #E471A0",
"z. c #E979AB",
"x. c #E679A9",
"c. c #F771A5",
"v. c #F875A9",
"b. c #F879AD",
"n. c #FF65B6",
"m. c #EB7CB0",
"M. c #FA7DB1",
"N. c #F87DB5",
"B. c #B18587",
"V. c #E3819F",
"C. c #EC82AF",
"Z. c #ED81B4",
"A. c #F481B5",
"S. c #FB84BA",
"D. c #FB89BC",
"F. c #F983B7",
"G. c #C4A3A5",
"H. c #DF8EC2",
"J. c #F78CC3",
"K. c #FC8BC1",
"L. c #FC8FC9",
"P. c #EC90C5",
"I. c #FF92C6",
"U. c #F692C9",
"Y. c #FD94CB",
"T. c #FF98CF",
"R. c #FB97D1",
"E. c #FF9BD4",
"W. c #FF9FD9",
"Q. c #FFA2DE",
"!. c #FFC2E0",
"~. c #EBDEE1",
"^. c #FFD3E9",
"/. c #FFF0FB",
"(. c #FFFBFF",
"). c None",
/* pixels */
").).).).).).).).).).).).).).).).).).).).).).).).).).).).).).).).).).).).).).).).).).).).).).).).).).).).).).).).).).).).).).).).",
").).).).).).).).).).).).).).).).).).).).).).).).).).).).).).).).).).).).).).).).).).).).).).).).).).).).).).).).).).).).).).).).",
").).).).).).).).).).).).).).).).).).).).).).).).).).).).).).).).).).).).).).).).).).).).).).).).).).).).).).).).).).).).).).).).",
").).).).).).).).).).).).).).).).).).).).).).).).).).).).).).).).).).).).).).).).).).).).).).).).).).).).).).).).).).).).).).).).",
").).).).).).).).).).).).).).).).).).).).).).).).).).).).).).).).).).).).).).).).).).).).).).).).).).).).).).).).).).).).).).).).",
").).).).).).).).).).).).).).).).).).).).).).).).).).).).).).).).).).).).).).).).).).).).).).).).).).).).).).).).).).).).).).).).",
").).).).).).).).).).).).).).).).).).).).).).).).).).).).).).).).).).).).).).).).).).).).).).).).).).).).).).).).).).).).).).).).",
").).).).).).).).).).).).).).).).).).).).).).).).).).).).).).).).).).).).).).).).).).).).).).).).).).).).).).).).).).).).).).).).",
").).).).).).).).).).).).).).).).).).).).).).).).).).).).).).).).).).).).).).).).).).).).).).).).).).).).).).).).).).).).).).).).",
").).).).).).).).).).).).).).).).).).).).).).).).).).).).).).).).).).).).).).).).).).).).).).).).).).).).).).).).).).).).).).).).",
").).).).).).).).).).).).).).).).).).).).).).).).).).).).).).).).).).).).).).).).).).).).).).).).).).).).).).).).).).).).).).).).",
").).).).).).).).).).).).).).).).).).).).).).).).).).).).).).).).).).).).).).).).).).).).).).).).).).).).).).).).).).).).).).).).",
").).).).).).).).).).).).).).).).).).).).).).).).                                ).).).).).).).).).).).).).).).).).).).).).).).).",
").).).).).).).).).).).).).).).).).).).).).).).                                  ).).).).).).).).).).).).).).).).).).).).).).).).",
").).).).).).).).).).).).).).).).).).).).).).).X o o @ @ & & ; - - - - ; & & @ @ @ ).).).).).).).).).).).).).).).).).).).).).).).",
").).).).).).).).).).).).).).).).).).).        $ 4 5 C C { $.5.c.c.c.c.8.$.$.C C ,         ).).).).).).).).).).).).).).).).).).).",
").).).).).).).).).).).).).).).).).).).        $ 4 5 C C O.=.5.c.c.c.c.8.$.$.C C ,         ).).).).).).).).).).).).).).).).).).).",
").).).).).).).).).).).).).).).).    + > > t.t.x.P.P.U.U.U.T.R.E.E.E.W.E.R.R.U.U.P.H.j.c V #     ).).).).).).).).).).).).).).).).",
").).).).).).).).).).).).).).).).    + 4 4 c.c.J.Q.Q.Q.Q.Q.Q.Q.Q.Q.Q.Q.Q.Q.Q.Q.Q.Q.Q.U.C C @     ).).).).).).).).).).).).).).).).",
").).).).).).).).).).).).).).).).+ + 2 G G S.S.Y.Q.Q.Q.Q.Q.Q.Q.Q.Q.z.l.z.A.A.Q.Q.Z.l.p.( ( < + o ).).).).).).).).).).).).).).).).",
").).).).).).).).).).).).).).    : 4 G c.c.Q.Q.Q.Q.Q.Q.Q.Q.Q.Q.Q.Q.I C _ $.$.Q.Q.&.C J $.$.l 4 %     ).).).).).).).).).).).).).).",
").).).).).).).).).).).).).).    : 4 G c.c.Q.Q.Q.Q.Q.Q.Q.Q.Q.Q.Q.Q.I C ) $.$.Q.Q.&.C J $.$.e 4 %     ).).).).).).).).).).).).).).",
").).).).).).).).).).).).).).    U $.i.Q.Q.Q.Q.Q.Q.Q.Q.Q.Q.Q.Q.Q.Q./.(.B.4 4 I.I.^.(.~.4 4 4.c. .    ).).).).).).).).).).).).).).",
").).).).).).).).).).).).).).    U $.i.Q.Q.Q.Q.Q.Q.Q.Q.Q.Q.Q.Q.Q.Q./.(.B.4 4 I.I.^.(.~.4 4 4.c. .    ).).).).).).).).).).).).).).",
").).).).).).).).).).).).  o % % q.A.J.Q.Q.Q.Q.Q.Q.Q.Q.Q.Q.Q.Q.Q.Q.e.e.i + + I.I.C.X.X.+ + r.Y.<.% % .   ).).).).).).).).).).).).",
").).).).).).).).).).).    o 4 4 j.Q.Q.Q.Q.Q.Q.Q.Q.Q.Q.Q.Q.Q.Q.Q.Q.I C 1     I.I.#.C Z     V.Q.r.4 4 .     ).).).).).).).).).).).",
").).).).).).).).).).).    # 6 6 j.Q.Q.Q.Q.Q.Q.Q.Q.Q.Q.Q.Q.Q.Q.Q.Q._ J 9     Y.Y.&.J F     2.Q.r.6 6 .     ).).).).).).).).).).).",
").).).).).).).).).).).    & $.$.J.Q.Q.Q.Q.Q.Q.Q.Q.Q.Q.Q.Q.Q.Q.Q.Q.5.$.y     Q.Q.i.$.[     2.Q.A.$.$.O     ).).).).).).).).).).).",
").).).).).).).).).).).    & $.$.J.Q.Q.Q.Q.Q.Q.Q.Q.Q.Q.Q.Q.Q.Q.Q.Q.5.$.y     Q.Q.i.$.Y     2.Q.N.$.$.O     ).).).).).).).).).).).",
").).).).).).).).).    1 z P F.A.R.Q.Q.Q.Q.Q.Q.Q.Q.Q.Q.Q.g.>.>.>.>.0.a.i     Q.Q.N.a.4.    R >.,.$.$.O     ).).).).).).).).).).).",
").).).).).).).).).    w C _ Y.I.Q.Q.Q.Q.Q.Q.Q.Q.Q.Q.Q.Q.>.;.;.;.;.k.c.a     Q.Q.S.c.t.    T ;.} $.$.O     ).).).).).).).).).).).",
").).).).).).).).).    e ( #.R.T.W.Q.Q.Q.Q.E.E.Q.Q.Q.Q.Q.n.f.f.f.f.N.S.1.p p Q.Q.Y.S.m.p p 3.f.0.6.6.u 8 * ).).).).).).).).).).).",
").).).).).).).).).    S $.7.Q.Q.Q.Q.Q.Q.Q.I.I.E.Q.Q.Q.Q.Q.Q.Q.Q.Q.Q.Q.Q.Q.Q.Q.Q.Q.Q.Q.Q.Q.Q.Q.L.c.c.=.$.y     ).).).).).).).).).",
").).).).).).).).).    S $.7.Q.Q.Q.Q.Q.Q.Q.I.I.R.Q.Q.Q.Q.Q.Q.Q.Q.Q.Q.Q.Q.Q.Q.Q.Q.Q.Q.Q.Q.Q.Q.Q.Y.c.c.=.$.y     ).).).).).).).).).",
").).).).).).).).).     .s.b.Q.Q.Q.Q.Q.Q.Q.v.v.S.I.T.Q.Q.Q.Q.Q.Q.Q.Q.Q.Q.Q.Q.Q.Q.*.I o.Q.Q.Q.Q.J.c.c.F.D.|     ).).).).).).).).).",
").).).).).).).).).     .c.M.Q.Q.Q.Q.Q.Q.Q.c.c.F.I.I.Q.Q.Q.Q.Q.Q.Q.Q.Q.Q.Q.Q.Q.Q.&.C I Q.Q.Q.Q.I.c.c.K.I.|     ).).).).).).).).).",
").).).).).).).).).    H 8.i.W.R.Q.Q.W.T.T.7.8.u.i.d.D.K.T.E.W.Q.Q.Q.Q.Q.Q.Q.Q.Q.x.w.y.Q.Q.E.E.F.8.8.Y.R.|     ).).).).).).).).).",
").).).).).).).).).    S $.6.I.I.W.Q.E.I.K.=.=.@.=.=.c.c.D.I.Y.Q.Q.Q.Q.W.Q.Q.Q.Q.Q.Q.Q.Q.Q.T.I.v.$.$.R.Q...    ).).).).).).).).).",
").).).).).).).).).    S @.5.D.D.T.W.Y.D.F.@.@.@.@.$.p.p.z.C.Z.U.U.U.U.R.R.R.E.W.W.Q.Q.Q.Q.I.D.d.O.O.J.R.d     ).).).).).).).).).",
").).).).).).).).).    w C K $.$.a.c.u.$.=.C C C C V 4 4 4 4 7 C C C C ) $.$.c.c.F.I.I.I.I.b.c.+.4 4 O.$.y     ).).).).).).).).).",
").).).).).).).).).    w C K $.$.a.c.u.$.$.C C C C V 4 4 4 4 7 C C C C ) %.$.c.c.F.I.I.I.I.b.c.+.4 4 { =.y     ).).).).).).).).).",
").).).).).).).).).).).= , < 8 8 r t r 8 8 m B W ' ] G.G.[ ^ ^ ' ' ' ' / W W 6.6.c.M.M.M.M.%.{ D + + 0 8 * ).).).).).).).).).).).",
").).).).).).).).).).).                    b b ~ ;.:.(.(.f.;.;.;.;.;.;.~ n b $.$.u.c.c.c.c.) C w           ).).).).).).).).).).).",
").).).).).).).).).).).                    N N ~ ;.:.!.!.9.;.;.;.;.;.;.~ N N Y _ *.a.a.7.7.F z 1         ).).).).).).).).).).).).",
").).).).).).).).).).).).).).).).).).).    Q Q ` ;.;.;.;.;.;.;.;.;.;.;.` Q Q 4 4 L $.@.C C @     ).).).).).).).).).).).).).).).).",
").).).).).).).).).).).).).).).).).).).    Q Q ` ;.;.;.;.;.;.;.;.;.;.;.` Q Q 4 4 L $.@.C C @     ).).).).).).).).).).).).).).).).",
").).).).).).).).).).).).).).).).).).).    n n E ! ! ! ! ! ! ! ! ! ! ! E n n > 4 g B v X X ).).).).).).).).).).).).).).).).).).).",
").).).).).).).).).).).).).).).).).).).    b b A Q Q Q Q Q Q Q Q Q Q Q E b b 4 4 g b v     ).).).).).).).).).).).).).).).).).).).",
").).).).).).).).).).).).).).).).).).).    3 3 q x x M M M M M M M M M v h h f f v b j     ).).).).).).).).).).).).).).).).).).).",
").).).).).).).).).).).).).).).).).).).).).        . 4 4 4 4 4 4 4 4 4 4 4 4 b b b b j     ).).).).).).).).).).).).).).).).).).).",
").).).).).).).).).).).).).).).).).).).).).        . 4 4 4 4 4 4 4 4 4 4 4 4 b b b b j     ).).).).).).).).).).).).).).).).).).).",
").).).).).).).).).).).).).).).).).).).).).).).).).).                                  ).).).).).).).).).).).).).).).).).).).).).",
").).).).).).).).).).).).).).).).).).).).).).).).).).                                  ).).).).).).).).).).).).).).).).).).).).).",
").).).).).).).).).).).).).).).).).).).).).).).).).).).).).).).).).).).).).).).).).).).).).).).).).).).).).).).).).).).).).).).).",
").).).).).).).).).).).).).).).).).).).).).).).).).).).).).).).).).).).).).).).).).).).).).).).).).).).).).).).).).).).).).).).).",
").).).).).).).).).).).).).).).).).).).).).).).).).).).).).).).).).).).).).).).).).).).).).).).).).).).).).).).).).).).).).).).).",
").).).).).).).).).).).).).).).).).).).).).).).).).).).).).).).).).).).).).).).).).).).).).).).).).).).).).).).).).).).).).).).).",
").).).).).).).).).).).).).).).).).).).).).).).).).).).).).).).).).).).).).).).).).).).).).).).).).).).).).).).).).).).).).).).).",
").).).).).).).).).).).).).).).).).).).).).).).).).).).).).).).).).).).).).).).).).).).).).).).).).).).).).).).).).).).).).).).).",
").).).).).).).).).).).).).).).).).).).).).).).).).).).).).).).).).).).).).).).).).).).).).).).).).).).).).).).).).).).).).).).).",
").).).).).).).).).).).).).).).).).).).).).).).).).).).).).).).).).).).).).).).).).).).).).).).).).).).).).).).).).).).).).).).).",
").).).).).).).).).).).).).).).).).).).).).).).).).).).).).).).).).).).).).).).).).).).).).).).).).).).).).).).).).).).).).).).).",
").).).).).).).).).).).).).).).).).).).).).).).).).).).).).).).).).).).).).).).).).).).).).).).).).).).).).).).).).).).).).).).).",
").).).).).).).).).).).).).).).).).).).).).).).).).).).).).).).).).).).).).).).).).).).).).).).).).).).).).).).).).).).).).).).)."
};
