/* XPM */
static char *result[] = {
/* columns rows colors chars-per-pixel */
"64 64 179 2 ",
"   c black",
".  c #0C0203",
"X  c #160407",
"o  c #190404",
"O  c #190609",
"+  c #1C090E",
"@  c #1F0E14",
"#  c #1F1219",
"$  c #240506",
"%  c #240209",
"&  c #2D000A",
"*  c #2D080E",
"=  c #32090B",
"-  c #3E0A0A",
";  c #3D0B12",
":  c #20141C",
">  c #37121C",
",  c #3C1019",
"<  c #2A0E15",
"1  c #570E0E",
"2  c #440C15",
"3  c #4C0812",
"4  c #5A0014",
"5  c #5A101C",
"6  c #43090C",
"7  c #6E0E13",
"8  c #710019",
"9  c #710E18",
"0  c #631010",
"q  c #6D1215",
"w  c #72171C",
"e  c #531B2B",
"r  c #511927",
"t  c #451724",
"y  c #402837",
"u  c #5C2A3E",
"i  c #5A2639",
"p  c #672131",
"a  c #502F41",
"s  c #732F47",
"d  c #7B3852",
"f  c #820A19",
"g  c #8D081E",
"h  c #8A041D",
"j  c #96061F",
"k  c #880B24",
"l  c #960620",
"z  c #96092A",
"x  c #821E29",
"c  c #841725",
"v  c #961A2A",
"b  c #94162A",
"n  c #9C0831",
"m  c #9E1C32",
"M  c #9D133C",
"N  c #AA0226",
"B  c #A2062A",
"V  c #B50029",
"C  c #B5082D",
"Z  c #B5012B",
"A  c #AA0639",
"S  c #BE0234",
"D  c #AA1E34",
"F  c #942637",
"G  c #B52039",
"H  c #C3033A",
"J  c #800C42",
"K  c #8B2D48",
"L  c #872C45",
"P  c #802653",
"I  c #A02C41",
"U  c #BD2A46",
"Y  c #BE2E4B",
"T  c #BE304D",
"R  c #A73756",
"E  c #B73D57",
"W  c #BD2A56",
"Q  c #9F3169",
"!  c #CB0644",
"~  c #C41B44",
"^  c #D60052",
"/  c #C41558",
"(  c #C21355",
")  c #D11D55",
"_  c #E0065E",
"`  c #C42F4F",
"'  c #CD2D57",
"]  c #CE395E",
"[  c #E30F62",
"{  c #EF0F71",
"}  c #FA157E",
"|  c #F61579",
" . c #DA3E75",
".. c #9D475D",
"X. c #974565",
"o. c #80516F",
"O. c #A94366",
"+. c #BA4C71",
"@. c #B6547A",
"#. c #AD597D",
"$. c #C6455F",
"%. c #C44064",
"&. c #CE4266",
"*. c #C7476E",
"=. c #D9446C",
"-. c #D6486F",
";. c #D1476D",
":. c #DE4973",
">. c #CB5074",
",. c #D15176",
"<. c #E14E7A",
"1. c #E4537F",
"2. c #FD1781",
"3. c #FF1884",
"4. c #FF288E",
"5. c #FF3493",
"6. c #FF3A9A",
"7. c #BD5C83",
"8. c #BF7AA7",
"9. c #E75886",
"0. c #E65F8D",
"q. c #EA5D8C",
"w. c #E45380",
"e. c #DB618B",
"r. c #D76793",
"t. c #CA7D8C",
"y. c #ED6393",
"u. c #EA6B9B",
"i. c #E4699C",
"p. c #F06798",
"a. c #F46C9F",
"s. c #FF4CA6",
"d. c #FF51A3",
"f. c #FF51A8",
"g. c #D67EAE",
"h. c #F36FA2",
"j. c #E471A0",
"k. c #EE75A8",
"l. c #E879AA",
"z. c #EA76A5",
"x. c #F771A5",
"c. c #F876AA",
"v. c #F979AD",
"b. c #FF6DB2",
"n. c #FF6EBC",
"m. c #F17FB1",
"M. c #F97DB2",
"N. c #FF7BC4",
"B. c #DA8D9C",
"V. c #CF84B5",
"C. c #EC81B5",
"Z. c #F380B6",
"A. c #F387BC",
"S. c #FC85B9",
"D. c #FB89BC",
"F. c #FB81B5",
"G. c #E895B5",
"H. c #EEA2B9",
"J. c #F78CC3",
"K. c #FA8BC3",
"L. c #FC8FC8",
"P. c #EB90C4",
"I. c #FF92C6",
"U. c #F692CA",
"Y. c #FE93CA",
"T. c #FF98CF",
"R. c #FC96D0",
"E. c #FF9CD5",
"W. c #FF9ED9",
"Q. c #FFA2DE",
"!. c #F9A2D0",
"~. c #FBB5DE",
"^. c #ECC4CE",
"/. c #FDC8E8",
"(. c #F5DFE6",
"). c #FFD9F2",
"_. c #FFFBFF",
"`. c #F6E0E6",
"'. c None",
/* pixels */
"'.'.'.'.'.'.'.'.'.'.'.'.'.'.'.'.'.'.'.'.'.'.'.'.'.'.'.'.'.'.'.'.'.'.'.'.'.'.'.'.'.'.'.'.'.'.'.'.'.'.'.'.'.'.'.'.'.'.'.'.'.'.'.'.",
"'.'.'.'.'.'.'.'.'.'.'.'.'.'.'.'.'.'.'.'.'.'.'.'.'.'.'.'.'.'.'.'.'.'.'.'.'.'.'.'.'.'.'.'.'.'.'.'.'.'.'.'.'.'.'.'.'.'.'.'.'.'.'.'.",
"'.'.'.'.'.'.'.'.'.'.'.'.'.'.'.'.'.'.'.'.'.'.'.'.'.'.'.'.'.'.'.'.'.'.'.'.'.'.'.'.'.'.'.'.'.'.'.'.'.'.'.'.'.'.'.'.'.'.'.'.'.'.'.'.",
"'.'.'.'.'.'.'.'.'.'.'.'.'.'.'.'.'.'.'.'.'.'.'.'.'.'.'.'.'.'.'.'.'.'.'.'.'.'.'.'.'.'.'.'.'.'.'.'.'.'.'.'.'.'.'.'.'.'.'.'.'.'.'.'.",
"'.'.'.'.'.'.'.'.'.'.'.'.'.'.'.'.'.'.'.'.'.'.'.'.'.'.'.'.'.'.'.'.'.'.'.'.'.'.'.'.'.'.'.'.'.'.'.'.'.'.'.'.'.'.'.'.'.'.'.'.'.'.'.'.",
"'.'.'.'.'.'.'.'.'.'.'.'.'.'.'.'.'.'.'.'.'.'.'.'.'.'.'.'.'.'.'.'.'.'.'.'.'.'.'.'.'.'.'.'.'.'.'.'.'.'.'.'.'.'.'.'.'.'.'.'.'.'.'.'.",
"'.'.'.'.'.'.'.'.'.'.'.'.'.'.'.'.'.'.'.'.'.'.'.'.'.'.'.'.'.'.'.'.'.'.'.'.'.'.'.'.'.'.'.'.'.'.'.'.'.'.'.'.'.'.'.'.'.'.'.'.'.'.'.'.",
"'.'.'.'.'.'.'.'.'.'.'.'.'.'.'.'.'.'.'.'.'.'.'.'.'.'.'.'.'.'.'.'.'.'.'.'.'.'.'.'.'.'.'.'.'.'.'.'.'.'.'.'.'.'.'.'.'.'.'.'.'.'.'.'.",
"'.'.'.'.'.'.'.'.'.'.'.'.'.'.'.'.'.'.'.'.'.'.'.'.'.'.'.'.'.'.'.'.'.'.'.'.'.'.'.'.'.'.'.'.'.'.'.'.'.'.'.'.'.'.'.'.'.'.'.'.'.'.'.'.",
"'.'.'.'.'.'.'.'.'.'.'.'.'.'.'.'.'.'.'.'.'.'.'.'.'.'.'.'.'.'.'.'.'.'.'.'.'.'.'.'.'.'.'.'.'.'.'.'.'.'.'.'.'.'.'.'.'.'.'.'.'.'.'.'.",
"'.'.'.'.'.'.'.'.'.'.'.'.'.'.'.'.'.'.'.'.'.'.'.'.'.'.'.'.'.'.'.'.'.'.'.'.'.'.'.'.'.'.'.'.'.'.'.'.'.'.'.'.'.'.'.'.'.'.'.'.'.'.'.'.",
"'.'.'.'.'.'.'.'.'.'.'.'.'.'.'.'.'.'.'.'.'.'.'.'.'.'.                                  '.'.'.'.'.'.'.'.'.'.'.'.'.'.'.'.'.'.'.'.'.",
"'.'.'.'.'.'.'.'.'.'.'.'.'.'.'.'.'.'.'.'.'.'.'.'.'.'.                                  '.'.'.'.'.'.'.'.'.'.'.'.'.'.'.'.'.'.'.'.'.",
"'.'.'.'.'.'.'.'.'.'.'.'.'.'.'.'.'.'.'.'.'.'.'.'.'.'.O X O + + @ @ # : # @ @ + + O X X '.'.'.'.'.'.'.'.'.'.'.'.'.'.'.'.'.'.'.'.'.",
"'.'.'.'.'.'.'.'.'.'.'.'.'.'.'.'.'.'.'.'.'.          m G ` :.:.x.x.L.Q.W.x.x.w.:.] G G X         '.'.'.'.'.'.'.'.'.'.'.'.'.'.'.'.",
"'.'.'.'.'.'.'.'.'.'.'.'.'.'.'.'.'.'.'.'.'.          m G ` :.:.x.x.L.Q.E.x.x.w.:.] G G X         '.'.'.'.'.'.'.'.'.'.'.'.'.'.'.'.",
"'.'.'.'.'.'.'.'.'.'.'.'.'.'.'.'.'.'.'.        < R R u.z.m.K.J.T.R.W.Q.W.R.R.J.J.P.C.m.7.>.a         '.'.'.'.'.'.'.'.'.'.'.'.'.'.",
"'.'.'.'.'.'.'.'.'.'.'.'.'.'.'.'.'.'.'.        > :.:.D.I.T.Q.Q.Q.Q.Q.Q.Q.Q.Q.Q.Q.W.Q.Q.c.x.d         '.'.'.'.'.'.'.'.'.'.'.'.'.'.",
"'.'.'.'.'.'.'.'.'.'.'.'.'.'.'.'.'.'.'.    > e s u.u.Y.T.E.Q.Q.Q.Q.C.j.z.L.L.W.Q.U.j.j.x.x.O.e t     '.'.'.'.'.'.'.'.'.'.'.'.'.'.",
"'.'.'.'.'.'.'.'.'.'.'.'.'.'.'.'.'.'.'.    K :.0.Q.Q.Q.Q.Q.Q.Q.Q.Q.,.G U x.x.T.Q.j.G G u.x.0.-.]     '.'.'.'.'.'.'.'.'.'.'.'.'.'.",
"'.'.'.'.'.'.'.'.'.'.'.'.'.'.'.'.'.'.'.    K :.0.Q.Q.Q.Q.Q.Q.Q.Q.Q.,.G U x.x.T.Q.j.G G p.x.q.:.+.    '.'.'.'.'.'.'.'.'.'.'.'.'.'.",
"'.'.'.'.'.'.'.'.'.'.'.'.'.'.'.'.'.  O m m r.R.R.Q.Q.Q.Q.Q.Q.Q.Q.Q./.(.^.U U A.Q.~.(.(.%.U e.R.C.1 1 $     '.'.'.'.'.'.'.'.'.'.'.",
"'.'.'.'.'.'.'.'.'.'.'.'.'.'.'.'.    X G G j.Q.Q.Q.Q.Q.Q.Q.Q.Q.Q.W.(._.(.G G C.Q./._._.E G r.Q.P.0 0 $     '.'.'.'.'.'.'.'.'.'.'.",
"'.'.'.'.'.'.'.'.'.'.'.'.'.'.'.'.    @ -.-.C.Q.Q.Q.Q.Q.Q.Q.Q.Q.Q.W.G.B.B.5 5 g.Q.T.H.H.p 3 7.Q.U.I I ,     '.'.'.'.'.'.'.'.'.'.'.",
"'.'.'.'.'.'.'.'.'.'.'.'.'.'.'.'.    @ x.x.L.Q.Q.Q.Q.Q.Q.Q.Q.Q.Q.Q.>.G m     g.Q.m.<.:.+   o.Q.R.:.:.e     '.'.'.'.'.'.'.'.'.'.'.",
"'.'.'.'.'.'.'.'.'.'.'.'.'.'.'.'.X X > c.c.Y.Q.Q.Q.Q.Q.Q.Q.Q.Q.Q.Q.>.D b     8.Q.m.:.:.+   o.Q.R.w.:.i     '.'.'.'.'.'.'.'.'.'.'.",
"'.'.'.'.'.'.'.'.'.'.'.'.'.'.    5 G Y I.I.E.Q.Q.Q.Q.Q.Q.Q.Q.Q.Q.Q...0 1     8.Q.m.<.:.+   o.Q.W.x.x.p         '.'.'.'.'.'.'.'.'.",
"'.'.'.'.'.'.'.'.'.'.'.'.'.'.    5 G Y I.I.E.Q.Q.Q.Q.Q.Q.Q.Q.Q.Q.Q.X.0 1     8.Q.m.:.:.+   o.Q.W.x.x.a         '.'.'.'.'.'.'.'.'.",
"'.'.'.'.'.'.'.'.'.'.'.'.    X.X.7.j.l.E.E.W.Q.Q.Q.Q.Q.Q.N.f.s.s.s.W v c     8.Q.K.y.y.@   P f.f.L.L.@.K p         '.'.'.'.'.'.'.",
"'.'.'.'.'.'.'.'.'.'.'.'.    r.x.K.Q.Q.Q.Q.Q.Q.Q.Q.Q.Q.Q.n.3.3.3.3.) G m     8.Q.L.x.x.@   J 3.4.Q.Q.i.:.R           '.'.'.'.'.'.",
"'.'.'.'.'.'.'.'.'.'.'.X * * i.F.L.Q.Q.Q.Q.Q.Q.Q.Q.Q.Q.Q.N.6.6.6.6. .%.E y y V.Q.Y.M.M.a y Q 6.s.Q.Q.k.0.+.> > .     '.'.'.'.'.'.",
"'.'.'.'.'.'.'.'.'.    2 G G U.Q.Q.Q.Q.Q.Q.Q.Q.Q.Q.Q.Q.Q.Q.Q.Q.Q.Q.Q.Q.Q.Q.Q.Q.Q.Q.Q.Q.Q.Q.Q.Q.Q.Q.Q.Q.Q.J.:.:.+     '.'.'.'.'.'.",
"'.'.'.'.'.'.'.'.'.    2 G G U.Q.Q.Q.Q.Q.Q.Q.Q.Q.Q.Q.Q.Q.Q.Q.Q.Q.Q.Q.Q.Q.Q.Q.Q.Q.Q.Q.Q.Q.Q.Q.Q.Q.Q.Q.Q.Q.J.:.:.+     '.'.'.'.'.'.",
"'.'.'.'.'.'.'.'.'.    r =.=.D.Y.E.Q.Q.Q.Q.E.Y.T.Q.Q.Q.Q.Q.Q.Q.Q.Q.Q.Q.Q.Q.Q.Q.Q.l.Y T U.Q.Q.Q.Q.Y.Y.E.Q.W.D.D.#     '.'.'.'.'.'.",
"'.'.'.'.'.'.'.'.'.    e :.:.D.I.E.Q.Q.Q.Q.T.I.Y.Q.Q.Q.Q.Q.Q.Q.Q.Q.Q.Q.Q.Q.Q.Q.Q.j.G G U.Q.Q.Q.W.I.I.E.Q.W.I.I.#     '.'.'.'.'.'.",
"'.'.'.'.'.'.'.'.'.    e :.:.M.F.I.E.E.E.E.Y.I.Y.E.E.E.E.E.E.!.I.Y.A.m.m.j.j.i.i.*.v v z.Z.Y.Q.W.S.S.E.Q.E.I.I.#     '.'.'.'.'.'.",
"'.'.'.'.'.'.'.'.'.    e :.:.x.x.F.I.I.I.I.I.I.I.Y.I.I.I.I.I.I.x.x.9.:.=.G G C Z j 0 0 &.:.k.Q.E.x.x.L.Q.W.I.I.#     '.'.'.'.'.'.",
"'.'.'.'.'.'.'.'.'.    e :.:.a.x.F.I.I.I.I.I.I.I.I.I.I.I.I.D.I.x.x.9.:.=.G G C Z l 0 0 &.:.k.Q.E.x.x.L.W.W.I.I.#     '.'.'.'.'.'.",
"'.'.'.'.'.'.'.'.'.    2 G G =.:.q.x.a.:.:.y.x.v.I.I.I.I.k.<.:.Z Z [ 3.5._._.d.3.{ ^ ^ 9 0 F <.:.:.:.y.x.p.:.:.+     '.'.'.'.'.'.",
"'.'.'.'.'.'.'.'.'.    2 G G =.:.q.x.a.:.:.y.x.v.I.I.I.I.k.:.:.Z Z [ 3.5._._.d.3.{ ^ ^ 9 q I =.<.:.:.y.x.p.:.:.+     '.'.'.'.'.'.",
"'.'.'.'.'.'.'.'.'.'.'.$ 2 2 e e i u i e e O.9.y.v.M.y.y.:.~ ~ [ [ | 3.4.b.b.5.3.} { { B j b F F ` ` L u i e e '.'.'.'.'.'.'.'.'.",
"'.'.'.'.'.'.'.'.'.'.'.'.                  K <.1.x.x.<.:.' Z Z 3.3.3.3.3.3.3.3.3.3.3.3.S Z g 0 q G G 2         '.'.'.'.'.'.'.'.'.",
"'.'.'.'.'.'.'.'.'.'.'.'.                  L ] :.x.a.;.&.' S S 3.3.3.3.3.3.3.3.3.3.} } H Z g 0 q m m ;         '.'.'.'.'.'.'.'.'.",
"'.'.'.'.'.'.'.'.'.'.'.'.'.'.'.'.'.'.'.    - 0 x :.:.w 0 M 3.3.3.3.3.3.3.3.3.3.3.{ ^ ^ ^ ^ n 0 1     '.'.'.'.'.'.'.'.'.'.'.'.'.'.",
"'.'.'.'.'.'.'.'.'.'.'.'.'.'.'.'.'.'.'.    - 0 x :.:.w 0 M 3.3.3.3.3.3.3.3.3.3.3.{ ^ ^ ^ ^ n 0 1     '.'.'.'.'.'.'.'.'.'.'.'.'.'.",
"'.'.'.'.'.'.'.'.'.'.'.'.'.'.'.'.'.'.'.'.'.o o = x x 0 0 z _ _ 3.3.3.3.3.[ ^ ! ! H S S k f 3 o X '.'.'.'.'.'.'.'.'.'.'.'.'.'.'.'.",
"'.'.'.'.'.'.'.'.'.'.'.'.'.'.'.'.'.'.'.'.'.    o 0 0 0 0 k ^ ^ 3.3.3.3.} ^ ^ S V Z V V 7 0 =     '.'.'.'.'.'.'.'.'.'.'.'.'.'.'.'.",
"'.'.'.'.'.'.'.'.'.'.'.'.'.'.'.'.'.'.'.'.'.    % f f f f z A A / ( / / ( A A z l h 8 8 6 - $     '.'.'.'.'.'.'.'.'.'.'.'.'.'.'.'.",
"'.'.'.'.'.'.'.'.'.'.'.'.'.'.'.'.'.'.'.'.'.    & Z V V V j 0 0 0 0 0 0 0 0 0 0 0 -           '.'.'.'.'.'.'.'.'.'.'.'.'.'.'.'.'.'.",
"'.'.'.'.'.'.'.'.'.'.'.'.'.'.'.'.'.'.'.'.'.    & Z V V V j 0 0 0 0 0 0 0 0 0 0 0 -           '.'.'.'.'.'.'.'.'.'.'.'.'.'.'.'.'.'.",
"'.'.'.'.'.'.'.'.'.'.'.'.'.'.'.'.'.'.'.'.'.    & V V V V V N N N N N N N N N & . . '.'.'.'.'.'.'.'.'.'.'.'.'.'.'.'.'.'.'.'.'.'.'.",
"'.'.'.'.'.'.'.'.'.'.'.'.'.'.'.'.'.'.'.'.'.    & V V V V V V Z Z V V V V Z Z &     '.'.'.'.'.'.'.'.'.'.'.'.'.'.'.'.'.'.'.'.'.'.'.",
"'.'.'.'.'.'.'.'.'.'.'.'.'.'.'.'.'.'.'.'.'.'.  % 4 4 4 4 4 4 4 4 4 4 4 4 4 4 %   '.'.'.'.'.'.'.'.'.'.'.'.'.'.'.'.'.'.'.'.'.'.'.'.",
"'.'.'.'.'.'.'.'.'.'.'.'.'.'.'.'.'.'.'.'.'.'.'.'.                            '.'.'.'.'.'.'.'.'.'.'.'.'.'.'.'.'.'.'.'.'.'.'.'.'.'.",
"'.'.'.'.'.'.'.'.'.'.'.'.'.'.'.'.'.'.'.'.'.'.'.'.                            '.'.'.'.'.'.'.'.'.'.'.'.'.'.'.'.'.'.'.'.'.'.'.'.'.'.",
"'.'.'.'.'.'.'.'.'.'.'.'.'.'.'.'.'.'.'.'.'.'.'.'.'.'.'.'.'.'.'.'.'.'.'.'.'.'.'.'.'.'.'.'.'.'.'.'.'.'.'.'.'.'.'.'.'.'.'.'.'.'.'.'.",
"'.'.'.'.'.'.'.'.'.'.'.'.'.'.'.'.'.'.'.'.'.'.'.'.'.'.'.'.'.'.'.'.'.'.'.'.'.'.'.'.'.'.'.'.'.'.'.'.'.'.'.'.'.'.'.'.'.'.'.'.'.'.'.'.",
"'.'.'.'.'.'.'.'.'.'.'.'.'.'.'.'.'.'.'.'.'.'.'.'.'.'.'.'.'.'.'.'.'.'.'.'.'.'.'.'.'.'.'.'.'.'.'.'.'.'.'.'.'.'.'.'.'.'.'.'.'.'.'.'.",
"'.'.'.'.'.'.'.'.'.'.'.'.'.'.'.'.'.'.'.'.'.'.'.'.'.'.'.'.'.'.'.'.'.'.'.'.'.'.'.'.'.'.'.'.'.'.'.'.'.'.'.'.'.'.'.'.'.'.'.'.'.'.'.'.",
"'.'.'.'.'.'.'.'.'.'.'.'.'.'.'.'.'.'.'.'.'.'.'.'.'.'.'.'.'.'.'.'.'.'.'.'.'.'.'.'.'.'.'.'.'.'.'.'.'.'.'.'.'.'.'.'.'.'.'.'.'.'.'.'.",
"'.'.'.'.'.'.'.'.'.'.'.'.'.'.'.'.'.'.'.'.'.'.'.'.'.'.'.'.'.'.'.'.'.'.'.'.'.'.'.'.'.'.'.'.'.'.'.'.'.'.'.'.'.'.'.'.'.'.'.'.'.'.'.'.",
"'.'.'.'.'.'.'.'.'.'.'.'.'.'.'.'.'.'.'.'.'.'.'.'.'.'.'.'.'.'.'.'.'.'.'.'.'.'.'.'.'.'.'.'.'.'.'.'.'.'.'.'.'.'.'.'.'.'.'.'.'.'.'.'.",
"'.'.'.'.'.'.'.'.'.'.'.'.'.'.'.'.'.'.'.'.'.'.'.'.'.'.'.'.'.'.'.'.'.'.'.'.'.'.'.'.'.'.'.'.'.'.'.'.'.'.'.'.'.'.'.'.'.'.'.'.'.'.'.'.",
"'.'.'.'.'.'.'.'.'.'.'.'.'.'.'.'.'.'.'.'.'.'.'.'.'.'.'.'.'.'.'.'.'.'.'.'.'.'.'.'.'.'.'.'.'.'.'.'.'.'.'.'.'.'.'.'.'.'.'.'.'.'.'.'."
};
