/* XPM */
static char *result[] = {
/* columns rows colors chars-per-pixel */
"64 64 243 2 ",
"   c black",
".  c #100303",
"X  c #130303",
"o  c #160404",
"O  c #160407",
"+  c #170407",
"@  c #1E0306",
"#  c #180404",
"$  c #190404",
"%  c #1A0404",
"&  c #210505",
"*  c #250008",
"=  c #280109",
"-  c #2D000A",
";  c #2D080E",
":  c #31000F",
">  c #310808",
",  c #32090F",
"<  c #3D0A0A",
"1  c #3E0A0A",
"2  c #280B10",
"3  c #330011",
"4  c #350014",
"5  c #37121D",
"6  c #391722",
"7  c #3C1926",
"8  c #3D1C29",
"9  c #3E1C29",
"0  c #4A0C0C",
"q  c #560E0E",
"w  c #440C15",
"e  c #5A0014",
"r  c #500E17",
"t  c #5A101C",
"y  c #780C16",
"u  c #631010",
"i  c #501B29",
"p  c #5B1A2A",
"a  c #6C1321",
"s  c #711424",
"d  c #781523",
"f  c #7D1625",
"g  c #50212E",
"h  c #502230",
"j  c #5F2234",
"k  c #5C2A3E",
"l  c #6F2439",
"z  c #5D2C40",
"x  c #5C2E42",
"c  c #60364A",
"v  c #603B52",
"b  c #603D53",
"n  c #7B3852",
"m  c #87001F",
"M  c #9E0024",
"N  c #8C1824",
"B  c #87182B",
"V  c #88182B",
"C  c #961A29",
"Z  c #9C0831",
"A  c #A00423",
"S  c #AA0226",
"D  c #B50029",
"F  c #A01C2E",
"G  c #AA0639",
"H  c #B80038",
"J  c #AA1E34",
"K  c #B3163F",
"L  c #912535",
"P  c #8A303D",
"I  c #B52039",
"U  c #C5003D",
"Y  c #BE1B43",
"T  c #B1144A",
"R  c #A00F52",
"E  c #A01758",
"W  c #972F4A",
"Q  c #8A3444",
"!  c #9B3447",
"~  c #843D50",
"^  c #A22B42",
"/  c #A02C41",
"(  c #A72E4C",
")  c #BA2540",
"_  c #BE244B",
"`  c #B3304F",
"'  c #B0344E",
"]  c #A73756",
"[  c #BE3C52",
"{  c #B83E5B",
"}  c #C90042",
"|  c #CE0048",
" . c #C8084F",
".. c #D2004D",
"X. c #C71E4B",
"o. c #D60052",
"O. c #DA0C56",
"+. c #DF075C",
"@. c #C9244E",
"#. c #CE2A56",
"$. c #C63454",
"%. c #C93456",
"&. c #C63D59",
"*. c #C33F5F",
"=. c #CE395D",
"-. c #E10960",
";. c #E50965",
":. c #EA0C6B",
">. c #F01072",
",. c #F21074",
"<. c #F51277",
"1. c #F61579",
"2. c #FA157D",
"3. c #FB167E",
"4. c #D43760",
"5. c #D43E64",
"6. c #D43F64",
"7. c #E63D77",
"8. c #A14353",
"9. c #AD405A",
"0. c #80516F",
"q. c #B04563",
"w. c #BF4C6D",
"e. c #B1516B",
"r. c #AB577C",
"t. c #B9547C",
"y. c #C74162",
"u. c #C64567",
"i. c #CB4164",
"p. c #CE4266",
"a. c #C04D6D",
"s. c #D6486F",
"d. c #C7576A",
"f. c #CF4F75",
"g. c #DF4177",
"h. c #DE4973",
"j. c #DC4B75",
"k. c #DD4B75",
"l. c #D75078",
"z. c #DE537D",
"x. c #D15C7B",
"c. c #E4537F",
"v. c #FF1884",
"b. c #FF298F",
"n. c #FF3A9A",
"m. c #BA5B82",
"M. c #A0658B",
"N. c #AA688F",
"B. c #BF6E95",
"V. c #CB5D81",
"C. c #DA5980",
"Z. c #CF5898",
"A. c #E15680",
"S. c #E75886",
"D. c #E75D8A",
"F. c #E65F8E",
"G. c #EA5D8C",
"H. c #D66A87",
"J. c #DA618B",
"K. c #D36C9A",
"L. c #DF6F98",
"P. c #DE6E9B",
"I. c #CB7199",
"U. c #D87298",
"Y. c #E46592",
"T. c #EC6191",
"R. c #ED6292",
"E. c #EF6797",
"W. c #E26B99",
"Q. c #E76D9B",
"!. c #EB6E9C",
"~. c #F06798",
"^. c #F46C9E",
"/. c #F46C9F",
"(. c #E67696",
"). c #FF4CA6",
"_. c #FF51A3",
"`. c #FF5DB1",
"'. c #F46FA2",
"]. c #F36FAA",
"[. c #E371A0",
"{. c #EE75A8",
"}. c #F771A5",
"|. c #F875A9",
" X c #F977AB",
".X c #F877AC",
"XX c #F979AD",
"oX c #FA7BAF",
"OX c #FF65B6",
"+X c #FF6FBC",
"@X c #F97BB0",
"#X c #F97CB1",
"$X c #FA7DB1",
"%X c #F97DB3",
"&X c #ED81B4",
"*X c #EC81B5",
"=X c #FB81B5",
"-X c #F882B4",
";X c #F187BA",
":X c #FB83B8",
">X c #FA83BA",
",X c #FC85B9",
"<X c #FA87BE",
"1X c #F28BBA",
"2X c #FD89BD",
"3X c #DF8EC2",
"4X c #FF80C7",
"5X c #F78BC3",
"6X c #FB89C1",
"7X c #FF89C1",
"8X c #FC8DC6",
"9X c #FC8FC8",
"0X c #FF92C6",
"qX c #F692CA",
"wX c #F990C9",
"eX c #F991C9",
"rX c #FA91C9",
"tX c #FD93CB",
"yX c #FF94C9",
"uX c #FE94CB",
"iX c #FF96CC",
"pX c #FD95CF",
"aX c #FF98CF",
"sX c #EF97D0",
"dX c #FD96D0",
"fX c #FD99D3",
"gX c #FE98D2",
"hX c #FF9AD2",
"jX c #FE9AD4",
"kX c #FF9CD5",
"lX c #FE9CD7",
"zX c #FF9DD7",
"xX c #FF9ED8",
"cX c #FE9FDA",
"vX c #FF9FDA",
"bX c #FFA0DB",
"nX c #FFA1DD",
"mX c #FFA2DE",
"MX c #EDC4CE",
"NX c #FFCEEE",
"BX c #FFE5F7",
"VX c #FFFBFF",
"CX c None",
/* pixels */
"CXCXCXCXCXCXCXCXCXCXCXCXCXCXCXCXCXCXCXCXCXCXCXCXCXCXCXCXCXCXCXCXCXCXCXCXCXCXCXCXCXCXCXCXCXCXCXCXCXCXCXCXCXCXCXCXCXCXCXCXCXCXCXCX",
"CXCXCXCXCXCXCXCXCXCXCXCXCXCXCXCXCXCXCXCXCXCXCXCXCXCXCXCXCXCXCXCXCXCXCXCXCXCXCXCXCXCXCXCXCXCXCXCXCXCXCXCXCXCXCXCXCXCXCXCXCXCXCXCX",
"CXCXCXCXCXCXCXCXCXCXCXCXCXCXCXCXCXCXCXCXCXCXCXCXCXCXCXCXCXCXCXCXCXCXCXCXCXCXCXCXCXCXCXCXCXCXCXCXCXCXCXCXCXCXCXCXCXCXCXCXCXCXCXCX",
"CXCXCXCXCXCXCXCXCXCXCXCXCXCXCXCXCXCXCXCXCXCXCXCXCXCXCXCXCXCXCXCXCXCXCXCXCXCXCXCXCXCXCXCXCXCXCXCXCXCXCXCXCXCXCXCXCXCXCXCXCXCXCXCX",
"CXCXCXCXCXCXCXCXCXCXCXCXCXCXCXCXCXCXCXCXCXCXCXCXCXCXCXCXCXCXCXCXCXCXCXCXCXCXCXCXCXCXCXCXCXCXCXCXCXCXCXCXCXCXCXCXCXCXCXCXCXCXCXCX",
"CXCXCXCXCXCXCXCXCXCXCXCXCXCXCXCXCXCXCXCXCXCXCXCXCXCXCXCXCXCXCXCXCXCXCXCXCXCXCXCXCXCXCXCXCXCXCXCXCXCXCXCXCXCXCXCXCXCXCXCXCXCXCXCX",
"CXCXCXCXCXCXCXCXCXCXCXCXCXCXCXCXCXCXCXCXCXCXCXCXCXCXCXCXCXCXCXCXCXCXCXCXCXCXCXCXCXCXCXCXCXCXCXCXCXCXCXCXCXCXCXCXCXCXCXCXCXCXCXCX",
"CXCXCXCXCXCXCXCXCXCXCXCXCXCXCXCXCXCXCXCXCXCXCXCXCXCXCXCXCXCXCXCXCXCXCXCXCXCXCXCXCXCXCXCXCXCXCXCXCXCXCXCXCXCXCXCXCXCXCXCXCXCXCXCX",
"CXCXCXCXCXCXCXCXCXCXCXCXCXCXCXCXCXCXCXCXCXCXCXCXCXCXCXCXCXCXCXCXCXCXCXCXCXCXCXCXCXCXCXCXCXCXCXCXCXCXCXCXCXCXCXCXCXCXCXCXCXCXCXCX",
"CXCXCXCXCXCXCXCXCXCXCXCXCXCXCXCXCXCXCXCXCXCXCXCXCXCXCXCXCXCXCXCXCXCXCXCXCXCXCXCXCXCXCXCXCXCXCXCXCXCXCXCXCXCXCXCXCXCXCXCXCXCXCXCX",
"CXCXCXCXCXCXCXCXCXCXCXCXCXCXCXCXCXCXCXCXCXCXCXCXCXCXCXCXCXCXCXCXCXCXCXCXCXCXCXCXCXCXCXCXCXCXCXCXCXCXCXCXCXCXCXCXCXCXCXCXCXCXCXCX",
"CXCXCXCXCXCXCXCXCXCXCXCXCXCXCXCXCXCXCXCXCXCXCXCXCXCX                                  CXCXCXCXCXCXCXCXCXCXCXCXCXCXCXCXCXCXCXCXCX",
"CXCXCXCXCXCXCXCXCXCXCXCXCXCXCXCXCXCXCXCXCXCXCXCXCXCX                                  CXCXCXCXCXCXCXCXCXCXCXCXCXCXCXCXCXCXCXCXCX",
"CXCXCXCXCXCXCXCXCXCXCXCXCXCXCXCXCXCXCXCXCXCXCXCXCXCXw w i k z c c v b b b b x k i w w CXCXCXCXCXCXCXCXCXCXCXCXCXCXCXCXCXCXCXCXCX",
"CXCXCXCXCXCXCXCXCXCXCXCXCXCXCXCXCXCXCXCXCX          I I s.}.|.0X0XxXmXmXmXmX.X}.s.I I           CXCXCXCXCXCXCXCXCXCXCXCXCXCXCXCX",
"CXCXCXCXCXCXCXCXCXCXCXCXCXCXCXCXCXCXCXCXCX          I I s.}.|.0X0XxXmXmXmXmX.X}.s.I I           CXCXCXCXCXCXCXCXCXCXCXCXCXCXCXCX",
"CXCXCXCXCXCXCXCXCXCXCXCXCXCXCXCXCXCXCX        k }.}.0X0XhXmXmXmXmXmXmXmXmXmXmXmXmXmXmX}.}.! u 0     CXCXCXCXCXCXCXCXCXCXCXCXCXCX",
"CXCXCXCXCXCXCXCXCXCXCXCXCXCXCXCXCXCXCX        k }.}.0X0XhXmXmXmXmXmXmXmXmXmXmXmXmXmXmX}.}.! u 0     CXCXCXCXCXCXCXCXCXCXCXCXCXCX",
"CXCXCXCXCXCXCXCXCXCXCXCXCXCXCXCXCXCXCX    k n r.6X6XhXhXxXmXmXmXmX[.J.W.6X6XcXmX*XJ.J.}.}.V.e.~     CXCXCXCXCXCXCXCXCXCXCXCXCXCX",
"CXCXCXCXCXCXCXCXCXCXCXCXCXCXCXCXCXCXCX    t.}.>XmXmXmXmXmXmXmXmXmXy.I $.}.}.lXmXJ.I I }.}.,X0XB.    CXCXCXCXCXCXCXCXCXCXCXCXCXCX",
"CXCXCXCXCXCXCXCXCXCXCXCXCXCXCXCXCXCXCXO O m..X<XmXmXmXmXmXmXmXmXmXx.[ &.E.E.lXmXL.[ [ E.E.-XyXI.O O CXCXCXCXCXCXCXCXCXCXCXCXCXCX",
"CXCXCXCXCXCXCXCXCXCXCXCXCXCXCXCX    ; I I *XmXmXmXmXmXmXmXmXmXmXmXBXVXMXI I qXmXNXVXVXI I [.mX&XI I ;     CXCXCXCXCXCXCXCXCXCXCX",
"CXCXCXCXCXCXCXCXCXCXCXCXCXCXCXCX    ; I I *XmXmXmXmXmXmXmXmXmXmXmXBXVXMXI I qXmXNXVXVXI I [.mX&XI I ;     CXCXCXCXCXCXCXCXCXCXCX",
"CXCXCXCXCXCXCXCXCXCXCXCXCXCXCXCX    6 D.D.eXmXmXmXmXmXmXmXmXmXmXmXH.d.8.; ; 3XmX1X(.(.; ; N.mXwXD.D.6     CXCXCXCXCXCXCXCXCXCXCX",
"CXCXCXCXCXCXCXCXCXCXCXCXCXCXCXCX    9 }.}.dXmXmXmXmXmXmXmXmXmXmXmXy.I B     3XmX{.h.h.    M.mXpX}.}.8     CXCXCXCXCXCXCXCXCXCXCX",
"CXCXCXCXCXCXCXCXCXCXCXCXCXCXCXCX. # g XXXXgXmXmXmXmXmXmXmXmXmXmXmX{ F d     3XmX{.h.h.    M.mXfX%X%Xh # % CXCXCXCXCXCXCXCXCXCXCX",
"CXCXCXCXCXCXCXCXCXCXCXCXCXCX    < u P 0X0XxXmXmXmXmXmXmXmXmXmXmXmXQ u 0     3XmX{.h.h.    M.mXmXmXmXQ u 1     CXCXCXCXCXCXCXCXCX",
"CXCXCXCXCXCXCXCXCXCXCXCXCXCX    < u P 0X0XxXmXmXmXmXmXmXmXmXmXmXmXQ u 0     3XmX{.h.h.    M.mXmXmXmXQ u 1     CXCXCXCXCXCXCXCXCX",
"CXCXCXCXCXCXCXCXCXCXCXCX    q q q.Y.Q.0X0XxXmXmXmXmXmXmXOXb.b.b.b.g.p.W     3XmX<X^.^.    E b.).mXmX*.J a     CXCXCXCXCXCXCXCXCX",
"CXCXCXCXCXCXCXCXCXCXCX      u u w.}.XX0X0XxXmXmXmXmXmXmX`.v.v.v.v.7.h.]     3XmX6X}.}.    R v.n.mXmXy.I s     CXCXCXCXCXCXCXCXCX",
"CXCXCXCXCXCXCXCXCXCX  & > > 9.9.P.6X8XhXhXbXmXmXmXmXmXmX4X`.`.`.`.].{.K.0.0.sXmXdX6X6X0.0.Z.`.+XmXmXl.%.( l l     CXCXCXCXCXCXCX",
"CXCXCXCXCXCXCXCXCX    > u u }.}.9XmXmXmXmXmXmXmXmXmXmXmXmXmXmXmXmXmXmXmXmXmXmXmXmXmXmXmXmXmXmXmXmXmXF.h.h.h.h.      CXCXCXCXCXCX",
"CXCXCXCXCXCXCXCXCX    > u u }.}.9XmXmXmXmXmXmXmXmXmXmXmXmXmXmXmXmXmXmXmXmXmXmXmXmXmXmXmXmXmXmXmXmXmXF.h.h.h.h.      CXCXCXCXCXCX",
"CXCXCXCXCXCXCXCXCX    t I I mXmXmXmXmXmXmXiX0X0X0X0XmXmXmXmXmXmXmXmXmXmXmXmXyX0XC.I I mXmXmXmXmXmXmX%X}.$X0X0X      CXCXCXCXCXCX",
"CXCXCXCXCXCXCXCXCX    t I I mXmXmXmXmXmXmXiX0X0X0X0XmXmXmXmXmXmXmXmXmXmXmXmXyX0XC.I I mXmXmXmXmXmXmX%X}.$X0X0X      CXCXCXCXCXCX",
"CXCXCXCXCXCXCXCXCX    t I I mXmXmXmXvXaXaX:X$X,X0X0XaXaXzXmXmXmXmXmXmXmXmXmXzXkX;X[.[.mXmXmXmXvXaXaX@X}.$X0X0X      CXCXCXCXCXCX",
"CXCXCXCXCXCXCXCXCX    t I I mXmXmXmXxX0X0XXX}.$X0X0X0X0XhXmXmXmXmXmXmXmXmXmXmXmXmXmXmXmXmXmXmXxX0X0XXX}.$X0X0X      CXCXCXCXCXCX",
"CXCXCXCXCXCXCXCXCX    r F F 5X5XrXpXtX2X2X X}.oX2X2X2X2XuXxXxXxXxXnXmXmXmXmXmXmXmXmXmXxXxXjXpXtX2X2X'.~.!.U.U.      CXCXCXCXCXCX",
"CXCXCXCXCXCXCXCXCX    > u u h.h.R.}.}.}.}.}.}.}.}.}.}.}.=X0X0X0X0XxXmXmXmXmXmXmXmXmXmX0X0X$X}.}.}.}.c.h.' u u       CXCXCXCXCXCX",
"CXCXCXCXCXCXCXCXCX    > u u h.h.R.}.}.}.}.}.}.}.}.}.}.}.=X0X0X0X0XxXmXmXmXmXmXmXmXmXmX0X0X$X}.}.}.}.c.h.' u u       CXCXCXCXCXCX",
"CXCXCXCXCXCXCXCXCXCXCXX $ $ 5 5 7 9 j $.$.k.c.G.}.}.}.}.|.XXXXXXXX#X%X%X%X%X%X%X%X%X%XXXXXT.c.j.$.$.p 5 2 $ $ CXCXCXCXCXCXCXCXCX",
"CXCXCXCXCXCXCXCXCXCXCX              ; I I 5.h.S.}.}.}.}.}.}.}.}.}.}.}.}.}.}.}.}.}.}.}.}.}.S.h.6.I I ;         CXCXCXCXCXCXCXCXCX",
"CXCXCXCXCXCXCXCXCXCXCXCX            + s s ^ ' u.R.R.}.}.}.}.}.}.}.}.}./.R.R.A.z.f.a.a.a.a.i.=.` s s ,         CXCXCXCXCXCXCXCXCX",
"CXCXCXCXCXCXCXCXCXCXCXCXCXCXCXCX          0 u L h.h.}.}.}.}.}.}.}.}.}.~.h.h.) I N u u u u C I B     CXCXCXCXCXCXCXCXCXCXCXCXCXCX",
"CXCXCXCXCXCXCXCXCXCXCXCXCXCXCXCX          0 u L h.h.}.}.}.}.}.}.}.}.}.~.h.h.) I N u u u u C I B     CXCXCXCXCXCXCXCXCXCXCXCXCXCX",
"CXCXCXCXCXCXCXCXCXCXCXCXCXCXCXCX    - D D | o.G u u u u / h.h.h.h.h.h.4.D D 1.v.7XVXVXv.v.;.o.| D D -     CXCXCXCXCXCXCXCXCXCXCX",
"CXCXCXCXCXCXCXCXCXCXCXCXCXCXCXCX    - D D | o.G u u u u / h.h.h.h.h.h.4.D D 1.v.7XVXVXv.v.;.o.| D D -     CXCXCXCXCXCXCXCXCXCXCX",
"CXCXCXCXCXCXCXCXCXCXCXCXCXCXCXCX    - D D | o. .T T Z Z K @._ l l ` %.#.O.O.3.v._.7X7Xv.v.,.:.-.U U :     CXCXCXCXCXCXCXCXCXCXCX",
"CXCXCXCXCXCXCXCXCXCXCXCXCXCXCXCX    - D D | o.;.v.v.o.o.U D M     V I X.v.v.v.v.v.v.v.v.v.v.v.<.o.o.4     CXCXCXCXCXCXCXCXCXCXCX",
"CXCXCXCXCXCXCXCXCXCXCXCXCXCXCXCX    = S S } ..+.1.1.....H M m     f J Y 1.1.2.2.2.2.2.2.2.2.2.>.....4     CXCXCXCXCXCXCXCXCXCXCX",
"CXCXCXCXCXCXCXCXCXCXCXCXCXCXCXCX    # u u A D D D D D D e         0 u y D D ..o.o.o.o.o.o.o.o.| D D -     CXCXCXCXCXCXCXCXCXCXCX",
"CXCXCXCXCXCXCXCXCXCXCXCXCXCXCXCX    # u u A D D D D D D e         0 u y D D ..o.o.o.o.o.o.o.o.| D D -     CXCXCXCXCXCXCXCXCXCXCX",
"CXCXCXCXCXCXCXCXCXCXCXCXCXCXCXCXCXCXCX$ $ = - - - - - - * CXCXCXCXo $ @ - - 4 4 4 4 4 4 4 4 4 3 - - CXCXCXCXCXCXCXCXCXCXCXCXCXCX",
"CXCXCXCXCXCXCXCXCXCXCXCXCXCXCXCXCXCXCX                    CXCXCXCX                                  CXCXCXCXCXCXCXCXCXCXCXCXCXCX",
"CXCXCXCXCXCXCXCXCXCXCXCXCXCXCXCXCXCXCX                  CXCXCXCXCX                                  CXCXCXCXCXCXCXCXCXCXCXCXCXCX",
"CXCXCXCXCXCXCXCXCXCXCXCXCXCXCXCXCXCXCXCXCXCXCXCXCXCXCXCXCXCXCXCXCXCXCXCXCXCXCXCXCXCXCXCXCXCXCXCXCXCXCXCXCXCXCXCXCXCXCXCXCXCXCXCX",
"CXCXCXCXCXCXCXCXCXCXCXCXCXCXCXCXCXCXCXCXCXCXCXCXCXCXCXCXCXCXCXCXCXCXCXCXCXCXCXCXCXCXCXCXCXCXCXCXCXCXCXCXCXCXCXCXCXCXCXCXCXCXCXCX",
"CXCXCXCXCXCXCXCXCXCXCXCXCXCXCXCXCXCXCXCXCXCXCXCXCXCXCXCXCXCXCXCXCXCXCXCXCXCXCXCXCXCXCXCXCXCXCXCXCXCXCXCXCXCXCXCXCXCXCXCXCXCXCXCX",
"CXCXCXCXCXCXCXCXCXCXCXCXCXCXCXCXCXCXCXCXCXCXCXCXCXCXCXCXCXCXCXCXCXCXCXCXCXCXCXCXCXCXCXCXCXCXCXCXCXCXCXCXCXCXCXCXCXCXCXCXCXCXCXCX",
"CXCXCXCXCXCXCXCXCXCXCXCXCXCXCXCXCXCXCXCXCXCXCXCXCXCXCXCXCXCXCXCXCXCXCXCXCXCXCXCXCXCXCXCXCXCXCXCXCXCXCXCXCXCXCXCXCXCXCXCXCXCXCXCX",
"CXCXCXCXCXCXCXCXCXCXCXCXCXCXCXCXCXCXCXCXCXCXCXCXCXCXCXCXCXCXCXCXCXCXCXCXCXCXCXCXCXCXCXCXCXCXCXCXCXCXCXCXCXCXCXCXCXCXCXCXCXCXCXCX",
"CXCXCXCXCXCXCXCXCXCXCXCXCXCXCXCXCXCXCXCXCXCXCXCXCXCXCXCXCXCXCXCXCXCXCXCXCXCXCXCXCXCXCXCXCXCXCXCXCXCXCXCXCXCXCXCXCXCXCXCXCXCXCXCX",
"CXCXCXCXCXCXCXCXCXCXCXCXCXCXCXCXCXCXCXCXCXCXCXCXCXCXCXCXCXCXCXCXCXCXCXCXCXCXCXCXCXCXCXCXCXCXCXCXCXCXCXCXCXCXCXCXCXCXCXCXCXCXCXCX",
"CXCXCXCXCXCXCXCXCXCXCXCXCXCXCXCXCXCXCXCXCXCXCXCXCXCXCXCXCXCXCXCXCXCXCXCXCXCXCXCXCXCXCXCXCXCXCXCXCXCXCXCXCXCXCXCXCXCXCXCXCXCXCXCX"
};
