/* XPM */
static char *_668c5b7fda2481fa150d24d81ae4cccGAS69wsxjpKcjg0l[] = {
/* columns rows colors chars-per-pixel */
"26 23 124 2 ",
"   c None",
".  c black",
"X  c #0B0202",
"o  c #0D0202",
"O  c #130303",
"+  c #110104",
"@  c #160005",
"#  c #130407",
"$  c #190008",
"%  c #2D000A",
"&  c #2D080E",
"*  c #31000F",
"=  c #32090F",
"-  c #35090E",
";  c #3C0A0A",
":  c #3A0E11",
">  c #391420",
",  c #460E10",
"<  c #520F12",
"1  c #510F14",
"2  c #5A061A",
"3  c #550F1A",
"4  c #7E0C1E",
"5  c #77111E",
"6  c #4E1623",
"7  c #501927",
"8  c #551C2C",
"9  c #6E1920",
"0  c #651A2B",
"q  c #761529",
"w  c #592538",
"e  c #5B283B",
"r  c #632031",
"t  c #71263C",
"y  c #60384C",
"u  c #773049",
"i  c #603D53",
"p  c #810A19",
"a  c #800C20",
"s  c #801B2E",
"d  c #8A1A2E",
"f  c #961A2F",
"g  c #AB0226",
"h  c #A1062C",
"j  c #B31D3D",
"k  c #B91E3D",
"l  c #9A2638",
"z  c #BD1442",
"x  c #852C45",
"c  c #A73756",
"v  c #B63252",
"b  c #B33858",
"n  c #BD3B5E",
"m  c #D3044F",
"M  c #D90956",
"N  c #C12547",
"B  c #E10960",
"V  c #EA0C6B",
"C  c #F11273",
"Z  c #8D4045",
"A  c #A5455C",
"S  c #8F4460",
"D  c #974967",
"F  c #AD4063",
"G  c #A94464",
"H  c #AD597D",
"J  c #D3456B",
"K  c #CF4B70",
"L  c #CC4F77",
"P  c #CA567B",
"I  c #E2507B",
"U  c #E3517E",
"Y  c #FF1884",
"T  c #9F5F84",
"R  c #9F6489",
"E  c #AF6F99",
"W  c #C55D81",
"Q  c #D25980",
"!  c #D95882",
"~  c #DC5D84",
"^  c #D55E8A",
"/  c #E15680",
"(  c #FF439B",
")  c #E96494",
"_  c #EC6494",
"`  c #E76D9E",
"'  c #F06B9B",
"]  c #EF5BA9",
"[  c #FF5FAA",
"{  c #FF5DB1",
"}  c #DF63A6",
"|  c #DC7BAD",
" . c #E970A1",
".. c #EB74A3",
"X. c #E87AAA",
"o. c #F774A8",
"O. c #F47AAB",
"+. c #FF6EBC",
"@. c #F37DB2",
"#. c #F97DB0",
"$. c #FF77C1",
"%. c #F281B6",
"&. c #F884BB",
"*. c #FA87BE",
"=. c #FC87BC",
"-. c #FB8BBF",
";. c #CEA5AA",
":. c #DF8EC2",
">. c #F98BC2",
",. c #FE8EC2",
"<. c #FE8EC3",
"1. c #EC90C5",
"2. c #F692C9",
"3. c #FF96CC",
"4. c #FD96D0",
"5. c #FB9AD4",
"6. c #FD9BD6",
"7. c #FE9CD7",
"8. c #FF9DD7",
"9. c #FF9ED9",
"0. c #FFA0DB",
"q. c #FFA1DD",
"w. c #FFA2DE",
"e. c #FBB9D8",
/* pixels */
"                                                    ",
"                                                    ",
"                                                    ",
"                                                    ",
"                  O - 7 e w 6 =                     ",
"                : S W  .*.&.` H r #                 ",
"              ; P 4.w.w.w.! %.X.J 1                 ",
"            . b 7.w.w.w.w.;.A e.Z Q .               ",
"          . , 1.w.w.w.w.w.d y ~ & :.< .             ",
"          = G 6.w.w.w.$.+.F i @.> } c .             ",
"          0 ..w.w.7.w.+.{ | E 3.T ] L 8             ",
"          u >.w.9.=.7.w.w.w.w.X.2.w.o.D .           ",
"          t O.0.-.I _ <.w.w.w.5.5.3.) R .           ",
"          3 v ^ n k l 5 j N U #.<.' 9 x             ",
"            . . $ M [ ( Y C z K / s .               ",
"                $ m V V V B h f q #                 ",
"                  * 2 a a 4 p g %                   ",
"                    X o o o + @                     ",
"                                                    ",
"                                                    ",
"                                                    ",
"                                                    ",
"                                                    "
};
