/* XPM */
static char *d892149b5ae745a7e7f122b81119d3c27cSDTYCECDZwhaQr[] = {
/* columns rows colors chars-per-pixel */
"64 64 173 2 ",
"   c black",
".  c #0C0202",
"X  c #1A0609",
"o  c #0E190A",
"O  c #1E0D13",
"+  c #2D000A",
"@  c #280709",
"#  c #310808",
"$  c #3E0A0A",
"%  c #3F150F",
"&  c #200310",
"*  c #310C13",
"=  c #20141C",
"-  c #37121C",
";  c #3D171B",
":  c #1D3215",
">  c #382C1B",
",  c #2A3418",
"<  c #3A1521",
"1  c #3E1C29",
"2  c #48080D",
"3  c #4A0715",
"4  c #50001E",
"5  c #49111D",
"6  c #5A101C",
"7  c #631010",
"8  c #731117",
"9  c #531B2B",
"0  c #6D1E25",
"q  c #751124",
"w  c #4D3128",
"e  c #77272B",
"r  c #6A2436",
"t  c #6E2338",
"y  c #31411D",
"u  c #2C4B21",
"i  c #3A642B",
"p  c #417131",
"a  c #487D36",
"s  c #722940",
"d  c #7B3852",
"f  c #86091B",
"g  c #82161F",
"h  c #8E0A29",
"j  c #88182B",
"k  c #9D1D32",
"l  c #A80325",
"z  c #B50029",
"x  c #B8032E",
"c  c #BE063B",
"v  c #882331",
"b  c #B52039",
"n  c #C20239",
"m  c #972740",
"M  c #87354D",
"N  c #983248",
"B  c #A02C41",
"V  c #BD2A46",
"C  c #BE304D",
"Z  c #A73756",
"A  c #B63A56",
"S  c #CA0446",
"D  c #D3094E",
"F  c #C61745",
"G  c #D60052",
"H  c #DA0557",
"J  c #CE2E57",
"K  c #C93456",
"L  c #DB1769",
"P  c #E50965",
"I  c #EF0F71",
"U  c #EC1A71",
"Y  c #D43E64",
"T  c #F32A7D",
"R  c #944955",
"E  c #B2405A",
"W  c #954F71",
"Q  c #90577A",
"!  c #BC4160",
"~  c #B1516B",
"^  c #B85377",
"/  c #C94467",
"(  c #D04165",
")  c #D9446C",
"_  c #DE4973",
"`  c #E14E79",
"'  c #E4537F",
"]  c #579641",
"[  c #66AF4C",
"{  c #6CBB52",
"}  c #74C857",
"|  c #7CC759",
" . c #7CC85A",
".. c #A2BF68",
"X. c #ABBF6B",
"o. c #B2BC6D",
"O. c #BABB6F",
"+. c #BEBB70",
"@. c #C2BA72",
"#. c #CCBE75",
"$. c #D1B778",
"%. c #DBBA7B",
"&. c #E2B67D",
"*. c #84C55C",
"=. c #8CC45F",
"-. c #84C85C",
";. c #8DC85F",
":. c #93C262",
">. c #9CC665",
",. c #95C862",
"<. c #AAC66A",
"1. c #A6C868",
"2. c #B3C06E",
"3. c #B6C86D",
"4. c #BDC670",
"5. c #C5C173",
"6. c #C7C973",
"7. c #CEC876",
"8. c #D7C979",
"9. c #DFC97C",
"0. c #E7C67E",
"q. c #FF1884",
"w. c #9F5F84",
"e. c #BF79A7",
"r. c #D65980",
"t. c #E35480",
"y. c #E75A87",
"u. c #E95D8B",
"i. c #FB4494",
"p. c #DA618B",
"a. c #D07283",
"s. c #CE6E94",
"d. c #DF6996",
"f. c #DC6C98",
"g. c #EE6595",
"h. c #ED6C9C",
"j. c #F36C9E",
"k. c #F75DA3",
"l. c #FF5DB1",
"z. c #D77EAD",
"x. c #F368A4",
"c. c #EC73A4",
"v. c #EE75A8",
"b. c #F672A5",
"n. c #F777AB",
"m. c #F179AC",
"M. c #FD73B9",
"N. c #F2B383",
"B. c #F4BC83",
"V. c #E885A8",
"C. c #EB81B4",
"Z. c #E88AB0",
"A. c #FB81B5",
"S. c #F686BA",
"D. c #FA84BA",
"F. c #EEC481",
"G. c #F6C284",
"H. c #F0C981",
"J. c #F8C984",
"K. c #F78BC2",
"L. c #FB8BC2",
"P. c #FF80C8",
"I. c #FC8FC9",
"U. c #FF92C6",
"Y. c #FE94CB",
"T. c #FF98CE",
"R. c #FD96D0",
"E. c #FF9BD5",
"W. c #FFA2DE",
"Q. c #D8C0C3",
"!. c #FFCAE8",
"~. c #FFDFEF",
"^. c #FFFBFF",
/* pixels */
"J.9.6.6.6.} } } ,.6.6.6. .-.J.F.6.0.J.J.J.J.H.6.8.J.8.6. .} } -.6.>.} 3.6.6.7.J.J.J.J.J.7.6.6.8.J.3.} 1.6.6.4.} } } 1.6.6.6.J.J.",
"J.3.} } } } } } } } } } } -.J.8.} 3.J.J.J.J.0.} 1.J.1.} } } } } } } } } } } -.J.J.J.J.J.,.} } ,.J.3.} } } } } } } } } } } } J.J.",
"3.,.} } } } } } } } } } }  .3.1.} ,.3.3.3.3.<.} ;.3.;.} } } } } } } } } } }  .3.3.3.3.3.-.} } -.3.,.} } } } } } } } } } } } 3.3.",
"} } } } } } } } } } } } } } } } } } } } } } } } } } } } } } } } } } } } } } } } } } } } } } } } } } } } } } } } } } } } } } } } ",
"} } } } } } } } } } } } } } } } } } } } } } } } } } } } } } } } } } } } } } } } } } } } } } } } } } } } } } } } } } } } } } } } ",
"} } } } } } } } } } } } } } } } } } } } } } } } } } } } } } } } } } } } } } } } } } } } } } } } } } } } } } } } } } } } } } } } ",
"} } } } } } } } } } } } } } } } } } } } } } } } } } } } } } } } } } } } } } } } } } } } } } } } } } } } } } } } } } } } } } } } ",
"} } } } } } } } } } } } } } } } } } } } } } } } } } } } } } } } } } } } } } } } } } } } } } } } } } } } } } } } } } } } } } } } ",
"N.o.} } } } } } } } } } } } } } } } } } } } } } } } } } } } } } } } } } } } } } } } } } } } } } } } } } } } } } } } } } } } N.N.",
"N.2.} } } } } } } } } } } } } } } } } } } } } } } } } } } } } } } } } } } } } } } } } } } } } } } } } } } } } } } } } } } } N.N.",
"J.3.} } } } } } } } } } } } } } } } } } } } } } } } } } } } } } } } } } } } } } } } } } } } } } } } } } } } } } } } } } } } J.J.",
"6.>.} } } } } } } } } } } } } } } } } } } } } } } } } } } } } } } } } } } } } } } } } } } } } } } } } } } } } } } } } } } } 6.6.",
"} } } } } } } } } } } } } } } } } } } } } } } } } } } } } } } } } } } } } } } } } } } } } } } } } } } } } } } } } } } } } } } } ",
"o.o.o.*.} } } } } } } } } } } } } } } } } } } } } } } } } } } } } } } } } } } } } } } } } } } } } } } } } } } } } } } } 1.o.o.o.",
"N.N.N.:.} } } } } } } } } } } } } } } } } } } } } } } } } } } } } } } } } } } } } } } } } } } } } } } } } } } } } } } } $.N.N.N.",
"G.5.:.| } } } } } } } } } } } } } } } } } } } } } } } } } } } } } } } } } } } } } } } } } } } } } } } } } } } } } } } } =.:.G.G.",
"J.3.} } } } } } } } } } } } } } } } } } } } } } } { [ [ [ [ [ [ [ [ [ [ [ { } } } } } } } } } } } } } } } } } } } } } } } } G.J.",
"J.3.} } } } } } } } } } } } } } } } } } } } } } } a                       i } } } } } } } } } } } } } } } } } } } } } } } } J.J.",
"J.3.} } } } } } } } } } } } } } } } } } } } a i i y # 3 6 t s d d d t r 6 w i i p } } } } } } } } } } } } } } } } } } } } } J.J.",
"J.B.N.:.} } } } } } } } } } } } } } } } } } :     @ 7 v b ` t.b.b.b.' ) b 6     o } } } } } } } } } } } } } } } } } } } $.N.J.J.",
"J.G.N.<.:.} } } } } } } } } } } } } } } ] : % 2 ^ s.z.m.C.K.I.R.E.Y.K.K.Z.V.e.M v : i } } } } } } } } } } } } } } } *.:.%.N.J.J.",
"J.J.J.N.N.} } } } } } } } } } } } } } } a   2 7 b.K.E.W.W.W.W.W.W.W.W.W.W.W.W.! k   u } } } } } } } } } } } } } } } @.N.G.J.J.J.",
"J.J.J.#.+.} } } } } } } } } } } } } [   @ 7 r.b.W.W.W.W.W.W.W.W.p.b ) t.W.a.b Y ( 7 $   ] } } } } } } } } } } } } } 1.@.0.J.J.J.",
"J.J.J.:.} } } } } } } } } } } } } } [   * v f.D.W.W.W.W.W.W.W.W.Z.a.A ! E.Z.' A Z N r   ] } } } } } } } } } } } } } } } 8.J.J.J.",
"J.7.<.-.} } } } } } } } } } } } } } [   9 _ K.W.W.W.W.W.W.W.W.W.!.^.e e U.!.^.R 0 b.W   ] } } } } } } } } } } } } } } } :.1.J.J.",
"J.3.} } } } } } } } } } } } } } } i u 2 M S.R.W.W.W.W.W.W.W.W.W.Z.a.; ; U.V.' > < R.^ 2 , u } } } } } } } } } } } } } } } } J.J.",
"J.3.} } } } } } } } } } } } } } } : . 7 R W.W.W.W.W.W.W.W.W.W.W.p.b X = U.' b O = W.s.7 X   } } } } } } } } } } } } } } } } J.J.",
"J.3.} } } } } } } } } } } } } } } : X _ h.W.W.W.W.W.W.W.W.W.W.W.v._ O = W.v._ ; = W.m._ -   } } } } } } } } } } } } } } } } J.J.",
"-.| } } } } } } } } } } } } } [ ] > 5 y.v.W.W.W.W.W.W.W.W.P.P.P.x.t.O = W.Z.t.< = P.x._ -   } } } } } } } } } } } } } } } } -.;.",
"-.| } } } } } } } } } } } } } i   j C U.T.W.W.W.W.W.W.W.W.q.q.q.i.b.O = W.S.b.1 & q.T _ -   } } } } } } } } } } } } } } } } -.-.",
"J.3.} } } } } } } } } } } } } i   m ( E.E.W.W.W.E.E.W.W.W.l.l.l.M.L.Q Q W.T.L.w.Q l.k.u.M t i a } } } } } } } } } } } } } } J.J.",
"8.1.} } } } } } } } } } } } } i   Z t.W.W.W.W.W.Y.R.W.W.W.W.W.W.W.W.W.W.W.W.W.W.W.E.I.b.' `   : } } } } } } } } } } } } } } 8.8.",
"} } } } } } } } } } } } } } } i   ^ b.W.W.W.W.W.b.A.Y.E.W.W.W.W.W.W.W.W.W.d.C S.W.W.U.b.D.S.  : } } } } } } } } } } } } } } } } ",
"} } } } } } } } } } } } } } } i   ^ b.W.W.W.W.W.j.n.S.Y.E.W.W.W.W.W.W.W.W.f.C C.W.W.S.j.D.T.  : } } } } } } } } } } } } } } } } ",
"} } } } } } } } } } } } } } } i   Z ` U.Y.W.T.U._ _ _ g.b.U.T.W.W.W.W.W.W.W.W.W.W.U.m.` U.W.  : } } } } } } } } } } } } } } } } ",
"@.@.@.*.} } } } } } } } } } } i   m Y j.m.S.b.h.K K K A E ~ ^ p.p.p.c.m.L.Y.E.E.T.A.p.k d.c.  : } } } } } } } } } } } } o.@.@.4.",
"N.N.N.:.} } } } } } } } } } } i   j V _ r.n.' _ b b b g 7 7 8 b b b ) ' b.A.U.U.L.b./ 6 A _   : } } } } } } } } } } } } $.N.N.N.",
"G.5.:.| } } } } } } } } } } } [ ] > # - < 9 < - x F U z.Q.L L U U U F F ' g.n.n.b.K v X * - ] [ } } } } } } } } } } } } =.:.G.B.",
"G.3.} } } } } } } } } } } } } } } u o o o o     x D I T.~.q.q.q.q.q.n c ( t.b.g.u.k 0 o o o } } } } } } } } } } } } } } } } J.J.",
"J.3.} } } } } } } } } } } } } } } } } } } } :   G P q.q.q.q.q.q.q.q.H S 7 B _ V k   u } } } } } } } } } } } } } } } } } } } J.J.",
"J.4.*.} } } } } } } } } } } } } } } } } } } :   S G I I I I I I I I S c 7 k J j 0 u a } } } } } } } } } } } } } } } } } *.*.G.J.",
"J.B.N.:.} } } } } } } } } } } } } } } } } } :   z c G G G G G G G G x l 7 f z + o } } } } } } } } } } } } } } } } } } } $.N.J.J.",
"J.G.N.X.:.} } } } } } } } } } } } } } } } } ] a 2 3 4 q h h h h h h h 8 h l z + o } } } } } } } } } } } } } } } } } -.:.%.N.J.J.",
"J.J.J.B.N.} } } } } } } } } } } } } } } } } } }       $ 7 7 7 7 7 7 7 8 z z z + o } } } } } } } } } } } } } } } } } @.N.G.J.J.J.",
"J.J.J.5.o.} } } } } } } } } } } } } } } } } } } } } } u                       ] } } } } } } } } } } } } } } } } } } >.2.0.J.J.J.",
"J.J.J.:.} } } } } } } } } } } } } } } } } } } } } } } i : : : : : : : : : : : [ } } } } } } } } } } } } } } } } } } } } 8.J.J.J.",
"J.7.<.-.} } } } } } } } } } } } } } } } } } } } } } } } } } } } } } } } } } } } } } } } } } } } } } } } } } } } } } } } ,.1.J.J.",
"J.3.} } } } } } } } } } } } } } } } } } } } } } } } } } } } } } } } } } } } } } } } } } } } } } } } } } } } } } } } } } } } J.J.",
"J.&.$.;.} } } } } } } } } } } } } } } } } } } } } } } } } } } } } } } } } } } } } } } } } } } } } } } } } } } } } } } } O.$.J.J.",
"J.B.N.:.} } } } } } } } } } } } } } } } } } } } } } } } } } } } } } } } } } } } } } } } } } } } } } } } } } } } } } } } $.N.J.J.",
"} } } } } } } } } } } } } } } } } } } } } } } } } } } } } } } } } } } } } } } } } } } } } } } } } } } } } } } } } } } } } } } } ",
"} } } } } } } } } } } } } } } } } } } } } } } } } } } } } } } } } } } } } } } } } } } } } } } } } } } } } } } } } } } } } } } } ",
"} } } } } } } } } } } } } } } } } } } } } } } } } } } } } } } } } } } } } } } } } } } } } } } } } } } } } } } } } } } } } } } } ",
"1.;.} } } } } } } } } } } } } } } } } } } } } } } } } } } } } } } } } } } } } } } } } } } } } } } } } } } } } } } } } } } } 1.>.",
"J.3.} } } } } } } } } } } } } } } } } } } } } } } } } } } } } } } } } } } } } } } } } } } } } } } } } } } } } } } } } } } } J.J.",
"3.,.} } } } } } } } } } } } } } } } } } } } } } } } } } } } } } } } } } } } } } } } } } } } } } } } } } } } } } } } } } } } 3.3.",
"} } } } } } } } } } } } } } } } } } } } } } } } } } } } } } } } } } } } } } } } } } } } } } } } } } } } } } } } } } } } } } } } ",
"} } } } } } } } } } } } } } } } } } } } } } } } } } } } } } } } } } } } } } } } } } } } } } } } } } } } } } } } } } } } } } } } ",
"} } } } } } } } } } } } } } } } } } } } } } } } } } } } } } } } } } } } } } } } } } } } } } } } } } } } } } } } } } } } } } } } ",
"} } } } } } } } } } } } } } } } } } } } } } } } } } } } } } } } } } } } } } } } } } } } } } } } } } } } } } } } } } } } } } } } ",
"} } } } } } } } } } } } } } } } } } } } } } } } } } } } } } } } } } } } } } } } } } } } } } } } } } } } } } } } } } } } } } } } ",
"J.3.} } } } } } } } } } } *.N.$.} o.N.N.N.N.&.} ..N...} } } } } } } } } } } *.N.N.N.N.N.:.} } :.N.o.} } } } } } } } } } } } N.N.",
"J.6.:.:.:.} } } | :.:.:. .*.N.%.,.6.N.N.N.B.&.,.4.N.o.:. .} }  .,.-.} ;.,.:.<.N.N.B.N.B.<.>.:.<.N.o.} *.:.:.:.} } } -.,.,.:.N.B.",
"J.J.J.B.N.} } } ..N.N.N.*.-.J.J.J.J.J.J.J.J.J.J.J.J.N.N.-.} } ,.J.3.} 8.J.J.J.G.J.J.J.J.J.J.J.J.J.3.} @.N.N.&.} } } 6.J.J.J.J.J."
};
