/* XPM */
static char *d8b85d7e55c14e2dc326f06946a1dab8IHFn2zEteKEiHjAJ[] = {
/* columns rows colors chars-per-pixel */
"64 64 177 2 ",
"   c black",
".  c #0C0202",
"X  c #1A0609",
"o  c #0E190A",
"O  c #1E0D13",
"+  c #2D000A",
"@  c #280709",
"#  c #310808",
"$  c #3E0A0A",
"%  c #300C10",
"&  c #20141C",
"*  c #37121C",
"=  c #3D171B",
"-  c #162B0E",
";  c #1D3216",
":  c #382C1B",
">  c #2A3418",
",  c #3A1521",
"<  c #3E1C29",
"1  c #48080D",
"2  c #4A0715",
"3  c #4D091E",
"4  c #5A101C",
"5  c #631010",
"6  c #731117",
"7  c #531B2B",
"8  c #6D1E25",
"9  c #751124",
"0  c #4D3128",
"q  c #77272B",
"w  c #6A2436",
"e  c #6E2338",
"r  c #264019",
"t  c #324C1E",
"y  c #2C4B21",
"u  c #3A642B",
"i  c #417131",
"p  c #487D36",
"a  c #722940",
"s  c #7B3852",
"d  c #86091B",
"f  c #82161F",
"g  c #8E0A29",
"h  c #88182B",
"j  c #901429",
"k  c #9D1D32",
"l  c #A80325",
"z  c #B50029",
"x  c #B8032E",
"c  c #BE063B",
"v  c #882331",
"b  c #B52039",
"n  c #C20239",
"m  c #972740",
"M  c #87354D",
"N  c #983248",
"B  c #BD2A46",
"V  c #BE304D",
"C  c #A73756",
"Z  c #B63A56",
"A  c #CA0446",
"S  c #D3094E",
"D  c #C61745",
"F  c #D60052",
"G  c #DA0557",
"H  c #CE2E57",
"J  c #C93456",
"K  c #CA385A",
"L  c #DB1769",
"P  c #E50965",
"I  c #EF0F71",
"U  c #EC1A71",
"Y  c #D43E64",
"T  c #944955",
"R  c #B2405A",
"E  c #90577A",
"W  c #B74966",
"Q  c #B85377",
"!  c #C94467",
"~  c #D7436A",
"^  c #DE4973",
"/  c #E14E79",
"(  c #E4537F",
")  c #45872E",
"_  c #58AC3B",
"`  c #5CB03F",
"'  c #579641",
"]  c #5FA346",
"[  c #5EB241",
"{  c #66AF4C",
"}  c #62B545",
"|  c #66BA49",
" . c #69BD4C",
".. c #6CBB52",
"X. c #6FC352",
"o. c #71C554",
"O. c #74C857",
"+. c #7CC759",
"@. c #7CC85A",
"#. c #A2BF68",
"$. c #ABBF6B",
"%. c #B2BC6D",
"&. c #BABB6F",
"*. c #BEBB70",
"=. c #C2BA72",
"-. c #CCBE75",
";. c #D1B778",
":. c #DBBA7B",
">. c #E2B67D",
",. c #84C55C",
"<. c #8CC45F",
"1. c #84C85C",
"2. c #8DC85F",
"3. c #93C262",
"4. c #9CC665",
"5. c #95C862",
"6. c #AAC66A",
"7. c #A6C868",
"8. c #B3C06E",
"9. c #B6C86D",
"0. c #BDC670",
"q. c #C5C173",
"w. c #C7C973",
"e. c #CEC876",
"r. c #D7C979",
"t. c #DFC97C",
"y. c #E7C67E",
"u. c #FF1884",
"i. c #9F5F84",
"p. c #B65D81",
"a. c #BF79A7",
"s. c #D65980",
"d. c #E35480",
"f. c #E85B89",
"g. c #FB4494",
"h. c #DA618B",
"j. c #D07283",
"k. c #CE6E94",
"l. c #DE6A97",
"z. c #EE6595",
"x. c #ED6C9C",
"c. c #F36C9E",
"v. c #F75DA3",
"b. c #FF5DB1",
"n. c #D77EAD",
"m. c #F368A4",
"M. c #EC73A4",
"N. c #EE75A8",
"B. c #F672A5",
"V. c #F777AB",
"C. c #F179AC",
"Z. c #FD73B9",
"A. c #F2B383",
"S. c #F4BC83",
"D. c #E885A8",
"F. c #EB81B4",
"G. c #E88AB0",
"H. c #FB81B5",
"J. c #F885BA",
"K. c #EEC481",
"L. c #F6C284",
"P. c #F0C981",
"I. c #F8C984",
"U. c #F78BC2",
"Y. c #FB8BC2",
"T. c #FF80C8",
"R. c #FC8FC9",
"E. c #FF92C6",
"W. c #FE94CB",
"Q. c #FF98CE",
"!. c #FD96D0",
"~. c #FF9BD5",
"^. c #FFA2DE",
"/. c #D8C0C3",
"(. c #FFCAE8",
"). c #FFDFEF",
"_. c #FFFBFF",
/* pixels */
"I.t.w.w.w.O.O.O.5.w.w.w.@.1.I.K.w.y.I.I.I.I.P.w.r.I.r.w.@.O.O.1.w.4.O.9.w.w.e.I.I.I.I.I.e.w.w.r.I.9.O.7.w.w.0.O.O.O.7.w.w.w.I.I.",
"I.9.O.O.O.O.O.O.O.O.O.O.O.1.I.r.O.9.I.I.I.I.y.O.7.I.7.O.O.O.O.O.O.O.O.O.O.O.1.I.I.I.I.I.5.O.O.5.I.9.O.O.O.O.O.O.O.O.O.O.O.O.I.I.",
"9.5.O.O.O.O.O.O.O.O.O.O.O.@.9.7.O.5.9.9.9.9.6.O.2.9.2.O.O.O.O.O.O.O.O.O.O.O.@.9.9.9.9.9.1.O.O.1.9.5.O.O.O.O.O.O.O.O.O.O.O.O.9.9.",
"O.O.O.O.O.O.O.O.O.O.O.O.O.O.O.O.O.O.O.O.O.O.O.O.O.O.O.O.O.O.O.O.O.O.O.O.O.O.O.O.O.O.O.O.O.O.O.O.O.O.O.O.O.O.O.O.O.O.O.O.O.O.O.O.",
"O.O.O.O.O.O.O.O.O.O.O.O.O.O.O.O.O.O.O.O.O.O.O.O.O.O.O.O.O.O.O.O.O.O.O.O.O.O.O.O.O.O.O.O.O.O.O.O.O.O.O.O.O.O.O.O.O.O.O.O.O.O.O.O.",
"O.O.O.O.O.O.O.O.O.O.O.O.O.O.O.O.O.O.O.O.O.O.O.O.O.O.O.O.O.O.O.O.O.O.O.O.O.O.O.O.O.O.O.O.O.O.O.O.O.O.O.O.O.O.O.O.O.O.O.O.O.O.O.O.",
"O.O.O.O.O.O.O.O.O.O.O.O.O.O.O.O.O.O.O.O.O.O.O.O.O.O.O.O.O.O.O.O.O.O.O.O.O.O.O.O.O.O.O.O.O.O.O.O.O.O.O.O.O.O.O.O.O.O.O.O.O.O.O.O.",
"O.O.O.O.O.O.O.O.O.O.O.O.O.O.O.O.O.O.O.O.O.O.O.O.O.O.O.O.O.O.O.O.O.O.O.O.O.O.O.O.O.O.O.O.O.O.O.O.O.O.O.O.O.O.O.O.O.O.O.O.O.O.O.O.",
"A.%.O.O.O.O.O.O.O.O.O.O.O.O.O.O.O.O.O.O.O.O.O.O.O.O.O.O.O.O.O.O.O.O.O.O.O.O.O.O.O.O.O.O.O.O.O.O.O.O.O.O.O.O.O.O.O.O.O.O.O.O.A.A.",
"A.8.O.O.O.O.O.O.O.O.O.O.O.O.O.O.O.O.O.O.O.O.O.O.O.O.O.O.O.O.O.O.O.O.O.O.O.O.O.O.O.O.O.O.O.O.O.O.O.O.O.O.O.O.O.O.O.O.O.O.O.O.A.A.",
"I.9.O.O.O.O.O.O.O.O.O.O.O.O.O.O.O.O.O.O.O.O.O.O.O.O.O.O.O.O.O.O.O.O.O.O.O.O.O.O.O.O.O.O.O.O.O.O.O.O.O.O.O.O.O.O.O.O.O.O.O.O.I.I.",
"w.4.O.O.O.O.O.O.O.O.O.O.O.O.O.O.O.O.O.O.O.O.O.O.O.O.O.O.O.O.O.O.O.O.O.O.O.O.O.O.O.O.O.O.O.O.O.O.O.O.O.O.O.O.O.O.O.O.O.O.O.O.w.w.",
"O.O.O.O.O.O.O.O.O.O.O.O.O.O.O.O.O.O.O.O.O.O.O.O.O.O.O.O.O.O.O.O.O.O.O.O.O.O.O.O.O.O.O.O.O.O.O.O.O.O.O.O.O.O.O.O.O.O.O.O.O.O.O.O.",
"%.%.%.,.O.O.O.O.O.O.O.O.O.O.O.O.O.O.O.O.O.O.O.O.O.O.O.O.O.O.O.O.O.O.O.O.O.O.O.O.O.O.O.O.O.O.O.O.O.O.O.O.O.O.O.O.O.O.O.O.7.%.%.%.",
"A.A.A.3.O.O.O.O.O.O.O.O.O.O.O.O.O.O.O.O.O.O.O.O.O.O.O.O.O.O.O.O.O.O.O.O.O.O.O.O.O.O.O.O.O.O.O.O.O.O.O.O.O.O.O.O.O.O.O.O.;.A.A.A.",
"L.q.3.+.O.O.O.O.O.O.O.O.O.O.O.O.O.O.O.O.O.O.O.O.O.O.O.O.O.O.O.O.O.O.O.O.O.O.O.O.O.O.O.O.O.O.O.O.O.O.O.O.O.O.O.O.O.O.O.o.<.3.L.L.",
"I.9.O.O.O.O.O.O.O.O.O.O.O.O.O.O.O.O.O.O.O.O.O.O.O...{ { { { { { { { { { { ..O.O.O.O.O.O.O.O.O.O.O.O.O.O.O.O.O.O.O.O.O.O.O.O.I.I.",
"I.9.O.O.O.O.O.O.O.O.O.O.O.O.O.O.O.O.O.O.O.O.O.O.O.p                       u O.O.O.O.O.O.O.O.O.O.O.O.O.O.O.O.O.O.O.O.O.O.O.O.I.I.",
"I.9.o.O.O.O.O.O.O.O.O.O.O.O.O.O.O.O.O.O.O.O.p u u t # 3 4 e a s s s e w 4 0 u u i O.O.O.O.O.O.O.O.O.O.O.O.O.O.O.O.O.O.O.O.O.I.I.",
"I.S.A.3.O.O.O.O.O.O.O.O.O.O.O.O.O.O.O.O.O.O.;     @ 5 j b ^ d.B.B.B.( ~ b 4     o O.O.O.O.O.O.O.O.O.O.O.O.O.O.O.O.O.O.O.;.A.I.I.",
"I.L.A.$.3.O.O.O.O.O.O.O.O.O.O.O.O.O.O.O.' ; = 1 Q k.n.F.F.U.R.~.!.!.U.U.F.D.a.N v ; u O.O.O.O.O.O.O.O.O.O.O.O.O.O.O.,.3.:.A.I.I.",
"I.I.I.A.A.O.O.O.O.O.O.O.O.O.O.O.O.O.O.O.p   1 5 B.J.~.^.^.^.^.^.^.^.^.^.^.^.^.W k   y O.O.O.O.O.O.O.O.O.O.O.O.O.O.o.=.A.L.I.I.I.",
"I.I.I.-.*.O.O.O.O.O.O.O.O.O.O.O.O.O.{   @ 5 ( B.^.^.^.^.^.^.^.^.h.b ~ d.^.h.b K ! 5 $   ' O.O.O.O.O.O.O.O.O.O.O.O.O.7.=.K.I.I.I.",
"I.I.I.5.O.O.O.O.O.O.O.O.O.O.O.O.O.O.|   % v l.J.^.^.^.^.^.^.^.^.G.j.Z W ~.D.j.Z Z N w   ' O.O.O.O.O.O.O.O.O.O.O.O.O.O.O.r.I.I.I.",
"I.e.7.1.O.O.O.O.O.O.O.O.O.O.O.O.O.O.{   7 ^ J.^.^.^.^.^.^.^.^.^.(._.q q E.(._.T 8 B.T   ' O.O.O.O.O.O.O.O.O.O.O.O.O.O.O.5.7.I.I.",
"I.9.O.O.O.O.O.O.O.O.O.O.O.O.O.O.O.u r $ s J.!.^.^.^.^.^.^.^.^.^.G.j.= = E.D.( = = E.p.1 > y O.O.O.O.O.O.O.O.O.O.O.O.O.O.O.O.I.I.",
"I.9.O.O.O.O.O.O.O.O.O.O.O.O.O.O.O.; . 5 T ^.^.^.^.^.^.^.^.^.^.^.h.b X & E.( b O & ^.k.4 X   O.O.O.O.O.O.O.O.O.O.O.O.O.O.O.O.I.I.",
"I.9.O.O.O.O.O.O.O.O.O.O.O.O.O.O.O.; X / x.^.^.^.^.^.^.^.^.^.^.^.N.^ O & ^.M.^ : & ^.F.^ *   O.O.O.O.O.O.O.O.O.O.O.O.O.O.O.O.I.I.",
"1.@.O.O.O.O.O.O.O.O.O.O.O.O.O.{ ' : 3 f.C.^.^.^.^.^.^.^.^.T.T.T.m.( O & ^.F.( = & T.m.^ *   O.O.O.O.O.O.O.O.O.O.O.O.O.O.O.O.,.2.",
"1.@.O.O.O.O.O.O.O.O.O.O.O.O.O.u   h V E.Q.^.^.^.^.^.^.^.^.u.u.u.g.B.& & ^.J.V.< X u.u.^ *   O.O.O.O.O.O.O.O.O.O.O.O.O.O.O.O.1.@.",
"I.9.O.O.O.O.O.O.O.O.O.O.O.O.O.u   m ~ !.^.^.^.^.~.~.^.^.^.b.b.b.Z.J.E E ^.Q.U.i.E b.v.f.M e u p O.O.O.O.O.O.O.O.O.O.O.O.O.O.I.I.",
"r.7.O.O.O.O.O.O.O.O.O.O.O.O.O.u   C d.^.^.^.^.^.E.Q.^.^.^.^.^.^.^.^.^.^.^.^.^.^.^.^.R.B.( /   ; O.O.O.O.O.O.O.O.O.O.O.O.O.O.r.r.",
"O.O.O.O.O.O.O.O.O.O.O.O.O.O.O.u   Q B.^.^.^.^.^.V.H.W.~.^.^.^.^.^.^.^.^.^.l.V J.^.^.E.V.J.J.  ; O.O.O.O.O.O.O.O.O.O.O.O.O.O.O.O.",
"O.O.O.O.O.O.O.O.O.O.O.O.O.O.O.u   Q B.^.^.^.^.^.c.V.J.W.!.^.^.^.^.^.^.^.^.l.V F.^.^.J.c.J.E.  ; O.O.O.O.O.O.O.O.O.O.O.O.O.O.O.O.",
"O.O.O.O.O.O.O.O.O.O.O.O.O.O.O.u   C ( E.W.^.W.E.^ ^ ^ z.B.E.Q.^.^.^.^.^.^.^.^.^.^.E.C./ E.^.  ; O.O.O.O.O.O.O.O.O.O.O.O.O.O.O.O.",
"=.=.=.1.O.O.O.O.O.O.O.O.O.O.O.u   m Y x.V.J.C.x.J J K R R W Q h.h.h.N.C.U.W.~.~.Q.H.h.k l.N.  ; O.O.O.O.O.O.O.O.O.O.O.O.8.=.=.*.",
"A.A.A.3.O.O.O.O.O.O.O.O.O.O.O.u   h B ^ s.B.d.^ b b b f 5 5 6 b b b ~ ( B.H.E.E.Y.B.! 4 Z ^   ; O.O.O.O.O.O.O.O.O.O.O.O.;.A.A.A.",
"L.q.3.+.O.O.O.O.O.O.O.O.O.O.O.{ ' : % * , 7 , * x D U n./.L L U U U D D ( z.V.V.B.J v X * * ' ] O.O.O.O.O.O.O.O.O.O.O.O.<.3.L.L.",
"I.9.O.O.O.O.O.O.O.O.O.O.O.O.O.O.o.t o o o o     x S I Q.).u.u.u.u.u.n n ! f.c.x.f.k 8 o o o O.O.O.O.O.O.O.O.O.O.O.O.O.O.O.O.I.I.",
"I.9.O.O.O.O.O.O.O.O.O.O.O.O.O.O.O.O.O.o.O.O.;   F P u.u.u.u.u.u.u.u.G A 5 k ~ J k   y O.O.O.O.O.O.O.O.O.O.O.O.O.O.O.O.O.O.O.I.I.",
"I.0.,.O.O.O.O.O.O.O.O.O.O.O.O.O.O.O.O.O.O.O.;   A F I I I I I I I I A c 5 k H h 8 t p O.O.O.O.O.O.O.O.O.O.O.O.O.O.O.O.O.,.,.I.I.",
"I.S.A.3.O.O.O.O.O.O.O.O.O.O.O.O.O.O.O.O.O.O.;   z c F F F F F F F F x l 5 d z + o O.O.O.O.O.O.O.O.O.O.O.O.O.O.O.O.O.O.o.;.A.I.I.",
"I.S.A.%.3.O.O.O.O.O.O.O.O.O.O.O.O.O.O.O.O.O.' p 1 2 3 9 g g g g g g d d g l z + o O.O.O.O.O.O.O.O.O.O.O.O.O.O.O.O.O.,.3.:.A.I.I.",
"I.I.I.S.A.O.O.O.O.O.O.O.O.O.O.O.O.O.O.O.O.o. .|       $ 5 5 5 5 5 5 5 6 z z z + o X.O.O.O.O.O.O.O.O.O.O.O.O.O.O.O.O.=.A.I.I.I.I.",
"I.I.I.=.%.O.O.O.O.O.O.O.O.O.O.O.O.O.| [ _ _ _ _ _ _ _ r                       ) _ _ _ [  .o.O.O.O.O.O.O.O.O.O.O.O.O.4.%.y.I.I.I.",
"I.I.I.5.O.O.O.O.O.O.O.O.O.O.O.O. ._ _ _ _ _ _ _ _ _ _ y - - - - - - - - - - - ) _ _ _ _ _ `  .O.O.O.O.O.O.O.O.O.O.O.O.O.r.I.I.I.",
"I.e.7.,.O.O.O.O.O.O.O.O.O.O.O.O._ _ _ _ _ _ _ _ _ _ _ _ _ _ _ _ _ _ _ _ _ _ _ _ _ _ _ _ _ _ _ O.O.O.O.O.O.O.O.O.O.O.O.O.5.7.I.I.",
"I.9.O.O.O.O.O.O.O.O.O.O.O.O.O.O. ._ _ _ _ _ _ _ _ _ _ _ _ _ _ _ _ _ _ _ _ _ _ _ _ _ _ _ _ _  .O.O.O.O.O.O.O.O.O.O.O.O.O.O.O.I.I.",
"I.K.;.,.O.O.O.O.O.O.O.O.O.O.O.O.O.o. .[ _ _ _ _ _ _ _ _ _ _ _ _ _ _ _ _ _ _ _ _ _ _ _ }  .o.O.O.O.O.O.O.O.O.O.O.O.O.O.O.&.;.I.I.",
"I.S.A.3.O.O.O.O.O.O.O.O.O.O.O.O.O.O.O.O.O.X. .| } } [ _ _ _ _ _ _ _ _ [ [ } } |  .o.O.O.O.O.O.O.O.O.O.O.O.O.O.O.O.O.O.O.;.A.I.I.",
"O.O.O.O.O.O.O.O.O.O.O.O.O.O.O.O.O.O.O.O.O.O.O.O.O.O.O.O.O.O.O.O.O.O.O.O.o.O.O.O.O.O.O.O.O.O.O.O.O.O.O.O.O.O.O.O.O.O.O.O.O.O.O.O.",
"O.O.O.O.O.O.O.O.O.O.O.O.O.O.O.O.O.O.O.O.O.O.O.O.O.O.O.O.O.O.O.O.O.O.O.O.O.O.O.O.O.O.O.O.O.O.O.O.O.O.O.O.O.O.O.O.O.O.O.O.O.O.O.O.",
"O.O.O.O.O.O.O.O.O.O.O.O.O.O.O.O.O.O.O.O.O.O.O.O.O.O.O.O.O.O.O.O.O.O.O.O.O.O.O.O.O.O.O.O.O.O.O.O.O.O.O.O.O.O.O.O.O.O.O.O.O.O.O.O.",
"7.<.O.O.O.O.O.O.O.O.O.O.O.O.O.O.O.O.O.O.O.O.O.O.O.O.O.O.O.O.O.O.O.O.O.O.O.O.O.O.O.O.O.O.O.O.O.O.O.O.O.O.O.O.O.O.O.O.O.O.O.O.7.4.",
"I.9.O.O.O.O.O.O.O.O.O.O.O.O.O.O.O.O.O.O.O.O.O.O.O.O.O.O.O.O.O.O.O.O.O.O.O.O.O.O.O.O.O.O.O.O.O.O.O.O.O.O.O.O.O.O.O.O.O.O.O.O.I.I.",
"9.5.O.O.O.O.O.O.O.O.O.O.O.O.O.O.O.O.O.O.O.O.O.O.O.O.O.O.O.O.O.O.O.O.O.O.O.O.O.O.O.O.O.O.O.O.O.O.O.O.O.O.O.O.O.O.O.O.O.O.O.O.9.9.",
"O.O.O.O.O.O.O.O.O.O.O.O.O.O.O.O.O.O.O.O.O.O.O.O.O.O.O.O.O.O.O.O.O.O.O.O.O.O.O.O.O.O.O.O.O.O.O.O.O.O.O.O.O.O.O.O.O.O.O.O.O.O.O.O.",
"O.O.O.O.O.O.O.O.O.O.O.O.O.O.O.O.O.O.O.O.O.O.O.O.O.O.O.O.O.O.O.O.O.O.O.O.O.O.O.O.O.O.O.O.O.O.O.O.O.O.O.O.O.O.O.O.O.O.O.O.O.O.O.O.",
"O.O.O.O.O.O.O.O.O.O.O.O.O.O.O.O.O.O.O.O.O.O.O.O.O.O.O.O.O.O.O.O.O.O.O.O.O.O.O.O.O.O.O.O.O.O.O.O.O.O.O.O.O.O.O.O.O.O.O.O.O.O.O.O.",
"O.O.O.O.O.O.O.O.O.O.O.O.O.O.O.O.O.O.O.O.O.O.O.O.O.O.O.O.O.O.O.O.O.O.O.O.O.O.O.O.O.O.O.O.O.O.O.O.O.O.O.O.O.O.O.O.O.O.O.O.O.O.O.O.",
"O.O.O.O.O.O.O.O.O.O.O.O.O.O.O.O.O.O.O.O.O.O.O.O.O.O.O.O.O.O.O.O.O.O.O.O.O.O.O.O.O.O.O.O.O.O.O.@.O.O.O.O.O.O.O.O.O.O.O.O.O.O.O.O.",
"L.9.O.O.O.O.O.O.O.O.O.O.O.,.A.;.O.%.A.A.A.A.>.O.#.A.#.O.O.O.O.O.O.O.O.O.O.O.,.A.A.A.A.A.3.O.O.3.A.%.O.O.O.O.O.O.O.O.O.O.O.O.A.A.",
"I.w.5.3.3.O.O.O.+.3.3.3.@.1.A.:.5.q.A.S.A.A.>.5.0.S.%.3.@.O.O.@.5.1.O.2.3.3.7.A.A.A.S.A.6.5.5.6.A.%.O.,.3.3.3.O.O.O.1.5.5.5.A.A.",
"I.I.I.A.A.O.O.O.#.A.A.A.,.1.I.I.I.I.I.I.I.I.I.I.I.I.A.A.1.O.O.5.I.9.O.r.I.I.I.I.I.I.I.I.I.I.I.I.I.8.O.*.A.A.>.O.O.O.w.I.I.I.I.I."
};
