/* XPM */
static char *_37c12201d9348cfef9de51e4f10ade8XYVdlRPSdaFADk10[] = {
/* columns rows colors chars-per-pixel */
"64 64 159 2 ",
"   c #CE7108",
".  c #C8760D",
"X  c #C9760D",
"o  c #D47608",
"O  c #D77908",
"+  c #D47B08",
"@  c #DA7B08",
"#  c #DD7D08",
"$  c #C37C12",
"%  c #7FBD4D",
"&  c #74C857",
"*  c #7CC759",
"=  c #7CC859",
"-  c #7CC85A",
";  c #BD8217",
":  c #B7871B",
">  c #B7871C",
",  c #B28D21",
"<  c #AC9225",
"1  c #A7972A",
"2  c #A19C2F",
"3  c #A19D30",
"4  c #96A739",
"5  c #90AD3E",
"6  c #D78008",
"7  c #DA8508",
"8  c #DD8B08",
"9  c #E08008",
"0  c #E38308",
"q  c #E68608",
"w  c #E98808",
"e  c #EA8808",
"r  c #EC8A08",
"t  c #ED8B08",
"y  c #F08D08",
"u  c #E09008",
"i  c #E69208",
"p  c #EC9A08",
"a  c #EC9D08",
"s  c #F39008",
"d  c #F39508",
"f  c #F99508",
"g  c #F39C08",
"h  c #F99A08",
"j  c #FF9A08",
"k  c #EDA508",
"l  c #EDA908",
"z  c #EDAF08",
"x  c #F3A608",
"c  c #F3A708",
"v  c #F9A108",
"b  c #FFA408",
"n  c #F3AA08",
"m  c #F3AE08",
"M  c #FFA908",
"N  c #FFAE08",
"B  c #ECBC08",
"V  c #F3B508",
"C  c #F9B408",
"Z  c #F6B808",
"A  c #F6BE08",
"S  c #F9B808",
"D  c #FFB808",
"F  c #FFB908",
"G  c #F9BE08",
"H  c #FFBE08",
"J  c #ECC008",
"K  c #F9C008",
"L  c #F9C308",
"P  c #FFC308",
"I  c #F9C708",
"U  c #F3CB08",
"Y  c #F3CE08",
"T  c #FCC908",
"R  c #F3D108",
"E  c #F6D708",
"W  c #F9D208",
"Q  c #FFD108",
"!  c #FCD608",
"~  c #F3D908",
"^  c #FFD808",
"/  c #FFDA08",
"(  c #F9DC08",
")  c #FFDC08",
"_  c #F9E308",
"`  c #FCE008",
"'  c #FCE108",
"]  c #FFE408",
"[  c #FFE508",
"{  c #F9EA08",
"}  c #FFEA08",
"|  c #FFEB08",
" . c #FCEC08",
".. c #FFED08",
"X. c #FFF108",
"o. c #FFF408",
"O. c #FFF708",
"+. c #FFFB08",
"@. c #8AB243",
"#. c #85B748",
"$. c #A3BF68",
"%. c #ABBF6B",
"&. c #B3BC6C",
"*. c #B2BC6D",
"=. c #B3BE6D",
"-. c #BEBB70",
";. c #C2B973",
":. c #C2BA72",
">. c #D1B778",
",. c #D2B778",
"<. c #DBBA7B",
"1. c #DBBB7B",
"2. c #E1B47D",
"3. c #E3BA7D",
"4. c #83C55C",
"5. c #84C55C",
"6. c #8CC45F",
"7. c #84C85C",
"8. c #85C85D",
"9. c #8DC85F",
"0. c #93C262",
"q. c #93C362",
"w. c #9BC165",
"e. c #95C862",
"r. c #9DC865",
"t. c #A0C867",
"y. c #A5C568",
"u. c #ACC36B",
"i. c #A5C868",
"p. c #A6C868",
"a. c #AEC86A",
"s. c #B3C06E",
"d. c #B6C86D",
"f. c #BCC170",
"g. c #BEC970",
"h. c #C5C273",
"j. c #C6C873",
"k. c #C7C973",
"l. c #CCC874",
"z. c #CFC876",
"x. c #CFC976",
"c. c #D7C878",
"v. c #D7C979",
"b. c #DFC97C",
"n. c #E5C07E",
"m. c #E7C67E",
"M. c #E8C97F",
"N. c #F0B083",
"B. c #F1B183",
"V. c #F2B383",
"C. c #F2B483",
"Z. c #F3B783",
"A. c #F3BA83",
"S. c #F4BD83",
"D. c #EEC481",
"F. c #F6C384",
"G. c #F0C981",
"H. c #F8C984",
"J. c #F8CA84",
/* pixels */
"H.b.k.k.k.& & & e.k.k.k.- 8.H.M.k.b.H.H.H.H.G.k.v.H.v.k.- & & 8.k.r.& a.k.k.x.J.H.H.H.H.x.k.k.v.J.d.& p.k.k.g.& & & p.k.k.k.J.J.",
"H.d.& & & & & & & & & & & 8.H.v.& d.H.H.H.H.M.& i.H.i.& & & & & & & & & & & 5.J.H.H.H.H.e.& & e.J.d.& & & & & & & & & & & & H.H.",
"d.e.& & & & & & & & & & & - d.i.& e.d.d.d.d.a.& 9.d.9.& & & & & & & & & & & - d.d.d.d.d.8.& & 8.d.e.& & & & & & & & & & & & d.d.",
"& & & & & & & & & & & & & & & & & & & & & & & & & & & & & & & & & & & & & & & & & & & & & & & & & & & & & & & & & & & & & & & & ",
"& & & & & & & & & & & & & & & & & & & & & & & & & & & & & & & & & & & & & & & & & & & & & & & & & & & & & & & & & & & & & & & & ",
"& & & & & & & & & & & & & & & & & & & & & & & & & & & & & & & & & & & & & & & & & & & & & & & & & & & & & & & & & & & & & & & & ",
"& & & & & & & & & & & & & & & & & & & & & & & & & & & & & & & & & & & & & & & & & & & & & & & & & & & & & & & & & & & & & & & & ",
"& & & & & & & & & & & & & & & & & & & & & & & & & & & & & & & & & & & & & & & & & & & & & & & & & & & & & & & & & & & & & & & & ",
"N.=.& & & & & & & & & & & & & & & & & & & & & & & & & & & & & & & & & & & & & & & & & & & & & & & & & & & & & & & & & & & & N.N.",
"N.=.& & & & & & & & & & & & & & & & & & & & & & & & & & & & & & & & & & & & & & & & & & & & & & & & & & & & & & & & & & & & C.N.",
"H.d.& & & & & & & & & & & & & & & & & & & & & & & & & & & & & & & & & & & & & & & & & & & & & & & & & & & & & & & & & & & & J.J.",
"k.r.& & & & & & & & & & & & & & & & & & & & & & & & & & & & & & & & & & & & & & & & & & & & & & & & & & & & & & & & & & & & k.l.",
"& & & & & & & & & & & & & & & & & & & & & & & & & & & & & & & & & & & & & & & & & & & & & & & & & & & & & & & & & & & & & & & & ",
"=.=.=.5.& & & & & & & & & & & & & & & & & & & & & & & & & & & & & & & & & & & & & & & & & & & & & & & & & & & & & & & & p.&.&.&.",
"N.N.N.0.& & & & & & & & & & & & & & & & & & & & & & & & & & & & & & & & & & & & & & & & & & & & & & & & & & & & & & & & >.N.N.N.",
"F.h.0.* & & & & & & & & & & & & & & & & & & & & & & & & & & & & & & & & & & & & & & & & & & & & & & & & & & & & & & & & 6.0.F.F.",
"H.d.& & & & & & & & & & & & & & & & & & & & & & & & & & 4 < < < < < 5 & & & & & & & & & & & & & & & & & & & & & & & & & & & H.H.",
"H.d.& & & & & & & & & & & & & & & & & & & & & & & & & 4 $ o u k 8   ; 5 & & & & & & & & & & & & & & & & & & & & & & & & & & H.H.",
"H.d.& & & & & & & & & & & & & & & & & & & & & & & & & < # z ( [ E l # 2 & & & & & & & & & & & & & & & & & & & & & & & & & & H.H.",
"H.S.N.0.& & & & & & & & & & & & & & & & & & & & & & 4 $ p ' +.+.+.^ i ; 4 & & & & & & & & & & & & & & & & & & & & & & & >.N.H.H.",
"H.S.Z.u.0.& & & & & & & & & & & & & & & & & & & & & < # L X.+.+.+.X.Z # < & & & & & & & & & & & & & & & & & & & & & 4.0.<.Z.H.H.",
"H.H.H.N.N.& & & & & & & & & & & & & & & & & & & & 3 $ p ' +.+.+.+.+.^ i $ 4 & & & & & & & & & & & & & & & & & & & & ;.N.F.H.H.H.",
"H.H.H.z.:.& & & & & & & & & & & & & & & & & & & & > 0 T +.+.+.+.+.+.o.G q < & & & & & & & & & & & & & & & & & & & & y.;.D.H.H.H.",
"H.H.H.e.& & & & & & & & & & & & & & & & & & & & 1 X a ' +.+.+.+.+.+.+.^ a $ 3 & & & & & & & & & & & & & & & & & & & & & v.H.H.H.",
"H.z.y.8.& & & & & & & & & & & & & & & & & < > > X   B o.+.+.+.+.+.+.+.o.J   $ > : 1 & & & & & & & & & & & & & & & & & & q.i.H.H.",
"H.d.& & & & & & & & & & & & & & & & < : >   e c Y ~ o.+.+.+.+.+.+.+.+.+.{ ~ U c w X : > 1 & & & & & & & & & & & & & & & & & H.H.",
"H.d.& & & & & & & & & & & & & & > >   t n R ' } +.+.+.+.+.+.+.+.+.+.+.+.+.+.X.} ' R c w X > , & & & & & & & & & & & & & & & H.J.",
"H.d.& & & & & & & & & & & & & :   t n ) ..+.+.+.+.+.+.+.+.+.+.+.+.+.+.+.+.+.+.+.O.O.| ! c t X , & & & & & & & & & & & & & & H.J.",
"8.- & & & & & & & & & & & & &     W ..+.+.+.+.+.+.+.+.+.+.+.+.+.+.+.+.+.+.+.+.+.+.+.+.O. .(   $ & & & & & & & & & & & & & & 8.9.",
"8.- & & & & & & & & & & & & &   y X.+.+.+.+.+.+.+.+.+.+.+.+.+.+.+.+.+.+.+.+.+.+.+.+.+.+.+. .y $ & & & & & & & & & & & & & & 8.- ",
"J.d.& & & & & & & & & & & & &   j X.+.+.+.+.+.+.+.+.+.+.+.+.+.+.+.+.+.+.+.+.+.+.+.+.+.+.+. .f $ & & & & & & & & & & & & & & H.J.",
"c.p.& & & & & & & & & & & & &   @ I o.+.+.+.+.+.+.+.+.+.+.+.+.+.+.+.+.+.+.+.+.+.+.+.+.+.X.T O $ & & & & & & & & & & & & & & v.v.",
"& & & & & & & & & & & & & & & @.  7 T o.+.+.+.+.+.+.+.+.+.+.+.+.+.+.+.+.+.+.+.+.+.+.+.X.A 6 X #.& & & & & & & & & & & & & & & & ",
"& & & & & & & & & & & & & & & & % $ + { +.+.+.+.+.+.+.+.+.+.+.+.+.+.+.+.+.+.+.+.+.+.+.~ + $ % & & & & & & & & & & & & & & & & & ",
"& & & & & & & & & & & & & & & & & $   v X.+.+.+.+.+.+.+.+.+.+.+.+.+.+.+.+.+.+.+.+.+.' g   $ & & & & & & & & & & & & & & & & & & ",
";.;.;.5.& & & & & & & & & & & & & % $ o L X.+.+.+.+.+.+.+.+.+.+.+.+.+.+.+.+.+.+.+...V o > % & & & & & & & & & & & & & & =.:.:.-.",
"N.N.N.0.& & & & & & & & & & & & & & % $ + L X.+.+.+.+.+.+.+.+.+.+.+.+.+.+.+.+.+...V + > % & & & & & & & & & & & & & & & >.N.N.N.",
"F.h.0.- & & & & & & & & & & & & & & & % $ h ' +.+.+.+.+.+.+.+.+.+.+.+.+.+.+.+.+.[ d > % & & & & & & & & & & & & & & & & 6.0.F.F.",
"H.d.& & & & & & & & & & & & & & & & & & $ f [ +.+.+.+.+.+.+.+.+.+.+.+.+.+.+.+.+.' s > & & & & & & & & & & & & & & & & & & & H.H.",
"H.d.& & & & & & & & & & & & & & & & & & $ C { +.+.+.+.+.+.+.+.+.+.+.+.+.+.+.+.+...n > & & & & & & & & & & & & & & & & & & & H.H.",
"H.k.7.& & & & & & & & & & & & & & & & >   _ +.+.+.+.+.+.+.+.+.+.+.+.+.+.+.+.+.+.+.R   < & & & & & & & & & & & & & & & & 8.7.H.H.",
"H.3.Z.q.& & & & & & & & & & & & & & & $ t X.+.+.+.+.+.+.+.+.+.+.+.+.+.+.+.+.+.+.+.[ t > & & & & & & & & & & & & & & & & >.B.H.H.",
"H.A.Z.s.0.& & & & & & & & & & & & & & $ f ..+.+.+.+.+.+.+.+.+.+.+.+.+.+.+.+.+.+.+.' y > & & & & & & & & & & & & & & 4.q.1.A.H.H.",
"J.J.J.Z.B.& & & & & & & & & & & & & & $ C o.+.+.+.+.+.+.+.) T T T ' +.+.+.+.+.+.+...n > & & & & & & & & & & & & & & ;.N.F.H.H.H.",
"H.H.H.h.=.& & & & & & & & & & & & & & $ Z o.+.+.+.+.+.^ b @   o o q N ) +.+.+.+.+...m > & & & & & & & & & & & & & & w.=.m.H.H.H.",
"H.H.H.q.& & & & & & & & & & & & & & & $ f H ..+.+.Q M 0     4 & 2     0 M ^ +.+...F s > & & & & & & & & & & & & & & & & v.H.H.H.",
"H.x.y.4.& & & & & & & & & & & & & & & $   f F P b @     4 & & & & & 2     7 b P F s   > & & & & & & & & & & & & & & & & e.p.H.H.",
"H.d.& & & & & & & & & & & & & & & & & & $           4 & & & & & & & & & 4           > & & & & & & & & & & & & & & & & & & & H.H.",
"H.n.>.6.& & & & & & & & & & & & & & & & & & & & & & & & & & & & & & & & & & & & & & & & & & & & & & & & & & & & & & & & -.>.H.H.",
"H.S.N.0.& & & & & & & & & & & & & & & & & & & & & & & & & & & & & & & & & & & & & & & & & & & & & & & & & & & & & & & & >.B.H.H.",
"& & & & & & & & & & & & & & & & & & & & & & & & & & & & & & & & & & & & & & & & & & & & & & & & & & & & & & & & & & & & & & & & ",
"& & & & & & & & & & & & & & & & & & & & & & & & & & & & & & & & & & & & & & & & & & & & & & & & & & & & & & & & & & & & & & & & ",
"& & & & & & & & & & & & & & & & & & & & & & & & & & & & & & & & & & & & & & & & & & & & & & & & & & & & & & & & & & & & & & & & ",
"i.9.& & & & & & & & & & & & & & & & & & & & & & & & & & & & & & & & & & & & & & & & & & & & & & & & & & & & & & & & & & & & i.r.",
"H.d.& & & & & & & & & & & & & & & & & & & & & & & & & & & & & & & & & & & & & & & & & & & & & & & & & & & & & & & & & & & & H.H.",
"d.e.& & & & & & & & & & & & & & & & & & & & & & & & & & & & & & & & & & & & & & & & & & & & & & & & & & & & & & & & & & & & d.d.",
"& & & & & & & & & & & & & & & & & & & & & & & & & & & & & & & & & & & & & & & & & & & & & & & & & & & & & & & & & & & & & & & & ",
"& & & & & & & & & & & & & & & & & & & & & & & & & & & & & & & & & & & & & & & & & & & & & & & & & & & & & & & & & & & & & & & & ",
"& & & & & & & & & & & & & & & & & & & & & & & & & & & & & & & & & & & & & & & & & & & & & & & & & & & & & & & & & & & & & & & & ",
"& & & & & & & & & & & & & & & & & & & & & & & & & & & & & & & & & & & & & & & & & & & & & & & & & & & & & & & & & & & & & & & & ",
"& & & & & & & & & & & & & & & & & & & & & & & & & & & & & & & & & & & & & & & & & & & & & & & & & & & & & & & & & & & & & & & & ",
"H.d.& & & & & & & & & & & 8.N.>.& =.V.V.N.N.<.& y.N.y.& & & & & & & & & & & 4.N.N.B.N.N.0.& & 0.B.=.& & & & & & & & & & & & B.B.",
"J.x.0.0.0.& & & - 0.0.0.* 5.A.<.e.;.Z.Z.A.Z.3.q.f.Z.=.0.- & & - e.7.& 9.e.q.y.Z.Z.Z.Z.Z.u.e.0.d.Z.=.& 7.q.q.q.& & & 7.e.e.q.Z.A.",
"J.H.H.A.N.& & & $.V.N.V.5.5.H.H.H.H.H.H.H.H.H.H.H.H.Z.N.7.& & e.H.d.& v.H.H.H.J.H.H.H.H.H.H.H.H.H.d.& -.B.B.2.& & & k.H.H.H.H.H."
};
