/* XPM */
static char *_43027b396784ed19eafdec4a7575292gnWJ0RuNMDsDVG1B[] = {
/* columns rows colors chars-per-pixel */
"64 64 26 1 ",
"  c #87D7FF",
". c #8BD9FF",
"X c #8FDBFF",
"o c #92DCFF",
"O c #97DEFF",
"+ c #9BDFFF",
"@ c #9BE0FF",
"# c #9FE1FF",
"$ c #9EE2FF",
"% c #A2E3FF",
"& c #A2E4FF",
"* c #A6E5FF",
"= c #A6E6FF",
"- c #AAE7FF",
"; c #AEE9FF",
": c #B2EAFF",
"> c #B2EBFF",
", c #B6ECFF",
"< c #BAEDFF",
"1 c #BAEEFF",
"2 c #BEEFFF",
"3 c #C2F2FF",
"4 c #C6F3FF",
"5 c #C9F4FF",
"6 c #CDF4FF",
"7 c #D4F6FF",
/* pixels */
"4444444444444444444444444444444444444444444444444444444444444444",
"4444444444444444444444444444444444444444444444444444444444444444",
"4444444444444444444444444444444444444444444444444444444444444444",
"4444444444444O#4444444:X<4444X&444444X-4444444444>X<444444444444",
"4444444444444%*4444444,#<3;24#;444444#:4>,4;;;144,#<444444444444",
"44444444444444444444444442 ;434444444444.@4@  *44444444444444444",
"44444444444:X244&O4-X244@@134444@#4444-X,;X.X2*X444@O44444444444",
"44444444444,#;;;*#;@ -;;*#;24;,4-*4,;;*#;*  .;@ ;;;*#-24;,444444",
"4444444444444X  ;2      ,2 ;4 #4444#  *3X          ,2 ;4 #444444",
"44444%@444O*4,,,&X   ;* @o o@ X@<<@*, X@      #,   o@,34,2444444",
"44444%#42,O*,,,,@    >&      oo =-o;>         #,   o@,24,<444444",
"44444444# 4;                 3-  @4#               ,2 ;4 #444444",
"44O*443O*,OX ;-              @X  .@.             @>#o oo,;@21@-4",
"44O-4<; *, .O,-                                  @,o  o@,*o3<@,4",
"44344O     #4X                                        ;3 #344444",
"44444<: &, XO                                         o@,;@24444",
"4443,32 *>                                            .@>& 24444",
"444; ,2                                               -4   24444",
"4442,#o                                               o@ @>44444",
"4443,#O X@                                           @X @&,34444",
"444; ,2 -4                                          X4# 4; 24344",
";O4; oO,&@                                          .O*,@#,4<@>4",
";O4:OO#4# Oo                                     .@. O;> #44,O,4",
"43444444# 4;                                     #3OX4#  #444444",
"444,o<3O. OX                                     XO..O*,>;O24444",
"444:@<2@OO                                           O;,,*O34444",
"4444444443                                          X3#  #444444",
";O444444-O                                          .O. ,24#&4-@",
";O444<,4# @OO.                                   .O.  XO444@&4*#",
"44443@X4@ 433X                                   #4O  ;444444444",
"44444<<4<,@OO                                    XO..,*OO*444444",
"4444444432X.                                        X2#X #443234",
"44444444$ 4-                                          ;4 #44, ;4",
"44444444,;#@                                       *- O#;,443;24",
"4444444234                                         ;,   23423444",
"4444442 ;4                                               #4XO444",
"444,#23;*#;$                                            ;,4::444",
"444>X,44# 2-                                     .X   .X23423432",
"44444444$                                        #4O  ;4 #4XO4#X",
"44444*##*;                                       X#X.;*#;*#;;4,:",
"44444#X *2                                          X2@ 2;X,3444",
"4444442                                                  #4XO444",
"44444*#;@                                             #; #4::444",
"44444@@2@                                             -<X#244444",
"4444442                                                 4; 24444",
"44#;443;@ -#                                     @-..;@ #*;3<#,4",
"44X&4442#X2-                                     @2$@<#X #44<X>4",
"4444442 ;4                                         ,2 ;4 #444444",
"44444*#;*#   -&                             .;@    @@ @#;*#34444",
"44234#O4# X. ,>                      X.     X2& X.   X.X4>X24444",
"44 #4444# 4;                         4*         4-  X44444444444",
"44;,4444>;#*;.o;@    -#              #o    *-   #@ &;#,4#;444444",
"4444444444X#2Xo2@    ,-         X. .X   X. ;,   X. ;,X>4X&444444",
"44444444444;   .                ,, ;4   2,      4;  X44444444444",
"44444444444<*.X**&      #&      ## @*******X.*O ****-44444444444",
"4444444444444XO442      >2           444XO4OX4*  #44444444444444",
"44444444# 444444#  &4X       4; ,, ;44* 2, ,2 *44; ,44# 44444445",
"44444444>*444444:& @*.o*X.*o ******144,*32*23*,44<*244:*44444445",
"444444444444444442    #4@X4#  #4@O344444444444444444444444444444",
"44444444444444, ;44444; ,1    #4344# 444.@4444* 4444444444444444",
"444444444444442*<4444-**23****>4444>*444-;4444,*4444444444444444",
"444444444444444444444X#44444444444444444444444444444444444444444",
"54444444444; 24444444444444# 44444444444444444444444444444444444",
"77444444444<*34444444444444>*44444444444444444444444444444444444"
};
