/* XPM */
static char *result[] = {
/* columns rows colors chars-per-pixel */
"64 64 144 2 ",
"   c #000000",
".  c #0B0900",
"X  c #05030B",
"o  c #161200",
"O  c #181304",
"+  c #0A0514",
"@  c #0A0814",
"#  c #0C0618",
"$  c #0C091C",
"%  c #1E1713",
"&  c #1D141A",
"*  c #211B00",
"=  c #271E0C",
"-  c #372D00",
";  c #3D300C",
":  c #2B2014",
">  c #342810",
",  c #382A1A",
"<  c #0F0C24",
"1  c #100820",
"2  c #140D2C",
"3  c #160E31",
"4  c #191333",
"5  c #171238",
"6  c #1D153D",
"7  c #201828",
"8  c #3A2F3C",
"9  c #433601",
"0  c #463C1C",
"q  c #4C3E18",
"w  c #584800",
"e  c #5C4A0A",
"r  c #584E18",
"t  c #6D591B",
"y  c #796303",
"u  c #564535",
"i  c #6D5921",
"p  c #655633",
"a  c #706420",
"s  c #7C7834",
"d  c #1B1442",
"f  c #1F1749",
"g  c #1E1848",
"h  c #221744",
"j  c #221A45",
"k  c #231B4B",
"l  c #281D4A",
"z  c #211951",
"x  c #281F52",
"c  c #251D5B",
"v  c #281E5C",
"b  c #2E284C",
"n  c #3A354A",
"m  c #282051",
"M  c #2B235C",
"N  c #342E58",
"B  c #282061",
"V  c #2D256A",
"C  c #312662",
"Z  c #332962",
"A  c #31266C",
"S  c #33296C",
"D  c #382C6A",
"F  c #322971",
"G  c #392C75",
"H  c #3A2E7A",
"J  c #3C3477",
"K  c #3D317B",
"L  c #463C6D",
"P  c #403274",
"I  c #41347D",
"U  c #443A7D",
"Y  c #46434C",
"T  c #585840",
"R  c #494652",
"E  c #4F4958",
"W  c #4C426B",
"Q  c #534972",
"!  c #877505",
"~  c #8F7505",
"^  c #8A7626",
"/  c #866C35",
"(  c #9D890F",
")  c #A58707",
"_  c #A89008",
"`  c #B09008",
"'  c #B79909",
"]  c #A18B17",
"[  c #8E882E",
"{  c #A19128",
"}  c #B2A822",
"|  c #C5AB0B",
" . c #C8AF0B",
".. c #D2BC0D",
"X. c #C4B81C",
"o. c #DAC60E",
"O. c #E4D30F",
"+. c #E8D810",
"@. c #3D3582",
"#. c #423381",
"$. c #463985",
"%. c #483986",
"&. c #433A8B",
"*. c #4A3B8A",
"=. c #4C3F94",
"-. c #4C418F",
";. c #4B4294",
":. c #4E459D",
">. c #504090",
",. c #52449B",
"<. c #56499F",
"1. c #5447A1",
"2. c #554AA4",
"3. c #594DA5",
"4. c #564DA8",
"5. c #5A4EAA",
"6. c #5B52AD",
"7. c #5E54B2",
"8. c #6353B4",
"9. c #6858B4",
"0. c #6058B8",
"q. c #675BC2",
"w. c #695EC5",
"e. c #6E5ECC",
"r. c #6C62C6",
"t. c #6C61CD",
"y. c #7262C6",
"u. c #7266CD",
"i. c #7868CC",
"p. c #6E62D0",
"a. c #7164D5",
"s. c #756AD0",
"d. c #796CD3",
"f. c #7467DB",
"g. c #7A6DDB",
"h. c #7E71DB",
"j. c #796BE2",
"k. c #7E70E2",
"l. c #8476E2",
"z. c #8576E9",
"x. c #8C7DEB",
"c. c #8171F0",
"v. c #8B7BF0",
"b. c #9080F0",
/* pixels */
">.e.z.v.b.b.b.b.b.b.b.b.b.b.b.b.b.b.b.b.b.b.b.b.b.b.b.b.b.b.b.b.b.b.b.b.b.b.b.b.b.b.b.b.b.b.b.b.b.b.b.b.b.b.b.b.b.b.b.b.c.t.;.z ",
">.u.v.b.b.b.b.b.b.b.b.b.b.b.b.b.b.b.b.b.b.b.b.b.b.b.b.b.b.b.b.b.b.b.b.b.b.b.b.b.b.b.b.b.b.b.b.b.b.b.b.b.b.b.b.b.b.b.b.b.k.a.;.m ",
",.d.b.b.l.l.l.l.l.l.l.l.l.l.l.l.l.l.z.z.l.l.l.l.l.l.l.l.l.l.l.k.l.b.h.l.l.l.l.l.z.l.z.z.l.z.l.l.l.l.l.l.l.l.l.z.l.z.l.l.j.0.-.k ",
"0.l.b.b.0.0.0.0.0.0.0.0.0.0.0.0.0.7.7.7.0.0.0.0.0.0.0.0.0.0.0.q.0.0.7.0.0.0.0.0.0.0.7.7.7.0.0.0.0.0.0.0.0.0.0.0.7.0.0.0.7.<.J m ",
"0.f.f.0.0.0.0.0.0.0.0.0.0.0.0.0.0.0.0.7.0.0.0.0.0.0.0.0.0.0.7.7.0.7.0.7.0.0.0.0.7.7.0.7.0.0.0.0.0.0.0.0.0.0.0.0.0.0.0.0.0.J g 1 ",
"0.f.f.0.0.0.0.7.0.0.0.7.0.0.0.7.0.:.J N N D %.<.0.0.0.7.7.:.K G J ;.7.7.0.0.0.0.@.K F N M S $.<.0.0.7.q.0.0.0.7.0.0.0.0.0.J 6 1 ",
"0.f.f.0.0.0.8.5.2.4.7.7.q.7.7.4.;.S 5 # # 4 M $.4.4.6.5.;.C g 6 j D &.5.6.6.4.;.k 6 2 # @ 3 c H <.4.7.7.0.0.7.4.<.5.0.0.0.J 6 < ",
"0.f.f.0.0.0.1.I m J 2.q.7.7.:.F 1 X       # 4 z F $.*.@.1 X     < d M S ;.$.M $             X 1 b J <.7.0.0.4.@.b -.0.0.0.U 6 1 ",
"0.f.f.0.0.0.5.=.B m k m B 5 @       X 1 1 1 1 1 1 X         X 1 1 1 1 1           + 1 1 1 1 1 1 1 1 3 z l z d 1 7.7.0.0.0.J j < ",
"0.f.f.7.0.0.8.5.@.C 6 $ 1 @ + # + + # 1 1 1 1 1 1 X       X # 1 1 1 1 1         # $ 1 1 1 1 2 5 1 1 $ $ < 6 F 2.q.7.0.0.0.J 6 < ",
"0.f.f.0.0.0.0.0.;.N 2 X X X + $ 1 1 1 1 2 2 7 0 , % + + # 2 2 3 2 2 2 2 + X   X 1 1 1 2 3 3 d z 2 2 $ X + g ,.j.7.0.0.0.0.J 6 $ ",
"0.f.f.0.0.0.0.0.>.m 1 1 $ 1 1 1 1 1 1 1 z z p +.` u z z M B B B z f z k z 3 1 1 1 1 3 z B B B B z z 6 < f ;.0.0.0.0.0.0.0.J 6 1 ",
"0.f.f.0.0.0.0.0.@.4 X 1 1 1 1 1 $ 5 c B @./ | +.+.[ Y B B B M B B B B F @.B z z z c B B B B B c B B V V B ;.7.0.0.0.0.0.0.J 6 < ",
"0.f.f.0.0.0.0.0.h $   X 6 5 d h c S A B E { o.+.| ] p c B B B B B c B A #.A B B c v c c B B B B z B F H M *.2.1.<.6.0.0.0.J 6 1 ",
"0.f.f.0.0.0.7.4.# X   X z z c B A U L N s X.O.o.` ( i b N M B B B z V H H V V V B B z z c c c B v A H H v H %.*.-.<.7.0.0.P 6 < ",
"0.f.f.0.0.0.2.I     X 1 z c B B A R T T +.+...` ` y r p T n M F B V H =.F B B B B B B B z z z B #.%.@.B B B A I I *.<.0.0.U 6 1 ",
"0.f.f.0.0.0.$.1     X 1 B B B A +.+.+.+.+.| ` ` ` ` | +.+.+.} T #.*.&.@.B V V B B B B v B G %.=.=.H V v B B V F =.;.<.0.0.J 6 1 ",
"0.f.f.0.0.2.Z X   X 1 d B A L R +.+.o.| | ' ` ` ` ` ' | | | ( r A F F V V V V B B B B V I %.%.#.G A B B V B B F =.=.3.0.0.J 6 1 ",
"6.a.f.0.0.*.j     # 3 z v H W T o.o. .` ` ` ` ` ` ` ` ` ` ) y 9 B B B V F V B B B B V G *.%.#.H B B B V V B V V >.>.3.0.0.P 6 1 ",
">.t.f.0.0.J 4     + 3 z B I Q T ` ` ` ` ` ` ` ` ` ` ` ` ` y -   B V F F V V B B B B G =.#.A B B B V F F B B B B >.3.9.0.0.U 6 1 ",
"0.f.f.0.0.@.k < 1 1 5 B F H F B w w y ` ` ` ` ` ` ` ` ` w * X 1 F V c B B B B B v B A #.B B B V B c B B z z z B 7.f.j.7.0.J 6 1 ",
"0.f.f.0.0.&.A z 6 d f B H H V z 8 t _ ..` ` ` ` ` ` ` ` w = # 1 B V B B c c c c B B B A H A V V V B B B c z A :.h.c.h.7.0.J 6 1 ",
"0.f.f.0.0.=.K F v v B B @.F B z N ^ ..+.` ` ` ` ` ` ` ` w > & 1 B V V B B c z c v v v B @.F B B V V c B B c #.y.b.b.h.7.0.P 6 1 ",
"0.f.f.0.0.<.*.#.@.#.H F @.A B B T } +.+.` ` ` ` ` ` ` ` w w ; 1 F B B B B B c z z z c F #.A B B B z z B B F 5.v.b.v.g.0.0.U 6 1 ",
"0.f.f.0.0.0.5.>.S S K ;.V V B B T } ..` ` y -   w ~ ` ` w * X 1 B B B B B z c B B G #.=.F V B B B B B B f =.s.v.b.u.0.0.0.J j < ",
"0.f.f.0.0.0.5.>.v c A K V B B B n a ! y y 9 o   : e y y * . X 1 B B B c B B A @.#.$.$.H B B B V B c B B v ;.a.c.u.r.0.0.0.J 6 1 ",
"0.f.f.0.0.0.5.=.6 5 k V B B B c l 8 q q 9 O X X 1 > 9 9 X   # 1 B B B B c A #.*.#.&.@.V B B V V B B v B V ;.q.j.6.7.7.0.0.J 6 1 ",
"0.f.f.0.0.0.5.;.    < v B V V B M B B B   + $ 1 1 1 +   1 1 1 1 B B B B B #.*.#.B B c B B V V B c B B B @.*.1.7.;.4.7.0.0.U 6 1 ",
"0.f.f.0.0.0.=.f     < B B B B B v B B B $ 1 1 1 1 1 1 1 1 1 1 1 B B B B F V V B B V V B B v B B B B B B @.F H #.A $.<.0.0.J 6 1 ",
"0.f.f.0.0.1.D $   X 3 z B B B B B c M V 1 1 1 1 1 1 1 1 1 1 1 1 B B B z F F V B V V B z B B B B B c c V #.G A G B K ,.0.0.J 6 1 ",
"0.f.f.0.0.*.6     # 3 z v B B B v c B H 5 2 1 1 1 1 1 2 1 1 1 1 c c v z H F V c F B c z B B B v v c B H #.F V V B F ;.6.0.P 6 $ ",
"0.f.f.0.0.M @     # 3 f B B B c B B F >.#.h 1 1 1 1 3 z 1 1 1 1 z z B A =.F B B A c f z v B B B B v F =.@.C k z B V J >.0.U 6 1 ",
"0.f.f.0.0.=.H F x z z f B B c z z z B #.@.F B B =.e.c.c.0.@.B M z f c v #.A B v F B c z c B c z z z B #.#.B H 0.x.b.g.0.0.J 6 1 ",
"0.f.f.0.0.,.$.H D A V c B v z c B G #.*.V B F :.i.l.v.v.f.1.F B c B A #.*.F B B V B B c B c c v B A #.*.A A ,.h.b.v.g.0.0.J 6 1 ",
"0.f.f.0.0.3.*.$.I H F B v c B A H #.*.#.B B &.e.v.b.b.b.c.8.I c V F #.*.$.A B B B c B B B c c A H %.*.#.B H 0.b.b.z.p.0.0.J 6 1 ",
"0.f.f.0.0.0.5.>.F A V B B V H =.=.*.F B B H 7.k.b.b.b.v.c.8.K z =.=.*.#.B v V F B B B c B V @.*.=.#.G B B ,.a.v.b.u.0.0.0.P j 1 ",
"0.f.f.0.0.0.6.>.z z z B A #.*.#.v B B v F H 4.k.c.v.v.c.=.K z 1 B B B B B V V B B B B B F #.%.#.B B B B A :.e.k.0.0.0.0.0.J 6 1 ",
"0.f.f.0.0.0.6.;.1 # 5 B H #.@.A B B B B B H ,.e.t.u.w.8.K x 2 X B B c B B B B B c B B B @.#.H A B B B v V &.7.e.<.6.0.0.0.P 6 1 ",
"0.f.f.0.0.0.2.I     < B #.H V B B B B B v A &.2.5.5.;.%.M 3 +   B B B B c c c B B B B B #.H A B B B B B c H =.4.-.<.6.0.0.J j 1 ",
"0.f.f.0.7.7.=.c     < B @.A B B B B c B f x v F I F V l 1 X     V V B c z z c B B B v v #.A B v B v B B z B G #.A U <.0.0.U 6 1 ",
"0.f.f.0.0.=.l     # h #.I A B B B B v B B B c z 1 1 +       X 1 F B B B v B v z z z B #.#.A B B B B B B B V F F B G =.0.0.J 6 1 ",
"0.f.f.0.0.G 2     # j *.A B B B B c B B z c c c 1 + X     X + < V B B B B v z c B V H *.A B B B B B B B z v v B B V $.<.0.J 6 1 ",
"0.f.f.0.9.M $ @   $ x $.B B B B B B v c z v V F 5 2 $ # # 2 3 2 B B B B B v B V H #.#.*.A V B B B B B B z c z z V F #.>.0.J j 1 ",
"0.f.f.0.0.M 4 m   5 B B F V z z B B v z z P =.=.@.F V B B V V B B B B B v F #.@.=.#.H F =.F B B B V F F B B B B @.*.=.>.0.&.x 1 ",
"7.f.f.q.0.J 3     6 B B F B B B B z z B B V V v B B V F F V B v c B B B V &.@.B v B A #.A V V V V B c z z c z z @.2.7.r.0.&.z 1 ",
"7.f.f.7.7.@.d     6 B V V B B B B B F #.#.F B B V B B B c z c v B B c B V H F B v V H *.V V V V V c c c f c z z 2.t.u.7.0.&.x 1 ",
"q.f.j.7.7.&.m $   5 B F B B B v B F #.=.#.A B V V V c c z z c c c z B c F F V B B V H #.V B V V B z c c f z c M r.l.h.7.7.&.z 1 ",
"7.f.j.7.7.;.H F   4 B A B c B B B I *.#.B B B A B z z z B B c z z z z z F V V B F B B B B B B B B B B B z f A -.b.b.k.7.q.@.x 1 ",
"7.f.f.0.7.0.4.@.  4 x B B B B B #.#.F B B B B B B B B B z z z B B B A #.@.A B B c B B B B V V B B B B B B I 8.k.v.b.h.0.0.&.z 1 ",
"q.f.f.0.q.7.2.@.x m x B B B B B @.H A B V V B B B B B B c A P #.I #.#.*.G V B V B B B B V V V B B B B B I *.9.v.v.l.t.0.0.&.x 1 ",
"0.f.f.0.7.q.2.@.@.C c c c c c B #.H B B V V V B B B B c D %.*.*.%.$.&.#.V V V F B B B c V V V B B B B V *.*.9.b.v.u.7.0.7.&.z < ",
"0.f.f.0.7.7.2.@.I C k z z z B A =.F B B B V V B B B B B =.=.$.A F B c B B V A F B B c z B B B B B B V H F $.9.v.c.p.0.0.q.@.x 1 ",
"0.f.f.0.0.0.0.0.z 3 5 v A H #.=.V V B B B B B B c B V V #.A B B B B V V A V v B B B c z z c B B B B F #.B ;.p.c.0.0.0.0.7.@.M < ",
"7.f.f.0.0.0.0.7.;.$.$.:.:.&.H A B c c B B B v x B V A V B v v A B c c V H V c z z B V z c c z z c V #.2.;.5.0.t.0.0.0.0.7.;.z 1 ",
"q.f.f.0.0.0.7.6.4.0.y.r.y.6.*.B z z z c z B M B #.,.=.@.B v V H B M A #.<.*.H v v A V B v z c c v $.6.r.t.r.q.5.7.7.0.0.7.&.z < ",
"0.f.f.0.0.0.6.;.#.y.b.b.x.x.i.=.B B c z z v G >.v.v.x.c.=.%.%.*.B #.9.b.v.v.e.=.@.&.H z z z v B *.i.b.b.b.b.y.@.;.6.0.0.7.&.z < ",
"7.f.f.q.0.7.0.0.0.0.p.c.b.b.b.b.b.v.f.0.=.i.b.b.b.b.v.c.0.0.0.0.v.b.b.b.b.v.f.7.0.0.5.=.7.j.v.v.b.b.b.b.z.a.0.0.0.0.0.0.0.&.z 1 ",
"7.f.f.7.0.y.l.g.0.0.0.t.u.k.v.b.b.v.z.l.y.l.v.v.v.g.t.t.0.0.w.f.b.b.v.v.p.t.t.7.7.e.f.e.g.z.v.b.b.v.k.a.t.0.0.0.h.h.u.0.0.&.x 1 ",
"q.f.f.7.0.d.l.l.0.0.0.0.0.a.k.z.v.v.b.v.c.v.x.l.j.w.0.0.0.0.t.c.b.x.k.j.0.7.7.7.0.j.c.k.v.b.v.v.l.j.p.0.7.0.0.0.l.l.i.0.7.&.z < ",
"7.f.j.0.0.7.0.0.0.0.0.0.0.0.7.7.c.v.b.v.c.z.l.8.7.7.0.0.0.0.t.c.b.u.7.0.0.q.7.q.0.j.k.c.b.b.v.c.0.0.0.0.0.0.0.0.0.0.0.0.0.@.x 1 ",
"0.f.f.7.0.0.0.0.0.0.0.0.0.0.0.0.0.0.0.0.0.0.0.0.7.0.0.0.7.0.0.0.0.0.0.7.0.7.7.0.0.0.0.0.0.0.0.0.0.0.0.0.0.0.0.0.0.0.0.0.0.J d 1 ",
"J 2.7.2.<.<.<.<.<.<.<.<.2.2.<.<.<.<.<.<.<.<.<.<.5.1.2.1.<.<.1.1.<.<.2.<.4.2.3.3.<.<.<.<.<.<.<.<.1.<.<.<.<.<.<.<.<.<.<.1.@.m 4 j ",
"k G @.$.#.$.#.$.I $.I P P P P P P P P P P P #.$.I $.U $.#.$.I #.$.I #.$.I @.U $.#.$.I P P P P P P P P P P P P P P P P P x 4 6 m ",
"m z z f z f z f z k 6 1 1 1 1 1 1 1 1 1 1 d f z z f z z k z z z z k z f z z z f k z 6 1 1 1 1 1 1 1 1 1 1 1 1 1 1 1 1 1 $ 6 m m "
};
