/* XPM */
static char *_1aecfa7c2fe45929aadb671f5799d14krXiGm66MXSUo1al[] = {
/* columns rows colors chars-per-pixel */
"64 64 148 2 ",
"   c #7C6B5E",
".  c #467E75",
"X  c #417579",
"o  c #437A7A",
"O  c #577471",
"+  c #65736A",
"@  c #6D7268",
"#  c #7B7162",
"$  c #806D5E",
"%  c #956F53",
"&  c #8A725C",
"*  c #8B7859",
"=  c #987056",
"-  c #927C5A",
";  c #A3664D",
":  c #A66A4E",
">  c #AC6B4D",
",  c #B46E4B",
"<  c #B6704C",
"1  c #BB734D",
"2  c #B37151",
"3  c #B97350",
"4  c #C07750",
"5  c #C47B53",
"6  c #56B742",
"7  c #5BBA45",
"8  c #53B34B",
"9  c #5FBC49",
"0  c #4FAF55",
"q  c #4DAD5B",
"w  c #51B151",
"e  c #5BB65C",
"r  c #62BE4B",
"t  c #63BD51",
"y  c #66B45F",
"u  c #63BC5D",
"i  c #6EBD5B",
"p  c #518F6F",
"a  c #4E9F64",
"s  c #499E6F",
"d  c #54946C",
"f  c #57996A",
"g  c #5A9E68",
"h  c #4D8971",
"j  c #45827A",
"k  c #488678",
"l  c #478A7A",
"z  c #498F7B",
"x  c #4A9576",
"c  c #499A72",
"v  c #499279",
"b  c #49997A",
"n  c #549D72",
"m  c #778A64",
"M  c #6D936A",
"N  c #639C6F",
"B  c #769168",
"V  c #619670",
"C  c #49A867",
"Z  c #49A46A",
"A  c #5EA466",
"S  c #59A46D",
"D  c #5CA86B",
"F  c #55B163",
"G  c #5AB461",
"H  c #5CB46D",
"J  c #5DB86D",
"K  c #4CA47A",
"L  c #4FAF7B",
"P  c #56A170",
"I  c #5AA574",
"U  c #54A778",
"Y  c #54AB78",
"T  c #56B375",
"R  c #59B671",
"E  c #51B079",
"W  c #61A964",
"Q  c #67B360",
"!  c #65BE65",
"~  c #6AB960",
"^  c #61BB69",
"/  c #67C04E",
"(  c #69C14F",
")  c #6CC452",
"_  c #6EC25B",
"`  c #71C655",
"'  c #74C857",
"]  c #71C559",
"[  c #7CC759",
"{  c #7CCA5A",
"}  c #6BC260",
"|  c #81815F",
" . c #A2BF68",
".. c #ABBF6B",
"X. c #B2BC6D",
"o. c #BABB6F",
"O. c #D08457",
"+. c #D38658",
"@. c #C2BA72",
"#. c #CCBE75",
"$. c #D1B778",
"%. c #DBBA7B",
"&. c #E1B47D",
"*. c #E3BA7D",
"=. c #84C55C",
"-. c #8CC45F",
";. c #84C85C",
":. c #8DC85F",
">. c #86D25D",
",. c #93C262",
"<. c #9BC165",
"1. c #95C862",
"2. c #9DC865",
"3. c #91D860",
"4. c #9ADC64",
"5. c #A0C867",
"6. c #A5C568",
"7. c #ADC46B",
"8. c #A6C868",
"9. c #AEC86A",
"0. c #B3C06E",
"q. c #B6C86D",
"w. c #BDC470",
"e. c #BEC970",
"r. c #A4E267",
"t. c #ABE569",
"y. c #B4EA6C",
"u. c #BDEF6F",
"i. c #C5C173",
"p. c #C7C973",
"a. c #CCC874",
"s. c #CFC976",
"d. c #D7C979",
"f. c #DFC97C",
"g. c #E5C07E",
"h. c #E7C67E",
"j. c #E8C97F",
"k. c #F0B083",
"l. c #F1B183",
"z. c #F2B383",
"x. c #F2B483",
"c. c #F3B783",
"v. c #F4BC83",
"b. c #EEC481",
"n. c #F6C384",
"m. c #F0C981",
"M. c #F8C984",
"N. c #F8CA84",
/* pixels */
"M.f.p.p.p.' ' ' 1.p.p.p.[ ;.M.m.p.f.M.M.M.M.m.p.d.M.d.p.{ ' ' ;.p.2.' 9.p.p.s.M.M.M.M.M.d.p.p.d.M.q.' 5.p.p.e.' ' ' 8.p.p.p.M.M.",
"M.q.' ' ' ' ' ' ' ' ' ' ' ;.M.d.' q.M.M.M.M.j.' 8.M.8.' ' ' ' ' ' ' ' ' ' ' ;.M.M.M.M.M.1.' ' 1.M.q.' ' ' ' ' ' ' ' ' ' ' ' M.M.",
"q.1.' ' ' ' ' ' ' ' ' ' ' [ q.5.' 1.q.q.q.q.7.' :.q.:.' ' ' ` ( ( ' ' ' ' ' { q.q.q.q.q.;.' ' ;.q.1.' ' ' ' ' ' ' ' ' ' ' ' q.q.",
"' ' ' ' ' ' ' ' ' ' ' ' ' ' ' ' ' ' ' ' ' ' ' ' ' ' ' ' ' ' ( 9 9 ( ' ' ' ' ' ' ' ' ' ' ' ' ' ' ' ' ' ' ' ' ' ' ' ' ' ' ' ' ' ' ",
"' ' ' ' ' ' ' ' ' ' ' ' ' ' ' ' ' ' ' ' ' ' ' ' ' ' ' ] ` ( r { { 7 ) ) ` ' ' ' ' ' ' ' ' ' ' ' ' ' ' ' ' ' ' ' ' ' ' ' ' ' ' ' ",
"' ' ' ' ' ' ' ' ' ' ' ' ' ' ' ' ' ' ' ' ' ' ' ' ' ' ' G 0 r >.u.u.' 7 q u ' ' ' ' ' ' ' ' ' ' ' ' ' ' ' ' ' ' ' ' ' ' ' ' ' ' ' ",
"' ' ' ' ' ' ' ' ' ' ' ' ' ' ' ' ' ' ' ' ' ' ' ' ' F C w / 3.u.u.u.u.{ / q C G ' ' ' ' ' ' ' ' ' ' ' ' ' ' ' ' ' ' ' ' ' ' ' ' ' ",
"' ' ' ' ' ' ' ' ' ' ' ' ' ' ' ' ' ' ' ' ' ' ' ` C 8 t ] 3.y.u.u.u.u.y.{ ` t w G ' ' ' ' ' ' ' ' ' ' ' ' ' ' ' ' ' ' ' ' ' ' ' ' ",
"z.X.' ' ' ' ' ' ' ' ' ' ' ' ' ' ' ' ' ' ' ' _ F 8 ( ` ' 4.u.u.u.u.u.u.>.' ` / w F ' ' ' ' ' ' ' ' ' ' ' ' ' ' ' ' ' ' ' ' ' z.z.",
"x.X.' ' ' ' ' ' ' ' ' ' ' ' ' ' ' ' ' ' ] i e w ( ' ' ' 4.u.u.u.u.u.u.>.' ' ) r w G ' ' ' ' ' ' ' ' ' ' ' ' ' ' ' ' ' ' ' ' z.z.",
"M.q.' ' ' ' ' ' ' ' ' ' ' ' ' ' ' ' ' ' _ e 0 6 ' ' ' ' >.t.u.u.u.u.4.{ ' ' ' ) 6 0 G ' ' ' ' ' ' ' ' ' ' ' ' ' ' ' ' ' ' ` M.M.",
"p.2.' ' ' ' ' ' ' ' ' ' ' ' ' ' ' ' ' ] e 0 7 r ' ' ' ` ` >.t.u.u.r.{ ' ' ' ' ` 9 6 q _ ] ' ' ' ' ' ' ' ' ' ' ' ' ' ' ' ' ] p.s.",
"' ' ' ' ' ' ' ' ' ' ' ' ' ' ' ' ' ] ~ G w 6 7 ( ' ' ' ' ' ' >.t.t.' ' ' ' ' ' ' / 6 6 q G } i ' ' ' ' ' ' ' ' ' ' ' ' ' ' ] ' ' ",
"X.X.X.=.' ' ' ' ' ' ' ' ' ' ' ' _ P z a 6 6 7 7 ' ' ' ' ' ' ` ' ' ' ' ' ' ' ' ) 6 6 6 6 s v D ' ' ' ' ' ' ' ' ' ' ' ' ' 6.X.X.X.",
"z.z.z.,.' ' ' ' ' ' ' ' ' ' ' ' n z c 0 6 6 7 ' ' ' ' ' ' ' ' ' ' ' ' ' ' ' ' ' ` 6 6 6 C x v S ' ' ' ' ' ' ' ' ' ' ' ' $.z.z.k.",
"n.i.,.[ ' ' ' ' ' ' ' ' ' ' ' x z Z 0 6 6 6 7 ' ' ' ' ' ' ' ' ' ' ' ' ' ' ' ' ' ) 6 6 6 6 w c v n ' ' ' ' ' ' ' ' ' ' ` -.,.n.n.",
"M.q.' ' ' ' ' ' ' ' ' ' ' ' ' x Z C w 6 6 6 6 7 7 ` ` ' ' ' ' ' ' ' ' ' ' ' ( 7 7 6 6 6 6 q Z s n ' ' ' ' ' ' ' ' ' ' ' ' ' M.M.",
"M.q.' ' ' ' ' ' ' ' ' ' ' ' h z c C C w 6 6 6 6 ) ' ' ' ' ' ' ' ' ' ' ' ' ' ` ( 6 6 6 6 w C C s z p ' ' ' ' ' ' ' ' ' ' ' ' M.M.",
"M.q.` ' ' ' ' ' ' ' ' ' ' ' X l Z C C q 6 6 6 6 ` ' ` ` ' ' ' ' ' ' ' ' ' ' ] ( 6 6 6 6 q C C Z k . ' ' ' ' ' ' ' ' ' ' ' ' M.M.",
"M.v.z.,.' ' ' ' ' ' ' ' ] g j x C C C 8 6 6 6 6 ( ` ' ( ) ' ' ' ' ' ' ( ) ' ) 9 6 6 6 6 w C C Z x k g ' ' ' ' ' ' ' ' ' $.z.M.M.",
"M.n.x...,.' ' ' ' ' ' i W o z Z C C 0 6 6 6 6 6 6 r ( r ( ' ' ' ' ' ' / 9 ) r 6 6 6 6 6 6 q C C Z z . W ] ` ' ' ' ' =.,.%.c.M.M.",
"M.M.M.z.k.' ' ' ' ' ' Q o v v Z C C 0 6 6 6 6 6 6 6 6 6 r ) ' ' ' ' ( 7 6 6 6 6 6 6 6 6 8 q C C Z x z X i ' ' ' ' ] @.z.n.M.M.M.",
"M.M.M.#.@.' ' ' ' ' ' Q X z C C C C 0 8 6 6 6 6 6 6 6 6 6 r ` ` ` ` 7 6 6 6 6 6 6 6 6 6 q C C C C Z z X i ' ' ' ' ' 6.@.b.M.M.M.",
"M.M.M.1.' ' ' ' ' ' ' Q o z C C C C C C 0 6 6 6 6 6 6 6 6 6 6 6 6 6 6 6 6 6 6 6 6 6 6 C C C C C C Z z X i ' ' ' ' ' ' ' d.M.M.M.",
"M.s.8.;.' ' ' ' ' ' W X X v C C C C C C C C 6 6 6 6 6 6 6 6 6 6 6 6 6 6 6 6 6 6 6 6 6 C C C C C C Z z X X Q ' ' ' ' ' ' 1.6.M.M.",
"M.q.' ' ' ' ' ' ' ' W o l z v C C C C C C q 6 6 6 6 6 6 6 6 6 6 6 6 6 6 6 6 6 6 6 6 C C C C C C C C z z X Q ' ' ' ' ' ' ' ' M.M.",
"M.q.' ' ' ' ' ' ' ' W o z z Z C C C C C C C q 6 6 6 6 6 6 6 6 6 6 6 6 6 6 6 6 0 6 6 C C C C C C Z v z z X ~ ' ' ' ' ' ' ' ' M.M.",
"M.q.' ' ' ' ' ' ' Q h o z z C C C C C C C C C q 0 q 6 6 6 6 6 6 6 6 6 6 6 6 w C q q C C C C C C Z z v v X h Q ' ' ' ' ' ' ' M.M.",
";.[ ' ' ' ' ' ' ' g X o v z c C C C C C C C C C C C q 8 6 6 8 0 0 0 6 6 6 8 q C C C C Z C C C C x z z z o X W ' ' ' ' ' ' ' ;.:.",
";.[ ' ' ' ' ' ' ' g X o z z z C C C C C C C C C C C C q w 8 0 C C C w 0 w q C C C C C C C C C c z z z z X X W ' ' ' ' ' ' ' =.{ ",
"M.q.' ' ' ' ' ' ' g X o z z z K C C C C C C C C C C C C C C C C C C C C C C C C C C C C C C C c z z z z X X W ' ' ' ' ' ' ' M.M.",
"d.8.' ' ' ' ' ' ' g X o z z z z c Z C C C C C C C C C C C C C C C C C C C C C C C C C C C C C c z z v l X X W ' ' ' ' ' ' ' d.d.",
"' ' ' ' ' ' ' ' ' g X o z z z z z z c C C C C C C C C C C C C C C C C C C C C C C C C C C c v z z z z X X X W ' ' ' ' ' ' ' ' ' ",
"' ' ' ' ' ' ' ' ' g X X X z z z z v c C C C C C C C C C C C C C C C C C C C C C C C C C C x z z z z z X X X W ' ' ' ' ' ' ' ' ' ",
"' ' ' ' ' ' ' ' ' ] A X o z z z z z z c C Z x C C C C C C C C C C C C c Z C C Z v C C C x v v z z z z X X W ] ' ' ' ' ' ' ' ' ' ",
"@.@.@.=.' ' ' ' ' ' W X o z z z z z v v v v v v C C C c Z C C C C C C x s Z Z v v x v v v v z z z z o X X Q ' ' ' ' ' ' X.@.@.@.",
"k.z.z.,.' ' ' ' ' ' i f X j z z z z z z z z z z x x x v v c C C C C s v v c v z v z z z z z z z z z X X A i ' ' ' ' ' ' $.z.z.k.",
"M.@.,.[ ' ' ' ' ' ' ' Q X X j j z z z z z z z z v z v v z x c c c s z z z z z z z z z z z z z v z o X X ~ ' ' ' ' ' ' ' -.,.n.n.",
"M.q.] ' ' ' ' ' ' ' ' i p X X X l v z z z z z z z z v z z z z z z z z z z z z z z z z z l z v l j X X d ] ' ' ' ' ' ' ' ' ' M.M.",
"M.q.' ' ' ' ' ' ' ' ' ' i h X X j l z z z z z z z z z z z v z z z z z z z z z z z z z v o o l j X X h ' ' ' ' ' ' ' ' ' ' ` M.M.",
"M.i.=.` ' ' ' ' ' ' ' ' ' ' . X X j l z j o v z z z z z z v z z z z z z z z z z z z z z o X X X o h ' ' ' ' ' ' ' ' ' ' =.=.M.M.",
"N.*.z.,.' ' ' ' ' ' ' ' ' ' ' k X X X X X o z z z z z z z z z z z z z z z z j o z z z X X X X X h ' ' ' ' ' ' ' ' ' ' ' $.z.M.M.",
"N.M.x.X.,.' ' ' ' ' ' ' ' ' ' ' h X X X X X o z z z o X j z z z z z z z j X X X X X X X X X X d ' ' ' ' ' ' ' ' ' ' =.,.%.x.M.M.",
"N.N.M.v.z.' ' ' ' ' ' ' ' ' ' ' T K z X X X X X o o X X X j z z z z o o X X X X X X X X X v K H ' ' ' ' ' ' ' ' ' ' @.z.n.M.M.M.",
"N.M.M.@.X.' ' ' ' ' ' ' ' ' ' ' R L K K v X X X X X X X X o o o j o X X X X X X X X X b K L L J ' ' ' ' ' ' ' ' ' ' <.X.h.M.M.M.",
"N.M.M.1.' ' ' ' ' ' ' ' ' ' ' ' R L L L V $ & & X X X X X X X X X X X X X X X O & &   U L L L J ' ' ' ' ' ' ' ' ' ' ' ' d.M.M.M.",
"N.s.6.=.' ' ' ' ' ' ' ' ' ' ' ' R L L L M > 5 5 # # # O X X o X X X X X + # # & 5 5 ; I L L L J ' ' ' ' ' ' ' ' ' ' ' ' 1.8.M.M.",
"N.q.' ' ' ' ' ' ' ' ' ' ' ' ' ' ^ E L Y N - 5 +.3 1 , & @ @ @ @ + @ @ @ = , 3 5 O.5 # T L L T ! ' ' ' ' ' ' ' ' ' ' ' ' ' ' M.M.",
"M.g.$.-.' ' ' ' ' ' ' ' ' ' ' ' ' J E L L I - 5 O.> > , , , < 1 1 , , , < > 2 O.5 * L L E L ^ ' ' ' ' ' ' ' ' ' ' ' ' ' o.$.M.M.",
"M.c.z.1.' ' ' ' ' ' ' ' ' ' ' ' ' J E L L E U = % % = : < 1 3 +.+.1 , < = % % = * L L L L Y ^ ' ' ' ' ' ' ' ' ' ' ' ' ' $.z.N.M.",
"' ' ' ' ' ' ' ' ' ' ' ' ' ' ' ' ' ' ^ L L L L L L L L | : 3 +.+.+.+.< ; M L L L L L L L L } ' ' ' ' ' ' ' ' ' ' ' ' ' ' ' ' ' ' ",
"' ' ' ' ' ' ' ' ' ' ' ' ' ' ' ' ' ' ] } L L L L L L L L m 2 +.+.+.+.: N L L L L L L L L } ' ' ' ' ' ' ' ' ' ' ' ' ' ' ' ' ' ' ' ",
"' ' ' ' ' ' ' ' ' ' ' ' ' ' ' ' ' ' ' ' J L Y Y L L L L Y B : : > : N Y L L L L L L _ _ ' ' ' ' ' ' ' ' ' ' ' ' ' ' ' ' ' ' ' ' ",
"8.-.' ' ' ' ' ' ' ' ' ' ' ' ' ' ' ' ' ' _ } } } L L L L Y Y N N N N L Y L L L T } } ' ' ' ' ' ' ' ' ' ' ' ' ' ' ' ' ' ' ' ' 8.5.",
"M.q.' ' ' ' ' ' ' ' ' ' ' ' ' ' ' ' ' ' ' ' ' ' } } L L L L L L L L L L L R } } ' ' ' ' ' ' ' ' ' ' ' ' ' ' ' ' ' ' ' ' ' ' N.N.",
"q.1.' ' ' ' ' ' ' ' ' ' ' ' ' ' ' ' ' ' ' ' ' ' ' ' } E L L L L L L L L R } _ ' ' ' ' ' ' ' ' ' ' ' ' ' ' ' ' ' ' ' ' ' ' ' q.q.",
"' ' ' ' ' ' ' ' ' ' ' ' ' ' ' ' ' ' ' ' ' ' ' ' ' ' _ } J J J J J J J J _ ' ' ' ' ' ' ' ' ' ' ' ' ' ' ' ' ' ' ' ' ' ' ' ' ' ' ' ",
"' ' ' ' ' ' ' ' ' ' ' ' ' ' ' ' ' ' ' ' ' ' ' ' ' ' ' ' ' ' ' ' ' ' ' ' ' ' ' ' ' ' ' ' ' ' ' ' ' ' ' ' ' ' ' ' ' ' ' ' ' ' ' ' ",
"' ' ' ' ' ' ' ' ' ' ' ' ' ' ' ' ' ' ' ' ' ' ' ' ' ' ' ' ' ' ' ' ' ' ' ' ' ' ' ' ' ' ' ' ' ' ' ' ' ' ' ' ' ' ' ' ' ' ' ' ' ' ' ' ",
"' ' ' ' ' ' ' ' ' ' ' ' ' ' ' ' ' ' ' ' ' ' ' ' ' ' ' ' ' ' ' ' ' ' ' ' ' ' ' ' ' ' ' ' ' ' ' ' ' ' ' ' ' ' ' ' ' ' ' ' ' ' ' ' ",
"' ' ' ' ' ' ' ' ' ' ' ' ' ' ' ' ' ' ' ' ' ' ' ' ' ' ' ' ' ' ' ' ' ' ' ' ' ' ' ' ] ' ' ' ' ' ' ' ' ' ' ' ' ' ' ' ' ' ' ' ' ' ' ' ",
"M.q.' ' ' ' ' ' ' ' ' ] ' =.x.$.' X.z.z.k.k.%.' 6.k.6.' ' ' ' ' ' ' ' ' ' ' =.k.z.z.z.z.,.' ' ,.z.X.' ' ' ' ' ' ' ' ' ' ' ' z.z.",
"M.p.1.,.,.` ' ' { ,.,.,.=.=.c.%.1.i.c.c.z.z.*.1.w.c...,.[ ' ' [ 1.;.' :.1.1.6.c.c.c.c.c.7.1.1.7.c.X.' =.,.,.,.' ' ' =.1.1.1.x.c.",
"M.M.M.c.z.' ' '  .z.z.z.=.;.M.M.M.M.M.M.M.M.M.M.M.M.c.k.=.' ' 1.M.q.' d.M.M.M.M.M.M.M.M.M.M.M.M.M.q.) @.k.z.&.' ' ' p.M.M.N.M.M."
};
