/* XPM */
static char *_505da8372374744dfc4f5bf48c9f0e4zjYvRWtzFVp7za45[] = {
/* columns rows colors chars-per-pixel */
"64 64 210 2 ",
"   c #000024",
".  c #0A0627",
"X  c #00062A",
"o  c #00092D",
"O  c #0A0C2C",
"+  c #140C2A",
"@  c #14102D",
"#  c #1E132D",
"$  c #000C30",
"%  c #090E31",
"&  c #001134",
"*  c #0D1433",
"=  c #001639",
"-  c #00193B",
";  c #0B1E3E",
":  c #111434",
">  c #121937",
",  c #121D3C",
"<  c #26172F",
"1  c #2B1B30",
"2  c #331F33",
"3  c #01213F",
"4  c #0E203F",
"5  c #1C223B",
"6  c #27233A",
"7  c #332034",
"8  c #3D2637",
"9  c #482C3A",
"0  c #52333D",
"q  c #5C3B3E",
"w  c #001E42",
"e  c #0D1F40",
"r  c #131B40",
"t  c #191F40",
"y  c #012344",
"u  c #002548",
"i  c #072B49",
"p  c #002B4D",
"a  c #182846",
"s  c #02334D",
"d  c #08314C",
"f  c #14314E",
"g  c #032F51",
"h  c #003154",
"j  c #0C3152",
"k  c #013A55",
"l  c #013B5B",
"z  c #183A59",
"x  c #262D43",
"c  c #252D4C",
"v  c #27354D",
"b  c #373346",
"n  c #2B3C53",
"m  c #283A57",
"M  c #22365B",
"N  c #313D5B",
"B  c #153E61",
"V  c #483240",
"C  c #633E40",
"Z  c #02425B",
"A  c #0B425D",
"S  c #1C405A",
"D  c #2E4759",
"F  c #394757",
"G  c #35515C",
"H  c #014563",
"J  c #024B64",
"K  c #0C4B67",
"L  c #055063",
"P  c #02526A",
"I  c #0B566A",
"U  c #03596E",
"Y  c #1B526B",
"T  c #0F5571",
"R  c #025A72",
"E  c #355263",
"W  c #3A5363",
"Q  c #39586B",
"!  c #355375",
"~  c #036375",
"^  c #03657A",
"/  c #05697A",
"(  c #19697B",
")  c #2A6075",
"_  c #3A6E76",
"`  c #6B4541",
"'  c #764C45",
"]  c #7E5246",
"[  c #425663",
"{  c #4C5B63",
"}  c #465A68",
"|  c #445876",
" . c #4A5B76",
".. c #50646B",
"X. c #546672",
"o. c #5C737B",
"O. c #62777F",
"+. c #3B5E84",
"@. c #046F81",
"#. c #037484",
"$. c #0C7B86",
"%. c #037A89",
"&. c #137687",
"*. c #2F738B",
"=. c #4A6B83",
"-. c #4A7486",
";. c #5B7987",
":. c #476D91",
">. c #577491",
",. c #647B83",
"<. c #687F87",
"1. c #637991",
"2. c #08838D",
"3. c #048491",
"4. c #058E98",
"5. c #148695",
"6. c #07919A",
"7. c #08949B",
"8. c #14929E",
"9. c #2B889B",
"0. c #25909F",
"q. c #0896A0",
"w. c #0799A1",
"e. c #0A9FA3",
"r. c #3898A8",
"t. c #07A2A7",
"y. c #08A2A7",
"u. c #09A3A8",
"i. c #09ACAF",
"p. c #1DA3AC",
"a. c #0AB6B7",
"s. c #0CBAB8",
"d. c #18B3B6",
"f. c #2AABB4",
"g. c #23B6BB",
"h. c #2DB2B9",
"j. c #588190",
"k. c #6A8996",
"l. c #728C95",
"z. c #728B9A",
"x. c #5688A7",
"c. c #469FAC",
"v. c #6590A3",
"b. c #6B92A3",
"n. c #6192AF",
"m. c #6C93AD",
"M. c #7395A3",
"N. c #7F9BA3",
"B. c #7C98AD",
"V. c #4AAFBA",
"C. c #0CC0BE",
"Z. c #33BAC0",
"A. c #54BFC7",
"S. c #65A1C8",
"D. c #75ACCC",
"F. c #76BCE4",
"G. c #0CC5C2",
"H. c #0DCAC5",
"J. c #1CC4C3",
"K. c #0ED4CD",
"L. c #19D0CB",
"P. c #1AD7D1",
"I. c #1AD9D3",
"U. c #3AC1C7",
"Y. c #34CCCE",
"T. c #26DDD7",
"R. c #33E4DF",
"E. c #3FE9E5",
"W. c #51CCD2",
"Q. c #48D5D7",
"!. c #56DFE2",
"~. c #62DFE2",
"^. c #4AE9E7",
"/. c #4BEFEB",
"(. c #55E0E2",
"). c #57F4F1",
"_. c #5BF6F3",
"`. c #62E5E8",
"'. c #63F0F0",
"]. c #64FAF7",
"[. c #70FFFD",
"{. c #83A0A9",
"}. c #88A6AE",
"|. c #89A7BB",
" X c #91B1BA",
".X c #83AEC8",
"XX c #88B3C9",
"oX c #95BAC6",
"OX c #99BCC6",
"+X c #94B6C8",
"@X c #9EC2CC",
"#X c #A2C7D1",
"$X c #ABD2DD",
"%X c #92C8E4",
"&X c #87D7FF",
"*X c #8FDBFF",
"=X c #96DEFF",
"-X c #AAD3E3",
";X c #B0D8E2",
":X c #9EE1FF",
">X c #A5E5FF",
",X c #AAE7FF",
"<X c #AEE9FF",
"1X c #B9E4F2",
"2X c #B4EBFF",
"3X c #BCEFFF",
"4X c #C6F3FF",
"5X c #CBF4FF",
"6X c #D4F6FF",
"7X c #E1F9FF",
/* pixels */
"4X4X4X4X4X4X4X4X4X4X4X4X4X4X4X4X4X4X4X4X4X4X4X4X4X4X4X4X4X4X . . . . . . .B.4X4X4X|. . . . . . . .1X4X4X4X4X4X4X4X4X4X4X4X4X4X4X",
"4X4X4X4X4X4X4X4X4X4X4X4X4X4X4X4X4X4X4X4X4X4X4X4X4X4X4X4X4X4X               .4X4X4X1.              -X4X4X4X4X4X4X4X4X4X4X4X4X4X4X",
"4X4X4X4X4X4X4X4X4X4X4X4X4X4X4X4X4X4X4X4X4X4X4X4X4X4X4X4X .N u p ~ / e.%.y z N N N Y ~ l u o   B.+X4X4X4X4X4X4X5X4X4X4X4X4X4X4X4X",
"4X4X4X4X4X4X4X4X4X4X4X4X4X=X>X4X4X4X4X4X4X4X2X=X3X4X4X4Xt   h l 3.4.K.i.h y       Z 3.P h $   -X4X2X=X3X4X4X4X5X4X4X4X4X4X4X4X4X",
"4X4X4X4X4X4X4X4X4X4X4X, t r | 4X4X4X|.t t t r , B Y a t     X $ l h - - X     = p U 3.i.G.3.#.f t r r t t t , a  .4X4X4X4X4X4X4X",
"4X4X4X4X4X4X4X4X4X4X5X      N 4X4X4XB.          u p $         X h p           - h R 3.a.K.7.2.&                 N 4X4X4X4X4X4X4X",
"4X4X4X4X4X4X4X4X4X4X4X  & #.P , t t e p p p R #.#.%.l p o   s.J.`.(.s.6.p p p - X w l #.4.i & u p / #.~.!.a.2.  N 4X4X4X4X4X4X4X",
"4X4X4X4X4X4X4X4X4X4X4X  & 3.~       & h h h ^ 3.3.3.H h X   K.I.[.].K.i.h h h -   - g ^ 3.3   p h %.3.[.].K.e.  m 2X4X4X4X4X4X4X",
"4X4X4X4X4X4X4X4X4X4X4X  - K.i.h w   s 2.i.K./.[.[.[.p.3.l h [.].K.I.[.W.h -   Z 2.Z       p h %.3.3.3.K.s.h u   M :X4X4X4X4X4X4X",
"4X4X4X4X4X>X=X4X4X4X=X  - K.a.l u   p %.t.H.^.[.]._.f.4.h p ].).H.L.].W.p y X J 4.P - - o y p / %.4.4.H.s.p j t E 4X4X4X4X4X4X4X",
"4X4X4X4X4X>X:X4X4X2X=X  - K.s.2.L   & h R 3.Q.[.T.K.K.K.-   K.H.2.4.K.e.  = k 2.K.K.K.y.3.3   p h C.K.3.#.  N 4X2X3X4X4X4X4X4X4X",
"4X4X4X4X4X4X4X4X:X&X4X  - s.a.3.U $ - u Z ~ h.!.I.K.G.C.-   i.y.3.4.e.&.# 5 H 8.T.P.K.d.p.A 3 p u 7.e.~ P M =.4X&X:X4X4X4X4X4X4X",
"4X4X=X>X4X4X4X=X,X2X=X  & 3.3.3.^ h w       P 3.C.K.7.3.$   h l 3.#.  # ] ..2.U.[.E.K./.[.p.3.&         , &X=X=X2X,X=X3X3X=X2X4X",
"4X4X=X%XoXoXXXS..X+XS.  & 2.3./ R H l s u 3 U @.7.y.2.( : + f z ~ P + < q F / 0.W.Y.T.).[.Z.p.d y & o   t S.S.S.+X.XD.4X2X=X2X4X",
"4X4X4X .                $ 3.#.h P 3.t.K.i.2.U h o   9 0 0 0 0 9   . 0 8       - k r.[.[.[.[.[.7.3.l h                .4X4X4X4X4X",
"4X4X4X .  Z L ) ) L L s s P U P &.h.J.K.J.h.5./ =   < 2 q C 7 7 = & 7 7 & 3 L ~ @.0.V.W.Q.c.c.T P h h L I ) Y L s   ! 4X4X4X4X4X",
"4X4X4X .  7.K.].[.K.K.3.#.  y 2.h.[.^.K.E.[.R.K.s       ` ]   X h p   $ h @.K.K.K.3.h @.3.3       p h K.P.[.).K.e.  ! 3X4X4X4X4X",
"4X4X4X .  ~ 2.Z.Z.K.K.i.q.  - 3.h.[._.^.E.E.J.i.l - X   q ` - w R P - p R 8.E.T.K.g.r.&.R p - k Z %.3.^.^.U.h.3.~   ! 3X4X4X4X4X",
"4X4X4X .  u h %.3.K.K.K.s.  3 3.h.[.[.[.E.K.y.2.H h $   9 0 h l 3.%.h H 3.h.[.^.K.E.[.*.h h h %.3.H.K.[.'.3.@.h u   | 4X4X4X4X4X",
"4X4X4X+Xm.a = J P t.t.t.6.y w s K 9.0.h.d.t.i.a.y.7.l w # # q.e.a.i.^ R P &.Z.Y./._.[.-.b * & J P 7.t.h.p.P Z & z m..X4X4X4X4X4X",
"4X4X4X<X&XM   p h 3.3.3.%.h u   & h P 3.3.%.a.K.K.K.R h o   K.K.K.H.3.#.h P 3.U.[.[.[.j.0 +   p h %.3.3.%.h p   N ,X&X3X4X4X4X4X",
"<X=X4X,X&XS.x.e & s h P J h u   X & p P 0.Q.T.K.^./.5.^ $   K.K./.Q.P H & p P &.h.Q.[.X.< y w & = D G G D = m B.n.:X2X4X3X=X2X4X",
"<X=X4X2X=X=X:Xt       h h h u       & h r.[.R.K._.[.p.3.&   K.I.[.`.h u   & h R 3.U.[.)   u k X   9 0 0 9   N 2X&X>X4X4X3X=X2X4X",
"4X4X4Xz.N N N w u u u $ $ $ & u -   $ g r.[._.).9.( d 3 w u 7.p.[.`.h u   X $ p H A S u u R / $   a f f i   O M +.=X4X4X4X4X4X4X",
"4X4X4X .      p h h h       $ h w   & h r.[.[.[.( h $   p h 3.8.[.`.p u       - k =   w h @.3.&   p h h g       N 2X=X4X4X4X4X4X",
"4X4X4X .  V.~.J.C.%.%.#./ p w X p #.R h l K f ; V V O   X X l l K T #.( 9 1     X k #.#.%.a.H.-   p h %.%.#.R p w r +.4X4X4X4X4X",
"4X4X4X .  A.[.I.K.3.3.3.%.h u   h 3.^ h h h &   8 0 +       h h h l 3.&.0 2       Z 3.3.3.C.K.-   p h 3.3.3.@.h u    .4X4X4X4X4X",
"<X=X4X .  ~ 3.H.K.K.K.3.%.h f 0 _ K.a.3.i.K.y.3.w   9 0 $.3.K.H.3.4.K.e.  < 0 1   / K.t.3.(.[.;   #.3.3.4.K.K.K.i.h w   >.4X,X=X",
"<X=X4X .  ~ 3.H.K.K.K.3.%.h f 0 _ K.s.3.i.K.y.3.y   8 0 $.3.K.H.3.4.K.e.  # 0 1   / K.u.3.(.[.r   #.3.3.4.K.K.K.i.h w   >.4X,X=X",
"4X4X4X4X4XN           h p   + 0 j.[./.K.i.3.s   u h o   p h 3.4.K.I.[.A.  1 ] 9   Z 2.a.K.).[.K h %.3.h h h u           1.4X4X4X",
"4X4X4X1X-XN       X X p u X @ 0 o.(.Q.C.w.#.p X p l - & u p %.3.H.L.`.V.  1 ' 8   l %.y.s.Q.~.K h @.%.p p p g r r r t t z.4X4X4X",
"4X4X4X .          h h   X h f 0 8 k h h -   y h #.3.3.3.&   h l 3.%.k u   # 0 <   - h &       p h h h       M *X&X:X4X4X4X3X4X4X",
"4X4X4X .  - 3 i s R R w u h j 8 x u u u &   h R %.3.3.3.s k u h @.^ u y + 1 9 +   & u & $ - w H H P R $ $   N 4X&X:X4X4X2X&X2X4X",
"4X4X4X .  ~ 3.H.K.K.K.3.%.h y               2.K.w.3.3.3.H.K.  X h p   + 0 2           w h #.3.3.3.H.K.h g   M :X,X3X4X4X4X,X3X4X",
"4X4X4X{. .A P i.a.a.a.e.7.P l & $       o & #.a.i.t.y.y.a.a.  X w -   . 7 #           w h @.3.e.t.a.a.h h & j x.+X4X4X3X4X4X4X4X",
"4X4X4X4X4XD   #.3.3.3.K.K.3.#.h w       - h ^ 3.C.K.K.K.4.3.                          w h @.3.H.K.4.3.h h h w   M =X4X*X=X4X4X4X",
"4X4X4X2X=X} 5 L P P P 2.2.L U P Z h u & h P R ~ #.2.2.2.^ ^     & $   & s s s s s 3 & - w Z L 2.2.^ ^ P P P J g z b.oX<X2X4X4X4X",
"4X4X4X2X*X;.{ .             3 2.3.3.^ h R 3.P h $       p h   X h p   y 3.3.3.3.3.R h &           g h 3.3.3.3.3.~    .3X3X4X4X3X",
"4X4X4X4X4Xk.{ O   - - - -   u i.e.3.#.R @.3.Z - X   s Z h h - y R P - l i.e.3.7.i.@.h l Z Z Z w - - - R ^ i.e.3.%./ *.:.D.4X=X=X",
"4X4X4X4X4X,.W O   h h h p   s K.a.3.3.3.3.3.s       ~ 3.l h h l 3.%.h R K.a.3.i.K.3.h ^ 3.3.3.l h X   h H K.C.3.w.K.2.  >.4X2X2X",
"4X4X4XB. .v , J P / ^ h p   = @.4.a.a.a.3.P -   - w 6.a.@.^ ^ / 3.%.& u / 6.a.7.@.l & l P %.3.7.7.%   = w #.3.a.s.K.2.  1.4X4X4X",
"4X4X4X .      #.3.2.3.h p   o h @.K.K.K.2.h &   u h i.K.4.3.3.3.3.#.  o h #.K.2.h -   w g #.3.H.K.-     X h R K.K.K.2.  >.4X4X4X",
"4X4X4X#X+Xc   y 3 3 3 o & ~ P h H R J s y $ X   o $ H R i.C.C.a.H l   X o p R h o k ^ s o 7.C.K.K.-   u u o - s s s Q +X-X4X4X4X",
"4X4X4X4X4XN         X   & 3.#.h h h y               u h C.K.K.C.h p       & h -   Z 3.p   y.K.K.K.-   h p           | 4X3X4X4X4X",
"4X4X4X4X4XN.;.n n n n   & 3.%.#.R h w   # 8 +       o $ P R R P o o       X o k ~ 6.C.Z X Z R C.K.-   $ o   % n ..XXF.3X4X4X4X4X",
"4X4X>X2X4X XN.} W E W   & 3.3.3.^ h w   1 0 #           p h g p               Z 3.i.K.L   p s C.K.-         * E >.>X<X4X3X:X2X4X",
"4X4X*XD.}.{.{.z.k.E {     & & o o o     . . 2 9 ` ` 0 9 O X X X       $ p w   w l p - o   X X = -     s p p - O f m.@X4X2X*X2X4X",
"4X4X4XOXN.N.N.x.b.{ E                       2 0 ' ] q 0 .             o h w   - h -                   s h h u   a v.OX4X4X4X4X4X",
"4X4X4XOXN.b.v.} [     h p       = h w   - h &           p h h h h p           - h =   w h h h h h X   2.%.g H 3.~   v N.#X4X4X4X",
"4X4X3XoXN.v.v.[ F X X p u X     & h y X - p $   O .     h l h h h p & o     X y l w   y l h h h h X   %.#.l J 3.~   c M.#X4X4X4X",
"4X4X&XD.N.N.N.:   h h   X h p   & h h h -       8 0 +   #.3.h h h l 3.~   & h R 3.Z   P 3.H h h h X   h l 3.3.2.~   n {.#X4X4X4X",
"4X4X<X XN.N.N.:   l l X $ p y   $ p p p =       2 9 +   / %.l l l H %.R   - l R 3.Z   J %.P l h h X   p h #.#.#.R   n {.#X4X4X4X",
"4X4X4XOXN.N.N.*   2.3.h p                               g h 3.3.3.%.h u   s 2.3.3.Z   w h #.3.l h X                 n {.#X4X4X4X",
"4X4X4XOXN.N.{.*   ~ ~ u w * %   X o o       X o         y u ~ ~ ~ U u -   p #.%.3.Z   - u P ~ p u     * * : : 5 x x }  X$X4X4X4X",
"4X4X4XOXN.{.N.*         O E n   = h w       w h $                         & k R 3.Z                   [ [ { X.{.N.N.OX4X4X4X4X4X",
"4X4X4XOXN.N.N.F n 5 5 5 x E n   - P h   o & u h $   > , , , , >     & $   o w k P u   o =     $ =     { ..o.<.{.N.N.OX4X4X4X4X4X",
"4X4X4XOXN.N.N.N.v.E { { { { F   s 3.P   - s h h $   n E E { [ D   o h u               y h o   g h X   [ ..N.v.x.N.N.oX4X4X4X4X5X",
"4X4X4X;X#X}.N.N.M.;.,.O.O.{ F   y U P Z k h y = a a ..-.Q W x a Z Z R J - $   > x x x 4 - - - P R o   ,.<.N.M.k.}.#X;X4X4X4X4X4X",
"4X4X4X4X4X X{.N.{.N.N.N.l.{ F   = h P 2.R h &   n E k.v.Q E   & 3.3.3.@.h w   x { { { 5   u h %.3.&   N.N.N.{.{. X4X4X4X4X4X4X4X",
"4X4X4X4X4X$X#X{.N.N.N.N.l.6 5   X - u Z p - a a X.;.j.x.-.=.  X Z Z Z k - , x [ =.o.O.F x ; - k Z X   N.{.#X#X#X$X4X4X4X4X4X4X4X",
"4X4X4X4X4X4X4X}.N.N.N.N.l.                  v W k.N.b.b.b.b.              5 { ,.b.M.{.o.{ :           {.}.4X4X4X4X4X4X4X4X4X4X4X",
"4X4X4X4X4X4X4X4X4X4X4X4X5X4X4X4X4X4X4X4X4X*X>X4X4X4X4X4X4X4X4X4X4X4X4X4X4X4X4X4X4X4X4X4X4X4X4X4X4X4X4X4X4X4X4X5X4X4X4X4X4X4X4X4X",
"4X4X4X4X4X4X4X4X4X4X4X<X&X3X4X4X4X4X4X4X4X4X4X4X4X4X4X:X&X4X4X4X4X4X4X4X4X4X4X4X4X4X4X4X4X4X4X4X4X4X4X4X4X4X4X4X4X4X4X4X4X4X4X4X",
"6X7X4X4X4X4X4X4X4X4X4X3X>X4X4X4X4X4X4X4X4X4X4X4X4X4X4X2X,X4X4X4X4X4X4X4X4X4X4X4X4X4X4X4X4X4X4X4X4X4X4X4X4X4X4X4X4X4X4X4X4X4X4X4X"
};
