/* XPM */
static char *result[] = {
/* columns rows colors chars-per-pixel */
"64 64 183 2 ",
"   c black",
".  c #0C0203",
"X  c #0F070A",
"o  c #160206",
"O  c #190305",
"+  c #1C090E",
"@  c #1B000A",
"#  c #1F0E14",
"$  c #1F1118",
"%  c #2E0707",
"&  c #2D080E",
"*  c #22060A",
"=  c #310808",
"-  c #32000C",
";  c #340113",
":  c #340A17",
">  c #20141C",
",  c #37121C",
"<  c #3A1723",
"1  c #3E1D2A",
"2  c #44000F",
"3  c #560E0E",
"4  c #440C15",
"5  c #5A0014",
"6  c #530014",
"7  c #49121B",
"8  c #61001C",
"9  c #631010",
"0  c #7B0718",
"q  c #400621",
"w  c #470C27",
"e  c #541C2C",
"r  c #4D1A24",
"t  c #6B0029",
"y  c #711424",
"u  c #751B2C",
"i  c #6A1E24",
"p  c #402431",
"a  c #402837",
"s  c #5D293B",
"d  c #772026",
"f  c #772229",
"g  c #6F2439",
"h  c #7B2238",
"j  c #6A2027",
"k  c #5F374C",
"l  c #6D3046",
"z  c #603D53",
"x  c #7B3852",
"c  c #704761",
"v  c #8C081C",
"b  c #9E0024",
"n  c #9E1C32",
"m  c #88182B",
"M  c #A20029",
"N  c #A9042D",
"B  c #B50029",
"V  c #B9002E",
"C  c #A01C2F",
"Z  c #BE0334",
"A  c #B51031",
"S  c #942338",
"D  c #B52039",
"F  c #C4003C",
"G  c #BB0048",
"H  c #B50040",
"J  c #BE1F42",
"K  c #8B2D48",
"L  c #9C3448",
"P  c #953F5D",
"I  c #85394B",
"U  c #BF2A47",
"Y  c #BE2E4A",
"T  c #A73756",
"R  c #A43F56",
"E  c #BF3B5A",
"W  c #BE3B52",
"Q  c #A32942",
"!  c #C90042",
"~  c #CE0048",
"^  c #C70040",
"/  c #D2004D",
"(  c #D60052",
")  c #DB0458",
"_  c #DA0E5D",
"`  c #E0065E",
"'  c #C42F4F",
"]  c #C73C5C",
"[  c #CE395D",
"{  c #C73455",
"}  c #DC1965",
"|  c #E50965",
" . c #EA0C6B",
".. c #EF0F71",
"X. c #F51277",
"o. c #F61279",
"O. c #DF256C",
"+. c #CE3E62",
"@. c #D43E64",
"#. c #DA3B6A",
"$. c #E63D77",
"%. c #E8367A",
"&. c #9A4667",
"*. c #96466C",
"=. c #80516F",
"-. c #A15A7B",
";. c #C74162",
":. c #C8496B",
">. c #DE4973",
",. c #DE4978",
"<. c #DD527C",
"1. c #D75078",
"2. c #CD5075",
"3. c #E14978",
"4. c #E4537F",
"5. c #FF1884",
"6. c #FE2388",
"7. c #F82682",
"8. c #FF3A9A",
"9. c #9E5F83",
"0. c #A0658B",
"q. c #AF6F98",
"w. c #DA5980",
"e. c #D05983",
"r. c #E35480",
"t. c #E75986",
"y. c #E65E8C",
"u. c #EA5D8C",
"i. c #FE429A",
"p. c #EA5198",
"a. c #F95A9C",
"s. c #E94C81",
"d. c #DA618B",
"f. c #D17283",
"g. c #D86390",
"h. c #CA618A",
"j. c #EF6797",
"k. c #EC6D9D",
"l. c #F3649A",
"z. c #F36B9D",
"x. c #E2729F",
"c. c #FF4CA6",
"v. c #EE5FA2",
"b. c #FF51A3",
"n. c #CD75A3",
"m. c #F36EA7",
"M. c #E371A0",
"N. c #EC76A4",
"B. c #F771A5",
"V. c #F876AB",
"C. c #F679AC",
"Z. c #FF68B8",
"A. c #FA7DB2",
"S. c #CF83B4",
"D. c #EB82AF",
"F. c #EA8CA8",
"G. c #F381B5",
"H. c #FB81B5",
"J. c #F685BB",
"K. c #FC89BD",
"L. c #FC85B9",
"P. c #EC82B7",
"I. c #DF8EC2",
"U. c #FD8CC1",
"Y. c #FC8FC8",
"T. c #F78BC2",
"R. c #EC90C5",
"E. c #FF92C6",
"W. c #F693C9",
"Q. c #FD94CB",
"!. c #FF98CF",
"~. c #F390C6",
"^. c #EF97D0",
"/. c #FC96D1",
"(. c #FE9BD5",
"). c #FF9DD9",
"_. c #FFA5D1",
"`. c #FFA2DE",
"'. c #F5BCD4",
"]. c #FFADE2",
"[. c #FFC3EA",
"{. c #FFFBFF",
"}. c None",
/* pixels */
"}.}.}.}.}.}.}.}.}.}.}.}.}.}.}.}.}.}.}.}.}.}.}.}.}.}.}.}.}.}.}.}.}.}.}.}.}.}.}.}.}.}.}.}.}.}.}.}.}.}.}.}.}.}.}.}.}.}.}.}.}.}.}.}.",
"}.}.}.}.}.}.}.}.}.}.}.}.}.}.}.}.}.}.}.}.}.}.}.}.}.}.}.}.}.}.}.}.}.}.}.}.}.}.}.}.}.}.}.}.}.}.}.}.}.}.}.}.}.}.}.}.}.}.}.}.}.}.}.}.",
"}.}.}.}.}.}.}.}.}.}.}.}.}.}.}.}.}.}.}.}.}.}.}.}.}.}.}.}.}.}.}.}.}.}.}.}.}.}.}.}.}.}.}.}.}.}.}.}.}.}.}.}.}.}.}.}.}.}.}.}.}.}.}.}.",
"}.}.}.}.}.}.}.}.}.}.}.}.}.}.}.}.}.}.}.}.}.}.}.}.}.}.}.}.}.}.}.}.}.}.}.}.}.}.}.}.}.}.}.}.}.}.}.}.}.}.}.}.}.}.}.}.}.}.}.}.}.}.}.}.",
"}.}.}.}.}.}.}.}.}.}.}.}.}.}.}.}.}.}.}.}.}.}.}.}.}.}.}.}.}.}.}.}.}.}.}.}.}.}.}.}.}.}.}.}.}.}.}.}.}.}.}.}.}.}.}.}.}.}.}.}.}.}.}.}.",
"}.}.}.}.}.}.}.}.}.}.}.}.}.}.}.}.}.}.}.}.}.}.}.}.}.}.}.}.}.}.}.}.}.}.}.}.}.}.}.}.}.}.}.}.}.}.}.}.}.}.}.}.}.}.}.}.}.}.}.}.}.}.}.}.",
"}.}.}.}.}.}.}.}.}.}.}.}.}.}.}.}.}.}.}.}.}.}.}.}.}.}.}.}.}.}.}.}.}.}.}.}.}.}.}.}.}.}.}.}.}.}.}.}.}.}.}.}.}.}.}.}.}.}.}.}.}.}.}.}.",
"}.}.}.}.}.}.}.}.}.}.}.}.}.}.}.}.}.}.}.}.}.}.}.}.}.}.}.}.}.}.}.}.}.}.}.}.}.}.}.}.}.}.}.}.}.}.}.}.}.}.}.}.}.}.}.}.}.}.}.}.}.}.}.}.",
"}.}.}.}.}.}.}.}.}.}.}.}.}.}.}.}.}.                    }.}.}.}.}.}.}.}.}.}.}.}.                    }.}.}.}.}.}.}.}.}.}.}.}.}.}.}.",
"}.}.}.}.}.}.}.}.}.}.}.}.}.}.}.}.}.                    }.}.}.}.}.}.}.}.}.}.}.}.                    }.}.}.}.}.}.}.}.}.}.}.}.}.}.}.",
"}.}.}.}.}.}.}.}.}.}.}.}.}.}.}.        X x x x x s = = .   }.}.}.}.}.}.}.}.    % = 7 g g x x r = =     }.}.}.}.}.}.}.}.}.}.}.}.}.",
"}.}.}.}.}.}.}.}.}.}.}.}.}.}.}.        # B.B.B.B.:.9 9 .     }.}.}.}.}.}.}.    3 9 S >.>.B.B.L 9 3     }.}.}.}.}.}.}.}.}.}.}.}.}.",
"}.}.}.}.}.}.}.}.}.}.}.}.}.}.}.    X + < V.C.C.C.2.f d o . . }.}.}.}.}.}.}.X . j f L 4.r.C.C.R d i . . }.}.}.}.}.}.}.}.}.}.}.}.}.",
"}.}.}.}.}.}.}.}.}.}.}.}.}.}.}.    K >.4.`.`.`.`._.Q.E.d 9 =             O 9 9 R.`.`.`.`.`.`.!.E.D.9 9 O     }.}.}.}.}.}.}.}.}.}.",
"}.}.}.}.}.}.}.}.}.}.}.}.}.}.}.    K >.r.`.`.`.`.(.E.E.d 9 =             O 9 9 R.`.`.`.`.`.`.!.E.D.9 9 O     }.}.}.}.}.}.}.}.}.}.",
"}.}.}.}.}.}.}.}.}.}.}.}.}.}.}.    P l.B.Q.Q.k.y.<.] ] C C Q T T T T S m S E E Q.`.`.`.`.`.`.).).~.E E :     }.}.}.}.}.}.}.}.}.}.",
"}.}.}.}.}.}.}.}.}.}.}.}.}.}.}.    &.B.V.E.E.y.>.[ A D D D { >.>.>.3.' D Y >.>./.`.`.`.`.`.`.`.`.!.>.>.,     }.}.}.}.}.}.}.}.}.}.",
"}.}.}.}.}.}.}.}.}.}.}.}.}.}.}.    &.V.H.k.N.4.>.@.{ ] ;.;.1.y.y.y.y.2.] :.y.y.(.`.`.`.`.`.`.`.`./.y.y.,     }.}.}.}.}.}.}.}.}.}.",
"}.}.}.}.}.}.}.}.}.}.}.}.}.}.}.    -.Q.G.D D @.>.t.B.m.).`.`.`.`.`.`.!.E.Q.`.`.`.`.`.`.`.`.`.`.`.`.E.E.p     }.}.}.}.}.}.}.}.}.}.",
"}.}.}.}.}.}.}.}.}.}.}.}.}.}.}.    -.E.J.D D @.>.t.B.m.).`.`.`.`.`.`.!.E.Q.`.`.`.`.`.`.`.`.`.`.`.`.E.E.p     }.}.}.}.}.}.}.}.}.}.",
"}.}.}.}.}.}.}.}.}.}.}.}.}.}.}.    u Y ] j.j.K.!.(.(.).).`.`.`.`.`.`.`.(.`.`.`.`.`.`.`.`.`.`.`.`.(.B.V.1     }.}.}.}.}.}.}.}.}.}.",
"}.}.}.}.}.}.}.}.}.}.}.}.}.}.}.    i A U B.B.!.`.`.].).].`.`.`.`.`.`.`.`.`.`.`.`.`.`.`.`.`.`.`.`.(.B.B.1     }.}.}.}.}.}.}.}.}.}.",
"}.}.}.}.}.}.}.}.}.}.}.}.}.}.}.    m { +.T.K.T.T.n.=.c W.`./.T.P.=.=.S.`.`.`.`.`.`.`.`.`.`.`.(.(.Q.y.y.<     }.}.}.}.}.}.}.}.}.}.",
"}.}.}.}.}.}.}.}.}.}.}.}.}.}.}.    I >.4.`.`.H.B.*.  X I.`.T.B.g.    0.`.`.`.`.`.`.`.`.`.`.`.!.E.K.>.>.,     }.}.}.}.}.}.}.}.}.}.",
"}.}.}.}.}.}.}.}.}.}.}.}.}.}.}.    K 3.r.`.`.A.B.&.    I.`.K.B.g.    0.`.`.`.`.`.`.`.`.`.`.`.Q.E.K.>.>.,     }.}.}.}.}.}.}.}.}.}.",
"}.}.}.}.}.}.}.}.}.}.}.}.}.        *.B.V.`.`.;.D f.{.{.].`.d.D W {.{.[.`.`.`.`.`.`.`.`.`.E.Q.A.B.j.D D &     }.}.}.}.}.}.}.}.}.}.",
"}.}.}.}.}.}.}.}.}.}.}.}.}.        &.B.V.`.`.;.D f.{.{.].`.d.A W {.{.[.`.`.`.`.`.`.`.`.`.E.E.G.B.j.D D &     }.}.}.}.}.}.}.}.}.}.",
"}.}.}.}.}.}.}.}.}.}.}.}.}.    y y h.Q.Q.`.`.l 4 I F.F.`.`.-.7 e F.F.W.`.`.`.`.`.`.`.`.`.`.!.Q.E.J.[ [ :     }.}.}.}.}.}.}.}.}.}.",
"}.}.}.}.}.}.}.}.}.}.}.}.}.    D A N.`.`.`.`.a   e >.>./.`.c   # >.>.G.`.`.`.`.`.`.`.`.`.`.`.`.`.!.>.>.,     }.}.}.}.}.}.}.}.}.}.",
"}.}.}.}.}.}.}.}.}.}.}.}.}.    U Y N.`.`.`.`.a   e 4.r.(.].=.  + r.r.J.`.`.`.`.`.`.`.`.`.`.`.`.`./.>.>.,     }.}.}.}.}.}.}.}.}.}.",
"}.}.}.}.}.}.}.}.}.}.}.}.}.    >.,.G.`.`.`.`.a   s B.B.).].=.  # B.B.E.`.`.`.`.`.`.`.`.`.`.`.`.`./.>.>.,     }.}.}.}.}.}.}.}.}.}.",
"}.}.}.}.}.}.}.}.}.}.}.}.}.    >.,.P.`.`.`.`.a   s B.B.).`.=.  $ B.B.Q.`.`.`.`.`.`.`.`.`.`.`.`.`./.>.>.,     }.}.}.}.}.}.}.}.}.}.",
"}.}.}.}.}.}.}.}.}.}.}.}.}.    >.,.A.`./.8.8.<   z /./.`.].=.  $ /./.Z.8.8.8.8./.`.`.`.`.`.`.`.`./.>.>.,     }.}.}.}.}.}.}.}.}.}.",
"}.}.}.}.}.}.}.}.}.}.}.}.}.    >.,.A.`./.5.5.q   z `.`.`.`.=.  > `.`.c.5.5.5.5./.`.`.`.`.`.`.`.`.(.>.>.,     }.}.}.}.}.}.}.}.}.}.",
"}.}.}.}.}.}.}.}.}.}.}.}.}.    >.,.C.(./.c.c.*.z 9.U.Y.).`.q.z c `.`.Z.c.c.c.c./.`.`.`.`.`.`.`.`.W.[ [ :     }.}.}.}.}.}.}.}.}.}.",
"}.}.}.}.}.}.}.}.}.}.}.}.}.    >.,.N.Q.Y.`.`.`.`.Y.m.m.).`.`.`.`.`.`.].).`.`.`.`.`.`.`.`.`.`.`.`.W.D D &     }.}.}.}.}.}.}.}.}.}.",
"}.}.}.}.}.}.}.}.}.}.}.}.}.    3.>.N.Q.Q.`.`.`.`.Y.V.B.).`.`.`.`.`.`.`.`.`.`.`.`.`.`.`.`.`.`.`.`.W.D D &     }.}.}.}.}.}.}.}.}.}.",
"}.}.}.}.}.}.}.}.}.}.          D D <.B.B.E.E.).`.M.A D W.`.`.`.`.`.`.`.`.`.`.`.`.`.`.`.`.`.`.!.E.D.9 9 O     }.}.}.}.}.}.}.}.}.}.",
"}.}.}.}.}.}.}.}.}.}.          D A <.B.V.E.E.(.`.M.D D W.`.`.).].`.`.`.`.`.`.`.`.`.`.`.`.`.`.!.E.D.9 9 O     }.}.}.}.}.}.}.}.}.}.",
"}.}.}.}.}.}.}.}.    6 5 5 t t A A <.B.B.H.H.Q.(.G.w.w.J.U.m.p.p.p.p.p.p.v.T.U./.!.(.!.(.(.(.K.H.x.% = .     }.}.}.}.}.}.}.}.}.}.",
"}.}.}.}.}.}.}.}.    b V Z ( ( V B <.B.B.B.B.K.Q.E.E.E.V.B.%.( ( ( ( ( ( } B.B.U.E.E.E.E.E.E.H.B.g.          }.}.}.}.}.}.}.}.}.}.",
"}.}.}.}.}.}.}.}.    M V ^ ) ) Z Z 3.z.z.B.B.L.E.E.U.U.z.l.%.) ( ) ) } } O.l.l.U.U.U.U.E.U.U.B.j.h.          }.}.}.}.}.}.}.}.}.}.",
"}.}.}.}.}.}.}.}.    G ( | 5.5.5.5.%.3.3.B.B.B.B.B.B.B._ (  .5.5.5.5.`.{.'.( ( l.B.B.B.B.B.B.;.D C     }.}.}.}.}.}.}.}.}.}.}.}.}.",
"}.}.}.}.}.}.}.}.    G ( | 5.5.5.5.%.>.3.B.B.B.B.B.B.B._ (  .5.5.5.5._.{.'.( ( l.B.B.B.B.B.B.@.D n     }.}.}.}.}.}.}.}.}.}.}.}.}.",
"}.}.}.}.}.}.}.}.    G ( | 5.5.5.5.5.%.7.B.B.B.B.B.B.B._ (  .5.5.5.5.i.b.i.X.X.3.4.y.B.B.4.4.h & *     }.}.}.}.}.}.}.}.}.}.}.}.}.",
"}.}.}.}.}.}.}.}.    G ( | 5.5.5.5.5.5.6.B.B.B.B.B.B.B._ (  .5.5.5.5.5.5.5.5.5.$.3.t.B.B.>.>.e         }.}.}.}.}.}.}.}.}.}.}.}.}.",
"}.}.}.}.}.}.}.}.    Z ~ ) o.X.5.5.5.5.6.a.a.l.j.l.B.B._ ( | o.o.X.X.X.X.o.5.5.#.@.<.y.y.T T ,         }.}.}.}.}.}.}.}.}.}.}.}.}.",
"}.}.}.}.}.}.}.}.    b B F ( ( 5.5.5.5.5.5.5.$.>.t.B.B._ ( ( ( ( ( ( ( ( ` 5.5.U A D D D           }.}.}.}.}.}.}.}.}.}.}.}.}.}.}.",
"}.}.}.}.}.}.}.}.    b B F ( ( 5.5.5.5.5.5.5.%.3.t.B.B._ ( ( ( ( ( ( ( ( ` 5.5.U D D D D           }.}.}.}.}.}.}.}.}.}.}.}.}.}.}.",
"}.}.}.}.}.}.}.}.}.}.@ o 6 B V ( ( X.5.5.5.5.w # + # # M V F ( ( ( ( ( ( ( ) ( ; o o o O     }.}.}.}.}.}.}.}.}.}.}.}.}.}.}.}.}.}.",
"}.}.}.}.}.}.}.}.}.}.    2 B V ( ( X.5.5.5.5.q         M B F ( ( ( ( ( ( ( ( ( @             }.}.}.}.}.}.}.}.}.}.}.}.}.}.}.}.}.}.",
"}.}.}.}.}.}.}.}.}.}.}.  - 5 5 F F )  . . . .:         0 v N F ! ( ( ( ( / F F @             }.}.}.}.}.}.}.}.}.}.}.}.}.}.}.}.}.}.",
"}.}.}.}.}.}.}.}.}.}.}.}.}.    B B ! ( ( ( ( ;         3 9 v B V ( ( ( ( ~ B B o     }.}.}.}.}.}.}.}.}.}.}.}.}.}.}.}.}.}.}.}.}.}.",
"}.}.}.}.}.}.}.}.}.}.}.}.}.    B B ! ( ( ( ( ;         3 9 v B V ( ( ( ( ~ B B o     }.}.}.}.}.}.}.}.}.}.}.}.}.}.}.}.}.}.}.}.}.}.",
"}.}.}.}.}.}.}.}.}.}.}.}.}.}.}.              }.}.}.}.}.                        }.}.}.}.}.}.}.}.}.}.}.}.}.}.}.}.}.}.}.}.}.}.}.}.}.",
"}.}.}.}.}.}.}.}.}.}.}.}.}.}.}.              }.}.}.}.}.                        }.}.}.}.}.}.}.}.}.}.}.}.}.}.}.}.}.}.}.}.}.}.}.}.}.",
"}.}.}.}.}.}.}.}.}.}.}.}.}.}.}.}.}.}.}.}.}.}.}.}.}.}.}.}.}.}.}.}.}.}.}.}.}.}.}.}.}.}.}.}.}.}.}.}.}.}.}.}.}.}.}.}.}.}.}.}.}.}.}.}.",
"}.}.}.}.}.}.}.}.}.}.}.}.}.}.}.}.}.}.}.}.}.}.}.}.}.}.}.}.}.}.}.}.}.}.}.}.}.}.}.}.}.}.}.}.}.}.}.}.}.}.}.}.}.}.}.}.}.}.}.}.}.}.}.}.",
"}.}.}.}.}.}.}.}.}.}.}.}.}.}.}.}.}.}.}.}.}.}.}.}.}.}.}.}.}.}.}.}.}.}.}.}.}.}.}.}.}.}.}.}.}.}.}.}.}.}.}.}.}.}.}.}.}.}.}.}.}.}.}.}.",
"}.}.}.}.}.}.}.}.}.}.}.}.}.}.}.}.}.}.}.}.}.}.}.}.}.}.}.}.}.}.}.}.}.}.}.}.}.}.}.}.}.}.}.}.}.}.}.}.}.}.}.}.}.}.}.}.}.}.}.}.}.}.}.}.",
"}.}.}.}.}.}.}.}.}.}.}.}.}.}.}.}.}.}.}.}.}.}.}.}.}.}.}.}.}.}.}.}.}.}.}.}.}.}.}.}.}.}.}.}.}.}.}.}.}.}.}.}.}.}.}.}.}.}.}.}.}.}.}.}.",
"}.}.}.}.}.}.}.}.}.}.}.}.}.}.}.}.}.}.}.}.}.}.}.}.}.}.}.}.}.}.}.}.}.}.}.}.}.}.}.}.}.}.}.}.}.}.}.}.}.}.}.}.}.}.}.}.}.}.}.}.}.}.}.}.",
"}.}.}.}.}.}.}.}.}.}.}.}.}.}.}.}.}.}.}.}.}.}.}.}.}.}.}.}.}.}.}.}.}.}.}.}.}.}.}.}.}.}.}.}.}.}.}.}.}.}.}.}.}.}.}.}.}.}.}.}.}.}.}.}.",
"}.}.}.}.}.}.}.}.}.}.}.}.}.}.}.}.}.}.}.}.}.}.}.}.}.}.}.}.}.}.}.}.}.}.}.}.}.}.}.}.}.}.}.}.}.}.}.}.}.}.}.}.}.}.}.}.}.}.}.}.}.}.}.}."
};
