/* XPM */
static char *_e8bdfff448a4615dc54258738b597c99GC9HgT492PJVqIr[] = {
/* columns rows colors chars-per-pixel */
"64 64 182 2 ",
"   c None",
".  c black",
"X  c #0B0002",
"o  c #0B0204",
"O  c #160407",
"+  c #10070A",
"@  c #1B000A",
"#  c #1A090E",
"$  c #1B090E",
"%  c #1C090E",
"&  c #1D0C11",
"*  c #1F0E14",
"=  c #1F0E15",
"-  c #22060A",
";  c #2D000A",
":  c #2D080E",
">  c #300A12",
",  c #37121C",
"<  c #37121D",
"1  c #3A1723",
"2  c #3D1C29",
"3  c #44000F",
"4  c #420019",
"5  c #4C001A",
"6  c #50001E",
"7  c #50001F",
"8  c #5A101C",
"9  c #580428",
"0  c #5D072F",
"q  c #451724",
"w  c #4C1623",
"e  c #711424",
"r  c #600932",
"t  c #562032",
"y  c #5C2A3E",
"u  c #612032",
"i  c #602537",
"p  c #6F2439",
"a  c #403F40",
"s  c #6C3148",
"d  c #7B3852",
"f  c #764657",
"g  c #605E60",
"h  c #87182B",
"j  c #9E1C32",
"k  c #B50029",
"l  c #B52039",
"z  c #B7223D",
"x  c #BB0048",
"c  c #802E47",
"v  c #8B2E47",
"b  c #9F2F4B",
"n  c #A92641",
"m  c #A72C47",
"M  c #BA2540",
"N  c #BC2A46",
"B  c #BF2A48",
"V  c #BE2E4A",
"C  c #BE304E",
"Z  c #A73756",
"A  c #AD3453",
"S  c #B73A5A",
"D  c #CE0048",
"F  c #C3194E",
"G  c #D60052",
"H  c #D11D55",
"J  c #C42F4F",
"K  c #C93456",
"L  c #CE395D",
"P  c #CE395E",
"I  c #EA0C6B",
"U  c #FA157D",
"Y  c #FA157E",
"T  c #DD2A67",
"R  c #D43E64",
"E  c #D43F64",
"W  c #E32F6F",
"Q  c #EA3679",
"!  c #984868",
"~  c #AF4D71",
"^  c #B5577D",
"/  c #B9547C",
"(  c #C74162",
")  c #C24065",
"_  c #C5456B",
"`  c #C7496F",
"'  c #D04267",
"]  c #D9446C",
"[  c #D6486F",
"{  c #D84A72",
"}  c #DE4973",
"|  c #DA4C75",
" . c #E04D78",
".. c #E14E79",
"X. c #E2527E",
"o. c #FF1884",
"O. c #DF5680",
"+. c #DE5782",
"@. c #D55E8A",
"#. c #E45380",
"$. c #E25480",
"%. c #E25481",
"&. c #E75885",
"*. c #E65B88",
"=. c #E75D8A",
"-. c #E65F8E",
";. c #D86390",
":. c #D86391",
">. c #E36391",
",. c #EA6190",
"<. c #EE6292",
"1. c #EA6694",
"2. c #EE6494",
"3. c #EF6797",
"4. c #EE6D9C",
"5. c #F06798",
"6. c #F16798",
"7. c #F46C9E",
"8. c #F46C9F",
"9. c #EE74A7",
"0. c #EE75A8",
"q. c #E77AAD",
"w. c #F771A5",
"e. c #F376A7",
"r. c #F674A7",
"t. c #F774A8",
"y. c #F875A9",
"u. c #F977AB",
"i. c #F07AAD",
"p. c #F678AD",
"a. c #F979AD",
"s. c #F87BB0",
"d. c #FA7DB1",
"f. c #F97DB3",
"g. c #F87EB4",
"h. c #F97EB4",
"j. c #9F9D9F",
"k. c #E880B4",
"l. c #F780B1",
"z. c #F680B3",
"x. c #FA80B4",
"c. c #FA80B5",
"v. c #FB81B5",
"b. c #F882B4",
"n. c #FA83BA",
"m. c #FB84B9",
"M. c #F987BB",
"N. c #FB86BD",
"B. c #FA87BE",
"V. c #FC88BC",
"C. c #FD89BD",
"Z. c #FD8ABE",
"A. c #F78CC3",
"S. c #FB89C0",
"D. c #FB89C1",
"F. c #FC89C0",
"G. c #FE8EC2",
"H. c #FB8FC5",
"J. c #FC8DC5",
"K. c #FC8FC9",
"L. c #FF92C6",
"P. c #F592CA",
"I. c #FA91C9",
"U. c #FF94C9",
"Y. c #F895CD",
"T. c #FF96CC",
"R. c #FF98CF",
"E. c #FB97D1",
"W. c #FD96D0",
"Q. c #FF9AD2",
"!. c #FC99D4",
"~. c #FE99D4",
"^. c #FE9BD7",
"/. c #FF9CD5",
"(. c #FE9CD7",
"). c #FF9DD7",
"_. c #FF9ED8",
"`. c #FFA0DB",
"'. c #FFA1DD",
"]. c #FFA2DE",
"[. c #FFC2E0",
"{. c #FFFBFF",
/* pixels */
"                                                                                                                                ",
"                                                                                                                                ",
"                                                                                                                                ",
"                                                                                                                                ",
"                                                                                                                                ",
"                                                                                                                                ",
"                                                                                                                                ",
"                                                                                                                                ",
"                                                                                                                                ",
"                                                                                                                                ",
"                                                                                                                                ",
"                                              . . . . . . . . . . . . . . . . .                                                 ",
"                                              . . . . . . . . . . . . . . . . .                                                 ",
"                                              . . O : : , < < , , < , : : - . .                                                 ",
"                                    . . . . . . . 8 l l } } } } } } } J l e . . . . . . .                                       ",
"                                    . . . . . . . 8 l l } } } } } } } N l e . . . . . . .                                       ",
"                                . . . . < ) ) @.:.q.P.P.E.E.E.E.E.E.E.Y.P.k.:.:.) ) u . . . .                                   ",
"                                . . . . < } } 8.w.D.].].].].].].].].].].].K.w.w.} } p . . . .                                   ",
"                            . . . . y d ! 0.0.B.D.W.].].].].].].].].].].].~.D.D.0.0.^ d s . . . .                               ",
"                          . . . . . / w.f.].].].].].].].].].].].].].].].].].].].].].D.w.:.. . . . .                             ",
"                          . . . . . / w.f.].].].].].].].].].].].].].].].].].].].].].D.w.:.. . . . .                             ",
"                  . . . . . . % } } A.].].].].].].].].].].].].].].].].].].].].].].].].].E.} } < . .                             ",
"                  . . . . . . % } } A.].].].].].].].].].].].].].].].].].].].].].].].].].E.} } , . .                             ",
"            . . . . . j.j.a . & <.<.I.].].].].].].].].].].].].].].].].].].].].].].].].].W.<.<.1 . . . .                         ",
"            . . . . . {.{.g . = w.w.W.].].].].].].].].].].].].].].].].].].].].].].].].].^.w.w.2 . . . .                         ",
"            . . X ; ; [.[.f : w f.f.~.].].].].].].].].].].].].].].].].].].].].].].].].].^.g.s.y : - . .                         ",
"            . . 3 k k o.o.H l C ].].].].].].].].].].].].].].].].].].].].].].].].].].].].].].].( l h . .                         ",
"            . . 3 k k o.o.H l C ].].].].].].].].].].].].].].].].].].].].].].].].].].].].].].].( l h . .                         ",
"            . . 5 D D o.o.W E | ].].].].].].].].].].].].].].].].].].].].].].].].].].].].].].].+.E m . . . .                     ",
"            . . 6 G G o.o.Q } $.].].].].].].].].].].].].].].].].].].].].].].].].].].].].].].].-.} Z . . . . .                   ",
"            . . 6 G G o.o.Q } $.].].].].].].].].].].].].].]._././././././._.].].].].].].].].].-.} _ s y + . .                   ",
"            . . 6 G G o.o.Q } $.].].].].].].].].].].].].].].R.L.L.L.L.L.L.R.].].].].].].].].].-.} %.w.4.* . . . .               ",
"            . . 5 G G o.o.Q } %.].].].].].].].].].].].].].].R.L.L.L.L.L.L.R.].].].].].].].].].-.} $.w.w.* . . . .               ",
"            . . 0 Y o.o.o.Q } %.].].].].].].].].].].].].].].].`.`.`.`.h.y.x.U.U.].].].].].].].s.7.w.G.G.` ) u . . . .           ",
"            . . r o.o.o.o.Q { %.].].].].].].].].].].].].].].].].].].].f.w.f.L.L.].].].].].].].f.w.a.L.L.X.} p . . . .           ",
"            . . 9 I I o.o.T K R ].].].].].].].].].].].].].].].].].].].K.F.N.v.x.].].].].].].].D.x.V.Q.Q.i.0.~ p p . .           ",
"            . . 7 G G o.o.H l C ].].].].].].].].].].].].].].].].].].].].].K.w.w.].].].].].].].T.I.R.].].].].0.} } . .           ",
"            . . , x x U o.M j n /.~.].].].].].].].].].].].].].].].].].].].I.w.w.].].].].].^./.R.L.U.].].`.`.9.} } . .           ",
"            . . . . . G G 9 . = w.w.W.].].].].].].].].].].].].].].].].].].K.w.w.].].].]._.w.w.C.L.U.].].U.L.4.} } . .           ",
"            . . . . . G G 6 . = w.w.W.].].].].].].].].].].].].].].].].].].K.w.w.].].].].^.w.w.C.L.R.].].U.L.4.} } . .           ",
"                . . . 6 6 @ . & &.&.p.B.V.R.R.R.R./.].].].].].].].].].Q.R.z.&.&.R.R.J.n.g.&.&.w.a.m.R.R.x.f.O.J J . .           ",
"                  . . . . . . % } } 6.w.a.I.L.L.L.R.].].].].].].].].].T.L.e.} } L.L.x.w.7.} } 3.r.a.L.L.y.w.[ l l . .           ",
"                  . . . . . . % Z Z >.w.a.C.C.x.g.I._._.].].].].]._._.M.g.1.E E C.C.f.w.w.R E 2.w.r.l.l.,.=.S h h . .           ",
"                          . . . . . / w.w.w.w...} 4.L.L.].].].]./.L.L.*.} P l l w.w.w.w.2.l l =.w.6.}  .z l 8 . . . .           ",
"                          . . . . . / w.w.w.w...} 4.L.L.].].].]._.L.L.*.} P l l w.w.w.w.3.l l =.w.6.} } M l 8 . . . .           ",
"                                . . + = t ....} } ..X.X.$.$.$.$.{ V V N M J ] ] ....c * * O O $ * * % % O O o . .               ",
"                                . . . . < } } } } } } } } } } } E l l l l J } } } } p . . . . . . . . . . . . . .               ",
"                                . . . . $ v v v v A P P } } } } ] J J z l n v v v v q . . . . . . . . . . . . . .               ",
"                                    . . . . . . . 8 l l } } } } } } } N l e . . . . . . .                                       ",
"                                    . . . . . . . 8 l l } } } } } } } J l e . . . . . . .                                       ",
"                                              . . . . . . . . . . . . . . . . .                                                 ",
"                                              . . . . . . . . . . . . . . . . .                                                 ",
"                                                                                                                                ",
"                                                                                                                                ",
"                                                                                                                                ",
"                                                                                                                                ",
"                                                                                                                                ",
"                                                                                                                                ",
"                                                                                                                                ",
"                                                                                                                                ",
"                                                                                                                                ",
"                                                                                                                                ",
"                                                                                                                                ",
"                                                                                                                                "
};
