/* XPM */
static char *_daaee9cff3d41c3d102768fa2a725c5hz3TNfkGTN5VKUEb[] = {
/* columns rows colors chars-per-pixel */
"64 64 219 2 ",
"   c None",
".  c black",
"X  c #090101",
"o  c #0C0202",
"O  c #0B0204",
"+  c #0D0407",
"@  c #130007",
"#  c #170005",
"$  c #160407",
"%  c #170407",
"&  c #10070A",
"*  c #190008",
"=  c #1A000A",
"-  c #1B000A",
";  c #1C090E",
":  c #1D0B11",
">  c #1F0E14",
",  c #250606",
"<  c #260606",
"1  c #2D080E",
"2  c #3E0A0A",
"3  c #290D15",
"4  c #300A11",
"5  c #340D12",
"6  c #320D15",
"7  c #341019",
"8  c #35121B",
"9  c #37121C",
"0  c #37121D",
"q  c #391420",
"w  c #391520",
"e  c #3E1C29",
"r  c #333233",
"t  c #4A0C0C",
"y  c #440C15",
"u  c #4F0E19",
"i  c #5A0014",
"p  c #5A101C",
"a  c #6D0E13",
"s  c #780C16",
"d  c #631010",
"f  c #491F2D",
"g  c #531B2B",
"h  c #651A2B",
"j  c #711424",
"k  c #710731",
"l  c #6A1F32",
"z  c #4D2334",
"x  c #562031",
"c  c #5C2A3D",
"v  c #5C2A3E",
"b  c #4E313D",
"n  c #612032",
"m  c #6F2439",
"M  c #403F40",
"N  c #82161F",
"B  c #87182B",
"V  c #860033",
"C  c #9E1C32",
"Z  c #B50029",
"A  c #BE0334",
"S  c #BF123B",
"D  c #912535",
"F  c #B52039",
"G  c #C10F3C",
"H  c #800C42",
"J  c #801A4A",
"K  c #AD0D4A",
"L  c #8B2D47",
"P  c #8B2D48",
"I  c #972740",
"U  c #A72C46",
"Y  c #BF2A48",
"T  c #BE304D",
"R  c #A73756",
"E  c #AA3B5C",
"W  c #B33B5C",
"Q  c #C90042",
"!  c #CA0043",
"~  c #CE084C",
"^  c #D2004D",
"/  c #D0094C",
"(  c #D60052",
")  c #D50A51",
"_  c #C51558",
"`  c #CE135B",
"'  c #E0065E",
"]  c #C42F4F",
"[  c #CE2A57",
"{  c #C93456",
"}  c #C23C5E",
"|  c #CE395D",
" . c #CE395E",
".. c #D81260",
"X. c #D81667",
"o. c #E10960",
"O. c #E30F61",
"+. c #ED0F6F",
"@. c #E81067",
"#. c #ED126D",
"$. c #ED126E",
"%. c #EF0F71",
"&. c #EF0F72",
"*. c #F21175",
"=. c #FB167F",
"-. c #CE3E62",
";. c #D43E64",
":. c #D63B69",
">. c #E1256A",
",. c #984464",
"<. c #9A4667",
"1. c #A44767",
"2. c #B94366",
"3. c #B3577D",
"4. c #C24065",
"5. c #C5446B",
"6. c #D04267",
"7. c #D6446A",
"8. c #D9406A",
"9. c #D84A72",
"0. c #DE4973",
"q. c #E14E79",
"w. c #E2507B",
"e. c #E3517D",
"r. c #E2527E",
"t. c #E4537F",
"y. c #FF1884",
"u. c #FF3494",
"i. c #807D80",
"p. c #E45380",
"a. c #E25480",
"s. c #E25481",
"d. c #E75885",
"f. c #E75886",
"g. c #E75D8A",
"h. c #EA5D8C",
"j. c #FA4F99",
"k. c #D86390",
"l. c #D86391",
"z. c #E1608B",
"x. c #E36791",
"c. c #E76490",
"v. c #E46592",
"b. c #EA6290",
"n. c #ED6292",
"m. c #EE6292",
"M. c #EA6492",
"N. c #EA6796",
"B. c #EC6896",
"V. c #EA6A9B",
"C. c #E96F9B",
"Z. c #F06798",
"A. c #F46C9E",
"S. c #F46C9F",
"D. c #E371A0",
"F. c #E373A4",
"G. c #ED76A3",
"H. c #EC75A7",
"J. c #F771A5",
"K. c #F572A6",
"L. c #F875A9",
"P. c #F977AB",
"I. c #F877AC",
"U. c #F07AAE",
"Y. c #F27AAE",
"T. c #F57DAD",
"R. c #F67EAF",
"E. c #FA7DB1",
"W. c #F97DB3",
"Q. c #E880B4",
"!. c #F780B1",
"~. c #F380B6",
"^. c #F381B6",
"/. c #FA81B4",
"(. c #FB80B5",
"). c #FB81B5",
"_. c #F981B7",
"`. c #F686BC",
"'. c #FA83BA",
"]. c #FB85BB",
"[. c #FC85B9",
"{. c #FC86BA",
"}. c #FA86BE",
"|. c #FB89BB",
" X c #FD89BD",
".X c #F78BC3",
"XX c #FB89C1",
"oX c #F98BC2",
"OX c #FC8BC2",
"+X c #FD8CC1",
"@X c #FE8EC2",
"#X c #F88EC6",
"$X c #FC8FC8",
"%X c #FC8FC9",
"&X c #FF92C6",
"*X c #F692CA",
"=X c #FC90C9",
"-X c #FF94C9",
";X c #FC93CC",
":X c #FD93CC",
">X c #FF96CC",
",X c #FD95CF",
"<X c #FF98CF",
"1X c #FB97D1",
"2X c #FD95D0",
"3X c #FD96D0",
"4X c #FD99D3",
"5X c #FF9AD2",
"6X c #FF9BD4",
"7X c #FF9CD5",
"8X c #FE9CD7",
"9X c #FF9DD7",
"0X c #FF9ED8",
"qX c #FF9FDA",
"wX c #FFA0DB",
"eX c #FFA1DD",
"rX c #FFA2DE",
"tX c #FFDFEF",
"yX c #FFFBFF",
/* pixels */
"                                                                                                                                ",
"                                                                                                                                ",
"                                                                                                                                ",
"                                                                                                                                ",
"                                                                                                                                ",
"                                                                                                                                ",
"                                                                                                                                ",
"                                                                                                                                ",
"                                                                                                                                ",
"                                                                                                                                ",
"                                                                                                                                ",
"                                                                                                                                ",
"                              . . . . . . .     . . . . . . . . . . . . . . . . .                                               ",
"                              . . . . . . .     . . . . . . . . . . . . . . . . .                                               ",
"                          . r i.i.J H k i i . . . . O p p m m m m m m m h p u . . . . . . .                                     ",
"                        . . M yXyXu.y.O.Z Z . . . . % F F 6.0.0.0.0.0.0.{ F C . . . . . . .                                     ",
"                        @ - b tXtXu.y.@.A A ; ; ; > 8 Y T 9.s.s.s.s.r.s.6.T U > 3 : : + . .                                     ",
"                    . . V ( ' y.y.y.y.y.y.y.0.0.n.J.P.rXrXrXrXrXrXrXrXrXrXrX8XJ.K.f.0.R . . . . .                               ",
"                    . . V ( ( y.y.y.y.y.y.y.0.0.n.J.I.rXrXrXrXrXrXrXrXrXrXrX8XJ.K.d.0.R . . . . .                               ",
"                . X 2 2 K &.=.y.y.) / >.j.j.^.^.oX;X;XrXrXrXrXrXrXrXrXrXrXrX0X;X$X`.^.F.<.,.& . . . .                           ",
"              . . o d d _ y.y.y.y.A Z [ J.J.rXrXrXrXrXrXrXrXrXrXrXrXrXrXrXrXrXrXrXrXrX,XJ.J.> . . . .                           ",
"              . . o s s ` y.=.$.$.G S :.W.W.rXrXrXrXrXrXrXrXrXrXrXrXrXrXrXrXrXrXrXrXrX1XW.W.f 0 3 . .                           ",
"              . . # Z Z O.y.$.Z Z 8.0.V.rXrXrXrXrXrXrXrXrXrXrXrXrXrXrXrXrXrXrXrXrXrXrXrXrXrXs.0.L . .                           ",
"              . . # Z Z O.y.$.Z Z 8.0.V.rXrXrXrXrXrXrXrXrXrXrXrXrXrXrXrXrXrXrXrXrXrXrXrXrXrXs.0.L . .                           ",
"              . . - ^ ^ $.y.X.a a z.S.'.rXrXrXrXrXrXrXrXrXrXrXrXrXrXrXrXrXrXrXrXrXrXrXrXrXrXJ.S.,.. . . .                       ",
"              . . - ( ( &.y.X.d d v.J.'.rXrXrXrXrXrXrXrXrXrXrXrXrXrXrXrXrXrXrXrXrXrXrXrXrXrXI.J.,.. . . .                       ",
"              . . - ! ! ' &...N N H.'.$XrXrXrXrXrXrXrXrXrXrXrXrXrXrXrXrXrXrXrXrXrXrXrXrXrXrXXX'.3.y y . .                       ",
"              . . # Z Z ! ( ~ F F *XrXrXrXrXrXrXrXrXrXrXrXrXrXrXrXrXrXrXrXrXrXrXrXrXrXrXrXrXrXrXD.F F . .                       ",
"              . . # Z Z ! ( ~ F F *XrXrXrXrXrXrXrXrXrXrXrXrXrXrXrXrXrXrXrXrXrXrXrXrXrXrXrXrXrXrXD.F F . .                       ",
"                    . . . . 0 0.0.1XrXrXrXrXrXrXrXrXrXrXrXrXrXrXrXrXrXrXrXrXrXrXrXrXrXrXrXrXrXrX^.0.0.. .                       ",
"                    . . . . 0 0.0.1XrXrXrXrXrXrXrXrXrXrXrXrXrXrXrXrXrXrXrXrXrXrXrXrXrXrXrXrXrXrX^.0.0.. .                       ",
"                        . . 0 0.0.1XrXrXrXrXrXrXrXrXrXrXrXrXrXrXrXrXrXrXrXrXrXrXrXrXrXrXrXrXrXrX^.0.0.. .                       ",
"                        . . 9 0.0.1XrXrXrXrXrXrXrXrXrXrXrXrXrXrXrXrXrXrXrXrXrXrXrXrXrXrXrXrXrXrX^.0.0.. .                       ",
"                        . . 9 0.0.1XrXrXrXrXrXrXrXrXrXrXrXrXrXrXrXrXrXrXrXrXrXrXrXrXrXrXrXrXrXrX^.0.0.. .                       ",
"                        . . 9 0.0.1XrXrXrXrXrXrXrXrXrXrXrXrXrXrXrXrXrXrXrXrXrXrXrXrXrXrXrXrXrXrX^.0.0.. .                       ",
"                        . . 9 9.0.1XrXrXrXrXrXrXrXrXrXrXrXrXrXrXrXrXrXrXrXrXrXrXrXrXrXrXrXrXrXrX^.0.0.. .                       ",
"                        . . 4 Y Y *XrXrXrXrXrXrXrXrXrXrXrXrXrXrXrXrXrXrXrXrXrXrXrXrXrXrXrXrX3X>XC.Y ] . .                       ",
"                        . . 3 S S *XrXrXrXrXrXrXrXrXrXrXrXrXrXrXrXrXrXrXrXrXrXrXrXwXrXrXrXrX-X&Xk.S F . .                       ",
"                        . . % j j Q.*X<XrXrX6X6XqXrXrXrXrXrXrXrXrXrXrXrXrXrXrXrXrXwX6X6X8X8X{.[.x.] ] . . .                     ",
"                        . . . . . k.J.`.rXrX-X-X6XrXrXrXrXrXrXrXrXrXrXrXrXrXrXrXrX<X&X&X&X&XP.J.B.q.0.. . . . .                 ",
"                        . . . . . k.J.{.rXrX&X&X6XrXrXrXrXrXrXrXrXrXrXrXrXrXrXrXrX5X&X&X&X&XL.J.n.0.0.. . . . .                 ",
"                              . . 5.w.B.-X-XwX0XrXrXrXrXrXrXrX0X-X-XwXrX6X-X-X-X-XW.L.P.L.P.e.q.b.|.|.l.l.z . .                 ",
"                              . . 4.0.M.&X&XrXrXrXrXrXrXrXrXrX6X&X&XwXrX5X&X&X&X&XE.J.J.J.J.q.0.M.&X&XJ.J.c . .                 ",
"                              . . n m 1././.rXrXrXrXrXrXrXrXrX0X&X&XoXoX[.(./././.P.J.J.J.J.q.0.N.5X5XJ.J.c . .                 ",
"                              . . . X m J.J.rXrXrXrXrXrXrXrXrX6X&X&XL.J.J.J.J.J.J.J.J.J.J.J.q.0.V.rXrXJ.J.c . .                 ",
"                              . . . . M J.J.rXrXrXrXrXrXrXrXrX6X&X&XP.J.J.J.J.J.J.J.J.J.J.J.q.0.V.rXrXJ.J.c . .                 ",
"                                  . . g 0.0.rXrXrXrXrXrXrXrXrX6X&X&Xr.0.h.J.J.J.J.d.0.0.0.0.S.J.'.rXrXJ.J.c . .                 ",
"                                  . . g 0.0.rXrXrXrXrXrXrXrXrX6X&X&Xr.0.h.J.J.J.J.d.0.0.0.0.S.J.'.rXrXJ.J.c . .                 ",
"                                  . . 5 D D '.'.3XrXrXrXrXrXrX;XE.E.r.0.7.-.} c c E 0.e.n.n./.{.+X<X<Xd.d.x . .                 ",
"                                  . . < d d J.J.$XrXrXrXrXrXrX-XJ.J.q.0.{ F C . . P 0.p.J.J.+X&X&X&X&X0.0.g . .                 ",
"                                  . . < t t g.g.U..X.X>X3X#X.XY.g.g.W R I B j . . m R 2.Z.Z.T./.T.G.G.R R 0 . .                 ",
"                                        . . F F  .0.q.J.J.e.0. .F F % . . . . . . . . 0 0.0.0.0. .F F . . . . .                 ",
"                                        . . F F  .0.q.J.J.p.0. .F F % . . . . . . . . 0 0.0.0.0. .F F . . . . .                 ",
"                                            1 1 7 0 w e e w 0 6 1 1                     0 0 0 0 6 1 1 . . .                     ",
"                                            . . . . . . . . . . . .                     . . . . . . . . .                       ",
"                                            . . . . . . . . . . . .                     . . . . . . . . .                       ",
"                                                                                                                                ",
"                                                                                                                                ",
"                                                                                                                                ",
"                                                                                                                                ",
"                                                                                                                                ",
"                                                                                                                                ",
"                                                                                                                                ",
"                                                                                                                                "
};
