/* XPM */
static char *d394259021ba4482a211e79374bae54aZXSCo8qj940kWR51[] = {
/* columns rows colors chars-per-pixel */
"64 64 167 2 ",
"   c None",
".  c black",
"X  c #0C0202",
"o  c #150306",
"O  c #190404",
"+  c #1B000A",
"@  c #1C090E",
"#  c #1F0D13",
"$  c #101010",
"%  c #240307",
"&  c #22060A",
"*  c #2D080E",
"=  c #2D000A",
"-  c #310808",
";  c #3D000E",
":  c #300D13",
">  c #3D0B12",
",  c #37121C",
"<  c #201F20",
"1  c #44000F",
"2  c #560E0E",
"3  c #440613",
"4  c #5A0014",
"5  c #6E0E13",
"6  c #73051A",
"7  c #631010",
"8  c #72171C",
"9  c #4A1624",
"0  c #531B2C",
"q  c #651227",
"w  c #711424",
"e  c #781A25",
"r  c #5C2A3E",
"t  c #592538",
"y  c #642134",
"u  c #6F2439",
"i  c #7C2940",
"p  c #6C3148",
"a  c #74344C",
"s  c #7B3852",
"d  c #88001E",
"f  c #820A19",
"g  c #8B081D",
"h  c #87001F",
"j  c #81161F",
"k  c #9E0024",
"l  c #920225",
"z  c #8C1824",
"x  c #821E29",
"c  c #89192B",
"v  c #9E1C32",
"b  c #A00423",
"n  c #A80628",
"m  c #B50029",
"M  c #B9002E",
"N  c #B5082D",
"B  c #B00127",
"V  c #A01C2F",
"C  c #AA0639",
"Z  c #BE0234",
"A  c #B40537",
"S  c #AB1E34",
"D  c #BF123B",
"F  c #BA1538",
"G  c #882835",
"H  c #83283F",
"J  c #942637",
"K  c #B52039",
"L  c #C4013B",
"P  c #BB0543",
"I  c #B81F53",
"U  c #8B2E47",
"Y  c #9B2B46",
"T  c #80314A",
"R  c #9A3447",
"E  c #A02C42",
"W  c #A92641",
"Q  c #B22944",
"!  c #BE2A46",
"~  c #B62F4A",
"^  c #A73756",
"/  c #A53C56",
"(  c #BF3B5A",
")  c #CA0043",
"_  c #D60052",
"`  c #DB0358",
"'  c #C41558",
"]  c #C9244E",
"[  c #C42F4F",
"{  c #C93456",
"}  c #CF395D",
"|  c #D81667",
" . c #EB136D",
".. c #EE1374",
"X. c #F41276",
"o. c #F51278",
"O. c #CE3E62",
"+. c #D43E64",
"@. c #D73473",
"#. c #E13F7D",
"$. c #9F425F",
"%. c #AD405A",
"&. c #BA495B",
"*. c #BA4C71",
"=. c #B94F72",
"-. c #CE4166",
";. c #C04D6D",
":. c #C34466",
">. c #D6486F",
",. c #D6476E",
"<. c #C7576A",
"1. c #C44C70",
"2. c #DE4973",
"3. c #D05177",
"4. c #C65477",
"5. c #E14E79",
"6. c #E4537F",
"7. c #FF1884",
"8. c #FD2E8C",
"9. c #FE3892",
"0. c #DE5985",
"q. c #E54283",
"w. c #E75886",
"e. c #E65E8C",
"r. c #EA5E8C",
"t. c #E25481",
"y. c #FC4999",
"u. c #C46182",
"i. c #D86391",
"p. c #E2618B",
"a. c #E46492",
"s. c #ED6292",
"d. c #EB6A9B",
"f. c #F16798",
"g. c #F36C9E",
"h. c #EE75A8",
"j. c #EC75A7",
"k. c #F771A5",
"l. c #F877AC",
"z. c #F979AD",
"x. c #F078AC",
"c. c #F97DB2",
"v. c #9F9D9F",
"b. c #B18587",
"n. c #E881B4",
"m. c #FA81B3",
"M. c #FB85BB",
"N. c #FD89BD",
"B. c #F78CC3",
"V. c #FC8BC2",
"C. c #FC8FC8",
"Z. c #EC90C4",
"A. c #FF92C6",
"S. c #F692CA",
"D. c #FE95CB",
"F. c #FF98CF",
"G. c #FB97D1",
"H. c #FE9BD5",
"J. c #FF9ED9",
"K. c #F59ED3",
"L. c #FFA2DE",
"P. c #FDA1D4",
"I. c #FFADE2",
"U. c #D8C0C3",
"Y. c #F7CFDC",
"T. c #FADCE9",
"R. c #FFFBFF",
/* pixels */
"                                                                                                                                ",
"                                                                                                                                ",
"                                                                                                                                ",
"                                                                                                                                ",
"                                                                                                                                ",
"                                                                                                                                ",
"                                                                                                                                ",
"                                                                                                                                ",
"                                                                                                                                ",
"                                            . . . . . . . . . . . . . . . . .                                                   ",
"                                            . . . . . . . . . . . . . . . . .                                                   ",
"                                        . . . . & c c R ^ ^ ^ ^ ^ ^ Y c e . . . . . . .                                         ",
"                                        . . . . : F K -.2.2.2.2.2.2.{ K v . . . . . . .                                         ",
"                                        0 0 t r a 3.3.a.d.d.d.d.d.d.0.3.1.r r 0 0 , . .                                         ",
"                              . . . . . 2.2.s.k.c.L.I.L.L.L.L.L.L.L.L.L.J.k.k.6.5.^ . . . . .                                   ",
"                              . . . . . 2.2.s.k.c.L.L.L.L.L.L.L.L.L.L.L.J.k.k.t.2.^ . . . . .                                   ",
"                          . . . . p i.i.G.G.G.J.J.L.L.L.L.L.L.L.L.L.L.L.L.H.J.G.G.B.i.i.# . . . .                               ",
"                          . . . . s k.k.L.L.L.L.L.L.L.L.L.L.L.L.L.L.L.L.L.L.L.L.J.G.k.k.# . . . .                               ",
"                          . . y u =.C.B.L.L.L.L.L.L.L.L.L.L.L.L.L.L.L.L.L.L.L.L.L.J.B.V.T u , . . . .                           ",
"                          . . :.2.h.I.J.L.L.L.L.L.L.L.L.L.L.L.L.L.L.L.L.L.L.L.J.L.L.J.I.w.2.u . . . .                           ",
"                          . . :.5.x.L.L.L.L.L.L.L.L.L.L.L.L.L.L.L.L.L.L.J.J.L.I.L.L.L.L.w.5.i o o X o                           ",
"                    . . . . . i.k.B.L.L.L.L.L.L.L.L.L.L.L.L.L.L.L.L.G.C.A.A.A.J.L.L.L.L.l.k.>.F K 7 7 & . .                     ",
"                    . . . . . i.k.V.L.L.L.L.L.L.L.L.L.L.L.L.L.L.L.J.H.A.A.A.C.J.L.I.L.L.l.k.>.F K 7 7 % . .                     ",
"                    . . & w w n.C.G.L.L.L.L.L.L.L.L.L.L.L.L.L.L.L.I.J.H.H.A.A.C.G.G.L.L.G.C.a.O.} u.u.$.U y . .                 ",
"                    . . * K K S.L.L.L.L.L.L.L.L.L.L.L.L.L.L.L.L.L.L.L.L.J.C.C.A.C.D.J.L.L.L.h.2.2.A.A.s.2.^ . .                 ",
"                    . . : ! ! G.L.L.L.L.L.L.L.L.L.L.L.L.L.L.L.L.L.L.L.L.L.G.D.V.V.C.I.J.L.L.h.2.2.N.N.d.e.*., ,                 ",
"                    . . , 2.2.G.L.L.L.L.L.L.L.L.L.L.L.L.L.L.L.L.L.L.L.L.L.L.L.c.k.c.L.L.L.L.h.2.2.k.k.C.L.B.2.2., . .           ",
"                    . . , 2.2.G.L.L.L.L.L.L.L.L.L.L.L.L.L.L.L.L.L.L.L.L.L.L.L.c.k.c.L.L.L.L.h.2.2.k.k.C.L.B.2.2., . .           ",
"                    . . , 2.2.G.L.L.L.L.L.L.L.L.L.L.L.L.L.L.L.L.L.L.L.L.J.A.D.r.2.d.L.L.J.I.M.g.g.k.k.A.L.B.2.2., . .           ",
"                    . . , 2.2.G.L.L.L.L.L.L.L.L.L.L.L.L.L.L.L.L.L.L.L.L.L.A.A.w.2.e.L.L.L.J.V.k.k.k.k.C.L.B.2.2., . .           ",
"                    1 1 q 2.2.G.L.L.L.L.L.L.L.L.L.L.L.J.H.J.L.L.L.L.L.H.H.M.M.w.2.e.L.L.L.L.V.k.k.k.k.C.L.B.2.2., . .           ",
"                . . d m L 2.2.P.L.L.L.L.L.L.L.I.L.L.L.G.C.G.L.L.L.L.H.A.N.k.k.t.2.e.L.L.L.L.V.k.k.k.k.C.L.B.2.5., . .           ",
"                . . d m F 2.2.H.L.L.L.L.L.L.L.L.L.L.L.D.A.F.L.L.L.L.H.A.N.k.k.6.5.e.J.L.L.L.B.k.k.k.k.C.L.B.2.2., . .           ",
"          . . . . . d m N K K S.L.L.L.L.L.L.L.L.L.L.L.D.A.A.A.A.A.A.m.k.g.2.2.f.k.c.L.L.L.L.h.2.2.k.k.w.>.^ . . . . .           ",
"          . . . . . d m N K K S.L.L.L.L.L.L.L.L.L.L.L.D.A.A.A.A.A.A.m.k.g.2.2.f.k.c.L.L.L.I.h.2.2.g.k.w.2./ . . . . .           ",
"          . . $ v.v.I ) A j j j.M.C.F.F.L.L.L.L.L.L.L.H.H.C.c.c.z.m.g.w.w.s.s.M.S.D.L.L.M.M.1.J c O.O.U t 9 . . .               ",
"          . . < R.R.5._ P 7 7 a.k.m.A.A.L.L.L.L.L.L.L.L.L.C.k.k.k.k.w.2.6.k.k.D.L.L.L.L.l.k.%.7 7 Q K 3 . . . .                 ",
"          . . < T.T.9.` P 7 7 p.f.c.V.A.P.L.L.L.L.L.L.L.L.A.k.k.m.m.p.-.,.g.g.P.I.K.Z.Z.k.g./ 2 2 V v 3 . . . .                 ",
"          . . + _ _ ..7.| 7 7 -.2.r.k.k.A.A.A.A.D.L.L.D.A.M.k.k.R.R.b.7 8 2.2.Y.R.U.7 7 -.2.u . . . .                           ",
"          . . o _ _ ..7.| 7 7 -.2.r.k.k.A.A.A.A.F.L.L.D.A.M.k.k.R.R.b.7 8 2.2.Y.R.U.7 7 -.2.u . . . .                           ",
"          . . + _ _ X.7. .k k c x &.k.k.z.z.z.z.z.m.c.y.9.@.G G <.<.:.&.&.x x &.<.&.V V 9 , # . .                               ",
"          . . + _ _ X.7. .m m 5 5 / k.k.k.k.k.k.k.k.k.8.7.' 7 7 K K { 2.,.5 7 V S F K K o . . . .                               ",
"          . . o C C ..7.X.L L g f E ;.;.s.s.g.k.k.k.k.y.9.@.R R O.O.>.w.3.R R ~ [ W e w X . . . .                               ",
"          . . X 7 7 | 7.X._ _ m M g 7 7 2.2.s.k.k.k.k.k.k.k.k.k.k.k.k.k.k.k.k.6.2.^ . . . . .                                   ",
"          . . X 7 7 | 7.o._ _ M m g 7 7 2.2.s.k.k.k.k.k.k.k.k.k.k.k.k.k.k.k.k.6.2.^ . . . . .                                   ",
"                X o l Z L _ _ M m B n n @ @ # # 9 ! ! >.5.5.5.5.5.5.} [ K 8 e : @ @ . .                                         ",
"                . . d m L _ _ M m m m m . . . . : F K +.2.2.2.2.5.2.{ K S 7 7 O . . . .                                         ",
"                . . 1 4 6 L L m m m m m 4 4 % . & z z J E Q ] ] ] ] L S V - - O . . . .                                         ",
"                . . . . = m m m m m m m m m 1 . O 7 7 7 7 f m m m m m m k . .                                                   ",
"                . . . . % k k k k k k k k k ; . o 2 2 2 2 5 k k k k k k h . .                                                   ",
"                    . . . . . . . . . . . .       . . . . . . . . . . . .                                                       ",
"                    . . . . . . . . . . . .       . . . . . . . . . . . .                                                       ",
"                                                                                                                                ",
"                                                                                                                                ",
"                                                                                                                                ",
"                                                                                                                                ",
"                                                                                                                                ",
"                                                                                                                                ",
"                                                                                                                                ",
"                                                                                                                                ",
"                                                                                                                                ",
"                                                                                                                                ",
"                                                                                                                                ",
"                                                                                                                                "
};
