/* XPM */
static char *result[] = {
/* columns rows colors chars-per-pixel */
"64 64 168 2 ",
"   c black",
".  c #0D0202",
"X  c #150105",
"o  c #190206",
"O  c #1A000A",
"+  c #1C090E",
"@  c #1F0E14",
"#  c #2D080E",
"$  c #380A12",
"%  c #20141C",
"&  c #37121C",
"*  c #3E1C29",
"=  c #430C15",
"-  c #4E0E18",
";  c #5A0014",
":  c #50001E",
">  c #5A101C",
",  c #631010",
"<  c #580825",
"1  c #531B2B",
"2  c #5F1523",
"3  c #661220",
"4  c #711424",
"5  c #781C2E",
"6  c #600931",
"7  c #402837",
"8  c #5C2A3E",
"9  c #512A36",
"0  c #6F2439",
"q  c #612032",
"w  c #603D53",
"e  c #7B3952",
"r  c #96061F",
"t  c #9E0024",
"y  c #961A29",
"u  c #8C1D31",
"i  c #9E1C31",
"p  c #88182B",
"a  c #B50029",
"s  c #BD0033",
"d  c #AA1E35",
"f  c #83253B",
"g  c #88253B",
"h  c #A42139",
"j  c #B52039",
"k  c #C10038",
"l  c #B90442",
"z  c #BA1B4F",
"x  c #8B2E47",
"c  c #8B2D48",
"v  c #9B2142",
"b  c #8A3444",
"n  c #9A3854",
"m  c #A82641",
"M  c #BA2540",
"N  c #BE2A46",
"B  c #BF2C49",
"V  c #BE304E",
"C  c #A73756",
"Z  c #A23E5B",
"A  c #BF3B5A",
"S  c #B23759",
"D  c #CE0048",
"F  c #D1094B",
"G  c #CD0F5D",
"H  c #D60052",
"J  c #DB0358",
"K  c #DA0B5D",
"L  c #D8125A",
"P  c #D91B5E",
"I  c #E0065E",
"U  c #C42F4F",
"Y  c #D4295C",
"T  c #C63353",
"R  c #CC3A5D",
"E  c #DE1B66",
"W  c #D11062",
"Q  c #DF1574",
"!  c #ED126E",
"~  c #EF0F71",
"^  c #EE1573",
"/  c #F51277",
"(  c #F8157C",
")  c #DA2462",
"_  c #CE3E62",
"`  c #D43760",
"'  c #DD356C",
"]  c #D43F64",
"[  c #EA3779",
"{  c #E6387B",
"}  c #8A4B4B",
"|  c #9A4667",
" . c #80516F",
".. c #8E5272",
"X. c #B64164",
"o. c #B9557C",
"O. c #A8516F",
"+. c #C2415E",
"@. c #C24065",
"#. c #CF476C",
"$. c #D5466B",
"%. c #C7576A",
"&. c #CA556D",
"*. c #D14F74",
"=. c #DE4973",
"-. c #CE5877",
";. c #D15077",
":. c #DE537D",
">. c #D65278",
",. c #E24375",
"<. c #E14E79",
"1. c #E34579",
"2. c #E3537F",
"3. c #FF1884",
"4. c #FE2388",
"5. c #B85C84",
"6. c #BC6791",
"7. c #C75983",
"8. c #EC4486",
"9. c #EA478A",
"0. c #E45481",
"q. c #E65B87",
"w. c #E65E8D",
"e. c #EA5D8C",
"r. c #EC5692",
"t. c #D87298",
"y. c #D66996",
"u. c #EC6392",
"i. c #EC6B9B",
"p. c #F26799",
"a. c #F46C9E",
"s. c #F866A0",
"d. c #F46BA6",
"f. c #E371A0",
"g. c #EC70A1",
"h. c #F771A5",
"j. c #F876AB",
"k. c #F07BAF",
"l. c #FF6EBC",
"z. c #F47DB1",
"x. c #FA7EB1",
"c. c #F08DAE",
"v. c #F481B5",
"b. c #FB81B5",
"n. c #FB84BA",
"m. c #FC89BD",
"M. c #F993BB",
"N. c #F697BC",
"B. c #C5A3A5",
"V. c #F78CC3",
"C. c #FB8CC3",
"Z. c #FC8FC9",
"A. c #FF92C6",
"S. c #F692CA",
"D. c #FF95CB",
"F. c #FF98CF",
"G. c #F89DC4",
"H. c #FC97D1",
"J. c #FF9CD5",
"K. c #FF9ED8",
"L. c #FFA2DE",
"P. c #F8B9D3",
"I. c #F4B0C7",
"U. c #FFADE2",
"Y. c #FFDFEF",
"T. c #FFF0FB",
"R. c #FFFBFF",
"E. c None",
/* pixels */
"E.E.E.E.E.E.E.E.E.E.E.E.E.E.E.E.E.E.E.E.E.E.E.E.E.E.E.E.E.E.E.E.E.E.E.E.E.E.E.E.E.E.E.E.E.E.E.E.E.E.E.E.E.E.E.E.E.E.E.E.E.E.E.E.",
"E.E.E.E.E.E.E.E.E.E.E.E.E.E.E.E.E.E.E.E.E.E.E.E.E.E.E.E.E.E.E.E.E.E.E.E.E.E.E.E.E.E.E.E.E.E.E.E.E.E.E.E.E.E.E.E.E.E.E.E.E.E.E.E.",
"E.E.E.E.E.E.E.E.E.E.E.E.E.E.E.E.E.E.E.E.E.E.E.E.E.E.E.E.E.E.E.E.E.E.E.E.E.E.E.E.E.E.E.E.E.E.E.E.E.E.E.E.E.E.E.E.E.E.E.E.E.E.E.E.",
"E.E.E.E.E.E.E.E.E.E.E.E.E.E.E.E.E.E.E.E.E.E.E.E.E.E.E.E.E.E.E.E.E.E.E.E.E.E.E.E.E.E.E.E.E.E.E.E.E.E.E.E.E.E.E.E.E.E.E.E.E.E.E.E.",
"E.E.E.E.E.E.E.E.E.E.E.E.E.E.E.E.E.E.E.E.E.E.E.E.E.E.E.E.E.E.E.E.E.E.E.E.E.E.E.E.E.E.E.E.E.E.E.E.E.E.E.E.E.E.E.E.E.E.E.E.E.E.E.E.",
"E.E.E.E.E.E.E.E.E.E.E.E.E.E.E.E.E.E.E.E.E.E.E.E.E.E.E.E.E.E.E.E.E.E.E.E.E.E.E.E.E.E.E.E.E.E.E.E.E.E.E.E.E.E.E.E.E.E.E.E.E.E.E.E.",
"E.E.E.E.E.E.E.E.E.E.E.E.E.E.E.E.E.E.E.E.E.E.E.E.E.E.E.E.E.E.E.E.E.E.E.E.E.E.E.E.E.E.E.E.E.E.E.E.E.E.E.E.E.E.E.E.E.E.E.E.E.E.E.E.",
"E.E.E.E.E.E.E.E.E.E.E.E.E.E.E.E.E.E.E.E.E.E.E.E.E.E.E.E.E.E.E.E.E.E.E.E.E.E.E.E.E.E.E.E.E.E.E.E.E.E.E.E.E.E.E.E.E.E.E.E.E.E.E.E.",
"E.E.E.E.E.E.E.E.E.E.E.E.E.E.E.E.E.E.E.E.E.E.E.E.E.E.E.E.E.E.E.E.E.E.E.E.E.E.E.E.E.E.E.E.E.E.E.E.E.E.E.E.E.E.E.E.E.E.E.E.E.E.E.E.",
"E.E.E.E.E.E.E.E.E.E.E.E.E.E.E.E.E.E.E.E.E.E.E.E.E.E.E.E.E.E.E.E.E.E.E.E.E.E.E.E.E.E.E.E.E.E.E.E.E.E.E.E.E.E.E.E.E.E.E.E.E.E.E.E.",
"E.E.E.E.E.E.E.E.E.E.E.E.E.E.E.                  E.E.E.E.E.E.E.E.E.E.              E.E.E.E.E.E.E.E.E.E.E.E.E.E.E.E.E.E.E.E.E.E.E.",
"E.E.E.E.E.E.E.E.E.E.E.E.E.E.E.                  E.E.E.E.E.E.E.E.E.E.              E.E.E.E.E.E.E.E.E.E.E.E.E.E.E.E.E.E.E.E.E.E.E.",
"E.E.E.E.E.E.E.E.E.E.E.E.    # j j ' =.=.=.=.j j =                   i j j j j j j =         E.E.E.E.E.E.E.E.E.E.E.E.E.E.E.E.E.E.",
"E.E.E.E.E.E.E.E.E.E.E.E.    # j j $.=.=.=.=.j j =                   i j j j j j j =   .     E.E.E.E.E.E.E.E.E.E.E.E.E.E.E.E.E.E.",
"E.E.E.E.E.E.E.E.E.E.    - 4 g :.:.k.v.v.v.v.f.f.n 4 3     > 4 5 x x y.i.f.f.f.f.f.| c q         E.E.E.E.E.E.E.E.E.E.E.E.E.E.E.E.",
"E.E.E.E.E.E.E.E.E.E.    4 j T h.h.J.U.L.L.L.L.L.;.j i     p j N =.=.H.U.U.K.L.L.U.i.,.C           E.E.E.E.E.E.E.E.E.E.E.E.E.E.E.",
"E.E.E.E.E.E.E.E.E.E.    4 M R j.j.K.L.L.L.L.F.H.;.M d @ @ u M T <.0.H.L.L.L.L.K.L.g.2.X.+ +       E.E.E.E.E.E.E.E.E.E.E.E.E.E.E.",
"E.E.E.E.E.E.E.E.E.E.    c =.w.L.L.L.L.L.L.L.=.=.=.=.:.d.h.0.=.q.Z.Z.L.L.L.L.L.U.L.L.L.V.=.=.&         E.E.E.E.E.E.E.E.E.E.E.E.E.",
"E.E.E.E.E.E.E.E.E.E.    c =.w.L.L.L.L.L.L.L.=.=.=.=.=.h.h.0.=.q.A.A.K.L.L.L.U.K.L.L.L.V.=.=.&         E.E.E.E.E.E.E.E.E.E.E.E.E.",
"E.E.E.E.E.E.E.E.E.E.    c =.w.D.F.L.L.V.w.q.i.i.z.V.Z.H.H.q.=.w.K.K.L.L.L.L.L.L.L.L.L.D.p.p.7.o.e         E.E.E.E.E.E.E.E.E.E.E.",
"E.E.E.E.E.E.E.E.E.E.    x =.q.A.A.K.U.z.=.=.h.h.Z.L.L.L.L.w.=.w.L.U.K.L.L.L.L.L.L.L.L.H.h.h.h.h.|           E.E.E.E.E.E.E.E.E.E.",
"E.E.E.E.E.E.E.E.E.E.    0 R =.m.n.H.H.z.=.=.n.n.H.L.L.L.L.w.=.w.J.J.L.L.L.L.L.L.L.K.K.D.x.x.b.n.5.1 1       E.E.E.E.E.E.E.E.E.E.",
"E.E.E.E.E.E.E.E.E.E.    4 j T h.h.Z.A.j.=.=.K.U.L.L.L.L.L.w.=.q.A.A.K.L.L.L.L.L.L.H.A.A.A.A.K.L.v.=.=.      E.E.E.E.E.E.E.E.E.E.",
"E.E.E.E.E.E.E.E.E.E.  . 4 j T h.h.C.A.d.=.=.L.L.L.K.U.L.L.w.=.q.A.Z.K.L.L.L.L.L.L.D.A.A.A.A.K.L.v.=.=.      E.E.E.E.E.E.E.E.E.E.",
"E.E.E.E.E.E.E.E.E.E.E.E.X X = B N U B #.p.a.L.L.L.L.L.L.L.Z.n.j.0.0.m.A.D.D.A.D.A.A.A.D.L.L.L.L.C.a.a.          E.E.E.E.E.E.E.E.",
"E.E.E.E.E.E.E.E.E.E.E.E.    # j j j j R h.h.L.L.L.L.L.L.L.H.A.x.=.=.m.A.A.A.A.A.A.A.A.H.L.L.L.L.Z.h.h.          E.E.E.E.E.E.E.E.",
"E.E.E.E.E.E.E.E.E.E.E.E.    o > > d j #.C.C.L.L.L.K.L.L.L.J.H.Z.i.i.x.b.b.b.b.A.Z.D.H.K.L.L.L.L.J.C.C.> > #     E.E.E.E.E.E.E.E.",
"E.E.E.E.E.E.E.E.E.E.E.E.          i j ;.L.L.L.L.L.U.L.L.L.L.L.K.A.A.j.h.h.h.h.A.Z.H.U.L.L.L.L.L.U.K.L.j j >     E.E.E.E.E.E.E.E.",
"E.E.E.E.E.E.E.E.E.E.E.E.          i j ;.L.L.L.L.L.L.L.L.L.L.L.L.Z.Z.j.d.h.h.h.A.Z.K.L.L.L.L.L.L.K.L.L.j j >     E.E.E.E.E.E.E.E.",
"E.E.E.E.E.E.E.E.E.E.E.E.E.E.E.    @.=.i.L.L.L.L.L.L.L.L.L.L.L.L.L.K.U.L.L.L.L.L.L.L.L.L.L.L.L.L.L.L.L.=.=.0     E.E.E.E.E.E.E.E.",
"E.E.E.E.E.E.E.E.E.E.E.E.E.E.E.    @.=.i.L.L.L.L.L.U.L.L.L.L.L.L.L.L.U.K.L.L.L.L.L.L.L.L.L.L.L.L.L.L.L.=.=.0     E.E.E.E.E.E.E.E.",
"E.E.E.E.E.E.E.E.E.E.E.E.E.E.E.    @.=.i.L.L.w w 6.x.n.L.L. .w ..n.n.K.L.L.L.L.L.L.L.L.L.L.L.L.L.L.L.L.=.=.0     E.E.E.E.E.E.E.E.",
"E.E.E.E.E.E.E.E.E.E.E.E.E.E.E.    @.=.i.L.L.    | h.j.L.L.7   * h.h.K.L.L.L.L.L.L.L.L.L.L.L.L.L.L.L.L.=.=.0     E.E.E.E.E.E.E.E.",
"E.E.E.E.E.E.E.E.E.E.E.E.E.E.E.    X.=.i.L.L.o o O.M.G.L.L.9 o 9 M.M.L.K.L.L.L.L.L.L.L.L.L.L.L.L.L.L.L.=.=.0     E.E.E.E.E.E.E.E.",
"E.E.E.E.E.E.E.E.E.E.E.E.E.E.E.    @.=.i.L.L., , B.R.T.L.L.b , } R.R.U.U.L.L.L.L.L.L.L.L.L.L.L.L.L.L.L.=.=.0     E.E.E.E.E.E.E.E.",
"E.E.E.E.E.E.E.E.E.E.E.E.E.E.E.    @.=.i.L.L., , B.R.T.L.L.b , } R.R.U.K.L.L.L.L.L.L.L.L.L.L.L.L.L.L.L.=.=.0     E.E.E.E.E.E.E.E.",
"E.E.E.E.E.E.E.E.E.E.E.E.E.E.E.    h B >.D.D.A A &.%.-.L.L.-.A +.%.&.S.L.L.L.L.L.L.L.L.L.L.L.L.L.K.D.D.B U >     E.E.E.E.E.E.E.E.",
"E.E.E.E.E.E.E.E.E.E.E.E.E.E.E.    d j *.A.A.=.=.T j V L.L.w.=._ j j S.L.L.L.L.L.L.L.L.L.L.L.L.L.J.A.A.j j >     E.E.E.E.E.E.E.E.",
"E.E.E.E.E.E.E.E.E.E.E.E.E.E.E.    3 4 Z m.n.[ [ v 4 f L.L.k.u.*.y y d.l.l.l.l.K.J.L.L.L.J.J.K.J.D.n.n.4 4 $     E.E.E.E.E.E.E.E.",
"E.E.E.E.E.E.E.E.E.E.E.E.E.E.E.        8 h.h.3.3.6   % L.L.D.A.t., > ^ 3.3.3.3.Z.A.F.L.L.A.A.A.A.n.h.h.          E.E.E.E.E.E.E.E.",
"E.E.E.E.E.E.E.E.E.E.E.E.E.E.E.        8 h.h.3.3.6   % L.L.D.A.t., , ^ 3.3.3.3.A.A.J.L.K.A.A.A.A.m.h.h.          E.E.E.E.E.E.E.E.",
"E.E.E.E.E.E.E.E.E.E.E.E.E.E.E.E.E.    1 =.=.h.h.n.A.A.A.A.A.A.A.C.A.A.A.A.A.A.A.A.A.A.m.h.h.h.h.u.=.=.      E.E.E.E.E.E.E.E.E.E.",
"E.E.E.E.E.E.E.E.E.E.E.E.E.E.E.E.E.    1 =.=.h.h.n.A.A.A.A.A.A.A.A.A.A.A.A.A.A.A.A.A.A.m.h.h.h.h.u.,.=.      E.E.E.E.E.E.E.E.E.E.",
"E.E.E.E.E.E.E.E.E.E.E.E.E.E.E.E.E.    < ) ) { { p.b.b.b.b.h.i.h.b.b.b.b.b.b.b.i.i.r.9.8.{ { N.P.c.=.=.      E.E.E.E.E.E.E.E.E.E.",
"E.E.E.E.E.E.E.E.E.E.E.E.E.E.E.E.E.    : H H H H 0.h.h.h.h.2.,.0.h.h.h.h.h.h.h.=.=.P H H H H P.R.I.=.=.      E.E.E.E.E.E.E.E.E.E.",
"E.E.E.E.E.E.E.E.E.E.E.E.E.E.E.E.E.o o < J J J J 4.a.h.h.h.q.2.0.h.h.h.h.h.a.a.,.,.E J J J J G.Y.I.,.,.      E.E.E.E.E.E.E.E.E.E.",
"E.E.E.E.E.E.E.E.E.E.E.E.E.E.E.    t a F 3.3.3.3.3.3.4.h.h.h.h.h.h.h.h.h.e.=.=.3.3.3.3.3.3.3.3.3.3.3.3.      E.E.E.E.E.E.E.E.E.E.",
"E.E.E.E.E.E.E.E.E.E.E.E.E.E.E.    t a F 3.3.3.3.3.3.4.h.h.h.h.h.h.h.h.h.e.,.=.3.3.3.3.3.3.3.3.3.3.3.3.      E.E.E.E.E.E.E.E.E.E.",
"E.E.E.E.E.E.E.E.E.E.E.E.E.E.E.    G ! / 3.3.3.3.3.3.3.E E 1.2.2.2.2.2.2.' L L 3.3.3.3.3.3.3.3.3./ I I       E.E.E.E.E.E.E.E.E.E.",
"E.E.E.E.E.E.E.E.E.E.E.E.E.E.E.    Q 3.3.3.3.3.3.3.3.( H H ' =.=.,.=.=.=.) H H 3.3.3.3.3.3.3.3.3.^ H H       E.E.E.E.E.E.E.E.E.E.",
"E.E.E.E.E.E.E.E.E.E.E.E.E.E.E.    W ! / / / / / / / ^ H H Y ` ` ` ` S C z D D / / / / / / / / ! K l l       E.E.E.E.E.E.E.E.E.E.",
"E.E.E.E.E.E.E.E.E.E.E.E.E.E.E.    t a k H H H H H H H H H s a a a a X   ; a a H H H H H H H s a r , ,       E.E.E.E.E.E.E.E.E.E.",
"E.E.E.E.E.E.E.E.E.E.E.E.E.E.E.    t a k H H H H H H H H H s a a a a X   ; a a H H H H H H H s a r , ,       E.E.E.E.E.E.E.E.E.E.",
"E.E.E.E.E.E.E.E.E.E.E.E.E.E.E.E.E.o X o O O O O O O O O O O X X X X E.E.X X X O o O O O O O o X X . . E.E.E.E.E.E.E.E.E.E.E.E.E.",
"E.E.E.E.E.E.E.E.E.E.E.E.E.E.E.E.E.                                  E.E.                              E.E.E.E.E.E.E.E.E.E.E.E.E.",
"E.E.E.E.E.E.E.E.E.E.E.E.E.E.E.E.E.E.                                E.E.E.                            E.E.E.E.E.E.E.E.E.E.E.E.E.",
"E.E.E.E.E.E.E.E.E.E.E.E.E.E.E.E.E.E.E.E.E.E.E.E.E.E.E.E.E.E.E.E.E.E.E.E.E.E.E.E.E.E.E.E.E.E.E.E.E.E.E.E.E.E.E.E.E.E.E.E.E.E.E.E.",
"E.E.E.E.E.E.E.E.E.E.E.E.E.E.E.E.E.E.E.E.E.E.E.E.E.E.E.E.E.E.E.E.E.E.E.E.E.E.E.E.E.E.E.E.E.E.E.E.E.E.E.E.E.E.E.E.E.E.E.E.E.E.E.E.",
"E.E.E.E.E.E.E.E.E.E.E.E.E.E.E.E.E.E.E.E.E.E.E.E.E.E.E.E.E.E.E.E.E.E.E.E.E.E.E.E.E.E.E.E.E.E.E.E.E.E.E.E.E.E.E.E.E.E.E.E.E.E.E.E.",
"E.E.E.E.E.E.E.E.E.E.E.E.E.E.E.E.E.E.E.E.E.E.E.E.E.E.E.E.E.E.E.E.E.E.E.E.E.E.E.E.E.E.E.E.E.E.E.E.E.E.E.E.E.E.E.E.E.E.E.E.E.E.E.E.",
"E.E.E.E.E.E.E.E.E.E.E.E.E.E.E.E.E.E.E.E.E.E.E.E.E.E.E.E.E.E.E.E.E.E.E.E.E.E.E.E.E.E.E.E.E.E.E.E.E.E.E.E.E.E.E.E.E.E.E.E.E.E.E.E.",
"E.E.E.E.E.E.E.E.E.E.E.E.E.E.E.E.E.E.E.E.E.E.E.E.E.E.E.E.E.E.E.E.E.E.E.E.E.E.E.E.E.E.E.E.E.E.E.E.E.E.E.E.E.E.E.E.E.E.E.E.E.E.E.E.",
"E.E.E.E.E.E.E.E.E.E.E.E.E.E.E.E.E.E.E.E.E.E.E.E.E.E.E.E.E.E.E.E.E.E.E.E.E.E.E.E.E.E.E.E.E.E.E.E.E.E.E.E.E.E.E.E.E.E.E.E.E.E.E.E.",
"E.E.E.E.E.E.E.E.E.E.E.E.E.E.E.E.E.E.E.E.E.E.E.E.E.E.E.E.E.E.E.E.E.E.E.E.E.E.E.E.E.E.E.E.E.E.E.E.E.E.E.E.E.E.E.E.E.E.E.E.E.E.E.E."
};
