/* XPM */
static char *bbfadf8472c24ad99e1b4025e353e8b9irrr8bw5EXJemMwq[] = {
/* columns rows colors chars-per-pixel */
"64 64 235 2 ",
"   c None",
".  c black",
"X  c #0C0202",
"o  c #0D0407",
"O  c #130004",
"+  c #160005",
"@  c #16080B",
"#  c #1C090E",
"$  c #1D0B11",
"%  c #1F0E14",
"&  c #1F1016",
"*  c #1F1219",
"=  c #260606",
"-  c #2D080E",
";  c #32000C",
":  c #3C060B",
">  c #310808",
",  c #3E0A0A",
"<  c #310012",
"1  c #350014",
"2  c #44000F",
"3  c #4A0C0C",
"4  c #500D0E",
"5  c #430C15",
"6  c #440C15",
"7  c #490919",
"8  c #540013",
"9  c #5A0014",
"0  c #5A101C",
"q  c #6E0E13",
"w  c #63001F",
"e  c #770C16",
"r  c #710019",
"t  c #631010",
"y  c #6D1215",
"u  c #5C1220",
"i  c #5D1220",
"p  c #531B2B",
"a  c #6B0029",
"s  c #6E012C",
"d  c #700327",
"f  c #7D0029",
"g  c #711424",
"h  c #76192B",
"j  c #760936",
"k  c #780738",
"l  c #7B0B3C",
"z  c #6E1E30",
"x  c #6E1F31",
"c  c #5C2A3E",
"v  c #6F2439",
"b  c #782131",
"n  c #82161F",
"m  c #83042C",
"M  c #8E0A29",
"N  c #9E0024",
"B  c #900C2C",
"V  c #811E28",
"C  c #821E29",
"Z  c #88182B",
"A  c #94102A",
"S  c #961A29",
"D  c #860033",
"F  c #8C1D31",
"G  c #9D133C",
"H  c #B50029",
"J  c #B9002E",
"K  c #A1003D",
"L  c #AA0639",
"P  c #AB0639",
"I  c #AB0A3C",
"U  c #BD0033",
"Y  c #B90C34",
"T  c #B51433",
"R  c #BF123B",
"E  c #BD1C3E",
"W  c #882835",
"Q  c #922239",
"!  c #B52039",
"~  c #C10038",
"^  c #C5003D",
"/  c #800C42",
"(  c #B90442",
")  c #8B2E47",
"_  c #9F2F4B",
"`  c #9D3247",
"'  c #883A55",
"]  c #973E5A",
"[  c #A02C41",
"{  c #BA2540",
"}  c #BF2A47",
"|  c #BE2E4A",
" . c #B5334F",
".. c #B0344E",
"X. c #BE304D",
"o. c #A73756",
"O. c #A53B5A",
"+. c #C70640",
"@. c #C40546",
"#. c #CA0043",
"$. c #C70942",
"%. c #CE0048",
"&. c #CE0749",
"*. c #D2014E",
"=. c #D0094C",
"-. c #C41B44",
";. c #C51C48",
":. c #D60052",
">. c #DB0358",
",. c #DB0958",
"<. c #C9244E",
"1. c #C42F4F",
"2. c #CF2E57",
"3. c #C33352",
"4. c #C73257",
"5. c #C33555",
"6. c #C63454",
"7. c #CE395D",
"8. c #CD3C5E",
"9. c #E30761",
"0. c #E50965",
"q. c #E60964",
"w. c #ED126D",
"e. c #EF0F71",
"r. c #E81970",
"t. c #F51277",
"y. c #F61579",
"u. c #FA157E",
"i. c #C92963",
"p. c #CE3E62",
"a. c #D43E64",
"s. c #9D4054",
"d. c #A34358",
"f. c #9A4667",
"g. c #BF4C6D",
"h. c #B9547C",
"j. c #9D6869",
"k. c #C74162",
"l. c #CB4164",
"z. c #C04D6D",
"x. c #CF486D",
"c. c #D24166",
"v. c #D7466D",
"b. c #D9446C",
"n. c #DE4677",
"m. c #DE4973",
"M. c #C45678",
"N. c #D15077",
"B. c #D3537B",
"V. c #DE537D",
"C. c #E14E79",
"Z. c #E4537F",
"A. c #FF1884",
"S. c #FF3494",
"D. c #BB5B82",
"F. c #B85C84",
"G. c #BF6E95",
"H. c #BD6D98",
"J. c #BF77A2",
"K. c #BF7AA7",
"L. c #D25980",
"P. c #E25481",
"I. c #E75586",
"U. c #E75886",
"Y. c #E65B88",
"T. c #E65F8D",
"R. c #E95C8B",
"E. c #DB6690",
"W. c #E36290",
"Q. c #ED6292",
"!. c #EE6292",
"~. c #EF6395",
"^. c #E16D9B",
"/. c #E96998",
"(. c #EA6A9B",
"). c #EE6D9C",
"_. c #F06798",
"`. c #F16798",
"'. c #F46C9F",
"]. c #EE709E",
"[. c #F66FA2",
"{. c #EF71A4",
"}. c #F771A5",
"|. c #F377A7",
" X c #F873A7",
".X c #F476AC",
"XX c #F875A9",
"oX c #F979AD",
"OX c #FA7BAF",
"+X c #FF6DB2",
"@X c #F37CB0",
"#X c #FA7DB1",
"$X c #F97DB3",
"%X c #F380B6",
"&X c #FB81B5",
"*X c #FA83BA",
"=X c #FC85B9",
"-X c #FC86BA",
";X c #FB87BE",
":X c #FB89BC",
">X c #F989BE",
",X c #F78CC3",
"<X c #FB89C1",
"1X c #FA8AC2",
"2X c #FC8FC3",
"3X c #FE8EC2",
"4X c #F98EC6",
"5X c #FC8CC5",
"6X c #FC8DC6",
"7X c #FC8FC8",
"8X c #FC8FC9",
"9X c #FF92C6",
"0X c #FC90C9",
"qX c #FE91C8",
"wX c #FF94C9",
"eX c #FC93CC",
"rX c #FC93CD",
"tX c #FF96CC",
"yX c #FF98CF",
"uX c #FB97D1",
"iX c #FD96D0",
"pX c #FD99D3",
"aX c #FF9AD2",
"sX c #FE9AD3",
"dX c #FE99D4",
"fX c #FF9CD5",
"gX c #FE9CD7",
"hX c #FF9DD7",
"jX c #FF9ED8",
"kX c #FE9FDA",
"lX c #FF9FDA",
"zX c #FFA0DB",
"xX c #FFA1DD",
"cX c #FFA2DE",
"vX c #FFFBFF",
/* pixels */
"                                                                                                                                ",
"                                                                                                                                ",
"                                                                                                                                ",
"                                                                                                                                ",
"                                                                                                                                ",
"                                                                                                                                ",
"                                                                                                                                ",
"                                                                                                                                ",
"                                          . . . . . . . . . . . .       . . . . . . . . . . . .                                 ",
"                                          . . . . . . . . . . . .       . . . . . . . . . . . .                                 ",
"                                  . . . . 8 9 w a s / / / / j 9 9 O . ; 9 9 a a k / l 9 9 : > = . .                             ",
"                                . . . . . N H ^ :.>.A.A.A.A.w.H H + . 2 H H :.:.e.A.y.H H e t , . .                             ",
"                                . . . . . N H ^ :.>.A.A.A.A.w.H H + . 2 H H :.:.e.A.y.H H e t , . .                             ",
"                            . . 3 t j.vXvXS.A.A.A.u.:.:.~ H H H H q t t t t t t L :.>.A.A.+.H r . .                             ",
"                            . . 3 t j.vXvXS.A.A.A.u.:.:.~ H H H H q t t t t t t P :.>.A.A.+.H r . .                             ",
"                            . . m L i.+X+Xr.0.,.=.&.~ ~ Y T E 2.2. .........S S A M B G G @.#.f . .                             ",
"                            . . K :.0.A.A.>.:.^ H H H H T ! } m.m.m.m.m.m.m.! ! n t t t t ( :.D . .                             ",
"                            . . K :.9.t.t.*.%.$.R R ;.;.4.k.x.T.T.T.T.T.T.T.k.p.` W W V V I ( d . .                             ",
"                            . . K :.:.:.:.J H <.m.C.}.}.7XcXcXcXcXcXcXcXcXcXcXcX*X[.'.m.m.V t , . .                             ",
"                            . . K :.:.:.:.J H <.m.C.}.}.7XcXcXcXcXcXcXcXcXcXcXcX*X X[.m.m.V t , . .                             ",
"                                < 1 w U U n.I.{.,X4XiXiXkXcXcXcXcXcXcXcXcXcXcXcXpXiXeX,X,XE.L.' . . . .                         ",
"                                . . 2 H H ~.}.<XcXcXcXcXcXcXcXcXcXcXcXcXcXcXcXcXcXcXcXcXcX$X}.f.. . . . .                       ",
"                                . . 7 -.-..X*XeXcXcXcXcXcXcXcXcXcXcXcXcXcXcXcXcXcXcXcXcXcX6X*XF.p p o . .                       ",
"                                . . p m.m.uXcXcXcXcXcXcXcXcXcXcXcXcXcXcXcXcXcXcXcXcXcXcXcXcXcX%Xm.m.# . .                       ",
"                                . . p m.m.uXcXcXcXcXcXcXcXcXcXcXcXcXcXcXcXcXcXcXcXcXcXcXcXcXcX%Xm.m.# . .                       ",
"                            . . . . c }.}.gXcXcXcXcXcXcXcXcXcXcXcXcXcXcXcXcXcXcXcXcXcXcXcXcXcX7X}.}.% . . . .                   ",
"                            . . . . c }.}.gXcXcXcXcXcXcXcXcXcXcXcXcXcXcXcXcXcXcXcXcXcXcXcXcXcX7X}.}.% . . . .                   ",
"                            . . 6 0 ] <X<XkXcXcXcXcXcXcXcXcXcXcXcXcXcXcXcXcXcXcXcXcXcXcXcXcXcXdX<X<Xx 0 - . .                   ",
"                            . . Z ! N.cXcXcXcXcXcXcXcXcXcXcXcXcXcXcXcXcXcXcXcXcXcXcXcXcXcXcXcXcXcXcXX.! 0 . .                   ",
"                            . . F { B.cXcXcXcXcXcXcXcXcXcXcXcXcXcXcXcXcXcXcXcXcXcXcXcXcXcXcXcXcXcXcX5.{ i . .                   ",
"                            . . o.m.(.cXcXcXcXcXcXcXcXcXcXcXcXcXcXcXcXcXcXcXcXcXcXcXcXcXcXcXcXcXcXcXP.m.v . .                   ",
"                            . . o.m.(.cXcXcXcXcXcXcXcXcXcXcXcXcXcXcXcXcXcXcXcXcXcXcXcXcXcXcXcXcXcXcXP.m.v . .                   ",
"                            . . o.m.(.cXcXcXcXcXcXcXcXcXcXcXcXcXcXcXcXcXcXcXcXcXcXcXcXcXcXcXcXcXcXcXZ.m.v . .                   ",
"                            . . o.m.(.cXcXcXcXcXcXcXcXcXcXcXcXcXcXcXcXcXcXcXcXcXcXcXcXcXcXcXcXcXcXcXP.m.v . .                   ",
"                            . . _ a.W.cXcXcXcXcXcXcXcXcXcXcXcXcXcXcXcXcXcXcXcXcXcXcXcXcXcXcXcXcXcXcXP.m.v . .                   ",
"                            . . Z ! N.cXcXcXcXcXcXcXcXcXcXcXcXcXcXcXcXcXcXcXcXcXcXcXcXcXcXcXcXcXcXcXP.m.v . .                   ",
"                            . . Z ! N.cXcXcXcXcXcXcXcXcXcXcXcXcXcXcXcXcXcXcXcXcXcXcXcXcXcXcXcXcXcXcXP.C.v . .                   ",
"                            . . 4 y d.wXwXzXcXcXcXcXcXcXcXcXcXcXcXcXcXcXcXcXcXcXcXcXcXcXcXcXcXgXwXwX5.! i . .                   ",
"                            . . 3 t s.9X9XzXcXcXcXcXcXcXzXcXcXcXcXcXcXcXcXcXcXcXcXcXcXcXcXcXcXgX9X9X| ! 0 . .                   ",
"                            . . b [ M.aXaXzXcXcXcXcXaXaXzXcXcXcXcXcXcXcXcXcXcXcXcXcXcXaXaXaXaX9X&X&Xz 0 - . .                   ",
"                            . . o.m.(.cXcXcXcXcXcXzX9X9XgXcXcXcXcXcXcXcXcXcXcXcXcXcXzX9X9X9X9X-X}.}.% . . . .                   ",
"                            . . o.m.(.cXcXcXcXcXcXzX9X9XfXcXcXcXcXcXcXcXcXcXcXcXcXcXzX9X9X9X9X-X}.}.% . . . .                   ",
"                            . . h.}.*XcXcXcXcXcXcXgX}.}.=X9X9X9X9X9X0X9X9X9X9X9X9X9X2X}.}.}.}.Q.m.m.# . .                       ",
"                            . . h.}.*XcXcXcXcXcXcXgX}.}.=X9X9X9X9X9X9X9X9X9X9X9X9X9X2X}.}.}.}.Q.m.m.# . .                       ",
"                            . . H.0XtXcXcXcXcXcXcXgX}.}.oX#X#XOX#X#X#X#X#X#X#X#XOX#XOX}.}.}.}.'.Q.Q.$ . .                       ",
"                            . . K.cXcXcXcXcXcXcXcXgX}.}.}.}.}.}.}.}.}.}.}.}.}.}.}.}.}.}.}.}.}.}. X}.% . .                       ",
"                            . . J.kXzXcXcXcXcXcXcXgX}.}.}.}.}.}.}.}.}.}.}.}.}.}.}.}.}._._.}.}. XoXoX& . .                       ",
"                            . . G.9XyXcXcXcXcXcXcXgX}.}.}.}.}.}.}.}.}.}.}.}.}.}.}.}.'.m.m._.}.OX9X9X* . .                       ",
"                            . . G.9XyXcXcXcXcXcXcXgX}.}. X}.}. X}.}.}.}.}.}.}. X}.}.'.m.m._.}.#X9X9X* . .                       ",
"                            . . D.oX;XcXcXcXcXgXwX9XZ.Z.c.5.7.Z.Z.Z.Z.Z.Z.Z.6.5.v.Z.Z.`._.<XiX6XoXoX% . .                       ",
"                            . . h.}.*XcXcXcXcXaX9X:Xm.m.1.! } m.m.m.m.m.m.m.! ! 7.m.C.}. XiXcX7X}.}.% . .                       ",
"                            . . O.V.(.4X6XaXgX>X|.].7.7.Q g h ) ) ) ) ) ) ) S S l.I.R.#X#X@X%X^.z.z.@ . .                       ",
"                            . . Z ! a.}. X2X9X).m.b.! ! 5 . . . . . . . . . t t g.}.XX9X9XY.m...t t X . .                       ",
"                            . . Z ! p.}.[.2X9X).m.b.! ! 5 . . . . . . . . . t t g.}.XX9X9XY.m...t t X . .                       ",
"                                . . . . . . . . . . . .                 . . . . . . . . . . . . . .                             ",
"                                . . . . . . . . . . . .                 . . . . . . . . . . . . . .                             ",
"                                  . . . . . . . . . . .                 . . . . . . . . . . . . . .                             ",
"                                                                                                                                ",
"                                                                                                                                ",
"                                                                                                                                ",
"                                                                                                                                ",
"                                                                                                                                ",
"                                                                                                                                ",
"                                                                                                                                "
};
