/* XPM */
static char *_cd892b79d90430c819b41b69c49dfddyiUK4MgegNrkLwyt[] = {
/* columns rows colors chars-per-pixel */
"64 64 209 2 ",
"   c None",
".  c black",
"X  c #160407",
"o  c #180404",
"O  c #1A000A",
"+  c #1B090E",
"@  c #1C090E",
"#  c #1D0C11",
"$  c #1F0E15",
"%  c #250606",
"&  c #22060A",
"*  c #28070B",
"=  c #2C050A",
"-  c #28000F",
";  c #2D080E",
":  c #310808",
">  c #2A0D15",
",  c #2A0E15",
"<  c #290D16",
"1  c #350014",
"2  c #300E16",
"3  c #2E151F",
"4  c #2F151F",
"5  c #37121C",
"6  c #37121D",
"7  c #3E1C29",
"8  c #400610",
"9  c #440C15",
"0  c #450C16",
"q  c #50001E",
"w  c #5A101C",
"e  c #710E18",
"r  c #631010",
"t  c #77141A",
"y  c #451724",
"u  c #4C1623",
"i  c #511621",
"p  c #531B2B",
"a  c #6B0029",
"s  c #601D29",
"d  c #711424",
"f  c #7B0131",
"g  c #4D2334",
"h  c #5C2A3E",
"j  c #6F2439",
"k  c #672A3F",
"l  c #5E3044",
"z  c #5F3548",
"x  c #60374A",
"c  c #7A3953",
"v  c #800C20",
"b  c #890C28",
"n  c #87182B",
"m  c #821E29",
"M  c #B50029",
"N  c #A01C2E",
"B  c #882835",
"V  c #852838",
"C  c #96263E",
"Z  c #B52039",
"A  c #C10038",
"S  c #8B2E47",
"D  c #982C46",
"F  c #9A3447",
"G  c #903F44",
"H  c #863B57",
"J  c #913754",
"K  c #BD2A46",
"L  c #BF2A48",
"P  c #BE2E4B",
"I  c #A73756",
"U  c #BF3B5A",
"Y  c #BF1263",
"T  c #BB1861",
"R  c #C90042",
"E  c #CA0042",
"W  c #C51C48",
"Q  c #D60052",
"!  c #D80155",
"~  c #DB0358",
"^  c #CE1C52",
"/  c #D8125A",
"(  c #E0065E",
")  c #CE2A57",
"_  c #D0255B",
"`  c #C63454",
"'  c #DB1160",
"]  c #DB1760",
"[  c #DE1C67",
"{  c #DB1F68",
"}  c #E80A67",
"|  c #EA0C6B",
" . c #E11D6A",
".. c #EF0F71",
"X. c #F51277",
"o. c #F51278",
"O. c #F7147B",
"+. c #FA157D",
"@. c #FA157E",
"#. c #D13764",
"$. c #D63966",
"%. c #E12875",
"&. c #E52F79",
"*. c #E5377E",
"=. c #8A4A4C",
"-. c #9D465D",
";. c #984463",
":. c #9A4666",
">. c #A44A6C",
",. c #B04669",
"<. c #BC4D72",
"1. c #BE5475",
"2. c #B85279",
"3. c #B9547C",
"4. c #B9557C",
"5. c #D6486F",
"6. c #C84E75",
"7. c #DE4677",
"8. c #DE4973",
"9. c #DC4A79",
"0. c #DB5078",
"q. c #DB517A",
"w. c #DE537D",
"e. c #E4537F",
"r. c #FD1680",
"t. c #FB1E82",
"y. c #FF1884",
"u. c #FD2E8C",
"i. c #E53D81",
"p. c #EF3A88",
"a. c #F83691",
"s. c #FE3797",
"d. c #FF3A9A",
"f. c #BB728A",
"g. c #C65E83",
"h. c #EA498C",
"j. c #E15680",
"k. c #E75885",
"l. c #E65B88",
"z. c #E35C8B",
"x. c #EA5D8C",
"c. c #FF439B",
"v. c #C56B91",
"b. c #D86390",
"n. c #D66B98",
"m. c #E36391",
"M. c #ED6292",
"N. c #EA6492",
"B. c #EA6A9B",
"V. c #F16798",
"C. c #F46C9F",
"Z. c #FD4FA5",
"A. c #FF4CA6",
"S. c #FF51A3",
"D. c #D87DAA",
"F. c #F267A6",
"G. c #EE75A8",
"H. c #F771A5",
"J. c #F374A6",
"K. c #F674A7",
"L. c #F776A9",
"P. c #F875A9",
"I. c #F877AC",
"U. c #F979AD",
"Y. c #F27EB3",
"T. c #FA7DB1",
"R. c #F97DB3",
"E. c #F380B6",
"W. c #FB81B5",
"Q. c #F981B7",
"!. c #FA80B8",
"~. c #FA83BA",
"^. c #FC86BA",
"/. c #FD87BB",
"(. c #FB89BC",
"). c #FD89BD",
"_. c #FD8ABE",
"`. c #EF9CBE",
"'. c #F78CC3",
"]. c #FB89C1",
"[. c #FF89C1",
"{. c #FC8AC0",
"}. c #FE8EC2",
"|. c #FE8FC5",
" X c #EF99C3",
".X c #FF92C6",
"XX c #FE94CB",
"oX c #FE95CB",
"OX c #FF93CC",
"+X c #FF96CC",
"@X c #FD95CF",
"#X c #FF98CF",
"$X c #FB97D1",
"%X c #FF9AD2",
"&X c #FC99D4",
"*X c #FF9CD5",
"=X c #FE9CD7",
"-X c #FF9ED8",
";X c #FF9FDA",
":X c #FFA0DB",
">X c #FFA1DD",
",X c #FFA2DE",
"<X c #FFADE2",
"1X c #FFB8E6",
"2X c #D8C0C3",
"3X c #ECC4CE",
"4X c #FFC2E0",
"5X c #FFD9F3",
"6X c #FFFBFF",
/* pixels */
"                                                                                                                                ",
"                                                                                                                                ",
"                                                                                                                                ",
"                                                                                                                                ",
"                                                                                                                                ",
"                                                                                                                                ",
"                                                                                                                                ",
"                                                                                                                                ",
"                                                                                                                                ",
"                                                                                                                                ",
"                                                                                                                                ",
"                                                                                                                                ",
"                                                                                                                                ",
"                                                                                                                                ",
"                                                                                                                                ",
"                                              . . . . . . . . . . . . . . . . .                                                 ",
"                                              . . . . . . . . . . . . . . . . .                                                 ",
"                                              . . X ; ; 5 5 5 5 2 o o * ; & . .                                                 ",
"                  . . . . . . . . . . . . . . . . w Z Z 8.8.8.8.U r r N Z d . . . . . . .                                       ",
"                  . . . . . . . . . . . . . . . . w Z Z 8.8.8.8.U r r N Z d . . . . . . .                                       ",
"            . . . . . I I ,.4.2.I I > . , I I T Y n.3X3Xm m g.'. X2X2XG t V 4.4.I I p . . . .                                   ",
"            . . . . . 8.8.x.H.F.8.8.5 . 6 8.8.u.y.[.6X6Xr r v.,X1X6X6X=.r F H.H.8.8.j . . . .                                   ",
"            . . + p p N.N.J.~.W.B.B.H h c B.N.Z.Z.OX5X5X-.-.D.,X<X5X5Xf.-.1.M.M.B.B.>.h g . . .                                 ",
"            . . p 8.8..X.X#X,X,X,X,XR.H.R.,X,X,X,X,X,X,X,X,X,X,X,X,X,X,X,XE.8.8.,X,X].H.b.. . . . .                             ",
"            . . p 8.8..X.X%X,X,X,X,XR.H.R.,X,X,X,X,X,X,X,X,X,X,X,X,X,X,X,XE.8.8.,X,X].H.b.. . . . .                             ",
"            . . h H.H.,X,X,X,X,X,X,X,X,X,X,X,X,X,X,X,X,X,X,X#X.X.X.X.X.X.X#X,X,X,X,X,X,X$X8.8.5 . . . . . . . . .               ",
"            . . h H.H.,X,X,X,X,X,X,X,X,X,X,X,X,X,X,X,X,X,X,X#X.X.X.X.X.X.X#X,X,X,X,X,X,X$X8.8.5 . . . . . . . . .               ",
"            . . l W.W.,X,X,X,X,X,X,X,X,X,X,X,X,X,X,X,X,X%X%XF.h.h.h.h.h.h.F.%X%X,X,X,X,X&Xx.x.s : 8 a a a a 1 . . . .           ",
"            . . x .X.X,X,X,X,X,X,X,X,X,X,X,X,X,X,X,X,X,X.X.X*.Q Q Q Q Q Q *..X.X,X,X,X,X=XH.H.B r v Q Q Q Q a . . . .           ",
"            . . z }.}.,X,X,X,X,X,X,X,X,X,X,X,X,X,X,X:X;XR.~.i.{ ' ~ ~ ~ ~ &.R.~.:X:X,X,X=XI.I.C e b ~ ~ ~ ~ f O O . .           ",
"            . . h H.H.,X,X,X,X,X,X,X,X,X,X,X,X,X,X%X.X.XQ Q `.6X4Xy.y.y.y...Q Q .X.X%X,X,X,X,X%.Q ( y.y.y.y.| Q Q . .           ",
"            . . h H.H.,X,X,X,X,X,X,X,X,X,X,X,X,X,X%X.X.XQ Q `.6X4Xy.y.y.y...Q Q .X.X%X,X,X,X,X%.Q ( y.y.y.y.| Q Q . .           ",
"            . . u ` ` +X+X=X,X:XOX$X;X>X,X,X,X,X<XY.l.l.Q Q p.S.c.y.y.y.y...Q Q .X.X%X,X,X,X,Xa.o.O.y.y.y.y.+.o.o.. .           ",
"            . . 9 Z Z .X.X%X,X:X|.|.;X>X,X,X,X,X;XG.8.8.Q Q ..y.y.y.y.y.y...Q Q .X.X%X,X,X,X,Xd.y.y.y.y.y.y.y.y.y.. .           ",
"            . . 9 n n ).(.+X;X=X.X.X;X>X,X,X,X,X>XG.8.8.Q Q ..y.r.o.o.X.X.} Q Q .X.X%X,X,X@X@Xs.y.y.y.y.y.y.+.O.X.. .           ",
"                  . . H.H.W..X.X.X.X;X,X,X,X,X,X>XG.8.8.Q Q ..y.o.Q Q Q Q Q Q Q .X.X%X,X=XH.H.u.y.y.y.y.y.y.| Q Q . .           ",
"                  . . H.H.W..X.X.X.X;X<X>X>X>X,X>XG.7.7.Q Q ..y.X.Q Q Q Q Q Q Q .X.X%X,X=XH.H.u.y.y.y.y.y.y.| Q Q . .           ",
"                  . . K K q.L.U..X.X=X;X<X>X>X>X<XG.8.8.Q Q Q ~ ~ Q Q Q Q Q Q Q .X.X%X,X=XH.H. .~ ~ ~ ~ ~ ~ Q Q Q . .           ",
"                  . . Z Z 5.H.J..X.X=X>X>X>X>X;X;XG.8.8.Q Q Q Q Q Q Q Q Q Q Q Q .X.X%X,X=XH.H.[ Q Q Q Q Q Q Q Q Q . .           ",
"                  . . w w D 5.q..X|.;X>X>X>X>X<X;XG.8.8.Q Q Q Q Q Q Q Q Q Q Q Q .X.X%X,X&Xx.x.] Q Q Q Q Q Q Q Q Q . .           ",
"                      . . w Z P .X.X=X,X,X,X,X,X,XG.8.8.Q Q Q Q Q Q Q Q Q Q Q Q .X.X%X,X$X8.8./ Q Q Q Q Q Q Q Q Q . .           ",
"                      . . w Z P .X.X;X,X,X,X,X,X,XG.8.8.Q Q Q Q Q Q Q Q Q Q Q Q .X.X%X,X$X8.8./ Q Q Q Q Q Q Q Q Q . .           ",
"                      . . . . $ H.H.[..X.X.X.X:X,X].H.H.M M E Q Q Q Q Q Q E M M ,X,X%X.X(.8.8.m r v Q Q Q Q a . . . .           ",
"                      . . . . < H.H.[..X.X.X.X:X,X].H.H.M M E Q Q Q Q Q Q E M M ,X,X%X.X(.8.8.m r v Q Q Q Q a . . . .           ",
"                          . . # k.k.K.R.R.U.R.+X#X|.^.^.7.7.^ A A A A A A _ z.z.#X#X).R.P.8.8.i % = q q q q - . .               ",
"                          . . @ 8.8.V.H.H.H.H..X.X.X.X.XH.H.) M M M M M M #..X.X.X.XW.H.C.8.8.5 . . . . . . . . .               ",
"                          . . @ I I m.H.H.H.H.^.).).).).H.H.$.W W W W W W 9.).).).).R.H.C.I I > . . . . . . . . .               ",
"                          . . . . . 2.H.H.H.H.H.H.H.H.H.H.H.H.H.H.H.H.H.H.H.H.H.H.H.H.H.b.. . . . .                             ",
"                          . . . . . 4.H.H.H.H.H.H.H.H.H.H.H.H.H.H.H.H.H.H.H.H.H.H.H.H.H.b.. . . . .                             ",
"                                . . 3 7 k e.e.C.H.H.H.H.H.H.H.H.H.H.H.H.H.H.H.H.e.e.J 7 3 . .                                   ",
"                                . . . . 6 8.8.C.H.H.H.H.H.H.H.H.H.H.H.H.H.H.H.H.8.8.j . . . .                                   ",
"                                . . . . @ S S ;.:.<.w.w.M.M.M.M.M.M.M.j.w.6.:.:.S S y . . . .                                   ",
"                                    . . . . . . . w Z Z 8.8.8.8.8.8.8.L Z d . . . . . . .                                       ",
"                                    . . . . . . . w Z Z 8.8.8.8.8.8.8.L Z d . . . . . . .                                       ",
"                                              . . . . . . . . . . . . . . . . .                                                 ",
"                                              . . . . . . . . . . . . . . . . .                                                 ",
"                                                . . . . . . . . . . . . . . . .                                                 ",
"                                                                                                                                ",
"                                                                                                                                ",
"                                                                                                                                ",
"                                                                                                                                ",
"                                                                                                                                ",
"                                                                                                                                ",
"                                                                                                                                "
};
