/* XPM */
static char *bd196005d99847138eb553b958b136feMuEb9E3WT3E3Qzd1[] = {
/* columns rows colors chars-per-pixel */
"64 64 241 2 ",
"   c None",
".  c black",
"X  c #0E0002",
"o  c #0C0202",
"O  c #0D0202",
"+  c #0E0202",
"@  c #100303",
"#  c #110104",
"$  c #130106",
"%  c #160005",
"&  c #160404",
"*  c #160407",
"=  c #180404",
"-  c #160209",
";  c #140508",
":  c #1A000A",
">  c #1B000A",
",  c #1C010A",
"<  c #1E000B",
"1  c #1D010D",
"2  c #1B090E",
"3  c #1C090E",
"4  c #1D0B11",
"5  c #1F0E14",
"6  c #1F0E15",
"7  c #22060A",
"8  c #28000F",
"9  c #2D080E",
"0  c #200310",
"q  c #2A0E15",
"w  c #350014",
"e  c #37121C",
"r  c #37121D",
"t  c #44000F",
"y  c #4A0C0C",
"u  c #560E0E",
"i  c #430C15",
"p  c #440C15",
"a  c #450C16",
"s  c #4E001C",
"d  c #4F0E18",
"f  c #50001E",
"g  c #40141F",
"h  c #49111C",
"j  c #4A111C",
"k  c #4A151F",
"l  c #5A101C",
"z  c #780C16",
"x  c #631010",
"c  c #531B2B",
"v  c #620F2D",
"b  c #7D082D",
"n  c #661220",
"m  c #6C1321",
"M  c #631827",
"N  c #711424",
"B  c #5D2A3E",
"V  c #6C2235",
"C  c #6F2439",
"Z  c #7B3852",
"A  c #87001F",
"S  c #8A041E",
"D  c #9E0024",
"F  c #87182B",
"G  c #811E28",
"H  c #88182B",
"J  c #9C0831",
"K  c #9E1C31",
"L  c #9D133C",
"P  c #A00423",
"I  c #AC042B",
"U  c #B50029",
"Y  c #A1003D",
"T  c #BA0932",
"R  c #BD0E38",
"E  c #8F2036",
"W  c #A6243D",
"Q  c #B52039",
"!  c #C10038",
"~  c #BB0048",
"^  c #8B2D48",
"/  c #80314A",
"(  c #A62640",
")  c #BD2A46",
"_  c #BF2A47",
"`  c #BF2A48",
"'  c #AF334E",
"]  c #A73350",
"[  c #A73756",
"{  c #C60740",
"}  c #CE0048",
"|  c #CB0B4D",
" . c #D2004D",
".. c #D1094B",
"X. c #C11442",
"o. c #D60052",
"O. c #D90155",
"+. c #D70956",
"@. c #DA0C56",
"#. c #DB0358",
"$. c #DE045B",
"%. c #D80B5A",
"&. c #DA0E5D",
"*. c #DC0C5C",
"=. c #C31155",
"-. c #E0065E",
";. c #E1065E",
":. c #C42F4F",
">. c #C72856",
",. c #CA3659",
"<. c #D81667",
"1. c #DD1569",
"2. c #E50964",
"3. c #E50965",
"4. c #E80A68",
"5. c #E80B68",
"6. c #EA0C6B",
"7. c #EC126D",
"8. c #ED126D",
"9. c #E51170",
"0. c #F11373",
"q. c #F51277",
"w. c #F51278",
"e. c #F7147B",
"r. c #F8137B",
"t. c #FA157E",
"y. c #CF3766",
"u. c #CE3E62",
"i. c #DC376B",
"p. c #DF386E",
"a. c #E53377",
"s. c #E63D77",
"d. c #E6387B",
"f. c #974161",
"g. c #B04669",
"h. c #B65075",
"j. c #B65276",
"k. c #B9547B",
"l. c #B9547C",
"z. c #C24065",
"x. c #CF4267",
"c. c #D9446C",
"v. c #D44A6F",
"b. c #DE4677",
"n. c #DC4972",
"m. c #DE4973",
"M. c #D8517C",
"N. c #D2597F",
"B. c #E14E79",
"V. c #FB1E82",
"C. c #FF1884",
"Z. c #C75A82",
"A. c #D45E8A",
"S. c #EB4686",
"D. c #E8458A",
"F. c #E45380",
"G. c #E25480",
"H. c #E75886",
"J. c #E75D8A",
"K. c #EA5D8C",
"L. c #EF5490",
"P. c #EA5198",
"I. c #DA618B",
"U. c #D86390",
"Y. c #D86391",
"T. c #DF6693",
"R. c #E2608C",
"E. c #ED6292",
"W. c #EF6395",
"Q. c #E86595",
"!. c #EA6A9B",
"~. c #F3639B",
"^. c #F06798",
"/. c #F0699D",
"(. c #F3699C",
"). c #F36C9E",
"_. c #F46C9F",
"`. c #F66FA2",
"'. c #E773A2",
"]. c #EE75A8",
"[. c #F771A5",
"{. c #F473A5",
"}. c #F773A7",
"|. c #F275AB",
" X c #F277AA",
".X c #F875A9",
"XX c #F877AB",
"oX c #F877AC",
"OX c #F47CAC",
"+X c #F979AD",
"@X c #F37DB2",
"#X c #F77BB7",
"$X c #F97DB0",
"%X c #F97DB3",
"&X c #FF7CBA",
"*X c #EB83B7",
"=X c #EB89B3",
"-X c #F780B1",
";X c #F380B6",
":X c #F684B4",
">X c #FB81B5",
",X c #F981B7",
"<X c #F581B9",
"1X c #FA83BA",
"2X c #FC86BA",
"3X c #FC87BC",
"4X c #C4A3A5",
"5X c #F78CC3",
"6X c #FB89C1",
"7X c #FE8EC2",
"8X c #FC8CC5",
"9X c #FD8EC4",
"0X c #FC8FC8",
"qX c #FC8FC9",
"wX c #FF92C6",
"eX c #F692C9",
"rX c #FA91C9",
"tX c #FC90C9",
"yX c #FE92C8",
"uX c #FE93C8",
"iX c #FC93CC",
"pX c #FD93CC",
"aX c #FF96CC",
"sX c #FD95CF",
"dX c #FB97D1",
"fX c #FD96D0",
"gX c #FE99D1",
"hX c #FF9AD2",
"jX c #FE99D4",
"kX c #FF9CD5",
"lX c #FF9ED8",
"zX c #FF9FDA",
"xX c #FFA6D1",
"cX c #FFA0DB",
"vX c #FFA1DD",
"bX c #FFA2DE",
"nX c #F3B7D1",
"mX c #D8C0C3",
"MX c #FFC2E0",
"NX c #ECDEE1",
"BX c #FFFBFF",
/* pixels */
"                                                                                                                                ",
"                                                                                                                                ",
"                                                                                                                                ",
"                                                                                                                                ",
"                                                                                                                                ",
"                                                                                                                                ",
"                                                                                                                                ",
"                                                                                                                                ",
"                                                                                                                                ",
"                                                                                                                                ",
"                                                                                                                                ",
"                                                      . . . . . . . .                   . . . . . . . .                         ",
"                                                    . . . . . . . . . .               . . . . . . . . . .                       ",
"                                                    o o - 0 0 0 0 1 : <               o o $ : : 0 0 < % o                       ",
"                                                . . u x L C.C.C.C.3.o.~ . . . . . . . u x J o.#.C.C...U A . .                   ",
"                                                . . u x L C.C.C.C.3.o.~ . . . . . . . u x J o.#.C.C...U A . .                   ",
"                                      . . . . & y y 4XmX=XC.C.C.C.t.w.9.Y Y 8 . . . . S P | w.e.C.C.0.7.=.y y # . .             ",
"                                      . . . . = x x NXBXxXC.C.C.C.C.C.t.o.o.w . . . . D U @.C.C.C.C.C.C.<.x x o . .             ",
"                                      . . 2 e k G G nXMX&XC.C.C.C.C.C.t.-.-.v e e e e I U @.C.C.C.C.C.C.1.z z # . .             ",
"                                . . . . . ^ m.m.m.m.V.C.C.C.C.C.C.C.C.C.C.C.s.m.m.m.m.T U @.C.C.C.C.C.C.8.U U % . .             ",
"                                . . . . . ^ m.m.m.m.V.C.C.C.C.C.C.C.C.C.C.C.s.m.m.m.m.T U @.C.C.C.C.C.C.7.U U $ . .             ",
"                            . . . . 6 Y.Y.*XdX;Xm.m.*.#.4.C.C.C.C.C.C.t.#.O.p.m.Q.dXdX/.W.a.#.-.C.C.C.C.q. . .: . .             ",
"                            . . . . 6 [.[.0XbX5Xm.m.+.o.3.C.C.C.C.C.C.t.o.o.i.m.!.bXbX+X[.d.o.#.C.C.C.C.q.o.o.: . .             ",
"                            . . e C / 6X6XjXbXrXK.K.%.o.$.6.6.6.6.6.6.3.o.o.i.m.!.bXbX8X6XD.o.O.6.6.6.6.3.o.o.< . .             ",
"                            . . C m.G.bXbXbXbXsX[.[.&.o.o.o.o.o.o.o.o.o.o.o.p.m.!.bXbXbXbXP.o.o.o.o.o.o.o.o.o.< . .             ",
"                            . . C m.G.bXbXbXbXfX[.[.&.o.o.o.o.o.o.o.o.o.o.o.i.m.!.bXbXbXbXP.o.o.o.o.o.o.o.o.o.< . .             ",
"                        . . . . Z [.oXbXbXbXbXbXbXbXoX[.b.U U o.o.o.o.o.o.o.L.[.1XbXbXbXbX6X[.~.o.o.o.o.} U U % . .             ",
"                        . . . . Z [.oXbXbXbXbXbXbXbXoX[.b.U U o.o.o.o.o.o.o.L.[.1XbXbXbXbX6X[.~.o.o.o.o.} U U $ . .             ",
"                        . . n N j.tXiXbXbXbXbXbXbXbXiXtX|.b.b.! ! ! ! { S.S.#XrXfXbXbXbXbXjXtX<XX.X.b s s t t                   ",
"                        . . K Q I.bXbXbXbXbXbXbXbXbXbXbX0X[.[.U U U U R [.[.sXbXbXbXbXbXbXbXbXeXQ Q p . . . .                   ",
"                        . . W _ T.bXbXbXbXbXbXbXbXbXbXbXiX%X%X>.>.>.>.y.%X%XjXbXbXbXbXbXbXbXbXeX_ _ j . . . .                   ",
"                        . . z.m.].bXbXbXbXbXbXbXbXbXbXbXbXbXbXbXbXbXbXbXbXbXbXbXbXbXbXbXbXbXbXdXm.m.c . .                       ",
"                        . . z.m.].bXbXbXbXbXbXbXbXbXbXbXbXbXbXbXbXbXbXbXbXbXbXbXbXbXbXbXbXbXbXdXm.m.c . .                       ",
"                  . . . . . z.m.].bXbXbXbXbXbXbXbXbXbXbXbXbXbXbXbXbXbXbXbXbXbXbXbXbXbXbXbXbXbXdXm.m.c . .                       ",
"                  . . . . . z.m.].bXbXbXbXbXbXbXbXbXbXbXbXbXbXbXbXbXbXbXbXbXbXbXbXbXbXbXbXbXbXdXm.m.c . .                       ",
"                  p i j c c M.H.@XbXbXbXbXbXbXbXbXbXbXbXbXbXbXbXbXbXbXbXbXbXbXbXbXbXbXbXbXbXbXdXm.m.c . .                       ",
"              . . H Q :.m.m._.[.6XbXbXbXbXbXbXbXbXbXbXbXbXbXbXbXbXbXbXbXbXbXbXbXbXbXbXbXbXbXbXdXm.m.c . .                       ",
"              . . H Q :.m.m._.[.6XbXbXbXbXbXbXbXbXbXbXbXbXbXbXbXbXbXbXbXbXbXbXbXbXbXbXbXbXbXbXdXm.m.c . .                       ",
"              . . [ m.!.bXbXbXbXbXbXbXbXbXbXbXbXbXbXbXbXbXbXbXbXbXbXbXbXbXbXbXbXbXbXbXbXbXhXwX:XQ Q i . .                       ",
"              . . [ m.!.bXbXbXbXbXbXbXbXbXbXbXbXbXbXbXbXbXbXbXbXbXbXbXbXbXbXbXbXbXbXbXbXbXhXwX:XQ Q i . .                       ",
"              . . g.K.|.bXbXbXbXbXbXbXhXhXhXhXjXbXbXbXbXbXbXbXbXbXbXbXbXbXbXbXbXzXhXhXhXhX7X>X'.l l 7 . .                       ",
"              . . l.[.1XbXbXbXbXbXbXzXwXwXwXwXaXbXbXbXbXbXbXbXbXbXbXbXbXbXbXbXbXkXwXwXwXwX>X[.U.. . . . .                       ",
"              . . j.).>XbXbXbXbXbXcXkX7X7X7X7XuXcXcXcXcXcXcXcXcXcXcXcXcXcXcXcXcXhX7X7X7X7X%X).A.. . . . .                       ",
"              . . [ m.!.bXbXbXbXhXwXwX[.[.[.[.+XwXwXwXwXwXwXwXwXwXwXwXwXwXwXwXwX1X[.[.[.[.K.m.z.. .                             ",
"              . . [ m.!.bXbXbXbXhXwX7X[.[.[.[.+XwXwXwXwXwXwXwXwXwXwXwXwXwXwXwXwX2X[.[.[.[.K.m.z.. .                             ",
"              . . E ` v.%X%XwXaX2X+XXX[.[.[.[.}.+X+X+X+X+X+X+X+X+X+X+X+X+X+X+X+X.X[.[.[.[.f.e q . .                             ",
"              . . H Q u.[.[.7XwX>X[.[.[.[.[.[.[.[.[.[.[.[.[.[.[.[.[.[.[.[.[.[.[.[.[.[.[.[.Z . . . .                             ",
"              . . m F ] J.J.OX-X{.(.^.N.N.R.^.(.[.[.[.[.[.[.[.[.[.[.[.[.[.[.[.[.[.^.^.Z.k.B . . . .                             ",
"                  . . p Q Q c.m.m.m.x.x x ' m.F.[.[.[.[.[.[.[.[.[.[.[.[.[.[.[.[.E.m.m.3 . . . .                                 ",
"                  . . p Q Q c.m.m.m.x.x x ' m.F.[.[.[.[.[.[.[.[.[.[.[.[.[.[.[.}.E.m.m.3 . . . .                                 ",
"                        = ; 3 3 3 3 3 o o ; 3 3 5 6 ( _ ,.B.B.B.B.B.B.m.) ) g 0 4 3 3 . . .                                     ",
"                        . . . . . . . . . . . . . . K Q :.m.m.m.m.m.m.c.Q Q q . . . . . . .                                     ",
"                        . . . . . . . . . . . . . . d l M C C C C C C C l l & . . . . . .                                       ",
"                                                . . . . . . . . . . . . . . . . .                                               ",
"                                                . . . . . . . . . . . . . . . . .                                               ",
"                                                                                                                                ",
"                                                                                                                                ",
"                                                                                                                                ",
"                                                                                                                                ",
"                                                                                                                                ",
"                                                                                                                                ",
"                                                                                                                                ",
"                                                                                                                                ",
"                                                                                                                                "
};
