/* XPM */
static char *result[] = {
/* columns rows colors chars-per-pixel */
"64 64 66 1 ",
"  c #000400",
". c gray3",
"X c #101010",
"o c #181818",
"O c #281000",
"+ c #301400",
"@ c #381800",
"# c #202020",
"$ c #282828",
"% c gray19",
"& c #3C3C3C",
"* c #401C00",
"= c #482404",
"- c #542C0C",
"; c #603810",
": c #684018",
"> c #504834",
", c #585438",
"< c #744820",
"1 c #340054",
"2 c #283840",
"3 c #484848",
"4 c #505050",
"5 c gray33",
"6 c gray36",
"7 c #645C40",
"8 c #746C48",
"9 c #445C6C",
"0 c #686868",
"q c gray44",
"w c #805024",
"e c #8C6038",
"r c #9C7448",
"t c #847C54",
"y c #A8845C",
"u c #949064",
"i c #B89470",
"p c #A4A074",
"a c #4C6C80",
"s c #587890",
"d c #6488A0",
"f c #6C94B0",
"g c #78A0C0",
"h c #808080",
"j c gray55",
"k c #989898",
"l c #BCB888",
"z c #A4A4A4",
"x c gray66",
"c c gray69",
"v c #BCBCBC",
"b c #C4A480",
"n c #CCCC94",
"m c #E0C4A4",
"M c #F0D4B8",
"N c #84B0CC",
"B c #90BCD8",
"V c #9CC8E4",
"C c #A8D4F0",
"Z c #C8C8C8",
"A c gray83",
"S c gainsboro",
"D c #F8F8D0",
"F c #C0E4FC",
"G c gray91",
"H c gray99",
/* pixels */
"GGGGGSSSSSSSSAAAAZZZZvvvvvvvvvcccccccczzzzkkkkjjjjjjjjjhhhhqqqqq",
"G999999S999999A999999vaaaaaavsssssdcssdfNVkNBCFFFjBNBCFVhBNBCFFq",
"G9AASS9S9SSAA9A9ZZZvavavvvvacsccccdcszzzkVkBjjjjFjCjjhhFhCj000fq",
"G9A99S9S9SA9A9Z9ZZ9vavavvavacsccdcdzdzzVkVkCjjvjVjFjhFhVqFjff6fq",
"G9A9999S9999A9Z999avavaaaacacsssdcdzfNNVkVjFFFFjNjFFFF00cqSzF6f0",
"S9AA9SSSAAAAZZZZvvvvvvvvvcccccccczzzzkkkkjjjjjjjjjhhh04Z6Scq66f0",
"S999aS    ....XXXoooo###$$$$%%%&&&&&&&33333&&466666634Sz&k63sff0",
"SSSSSS   ....XXXoooo###$$$$%%%%$%&&&&33333&$%&&334644Zz33&363000",
"S9999A  -;=<ere<-;;;:::::::::::::;;;;;;;;;;;;;-<ere=vz=33xj2sff6",
"S9SSAA .<:wrbmmie::wwwwwwwwwwwwwwwwwwwwwwwwww<eimmbwZ==%xh%300f6",
"S9S99A..<wyiewwibe;<werrrrrrrrrrrrrrrrrrrrew:ebiwwe<6k*xq%&ff6f6",
"S9AA9A..;eberwmemy<:<<<<<<<<<<<<<<<<<<<<<:<<<ymem<;cAh44&&5f66f6",
"S9AA9Z..<rmrbrwime-:::wwwwwwwwwwwwwww<<<<::;;emiw:cAh==o350f66f6",
"A999aZ.X:ymieimbrweeeeeeeeeeeeeeeeeeeeeeeeeeewri<cvh<<=&006ffff6",
"AAAZZZXX<rmmr<weerrryyyyyyyyyyyyyyyyyyrrrrrrewZj6h5<ye:%hh666666",
"A9aaaZXXw<mb<weweeeewwwwwwwwwwwwwweeeeeeeeee<Sj@;&%eb:w&qj6ffff6",
"AaZZZvXowribeere:::;------;;;;;;;;;::::::::-Zj@-;q%iyrw&jj6666f4",
"ZaZaavoo<ymyeere:wee:<<:<;:<<:<::<:wweew<w;Zc=*wqqwymy<&jj6ff6f4",
"ZaZvavoo<rmbwere:e<w;:<;;-;:;-:;;w:<<w<<<<qj@;;jq;;bmr<&jj6f64g4",
"Zavvavoo<<mbyere:ew<;;<-;-;::-:;;w:<:w<w:<50;<xq:-ybm<<&hj6f44g4",
"Zaaaavo#<yibyere:ww<;;:-;-;:<-:;:w:<;w<<<:xz<k6:;wybiy<&qh6ffgg3",
"vvvvvv##<ymieere;w<<;;:;;-;::-:::w:<;:<w:0Sq33==weeimy<&qh444433",
"vaaaav##<rmb<ere:<<<-;:;:-:<:;:<:w:<:::whvh-=--:re<bmr<%qj4fggg3",
"vavvvv#$<wmbrere:w:<-;:;<;:<<;<<<w:w:::hSh=-=<;ererbmw<%jk4433g3",
"vavaac$$<iibyere:e<<-:<:::;<<::<w::vq6kSh=--:w;ereybii<%hj4gg3g3",
"vavvac$$<imyeere:ew:;:w;::;<<:<<w;Sj*=k0=--;<w:ereeymi<%qk3g33g&",
"vavcac$$<imb<ere:ew<;::;::;<w<;<<Sj=--3&*;::<e:ere<bmi<%jk3g33g&",
"vaaasc$%<rmbrere:ew<:<:;::;w<w:<zj=-:0q3*:::we:ererbmr<&kz3gggg&",
"vvvvvc%%<bibyere:ew<::<:;::wqj03%==<jh3@=:<<we:ereybib<&zz3&&&&&",
"casssc%%<imyrere:ew::;<:;wqkzckh33$jx3**-<e:we:ererymi<&zz&gggf&",
"cscccc%&<imbwere:ww<<;<::jAZcjqj5%4x0@==:ww<ww:erewbmi<3zz&&&&f&",
"cscssc&&<embrere:w<:<;<w:ZAx53%&%6c0$X-;:<w:<w:ererbme<&zz&gN&N&",
"csccsc&&<iibyerw;;;:w;e<jvk0&---5hj53%=;:<<:<w:ereybii<&zc&N&&C&",
"csccsz&&<imywecHZ0=:::w;jch3=;w:034vk5$=:w<;<w:ererymi<&zc&C&&C%",
"cssssz&&<imm50h053%&-;:=jc0%;<<:<:-6c0%=--<;<w;erewbmi<&zz&CCCC%",
"ccczzz&&<rm0c0--=-305;;-jh5zq:<:<:w-qh3#*,-:<w;wrerbmr<&zz&&&%%%",
"cssssz&&<ehG0=;-=--3k5*-j0Zj-;;<<::;3$&8ul>=<w;wreybii<&zv&FFFF%",
"zszzzk&&<4c0*;<:=;;=0hzj4Sj&--;;:;;4&&unt8>=<<;wrerymi<&vv&%%%F$",
"zszfBk&&<qk@=:<:=;-=+zS-Zj53%--35547t8$8tu,%;<;wrewbmi<3vv%FF%F$",
"zdzkBk&%<5h*-:<:=;-*zH&-:6&&50667t8&&%3&77%&*:;wrerbmr<3vv%F%$B$",
"zdkkFk&&<5k&-:<:=-=cH5#;<8u807t83334333&%%$3=<;wreybii<3vv%F$$N$",
"zfBFFj&&<ihh-:<:;*zS6%=,nup88543064643&&%$4#&-=weerymi<3vv%FBNf#",
"kkkkjj&&<imhh$<:==jq#-;8ut7850q00666333&&$$$3=-weewbmi<3vv$$$$##",
"kfBFFj&&<emb5kkxq&0S*34&tl8t5qqq0q$%43&&&%$#3==weerbme<3vZ$FFBf#",
"kfjjjj&%<yibe:065hSq46==7tt5hhqqh%XX#4&&&%$##3=weeybiy<3vZ$$##f#",
"kNjFFj&$<ymy::;:hHh=**--=qqjhqq0j$Xo%03&%%%4#3*weerymy<3vZ$fB#fo",
"jBjjFj&%<ymwcz6cHk-*=-;-;hjjhhqq0k#o$0&&%%$$$3=weewbmy<5vA#f##fo",
"jFjjFj3&<eecHjcch;==-;<:=hAkhqq000j$oo6&%%$###=weerbme<4AA#f#ofo",
"jFFFFj3&<<cHh;55=;==;:<;@=khhhq066h##$$3%%$0#*=wewybiy<5AA#ffffo",
"jjjjjh&&<jS5-=%3=-=-:<:;:-qGhqqq06q$o&3&%$%$#*=<ewrymy<4vv#ooooX",
"jFFFFh&&jZ5;*64**=-=:w:;<;0jhqqq0660333&&$$%*;=<ewwbmy<5vvoffffX",
"jFjhhh&&z5=@j4-;+;==:<:;:<-6jAq0066443&&0%$**;*<ewrbme:6vZoooXfX",
"jFhFFh&&h:%z4=;:*;==<<:;:<:;56q0x064h3&&%#***;*<ewybiy:6vZoffXfX",
"jFhh6&zZx563--e<*-=*:<:;<:<:<<46564643&#o*=*=-*<ewrymy:0vZofXXf.",
"hFhh3zSz0;;::we<@;==<w<<<ww:<<<-===*+++@-:;==;@<ewwbmy:0vAXfXXf.",
"hFFFFzzq:wyyywe<O++@;;;;;;;;;;-------====*@@++O<ewybmy:0AAXgfff.",
"hhqqqq6$-wmbywe<wwwwwwwwwwwwwwwwwwwwwwwwwwwwwww<ewybmw-0AAXX....",
"hqqqqq&&-ribywweeeeeeeeeeeeeeeeeeeeeeeeeeeeeeeeeweybir-0ASX.... ",
"qCCCCq&&-eiiwwwwwwwwwwwwwweeeeeeeeeeeeeeeeeeewweewwiie-qSS.dddd ",
"qCCCCq&&wbMDrww<<<<<<<<<<<<<<::::::::::<<<<<<<<<wwrDMbwqSS.dddd ",
"qCCCCq&&ebmby<<<<wwwwwwwwwwwwwwwwwwwwwwwwwwwww<<<<ybmbeqSS.dddd ",
"qCCCC0&&;eberrrrrrrrrrrrrrrrrrrrrrrrrrrrrrrrrrrrrrrebe;qSS.dddd ",
"qqqq00&&-<wwwwwwwwwwwwwwwwwwwwwwwwwwwwwwwwwwwwwwwwwww<-4SS      ",
"qqq000&1*-;-------;;;;;:::::::::::::::::::;;;;;;-;;--=*14S      "
};
