/* XPM */
static char *result[] = {
/* columns rows colors chars-per-pixel */
"64 64 220 2 ",
"   c #220B1F",
".  c #260B1D",
"X  c #260B1E",
"o  c #260C1F",
"O  c #2D0C19",
"+  c #2E0C19",
"@  c #2D0C1A",
"#  c #2E0D1B",
"$  c #2A0C1C",
"%  c #340C16",
"&  c #3B0D12",
"*  c #3C0D12",
"=  c #3D0E13",
"-  c #3C0E14",
";  c #3D0F14",
":  c #3D0F15",
">  c #310C18",
",  c #3D1015",
"<  c #3D1116",
"1  c #3A1418",
"2  c #0D082B",
"3  c #09082D",
"4  c #130927",
"5  c #170925",
"6  c #1B0923",
"7  c #1F0A21",
"8  c #100829",
"9  c #100929",
"0  c #130928",
"q  c #190D2A",
"w  c #17163C",
"e  c #200D25",
"r  c #251423",
"t  c #341222",
"y  c #3A1822",
"u  c #3E2936",
"i  c #410E0F",
"p  c #430E0E",
"a  c #420E0F",
"s  c #49100E",
"d  c #4C130D",
"f  c #4F130D",
"g  c #4E180D",
"h  c #50160C",
"j  c #50160D",
"k  c #55160D",
"l  c #541C0D",
"z  c #551D0E",
"x  c #5C1E0B",
"c  c #5D1E0B",
"v  c #5B180D",
"b  c #591C0C",
"n  c #421414",
"m  c #461516",
"M  c #6A1F0C",
"N  c #58220D",
"B  c #59230F",
"V  c #5A2A19",
"C  c #62220A",
"Z  c #662309",
"A  c #61250D",
"S  c #682609",
"D  c #692609",
"F  c #6D200C",
"G  c #6D210C",
"H  c #6F2A08",
"J  c #752E07",
"K  c #73230C",
"L  c #762E08",
"P  c #762F09",
"I  c #6D350C",
"U  c #76300A",
"Y  c #76370A",
"T  c #793D0A",
"R  c #622811",
"E  c #673217",
"W  c #6C3118",
"Q  c #743A16",
"!  c #4C2820",
"~  c #543627",
"^  c #6B4527",
"/  c #724524",
"(  c #7E5329",
")  c #724A3E",
"_  c #7F6459",
"`  c #823605",
"'  c #8B3806",
"]  c #8D3806",
"[  c #8E3E04",
"{  c #8F3E04",
"}  c #82330B",
"|  c #923D05",
" . c #943D05",
".. c #82480B",
"X. c #954203",
"o. c #9B4303",
"O. c #9B4602",
"+. c #9B4603",
"@. c #91440A",
"#. c #91450A",
"$. c #994D0A",
"%. c #89520C",
"&. c #9B5808",
"*. c #864613",
"=. c #A14902",
"-. c #A14A02",
";. c #A84E01",
":. c #AC5302",
">. c #AF5D05",
",. c #A0560A",
"<. c #A65B08",
"1. c #A75E09",
"2. c #B05902",
"3. c #B45F02",
"4. c #B55F02",
"5. c #B66603",
"6. c #B86502",
"7. c #B96502",
"8. c #B06C07",
"9. c #BD6B02",
"0. c #BA6B04",
"q. c #B86E04",
"w. c #B3620E",
"e. c #BB6D0E",
"r. c #AB7009",
"t. c #AC7009",
"y. c #BF7204",
"u. c #BB7606",
"i. c #BE7708",
"p. c #B3790A",
"a. c #B16E1C",
"s. c #BE751A",
"d. c #BD761A",
"f. c #8A612F",
"g. c #826032",
"h. c #956F34",
"j. c #987034",
"k. c #B07322",
"l. c #A17D39",
"z. c #C17102",
"x. c #C17103",
"c. c #C57F07",
"v. c #C97C03",
"b. c #C97C04",
"n. c #CB7F04",
"m. c #8A6857",
"M. c #8A6959",
"N. c #B08021",
"B. c #AE8538",
"V. c #AD8B3F",
"C. c #C68007",
"Z. c #CB8305",
"A. c #CE8104",
"S. c #CE8204",
"D. c #CD8807",
"F. c #C18308",
"G. c #CC8D08",
"H. c #D18704",
"J. c #D28704",
"K. c #D68D04",
"L. c #D49007",
"P. c #D69607",
"I. c #DB9304",
"U. c #DA9305",
"Y. c #DF9905",
"T. c #DC9907",
"R. c #E39E05",
"E. c #E39F05",
"W. c #E3A206",
"Q. c #E4A207",
"!. c #E7A405",
"~. c #E7A406",
"^. c #EBAA06",
"/. c #ECAE0C",
"(. c #ECAF13",
"). c #EDAF13",
"_. c #EDB212",
"`. c #F0BB1E",
"'. c #C99F31",
"]. c #D39D33",
"[. c #DEB03F",
"{. c #EAB729",
"}. c #F3C329",
"|. c #F3C22A",
" X c #F3C32A",
".X c #F1C535",
"XX c #F5CB35",
"oX c #F2C93B",
"OX c #B99944",
"+X c #B89945",
"@X c #C4A74A",
"#X c #D0B44F",
"$X c #D0B54F",
"%X c #E4BA46",
"&X c #DCC254",
"*X c #E3C14D",
"=X c #EFD24E",
"-X c #F7D341",
";X c #F2D04D",
":X c #FADC4D",
">X c #F2CA52",
",X c #F3CA52",
"<X c #E8D05A",
"1X c #FCE459",
"2X c #FDE459",
"3X c #FAE25F",
"4X c #FEE75F",
"5X c #E7D574",
"6X c #FFEC65",
"7X c #B4A185",
"8X c #B7A588",
"9X c #CCC09D",
"0X c #F6DF84",
"qX c #FFF287",
"wX c #FBEF9C",
"eX c #E4DEB6",
"rX c #FEF7A7",
"tX c #FAFBCD",
"yX c #FCFDCF",
"uX c #FEFFD0",
/* pixels */
"3 3 3 3 3 3 3 3 3 3 3 3 3 3 3 3 3 3 3 3 3 3 3 3 3 3 3 3 3 3 3 3 3 3 3 3 3 3 3 3 3 3 3 3 3 3 3 3 3 3 3 3 3 3 3 3 3 3 3 3 3 3 3 3 ",
"3 3 3 3 3 3 3 3 3 3 3 3 3 3 3 3 3 3 3 3 3 3 3 3 3 3 3 3 3 3 3 3 3 3 3 3 3 3 3 3 3 3 3 3 3 3 3 3 3 3 3 3 3 3 3 3 3 3 3 3 3 3 3 3 ",
"3 3 3 3 3 3 3 3 3 3 3 3 3 3 3 3 3 3 3 3 3 3 3 3 3 3 3 3 3 3 O p p w 3 3 3 3 3 3 3 3 3 3 3 3 3 3 3 3 3 3 3 3 3 3 3 3 3 3 3 3 3 3 ",
"3 3 3 3 3 3 3 3 3 3 3 3 3 3 3 3 3 3 3 3 3 3 3 3 3 3 3 0 # @ _ 7X8Xt O   3 3 3 3 3 3 3 3 3 3 3 3 3 3 3 3 3 3 3 3 3 3 3 3 3 3 3 3 ",
"3 3 3 3 3 3 3 3 3 3 3 3 3 3 3 3 3 3 3 3 3 3 3 3 3 6 7 u M.m.9XtXuXD D z 7 7 8 3 3 3 3 3 3 3 3 3 3 3 3 3 3 3 3 3 3 3 3 3 3 3 3 3 ",
"3 3 3 3 3 3 3 3 3 3 3 3 3 3 3 3 3 3 3 3 3 3 3 3 3 & p ) uXuXuXuXuX;.;.{ p p 7 3 3 3 3 3 3 3 3 3 3 3 3 3 3 3 3 3 3 3 3 3 3 3 3 3 ",
"3 3 3 3 3 3 3 3 3 3 3 3 3 3 3 3 3 3 3 3 3 3 3 9 p eXyXuXuXuX>X^.^.;.;.;.;.;.D + 3 3 3 3 3 3 3 3 3 3 3 3 3 3 3 3 3 3 3 3 3 3 3 3 ",
"3 3 3 3 3 3 3 3 3 3 3 3 3 3 3 3 3 3 3 3 3 3 3 9 p 5XrXuXuX,X(.^.^.U.9.;.;.;.D + 3 3 3 3 3 3 3 3 3 3 3 3 3 3 3 3 3 3 3 3 3 3 3 3 ",
"3 3 3 3 3 3 3 3 3 3 3 3 3 3 3 3 3 6 7 7 7 7 7   p <XqXwX0X).^.^.^.^.J.7.;.;.D % 7 7 7 7 7 7 2 3 3 3 3 3 3 3 3 3 3 3 3 3 3 3 3 3 ",
"3 3 3 3 3 3 3 3 3 3 3 3 3 3 2 9 9 n l N N N N N p <X6X:X^.^.^.^.^.^.^.U.;.;.D g N N N N N N 7 9 9 3 3 3 3 3 3 3 3 3 3 3 3 3 3 3 ",
"3 3 3 3 3 3 3 3 3 3 3 3 3 3 7 p p [ v.^.^.^.^.P.p <X6X:X^.^.^.^.^.^.^.U.;.;.D ..^.^.^.^.^.^.I p * 3 3 3 3 3 3 3 3 3 3 3 3 3 3 3 ",
"3 3 3 3 3 3 3 3 3 3 3 3 3 $ ^ $X$X*X{.^.^.^.^.P.p <X6X:X^.^.^.^.^.^.^.U.;.;.D ..^.^.^.^.^.^.G.F.p.% 4 3 3 3 3 3 3 3 3 3 3 3 3 3 ",
"3 3 3 3 3 3 3 3 3 3 3 3 . g.@X6X6X6XXX~.v.v.v.q.p <X6X;Xv.~.^.^.^.^.C.<.] ;.D Y v.v.v.K.^.^.^.Y.y.J 1 5 3 3 3 3 3 3 3 3 3 3 3 3 ",
"3 3 3 3 3 3 3 3 3 3 3 3 p #X6X6X6X6X.XU.O.O.O.{ p <X3X%X;.I.!.^.^.T.$.K K =.Z C O.O.O.5.E.E.E.S.;.;.c . 3 3 3 3 3 3 3 3 3 3 3 3 ",
"3 3 3 3 3 3 3 3 3 3 3 3 p #X6X6X6X6X].+.p p p p p <X].;.;.;.J.^.^.K K K K K k p p p p S ;.;.;.;.;.;.c . 3 3 3 3 3 3 3 3 3 3 3 3 ",
"3 3 3 3 3 3 3 3 3 3 q y F.=X6X6X6Xh.E R $X$X$X$X$Xf.E H ;.;.3.>.#.K K M f f j.$X$X$X$XB.x x u.b.;.;.X.A > 3 3 3 3 3 3 3 3 3 3 3 ",
"3 3 3 3 3 3 3 3 3 3 e m ^.}.XX.X].E / V.6X6X6X6X6X*.J J J J X.o.K v v W l.l.&X6X6X6X[.k.H p F.H.;.;.;.J * 3 3 3 3 3 3 3 3 3 3 3 ",
"3 3 3 3 3 3 3 3 3 3 7 p ^.^.!.U.O.Q V.6X6X2X2X2X2Xw.;.X.h h ` | G V V ( 6X6X4X2X2X2Xs.;.+.h t.Z.2.;.;.J * 3 3 3 3 3 3 3 3 3 3 3 ",
"3 3 3 3 3 3 3 3 3 3 7 p ^.^.H.+.p #X6X6X6X`.^.^.^.2.;.;.;.;.D p p 6X6X6X6X6X}.^.^.^.6.;.;.;.c ..R.;.;.J * 3 3 3 3 3 3 3 3 3 3 3 ",
"3 3 3 3 3 3 3 3 3 3 7 p ^.^.H.+.p #X6X1X_./.^.^.^.E.E.H.;.;.-.a.<X6X6X:X_._./.^.^.^.!.S.;.;.c ..R.;.;.J * 3 3 3 3 3 3 3 3 3 3 3 ",
"3 3 3 3 3 3 3 3 3 3 7 p ^.^.H.+.p #X6X1X^.^.^.^.^.^.^.R.v.v.4.d.6XXXXX|.^.^.^.^.^.^.^.H.;.;.c ..R.;.;.J * 3 3 3 3 3 3 3 3 3 3 3 ",
"3 3 3 3 3 3 3 3 3 3 7 p ^.^.H.+.p #X6X1X^.^.^.^.^.^.^.^.^.^.z.d.6X^.^.^.^.^.^.^.^.^.^.H.;.;.c ..R.;.;.J * 3 3 3 3 3 3 3 3 3 3 3 ",
"3 3 3 3 3 3 3 3 3 3 7 p ^.^.H.+.p #X6X1X^.^.^.^.^.^.^.^.^.^.z.d.6X^.^.^.^.^.^.^.^.^.^.H.;.;.c ..R.;.;.J * 3 3 3 3 3 3 3 3 3 3 3 ",
"3 3 3 3 3 3 3 3 3 3 7 p ^.^.H.+.p #X6X1X^.^.^.^.^.^.^.^.^.^.z.d.6X^.^.^.^.^.^.^.^.^.^.H.;.;.c ..R.;.;.L = 3 3 3 3 3 3 3 3 3 3 3 ",
"3 3 3 3 3 3 3 3 3 3 7 p ^.^.H.+.p #X6X1X^.^.^.^.^.^.^.^.^.^.z.d.6X^.^.^.^.^.^.^.^.^.^.H.;.;.c ..R.;.;.P ; 3 3 3 3 3 3 3 3 3 3 3 ",
"3 3 3 3 3 3 3 3 3 3 7 p ^.^.H.+.p #X6X1X^.^.^.^.^.^.^.^.^.^.z.d.6X^.^.^.^.^.^.^.^.^.^.H.;.;.c ..R.;.;.U , 3 3 3 3 3 3 3 3 3 3 3 ",
"3 3 3 3 3 3 3 3 3 3 7 p ^.^.H.+.p #X6X1X^.^.^.^.^.^.^.^.^.^.z.d.6X^.^.^.^.^.^.^.^.^.^.H.;.;.c ..R.;.;.U < 3 3 3 3 3 3 3 3 3 3 3 ",
"3 3 3 3 3 3 3 3 3 3 7 p ^.^.H.+.p #X6X1X^.^.^.^.^.^.^.^.^.^.z.d.6X^.^.^.^.^.^.^.^.^.^.H.;.;.c ..R.;.;.U < 3 3 3 3 3 3 3 3 3 3 3 ",
"3 3 3 3 3 3 3 3 3 3 7 p ^.^.H.+.p #X6X1X^.^.^.^.^.^.^.^.^.^.z.d.6X^.^.^.^.^.^.^.^.^.^.H.;.;.c ..R.;.;.P : 3 3 3 3 3 3 3 3 3 3 3 ",
"3 3 3 3 3 3 3 3 3 3 7 p ^.^.H.+.p #X6X1X^.^.^.^.^.^.^.^.^.^.z.d.6X^.^.^.^.^.^.^.^.^.^.H.;.;.c ..R.;.;.L - 3 3 3 3 3 3 3 3 3 3 3 ",
"3 3 3 3 3 3 3 3 3 3 7 p ^.^.H.+.p #X6X1X^.^.^.^.^.^.^.^.^.^.z.d.6X^.^.^.^.^.^.^.^.^.^.H.;.;.c ..R.;.;.J * 3 3 3 3 3 3 3 3 3 3 3 ",
"3 3 3 3 3 3 3 3 3 3 7 p ^.^.H.+.p #X6X1X^.^.^.^.^.^.^.^.^.^.z.d.6X^.^.^.^.^.^.^.^.^.^.H.;.;.c ..R.;.;.J * 3 3 3 3 3 3 3 3 3 3 3 ",
"3 3 3 3 3 3 3 3 3 3 7 p ^.^.H.+.p #X6X1X^.^.^.^.^.^.^.^.^.^.z.d.6X^.^.^.^.^.^.^.^.^.^.H.;.;.c ..R.;.;.J * 3 3 3 3 3 3 3 3 3 3 3 ",
"3 3 3 3 3 3 3 3 3 3 7 p ^.^.H.+.p #X6X1X^.^.^.^.^.^.^.^.^.^.z.d.6X^.^.^.^.^.^.^.^.^.^.H.;.;.c ..R.;.;.J * 3 3 3 3 3 3 3 3 3 3 3 ",
"3 3 3 3 3 3 3 3 3 3 7 p ^.^.H.+.p #X6X1X^.^.^.^.^.^.^.^.^.^.z.d.6X^.^.^.^.^.^.^.^.^.^.H.;.;.c ..R.;.;.J * 3 3 3 3 3 3 3 3 3 3 3 ",
"3 3 3 3 3 3 3 3 3 3 7 p ^.^.H.+.p #X6X1X^.^.^.^.^.^.^.^.^.^.z.d.6X^.^.^.^.^.^.^.^.^.^.H.;.;.c ..R.;.;.J * 3 3 3 3 3 3 3 3 3 3 3 ",
"3 3 3 3 3 3 3 3 3 3 7 p ^.^.H.+.p #X6X1X^.^.^.^.^.^.^.^.^.^.z.d.6X^.^.^.^.^.^.^.^.^.^.H.;.;.c ..R.;.;.J * 3 3 3 3 3 3 3 3 3 3 3 ",
"3 3 3 3 3 3 3 3 3 3 7 p ^.^.H.+.p #X6X1X^.^.^.^.^.^.^.^.^.^.z.d.6X^.^.^.^.^.^.^.^.^.^.H.;.;.c ..R.;.;.J * 3 3 3 3 3 3 3 3 3 3 3 ",
"3 3 3 3 3 3 3 3 3 3 7 p ^.^.H.+.p #X6X1X^.^.^.^.^.^.^.^.^.^.z.d.6X^.^.^.^.^.^.^.^.^.^.H.;.;.c ..R.;.;.J * 3 3 3 3 3 3 3 3 3 3 3 ",
"3 3 3 3 3 3 3 3 3 3 7 p ^.^.H.+.p #X6X1X^.^.^.^.^.^.^.^.^.^.z.d.6X^.^.^.^.^.^.^.^.^.^.H.;.;.c ..R.;.;.J * 3 3 3 3 3 3 3 3 3 3 3 ",
"3 3 3 3 3 3 3 3 3 3 7 p ^.^.H.+.p #X6X1X^.^.^.^.^.,.#.1.^.^.z.d.6X^.^.L.#.#.c.^.^.^.^.H.;.;.c ..R.;.;.J * 3 3 3 3 3 3 3 3 3 3 3 ",
"3 3 3 3 3 3 3 3 3 3 7 p ^.^.H.+.p #X6X1X^.^.^.^.^.} K @.^.^.z.d.6X^.^.D.K K i.^.^.^.^.H.;.;.c ..R.;.;.J * 3 3 3 3 3 3 3 3 3 3 3 ",
"3 3 3 3 3 3 3 3 3 3 7 p ^.^.H.+.p #X6X1X^.^.^.^.^.} K @.^.^.z.d.6X^.^.D.K K i.^.^.^.^.H.;.;.c ..R.;.;.J * 3 3 3 3 3 3 3 3 3 3 3 ",
"3 3 3 3 3 3 3 3 3 3 7 p ^.^.H.+.p #X6X1X^.^.^.^.^.} K @.^.^.z.d.6X^.^.D.K K i.^.^.^.^.H.;.;.c ..R.;.;.J * 3 3 3 3 3 3 3 3 3 3 3 ",
"3 3 3 3 3 3 3 3 3 3 7 p ^.^.H.+.p #X6X1X^.^.^.^.^.D.D.L.^.^.z.d.6X^.^.W.D.D.Q.^.^.^.^.H.;.;.c ..R.;.;.J * 3 3 3 3 3 3 3 3 3 3 3 ",
"3 3 3 3 3 3 3 3 3 3 7 p ^.^.H.+.p #X6X1X^.^.^.^.^.^.^.^.^.^.z.d.6X^.^.^.^.^.^.^.^.^.^.H.;.;.c ..R.;.;.J * 3 3 3 3 3 3 3 3 3 3 3 ",
"3 3 3 3 3 3 3 3 3 3 7 p ^.^.H.+.p #X6X1X^.^.^.^.^.^.^.^.^.^.z.d.6X^.^.^.^.^.^.^.^.^.^.H.;.;.c ..R.;.;.J * 3 3 3 3 3 3 3 3 3 3 3 ",
"3 3 3 3 3 3 3 3 3 3 7 p ^.^.H.+.p #X6X1X^.^.^.^.^.^.^.^.^.^.z.d.6X^.^.^.^.^.^.^.^.^.^.H.;.;.c ..R.;.;.J * 3 3 3 3 3 3 3 3 3 3 3 ",
"3 3 3 3 3 3 3 3 3 3 7 p ^.^.H.+.p #X6X1X^.^.^.^.^.^.^.^.^.^.z.d.6X^.^.^.^.^.^.^.^.^.^.H.;.;.c ..R.;.;.J * 3 3 3 3 3 3 3 3 3 3 3 ",
"3 3 3 3 3 3 3 3 3 3 7 p ^.^.H.+.p #X6X1X^.^.^.^.^.^.^.^.^.^.z.d.6X^.^.^.^.^.^.^.^.^.^.H.;.;.c ..R.;.;.J * 3 3 3 3 3 3 3 3 3 3 3 ",
"3 3 3 3 3 3 3 3 3 3 7 p ^.^.H.+.p #X6X1X^.^.^.^.^.^.^.^.^.^.z.d.6X^.^.^.^.^.^.^.^.^.^.H.;.;.c ..R.;.;.J * 3 3 3 3 3 3 3 3 3 3 3 ",
"3 3 3 3 3 3 3 3 3 3 7 p ^.^.H.+.p #X6X1X^.^.^.^.^.^.^.^.^.^.z.d.6X^.^.^.^.^.^.^.^.^.^.H.;.;.c ..R.;.;.J * 3 3 3 3 3 3 3 3 3 3 3 ",
"3 3 3 3 3 3 3 3 3 3 7 p ^.^.H.+.p #X6X1X^.^.^.^.^.^.^.^.^.^.z.d.6X^.^.^.^.^.^.^.^.^.^.H.;.;.c ..R.;.;.J * 3 3 3 3 3 3 3 3 3 3 3 ",
"3 3 3 3 3 3 3 3 3 6 ~ l.XX_.H.+.p #X6X1X^.^.^.^.^.^.^.^.^.^.z.d.6X^.^.^.^.^.^.^.^.^.^.H.;.;.c ..R.;.x.8.%.. 2 3 3 3 3 3 3 3 3 3 ",
"3 3 3 3 3 3 3 3 5 ! V.6X6X`.H.+.p #X6X1X^.^.^.^.^.^.^.^.^.^.z.d.6X^.^.^.^.^.^.^.^.^.^.H.;.;.c ..R.;.I.^.P.I r 9 3 3 3 3 3 3 3 3 ",
"3 3 3 3 3 3 3 3 p OX6X6X6X`.H.+.p #X6X1X^.^.^.^.^.^.^.^.^.^.z.d.6X^.^.^.^.^.^.^.^.^.^.H.;.;.c ..R.;.I.^.^.^.B o 3 3 3 3 3 3 3 3 ",
"3 3 3 3 3 3 3 3 a +X6X6X_./.H.+.p #X6X1X^.^.^.^.^.^.^.^.^.^.z.d.6X^.^.^.^.^.^.^.^.^.^.H.;.;.c ..R.;.:.A.^.^.N X 3 3 3 3 3 3 3 3 ",
"3 3 3 3 3 3 3 3 i N. X X^.^.H.+.p #X6X1X^.^.^.^.^.^.^.^.^.^.z.d.6X^.^.^.^.^.^.^.^.^.^.H.;.;.c ..R.;.;.3.z.z.l . 3 3 3 3 3 3 3 3 ",
"3 3 3 3 3 3 3 3 i r.^.^.^.^.H.+.p #X6X1X^.^.^.^.^.^.^.^.^.^.z.d.6X^.^.^.^.^.^.^.^.^.^.H.;.;.c ..R.;.;.;.;.;.j . 3 3 3 3 3 3 3 3 ",
"3 3 3 3 3 3 3 3 a r.^.^.^.^.H.+.p #X6X1X^.^.^.^.^.^.^.^.^.^.z.d.6X^.^.^.^.^.^.^.^.^.^.H.;.;.c ..R.;.;.;.;.;.j . 3 3 3 3 3 3 3 3 ",
"3 3 3 3 3 3 3 3 a r.^.^.^.^.H.+.p #X6X1X^.^.^.^.^.^.^.^.^.^.z.d.6X^.^.^.^.^.^.^.^.^.^.H.;.;.c ..R.;.;.;.;.;.j . 3 3 3 3 3 3 3 3 ",
"3 3 3 3 3 3 3 3 p t.^.^.^.^.H.+.p #X6X1X^.^.^.^.^.^.^.^.^.^.z.d.6X^.^.^.^.^.^.^.^.^.^.H.;.;.c ..R.;.;.;.;.;.j . 3 3 3 3 3 3 3 3 ",
"3 3 3 3 3 3 3 3 p &.J.J.J.J.0.' p '.-XoXJ.J.J.J.J.J.J.J.J.J.6.e.-XJ.J.J.J.J.J.J.J.J.J.0. . .b T n. . . . . .d . 3 3 3 3 3 3 3 3 ",
"3 3 3 3 3 3 3 3 p ` ;.;.;.;. .F p F.^.R.;.;.;.;.;.;.;.;.;.;.;.7.^.;.;.;.;.;.;.;.;.;.;. .K K f S =.K K K K K s . 3 3 3 3 3 3 3 3 "
};
