/* XPM */
static char *result[] = {
/* columns rows colors chars-per-pixel */
"64 64 176 2 ",
"   c #E82000",
".  c #E92500",
"X  c #E92800",
"o  c #EB3000",
"O  c #EA3100",
"+  c #EC3600",
"@  c #EE4100",
"#  c #EE4400",
"$  c #EC4E00",
"%  c #EC540C",
"&  c #F15400",
"*  c #F25700",
"=  c #EC5610",
"-  c #F06100",
";  c #F36200",
":  c #F46200",
">  c #F16900",
",  c #F66D00",
"<  c #F47100",
"1  c #F57100",
"2  c #F27500",
"3  c #F07C00",
"4  c #F37E00",
"5  c #F47D00",
"6  c #F87800",
"7  c #F87B00",
"8  c #F87E00",
"9  c #F78200",
"0  c #F28700",
"q  c #F48600",
"w  c #F88100",
"e  c #F88400",
"r  c #F78E00",
"t  c #F88A00",
"y  c #F88D00",
"u  c #F69700",
"i  c #F89000",
"p  c #F89600",
"a  c #F89C00",
"s  c #F89F00",
"d  c #F8920C",
"f  c #EE8012",
"g  c #EE8612",
"h  c #F58710",
"j  c #F08A1C",
"k  c #F88818",
"l  c #F89810",
"z  c #F7A000",
"x  c #F7A600",
"c  c #F8A200",
"v  c #F8A500",
"b  c #F8A800",
"n  c #F8AB00",
"m  c #F8AE00",
"M  c #F8AD04",
"N  c #F3A609",
"B  c #F3A909",
"V  c #F8B400",
"C  c #F8B004",
"Z  c #F8BD00",
"A  c #F8B208",
"S  c #F8BA0C",
"D  c #EEAA12",
"F  c #EEB012",
"G  c #F8BC10",
"H  c #DF922D",
"J  c #DA9036",
"K  c #DA9C36",
"L  c #D5943F",
"P  c #E48824",
"I  c #F08C20",
"U  c #DFA42D",
"Y  c #DFAD2D",
"T  c #DAAE36",
"R  c #E4AC24",
"E  c #F7B320",
"W  c #F8B820",
"Q  c #F8B83C",
"!  c #F8C000",
"~  c #F8C600",
"^  c #F8C900",
"/  c #F8CC00",
"(  c #F8C408",
")  c #F8D200",
"_  c #F8D800",
"`  c #F8DA04",
"'  c #F8DC08",
"]  c #F8CE10",
"[  c #EED412",
"{  c #F8DA10",
"}  c #F8DC14",
"|  c #F8E010",
" . c #F8E418",
".. c #F8E61C",
"X. c #DAD03E",
"o. c #F8DA28",
"O. c #F8D830",
"+. c #F8E820",
"@. c #F8E628",
"#. c #F8EC28",
"$. c #F8EE2C",
"%. c #F8EE38",
"&. c #F8F030",
"*. c #F8F438",
"=. c #F8F63C",
"-. c #BCA86C",
";. c #BCB46C",
":. c #B7AC75",
">. c #B7B575",
",. c #B2B07E",
"<. c #B2B67E",
"1. c #D09848",
"2. c #D0B048",
"3. c #D0B348",
"4. c #C6A05A",
"5. c #C6B25A",
"6. c #C6BE5A",
"7. c #C1A463",
"8. c #C1B363",
"9. c #BCC06C",
"0. c #BCC474",
"q. c #BCC87C",
"w. c #D0C848",
"e. c #C6C15A",
"r. c #C6C45A",
"t. c #F8C854",
"y. c #F8E94C",
"u. c #EEF04A",
"i. c #F8F344",
"p. c #F8F840",
"a. c #F8F848",
"s. c #E4E854",
"d. c #F8F850",
"f. c #F8F458",
"g. c #F8F858",
"h. c #D0D868",
"j. c #C6D072",
"k. c #F8D060",
"l. c #F8C878",
"z. c #F8DF74",
"x. c #F8DA78",
"c. c #DAE06E",
"v. c #F8F860",
"b. c #F3F475",
"n. c #F8F870",
"m. c #F8F878",
"M. c #ADB487",
"N. c #ADB787",
"B. c None",
"V. c #B2C086",
"C. c #B2C096",
"Z. c #B7C499",
"A. c #BCC89C",
"S. c #D0D888",
"D. c #C1CC9F",
"F. c #E9D493",
"G. c #E9EC8F",
"H. c #F3F485",
"J. c #F8F880",
"K. c #EEF09A",
"L. c #F8F890",
"P. c #F8F898",
"I. c #C6D0A2",
"U. c #CBD4A5",
"Y. c #D0D8A8",
"T. c #D5DCAB",
"R. c #DAE0AE",
"E. c #F8E8A8",
"W. c #F8F8A0",
"Q. c #E4E8B4",
"!. c #E9ECB7",
"~. c #F3ECB1",
"^. c #EEF0BA",
"/. c #F8F8B0",
"(. c #F3F4BD",
"). c #F8F8C0",
/* pixels */
"B.B.B.B.B.B.B.B.B.B.B.B.B.B.B.B.B.B.B.B.B.B.B.B.B.B.B.B.B.B.B.B.B.B.B.B.B.B.B.B.B.B.B.B.B.B.B.B.B.B.B.B.B.B.B.B.B.B.B.B.B.B.B.B.",
"B.B.B.B.B.B.B.B.B.B.B.B.B.B.B.B.B.B.B.B.B.B.B.B.B.B.B.B.B.B.B.B.B.B.B.B.B.B.B.B.B.B.B.B.B.B.B.B.B.B.B.B.B.B.B.B.B.B.B.B.B.B.B.B.",
"B.B.B.B.B.B.B.B.B.B.B.B.B.B.B.B.B.B.B.B.B.B.B.B.B.B.B.B.B.B.B.B.B.B.B.B.B.B.B.B.B.B.B.B.B.B.B.B.B.B.B.B.B.B.B.B.B.B.B.B.B.B.B.B.",
"B.B.B.B.B.B.B.B.B.B.B.B.B.B.B.B.B.B.B.B.B.B.B.B.B.B.B.B.B.B.B.B.B.B.B.B.B.B.B.B.B.B.B.B.B.B.B.B.B.B.B.B.B.B.B.B.B.B.B.B.B.B.B.B.",
"B.B.B.B.B.B.B.B.B.B.B.B.B.B.B.B.B.B.B.B.B.B.B.B.B.B.B.B.B.B.B.B.B.B.B.B.B.B.B.B.B.B.B.B.B.B.B.B.B.B.B.B.B.B.B.B.B.B.B.B.B.B.B.B.",
"B.B.B.B.B.B.B.B.B.B.B.B.B.B.B.B.B.B.B.B.B.B.B.B.B.B.B.B.B.B.B.B.B.B.B.B.B.B.B.B.B.B.B.B.B.B.B.B.B.B.B.B.B.B.B.B.B.B.B.B.B.B.B.B.",
"B.B.B.B.B.B.B.B.B.B.B.B.B.B.B.B.B.B.B.B.B.B.B.B.B.B.B.B.B.B.B.B.B.B.B.B.B.B.B.B.B.B.B.B.B.B.B.B.B.B.B.B.B.B.B.B.B.B.B.B.B.B.B.B.",
"B.B.B.B.B.B.B.B.B.B.B.B.B.B.B.B.B.B.B.B.B.B.B.B.B.B.B.B.B.B.B.B.B.B.B.B.B.B.B.B.B.B.B.B.B.B.B.B.B.B.B.B.B.B.B.B.B.B.B.B.B.B.B.B.",
"B.B.B.B.B.B.B.B.B.B.B.B.B.B.B.B.B.B.B.B.B.B.B.B.B.B.B.B.B.B.B.B.B.B.B.B.B.B.B.B.B.B.B.B.B.B.B.B.B.B.B.B.B.B.B.B.B.B.B.B.B.B.B.B.",
"B.B.B.B.B.B.B.B.B.B.B.B.B.B.B.B.B.B.B.B.B.B.B.B.B.B.B.B.B.B.B.B.B.B.B.B.B.B.B.B.B.B.B.B.B.B.B.B.B.B.B.B.B.B.B.B.B.B.B.B.B.B.B.B.",
"B.B.B.B.B.B.B.B.B.B.B.B.B.B.B.B.B.B.B.B.B.B.B.B.B.B.B.Z.Q.Q.Q.Q.Q.Y.B.B.B.B.B.4.P 4.B.B.B.B.B.B.B.B.B.B.B.B.B.B.B.B.B.B.B.B.B.B.",
"B.B.B.B.B.B.B.B.B.B.B.B.B.B.B.B.B.B.B.B.B.B.B.B.B.B.B.A.).).).).).R.B.B.B.B.B.1.6 1.B.B.B.B.B.B.B.B.B.B.B.B.B.B.B.B.B.B.B.B.B.B.",
"B.B.B.B.B.B.B.B.B.B.B.B.B.B.B.B.B.B.B.B.B.B.B.B.B.q.u.u.d.d.d.m.).(.^.^.^.T.B.M.,.1.f f f 7.B.B.B.B.B.B.B.B.B.B.B.B.B.B.B.B.B.B.",
"B.B.B.B.B.B.B.B.B.B.B.B.B.B.B.B.B.B.B.B.B.B.B.B.B.q.p.p.p.p.p.n.).).).).).R.B.B.B.1.6 6 6 4.B.B.B.B.B.B.B.B.B.B.B.B.B.B.B.B.B.B.",
"B.B.B.B.B.B.B.B.B.B.B.B.B.B.B.B.B.B.B.<.D F [ [ [ [ ' ' '  .p.a.d.d.d.d.d.b.^.U.B.1.6 y c N D 8.B.B.B.B.B.B.B.B.B.B.B.B.B.B.B.B.",
"B.B.B.B.B.B.B.B.B.B.B.B.B.B.B.B.B.B.B.<.b m _ _ _ _ _ _ _ | p.p.p.p.p.p.p.n.).Y.B.1.6 i b b b 5.B.B.B.B.B.B.B.B.B.B.B.B.B.B.B.B.",
"B.B.B.B.B.B.B.B.B.B.B.B.B.B.B.B.B.<.D D b m _ ' *.*.*.*.*.*.p.p.p.p.p.p.p.a.d.H.^.~.E.t.b b b B D 8.B.B.B.B.B.B.B.B.B.B.B.B.B.B.",
"B.B.B.B.B.B.B.B.B.B.B.B.B.B.B.B.B.<.b b b m _ ' p.p.p.p.p.p.p.p.p.p.p.p.p.p.p.J.).).).k.b b b b b 5.B.B.B.B.B.B.B.B.B.B.B.B.B.B.",
"B.B.B.B.B.B.B.B.B.B.B.B.B.B.B.B.f g b b b A *.*.p.p.p.p.p.p.p.p.p.$.' ' ' ..p.a.d.d.d.i.%.} ) ) ) e.B.B.B.B.B.B.B.B.B.B.B.B.B.B.",
"B.B.B.B.B.B.B.B.B.B.B.B.B.B.B.B.6 8 b b b A p.p.p.p.p.p.p.p.p.p.p.#._ _ _  .p.p.p.p.p.p.p. ._ _ _ r.B.B.B.B.B.B.B.B.B.B.B.B.B.B.",
"B.B.B.B.B.B.B.B.B.B.B.B.B.B.B.B.6 6 6 k )./.p.p.p.&._ | p.p.p.p.p.#._ _ _ _ _ _ _ +.p.p.p.p.p. ._ r.B.B.B.B.B.B.B.B.B.B.B.B.B.B.",
"B.B.B.B.B.B.B.B.B.B.B.B.B.B.B.B.6 6 6 k )./.p.p.p.&._ | p.p.p.p.p.#._ _ _ _ _ _ _ +.p.p.p.p.p. ._ r.B.B.B.B.B.B.B.B.B.B.B.B.B.B.",
"B.B.B.B.B.B.B.B.B.B.B.B.6 6 B.B.B.C.)./.p.*._ _ _ _ _ / b b b b b b b p 6 t b ! _ +.p.p.p. ._ #.p.j.B.B.B.B.B.B.B.B.B.B.B.B.B.B.",
"B.B.B.B.B.B.B.B.B.B.B.B.6 6 B.B.B.C.)./.p.*._ _ _ _ _ / b b b b b b b p 6 t b ! _ +.p.p.p. ._ #.p.j.B.B.B.B.B.B.B.B.B.B.B.B.B.B.",
"B.B.B.B.B.B.B.B.B.B.B.B.B.B.B.B.)./.p.p.p.*._ _ _ / b a 6 6 6 6 6 t b p 6 6 6 W p.p.p.p.p. ._ #.p.L.).A.B.B.B.B.B.B.B.B.B.B.B.B.",
"B.B.B.B.B.B.B.B.B.B.B.B.B.B.C.C./.W.p.p.*.&._ _ ) ^ b a 6 6 6 6 6 9 u r 6 6 6 W p.p.p.p.p...' $.p.L.).A.B.B.B.B.B.B.B.B.B.B.B.B.",
"B.B.B.B.B.B.B.B.B.B.B.B.B.B.).).p.p.p.*._ _ _ ) b b b a 6 6 6 6 6 *   @ 6 6 6 W p.p.p.p.p.p.p.p.p.L.).A.B.B.B.B.B.B.B.B.B.B.B.B.",
"B.B.B.B.B.B.B.B.B.B.B.B.B.B.).).p.p.p.*._ _ _ ) m n b a 6 6 6 7 8 ; O # , , , E p.p.p.p.p.p.p.a.d.P.).A.B.B.B.B.B.B.B.B.B.B.B.B.",
"B.B.B.B.B.B.B.B.B.B.B.B.B.B.).).p.p.p.*._ _ _ _ _ / b a 6 6 6 t b b b 2       I p.p.p.p.p.p.p.L.).).).A.B.B.B.B.B.B.B.B.B.B.B.B.",
"B.B.B.B.B.B.B.B.B.B.B.B.C.C.).).p.p.p.*.' ' ' ' _ / b s 8 w e i b b b 4 O X   j *.*.*.=.p.p.p.L.).(.^.A.B.B.B.B.B.B.B.B.B.B.B.B.",
"B.B.B.B.B.B.B.B.B.B.B.B.).).).).p.p.p.p.p.p.p.*._ / b b b V _ ~ b b b b b 2   3 _ _ _ +.p.p.p.L.).I.B.B.B.B.B.B.B.B.B.B.B.B.B.B.",
"B.B.B.B.B.B.B.B.B.B.B.B.).)././.p.p.p.p.p.p.p.*.) ^ b z u x / Z c v b b b 2   3 _ _ _ +.p.p.p.L.).I.B.B.B.,.,.B.B.B.B.B.B.B.B.B.",
"B.B.B.B.B.B.B.B.B.B.B.B.).).p.p.p.p.p.p.p.p.p.%.b b b q   + 6 6 6 t b b b 2   3 _ _ _ +.p.p.p.L.).I.B.B.B.P 6 -.B.B.B.B.B.B.B.B.",
"B.B.B.B.B.B.B.B.B.B.B.B.).).p.p.&.&.p.p.p.p.p.%.b v a 5   o : : : < q q q - + 0 _ ' | #.p.d.v.K.Q.A.B.B.B.L P :.B.B.B.B.B.B.B.B.",
"B.B.B.B.B.B.B.B.B.B.B.B.).).p.p._ ' p.p.p.p.p.%.b a 6 :                   @ 6 b _ +.p.p.p.L.).I.B.B.B.B.B.B.B.B.B.B.B.B.B.B.B.B.",
"B.B.B.B.B.B.B.B.B.B.B.B.Q.Q.p.p._ ' p.p.p.p.&.@.b s e 1 + o           . + & e m _ +.p.d.v.K.Q.A.B.,.-.M.B.B.B.B.B.B.B.B.B.B.B.B.",
"B.B.B.B.B.B.B.B.B.B.B.B.B.B.p.p._ ' p.p.p.*._ ) b b b a 6 :           @ 6 t b ! _ +.p.J.).I.B.B.B.J 6 -.B.B.B.B.B.B.B.B.B.B.B.B.",
"B.B.B.B.B.B.B.B.B.B.B.B.B.B.s.s.! ( O.O.v.f.| { G S V M l h = = = % $ > i s V ~ _ +.p.n.W.S.q.0.9.K P :.B.B.B.B.B.B.B.B.B.B.B.B.",
"B.B.B.B.B.B.B.B.B.B.B.B.B.B.B.B.6 6 6 k )./.p.p.p.&._ | p.p.p.p.p.#._ _ _ _ _ _ _ +.p.p.p.p.p. ._ r.B.B.B.B.B.B.B.B.B.B.B.B.B.B.",
"B.B.B.B.B.B.B.B.B.B.B.B.B.B.B.B.6 7 t d x.z.p.p.p.*. .+.p.p.p.p.p.#._ _ _ '  . . .$.p.p.p.&.#.| _ r.B.B.B.B.B.B.B.B.B.B.B.B.B.B.",
"B.B.B.B.B.B.B.B.B.B.B.B.B.B.B.B.6 8 b b b A p.p.p.p.p.p.p.p.p.p.p.#._ _ _  .p.p.p.p.p.p.p. ._ _ _ r.B.B.B.B.B.B.B.B.B.B.B.B.B.B.",
"B.B.B.B.B.B.B.B.B.B.B.B.B.B.B.B.J H b b b C #.$.p.p.p.p.p.p.p.p.p.&. . . .#.p.g.n.n.n.y.o.] ~ ~ ~ 6.B.B.B.B.B.B.B.B.B.B.B.B.B.B.",
"B.B.B.B.B.B.B.B.B.B.B.B.B.B.B.B.B.<.b b b m _ ' p.p.p.p.p.p.p.p.p.p.p.p.p.p.p.J.).).).k.b b b b b 5.B.B.B.B.B.B.B.B.B.B.B.B.B.B.",
"B.B.B.B.B.B.B.B.B.B.B.B.B.B.B.B.B.N.T Y b m _ ` #.#.#.#.#.&.p.p.p.p.p.p.p.d.n.G.R.F.l.Q b b b R T ;.B.B.B.B.B.B.B.B.B.B.B.B.B.B.",
"B.B.B.B.B.B.B.B.B.B.B.B.B.B.B.B.B.B.B.<.b m _ _ _ _ _ _ _ | p.p.p.p.p.p.p.n.).Y.B.1.6 i b b b 5.B.B.B.B.B.B.B.B.B.B.B.B.B.B.B.B.",
"B.B.B.B.B.B.B.B.B.B.B.B.B.B.B.B.B.B.B.N.2.3.w.w.w.X.+.+.+.#.p.g.J.J.J.J.J.G.Y.A.B.1.6 e i U 2.>.B.B.B.B.B.B.B.B.B.B.B.B.B.B.B.B.",
"B.B.B.B.B.B.B.B.B.B.B.B.B.B.B.B.B.B.B.B.B.B.B.B.B.q.p.p.p.p.p.n.).).).).).R.B.B.B.1.6 6 6 4.B.B.B.B.B.B.B.B.B.B.B.B.B.B.B.B.B.B.",
"B.B.B.B.B.B.B.B.B.B.B.B.B.B.B.B.B.B.B.B.B.B.B.B.B.V.h.c.J.J.J.P.).!.Y.Y.Y.D.B.-.1.1.1.1.1.:.B.B.B.B.B.B.B.B.B.B.B.B.B.B.B.B.B.B.",
"B.B.B.B.B.B.B.B.B.B.B.B.B.B.B.B.B.B.B.B.B.B.B.B.B.B.B.A.).).).).).R.B.B.B.B.B.1.6 1.B.B.B.B.B.B.B.B.B.B.B.B.B.B.B.B.B.B.B.B.B.B.",
"B.B.B.B.B.B.B.B.B.B.B.B.B.B.B.B.B.B.B.B.B.B.B.B.B.B.B.C.Y.Y.Y.Y.Y.D.B.B.B.B.B.-.1.-.B.B.B.B.B.B.B.B.B.B.B.B.B.B.B.B.B.B.B.B.B.B.",
"B.B.B.B.B.B.B.B.B.B.B.B.B.B.B.B.B.B.B.B.B.B.B.B.B.B.B.B.B.B.B.B.B.B.B.B.B.B.B.B.B.B.B.B.B.B.B.B.B.B.B.B.B.B.B.B.B.B.B.B.B.B.B.B.",
"B.B.B.B.B.B.B.B.B.B.B.B.B.B.B.B.B.B.B.B.B.B.B.B.B.B.B.B.B.B.B.B.B.B.B.:.1.7.B.B.B.B.B.B.B.B.B.B.B.B.B.B.B.B.B.B.B.B.B.B.B.B.B.B.",
"B.B.B.B.B.B.B.B.B.B.B.B.B.B.B.B.B.B.B.B.B.B.B.B.B.B.B.B.B.B.B.B.B.B.B.4.6 J B.B.B.B.B.B.B.B.B.B.B.B.B.B.B.B.B.B.B.B.B.B.B.B.B.B.",
"B.B.B.B.B.B.B.B.B.B.B.B.B.B.B.B.B.B.B.B.B.B.B.B.B.B.B.B.B.B.B.B.B.B.B.,.4.-.B.B.B.B.B.B.B.B.B.B.B.B.B.B.B.B.B.B.B.B.B.B.B.B.B.B.",
"B.B.B.B.B.B.B.B.B.B.B.B.B.B.B.B.B.B.B.B.B.B.B.B.B.B.B.B.B.B.B.B.B.B.B.B.B.B.B.B.B.B.B.B.B.B.B.B.B.B.B.B.B.B.B.B.B.B.B.B.B.B.B.B.",
"B.B.B.B.B.B.B.B.B.B.B.B.B.B.B.B.B.B.B.B.B.B.B.B.B.B.B.B.B.B.B.B.B.B.B.B.B.B.B.B.B.B.B.B.B.B.B.B.B.B.B.B.B.B.B.B.B.B.B.B.B.B.B.B.",
"B.B.B.B.B.B.B.B.B.B.B.B.B.B.B.B.B.B.B.B.B.B.B.B.B.B.B.B.B.B.B.B.B.B.B.B.B.B.B.B.B.B.B.B.B.B.B.B.B.B.B.B.B.B.B.B.B.B.B.B.B.B.B.B.",
"B.B.B.B.B.B.B.B.B.B.B.B.B.B.B.B.B.B.B.B.B.B.B.B.B.B.B.B.B.B.B.B.B.B.B.B.B.B.B.B.B.B.B.B.B.B.B.B.B.B.B.B.B.B.B.B.B.B.B.B.B.B.B.B.",
"B.B.B.B.B.B.B.B.B.B.B.B.B.B.B.B.B.B.B.B.B.B.B.B.B.B.B.B.B.B.B.B.B.B.B.B.B.B.B.B.B.B.B.B.B.B.B.B.B.B.B.B.B.B.B.B.B.B.B.B.B.B.B.B.",
"B.B.B.B.B.B.B.B.B.B.B.B.B.B.B.B.B.B.B.B.B.B.B.B.B.B.B.B.B.B.B.B.B.B.B.B.B.B.B.B.B.B.B.B.B.B.B.B.B.B.B.B.B.B.B.B.B.B.B.B.B.B.B.B.",
"B.B.B.B.B.B.B.B.B.B.B.B.B.B.B.B.B.B.B.B.B.B.B.B.B.B.B.B.B.B.B.B.B.B.B.B.B.B.B.B.B.B.B.B.B.B.B.B.B.B.B.B.B.B.B.B.B.B.B.B.B.B.B.B.",
"B.B.B.B.B.B.B.B.B.B.B.B.B.B.B.B.B.B.B.B.B.B.B.B.B.B.B.B.B.B.B.B.B.B.B.B.B.B.B.B.B.B.B.B.B.B.B.B.B.B.B.B.B.B.B.B.B.B.B.B.B.B.B.B.",
"B.B.B.B.B.B.B.B.B.B.B.B.B.B.B.B.B.B.B.B.B.B.B.B.B.B.B.B.B.B.B.B.B.B.B.B.B.B.B.B.B.B.B.B.B.B.B.B.B.B.B.B.B.B.B.B.B.B.B.B.B.B.B.B.",
"B.B.B.B.B.B.B.B.B.B.B.B.B.B.B.B.B.B.B.B.B.B.B.B.B.B.B.B.B.B.B.B.B.B.B.B.B.B.B.B.B.B.B.B.B.B.B.B.B.B.B.B.B.B.B.B.B.B.B.B.B.B.B.B."
};
