/* XPM */
static char *result[] = {
/* columns rows colors chars-per-pixel */
"64 64 198 2 ",
"   c #BD0808",
".  c #C40B07",
"X  c #CE0E06",
"o  c #C00C09",
"O  c #C41507",
"+  c #C51E07",
"@  c #C5120B",
"#  c #CA190C",
"$  c #CE1808",
"%  c #D61105",
"&  c #DD1304",
"*  c #DB1B04",
"=  c #D61B05",
"-  c #C11718",
";  c #D00F06",
":  c #E61703",
">  c #EE1A02",
",  c #E61903",
"<  c #F71D01",
"1  c #FB1F00",
"2  c #C52507",
"3  c #CE2206",
"4  c #CF200E",
"5  c #CD2B06",
"6  c #D52E05",
"7  c #D2220F",
"8  c #DE2504",
"9  c #CE3506",
"0  c #DD3D04",
"q  c #D93604",
"w  c #CE2416",
"e  c #D62810",
"r  c #ED2402",
"t  c #E82806",
"y  c #FF2000",
"u  c #FF2A00",
"i  c #FB2A08",
"p  c #E83D03",
"a  c #FF3400",
"s  c #FF3D00",
"d  c #FF3B0F",
"f  c #E3381B",
"g  c #C52727",
"h  c #D4382B",
"j  c #C93636",
"k  c #D83F30",
"l  c #D44305",
"z  c #D64B05",
"x  c #DA440A",
"c  c #DA5606",
"v  c #E64A03",
"b  c #ED4D03",
"n  c #FF4500",
"m  c #FF4900",
"M  c #F34E01",
"N  c #EF5602",
"B  c #E65907",
"V  c #FF5300",
"C  c #F35B02",
"Z  c #FF5C00",
"A  c #FF5E0D",
"S  c #E84518",
"D  c #F35319",
"F  c #DE6104",
"G  c #D96305",
"H  c #DE7D04",
"J  c #EF6702",
"K  c #F76401",
"L  c #FF6600",
"P  c #FE6C00",
"I  c #F76D01",
"U  c #FF7100",
"Y  c #FF7B00",
"T  c #F77B01",
"R  c #F36519",
"E  c #FB7C18",
"W  c #E67703",
"Q  c #DB422E",
"!  c #DB4B3C",
"~  c #EF4921",
"^  c #E7472A",
"/  c #F15F3D",
"(  c #D66327",
")  c #FF6929",
"_  c #CE4546",
"`  c #DA5956",
"'  c #E15C4C",
"]  c #E55A44",
"[  c #F55944",
"{  c #DC6658",
"}  c #FF7B44",
"|  c #F37658",
" . c #E2685A",
".. c #D66364",
"X. c #E67769",
"o. c #EF8D02",
"O. c #E68C03",
"+. c #FF8300",
"@. c #FF8C00",
"#. c #F98F0C",
"$. c #E69703",
"%. c #FF9400",
"&. c #FF9D00",
"*. c #FF9C0F",
"=. c #FB8710",
"-. c #FD9516",
";. c #F7A301",
":. c #FFA600",
">. c #FEAB00",
",. c #EFB802",
"<. c #FFB100",
"1. c #FFBA00",
"2. c #FDBB0B",
"3. c #F8B307",
"4. c #FFBC17",
"5. c #EBA602",
"6. c #F79F21",
"7. c #FFB635",
"8. c #FFC200",
"9. c #FFCC00",
"0. c #FFC20D",
"q. c #FAC807",
"w. c #F7D601",
"e. c #FFD600",
"r. c #FEDD01",
"t. c #FFCA1B",
"y. c #FFD814",
"u. c #FFE400",
"i. c #FFED00",
"p. c #FFE60D",
"a. c #FFF300",
"s. c #FFF40D",
"d. c #FFE61B",
"f. c #FFF51A",
"g. c #FFC221",
"h. c #FFD228",
"j. c #FFC630",
"k. c #FFCB3C",
"l. c #FFDA35",
"z. c #FED331",
"x. c #FFE928",
"c. c #FFF420",
"v. c #FFF628",
"b. c #FFE636",
"n. c #FFF735",
"m. c #FF9A50",
"M. c #FFB840",
"N. c #F58C74",
"B. c #F9AF6C",
"V. c #FFC941",
"C. c #FFCE50",
"Z. c #FFDB50",
"A. c #FFE243",
"S. c #FFEE46",
"D. c #FFF441",
"F. c #FFF843",
"G. c #FFF54A",
"H. c #FFEA5D",
"J. c #FFF950",
"K. c #FFF35E",
"L. c #FFFA5E",
"P. c #FFD260",
"I. c #FFFB6B",
"U. c #FFF862",
"Y. c #FFFA7D",
"T. c #DE8183",
"R. c #FF8D80",
"E. c #EA9187",
"W. c #ED9489",
"Q. c #F49789",
"!. c #E39193",
"~. c #FFB680",
"^. c #FAA894",
"/. c #FFB294",
"(. c #EFAB85",
"). c #E6A0A3",
"_. c #EFACA5",
"`. c #F7B6AA",
"'. c #FFDA80",
"]. c #FFDF90",
"[. c #FFF780",
"{. c #FFE29F",
"}. c #FFF79E",
"|. c #FEC2AE",
" X c #FFE2A0",
".X c #FFFABA",
"XX c #FFFBA2",
"oX c #EFBEC1",
"OX c #F5C6C3",
"+X c #FACDC6",
"@X c #F5D5CF",
"#X c #FFF8DD",
"$X c #F7DDE0",
"%X c #FAE1E1",
"&X c #FFE9E4",
"*X c #FFFBE9",
"=X c #FFFBFF",
"-X c None",
/* pixels */
"-X-X-X-X-X-X-X-X-X-X-X-X-X-X-X-X-X-X-X-X-X-X-X-X-Xy y -X-Xy y -X-X-X-X-X-X-X-X-X-X-X-X-X-X-X-X-X-X-X-X-X-X-X-X-X-X-X-X-X-X-X-X-X",
"-X-X-X-X-X-X-X-X  % y y y -X-X-X-X-X-X-X-X-XU -X-X-Xy y y y y y y y -X-X-X-X-X-X-X-X-X-X-X-X-X-X-X  -X-X-X-X-X-X-X-X-X-X-X-X-X-X",
"-X-X-X-X-X-X-X-X  ; 1 y y 1 -X-X-X-X-X-X-XU U -X-X-X-Xy y y y y y 1 y -X-X-X-X-X-X-X-X-X-X-X-X-X    -X-X-X-X-X-X-X-X-X-X-X-X-X-X",
"-X-X-X-X-X-Xy :   : y y y ,   -X-X-Xy -X-Xm n u y .   y 1 y y y < : : y -X-X-X-X-X-X-XU -X-X-X-X& & X   -X-X-X-X-X-X-X-X-X-X-X-X",
"-X-X-X-X-X-Xy y -X-Xy y y &   -X-Xy y -X-Xy y y y .   -X-Xy 1 y <   X 1 y -X-X-X-X-XU U -X-X-X-Xy y X   -X-X-X-X-X-X-X-X-X-X-X-X",
"-X-X-X-X-X-X-X-X-X-Xy a V M v 6   > y y y y 1 & % : :     % * V m : & % & -X-XU m y a s -X-X-X-X-X-X> : -X-X-X-X-X-X-X-X-X-X-X-X",
"-X-X-X-X-X-X-X-X-X-Xy m U P U 6   : y y y y 1 .   < y       O P L y <     -X-XU m y y y -X-X-X-X-X-Xy y -X-X-X-X-X-X-X-X-X-X-X-X",
"-X-X-X-X-X-X-X-Xy y y m U @.&.b : < y m V a -X, : % % v v : > n a y < : &   8 s u y y y y y y y -X-X-X-XL U -X-X-X-X-X-X-X-X-X-X",
"-X-X-X-X-X-X-X-Xy y 1 n U %.1.Z y y y Z U -X-Xy y .   U U y y y u y y y >   % 1 1 y y y y y y y -X-X-X-XU U -X-X-X-X-X-X-X-X-X-X",
"-X-X-X-X-X-Xy > ; 8 Z v 3 v +.n y n Z -X-X-X-XZ Z r > 3 3 %.@.Z V X X X % < < 1 1 y y y y y y y -X-X-X-Xa a L U -X-X-X-X-X-X-X-X",
"-X-X-X-X-X-Xy :   6 U 0   0 U s y V U -X-X-X-XU U u y     1.>.U K       X 1 y y y y 1 y y y y y -X-X-X-Xu 1 L U -X-X-X-X-X-X-X-X",
"-X-X-X-X-X-XZ C N K -X-X-XC U L Z P U -X-X-X-X-X-X% X > > 1.1.>.&.N N N C K Z Z s y y y n Z m -X-X-XU U u y L U U U -X-X-X-X-X-X",
"-X-X-X-X-X-XU U U U -X-X-XU U U U U U -X-X-X-X-X-X    y y 1.1.1.<.U U U U U U U m y 1 y V U -X-X-X-XU U u y L U U U -X-X-X-X-X-X",
"-X-X-X-X-X-XU U -X-X-X-X-Xu u V U -X-X-X-X-X-X    > < . . Y +.1.<.U @.u.d.H.b.u.8.:.@.L -X-X-X-Xy y u u y y u u U U -X-X-X-X-X-X",
"-X-X-X-X-X-XU U -X-X-X-X-Xy y V U -X-X-X-X-X-X    < y     U Y 1.<.U %.a.f.I.F.a.e.1.%.U -X-X-X-Xy y 1 1 y y y y U U -X-X-X-X-X-X",
"-X-X    -X-X-X-X-X-X-X-X-X-X-X-X-X-X-X-X-Xy y < < Z L K K U U Y Y U %.a.D.*X*X#XXXK.x.u.P y -X-Xy 1 1 1 y y Z L U U U U -X-X-X-X",
"-X-X    -X-X-X-X-X-X-X-X-X-X-X-X-X-X-X-X-Xy y y y L U U U U U U U U %.a.F.=X=X=X.XI.n.a.P y -X-Xy y y y y y L U U U U U -X-X-X-X",
"y <   X y >     -X-XU U U m y -X-X-X-X-X-Xy y L U <.1.1.1.U Y 1.<.U P U -.I.I.I.n.a.e.1.Z y -X-Xy y 1 y L U u y U U U U -X-X-X-X",
"y <   X y >     -X-XU U U m 1 -X-X-X-X-X-Xy y L U <.1.1.1.U Y 1.<.U U U -.I.I.I.n.a.e.1.Z 1 -X-Xy y y y L U u y U U U U -X-X-X-X",
"  . y >   X y y y y 1 m U U U s y y y Z U U U U U <.1.1.1.1.0.I.U.a.a.a.f.I.A.1.l.I.I.I.v.a.U y y y y y y y L U U U U U -X-X-X-X",
"  . < > . X < 1 y u u V Y U U s 1 u u L Y L L U U <.1.0.0.8.q.L.J.c.c.c.n.Y.Z.>.z.L.L.L.x.e.L y y y u u u u L U U U Y Y -X-X-X-X",
"      X y >   % 1 s P %.1.%.U s 1 V U >.1.m y L U <.1.I.I.a.a.a.c.=X=X=X=X=X`.~ *.a.a.a.P 1 y y y y Z U U U U U U U 1.1.-X-X-X-X",
"    . X < < . & y n Y &.1.%.U n u Z Y %.>.m y L U 2.0.U.U.r.u.c.n.%X%X%X%X%X`./ 6.u.w.w.I a u y < < V I U U Y Y U U <.<.-X-X-X-X",
"-X-X1 >   X y 1 1 Z 1.1.1.%.U P P &.1.n y y y L U H.I.a.a.~ / =X%Xe e e e 7 X.=X^.~ e   W ,.J e @   # e K U <.1.U U U U -X-X-X-X",
"-X-X< : ; & y y y V >.<.1.:.+.+.+.<.9.m 1 s n Y +.S.J.,.,.| N.OX_.w # 7 4 4 { OX^.| k   c o.x 4 o   # 7 N C &.:.U U +.+.-X-X-X-X",
"      X y y y y y s U %.1.1.1.1.1.r.a.V 1 %.1.1.1.i.a.    =X%Xe 7           @ e E.=XT.                  e e I U U U 1.1.-X-X-X-X",
"    X = a u 1 u a V +.:.8.8.1.8.8.p.f.U n &.1.q.9.q.,.    =X%Xe 7   - _ j   @ e E.=XT.                  # w K U +.+.>.:.-X-X-X-X",
"  . 1 a U Z 1 s U @.1.e.a.e.1.r.a.F.I.t.1.1.1.i.a.2       =X%Xe e   _ =XoX. @ e W.=XT.                      K U 1.1.U U -X-X-X-X",
"  . : r V V s V U +.:.1.r.y.h.x.v.b.A.y.e.9.9.5.$.        =X%Xe 7   g ).T.  @ e E.=XE.e l z z z = % .       T @.&.&.@.@.-X-X-X-X",
"      ; 1 a U U U U U %.1.l.I.I.I.h.1.u.a.a.a.2           =X%Xe 7           @ e E.=XB.U &.1.1.1.m y X       ;.1.U U 1.1.-X-X-X-X",
"  . % * s s V Z U U U %.1.Z.XXU.F.t.%.9.r.2.3.{ ..........|.|.X. .@ @ # @ @ h X.Q.^.m.@.M.P.g.1.A d X   l z <.1.U U 1.1.-X-X-X-X",
"  . 1 a U Z y s U U U %.1.'.=XU.a.:.U >.1.R ~ &X=X=X=X=X=X) } =X%Xe e e e e X.=XR.y P 1. X=XP.1.E ) w   ;.1.1.1.U U -X-X-X-X-X-X",
"  . & t U L n Z U Y %.4.l.H.Y.b.e.g.7.q.e.B.^.W.E.E.E.E.E././././.E.E.E.E.E.E.E.[ y P 1.C.'.j.1.*.-.S e c F <.1.%.%.U -X-X-X-X-X",
"-X-X  3 U U U U U @.1.l.I.n.a.9.1.A.I.f.a..X=XQ e e e e e =X&X) } =X=X=X=X=X_.e t y P 1.1.1.1.1.1.1.R ~ o   ;.1.1.1.U U -X-X-X-X",
"-X-X  3 U U U Y %.:.1.t.l.d.a.u.e.D.I.Y.[.(.E.w # # # # # E.W./.^.T.T.T.T.T.` # , y P 1.1.1.1.1.1.1.#.E O   ;.1.1.1.U U -X-X-X-X",
"-X-X  3 U U U @.1.1.1.1.1.e.a.a.a.F.I.#X=X' e o           e Q =X%X              & y P 1.1.1.1.1.1.1.1.1.+   ;.1.1.1.U U -X-X-X-X",
"-X-X-X= s n -X+.@.&.1.9.r.e.9.O.G ( ( @X=X' e o   !.).    e Q =X$X      j ).).).` % b @.:.1.1.1.1.1.1.1.2   q.r.1.1.U U -X-X-X-X",
"-X-X-X-Xy y -X-XP @.1.e.a.e.1.z       OX=X' e o   $X=X    e Q =X$X      _ =X=X=XT.  0 U &.1.1.1.1.1.1.1.+   w.a.1.1.U U -X-X-X-X",
"-X-X-X-X-X-X-X-Xa L 1.e.a.$.9 O       oX=X' e o   _ _     e Q =X$X  j oX@X=X=X=XT.  * a L +.:.1.1.1.E R o   w.a.1.1.U U -X-X-X-X",
"-X-X-X-X-X-X-X-X1 Z 1.e.a.H           oX=X' e             e Q =X$X  _ =X=X=X=X=XT.  : 1 V U &.1.1.1.R S @   w.a.1.1.U U -X-X-X-X",
"-X-X-X-X-X-Xy y -XU +.>.9.F           ] | `.OXh # 7 7 7 # OXOX' !   _ =X=X=XoX_ g   . X $ 3 p m m n a i .   3.9.1.1.U U -X-X-X-X",
"-X-X-X-X-X-Xy y -X-XU %.1.F           f ~ +X=XQ e e e e e =X%Xe 4   _ =X=X=X).              : y y 1 1 1 .   ;.1.1.1.U U -X-X-X-X",
"-X-X-X-X-X-X-X-X-X-XU %.1.F             @ ^ / OX%X%X%X%X%Xg g o       g g g -               . . . . . . N K <.1.1.1.-X-X-X-X-X-X",
"-X-X-X-X-X-X-X-X-X-XU %.1.F               f ~ &X=X=X=X=X=X                                              K U <.1.1.1.-X-X-X-X-X-X",
"-X-X-X-X-X-X-X-X-X-XU U Y P K 5             @ g g g g g g                                           N K U U <.1.Y Y -X-X-X-X-X-X",
"-X-X-X-X-X-X-X-X-X-XU U U U U 6                                                                     N P U U <.1.U U -X-X-X-X-X-X",
"-X-X-X-X-X-Xy y y s U U U U U &.1.1.1.9                                 X y y y y y y y %       N U U U <.1.Y U U U U U -X-X-X-X",
"-X-X-X-X-X-Xy y y s U U U U U &.1.1.1.9                                 X y y y y y y y %       N U U U <.1.Y U U U U U -X-X-X-X",
"-X-X  ; 1 y -X-Xy y u n U U U V.I.I.I.I.I.t.1.Y U O                 3 U +.1.1.1.1.1.%.U a 1 =   N U :.1.Y U <.1.U U -X-X-X-X-X-X",
"-X-X. $ u u -X-Xu u u m U U Y k.L.L.L.L.L.h.0.+.Y 5 + O O           3 Y =.g.2.1.1.1.%.Y m u =   K Y &.<.+.Y :.<.U U -X-X-X-X-X-X",
"  . y a U Z y s U U U U U %.1.r.a.a.a.a.a.J.I.0.1.1.1.P U           9 1.V.=X{.1.1.1.1.1.@.U 6   o.1.+.U <.1.Y U -X-XU U -X-X-X-X",
". ; u a P L u n U U U U Y &.8.r.i.a.a.s.s.D.K.t.0.1.1.+.+.2 2 @ @   9 1.j.*X{.1.1.1.1.1.%.Y q . o.1.+.U >.>.Y U -X-XU U -X-X-X-X",
"u u U U U U U U U U U %.1.e.a.e.1.e.a.J.I.t.1.K.I.0.1.a.a.a.r.~ S   9 1.1.1.1.1.1.1.1.1.1.1.Z y %.1.+.P U U U U U U -X-X-X-X-X-X",
"1 u Z L U U U U +.+.U %.1.9.u.1.>.9.u.G.I.t.1.U.I.0.1.f.f.e.1.D S 7 0 %.%.;.<.1.1.1.1.1.<.:.L V %.:.+.U U U U U P U -X-X-X-X-X-X",
"-X-Xy a U U U @.1.&.U %.1.1.1.@.U &.1.-X-X-X-XI.I.0.1.I.I.U U U U U Z y a U @.1.1.1.1.1.@.P 8.a.%.U -X-XU U U U -X-X-X-X-X-X-X-X",
"-X-Xy a P U U @.:.%.U @.:.:.>.+.U %.>.-X-X-X-XI.I.2.1.J.J.U U U U U L a n N I o.o.o.o.o.I Z 1.a.%.U -X-XU U U U -X-X-X-X-X-X-X-X",
"y y -X-X-X-XU U U U U U U U U U U U U :.1.-X-X-X-X-X-Xa.a.U U U U U U U N               , y :.i.-X-X-X-X-X-X-X-X-X-X-X-X-X-X-X-X",
"y y -X-X-X-XV Z U L V V V L U U U U U >.1.e.-X-X-X-X-X8.8.U U U U @.+.U I z z G z 6 6 6 t y :.a.-X-X-X-X-X-X-X-X-X-X-X-X-X-X-X-X",
"-X-X-X-X-X-X1 s U V y y 1 m U U U U U >.1.u.a.-X-X-X-XU U U U U Y 1.>.U +.1.e.a.<.U U U -X-X-X-X-X-X-X-X-X-X-X-X-X-X-X-X-X-X-X-X",
"-X-X-X-X-X-X1 n U m y y y V U +.@.@.@.1.e.u.a.-X-X-X-XU P U U U +.1.<.@.%.1.8.r.<.U U U -X-X-X-X-X-X-X-X-X-X-X-X-X-X-X-X-X-X-X-X",
"-X-X-X-X-X-X-X-X-X-X-X-X-XU U &.1.1.1.u.a.-X-X-X-XU U -X-XU U -X-X1.1.1.1.1.1.1.1.-X-X-X-X-X-X-X-X-X-X-X-X-X-X-X-X-X-X-X-X-X-X-X",
"-X-X-X-X-X-X-X-X-X-X-X-X-X-XU &.1.1.1.u.a.-X-X-X-X-XU -X-XU -X-X-X1.1.1.1.1.1.1.-X-X-X-X-X-X-X-X-X-X-X-X-X-X-X-X-X-X-X-X-X-X-X-X",
"-X-X-X-X-X-X-X-X-X-X-X-X-X-X-X-X-X-X-X-X-X-X-X-X-X-X-X-X-X-X-X-X-X-X-X-X-X-X-X-X-X-X-X-X-X-X-X-X-X-X-X-X-X-X-X-X-X-X-X-X-X-X-X-X",
"-X-X-X-X-X-X-X-X-X-X-X-X-X-X-X-X-X-X-X-X-X-X-X-X-X-X-X-X-X-X-X-X-X-X-X-X-X-X-X-X-X-X-X-X-X-X-X-X-X-X-X-X-X-X-X-X-X-X-X-X-X-X-X-X"
};
