/* XPM */
static char *result[] = {
/* columns rows colors chars-per-pixel */
"64 64 242 2 ",
"   c #BD0808",
".  c #C11307",
"X  c #C51E07",
"o  c #D62F05",
"O  c #CE3506",
"+  c #DA3B05",
"@  c #DE3C04",
"#  c #C52614",
"$  c #C5261F",
"%  c #D62810",
"&  c #FF2000",
"*  c #FF2A00",
"=  c #FF2B00",
"-  c #FF2F00",
";  c #FF3300",
":  c #FF3400",
">  c #FF3D00",
",  c #FF3E00",
"<  c #E53E16",
"1  c #E3391B",
"2  c #D64A05",
"3  c #DE450B",
"4  c #DA5605",
"5  c #FF4000",
"6  c #FF4600",
"7  c #FF4700",
"8  c #FF4800",
"9  c #FF4B00",
"0  c #FF5000",
"q  c #FF5300",
"w  c #FF5A00",
"e  c #FF5D00",
"r  c #F14E1C",
"t  c #F76401",
"y  c #FF6100",
"u  c #FF6700",
"i  c #FF6800",
"p  c #FF6A00",
"a  c #FB6F00",
"s  c #FF6F00",
"d  c #E67703",
"f  c #EA7108",
"g  c #FF7000",
"h  c #FF7100",
"j  c #FF7200",
"k  c #FF7A00",
"l  c #FF7E00",
"z  c #FF750B",
"x  c #EF4921",
"c  c #D6634C",
"v  c #DE7A41",
"b  c #EF8D02",
"n  c #EA860F",
"m  c #FF8100",
"M  c #FF8300",
"N  c #FF8400",
"B  c #FF8500",
"V  c #FF8700",
"C  c #FF8B00",
"Z  c DarkOrange",
"A  c #FF8E00",
"S  c #FF8109",
"D  c #FF9000",
"F  c #FF9100",
"G  c #FF9300",
"H  c #FF9500",
"J  c #FF9600",
"K  c #FF9E00",
"L  c #FF9F00",
"P  c #FFA300",
"I  c #FFA700",
"U  c #FFA507",
"Y  c #FFA800",
"T  c #FFAB00",
"R  c #FFAC00",
"E  c #FFAE00",
"W  c #FFAF00",
"Q  c #FFB100",
"!  c #FFB200",
"~  c #FFB600",
"^  c #FFB800",
"/  c #FFB900",
"(  c #FFBA00",
")  c #FFBE00",
"_  c #FFBE0C",
"`  c #DE8139",
"'  c #FFA13B",
"]  c #FFC100",
"[  c #FFC600",
"{  c #FFC700",
"}  c #FFC207",
"|  c #FFC800",
" . c #FFCF00",
".. c #FFC20D",
"X. c #FFD600",
"o. c #FFDA00",
"O. c #FFDD00",
"+. c #FFDE00",
"@. c #FFD40D",
"#. c #FFC217",
"$. c #FFC218",
"%. c #FFCA1A",
"&. c #FFD117",
"*. c #FFD11A",
"=. c #FFE200",
"-. c #FFE300",
";. c #FFE500",
":. c #FFEC00",
">. c #FFF300",
",. c #FFF40D",
"<. c #FFE71B",
"1. c #FFF417",
"2. c #FFF51B",
"3. c #FFCA24",
"4. c #FFCA25",
"5. c #FFCA2F",
"6. c #FFD922",
"7. c #FFD228",
"8. c #FFDA35",
"9. c #FFD13B",
"0. c #FFEB22",
"q. c #FFE82E",
"w. c #FFF420",
"e. c #FFF628",
"r. c #FFF52F",
"t. c #FFE535",
"y. c #FFED35",
"u. c #FFF734",
"i. c #FFF735",
"p. c #FFF63A",
"a. c #E2904A",
"s. c #EDA849",
"d. c #FFA547",
"f. c #F7BC48",
"g. c #EFBE52",
"h. c #DE8162",
"j. c #E29063",
"k. c #EFAE60",
"l. c #E6A079",
"z. c #EFAC7C",
"x. c #FFCA40",
"c. c #FFD247",
"v. c #FFD64B",
"b. c #FFC450",
"n. c #FFE243",
"m. c #FFED4F",
"M. c #FFF647",
"N. c #FFF747",
"B. c #FFF843",
"V. c #FFEB50",
"C. c #FFF950",
"Z. c #FFF35E",
"A. c #FFF75E",
"S. c #FFC76A",
"D. c #F7CC77",
"F. c #FDE562",
"G. c #FFF965",
"H. c #FFFA64",
"J. c #FFF368",
"K. c #FFF969",
"L. c #FFF96A",
"P. c #FFFB6B",
"I. c #FFFA6C",
"U. c #FFF86E",
"Y. c #FFE276",
"T. c #FFFB70",
"R. c #FFFB75",
"E. c #FFFB76",
"W. c #FFFB77",
"Q. c #FFF979",
"!. c #FFFA7D",
"~. c #FFFB7E",
"^. c #FFFB7F",
"/. c #FFC48E",
"(. c #FFCD8E",
"). c #FFDA80",
"_. c #FFD98E",
"`. c #FFE38F",
"'. c #FFEE89",
"]. c #FFEB8D",
"[. c #FFEB8E",
"{. c #FFF980",
"}. c #FFFA80",
"|. c #FFFB80",
" X c #FFFC80",
".X c #FFF68E",
"XX c #FFFB89",
"oX c #FFF98E",
"OX c #FFFB90",
"+X c #FFFB94",
"@X c #FFFA9A",
"#X c #FFFB9B",
"$X c #FFFB9E",
"%X c #FBCFBF",
"&X c #FFF3A5",
"*X c #FFFBA3",
"=X c #FFFAA5",
"-X c #FFFBA8",
";X c #FFFBAA",
":X c #FFFBAC",
">X c #FFFBAD",
",X c #FFFBB2",
"<X c #FFFBB3",
"1X c #FFFBB5",
"2X c #FFF9BB",
"3X c #FFFBBB",
"4X c #FFFBBD",
"5X c #FBCFC7",
"6X c #FFF7C2",
"7X c #FFF7C7",
"8X c #FFFBC1",
"9X c #FFFBC2",
"0X c #FFF9C5",
"qX c #FFFBC5",
"wX c #FFFBC7",
"eX c #FFFAC8",
"rX c #FFFBC9",
"tX c #FFFBCB",
"yX c #FFFBCD",
"uX c #FFFBCE",
"iX c #FFFBD2",
"pX c #FFFBD6",
"aX c #FFFBD9",
"sX c #FFFBDA",
"dX c #FFFBDE",
"fX c #FFFADF",
"gX c #FFF4E4",
"hX c #FFFBE3",
"jX c #FFF9E5",
"kX c #FFFBE5",
"lX c #FFFBE6",
"zX c #FFFBEA",
"xX c #FFFBEC",
"cX c #FFFBEF",
"vX c #FFFBF3",
"bX c #FFFBF7",
"nX c #FFFBFB",
"mX c #FFF9FF",
"MX c #FFFAFF",
"NX c #FFFBFF",
"BX c #FFFCFF",
"VX c None",
/* pixels */
"VXVXVXVXVXVXVXVXVXVXVXVXVXVXVXVXVXVXVXVXVXVXVXVXVXVXVXVXVXVXVXVXVXVXVXVXVXVXVXVXVXVXVXVXVXVXVXVXVXVXVXVXVXVXVXVXVXVXVXVXVXVXVXVX",
"VXVXVXVXVXVXVXVXVXVXVXVXVXVXVXVXVXVXVXVXVXVXVXVXVXVXVXVXVXVXVXVXVXVXVXVXVXVXVXVXVXVXVXVXVXVXVXVXVXVXVXVXVXVXVXVXVXVXVXVXVXVXVXVX",
"VXVXVXVXVXVXVXVXVXVXVXVXVXVXVXVXVXVXVXVXVXVXVXVXVXVXVXVXVXVXVXVXVXVXVXVXVXVXVXVXVXVXVXVXVXVXVXVXVXVXVXVXVXVXVXVXVXVXVXVXVXVXVXVX",
"VXVXVXVXVXVXVXVXVXVXVXVXVXVXVXVXVXVXVXVXVXVXVXVXVXVXVXVXVXVXVXVXVXVXVXVXVXVXVXVXVXVXVXVXVXVXVXVXVXVXVXVXVXVXVXVXVXVXVXVXVXVXVXVX",
"VXVXVXVXVXVXVXVXVXVXVXVXVXVXVXVXVXVXVXVXVXVXVXVXVXVXVXVXVXVXVXVXVXVXVXVXVXVXVXVXVXVXVXVXVXVXVXVXVXVXVXVXVXVXVXVXVXVXVXVXVXVXVXVX",
"VXVXVXVXVXVXVXVXVXVXVXVXVXVXVXVXVXVXVXVXVXVXVXVXVXVXVXVXVXVXVXVXVXVXVXVXVXVXVXVXVXVXVXVXVXVXVXVXVXVXVXVXVXVXVXVXVXVXVXVXVXVXVXVX",
"VXVXVXVXVXVXVXVXVXVXVXVXVXVXVXVXVXVXVXVXVXVXVXVXVXVXVXVXVXVXVXVXVXVXVXVXVXVXVXVXVXVXVXVXVXVXVXVXVXVXVXVXVXVXVXVXVXVXVXVXVXVXVXVX",
"VXVXVXVXVXVXVXg g VXVXVXVXVXVXVXVXVXVXVXVXVXVXVXVXVXVXVXVXVXVXVXVXVXVXVXVXVXVXVXVXVXVXVXVXVXVXVXVXVXVXVXVXVXVXVXVXVXVXVXVXVXVXVX",
"VXVXVXVXVXVXVXh h VXVXVXVXVXVXVXVXVXVXVXVXVXVXVXVXVXVXVXVXVXVXVXVXVXVXVXVXVXVXVXVXVXVXVXVXVXVXVXVXVXVXVXVXVXVXVXVXVXVXVXVXVXVXVX",
"VXVXVXVXVXVXVXVXVXVXVXVXVXVXVXVXVXVXVXVXVXVXVXVXVXVXVXVXVXVXVXVXVXVXVXVXVXVXVXVXVXVXVXVXVXVXVXVXVXVXVXVXVXVXVXVXVXVXVXVXVXVXVXVX",
"VXVXVXVXVXVXVXVXVXVXVXVXVXVXVXVXVXVXVXVXVXVXVXVXVXVXVXVXVXVXVXVXVXVXVXVXVXVXVXVXVXVXVXVXVXVXVXVXVXVXVXVXVXVXVXVXVXVXVXVXVXVXVXVX",
"VXVXVXVXVXVXVXVXVXVXVXVXVXVXVXVXVXVXVXVXVXVXVXVXVXVXVXVXVXVXVXVXVXVXVXVXVXVXVXVXVXVXVXVXVXVXVXVXVXVXVXVXVXVXVXVXVXVXVXVXVXVXVXVX",
"VXVXVXVXVXVXVXVXVXVXVXVXVXVXVXVXVXVXVXVXVXVXVXVXVXVXVXVXVXVXVXVXVXVXVXVXVXVXVXVXVXVXVXVXVXVXVXVXVXVXVXVXVXVXVXVXVXVXVXVXVXVXVXVX",
"VXVXVXVXVXVXVXh h h h VXVXVXVXVXVX& & VXVXVXVXVXVXVXVXVXj h W ( VXVXVXVXVXVXVXVXVXVXVXVXVXVXVXVXVXVXVXVXVXVXVXVXVXVXVXVXVXVXVXVX",
"VXVXVXVXVXVXVXh h h h VXVXVXVXVXVX& & VXVXVXVXVXVXVXVXVXg h Q ( VXVXVXVXVXVXVXVXVXVXVXVXVXVXVXVXVXVXVXVXVXVXVXVXVXVXVXVXVXVXVXVX",
"VXVXVXVXVXVXVXh h h h VXVXVXVXVXVXu i VXVXVXVXVXVXVXVXVXVXVX( ( ( ( VXVXVXVXVXVXVXVXVXVXVXVXVXVXVXVXVXVXVXVXVXVXVXVXVXVXVXVXVXVX",
"VXVXVXVXVXVXVXh h h h VXVXVXVXVXVXh g VXVXVXVXVXVXVXVXVXVXVX( ( ( ( VXVXVXVXVXVXVXVXVXVXVXVXVXVXVXVXVXVXVXVXVXVXVXVXVXVXVXVXVXVX",
"VXVXVXVXVXVXVXVXVXh h VXVXVXVXVXVXh h h g VXg h VXVXVXVXVXVXVXVXVXVXVXVXVXVXh h VXVXVXVXVXVXVXVXVXVXVXVXVXVXVXVXVXVXVXVXVXVXVXVX",
"VXVXVXVXVXVXVXVXVXh h VXVXVXVXVXVXh h h g VXg h VXVXVXVXVXVXVXVXVXVXVXVXVXVXh h VXVXVXVXVXVXVXVXVXVXVXVXVXVXVXVXVXVXVXVXVXVXVXVX",
"VXVXVXVXVXVXVXVXVXVXVXVXVXVXVXVXVX& s >.A.4X2XVXVXVXVXVXVXVX& & VXVXVXVXVXVXVXVXh h VXVXVXVXVXVXVXVXVXVXVXVXVXVXVXVXVXVXVXVXVXVX",
"VXVXVXVXVXVXVXVXVXVXVXVXVXVXVXVXVX* z 1.U.qX0XVXVXVXVXVXVXVX& & VXVXVXVXVXVXVXVXh h VXVXVXVXVXVXVXVXVXVXVXVXVXVXVXVXVXVXVXVXVXVX",
"VXVXVXVXVXVXVXVXVXVXVXVXVXVXVX& , h d.4XdXNXmXVXVXVXVXVXVXVX& & & & VXVXVXVXVXVXh h h h VXVXVXVXVXVXVXmXNXVXVXVXVXVXVXVXVXVXVXVX",
"VXVXVXVXVXVXVXVXVXVXVXVXVXVXVX& 5 h ' &X6XfXeXVXVXVXVXVXVXVX= * & & VXVXVXVXVXVXk k k S VXVXVXVXVXVXVXgXNXVXVXVXVXVXVXVXVXVXVXVX",
"VXVXVXVXVXVXVXVXVXVXVXVXVXVXVXVXVXh Z ( X.>.>.>.VXVX( ( ( ( k h * & VXVXVXVXVXVX( ( ( %.P.P.P.n.( ( ( ).NXNXNXVXVXVXVXVXVXVXVXVX",
"VXVXVXVXVXVXVXVXVXVXVXVXVXVXVXVXVXg A I [ ;.;.;.VXVX^ ( ( ( k h * & VXVXVXVXVXVX%.3.x.v.P.H.C.t.%.4.5.`.cXbXNXVXVXVXVXVXVXVXVXVX",
"VXVXVXVXVXVXVXVXVXVXVXVXVXVXVXVXVXVXVXh H ( ( ( VXVXVXVX( ( k h * & & & VXVXVXVXP.OXNXsXP.B.>.e.P.+X4X4X4XlXNXVXVXVXVXVXVXVXVXVX",
"VXVXVXVXVXVXVXVXVXVXVXVXVXVXVXVXVXVXVXg D I I I H VXVXVXT ( N M , : & & VXVXVXVX|.#XcX7XV.q.;.0.C.!.-X3XyXcXNXmXVXVXVXVXVXVXVXVX",
"VXVXVXVXVXVXVXVXVXVXVXVXVXVXVXVXVXVXVXVXg h h h h h : & VXVX( ( k h & & h k ( $.4X4X4X].( ( (  .>.i.P.1XNXNXNXNXNXVXVXVXVXVXVXVX",
"VXVXVXVXVXVXVXVXVXVXVXVXVXVXVXVXVXVXVXVXVXg h h e q 8 , l VX( ( F Z w w h k ( _ Y.D.l.k.( ( ( | +.y.P.-XlXbXNXNXNXVXVXVXVXVXVXVX",
"VXVXVXVXVXVXVXVXVXVXVXVXVXVXVXVXVXVXVXVXVXVXg h , & e h Y ( ( ( ( ( ( ( h k ( ( ( b   O ( ( ( ( ( 8.P.+X4XlXNXNXNXVXVXVXVXVXVXVX",
"VXVXVXVXVXVXVXVXVXVXVXVXVXVXVXVXVXVXVXVXVXVXg h q , 8 q C K {  .) ( K K h a d n c.f.c v 7.*. .| ( 6.B.}.4XlXNXNXNXMXVXVXVXVXVXVX",
"VXVXVXVXVXVXVXVXVXVXVXVXVXVXVXVXVXVXVXVXVXVXg h h h : & e h -.>.] ( h h h t   $ 4X4X4X-XP.B.>.+.( X.>.A.4XlXNXNXNXNXNXVXVXVXVXVX",
"VXVXVXVXVXVXVXVXVXVXVXVXVXVXVXVXVX/ VXVXVXVXVXg A H > & e h -.>.o.X.H H @ 3 ` a.4XqXdXtX+X}.A.m.8.<.>.A.4XlXNXNXNXNXNXVXVXVXVXVX",
"VXVXVXVXVXVXVXVXVXVXVXVXVXVXVXVXVX( ( VXVXVXVXVX/ ( 7 & e h -.>.>.>.( (   # P.R.4XuXNXcX4X4X4X$XP.i.>.A.4XlXNXNXNXNXNXVXVXVXVXVX",
"VXVXVXVXVXVXVXVXVXVXVXVXVXVXVXVXVX( ( / VXVXVXVXVX/ 6 & B H E ! ! ! f f h.j.P.R.4XuXNXbXdXdXdX9X+XG.i.Q.4XlXNXNXNXNXNXVXVXVXVXVX",
"VXVXVXVXVXVXVXVXVXVXVXVXVXVXVXVXVX( ( ( / VXVXVXVXVXVXVX( ( k h h h % % 4X<XP.R.4XuXNXNXNXNXNXlX4X+XP.+X4XlXNXNXNXNXNXVXVXVXVXVX",
"VXVXVXVXVXVXVXVXVXVXVXVXVXVXVXVXVXVX/ ( / VXVXVXVXg R ( ( ( P L + o z.z.4X:Xe.u.XX;XNXNXNXNXNXlX4X>X$X>X4XlXNXNXNXNXNXNXBXVXVXVX",
"VXVXVXVXVXVXVXVXVXVXVXVXVXVXVXVXVXVXVX( / VXVXVXg h Y ( ( ( ( ( X   4X4X4X=X>.,.P.OXNXNXNXNXNXlX4X4X4X4X4XlXNXNXNXNXNXNXNXVXVXVX",
"VXVXVXVXVXVXVXVXVXVXVXVXVXVXVXVXVXVXVXVXVXVXVXVX5 , 0 w I ( 4 2 .   M.M.c.9. .@.P.OXNXNXNXNXNXbXlXiX4XiXlXbXNXNXNXNXNXNXNXVXVXVX",
"VXVXVXVXVXVXVXVXVXVXVXVXVXVXVXVXVXVXVXVXVXVXVXVX& & & & G ( X       >.>.( ( ( ..P.OXNXNXNXNXNXNXNXdX4XdXNXNXNXNXNXNXNXNXNXVXVXVX",
"VXVXVXVXVXVXVXVXVXVXVXVXVXVXVXVXVXVXVXVXVX( J h y e - & p M < 1 s.g.C.C.;.=.( } 2.N.uXsXNXNXNXNXNXbXcXdXuXzXNXNXNXNXNXNXNXVXVXVX",
"VXVXVXVXVXVXVXVXVXVXVXVXVXVXVXVXVXVXVXVX/ ( H h h h : & e h r x F.P.P.P.>.:.( ] >.r.4XuXNXNXNXNXNXNXNXdX4XlXNXNXNXNXNXNXNXVXVXVX",
"VXVXVXVXVXVXVXVXVXVXVXVXVXVXVXVXVXVXVXVXm M H Y V h C G S._.%X5XsXsX-X-XoX.X[.'.C.I.4XuXNXNXNXNXNXNXNXbXcXnXNXNXNXNXNXNXNXVXVXVX",
"VXVXVXVXVXVXVXVXVXVXVXVXVXVXVXVXVXVXVXVXg h H ( Z h Y ( [.4XbXNXNXNX4X4X4X4X4X<XP.|.4XuXNXNXNXNXNXNXNXNXNXNXNXNXNXNXNXNXNXVXVXVX",
"VXVXVXVXVXVXVXVXVXVXVXVXVXVXVXVXVXVXVXVXg h H ( ~ Q 9 ; (.4XbXNXNXNX4X4XbXcX4X4X,X,X4XuXNXNXNXNXNXNXNXNXNXNXNXNXNXNXNXNXNXBXBXVX",
"VXVXVXVXVXVXVXVXVXVXVXVXVXVXVXVXVXVXVXVXg h H ( ( ( 7 & /.4XbXNXNXNX4X4XNXbX4X4X4X4X4XuXNXNXNXNXNXNXNXNXNXNXNXNXNXNXNXNXNXNXNXVX",
"VXVXVXVXVXVXVXVXVXVXVXVXVXVXVXVXVXVXVXVXVXVXg h , & & & b.P.xXNXNXNX4X4X4XqXNXNXNXNXNXcX4XpXNXNXNXNXNXNXNXNXNXNXNXNXNXyX4XbXNXVX",
"VXVXVXVXVXVXVXVXVXVXVXVXVXVXVXVXVXVXVXVXVXVXg h , & & & b.P.xXNXNXNX4X4X4XqXNXNXNXNXNXcX4XpXNXNXNXNXNXNXNXNXNXNXNXNXNXyX4XbXNXVX",
"VXVXVXVXVXVXVXVXVXVXVXVXVXVXVXVXVXVXVXVXVXVXg h K ( ( ( ;.>.=X4XbXNXNXNXNXbX4XqXNXNXNXNXNXNXNXNXNXNXNXNXNXNXNXNXNXNXNXyX4XbXNXVX",
"VXVXVXVXVXVXVXVXVXVXVXVXVXVXVXVXVXVXVXVXVXVXVXh U ..] ] O.:.@X,XbXNXNXNXNXbXqXuXNXNXNXNXNXNXNXNXNXNXNXNXNXNXNXNXNXNXNXyX4XcXbXVX",
"VXVXVXVXVXVXVXVXVXVXVXVXVXVXVXVXVXVXVXVXVXVXVXVXK.P.2.>.| ( Z.P.xXNXNXNXNXNXNXNXNXNXNXNXNXNXNXNXNXNXNXNXNXNXNXNXNXNXNXyX4X4X4XVX",
"VXVXVXVXVXVXVXVXVXVXVXVXVXVXVXVXVXVXVXVXVXVXVXVXW.~.p.w.&.#.J.E.kXbXNXNXNXNXNXNXNXNXNXNXNXNXNXNXNXNXNXNXNXNXNXNXNXNXNXyX4X4X4XVX",
"VXVXVXVXVXVXVXVXVXVXVXVXVXVXVXVXVXVXVXVXL.P.P.P.wXNXNXNXyX4X4X4X4X4XNXNXNXNXNXNXNXNXNXNXNXNXNXNXNXNXNXNXNXNXNXNXNXNXNXyX4X4X4XVX",
"VXVXVXVXVXVXVXVXVXVXVXVXVXVXVXVXVXVXVXVXVXP. XOXsXNXNXNXaXyXyXyXyXyXNXNXNXNXNXNXNXNXNXNXNXNXNXNXNXNXNXbXcXcXcXcXcXnXNXaXyX8X4XVX",
"VXVXVXVXVXVXVXVXVXVXVXVXVXVXVXVXVXVXVXVXVXVXmXNXNXNXNXNXNXNXNXNXNXNXNXNXNXNXNXNXNXNXNXNXNXNXNXNXNXNXNXdX4X4X4X4X4XcXNXNXNXqX4XVX",
"VXVXVXVXVXVXVXVXVXVXVXVXVXVXVXVXVXVXVXVXVXVXVXNXNXNXNXNXNXNXNXNXNXNXNXNXNXNXNXNXNXNXNXNXNXNXNXNXNXNXNXdX4X4X4X4X4XhXcXcXcX8X4XVX",
"VXVXVXVXVXVXVXVXVXVXVXVXVXVXVXVXVXVXVXVXVXVXVXVXVXVXNXNXNXNXNXNXNXNXNXNXNXNXNXNXNXNXNXNXNXNXNXNXNXNXNXdX4X4X4X4X4X4X4X4X4X4X4XVX",
"VXVXVXVXVXVXVXVXVXVXVXVXVXVXVXVXVXVXVXVXVXVXVXVXVXVXVXBXBXBXNXNXNXNXNXNXNXNXNXNXNXNXNXNXNXNXNXNXNXvXlXiX4X4X4X4X4X4X4X4X4X*X$XVX",
"VXVXVXVXVXVXVXVXVXVXVXVXVXVXVXVXVXVXVXVXVXVXVXVXVXVXVXVXVXVXBXNXNXNXNXNXNXNXNXNXNXNXNXNXNXNXNXNXNXdX4X4X4X4X4X4X4X4X4X4X4XE.P.VX",
"VXVXVXVXVXVXVXVXVXVXVXVXVXVXVXVXVXVXVXVXVXVXVXVXVXVXVXVXVXVXMXBXBXBXBXBXNXNXNXNXNXNXNXNXNXNXNXNXNXzXpXrX4X4X4X4X4X4X4X*X$XT.P.VX",
"VXVXVXVXVXVXVXVXVXVXVXVXVXVXVXVXVXVXVXVXVXVXVXVXVXVXVXVXVXVXVXVXVXVXVXVXNXNXNXNXNXNXNXNXNXNXNXNXNXNXNXdX4X4X4X4X4X4X4X^.P.P.P.VX",
"VXVXVXVXVXVXVXVXVXVXVXVXVXVXVXVXVXVXVXVXVXVXVXVXVXVXVXVXVXVXVXVXVXVXVXVXVXVXmXmXmXmXmXBXNXNXNXvXdXdXdXyX4X4X4X4X4X$X+XE.P.P.P.VX",
"VXVXVXVXVXVXVXVXVXVXVXVXVXVXVXVXVXVXVXVXVXVXVXVXVXVXVXVXVXVXVXVXVXVXVXVXVXVXVXVXVXVXVXVXNXNXNXlX4X4X4X4X4X4X4X4X4X^.P.P.P.P.P.VX",
"VXVXVXVXVXVXVXVXVXVXVXVXVXVXVXVXVXVXVXVXVXVXVXVXVXVXVXVXVXVXVXVXVXVXVXVXVXVXVXVXVXVXVXVXmXmXmXjX2X2X2X2X2X2X2X2X2X{.L.L.L.L.L.VX"
};
