/* XPM */
static char *result[] = {
/* columns rows colors chars-per-pixel */
"64 64 205 2 ",
"   c #BD0707",
".  c #BD0808",
"X  c #C40B07",
"o  c #CD0E06",
"O  c #C00C09",
"+  c #D10F06",
"@  c #C51507",
"#  c #C51D07",
"$  c #C4120B",
"%  c #C9180D",
"&  c #D51105",
"*  c #DD1404",
"=  c #E61703",
"-  c #EE1A02",
";  c #F61D01",
":  c #FB1E01",
">  c #C52507",
",  c #CE2206",
"<  c #CB260B",
"1  c #D6260B",
"2  c #CE3406",
"3  c #DC310E",
"4  c #DC3D08",
"5  c #C5271E",
"6  c #CF2111",
"7  c #D62810",
"8  c #D32411",
"9  c #DC3116",
"0  c #DD3018",
"q  c #E4260B",
"w  c #F72701",
"e  c #FF2000",
"r  c #FF2B00",
"t  c #FB2A08",
"y  c #FF3400",
"u  c #FF3D00",
"i  c #E43B19",
"p  c #E03A0C",
"a  c #D23626",
"s  c #CE4306",
"d  c #D64406",
"f  c #D64C05",
"g  c #D65605",
"h  c #D04B1D",
"j  c #E64A03",
"k  c #FF4400",
"l  c #FF4900",
"z  c #EE5502",
"x  c #E1590C",
"c  c #FF5300",
"v  c #FF5D00",
"b  c #F35A01",
"n  c #E9411D",
"m  c #EB4F19",
"M  c #EA5117",
"N  c #F1571C",
"B  c #FA5C1D",
"V  c #DE6104",
"C  c #D66005",
"Z  c #F76401",
"A  c #FF6700",
"S  c #FF6C00",
"D  c #F76D01",
"F  c #E67603",
"G  c #E67A07",
"H  c #FF7100",
"J  c #FF7A00",
"K  c #F0720E",
"L  c #F36519",
"P  c #F36D19",
"I  c #F47716",
"U  c #E66D08",
"Y  c #DA432A",
"T  c #CE4535",
"R  c #DD5437",
"E  c #DE5627",
"W  c #EF4921",
"Q  c #F15F34",
"!  c #DE6D27",
"~  c #FF6A29",
"^  c #CE4545",
"/  c #D6634C",
"(  c #DA7258",
")  c #F37648",
"_  c #E67750",
"`  c #E67759",
"'  c #D66364",
"]  c #E77966",
"[  c #EE8D02",
"{  c #EA8908",
"}  c #FF8200",
"|  c #FF8C00",
" . c #F98F0C",
".. c #F38E07",
"X. c #E69B03",
"o. c #EC9808",
"O. c #F59402",
"+. c #FF9400",
"@. c #FF9C00",
"#. c #F79706",
"$. c #F78110",
"%. c #FA8A16",
"&. c #EB991A",
"*. c #F79D10",
"=. c #F79A16",
"-. c #EFA706",
";. c #EFAF04",
":. c #F7A401",
">. c #FFA500",
",. c #FEAB01",
"<. c #F8A90E",
"1. c #EFB802",
"2. c #EFB80E",
"3. c #FFB200",
"4. c #FFBA00",
"5. c #F8B507",
"6. c #F9B514",
"7. c #EFB919",
"8. c #EC8E2F",
"9. c #F7B624",
"0. c #F3B03A",
"q. c #F5C103",
"w. c #FFC200",
"e. c #FFCB00",
"r. c #FBC808",
"t. c #FBC408",
"y. c #F7D601",
"u. c #FFD400",
"i. c #FEDE02",
"p. c #FFC217",
"a. c #FED919",
"s. c #FFE400",
"d. c #FFEB01",
"f. c #FFF300",
"g. c #FFF40B",
"h. c #FFF417",
"j. c #FFC220",
"k. c #FFCA2F",
"l. c #FFE92A",
"z. c #FFF52F",
"x. c #FFF63B",
"c. c #F58C5C",
"v. c #F4AE4E",
"b. c #DE8162",
"n. c #EA9166",
"m. c #EA916A",
"M. c #EA917A",
"N. c #F58C6A",
"B. c #E6A079",
"V. c #EFAB7C",
"C. c #F6AA7B",
"Z. c #F5A977",
"A. c #FFCA40",
"S. c #FFD247",
"D. c #FBDA59",
"F. c #F5C356",
"G. c #FFF647",
"H. c #FFF75E",
"J. c #FFEE4E",
"K. c #FFD665",
"L. c #FCC96C",
"P. c #FEE576",
"I. c #FFF876",
"U. c #FFF576",
"Y. c #DE8183",
"T. c #EA9187",
"R. c #EAAA88",
"E. c #F9B983",
"W. c #EFBE90",
"Q. c #EFAC95",
"!. c #EBA6A4",
"~. c #EAAFB2",
"^. c #F5C692",
"/. c #FBCF96",
"(. c #F3CE9A",
"). c #FFDA80",
"_. c #FEEC8F",
"`. c #FFF98E",
"'. c #FFF982",
"]. c #FFE79F",
"[. c #F7DCA6",
"{. c #FCDAAC",
"}. c #F5C7A2",
"|. c #FAE1A7",
" X c #FDECA6",
".X c #FDE5A9",
"XX c #FFFAA5",
"oX c #FFF5A5",
"OX c #FCEDB2",
"+X c #FFEBBF",
"@X c #FFFBBD",
"#X c #FFF6B5",
"$X c #EFBEC1",
"%X c #FFFBC5",
"&X c #FFFBCD",
"*X c #FFFBD6",
"=X c #FFFBDE",
"-X c #FFF3DF",
";X c #F7DDE0",
":X c #FBECEF",
">X c #FFFBE5",
",X c #FFFBEE",
"<X c #FFFBF5",
"1X c #FFFBFF",
"2X c None",
/* pixels */
"e = & o .   2X2X2X2X2X2X2X2X2X2X2X2X2X2X2X2X2X2X2X2X2X2X2X2X2X2X2X2X2X2X2X2X2X2X2X2X2X2X2X2X2X2X2X2X2X2X2X2X2X2X2X2X2X2X2X2X2X2X",
"2X2Xe * . . . 2X2X2X2X2X2X2X2X2X2X2X2X2X2X2X2X2X2X2X2X2X2X2X2X2X2X2X2X2X2X2X2X2X2X2X2X2X2X2X2X2X2X2X2X2X2X2X2X2X2X2X2X2X2X2X2X2X",
"H k e - * & . 2X2X2X2X2X2X2X2X2X2X2X2X2X2X2X2X2X2X2X2X2X2X2X2X2X2XH 2X2X2X. 2X2X2X2X2X2X2X2X2X2X2X2X2X2X2X2X2X2X2X2X2X2X2X2X2X2X",
"H c e e e e 2X2X2X2X2X2X2X2X2X2X2X2X2X2X2X2X2X2X2X2X2X2X2X2X2X2XH H H 2X. . 2X2X2X2X2X2X2X2X2X2X2X2X2X2X2X2X2X2X2X2X2X2X2X2X2X2X",
"H A l u : l H 2X2X2X2X2X2X2X2X2X2X2X2X7 2X2X2X2X2X2X2X. 2X2X2X2X4 4 1 .   . 2X2X2X2X2X2X2X2X2X2X2X2X2X2X2X2X2X2X2X2X2X2X2X2X2X2X",
"H S H H 2XH H 2X2X2X2X2X2X2X2X2X2X2X2X7 7 2X2X2X2X2X2X. . 2X2X2X  . . . . . 2X2X2X2X2X2X2X2X2X2X2X2X2X2X2X2X2X2X2X2X2X2X2X2X2X2X",
"2Xc u y e c S l e 2X2X2X2X. . . . . . 2X2X2X2X2X2X.   . . . 2X2X2X2X* = o . . . 2X2X2X2X2X2X2X2X2X2X2X2X2X2X2X2X2X2X2X2X2X2X2X2X",
"2X2X: e e l H u e 2X2X2X2X. . . . . . 2X2X2X2X2X2X. . . . . . 2X2X2Xe e & . . . 2X2X2X2X2X2X2X2X2X2X2X2X2X2X2X2X2X2X2X2X2X2X2X2X",
"2X2Xe e e l H v c 2X2X2X2X2X2X  . = = e : .   2X2X= = = & . + e 2X2X& & * = o . 2X2X2X2X2X2X2X2X2X2X2X2X2X2X2X2X2X2X2X2X2X2X2X2X",
"2X2Xe e e l H H H 2X2X2X2X2X2X. . e e e ; . . 2X2Xe e e = . & e e 2X. . = e & . 2X2X2X2X2X2X2X2X2X2X2X2X2X2X2X2X2X2X2X2X2X2X2X2X",
"2X2Xe v +.} H H H u : e e 2X2X. . e e v v z b e y A l e = . & e e e ; - * o X 2X2X2Xe e A S 2X2X2X2X2X2X2X2X2X2X2X2X2X2X2X2X2X2X",
"2X2Xe S 4.+.H H H y e e e 2X2X. . e e H H H A e y S v e = . & e e e e e & . 2X2X2X2Xe e S H 2X2X2X2X2X2X2X2X2X2X2X2X2X2X2X2X2X2X",
"2X2X2XH J +.3.3.3.J S r e e e 2X2XX X H H H A e e r r e = . X X = e = X = ; : e e e 2X2X@ @ . . . . 2X2X2X2X2X2X2X2X2X2X2X2X2X2X",
"2X2X2XH H +.4.4.4.} H y e e e 2X2X. . H H S S e e e e e = .     * e * . = e e e e e 2X2X. . . . . . 2X2X2X2X2X2X2X2X2X2X2X2X2X2X",
"2X2XH H H +.4.4.4.4.3.J A r e 2X2X2X2X3 p H H A c e - X X   + ; : e : ; l S u : e e e e : ; X . ; w H H 2X2X2X2X2X2X2X2X2X2X2X2X",
"2X2XH H S +.4.4.4.4.4.} H r e 2X2X2X2X7 3 H H H v : ; . . . & e e e e e c H u : e e e e e e X . e r H H 2X2X2X2X2X2X2X2X2X2X2X2X",
"2X2XH l e S 4.4.4.} H y e 2X2X4.4.2X2X. @ H J 4.>.H b . & e e e e e l H u e c H y e v H @ . ; e . X e r H H 2X2X2X2X2X2X2X2X2X2X",
"2X2XH l e S 4.4.4.} H y e 2X2X4.4.2X2X. @ H J 4.>.H z . & e e e e e l H k e c H y e v H @ . : e . X : r H H 2X2X2X2X2X2X2X2X2X2X",
"2X2X2X2X2XH H @.4.4.4.4.4.J H @ . 2X2Xe e e r H } 4.>.H c : u H H H +.4.| H H H , . . . . . ; e e e e e e e e e 2X2X2X2X2X2X2X2X",
"2X2X2X2X2XA A +.>.3.,.w.w.| } 2 > 2X2Xe e y u H } 4.,.J A r k H H J @.3.+.J H Z d > 5 5 > > - ; e e r r e e e e 2X2X2X2X2X2X2X2X",
"2X2X2XH H l e e e v H u.f.f.f.f.f.H H e y 4.3.H } 4.4.4.@.S H H +.4.4.4.4.4.f . 1.f.`.@Xh.f.> . e r H S : : e e e e 2X2X2X2X2X2X",
"2X2X2X2XH k e : ; A J u.f.f.f.f.f.H H y k p.6.} | 4.4.4.>.J J J @.4.w.w.3.:.f > 7.h.`.@Xz.h.s > ; w A v e e e e e e 2X2X2X2X2X2X",
"2X2X2X2X2X: e & . [ 4.s.f.f.f.f.f.H S 4.p.@XXXf.d.4.4.4.4.4.4.4.4.4.y.f.C . X.f.`.@X@X@X@X@Xh.f.. X e e e e 2X2Xe e 2X2X2X2X2X2X",
"2X2X2X2X2Xy e & . O.4.s.f.d.s.d.f.+.+...&.`.I.u.e.4.4.e.w.e.w.4.4.4.e.s.g   X.f.`.@X@X@X@X@Xh.f.. X y y e e 2X2Xe 2X2X2X2X2X2X2X",
"2X2X2XH H l e 2X2X4.4.s.f.w.4.d.f.f.f.  > f.s.H } 4.e.f.f.f.s.4.4.4.4.4.f . X.f.`.@X@X@X@X@Xh.f.. @ S S : : e e 2X2X2X2XH H 2X2X",
"2X2X2XH H l e 2X2X>.>.s.f.w.4.s.s.u.u., d 4.,.v S +.>.f.d.s.u.4.4.4.w.e.g . { r.L./.#X@X@X@Xx.z.. @ H A y y e e 2X2X2XA v v 2X2X",
"2X2X2XH H l e 2X2XH H u.f.w.4.4.4.H S H A e e e e e c f.i.4.4.4.4.4.u.f.C O 7 W n W /.@X@X@X@X@X. @ S H H v : : 2X2XH c e e 2X2X",
"2X2X2XS H l e e 2XS H >.w.4.4.>.@.H H H A e e e u H %.G.l.u.w.4.O.G [ -.8./ ] M.c.c.L.P.U.U.#X@Xf d j z H H v l 2Xk c k e 2X2X2X",
"2X2X2XH H l : e e v H H H 3.4.J H H H H S : : : c f.z.@XU.f.s.4.C . % 1 V.@X>X1X&X@Xk.4.d.f.XX@X4.:.  @ H } 4.+.e e e e 2X2X2X2X",
"2X2X2X2XH c u r e v H @.@.>.@.| | H H c c u u e l w.a.U.J.i.5.F d $ Y _ }.-X,X1X>X*XP.S.2.-. X@Xu.5.. @ | @.u.4.v k e e 2X2X2X2X",
"2X2X2X2X2XH H k e v H u.f.} H 3.4.H H e r H A e y H +.f.i.4.F   % 7 n.@X>X1X1X1X1X1X&X@Xa 7 |.@Xf.y.. # 4.e.f.s.4.} e e e e 2X2X",
"2X2X2X2X2X2XS u e S H 4.u.J H +.+.@.+.k l l k e r l A 3.O.V ! b.R 7 M.=X<X1X~.Y.;X1X>X=XY 7 |.@XH.D.  > 4.w.u.u.u.@.k u e e 2X2X",
"2X2X2X2X2X2X2X2X2XH H >.4.J H H H 4.4.H A : e e e e y H j . / @Xm.7 T.1X1X1X' . ~.1X1X1XY 7 |.@X@X[.  # 4.4.4.e.f.w.H c e e 2X2X",
"2X2X2X2X2X2X2X2XH H H | @.+.+.H H +.+.l l l k e e e w 4 E b.R.@Xn.7 M.=X<X1X~.Y.;X1X>X>XY 7 |.@X@X XV V V G u.i.f.u.+.S e e 2X2X",
"2X2X2X2X2X2X2XH H H H H H 3.4.J H H H e r H A : e e - . / @X@X@Xn.7 n.@X>X1X1X1X1X1X&X@XY 3 |.@X@XoX4.:.. s f.g.f.i.4.J e e 2X2X",
"2X2X2X2X2X2X2X2X2XH H k u } +.H H k u c c u u e ; & + . a _ _ _ 8.-.j.S.].*X,X1X=X-XZ.c.V.V.OX@X@XoXs.q.. > %.<.f.e.| J c c 2X2X",
"2X2X2X2X2X2X2X2X2XH H y e A H H H e e H A e e e - . . . $ 7 7 7 { f.u.4.P.#X>X1X&X@X) W .X@X@X@X@XXXf.y.. % W I f.w.H H H S 2X2X",
"2X2X2X2X2X2X2X2X2X2X2Xr : u u u u e e u u e e e w 0 R B.R.!.Q.V.A.e.u.i.0._ ] ] ` _ 9.5. X@X@X@X@XXXf.i.0 8 6 4 >.J u c H H 2X2X",
"2X2X2X2X2X2X2X2X2X2X2Xe e e e e e e e e e e e e t m ) @X=X1X>X@XK.4.u.f.G 7 6 8 7 7 q.f.XX@X@X@X@XXXf.i.W i . , H c : u H H 2X2X",
"2X2X2X2X2X2X2X2X2X2X2X2X2Xe e e e e e v v v c + a /.{.<X<X1X<X,X+X_.v.g { q.F.^.^.^._.`.@X@X@X@X@XXXf.s.r.o.. $ , 3 B B 2X2X2X2X",
"2X2X2X2X2X2X2X2X2X2X2X2X2Xe e e e e e H H H Z . T @X&X1X1X1X1X1X=X@Xn.7 -.g.U.@X@X@X@X@X@X@X@X@X@XXXf.f.f.1.    . 9 ~ ~ 2X2X2X2X",
"2X2X2X2X2X2X2X2X2X2X2X2X2X2X2Xe e e e H H ,.#.. ^ ,X<X1X$X^ Y.1X<X,XM.7 v.`.#X@X( T (.@X@X@X@X@X@XXXf.s.I I [ [ [ U 6 8 W 2X2X2X",
"2X2X2X2X2X2X2X2X2X2X2X2X2X2X2Xe e e e H J 4.:.. ^ 1X1X1X!.. ' 1X1X1XT.7 V.@X@X@XT . W.@X@X@X@X@X@XXXf.i.W L 3.4.4.F   6 W W 2X2X",
"2X2X2X2X2X2X2X2X2X. . 2X2X2X2X2X2Xe e 3.3.4.:.. T %X*X1X:X;X:X1X>X&Xm.7 V.@X( 5 W.[.OX@X@X@X@X@Xh.a.L P 3.v.-X].4...W 0 O $ 2X2X",
"2X2X2X2X2X2X2X2X2X. . 2X2X2X2X2X2Xe e 4.4.4.:.. T @X&X1X1X1X1X1X=X@Xm.7 V.@X/   W.@X@X@X@X@X@X@Xf.i.W N 4.A.1X%X4. .W 0 . . 2X2X",
"2X2X2X2X2X2X2X2X2X2X2X: e A H 2X2Xe e 4.3.J D . 2 p.S.%X=X1X>X%XC.Q =.y.U.@XOX[.OX@X@X@X@X@Xz.h.f.s.W N 4.4.9.p.4.5.,.F . . 2X2X",
"2X2X2X2X2X2X2X2X2X2X2Xe e A H 2X2Xe e 4.3.H Z . 2 4.k.@X*X1X>X@XZ.m *.f.U.@X@X@X@X@X@X@X@X@Xh.f.g.i.W N 4.4.4.4.4.4.4.F . . 2X2X",
"2X2X2X2X2X2X2X2X2X2X2XH H r e e e 4.4.H J 4.:.. s f.q.7 7 7 7 7 n.@X@X@X@X@X@X@X@X@X@X@Xh.f.f.f.f.s.W N 4.4.4.4.4.4.4.F . . 2X2X",
"2X2X2X2X2X2X2X2X2X2X2XH H r e e e 4.4.H J 4.:.  s f.q.7 7 7 7 7 m.@X@X@X@X@X@X@X@X@X@X@Xh.f.f.f.f.i.W N 4.4.4.4.4.4.4.F . . 2X2X",
"2X2X2X2X2X2X2X2X2X2X2Xe e e e e e H H 4.3.H } f.1.. s f.f.f.G.@XH.f.*.m W W W W W W r.f.f.f.f.f.f.i.W N 4.4.4.4.4.4.4.F . . 2X2X",
"2X2X2X2X2X2X2X2X2X2X2Xe e e e e e A S 3.>.J | y.2.5 h h.g.f.x.XXJ.i.*.N N N N N N N 6.i.f.f.f.f.f.i.W n >.3.4.4.4.4.,.U $ . 2X2X",
"2X2X2X2X2X2X2X2X2X2X2X2X2X2X2Xe e e : H J 4.:.. T @X@X@XI.f.f.f.=.W I 4.4.4.4.4.4.4.L W i.f.f.f.f.y.. O e l 4.4.4. .W i 7 7 2X2X",
"2X2X2X2X2X2X2X2X2X2X2X2X2X2X2X: e e e H J >.O.. T @X@X@X'.z.l.r.=.L 8.k.p.4.4.4.4.4.I L t.r.d.f.1.X.o & e u [ [ O.K n i 7 2X2X2X",
"2X2X2X2X2X2X2X2X2X2X2X2X2X. . ; e e e H H S Z . T @X@X@X@X@XE.W I 4._.1XK.4.4.4.4.4.4.4.N W i.f.. O e e e - . $ 7 7 7 7 2X2X2X2X",
"2X2X2X2X2X2X2X2X2X2X2X2X2X. . : e y y H H H Z . T @X@X@X@X@XE.W I 4.D.+XA.4.4.4.4.4.4.4.N n ;.1.o & e e e ; o + q 7 7 2X2X2X2X2X",
"2X2X2X2X2X2X2X2X2X2X2X2X2X2X2Xe e H H H H H Z . T @X@X@X@X@XE.W $.4.4.3.4.4.4.4.4.4.4.4.3 7 O   e e 2X2X2X2X: e e : 2X2X2X2X2X2X",
"2X2X2X2X2X2X2X2X2X2X2X2X2X2X2Xe e H H H H H Z . h I.`.@X@X@XE.0 x F {  .,.4.4.4.4.4.#. .9 7 + & e e 2X2X2X2Xe e e 2X2X2X2X2X2X2X",
"2X2X2X2X2X2X2X2X2X2X2X2X2X2X2X2X2X2X2XH H 2X2X. s f.z.@X@X@XM.. . . 7 W  .4.4.4.4.4.L W 3 7 w e e e 2X2X2X2X2X2X2X2X2X2X2X2X2X2X",
"2X2X2X2X2X2X2X2X2X2X2X2X2X2X2X2X2X2X2XH H 2X2X. > X.&.B.B.B./ . . . 6 9 x F F F G F M i q q e e e e 2X2X2X2X2X2X2X2X2X2X2X2X2X2X",
"2X2X2X2X2X2X2X2X2X2X2X2X2X2X2X2X2X2X2X2X2X2X2X2X2X. . . . . . . . 2X. . . . .   . . 6 7 e e e e 2X2X2X2X2X2X2X2X2X2X2X2X2X2X2X2X",
"2X2X2X2X2X2X2X2X2X2X2X2X2X2X2X2X2X2X2X2X2X2X2X2X2X. . . . . . . 2X2X2X. . . . . . . 6 7 e e e e 2X2X2X2X2X2X2X2X2X2X2X2X2X2X2X2X",
"2X2X2X2X2X2X2X2X2X2X2X2X2X2X2X2X2X2X2X2X2X2X2X2X2X2X2X2X2X2X2X2X2X2X2X2X2X2X2X2X2X2X2X2X2X2X2X2X2X2X2X2X2X2X2X2X2X2X2X2X2X2X2X2X",
"2X2X2X2X2X2X2X2X2X2X2X2X2X2X2X2X2X2X2X2X2X2X2X2X2X2X2X2X2X2X2X2X2X2X2X2X2X2X2X2X2X2X2X2X2X2X2X2X2X2X2X2X2X2X2X2X2X2X2X2X2X2X2X2X",
"2X2X2X2X2X2X2X2X2X2X2X2X2X2X2X2X2X2X2X2X2X2X2X2X2X2X2X2X2X2X2X2X2X2X2X2X2X2X2X2X2X2X2X2X2X2X2X2X2X2X2X2X2X2X2X2X2X2X2X2X2X2X2X2X"
};
