/* XPM */
static char *result[] = {
/* columns rows colors chars-per-pixel */
"64 64 155 2 ",
"   c #E82000",
".  c #EA2B00",
"X  c #EB3000",
"o  c #EB3100",
"O  c #EE4100",
"+  c #ED4A00",
"@  c #EE4A00",
"#  c #F04C00",
"$  c #EE5300",
"%  c #F25700",
"&  c #F46200",
"*  c #F06400",
"=  c #F27500",
"-  c #F37800",
";  c #F47A00",
":  c #F37E00",
">  c #F67F00",
",  c #F87800",
"<  c #F28400",
"1  c #F88100",
"2  c #F88400",
"3  c #F88700",
"4  c #F58E00",
"5  c #F88A00",
"6  c #F29300",
"7  c #F89000",
"8  c #F89600",
"9  c #F59D00",
"0  c #F69D00",
"q  c #F89900",
"w  c #F89C00",
"e  c #F89F00",
"r  c #EE8012",
"t  c #F8A200",
"y  c #F8A500",
"u  c #F6A900",
"i  c #F8A800",
"p  c #F8AB00",
"a  c #F8AE00",
"s  c #F3A909",
"d  c #F8B400",
"f  c #F8B700",
"g  c #F8BA00",
"h  c #EEAA12",
"j  c #F5B714",
"k  c #DA9036",
"l  c #DAAE36",
"z  c #D5AF3F",
"x  c #DFB531",
"c  c #E4BC2C",
"v  c #EDCA0F",
"b  c #F8C000",
"n  c #F8C600",
"m  c #F8CC00",
"M  c #F8CF00",
"N  c #F8CA08",
"B  c #F8CF0C",
"V  c #EDD90F",
"C  c #F8D200",
"Z  c #F8D500",
"A  c #F8D800",
"S  c #F8DA04",
"D  c #F8DC08",
"F  c #F8DE0C",
"G  c #EDCA10",
"H  c #E2CD1F",
"J  c #F8C618",
"K  c #EDD910",
"L  c #E2D91F",
"P  c #F8D014",
"I  c #F8D218",
"U  c #F8E010",
"Y  c #F8E418",
"T  c #F8E61C",
"R  c #CCDA3E",
"E  c #D7DB32",
"W  c #D7DC32",
"Q  c #F8C828",
"!  c #F8DA28",
"~  c #F8E820",
"^  c #F8EA24",
"/  c #F8E028",
"(  c #F8E628",
")  c #F8E928",
"_  c #F8EC28",
"`  c #F8EE2C",
"'  c #F8F030",
"]  c #F8F438",
"[  c #F8F63C",
"{  c #BCB46C",
"}  c #B2B07E",
"|  c #B2B67E",
" . c #B2BC7E",
".. c #D09848",
"X. c #D09B48",
"o. c #CB9C51",
"O. c #D0B048",
"+. c #C6A05A",
"@. c #C6A35A",
"#. c #CBB151",
"$. c #CBB751",
"%. c #C6B25A",
"&. c #CBB65D",
"*. c #C1B963",
"=. c #B6DB5D",
"-. c #BCC06C",
";. c #BCC87C",
":. c #ABE37D",
">. c #CCDE46",
",. c #CBC651",
"<. c #C6C45A",
"1. c #CBCC5D",
"2. c #F8C940",
"3. c #F8C648",
"4. c #D7E443",
"5. c #F8F840",
"6. c #C1C263",
"7. c #C1C467",
"8. c #F8DB6C",
"9. c #F8DA78",
"0. c #F8F068",
"q. c #74E6CA",
"w. c #5EE3E1",
"e. c #48E0F8",
"r. c #ADB487",
"t. c #ADB787",
"y. c #ADBA87",
"u. c #ADBC8B",
"i. c #B2BB8A",
"p. c None",
"a. c #ADBC93",
"s. c #8ADD9B",
"d. c #B2C086",
"f. c #B2C096",
"g. c #BCC89C",
"h. c #95E193",
"j. c #A0E48C",
"k. c #CBD485",
"l. c #C6D092",
"z. c #CBD495",
"x. c #CBD49D",
"c. c #D5DC9B",
"v. c #DAE08E",
"b. c #F8F480",
"n. c #F8F090",
"m. c #F8F890",
"M. c #F8F69C",
"N. c #C6D0A2",
"B. c #D5DCA3",
"V. c #D0D8A8",
"C. c #F8F8A0",
"Z. c #F8F4A8",
"A. c #F8F6AC",
"S. c #F8F8B0",
"D. c #F8F8C0",
/* pixels */
"p.p.p.p.p.p.p.p.p.p.p.p.p.p.p.p.p.p.p.p.p.p.p.p.p.p.p.p.p.p.p.p.p.p.p.p.p.p.p.p.p.p.p.p.p.p.p.p.p.p.p.p.p.p.p.p.p.p.p.p.p.p.p.p.",
"p.p.p.p.p.p.p.p.p.p.p.p.p.p.p.p.p.p.p.p.p.p.p.p.p.p.p.p.p.p.p.p.p.p.p.p.p.p.p.p.p.p.p.p.p.p.p.p.p.p.p.p.p.p.p.p.p.p.p.p.p.p.p.p.",
"p.p.p.p.p.p.p.p.p.p.p.p.p.p.p.p.p.p.p.p.p.p.p.p.p.p.p.p.p.p.p.p.p.p.p.p.p.p.p.p.p.p.p.p.p.p.p.p.p.p.p.p.p.p.p.p.p.p.p.p.p.p.p.p.",
"p.p.p.p.p.p.p.p.p.p.p.p.p.p.p.p.p.p.p.p.p.p.p.p.p.p.p.p.p.p.p.p.p.p.p.p.p.p.p.p.p.p.p.p.p.p.p.p.p.p.p.p.p.p.p.p.p.p.p.p.p.p.p.p.",
"p.p.p.p.p.p.p.p.p.p.p.p.p.p.p.p.p.p.p.p.p.p.p.p.p.p.p.p.p.p.p.p.p.p.p.p.p.p.p.p.p.p.p.p.p.p.p.p.p.p.p.p.p.p.p.p.p.p.p.p.p.p.p.p.",
"p.p.p.p.p.p.p.p.p.p.p.p.p.p.p.p.p.p.p.p.p.p.p.p.p.p.p.p.p.p.p.p.p.p.p.p.p.p.p.p.p.p.p.p.p.p.p.p.p.p.p.p.p.p.p.p.p.p.p.p.p.p.p.p.",
"p.p.p.p.p.p.p.p.p.p.p.p.p.p.p.p.p.p.p.p.p.p.p.p.p.p.p.p.p.p.p.p.p.p.p.p.p.p.p.p.p.p.p.p.p.p.p.p.p.p.p.p.p.p.p.p.p.p.p.p.p.p.p.p.",
"p.p.p.p.p.p.p.p.p.p.p.p.p.p.p.p.p.p.p.p.p.p.p.p.p.p.p.p.p.p.p..., , , +.p.p.p.p.p.p.p.p.p.p.p.p.p.p.p.p.p.p.p.p.p.p.p.p.p.p.p.p.",
"p.p.p.p.p.p.p.p.p.p.p.p.p.p.p.p.p.p.p.p.p.p.p.p.p.p.p.p.p.p.p.o.r r r @.| | | | | t.p.p.p.p.p.p.p.p.p.p.p.p.p.p.p.p.p.p.p.p.p.p.",
"p.p.p.p.p.p.p.p.p.p.p.p.p.p.p.p.p.p.p.p.p.p.p.p.p.p.p.p.p.p.p.p.p.p.p.l i i i i i %.p.p.p.p.p.p.p.p.p.p.p.p.p.p.p.p.p.p.p.p.p.p.",
"p.p.p.p.p.p.p.p.p.p.p.p.p.p.p.p.p.p.p.p.p.p.p.a.f.f.f.f.f.f.f.f.f.a.p.z h s i p a $. .p.p.p.p.p.p.p.p.p.p.p.p.p.p.p.p.p.p.p.p.p.",
"p.p.p.p.p.p.p.p.p.p.p.p.p.p.p.p.p.p.p.p.p.p.p.N.D.D.D.D.D.D.D.D.D.V.p.p.p.l i n A A A -.p.p.p.p.p.p.p.p.p.p.p.p.p.p.p.p.p.p.p.p.",
"p.p.p.p.p.p.p.p.p.p.p.p.p.p.p.p.p.p.p.a.g.g.g.B.C.C.C.C.C.C.C.C.C.v.;.;.;.c d H R L A ,.-.y.p.p.p.p.p.p.p.p.p.p.p.p.p.p.p.p.p.p.",
"p.p.p.p.p.p.p.p.p.p.p.p.p.p.p.p.p.p.p.g.D.D.D.m.5.5.5.5.5.5.5.5.5.5.5.5.5.Y A s.e.=.A A A -.p.p.p.p.p.p.p.p.p.p.p.p.p.p.p.p.p.p.",
"p.p.p.p.p.p.p.p.p.p.p.p.p.p.p.u.;.;.;.k.C.M.n.0.' ' ' ' ' ' ' ' ' ' ' ' ' Y U j.q.>.A A A 1.;.u.p.p.p.p.p.p.p.p.p.p.p.p.p.p.p.p.",
"p.p.p.p.p.p.p.p.p.p.p.p.p.p.p.;.5.5.5.5.5._ A A A A A A A A A A A A A A A _ 5.5.5.Y A A A ' 5.;.p.p.p.p.p.p.p.p.p.p.p.p.p.p.p.p.",
"p.p.p.p.p.p.p.p.p.p.p.p.p.p.-.1.' ' ' ' ' ~ U U U F A Z m m m C A A A A A ~ ' ] 5.~ U S A ' 5.;.p.p.p.p.p.p.p.p.p.p.p.p.p.p.p.p.",
"p.p.p.p.p.p.p.p.p.p.p.p.p. .A A A A A A A Y 5.5.5._ A n i i i b A A A A A A A _ 5.5.5.U A ' 5.;.p.p.p.p.p.p.p.p.p.p.p.p.p.p.p.p.",
"p.p.p.p.p.p.p.p.p.p.p.p.-.<.A A A S U U U ^ 5.5.5.` U B d a i b A A A A A A A _ 5.5.5.U A ' 5.k.g.a.p.p.p.p.p.p.p.p.p.p.p.p.p.p.",
"p.p.p.p.p.p.p.p.p.p.p. .A A A A A U 5.5.5.5.5.5.5.5.5._ A b i b A A A A A A A _ 5.5.5.U A ' 5.C.D.f.p.p.p.p.p.p.p.p.p.p.p.p.p.p.",
"p.p.p.p.p.p.p.p.p.t.%.$.A V =.>.Y ~ 5.5.5.5.5.5.5.5.5._ A b i f n M A A A m n ( 5.5.5.^ Y ~ _ M.D.f.p.p.p.p.p.p.p.p.p.p.p.p.p.p.",
"p.p.p.p.p.p.p.p.p.| i a A L e.q.5.5.5.5.5.5.5.5.5.5.5._ A b i i i b A A A g i ! 5.5.5.5.5.U A n.D.f.p.p.p.p.p.p.p.p.p.p.p.p.p.p.",
"p.p.p.p.p.p.p.p.p.| i p n v s.j.5.] _ _ _ ( ! / _ ( ! I n f i i i b A m n d i ! 5.5.5.5.5.U A 0.m.x.N.a.p.p.p.p.p.p.p.p.p.p.p.p.",
"p.p.p.p.p.p.p.p.p.| i i i a A U 5.' A A A n i g A n i i i i i i i b A g i i i ! 5.5.5.5.5.U A ' 5.S.D.f.p.p.p.p.p.p.p.p.p.p.p.p.",
"p.p.p.p.p.p.p.p.p.| i s l x Y Y _ ~ A A A m g b n g i t 8 e i i i f n d i i i ! 5.5.5.` _ F A ' 5.S.D.f.p.p.p.p.p.p.p.p.p.p.p.p.",
"p.p.p.p.p.p.p.p.p.| i h p.d.5.' A A A A A A A n i i i 8 , 7 i i i i i i i i i ! 5.5.5.U A A A ' 5.S.D.f.p.p.p.p.p.p.p.p.p.p.p.p.",
"p.p.p.p.p.p.p.r...X.O.#.p.d.5.' A A A A A A A n i i i e 7 w i w 7 ; * * * 4 i P ~ ~ ~ N b C A ' 5.S.D.f.p.p.p.p.p.p.p.p.p.p.p.p.",
"p.p.p.p.p.p.p.} , r p.p.p.d.5.' A A A A A A A n i i i i i i i 7 , #       = i n A A A d i m A ' 5.S.D.f.p.p.p.p.p.p.p.p.p.p.p.p.",
"p.p.p.p.p.p.p.} , r p.a.V.c.5.' A A A A A M b f i e 7 q i w 7 2 , #       + * 9 b b b a i m A ' 5.S.D.f.p.p.p.p.p.p.p.p.p.p.p.p.",
"p.p.p.p.p.p.p.} , r p.f.D.S.5.' A A A A A n i i i 8 , 5 i 7 , , , #           = i i i i i m A ' 5.S.D.f.p.p.p.p.p.p.p.p.p.p.p.p.",
"p.p.p.p.p.p.p.r...o.p.f.D.S.5.' A C b b b f i e 7 3 , 1 7 7 7 2 , & # X       = i f b b b C A ' 5.S.D.f.p.o...p.p.p.p.p.p.p.p.p.",
"p.p.p.p.p.p.p.p.p.p.p.f.D.S.5.' A m i i i i i 8 , , , , , 7 i 7 , , , O       = i n A A A A A ' 5.S.D.f.p.r , p.p.p.p.p.p.p.p.p.",
"p.p.p.p.p.p.p.p.p.p.p.f.D.S.5.' A m i a b b b y , 1 7 q i d b i 7 2 , O       < b M A A A A A ' 5.c.V.a.p.r , p.p.p.p.p.p.p.p.p.",
"p.p.p.p.p.p.p.p.p.p.p.f.D.S.5.' A m i d A A A d , 5 i g A A A b i 7 , O       6 A A A A A A A ' 5.d.p.p.p.r , p.p.p.p.p.p.p.p.p.",
"p.p.p.p.p.p.p.p.p.p.p.f.D.S.5.' A Z n B _ _ _ / Q J n m A g w - $ @ O .   O % u A A A A A A A ' 5.d.p.z l @.+.p.p.p.p.p.p.p.p.p.",
"p.p.p.p.p.p.p.p.p.p.p.f.D.S.5.' A A A U 5.5.5.5.5._ A A A i , #           % , d A A A A A A A ' 5.d.p.h i | p.p.p.p.p.p.p.p.p.p.",
"p.p.p.p.p.p.p.p.p.p.p.f.D.S.5.' A F _ ` 5.5.5.5.5._ A m g : O o       O % > 8 a g m A A A ~ _ Y Y x l s i | p.p.p.p.p.p.p.p.p.p.",
"p.p.p.p.p.p.p.p.p.p.p.f.D.S.5.' A U 5.5.5.5.5.5.5._ A n i *           % , 8 i i i n A A A ' 5.U A a i i i | p.p.p.p.p.p.p.p.p.p.",
"p.p.p.p.p.p.p.p.p.p.p.i.3.2.Y 4.s.:.5.5.5.5.5.5.5.] _ ( ! j 6 < = = = 0 d b n d i I _ _ _ ] 5.U A 8.9.&.%.t.p.p.p.p.p.p.p.p.p.p.",
"p.p.p.p.p.p.p.p.p.p.p.| i a A R e.q.5.5.5.5.5.5.5.5.5.5.5.~ A b i i i n A A A g i ! 5.5.5.5.5.U A Z.D.f.p.p.p.p.p.p.p.p.p.p.p.p.",
"p.p.p.p.p.p.p.p.p.p.p.t.{ *.A V R E U T 5.5.5.5.5.5.5.5.5.~ A b i g m Z A A A M m ) 5.5.5.T U _ ' S.D.f.p.p.p.p.p.p.p.p.p.p.p.p.",
"p.p.p.p.p.p.p.p.p.p.p.p.p. .A A A A A U 5.5.5.5.5.5.5.5.5.~ A b i b A A A A A A A _ 5.5.5.U A ' 5.S.D.f.p.p.p.p.p.p.p.p.p.p.p.p.",
"p.p.p.p.p.p.p.p.p.p.p.p.p.y.-.,.A A A S U U U ~ 5.5.5.' U N d a i b A A A A A A A _ 5.5.5.U A ' 5.l.g.p.p.p.p.p.p.p.p.p.p.p.p.p.",
"p.p.p.p.p.p.p.p.p.p.p.p.p.p.p.-.A A A A A A A Y 5.5.5._ A b i i i b A A A A A A A _ 5.5.5.U A ' 5.d.p.p.p.p.p.p.p.p.p.p.p.p.p.p.",
"p.p.p.p.p.p.p.p.p.p.p.p.p.p.p.y.-.1.' ' ' ' ' _ U U U D A C m m m C A A A A A T ' [ 5.T U S A ' 5.d.p.p.p.p.p.p.p.p.p.p.p.p.p.p.",
"p.p.p.p.p.p.p.p.p.p.p.p.p.p.p.p.p.;.5.5.5.5.5._ A A A A A A A A A A A A A A A _ 5.5.5.U A A A ' 5.d.p.p.p.p.p.p.p.p.p.p.p.p.p.p.",
"p.p.p.p.p.p.p.p.p.p.p.p.p.p.p.p.p.p.d.d.d.z.S.A.Z.b.] ] ] ] ] ] ] ] ] ] ] ] ] Y D h.w.W A A A 7.d.p.p.p.p.p.p.p.p.p.p.p.p.p.p.p.",
"p.p.p.p.p.p.p.p.p.p.p.p.p.p.p.p.p.p.p.p.p.N.D.D.D.m.5.5.5.5.5.5.5.5.5.5.5.5.5.Y A s.e.R A A A -.p.p.p.p.p.p.p.p.p.p.p.p.p.p.p.p.",
"p.p.p.p.p.p.p.p.p.p.p.p.p.p.p.p.p.p.p.p.p.a.f.f.f.x.S.S.S.S.S.S.S.S.S.z.d.d.d.x a G L K A 6. .y.p.p.p.p.p.p.p.p.p.p.p.p.p.p.p.p.",
"p.p.p.p.p.p.p.p.p.p.p.p.p.p.p.p.p.p.p.p.p.p.p.p.p.N.D.D.D.D.D.D.D.D.D.N.p.p.p.l i n A A A -.p.p.p.p.p.p.p.p.p.p.p.p.p.p.p.p.p.p.",
"p.p.p.p.p.p.p.p.p.p.p.p.p.p.p.p.p.p.p.p.p.p.p.p.p.a.f.f.f.f.f.f.f.f.f.a.p.z h s i p a *. .y.p.p.p.p.p.p.p.p.p.p.p.p.p.p.p.p.p.p.",
"p.p.p.p.p.p.p.p.p.p.p.p.p.p.p.p.p.p.p.p.p.p.p.p.p.p.p.p.p.p.p.p.p.p.p.p.p.l i i i i i { p.p.p.p.p.p.p.p.p.p.p.p.p.p.p.p.p.p.p.p.",
"p.p.p.p.p.p.p.p.p.p.p.p.p.p.p.p.p.p.p.p.p.p.p.p.p.p.p.p.p.p.p.p.p.o.r r r @.| | | | | t.p.p.p.p.p.p.p.p.p.p.p.p.p.p.p.p.p.p.p.p.",
"p.p.p.p.p.p.p.p.p.p.p.p.p.p.p.p.p.p.p.p.p.p.p.p.p.p.p.p.p.p.p.p.p..., , , +.p.p.p.p.p.p.p.p.p.p.p.p.p.p.p.p.p.p.p.p.p.p.p.p.p.p.",
"p.p.p.p.p.p.p.p.p.p.p.p.p.p.p.p.p.p.p.p.p.p.p.p.p.p.p.p.p.p.p.p.p.p.p.k , +.p.p.p.p.p.p.p.p.p.p.p.p.p.p.p.p.p.p.p.p.p.p.p.p.p.p.",
"p.p.p.p.p.p.p.p.p.p.p.p.p.p.p.p.p.p.p.p.p.p.p.p.p.p.p.p.p.p.p.p.p.p.p.k , +.p.p.p.p.p.p.p.p.p.p.p.p.p.p.p.p.p.p.p.p.p.p.p.p.p.p.",
"p.p.p.p.p.p.p.p.p.p.p.p.p.p.p.p.p.p.p.p.p.p.p.p.p.p.p.p.p.p.p.p.p.p.p.p.p.p.p.p.p.p.p.p.p.p.p.p.p.p.p.p.p.p.p.p.p.p.p.p.p.p.p.p.",
"p.p.p.p.p.p.p.p.p.p.p.p.p.p.p.p.p.p.p.p.p.p.p.p.p.p.p.p.p.p.p.p.p.p.p.p.p.p.p.p.p.p.p.p.p.p.p.p.p.p.p.p.p.p.p.p.p.p.p.p.p.p.p.p.",
"p.p.p.p.p.p.p.p.p.p.p.p.p.p.p.p.p.p.p.p.p.p.p.p.p.p.p.p.p.p.p.p.p.p.p.p.p.p.p.p.p.p.p.p.p.p.p.p.p.p.p.p.p.p.p.p.p.p.p.p.p.p.p.p.",
"p.p.p.p.p.p.p.p.p.p.p.p.p.p.p.p.p.p.p.p.p.p.p.p.p.p.p.p.p.p.p.p.p.p.p.p.p.p.p.p.p.p.p.p.p.p.p.p.p.p.p.p.p.p.p.p.p.p.p.p.p.p.p.p.",
"p.p.p.p.p.p.p.p.p.p.p.p.p.p.p.p.p.p.p.p.p.p.p.p.p.p.p.p.p.p.p.p.p.p.p.p.p.p.p.p.p.p.p.p.p.p.p.p.p.p.p.p.p.p.p.p.p.p.p.p.p.p.p.p.",
"p.p.p.p.p.p.p.p.p.p.p.p.p.p.p.p.p.p.p.p.p.p.p.p.p.p.p.p.p.p.p.p.p.p.p.p.p.p.p.p.p.p.p.p.p.p.p.p.p.p.p.p.p.p.p.p.p.p.p.p.p.p.p.p.",
"p.p.p.p.p.p.p.p.p.p.p.p.p.p.p.p.p.p.p.p.p.p.p.p.p.p.p.p.p.p.p.p.p.p.p.p.p.p.p.p.p.p.p.p.p.p.p.p.p.p.p.p.p.p.p.p.p.p.p.p.p.p.p.p.",
"p.p.p.p.p.p.p.p.p.p.p.p.p.p.p.p.p.p.p.p.p.p.p.p.p.p.p.p.p.p.p.p.p.p.p.p.p.p.p.p.p.p.p.p.p.p.p.p.p.p.p.p.p.p.p.p.p.p.p.p.p.p.p.p."
};
