/* XPM */
static char *result[] = {
/* columns rows colors chars-per-pixel */
"64 64 192 2 ",
"   c #BD0808",
".  c #C40C07",
"X  c #CE0E06",
"o  c #C00C09",
"O  c #C5130B",
"+  c #CB1A0D",
"@  c #C71807",
"#  c #D51105",
"$  c #DE1404",
"%  c #C51C19",
"&  c #C11718",
"*  c #E61703",
"=  c #ED1902",
"-  c #E31A04",
";  c #F61D01",
":  c #FA1F01",
">  c #CD2206",
",  c #D62F05",
"<  c #D1210E",
"1  c #D9260A",
"2  c #CE3506",
"3  c #DE3204",
"4  c #CF2111",
"5  c #C9211A",
"6  c #D62810",
"7  c #CE3D13",
"8  c #DE3217",
"9  c #E82509",
"0  c #FF2000",
"q  c #FF2B00",
"w  c #E4350B",
"e  c #FF3400",
"r  c #FF3D00",
"t  c #FF3B0F",
"y  c #E63B1A",
"u  c #F73410",
"i  c #C52627",
"p  c #D23B35",
"a  c #CE4306",
"s  c #D9470A",
"d  c #D14818",
"f  c #E64A03",
"g  c #E5430A",
"h  c #FF4400",
"j  c #FF4800",
"k  c #F74C01",
"l  c #EF5604",
"z  c #E45E0B",
"x  c #E65303",
"c  c #FF5300",
"v  c #FF5C00",
"b  c #FF5608",
"n  c #E9411E",
"m  c #EA4712",
"M  c #F3491C",
"N  c #F65919",
"B  c #DE6104",
"V  c #DE7D04",
"C  c #E56C03",
"Z  c #EF6E02",
"A  c #F76401",
"S  c #FF6600",
"D  c #FD6C02",
"F  c #F56607",
"G  c #E67703",
"H  c #FF7100",
"J  c #FF7B00",
"K  c #F57A04",
"L  c #FF6D14",
"P  c #FF741A",
"I  c #CE4520",
"U  c #DB422E",
"Y  c #D6463A",
"T  c #EF4921",
"R  c #F35A27",
"E  c #DD7634",
"W  c #FF6929",
"Q  c #FF6422",
"!  c #FF7228",
"~  c #CD4545",
"^  c #D5524D",
"/  c #E15C4B",
"(  c #E25642",
")  c #E3614D",
"_  c #F9794E",
"`  c #D66364",
"'  c #D96766",
"]  c #E57669",
"[  c #EF8D02",
"{  c #ED8807",
"}  c #FF8300",
"|  c #FF8C00",
" . c #F28905",
".. c #E69A03",
"X. c #FF9400",
"o. c #FF9E00",
"O. c #FF930A",
"+. c #F98511",
"@. c #FF9114",
"#. c #FFA700",
"$. c #FFA900",
"%. c #F7A301",
"&. c #EFB802",
"*. c #FFB300",
"=. c #FFBA00",
"-. c #F6B407",
";. c #DE8139",
":. c #EF9522",
">. c #FF932F",
",. c #F9832C",
"<. c #FFA328",
"1. c #F3AE30",
"2. c #EAAA31",
"3. c #FFC200",
"4. c #FFCC00",
"5. c #FFC20D",
"6. c #FFD501",
"7. c #FFDC01",
"8. c #FFDA0D",
"9. c #FFCA1A",
"0. c #FFE400",
"q. c #FFEB00",
"w. c #FFF300",
"e. c #FFF40D",
"r. c #FFE814",
"t. c #FFF417",
"y. c #FFF51D",
"u. c #FFC220",
"i. c #FDDC39",
"p. c #FFD228",
"a. c #FFF627",
"s. c #FFE93C",
"d. c #FFF633",
"f. c #FF8D5F",
"g. c #EA904A",
"h. c #EBA647",
"j. c #FFA943",
"k. c #FBA749",
"l. c #FE9D79",
"z. c #EB8E73",
"x. c #EFAE6D",
"c. c #FAD044",
"v. c #FFE343",
"b. c #FFF843",
"n. c #FFF543",
"m. c #FFEB50",
"M. c #FEE05F",
"N. c #FFF950",
"B. c #FFF75E",
"V. c #FFD260",
"C. c #FAE160",
"Z. c #FFFB6B",
"A. c #FFF564",
"S. c #FFFB76",
"D. c #FFFB7E",
"F. c #DE8183",
"G. c #EA9187",
"H. c #F19A8C",
"J. c #E59393",
"K. c #F7A290",
"L. c #E69FA2",
"P. c #E6A0A3",
"I. c #EFACA5",
"U. c #EBA6A4",
"Y. c #F7B6AB",
"T. c #F7D182",
"R. c #FFF780",
"E. c #FFFA8B",
"W. c #FFFB9C",
"Q. c #FFFA92",
"!. c #FFFBA9",
"~. c #FFF7A5",
"^. c #FFEABF",
"/. c #FFFBBD",
"(. c #FFFBB0",
"). c #FFEBA4",
"_. c #EFBEC1",
"`. c #F5C7C3",
"'. c #FCCCC5",
"]. c #FFD6CA",
"[. c #FFDFDF",
"{. c #FFFBC4",
"}. c #FFEADF",
"|. c #FFFADD",
" X c #FDE4C3",
".X c #F7DCE0",
"XX c #FBE3E2",
"oX c #FFE9E4",
"OX c #FFFBEF",
"+X c #FFFBFF",
"@X c #FFFBF7",
"#X c None",
/* pixels */
"#X#X#X#X#X#X#X#X#X#X#X#X#X#X#X#X#X#X#X#X#X#X#X#X#X#X#X#X#X#X#X#X#X#X#X#X#X#X#X#X#X#X#X#X#X#X#X#X#X#X#X#X#X#X#X#X#X#X#X#X#X#X#X#X",
"#X#X#X#X#X#X#X#X#X#X#X#X#X#X#X#X#X#X#X#X#X#X#X#X#X#X#X#X#X#X#X#X#X#X#X#X#X#X#X#X#X#X#X#X#X#X#X#X#X#X#X#X#X#X#X#X#X#X#X#X#X#X#X#X",
"#X#X#X#X#X#X#X#X#X#X#X#X#X#X#X#X#X#X#X#X#X#X#X#X#X#X#X#X#X#X#X#X#X#X#X#X#X#X#X#X#X#X#X#X#X#X#X#X#X#X#X#X#X#X#X#X#X#X#X#X#X#X#X#X",
"#X#X#X#X#X#X#X#X#X#X#X#X#X#X#X#X#X#X#X#X#X#X#X#X#X#X#X#X#X#X#X#X#X#X#X#X#X#X#X#X#X#X#X#X#X#X#X#X#X#X#X#X#X#X#X#X#X#X#X#X#X#X#X#X",
"#X#X#X#X#X#X#X#X#X#X#X#X#X#X#X#X#X#X#X#X#X#X#X#X#X#X#X#X#X#X#X#X#X#X#X#X#X#X#X#X#X#X#X#X#X0 #X#X#X#X#X#X#X#X#X#X#X#X#X#X#X#X#X#X",
"#X#X#X#X#X#X#X#X#X#X#X#X#X#X#X#X#X#X#X#X#X#X#X#X#X#X#X#X#X#X#X#X#X#X#X#X#X#X#X#X#X#X#X#X#X0 0 #X#X#X#X#X#X#X#X#X#X#X#X#X#X#X#X#X",
"#X#X#X#X#X#X#X#X#X#X#X#X#X#X#X#X#X#X#X#XH #X#X#X#X#X#X#X#X#X#X#X#X#X#X#X#X#X#X#X#X#X#X: = # * 0 0 0 #X#X#X0 0 0 #X#X#X#X#X#X#X#X",
"#X#X#X#X#X#X#X#X#X#X#X#X#X#X#X#X#X#X#XH H #X#X#X#X#X#X#X#X#X#X#X#X#X#X#X#X#X#X#X#X#X#X0 *   $ 0 0 0 #X#X0 0 0 0 #X#X#X#X#X#X#X#X",
"    #X#X#X#X#X#X#X#X#X#X#X#X#X#X#X#X#X#X#X#X#X#X#X#X#X0 0 #X#X#X#X#X#X#X#X#X#X#X#X0 = # # #X#X#X$ # * 0 0 0 0 0 #X#X#X#X#X#X#X#X",
"    #X#X#X#X#X#X#X#X#X#X#X#X#X#X#X#X#X#X#X#X#X#X#X#X#X0 0 #X#X#X#X#X#X#X#X#X#X#X#X0 *     #X#X#X    * 0 0 0 0 0 #X#X#X#X#X#X#X#X",
"= ;     #X#X#X#X#X#X#X#X#X#X#X#X#X#X#X#X#X#X#X#X#X#X#X#X#X0 0 0 0 0 0 #X#X    o . X 1 l k : #X#X#X#X0 0 0 0 0 0 0 0 S H #X#X#X#X",
"0 :     #X#X#X#X#X#X#X#X#X#X#X#X#X#X#X#X#X#X#X#X#X#X#X#X#X0 0 0 0 0 0 #X#X          , H c 0 0 #X#X#X0 0 0 0 0 0 0 0 S H #X#X#X#X",
"v v = ; H H H v 0 0 #X#X#X#X#X#XH #X#X#X#X#X#X#X#X#X#X0 0 c v v v 0 : o             o > 3 S h 0 #X#XX X ; 0 0 0 0 0 S H 0 0 #X#X",
"D H 0 0 H H H v 0 0 #X#X#X#X#XH H H #X#X#X#X#X#X#X#X#X0 0 S H H H 0 ;                   , D j 0 #X#X    = 0 0 0 0 0 S H 0 0 #X#X",
"H H 0 0 H H H H #X#X#X#X#X#X#X#X#X#X#XH H #X#X#X#XZ.Z.8.7.^.}.}.}.[.'.n y               o @ - 0 #X#X#X#XA S q 0 0 0 q q #X#X#X#X",
"H H 0 0 H H H H #X#X#X#X#X#X#X#X#X#X#XH H #X#X#X#XZ.Z.e.w.|.+X+X+X+XXXT y                   $ 0 #X#X#X#XH H e 0 0 0 0 0 #X#X#X#X",
"#X#X#X#Xq q q q 0 0 #X#X#X#X0 0 0 #X#XH H H H #X#XR R  XOX/ U U U U ) oX'.y 8   X ; k %.C   $ 0 0 0 0 0 0 q 0 0 0 0 0 0 0 0 #X#X",
"#X#X#X#X0 0 : : 0 0 #X#X#X#X0 0 0 0 #XH H H H #X#XT T XX@XU 6 6 6 6 U +XXXT y   X : v =.G   $ 0 0 0 0 0 0 0 0 0 0 0 0 0 0 0 #X#X",
"#X#X#X#X#X#X#X#X#X#X#X#X0 r H H #X#X#X#X#XD H >   _.+XU 6 o           6 U +X_.  a w...  , H j 0 0 0 0 0 0 0 v H q 0 S H 0 0 #X#X",
"#X#X#X#X#X#X#X#X#X#X#X#X0 r H H #X#X#X#X#XH H >   _.+XU 6             6 U +X_.  a w...  , H k 0 0 0 0 0 0 0 v H q 0 S H 0 0 #X#X",
"#X#X#X#X#X#X#X#X0 0 0 v =.o.H H #X#X#X#X#X        _.+XU 6     +X+X    6 U +X_.  I Z.v.=.o.D X.=.#X#X0 0 v H H H H H H H H H #X#X",
"#X#X#X#X#X#X#X#X0 0 q v $.o.J J #X#X#X#X#X        _.+XU 6     XX[.    6 U +X_.  I B.v.5.o.A | =.#X#Xq q v H J J H H H H S S #X#X",
"#X#X#X#X#X#X#X#X#X#XH H H | =.X.H H #X            _.+XU 6             6 U +X`.  a w.a.Z.h.  B =.| H H D H H $.=.J H H H 0 0 #X#X",
"#X#X#X#X#X#X#X#X#X#XH J } X.#.| H D #Xp ~ ~ ~ ~ ~ Y.].) ) 5   O   O O ) ] _.J.X s y.d.N.2.2 G =.| H } X.| } o.#.J H H H 0 0 #X#X",
"#X#X#X#X#X#X#X#X0 e H | =.o.H D H N M Y.+X+X+X+X+Xf.W oX+XU 6 6 6 6 U +XXX  X 0 N Z.n.w.7.=.=.=.| H 3.w.3.=.} H H H H H : 0 #X#X",
"#X#X#X#X#X#X#X#Xe h D X.=.$.X.X.X.,._ Y.`.`.`.`.`.l.f.].].) / / / ) ] `.U.  @ j P Z.n.0.6.=.*.$.} H =.0.6.4.} H H H H H : 0 #X#X",
"#X#X#X#X#X#X0 e H D #X#X=.4.w.w.w.R.+X] 6 6 6 6 < `.+X_ W oX+X+X+X+XXX6 <   2 =.9.Z.v.=.=.=.X.H H H o.=.0.w.X.H H H H H 0 0 #X#X",
"#X#X#X#X#X#X0 q c S #X4.4.7.w.d.A.T.I.^ + 4 4 5 + z.I.l.l.P.L.L.P.P.J.+ +   7 p.i.Z.c.{  .o.X.| F l } o.=.3.| H H H | | 0 0 #X#X",
"#X#X#X#X#X#X#X#X0 j =.4.w.w.w.R.+XG.6 O           < 6 }.+Xi                 I Z.Z.Z.h.6 m H X.=.z 1 l H H H H H H D =.=.0 0 #X#X",
"#X#X#X#X#X#X#X#X: r o.=.7.0.w.R.+XG.6 O   ~ '     < 4 [.+Xi   ` '       o @ d b.b.b.1.8 m F | =.{ z K | H H H H | | =.=.0 0 #X#X",
"#X#X#X#X#X#X#X#X0 e D | =.4.w.R.+XG.6 O   P.+X~   < 6 [.+Xi   +X+X        6 z w.w.w.-.T T T +.=.=.=.=.=.} H H H $.=.=.=.#X#X#X#X",
"#X#X#X#X#X#X#X#X0 h H | =.6.w.R.+XG.6 @   ^ F.i   < 6 }.+Xi   F.F.      o 6 s { { | L u t R +.=.4.6.6.6.#.X.X.X.=.=.X.X.#X#X#X#X",
"#X#X#X#X#X#X#X#X#X#XH | =.4.w.R.+XG.6 O           + 6 XX+Xi               6 6 6 9 0 0 0 h W @.=.7.w.w.w.4.=.=.=.=.=.J H #X#X#X#X",
"#X#X#X#X#X#X0 0 0 e j J 6.&.V g.K.H.G.Y + + + + + ] G.G.G.&   $ $ ;.;.;.E 6 6 6 8 j j j b P O.=.4.6.q.w.3.=.=.=.X.X.H H #X#X#X#X",
"#X#X#X#X#X#X0 0 0 0 0 H w...  6 T K.+X] 6 6 , 6 6 `.+XU 6 o   0 0 Z.Z.Z.M.1 6 6 3 H H H D H X.=.=.=.7.w.4.=.=.=.J H #X#X#X#X#X#X",
"#X#X0 0 #X#X0 e c c c S #.C   O 4 ( z.H.I.I.I.I.I.' ` 5 @ * * j.j.Z.Z.Z.M.9 u l F o.| H H H X.=.4.7.7.4.3.=.X.| #.o.#X#X#X#X#X#X",
"#X#X0 0 #X#X0 e H H H H H f       6 T Y.+X+X+X@X+X~       ; : Z.Z.Z.Z.Z.M.0 e H } =.#.H H H X.=.7.w.6.=.=.=.} H =.=.#X#X#X#X#X#X",
"#X#X#X#X0 0 0 e H J #.| H f       O 4 ^ ` ` ` x.V.:.G z.x.k.k.~.W.<.<.! Q 0 e H H | } D H H } | =.6.3.=.=.=.X.#X#X#X#X#X#X#X#X#X",
"#X#X#X#X0 0 0 e D } =.o.H f                   { =.=.3.~.{.S.Z././.H S 0 0 0 e H H H H H H H H H X.=.=.=.=.=.#X#X#X#X#X#X#X#X#X#X",
"#X#X0 0 v v v c e v =.$.#.G   s [ [  .Z x [ &.s.m.).^.OXOX!.!.>.>.3 w 0 0 v H $.$.$.X.H H H H H } } | #X#X#X#X#X#X#X#X#X#X#X#X#X",
"#X#X0 0 H H H v 0 j =.=.=.G   B =.=.=.| H 3.w.N.Z.|.@X+X+X{./.H J 6 6 : q H } =.=.=.o.H H H H H H H #X#X#X#X#X#X#X#X#X#X#X#X#X#X",
"#X#X0 0 H H $.X.v H =.$.} x   @ 2 G =.3.6.q.w.N.Z.|.+X+X+X{./.H H T y : q H } =.=.=.*.#.X.H | $.} H H H #X#X#X#X#X#X#X#X#X#X#X#X",
"#X#X0 0 H J =.$.H } =.X.H f       B =.7.w.w.w.N.Z.|.+X+X+X{./.H H T M : q H } =.=.=.=.=.X.H X.=.| H H H #X#X#X#X#X#X#X#X#X#X#X#X",
"0 0 0 0 H H J | *.*.=.#.H D A A A D J $.3.0.w.w.e.Q.{.E.D.a.t.M T T N #.#.*.3.q.7.=.=.=.=.*.X.J H H #X#X#X#X#X#X#X#X#X#X#X#X#X#X",
"0 0 0 0 H H H } =.=.=.o.H D H H H H H o.=.7.w.w.w.Q./.S.Z.e.w.T T T N =.=.=.3.w.0.=.=.=.=.=.X.H H H #X#X#X#X#X#X#X#X#X#X#X#X#X#X",
"#X#X0 0 H S q r J J J H H | *.X.H H H H J #.=.q.w.e.t.e.e.c r 7.7.7.8.=.=.=.=.3.$.J J J J J c q v H #X#X#X#X#X#X#X#X#X#X#X#X#X#X",
"#X#X0 0 H S 0 e H H H H H | =.X.H H H H D #.=.0.w.w.w.w.w.r 0 w.w.w.q.=.=.=.=.=.$.H H H H H j : c H #X#X#X#X#X#X#X#X#X#X#X#X#X#X",
"#X#X#X#X0 0 0 0 0 j =.=.=.o.H X.=.=.=.=.=.=.=.=.=.=.=.q.w.=.=.w.w.w.7.0 q D } =.X.0 0 0 : #XH H H H #X#X#X#X#X#X#X#X#X#X#X#X#X#X",
"#X#X#X#X0 0 0 0 0 j =.=.=.o.H X.=.=.=.=.=.=.=.=.=.=.=.q.w.3.=.w.w.w.7.0 q H } =.X.0 0 0 0 #XH H H H #X#X#X#X#X#X#X#X#X#X#X#X#X#X",
"#X#X0 0 #X#X#X#XH } =.=.=.=.=.=.=.=.=.=.=.=.=.=.=.=.=.=.=.A.Z.w.w.w.q.=.*.H v 0 : 0 0 #X#XH H H #X#X#X#X#X#X#X#X#X#X#X#X#X#X#X#X",
"#X#X0 0 #X#X#X#XH J *.=.=.=.=.=.*.=.=.=.=.=.=.=.=.3.=.u.u.A.S.q.q.0.7.$.#.S v 0 0 0 0 #X#XH H H #X#X#X#X#X#X#X#X#X#X#X#X#X#X#X#X",
"#X#X#X#X    #X#XH H H | =.=.=.X.H X.=.=.=.=.=.=.=.0.w.|.+X{./.=.=.H H H S : 0 #X#X#X#X#X#X#X#X#X#X#X#X#X#X#X#X#X#X#X#X#X#X#X#X#X",
"#X#X#X#X. . #X#XH H J X.=.=.=.X.J X.=.=.=.=.=.5.5.r.t.|.+X!.~.=.=.H H S v 0 0 #X#X#X#X#X#X#X#X#X#X#X#X#X#X#X#X#X#X#X#X#X#X#X#X#X",
"#X#X#X#X0 q H H H } =.=.=.=.=.=.=.=.=.=.=.=.=.m.Z.!./.@X+Xa.w.=.=.H S 0 0 0 0 #X#X#X#X#X#X#X#X#X#X#X#X#X#X#X#X#X#X#X#X#X#X#X#X#X",
"#X#X#X#X0 q v S } | #.$.=.=.$.*.=.*.#.*.=.=.=.s.N.Q.!.{./.r.q.X.X.H S 0 0 0 0 #X#X#X#X#X#X#X#X#X#X#X#X#X#X#X#X#X#X#X#X#X#X#X#X#X",
"#X#X#X#X#X#X0 j =.$.D | =.o.H X.=.X.H o.=.=.=.0.w.N.Z.e.w.=.=.: 0 H S 0 0 #X#X#X#X#X#X#X#X#X#X#X#X#X#X#X#X#X#X#X#X#X#X#X#X#X#X#X",
"#X#X#X#X#X#X: j X.} v J #.X.D | #.| H X.#.#.#.6.0.s.m.7.6.o.X.0 0 v c 0 0 #X#X#X#X#X#X#X#X#X#X#X#X#X#X#X#X#X#X#X#X#X#X#X#X#X#X#X",
"#X#X#X#X#X#X#X#X0 0 : r H H H H H D H H H H H $.=.=.=.J D q 0 0 0 0 0 0 0 #X#X#X#X#X#X#X#X#X#X#X#X#X#X#X#X#X#X#X#X#X#X#X#X#X#X#X",
"#X#X#X#X#X#X#X#X0 0 0 h H H H S c S D v c c c | o.o.o.H H q 0 0 0 0 0 0 0 #X#X#X#X#X#X#X#X#X#X#X#X#X#X#X#X#X#X#X#X#X#X#X#X#X#X#X",
"#X#X#X#X#X#X#X#X#X#X0 r H H D j 0 0 #X0 0 0 0 v H H H #X#X#X#X0 0 0 0 #X#X#X#X#X#X#X#X#X#X#X#X#X#X#X#X#X#X#X#X#X#X#X#X#X#X#X#X#X",
"#X#X#X#X#X#X#X#X#X#X: h H H D j 0 #X#X#X0 0 : v H H H #X#X#X#X0 0 0 0 #X#X#X#X#X#X#X#X#X#X#X#X#X#X#X#X#X#X#X#X#X#X#X#X#X#X#X#X#X",
"#X#X#X#X#X#X#X#X#X#X#X#X#X#X#X#X#X#X#X#X#X#X#X#X#X#X#X#X#X#X#X#X#X#X#X#X#X#X#X#X#X#X#X#X#X#X#X#X#X#X#X#X#X#X#X#X#X#X#X#X#X#X#X#X",
"#X#X#X#X#X#X#X#X#X#X#X#X#X#X#X#X#X#X#X#X#X#X#X#X#X#X#X#X#X#X#X#X#X#X#X#X#X#X#X#X#X#X#X#X#X#X#X#X#X#X#X#X#X#X#X#X#X#X#X#X#X#X#X#X",
"#X#X#X#X#X#X#X#X#X#X#X#X#X#X#X#X#X#X#X#X#X#X#X#X#X#X#X#X#X#X#X#X#X#X#X#X#X#X#X#X#X#X#X#X#X#X#X#X#X#X#X#X#X#X#X#X#X#X#X#X#X#X#X#X"
};
