/* XPM */
static char *result[] = {
/* columns rows colors chars-per-pixel */
"64 64 192 2 ",
"   c #BD0808",
".  c #C30C07",
"X  c #CC0D06",
"o  c #C00C09",
"O  c #C51507",
"+  c #C51E07",
"@  c #C4120B",
"#  c #CA190D",
"$  c #CE1806",
"%  c #DB1304",
"&  c #C11718",
"*  c #C31918",
"=  c #C51814",
"-  c #E91803",
";  c #F71D01",
":  c #CD2206",
">  c #CE210D",
",  c #C92806",
"<  c #D3240F",
"1  c #D62F05",
"2  c #CE3406",
"3  c #CE3806",
"4  c #D23B09",
"5  c #CA231B",
"6  c #CA2414",
"7  c #D02011",
"8  c #D62810",
"9  c #D92712",
"0  c #DC3017",
"q  c #DD3018",
"w  c #FF2000",
"e  c #FF2A00",
"r  c #FF3400",
"t  c #FF3C00",
"y  c #F73601",
"u  c #E43A1A",
"i  c #E13B17",
"p  c #ED2C0A",
"a  c #C52627",
"s  c #CE3720",
"d  c #C93536",
"f  c #CE4306",
"g  c #D64B05",
"h  c #DB421B",
"j  c #E94803",
"k  c #FF4400",
"l  c #FE4A00",
"z  c #E95907",
"x  c #FF5300",
"c  c #FF5C00",
"v  c #F65D07",
"b  c #E7411B",
"n  c #F1571D",
"m  c #F55815",
"M  c #D66005",
"N  c #DE6104",
"B  c #D66112",
"V  c #E86A0A",
"C  c #F76401",
"Z  c #FF6700",
"A  c #FE6D00",
"S  c #E67703",
"D  c #E5740A",
"F  c #EC7808",
"G  c #FF7100",
"H  c #FF7B00",
"J  c #F36519",
"K  c #E37210",
"L  c #F47416",
"P  c #ED6B15",
"I  c #DB422E",
"U  c #D6463A",
"Y  c #EF4921",
"T  c #F1512A",
"R  c #F15F3D",
"E  c #E05D27",
"W  c #D6632B",
"Q  c #FF6929",
"!  c #E36E2E",
"~  c #CE4545",
"^  c #DC574B",
"/  c #D15455",
"(  c #F27558",
")  c #D66364",
"_  c #DA7274",
"`  c #E6776A",
"'  c #EF8D02",
"]  c #FF8200",
"[  c #FF8C00",
"{  c #F98F0C",
"}  c #F9860C",
"|  c #E69A03",
" . c #FF9500",
".. c #FF9E00",
"X. c #FB9E08",
"o. c #F9930C",
"O. c #F68613",
"+. c #F99D15",
"@. c #F7A401",
"#. c #FFA500",
"$. c #FFA900",
"%. c #FFB200",
"&. c #FFBA00",
"*. c #F8B607",
"=. c #FFBE10",
"-. c #F0812D",
";. c #ED943C",
":. c #FFC200",
">. c #FFCC01",
",. c #FFC20D",
"<. c #FBC808",
"1. c #F7C701",
"2. c #FFD601",
"3. c #FFDD00",
"4. c #FFD40D",
"5. c #F7D501",
"6. c #FFC21B",
"7. c #FFD010",
"8. c #FFE400",
"9. c #FFED00",
"0. c #FFE20D",
"q. c #FFF300",
"w. c #FFF40D",
"e. c #FFF51B",
"r. c #FFF417",
"t. c #FFC220",
"y. c #FFCB22",
"u. c #FFC934",
"i. c #FFD934",
"p. c #FFF420",
"a. c #FEED37",
"s. c #FF8A6B",
"d. c #E68278",
"f. c #F58B74",
"g. c #FF9C7C",
"h. c #FFA77C",
"j. c #FFA66B",
"k. c #FFC743",
"l. c #FFCB42",
"z. c #FFD950",
"x. c #FDD151",
"c. c #FFE643",
"v. c #FFF540",
"b. c #FFF843",
"n. c #FFEB50",
"m. c #FEE452",
"M. c #FFF552",
"N. c #FFF950",
"B. c #FFFA5E",
"V. c #FFD670",
"C. c #FFFB6B",
"Z. c #FFF962",
"A. c #FFEF7C",
"S. c #FFFB7E",
"D. c #FFFB75",
"F. c #DE8183",
"G. c #E28685",
"H. c #EA9187",
"J. c #EE9A8C",
"K. c #F19C8C",
"L. c #E79794",
"P. c #F5A28E",
"I. c #FFA690",
"U. c #FFB294",
"Y. c #EFABA5",
"T. c #E6A0A3",
"R. c #F8B7AB",
"E. c #F1B7B4",
"W. c #FFC79B",
"Q. c #F7D182",
"!. c #FFF98D",
"~. c #FFE29F",
"^. c #FFFB90",
"/. c #FFF89D",
"(. c #FFC5AF",
"). c #FAD0A1",
"_. c #FFE8A7",
"`. c #FFFBA2",
"'. c #FFEBBF",
"]. c #FFFABE",
"[. c #FFF9B3",
"{. c #EFBEC1",
"}. c #F5C7C3",
"|. c #FFFBCA",
" X c #FFFBC5",
".X c #FFFBDA",
"XX c #FFF9D5",
"oX c #FAE1E1",
"OX c #FFFBEE",
"+X c #FFFBFF",
"@X c #FFFBF3",
"#X c None",
/* pixels */
"#X#X#X#X#X#X#X#X#X#X#X#X#X#X#X#X#X#X#X#X#X#X#X#X#X#X#X#X#X#X#X#X#X#X#X#X#X#X#X#X#X#X#X#X#X#X#X#X#X#X#X#X#X#X#X#X#X#X#X#X#X#X#X#X",
"#X#Xw #X#X#Xw #X#X#X#X#X#X#X#X#X#X#X#X#X#X#X#X#X#X#X#X#X#X#X#X#X#X#X#X#X#X#X#X#X#X#X#X#X#X#X#X#X#X#X#X#X#X#X#X#X#X#X#X#X#X#X#X#X",
"#Xw w #X#Xw w #X#X#X#X#X#X#X#X#X#X#X#X#X#X#X#X#X#X#X#X#X#X#X#X#X#X#X#X#X#X#X#X#X#X#X#X#X#X#X#X#X#X#X#X#X#X#X#X#X#X#X#X#X#X#X#X#X",
"#X#Xw w w w w x G #X#X#X#X#X#X#X#X#X#X#X#X#X#X#X#X#X#X#X#XG l w w w #X#X#X#X#X#X#X#X#X#X#X#X#X#X#X#X#X#X#X#X#X#X#X#X#X#X#X#X#X#X",
"#X#X#Xw w w w c G #X#X#X#X#X#X#X#X#X#X#X#X#X#X#X#X#X#X#XG G k w w w #X#X#X#X#X#X#X#X#X#X#X#X#X#X#X#X#X#X#X#X#X#X#X#X#X#X#X#X#X#X",
"#X#X#Xl x x x [ ..#X#X#X#X#X#X#X#X#X#X#X#X#X#X#X#X#X#X#X..#.H x r w w w #X#X#X#X#X#X#X#X#X#X#X#X#X#X#X#X#X#X#X#X#X#X#X#X#X#X#X#X",
"#X#X#XG G G G $.&.#X#X#X#X#X#X#X#X#X#X#X#X#X#X#X#X#X#X#X&.&. .G t w w w #X#X#X#X#X#X#X#X#X#X#X#X#X#X#X#X#X#X#X#X#X#X#X#X#X#X#X#X",
"#X#X#XG G G G $.&.&.&.#X#X#X#X#X#X#X#X#X#X#X#X#X#X#X#X&...[  ...x w w w w w w w #X#X#X#X#X#X#X#X#X#X#X#X#X#X#X#X#X#X#X#X#X#X#X#X",
"#X#X#XG G G G $.&.&.&.#X#X#X#X#X#X#X#X#X#X#X#X#X#X#X#X&. .G  .&.c w w w w w w w #X#X#X#X#X#X#X#X#X#X#X#X#X#X#X#X#X#X#X#X#X#X#X#X",
"#X#X#XG G G G H ] #X#X#X#X#X#X#X#Xq.9.&.&.#X#X#X#X#X#X#X#X#X] ] Z c t w l c r w Z A #X#X#X#X#X#X#X#X#X#X#X#X#X#X#X#X#X#X#X#X#X#X",
"#X#X#XG G G G G G #X#X#X#X#X#X#X#Xq.9.&.&.#X#X#X#X#X#X#X#X#XG G G G t w c G r w Z G #X#X#X#X#X#X#X#X#X#X#X#X#X#X#X#X#X#X#X#X#X#X",
"#X#X#X#X#XG G #X#X#X#X#X#X#X#X#X#X#X#X8.8.#X#Xq.q.#X#X#X#X#X#X#X#X#Xc c k r x c #X#X#X#XG G w w #X#X#X#X#X#X#X#X#X#X#X#X#X#X#X#X",
"#X#X#X#X#XG G #X#X#X#X#X#X#X#X#X#X#X#Xq.q.#X#Xq.q.#X#X#X#X#X#X#X#X#XG G r w c G #X#X#X#XG G w w #X#X#X#X#X#X#X#X#X#X#X#X#X#X#X#X",
"#X#X#X#X#X#X#XG G #X#X#X#X#X#X#X#Xq.9.:.:.&.&.#X#X#X#X#X#X#X#X#XG G G G A Z r e Z G G G G G Z c w w #X#X#X#X#X#X#X#X#X#X#X#X#X#X",
"#X#X#X#X#X#X#XG G #X#X#X#X#X#X#X#Xq.9.&.&.&.&.#X#X#X#X#X#X#X#X#XG A G G G G r w Z G G G G G G Z w w #X#X#X#X#X#X#X#X#X#X#X#X#X#X",
"#X#Xw w w #X#X#X#X#X#X#X#X#X#X#X#Xq.q.9.3.&.&.&.&.#X#X&.#X#X#XG ..%.] G t e c Z G G $.%.G G G G #X#X#X#X#X#X#X#X#X#X#X#X#X#X#X#X",
"#Xw w w w #X#X#X#X#X#X#X#X#X#X#X#Xq.q.q.8.&.&.&.&.#X#X&.&.#XG G #.&.[ G r w c G G G %.&.G G G G #X#X#X#X#X#X#X#X#X#X#X#X#X#X#X#X",
"#X#X#Xw w w w #X#X#X#X#X#X#X#X&.:.q.q.q.q.q.8.&.&.&.&.&.&.&.&.&.&.&.&.&.] G G G %.&.&.&.G G w e G G #X#Xw w #X#X#X#X#X#X#X#X#X#X",
"#X#X#Xw w w w #X#X#X#X#X#X#X#X&.:.q.q.q.q.q.8.&.&.&.&.&.&.&.&.&.&.&.&.&.] G G G %.&.&.&.G G w e G G #X#Xw w #X#X#X#X#X#X#X#X#X#X",
"#Xw w w w ] &.&.&.&.&.&.&.#X#Xq.q.q.q.q.q.q.q.q.3.&.2.q.2.&.2.q.>.&.3.q.>.&.] G G G O         O G G G G #X#X#X#X#X#X#X#X#X#X#X#X",
"#X#Xw w w H %.&.&.&.&.:.:.#X#Xq.q.w.w.e.e.r.w.q.8.&.2.q.3.:.2.9.>.:.3.9.>.&.[ H C C O         O C G H H #X#X#X#X#X#X#X#X#X#X#X#X",
"#X#X#Xw w x G #.&.&.&.9.q.q.q.q.w.C.S.+XOX].!.q.q.q.q.q.q.q.2.&.3.q.2.&.&.&.&.&.+                 3 &.#.G G #X#X#X#X#X#X#X#X#X#X",
"#X#X#Xe e c G ..%.&.&.8.9.q.q.q.w.!.!.+X@X X^.q.9.9.9.q.q.q.3.&.3.9.7.t.t.t.t.t.> o               , @...H G #X#X#X#X#X#X#X#X#X#X",
"#X#X#XG A G G G G %.&.&.&.q.q.q.p.@X+X+X+X+X Xq.8.&.>.q.q.q.q.q.>.&.~.+X+X+X+X+XR Y @                 3 &.H w w #X#X#X#X#X#X#X#X",
"#X#X#XG G G G G G %.&.$.$.8.8.q.p..X.X+X+XOX[.q.8.>.3.q.9.8.2.<.t.l.).}.}.}.}.}.( ( 5 #               3 :. .r t #X#X#X#X#X#X#X#X",
"#X#X#XG G #X#XG G %.&.H G &.&.q.w.C.S.+XOX].^.q.q.q.q.q.2.&.O.Y R.+X` 8 8 8 8 8 oX+XR Y               f q.:.G G #X#X#X#X#X#X#X#X",
"#X#X#XG G #X#XA G #.#.] ] #.$.q.w.N.Z..XXX|./.q.q.q.9.8.*.' -.( R.}.^ > # < > > E.}.( (               f q.>.] H #X#X#X#X#X#X#X#X",
"#X#X#X#X#X#X#XG G G G %.&.G G q.q.q.w.C.^.+X].q.q.q.3.&.N   F.+X` 8 @           < < oX+X              f q.3.&.H w w w w #X#X#X#X",
"#X#X#X#X#X#X#XG G G G %.&.[ [ :.:.8.0.C.!. X/.q.q.q.1.S f   F.+X` 8 #   / )     < 8 oX+X              2 :.:.2.[ w w w #X#X#X#X#X",
"#X#X#X#X#XG G G G G G %.&.&.&.G H &.,.C.C.C.N.q.q.q.|       F.+X` 8 @   }.+X~   < 8 oX+X              : G #.q.#.w w #X#X#X#X#X#X",
"#X#X#X#X#X#XG G G G G %.&.....[  .2.>.c.c.b.a.q.5.| M       F.+X` < #   _ T.d   < 8 oX+X              $ x ] 3.#.c c #X#X#X#X#X#X",
"#X#X#X#X#X#X#X#X#XG G %.&.G G &.&.q.9.&.>.q.q.q.|           F.+X` 8 =           < 8 oX+X              X w c &.&.&.&.#X#X#X#X#X#X",
"#X#X#X#X#X#X#X#X#XG G  . . . . ...2.2.2.2.2.>.+.;.F.F.F.F.F.J.U.K.H.U O # # # # d.H.G.F.        8 0 8 7 % j  .$.3.%.G #X#X#X#X#X",
"#X#X#X#X#X#X#X#X#XG G G G &.&.G H &.&.q.8.&.@.Y f.+X+X+X+X+XU.Q (.+X` 8 8 8 8 8 oX+Xa         @ Y Y Y u   1 G #.q.%.G A #X#X#X#X",
"#X#X#X#X#X#X#X#X#XG G  .#.[ [ ..#.&.&.2.2.0.i.R.K.` ` ` ` ` K.(.U.g.P.Y.Y.Y.Y.Y.` ` *       q i { { { P   < m o.q.%.G G #X#X#X#X",
"#X#X#X#X#X#X#X#X#XG G %.&.G G &.&.&.&.&.>.q.a.+XY.< 8 8 8 8 H.+Xh.Q (.+X+X+X+X+XI 8 o       Y n &.&.&.'   8 b O.q.%.G G #X#X#X#X",
"#X#X#X#X#X#X#X#Xw A G [ [ #...[  .3.3.&.u./.Q.` ^ # @ O @ @ U ` P.(.G.) ) ) ) ) 5 @     q q { +.~.V.&.X.0 8 6 ! b.y.....#X#X#X#X",
"#X#X#X#X#X#X#Xw w Z G A G &.&.G ] q.9.&.l.+X}.8 #           # 8 Y.+X)                   Y Y &.t.+X'.&.X.Y 0   W C.i.&.&.#X#X#X#X",
"#X#X#X#X#X#X#X#X#Xr r Z G ] ] G ] q.9.n.A.+X}.8 #   ~ {.)   # 8 Y.+X)   L.E.d           Y Y &.,.l.u.&.$.X.V   B e.4.&.&.#X#X#X#X",
"#X#X#X#X#X#X#X#X#Xw w Z G G G G ] q.w.C.^.+X}.8 #   ) +XF.  # 8 Y.+X)   {.+X~           Y Y &.&.&.&.&.&.&.S   M q.2.&.&.#X#X#X#X",
"#X#X#X#X#X#X#Xw w w w Z A G G G H >.<.e.N.+X}.8 # o a ~ a   # 8 Y.+X)   d ~             Y Y &.&.&.&.&.&.&.S   M q.3.&.&.#X#X#X#X",
"#X#X#X#X#X#X#Xw w w w Z G G G G H &.:.q.b.+X}.8 #   o       # 8 Y.+X)                   Y Y &.&.&.&.&.&.&.S   M q.2.&.&.#X#X#X#X",
"#X#X#X#X#X#X#Xw w Z Z G G #X#XG G &.@., 4 R f.oXL.< < < < < d.oX` I 5                   Y Y &.&.&.&.&.&.&.S   W B.n.#X#X#X#X#X#X",
"#X#X#X#X#X#X#Xw w Z G G G #X#XG H &.@.  # Y ( +XY.8 8 8 9 < H.+X` 8 O                   Y Y &.&.&.&.&.&.&.S   W C.C.#X#X#X#X#X#X",
"#X#X#X#X#X#X#Xw w Z G G G #X#XG C + #     o 7 R f.oXoXoXoXoXG.a                         @   n J &.&.&.X.n b < D w.w.#X#X#X#X#X#X",
"#X#X#X#X#X#X#Xw w Z G G G #X#XG C           # Y f.+X+X+X+X+XF.                              Y n &.&.&.X.Y u 8 D q.q.#X#X#X#X#X#X",
"#X#X#X#X#X#X#Xw w Z G #X#X#X#XG C                                   u Y Y Y Y Y T Y           @ Y b 8 8 8 D q.3.&.&.#X#X#X#X#X#X",
"#X#X#X#X#X#X#Xw w Z G #X#X#X#XG C                                   q T Y Y Y Y T Y =         @ Y b 8 < 8 D q.3.&.&.#X#X#X#X#X#X",
"#X#X#X#X#X#X#X#X#Xw w #X#X#X#XG C           3 &...G j           0 Y { &.&.&.&.&.&.&.n Y           @ 8 E C.C.C.l.G G #X#X#X#X#X#X",
"#X#X#X#X#X#X#X#X#Xw w #X#X#X#XG C O O       , $. .G j . .   o o q n X.:.:.:.&.&.&.&.J n @ @     = 6 I ! S.D.C.l.G #X#X#X#X#X#X#X",
"#X#X#X#X#X#X#X#X#X#X#Xw w #X#X#X#XG C       X w k G x w %   9 Y o.&.3.q.q.q.:.&.&.&.&.&.Y Y   * s.j.C.!.+X XC.C.#X#X#X#X#X#X#X#X",
"#X#X#X#X#X#X#X#X#X#X#Xw w #X#X#X#XG C O o   X ; y C l w - . q Y o.:.0.w.w.w.4.,.t.t.&.&.T T 6 s g.h.S.!.OX XC.C.#X#X#X#X#X#X#X#X",
"#X#X#X#X#X#X#X#X#X#X#X#X#X#X#Xw e G G G z           $ w w w p T *.q.b.C.C.C.C.C.OX+X6.&.s.s.C.S.+X+X+X.XC.C.C.C.#X#X#X#X#X#X#X#X",
"#X#X#X#X#X#X#X#X#X#X#X#X#X#X#Xw e c c G v : : : : : - w r l v L <.q.a.x.m.n.N.N.|..X6.&.I.I.!.`.+X+X+X.XC.C.C.#X#X#X#X#X#X#X#X#X",
"#X#X#X#X#X#X#X#X#X#X#X#X#X#X#Xw w w e G G G G G G G x w A &.3.q.q.q.O.Y X.&.8.q.B.C.,.&.+X+X+X+X+X+X+X.XC.C.#X#X#X#X#X#X#X#X#X#X",
"#X#X#X#X#X#X#X#X#X#X#X#X#X#X#Xw w w e G A G G G G G c r G &.>.8.4.<.J u F ' %.&.z.z.*.&.+X+X+X+X.XXX'._.C.#X#X#X#X#X#X#X#X#X#X#X",
"#X#X#X#X#X#X#X#X#X#X#X#X#X#X#X#X#Xw w #X#X#X#X#X#XG G G  .&.&.&.L Y = o     - w Z G %.&.+X+X+XOXD.n.&.&.#X#X#X#X#X#X#X#X#X#X#X#X",
"#X#X#X#X#X#X#X#X#X#X#X#X#X#X#X#X#Xw w #X#X#X#X#Xx G G G [ ......} L N g g g C A [ [ &.&.`./.W.W.l.u.&.#X#X#X#X#X#X#X#X#X#X#X#X#X",
"#X#X#X#X#X#X#X#X#X#X#X#X#X#X#X#X#X#X#X#X#X#X#Xw t G G G G G G G ..&.&.&.&.&.8.q.:.&.&.&.q.q.G G G G #X#X#X#X#X#X#X#X#X#X#X#X#X#X",
"#X#X#X#X#X#X#X#X#X#X#X#X#X#X#X#X#X#X#X#X#X#X#Xw t G Z x x x c G ..&.#...%.&.2.8.&.&.#...&.:.G G G #X#X#X#X#X#X#X#X#X#X#X#X#X#X#X",
"#X#X#X#X#X#X#X#X#X#X#X#X#X#X#X#X#X#X#X#X#X#X#X#X#X#X#Xw w w w #X#X#XG G #X#X&.&.&.&.H G G G #X#X#X#X#X#X#X#X#X#X#X#X#X#X#X#X#X#X",
"#X#X#X#X#X#X#X#X#X#X#X#X#X#X#X#X#X#X#X#X#X#X#X#X#X#X#Xw w w #X#X#X#X#XG #X#X#X&.&.&.H A G G #X#X#X#X#X#X#X#X#X#X#X#X#X#X#X#X#X#X",
"#X#X#X#X#X#X#X#X#X#X#X#X#X#X#X#X#X#X#X#X#X#X#X#X#X#X#X#X#X#X#X#X#X#X#X#X#X#X#X#X#X#X#X#X#X#X#X#X#X#X#X#X#X#X#X#X#X#X#X#X#X#X#X#X",
"#X#X#X#X#X#X#X#X#X#X#X#X#X#X#X#X#X#X#X#X#X#X#X#X#X#X#X#X#X#X#X#X#X#X#X#X#X#X#X#X#X#X#X#X#X#X#X#X#X#X#X#X#X#X#X#X#X#X#X#X#X#X#X#X"
};
