/* XPM */
static char *result[] = {
/* columns rows colors chars-per-pixel */
"64 64 210 2 ",
"   c #680F0F",
".  c #690F0F",
"X  c #6E0F0F",
"o  c #700F0F",
"O  c #750E0E",
"+  c #790D0D",
"@  c #7A0E0E",
"#  c #7D0E0E",
"$  c #611010",
"%  c #621010",
"&  c #631010",
"*  c #641010",
"=  c #691010",
"-  c #711310",
";  c #711311",
":  c #721310",
">  c #741712",
",  c #791510",
"<  c #7D1A13",
"1  c #731E1E",
"2  c #762220",
"3  c #772D2D",
"4  c #772D2E",
"5  c #850D0D",
"6  c #890D0D",
"7  c #8A0D0D",
"8  c #950B0B",
"9  c #970B0B",
"0  c #900C0C",
"q  c #960C0C",
"w  c #9B0B0B",
"e  c #9C0C0C",
"r  c #801610",
"t  c #861E14",
"y  c #8E1910",
"u  c #9C1C10",
"i  c #A00A0A",
"p  c #A40A0A",
"a  c #A60A0A",
"s  c #A70B0B",
"d  c #A90909",
"f  c #AB0A0A",
"g  c #AC0909",
"h  c #AF0909",
"j  c #BC0707",
"k  c #B20909",
"l  c #B70808",
"z  c #B60909",
"x  c #BB0808",
"c  c #BC0808",
"v  c #BD0808",
"b  c #BD0909",
"n  c #BE0808",
"m  c #BF0A08",
"M  c #BE0A09",
"N  c #BE190F",
"B  c #AB1F10",
"V  c #982516",
"C  c #A92C18",
"Z  c #B22110",
"A  c #B92210",
"S  c #872922",
"D  c #873D3C",
"F  c #B1392E",
"G  c #C00C09",
"H  c #C3100A",
"J  c #C3100B",
"K  c #C6140B",
"L  c #C8160B",
"P  c #C9180C",
"I  c #C9180E",
"U  c #CC1C0D",
"Y  c #CD1C0D",
"T  c #CE1E0D",
"R  c #C11718",
"E  c #C21918",
"W  c #CF200E",
"Q  c #CF200F",
"!  c #D0200E",
"~  c #D3240F",
"^  c #CA231A",
"/  c #D02011",
"(  c #D52810",
")  c #D62810",
"_  c #D72810",
"`  c #D82A11",
"'  c #D92C12",
"]  c #DB2E13",
"[  c #D92D15",
"{  c #DC3014",
"}  c #DD3018",
"|  c #E3381A",
" . c #E43C1A",
".. c #E53C1A",
"X. c #E53D1A",
"o. c #E63D1A",
"O. c #E73F1B",
"+. c #C52627",
"@. c #C52727",
"#. c #D43021",
"$. c #D2362B",
"%. c #DD421F",
"&. c #E8411C",
"*. c #E9411C",
"=. c #E9411D",
"-. c #EA431E",
";. c #EC441F",
":. c #EC451F",
">. c #ED471E",
",. c #C84B3C",
"<. c #D94A3B",
"1. c #EE4720",
"2. c #ED4820",
"3. c #EF4921",
"4. c #EF4A22",
"5. c #F14D22",
"6. c #F24F22",
"7. c #F25122",
"8. c #F35123",
"9. c #F55524",
"0. c #F95D26",
"q. c #FA5F27",
"w. c #F15F3D",
"e. c #FB6127",
"r. c #F96226",
"t. c #FD6528",
"y. c #FF6828",
"u. c #FF6929",
"i. c #FF6A28",
"p. c #FF6D31",
"a. c #FD6D38",
"s. c #FF7139",
"d. c #FF713A",
"f. c #8A4B4B",
"g. c #AC4E42",
"h. c #BF4E40",
"j. c #CE4546",
"k. c #DA544A",
"l. c #D15455",
"z. c #D25455",
"x. c #E15C4B",
"c. c #E15C4C",
"v. c #E05D4C",
"b. c #FF7542",
"n. c #FD7549",
"m. c #E16F56",
"M. c #FF7E52",
"N. c #F37658",
"B. c #D66364",
"V. c #D76565",
"C. c #CF7375",
"Z. c #E57769",
"A. c #E6776A",
"S. c #EA7F6D",
"D. c #FF825A",
"F. c #FF825B",
"G. c #FF8D5E",
"H. c #FF8663",
"J. c #FF896A",
"K. c #FF896B",
"L. c #FF8A6B",
"P. c #FF8B6B",
"I. c #E68278",
"U. c #F28872",
"Y. c #F38A74",
"T. c #F58B74",
"R. c #FF9174",
"E. c #FF9175",
"W. c #FF9475",
"Q. c #FF987E",
"!. c #FF997E",
"~. c #FF9E7C",
"^. c #FFA079",
"/. c #B18587",
"(. c #CE8B87",
"). c #DE8183",
"_. c #E88D86",
"`. c #EA9187",
"'. c #EF998A",
"]. c #FF9F87",
"[. c #F29C8D",
"{. c #E39193",
"}. c #FFA180",
"|. c #FFA588",
" X c #F8A68F",
".X c #F7A290",
"XX c #FFAC92",
"oX c #FFAE99",
"OX c #FFAD9A",
"+X c #FFB294",
"@X c #C5A3A5",
"#X c #D3A5A5",
"$X c #E6A0A3",
"%X c #EFABA5",
"&X c #EFACA5",
"*X c #FFB3A1",
"=X c #FFB4A3",
"-X c #FABCAB",
";X c #FFBBAC",
":X c #FFBCAC",
">X c #FFC5AE",
",X c #FFC3B5",
"<X c #F5C6C3",
"1X c #F5C7C3",
"2X c #FFD7C9",
"3X c #EBDEE1",
"4X c #F7DCE0",
"5X c #FAE1E1",
"6X c #FFFBFF",
"7X c None",
/* pixels */
"7X7X7X7X7X7X7X7X7X7X7X7X7X7X7X7X7X7X7X7X7X7X7X7X7X7X7X7X7X7X7X7X7X7X7X7X7X7X7X7X7X7X7X7X7X7X7X7X7X7X7X7X7X7X7X7X7X7X7X7X7X7X7X7X",
"7X7X7X7X7X7X7X7X7X7X7X7X7X7X7X7X7X7X7X7X7X7X7X7X7X7X7X7X7X7X7X7X7X7X7X7X7X7X7X7X7X7X7X7X7X7X7X7X7X7X7X7X7X7X7X7X7X7X7X7X7X7X7X7X",
"7X7X7X7X7X7X7X7X7X7X7X7X7X7X7X7X7X7X7X7X7X7X7X7X7X7X7X7X7X7X7X7X7X7X7X7X7X7X7X7X7X7X7X7X7X7X7X7X7X7X7X7X7X7X7X7X7X7X7X7X7X7X7X7X",
"7X7X7X7X7X7X7X7X7X7X7X7X7X7X7X7X7X7X7X7X7X7X7X7X7X7X7X7X7X7X7X7X7X7X7X7X7X7X7X7X7X7X7X7X7X7X7X7X7X7X7X7X7X7X7X7X7X7X7X7X7X7X7X7X",
"7X7X7X7X7X7X7X7X7X7X7X7X7X7X7X7X7X7X7X7X7X7X7X7X7X7X7X7X7X7X7X7X7X7X7X7X7X7X7X7X7X7X7X7X7X7X7X7X7X7X7X7X7X7X7X7X7X7X7X7X7X7X7X7X",
"7X7X7X7X7X7X7X7X7X7X7X7X7X7X7X7X7X7X7X7X7X7X7X7X7X7X7X7X7X7X7X7X7X7X7X7X7X7X7X7X7X7X7X7X7X7X7X7X7X7X7X7X7X7X7X7X7X7X7X7X7X7X7X7X",
"7X7X7X7X7X7X7X7X7X7X7X7X7X7X7X7X7X7X7X7X& 7X7X7X7X7X7X7X7X7X7X7X7X7X7X7X7X7X7X7X7X7X7X7X7X7X7X7X7X7X7X7X7X7X7X7X7X7X7X7X7X7X7X7X",
"7X7X7X7X7X7X7X7X7X7X7X7X7X7X7X7X7X7X7X7X& & 7X7X7X7X7X7X7X7X7X7X7X7X7X7X7X7X7X7X7X7X7X7X7X7X7X7X7X7X7X7X7X7X7X7X7X7X7X7X7X7X7X7X",
"7X7X7X7X7X7X7X7X7X7X7X7X7X7X7X7X7X7Xv e & # v v v 7X7X7X& 7X7X7X7X7X7X7X7X7X7X7X7X7X7X7X7X7X7X7X7X7X7X7X7X7X7X7X7X7X7X7X7X7X7X7X",
"7X7X7X7X7X7X7X7X7X7X7X7X7X7X7X7X7X7Xv a & 5 v v v x 7X% & 7X7X7X7X7X7X7X7X7X7X7X7X7X7X7X7X7X7X7X7X7X7X7X7X7X7X7X7X7X7X7X7X7X7X7X",
"7X7X7X7X7X7X7X7X7X7X7X7X7X7X7X7X7X7X7X7X& X @ @ @ 9 n 6 & * & s n + & h n 7X7X7X7X7X7X7X7X7X7X7X7X7X7X7X7X7X7X7X7X7X7X7X7X7X7X7X",
"7X7X7X7X7X7X7X7X7X7X7X7X7X7X7X7X7X7X7X7X& & & & & 0 v 0 & & & a v @ & k v 7X7X7X7X7X7X7X7X7X7X7X7X7X7X7X7X7X7X7X7X7X7X7X7X7X7X7X",
"7X7X7X7X7X7Xn n 7X7X% % 7X7X7X7X7X7X7X7X& & & & &   X   & & &   X   & k v n n 7X7X% & 7X7X7X7X7X7X7X7X7X7X7X7X7X7X7X7X7X7X7X7X7X",
"7X7X7X7X7X7Xv v 7X7X& & 7X7X7X7X7X7X7X7X& & & & & & & & & & & & & & & k v v v 7X7X& & 7X7X7X7X7X7X7X7X7X7X7X7X7X7X7X7X7X7X7X7X7X",
"7X7X7X7X7X7Xv v n n & & % & 7X7X7X7X7X7X7X7X7X7X& & & & & & & & & & & X X k v n n & & % & 7X7X7X7X7X7X7X7X7X7X7X7X7X7X7X7X7X7X7X",
"7X7X7X7X7X7Xv v v v & & & & 7X7X7X7X7X7X7X7X7X7X& & & & & & & & & & & & & k v v v & & & & 7X7X7X7X7X7X7X7X7X7X7X7X7X7X7X7X7X7X7X",
"7X7X7X7X7X7X% & & & & & & X v v v c 7X7X7X7Xv v v 0 & & & & & & & & & & & & & & & & & 7X7X7X7X7X7X7X7X7X7X7X7X7X7X7X7X7X7X7X7X7X",
"7X7X7X7X7X7X% & & & & & & X v v v c 7X7X7X7Xv v v 0 & & & & & & & & & & & & & & & & & 7X7X7X7X7X7X7X7X7X7X7X7X7X7X7X7X7X7X7X7X7X",
"7X7X7X7X7X7X% & & & & & & X v v v v v v v v v w & & & & & & & & & & & & & & & & & & X v v v c 7X7X7X7X7X7X7X7X7X7X7X7X7X7X7X7X7X",
"7X7X7X7X7X7X% & & & & & & X k k k k k k k k k 8 & & & & & & & & & & & & & & & & & & X k k k z 7X7X7X7X7X7X7X7X7X7X7X7X7X7X7X7X7X",
"7X7X7X7X7X7X% & & & & & & & & & & & & & & & & & & & & & & & & & & & & & & & & & & & & & & & @ v c 7X7X7X7X7X7X7X7X7X7X7X7X7X7X7X",
"7X7X7X7X7X7Xo X & & & & & & & & & & & & & & & & & & & & & & & - - 3 3 3 3 3 3 > > X X & & & @ v j 7X7X7X7X7X7X7X7X7X7X7X7X7X7X7X",
"7X7X7X7X7X7Xv v X & & & & & & & & & & & & & & & & & & & & & & A ) 1X6X6X6X6X6X3.3.v k & & & @ v v v v 7X7X7X7X7X7X7X7X7X7X7X7X7X",
"7X7X7X7X7X7Xb n . & & & & & & & & & & & & & & & & & & & & : r ,.x.%X1X1X1X1X1XN.N.I N & & & @ v v v v 7X7X7X7X7X7X7X7X7X7X7X7X7X",
"7X7X7X7X7X7X7X7X% & & & & & & & & & & & & & & & & & & & & B ) 1X6Xc.) ) ) ) ) 6X6X3.%.& & & @ v v v v 7X7X7X7X7X7X7X7X7X7X7X7X7X",
"7X7X7X7X7X7X7X7X% & & & & & & & & & & & & & & & & & & & & F x.%X1X<.W W W W W 1X1XN.m.& & & @ v v v v 7X7X7X7X7X7X7X7X7X7X7X7X7X",
"7X7X7X7X7X7X7X7X% & & & & & & & & & & & & & & & & & & & & @X6Xc.) H v v v v v ) ) 6X3X& & & @ v v v v 7X7X7X7X7X7X7X7X7X7X7X7X7X",
"7X7X7X7X7X7X7X7X& & & & & & & & & & & & & & & & & & & , y #X6Xc.) H v l.B.R v ) ) 6X3X& & & @ v v v v 7X7X7X7X7X7X7X7X7X7X7X7X7X",
"7X7X7X7X7X7X7X7X7X7X7X7X& & & & & & & & & & & & & & & u ) %X6Xc.) H v 4X6X+.v ) ) 6X3X& & & @ v v v v 7X7X7X7X7X7X7X7X7X7X7X7X7X",
"7X7X7X7X7X7X7X7X7X7X7X7X& & & & & & & & & & & & & , y Z ) %X6Xc.) H v {.$XR v ) ) 6X3X& & & @ v v v v 7X7X7X7X7X7X7X7X7X7X7X7X7X",
"7X7X7X7X7X7X7X7X7X7X& & & & & & & & & & & & & & & u ) ) ) %X6Xc.) H v v v v v ) ) 6X3X& & & @ v v v v 7X7X7X7X7X7X7X7X7X7X7X7X7X",
"7X7X7X7X7X7X7Xx 7X7X% % % $ & & & & & & & < C g./.(.`.`.`. X+X'.`.$.P P P P P `.`.).C.& = 0 w v G P K x 7X7X7X7X7X7X7X7X7X7X7X7X",
"7X7X7X7X7X7Xv v 7X7X7X7X7X7X& & & & & & & V 3.T.6X6X6X6X6X^.u.2X6Xc.) ) ) ) ) 6X6Xv k & X v v v H ) U v v 7X7X7X7X7X7X7X7X7X7X7X",
"7X7X7X7X7X7Xv v O % 7X7X% $ & & & & & : u h..X[.`.`.`.`.`. X+X+X+X'.`.`.`.`.`.`.`.v l 0 q v G P Y ) U v v 7X7X7X7X7X7X7X7X7X7X7X",
"7X7X7X7X7X7Xv v X & 7X7X& & & & & & & r ) Z.6X%X) ) ) ) ) %X6XG.u.2X6X6X6X6X6X) ) v v v v v H ) ) ) U v v 7X7X7X7X7X7X7X7X7X7X7X",
"7X7X7X7X7X7Xv v X & & & 7X7X7X7Xw 7 & D &X`.A.k.K K K K K k.A.-X>XS.A.A.A.A.A.K K v v v m Y T ) ] o.| } [ _ 7X7X7X7X7X7X7X7X7X7X",
"7X7X7X7X7X7Xv v X & & & 7X7X7X7Xv a & f.6X%X) U v v v v v U ) 1X6Xc.) ) ) ) ) v v v v v G ) ) ) { 3.3.3.X.) ( 7X7X7X7X7X7X7X7X7X",
"7X7X7X7X7X7Xv v X & & & & * 7X7Xv a & f.6X%X) U v z.$Xz.v U ) 1X6Xc.) L K K K v v Y Y Y T ) ] o.O.3.8.0.7.o...7X7X7X7X7X7X7X7X7X",
"7X7X7X7X7X7Xv v X & & & & & 7X7Xv a & f.6X%X) U v ).6X).v U ) 1X6Xc.) G v v v v v ) ) ) ) ) { 3.3.3.9.u.0.3.2.7X7X7X7X7X7X7X7X7X",
"7X7X7X7X7X7X# @ & & & & a d 7X7Xv a & f.6X%X) U v +.j.+.v U ) 1X6Xc.) G v v v v v ) ) ) ) ) { 3.6.e.t.u.0.3.2.7X7X7X7X7X7X7X7X7X",
"7X7X7X7X7X7X% & & & & & v v 7X7Xv a & f.6X%X) U v v v v v U ) 1X6Xc.) G v v v v v ) ) ) ) ) { 3.8.u.u.u.0.3.2.7X7X7X7X7X7X7X7X7X",
"7X7X7X7X7X7X7X7Xp a a a 7X7X7X7Xv a & S N.U.<X_.! ! ! ! ! I.<XA.v.^ H v v v v ! ! ) ) ) ` =.-.3.8.u.d.F.n.e.r.7X7X7X7X7X7X7X7X7X",
"7X7X7X7X7X7X7X7Xv v v v 7X7X7X7Xv a & t 3.T.6X%X) ) ) ) ) %X6Xc.) H v v v v v ) ) ) ) ) ' 3.3.3.8.u.b.L.M.u.y.7X7X7X7X7X7X7X7X7X",
"7X7X7X7X7X7X7X7X7X7X7X7X7X7X7X7XX X & @ J #.w.Y.5X5X5X5X5XV.@.E G M v v v v v ) ) ) ' :.:.3.8.t.a.H.!.:X~.u.y.7X7X7X7X7X7X7X7X7X",
"7X7X7X7X7X7X7X7X7X7X7X7X7X7X7X7X& & & @ v / 3.T.6X6X6X6X6XB.v v v v v v v v v ) ) ) ' 3.3.3.8.u.d.L.].,X}.u.y.7X7X7X7X7X7X7X7X7X",
"7X7X7X7X7X7X7X7X7X7X7X7X7X7X% % & & & & X ; > 2 4 4 4 4 4 1 X X X g v v v ! ~ ) ) :.:.3.5.t.a.H.W.:XoXR.P.7X7X7X7X7X7X7X7X7X7X7X",
"7X7X7X7X7X7X7X7X7X7X7X7X7X7X& & & & & & & & & & & & & & & & & & & a v v v ~ ) ) ) 3.3.3.5.u.d.L.Q.,XoXL.L.7X7X7X7X7X7X7X7X7X7X7X",
"7X7X7X7X7X7X7X7X7X7X7X7X7X7X7X7Xv a & & & & & & & & & & & & & a v v v ~ ) ) ) 3.3.3.5.u.p.L.Q.,X=XL.L.7X7X7X7X7X7X7X7X7X7X7X7X7X",
"7X7X7X7X7X7X7X7X7X7X7X7X7X7X7X7Xv a & & & & & & & & & & & & & a v v v ~ ) ) ) 3.3.3.5.u.p.L.Q.,X=XL.L.7X7X7X7X7X7X7X7X7X7X7X7X7X",
"7X7X7X7X7X7X7X7X7X7X7X7X7X7X7X7X7X7Xv a & & & & & & & & & w v v v ! ) ) ) ;.3.3.3.u.p.L.R.,X=XL.L.7X7X7X7X7X7X7X7X7X7X7X7X7X7X7X",
"7X7X7X7X7X7X7X7X7X7X7X7X7X7X7X7X7X7Xv f X X X X X X X X X i v G G ! ) ' ' ;.3.5.5.p.d.E.Q.;X*XL.J.7X7X7X7X7X7X7X7X7X7X7X7X7X7X7X",
"7X7X7X7X7X7X7X7X7X7X7X7X7X7X7X7X7X7X7X7Xv v v v v v v v v v v ! ) ) ) ;.3.3.3.u.u.L.R.,X:XL.L.7X7X7X7X7X7X7X7X7X7X7X7X7X7X7X7X7X",
"7X7X7X7X7X7X7X7X7X7X7X7X7X7X7X7X7X7X7X7Xn n n n n n n n n v v ! ) ] { 1.3.6.8.s.s.Q.].=XOXP.K.7X7X7X7X7X7X7X7X7X7X7X7X7X7X7X7X7X",
"7X7X7X7X7X7X7X7X7X7X7X7X7X7X7X7X7X7X7X7X7X7X7X7X7X7X7X7X7Xc v ! ) *.3.3.3.t.u.L.L.,X:XL.L.7X7X7X7X7X7X7X7X7X7X7X7X7X7X7X7X7X7X7X",
"7X7X7X7X7X7X7X7X7X7X7X7X7X7X7X7X7X7X7X7X7X7X7X7X7X7X7X7X7Xx n Q )  .&.1.3.q.e.D.D.XX|.P.L.7X7X7X7X7X7X7X7X7X7X7X7X7X7X7X7X7X7X7X",
"7X7X7X7X7X7X7X7X7X7X7X7X7X7X7X7X7X7X7X7X7X7X7X7X7X7X7X7X7X7X7X7X7X_ ) ;.3.3.3.u.u.u.u.7X7X7X7X7X7X7X7X7X7X7X7X7X7X7X7X7X7X7X7X7X",
"7X7X7X7X7X7X7X7X7X7X7X7X7X7X7X7X7X7X7X7X7X7X7X7X7X7X7X7X7X7X7X7X7X7X( >.4.4.4.i.i.i.u.7X7X7X7X7X7X7X7X7X7X7X7X7X7X7X7X7X7X7X7X7X",
"7X7X7X7X7X7X7X7X7X7X7X7X7X7X7X7X7X7X7X7X7X7X7X7X7X7X7X7X7X7X7X7X7X7X7X7X7X7X7X7X7X7X7X7X7X7X7X7X7X7X7X7X7X7X7X7X7X7X7X7X7X7X7X7X",
"7X7X7X7X7X7X7X7X7X7X7X7X7X7X7X7X7X7X7X7X7X7X7X7X7X7X7X7X7X7X7X7X7X7X7X7X7X7X7X7X7X7X7X7X7X7X7X7X7X7X7X7X7X7X7X7X7X7X7X7X7X7X7X7X",
"7X7X7X7X7X7X7X7X7X7X7X7X7X7X7X7X7X7X7X7X7X7X7X7X7X7X7X7X7X7X7X7X7X7X7X7X7X7X7X7X7X7X7X7X7X7X7X7X7X7X7X7X7X7X7X7X7X7X7X7X7X7X7X7X",
"7X7X7X7X7X7X7X7X7X7X7X7X7X7X7X7X7X7X7X7X7X7X7X7X7X7X7X7X7X7X7X7X7X7X7X7X7X7X7X7X7X7X7X7X7X7X7X7X7X7X7X7X7X7X7X7X7X7X7X7X7X7X7X7X",
"7X7X7X7X7X7X7X7X7X7X7X7X7X7X7X7X7X7X7X7X7X7X7X7X7X7X7X7X7X7X7X7X7X7X7X7X7X7X7X7X7X7X7X7X7X7X7X7X7X7X7X7X7X7X7X7X7X7X7X7X7X7X7X7X",
"7X7X7X7X7X7X7X7X7X7X7X7X7X7X7X7X7X7X7X7X7X7X7X7X7X7X7X7X7X7X7X7X7X7X7X7X7X7X7X7X7X7X7X7X7X7X7X7X7X7X7X7X7X7X7X7X7X7X7X7X7X7X7X7X",
"7X7X7X7X7X7X7X7X7X7X7X7X7X7X7X7X7X7X7X7X7X7X7X7X7X7X7X7X7X7X7X7X7X7X7X7X7X7X7X7X7X7X7X7X7X7X7X7X7X7X7X7X7X7X7X7X7X7X7X7X7X7X7X7X"
};
