/* XPM */
static char *result[] = {
/* columns rows colors chars-per-pixel */
"64 64 183 2 ",
"   c #BD0808",
".  c #C30B07",
"X  c #CC0E06",
"o  c #D10F05",
"O  c #C41507",
"+  c #C51A07",
"@  c #C9180E",
"#  c #D61105",
"$  c #DD1404",
"%  c #D3180B",
"&  c #E61703",
"*  c #EF1A02",
"=  c #F61D01",
"-  c #FB1E01",
";  c #C52507",
":  c #C92906",
">  c #CD2206",
",  c #D62F05",
"<  c #CD3506",
"1  c #D23F06",
"2  c #DE3C04",
"3  c #DE3704",
"4  c #D62814",
"5  c #EC2402",
"6  c #E82603",
"7  c #FF2000",
"8  c #FE2A00",
"9  c #F73101",
"0  c #FF3300",
"q  c #FF3C00",
"w  c #E3381A",
"e  c #C52627",
"r  c #CD4206",
"t  c #D64B05",
"y  c #DE4A04",
"u  c #DA4105",
"i  c #DC5808",
"p  c #E34304",
"a  c #E64A03",
"s  c #FE4A00",
"d  c #EF5702",
"f  c #E65003",
"g  c #FF5500",
"h  c #FF5D00",
"j  c #F75C01",
"k  c #E64D10",
"l  c #E65B1B",
"z  c #D66005",
"x  c #DE6104",
"c  c #DA6E04",
"v  c #DE7D04",
"b  c #DE7604",
"n  c #EF6F02",
"m  c #E66003",
"M  c #F76401",
"N  c #FF6700",
"B  c #FF6F00",
"V  c #E67703",
"C  c #FF7100",
"Z  c #FF7B00",
"A  c #F37D02",
"S  c #EA6713",
"D  c #F37419",
"F  c #CE4520",
"G  c #EF4921",
"H  c #EF8C02",
"J  c #EA800A",
"K  c #FF8200",
"L  c #FF8A00",
"P  c #F38B01",
"I  c #E69B03",
"U  c #FF9400",
"Y  c #FF9E00",
"T  c #FB9D06",
"R  c #EE891C",
"E  c #F78110",
"W  c #FF8217",
"Q  c #F79E10",
"!  c #EAA302",
"~  c #F7A201",
"^  c #FFA400",
"/  c #FFAB01",
"(  c #EFB802",
")  c #FFB200",
"_  c #FFBA00",
"`  c #FDBA0B",
"'  c #F2BC04",
"]  c #FFAD14",
"[  c #FFBE10",
"{  c #FF932F",
"}  c #FFA528",
"|  c #FFB223",
" . c #FFB528",
".. c #FFAB3F",
"X. c #FFB73B",
"o. c #FFB635",
"O. c #FFC200",
"+. c #F7CF01",
"@. c #FFCA01",
"#. c #FFC30B",
"$. c #F7C705",
"%. c #F7D601",
"&. c #FFD401",
"*. c #FFDC00",
"=. c #FFDF0D",
"-. c #FFC217",
";. c #FDCC17",
":. c #FFE500",
">. c #FFEC00",
",. c #FFF300",
"<. c #FFF40D",
"1. c #FFF416",
"2. c #FFF51A",
"3. c #FFC220",
"4. c #FFCE22",
"5. c #FFD82F",
"6. c #FFD522",
"7. c #FBC03C",
"8. c #FFDA36",
"9. c #FFEB23",
"0. c #FFE72F",
"q. c #FFF621",
"w. c #FFF62A",
"e. c #FFF635",
"r. c #FFF73C",
"t. c #FFF83C",
"y. c #E6A046",
"u. c #FFA547",
"i. c #EAAF5C",
"p. c #EFBE52",
"a. c #FFB65E",
"s. c #FFC743",
"d. c #FFD947",
"f. c #FFD44A",
"g. c #FFC65E",
"h. c #FFD950",
"j. c #FFD05E",
"k. c #FFDA5E",
"l. c #FFE243",
"z. c #FFE749",
"x. c #FFF445",
"c. c #FFF843",
"v. c #FFEB50",
"b. c #FFE35F",
"n. c #FFF150",
"m. c #FFF950",
"M. c #FFF65E",
"N. c #FFFA5E",
"B. c #F3C96B",
"V. c #FFC776",
"C. c #FFD07D",
"Z. c #FFEB6F",
"A. c #FFFB6B",
"S. c #FFF46A",
"D. c #FFE476",
"F. c #FFE979",
"G. c #FFF076",
"H. c #FFF975",
"J. c #FFFB7F",
"K. c #FFEB8E",
"L. c #FFFA81",
"P. c #FFF98D",
"I. c #FFF582",
"U. c #FFEF94",
"Y. c #FFFA9D",
"T. c #FFFB94",
"R. c #FBDCB0",
"E. c #FFEDA8",
"W. c #FFFAA4",
"Q. c #FFFAAB",
"!. c #FFEBBF",
"~. c #FFFBB3",
"^. c #FFFBBD",
"/. c #FFFBC5",
"(. c #FFFBCD",
"). c #FFFBD6",
"_. c #FFFADE",
"`. c #F7DCE0",
"'. c #FFFBE6",
"]. c #FFFBEE",
"[. c #FFFBF7",
"{. c #FFFBFF",
"}. c None",
/* pixels */
"}.}.}.}.}.}.}.}.}.}.}.}.}.}.}.}.}.}.}.}.}.}.}.}.}.}.}.}.}.}.}.}.}.}.}.}.}.}.}.}.}.}.}.}.}.}.}.}.}.}.}.}.}.}.}.}.}.}.}.}.}.}.}.}.",
"}.}.}.}.}.}.}.}.}.}.}.}.}.}.}.}.}.}.}.}.}.}.}.}.}.}.}.}.}.}.}.}.}.}.}.}.}.}.}.}.}.}.}.}.}.}.}.}.}.}.}.}.}.}.}.}.}.}.}.}.}.}.}.}.",
"C C C }.}.}.}.}.}.}.}.}.}.}.}.}.}.}.}.}.}.}.}.}.}.}.}.}.}.}.}.}.}.}.}.}.}.}.}.}.}.}.}.}.}.}.}.}.}.}.}.}.}.}.}.}.}.}.}.}.}.}.}.}.",
"C C C }.}.}.}.}.}.}.}.}.}.}.}.}.}.}.}.}.}.}.}.}.}.}.}.}.}.}.}.}.}.}.}.}.}.}.}.}.}.}.}.}.}.}.}.}.}.}.}.}.}.}.}.}.}.}.}.}.}.}.}.}.",
"}.C C }.}.}.}.}.}.}.}.}.}.}.}.}.}.}.}.}.}.}.}.}.}.}.}.}.}.}.}.}.}.}.}.}.}.}.}.}.}.}.}.}.}.}.}.}.}.}.}.}.}.}.}.}.}.}.}.}.}.}.}.}.",
"}.}.C }.}.}.}.}.}.}.}.}.}.}.}.}.}.}.}.}.}.}.}.}.}.}.}.}.}.}.}.}.}.}.}.}.}.}.}.}.}.}.}.}.}.}.}.}.}.}.}.}.}.}.}.}.}.}.}.}.}.}.}.}.",
"}.}.}.}.}.}.}.}.}.}.}.}.}.}.}.}.}.}.}.}.}.}.}.}.}.}.}.}.}.}.}.}.}.}.}.}.}.}.}.}.}.}.}.}.}.}.}.}.}.}.}.}.}.}.}.}.}.}.}.}.}.}.}.}.",
"}.}.}.}.}.}.}.}.}.7 7 }.}.}.}.}.}.}.}.}.}.C U _ }.}.}.}.}.}.}.}.}.}.}.}.}.}.}.}.}.}.}.}.}.}.}.}.}.}.}.}.}.}.}.}.}.}.}.}.}.}.}.}.",
"}.}.}.}.}.}.}.}.}.7 7 }.}.}.}.}.}.}.}.}.}.C U _ _ }.}.}.}.}.}.}.}.}.}.}.}.}.}.}.}.}.}.}.}.}.}.}.}.}.}.}.}.}.}.}.}.}.}.}.}.}.}.}.",
"}.}.}.}.}.}.}.}.}.h h }.}.}.}.C K _ _ }.}./ ) _ &.,.}.}.}.}.}.}.}.}.}.}.}.}.}.}.}.}.}.}.}.}.}.}.}.}.}.}.}.}.}.}.}.}.}.}.}.}.}.}.",
"}.}.}.}.}.}.}.}.}.C C }.}.}.}.C K _ _ }.}._ _ _ &.,.}.}.}.}.}.}.}.}.}.}.}.}.}.}.}.}.}.}.}.}.}.}.}.}.}.}.}.}.}.}.}.}.}.}.}.}.}.}.",
"}.}.}.}.}.}.}.}.}.C C C C }.}.}.}._ _ _ _ _ _ _ O.}.}.}.}.7 h C C C }.}.}.}.}.}.}.}.}.}.}.}.}.}.}.}.}.}.}.}.}.}.}.}.}.}.}.}.}.}.",
"}.}.}.}.}.}.}.}.}.C C C C }.}.}.}._ _ _ _ _ _ _ _ }.}.}.7 7 h C C C }.}.}.}.}.}.}.}.}.}.}.}.}.}.}.}.}.}.}.}.}.}.}.}.}.}.}.}.}.}.",
"}.}.}.}.}.}.}.}.}.8 8 ) ) }.}.}.}._ @.>.:.}._ _ _ }.}.}.}.}./ ) ) ) Z C }.}.}.}.}.}._ _ }.}.}.}.}.}.}.}.}.}.}.}.}.}.}.}.}.}.}.}.",
"}.}.}.}.}.}.}.}.}.7 7 _ _ }.}.}.}._ @.,.,.}._ _ _ }.}.}.}.}._ _ _ _ Z C }.}.}.}.}.}._ _ }.}.}.}.}.}.}.}.}.}.}.}.}.}.}.}.}.}.}.}.",
"}.}.}.}.}.}.}.7 7 N N _ _ _ _ }.}.}.}.}.}.}.}.}.Z C }.}._ _ _ _ z.M.` / >.,.}.}.}.}._ ) C C }.}.}.}.}.}.}.}.}.}.}.}.}.}.}.}.}.}.",
"}.}.}.}.}.}.}.7 7 C C _ _ _ _ }.}.}.}.}.}.}.}.}.C C }.}._ _ _ _ v.A.#._ >.,.}.}.}.}._ ) C C }.}.}.}.}.}.}.}.}.}.}.}.}.}.}.}.}.}.",
"}.}.}.}.}.}.}.}.}.C C C C C Z _ _ }.}.}.}.}.C C C C C C }.}.}.}.,.,.A.A.A.A.A.A._ _ _ _ ,.&.C C }.}.}.}.}.}.}.}.}.}.}.}.}.}.}.}.",
"}.}.}.}.}.}.}.}.}.C C C C C Z _ _ }.}.}.}.}.C C C C C C }.}.}.}.,.,.N.A.A.A.A.A._ _ _ O.,.&.C C }.}.}.}.}.}.}.}.}.}.}.}.}.}.}.}.",
"}.}.}.}.}.}.}.}.}._ _ C C C Z _ _ _ _ }.}.}._ _ U C Y _ L C / _ :.,.N.A.A.A.A.A.,.,.,.>._ _ _ / C C C C }.}.}.}.}.}.}.}.}.}.}.}.",
"}.}.}.}.}.}.}.}.}._ _ Z Z C Z _ _ _ _ }.}.}.-.-.T Z Y ) L Z / _ :.>.m.N.N.N.N.N.>.>.%.%. .#._ / Z Z Z Z }.}.}.}.}.}.}.}.}.}.}.}.",
"}.}.}.}.}.}.}.}.}._ _ _ ) C Z _ _ _ _ }.}.}.^.^.k._ L C Y _ _ _ _ _ >.,.,.,.,.,._ ~   e {.!._ _ _ _ _ _ }.}.}.}.}.}.}.}.}.}.}.}.",
"}.}.}.}.}.}.}.}.}._ _ _ ) C Z _ _ O.#.}.}.}.E.^.k._ U Z ^ _ O.O._ O.+.%.%.%.&.*.~ H   e `.R._ _ ) _ _ _ }.}.}.}.}.}.}.}.}.}.}.}.",
"}.}.}.}.}.}.}.}.}.}.}._ _ }.}.}.}.,.2.A.s.C a.^.k._ _ _ _ _ :.,.,.,.;       7 7           < _ / C B }.}.}.C C C }.}.}.}.}.}.}.}.",
"}.}.}.}.}.}.}.}.}.}.}._ _ }.}.}.}.,.q.J.j.{ g.P.d._ O.@.@.@.$.#.' ( +       7 7 X X       : H P K L }.}.}.C C C }.}.}.}.}.}.}.}.",
"}.}.}.}.}.}.}.}.}.}.}.}.}.}.}.C U ,.w.^.^.^.M.,.&._ *.,.,.,.D G @           7 7 7 =           < _ _ }.}.C C C C }.}.}.}.}.}.}.}.",
"}.}.}.}.}.}.}.}.}.}.}.}.}.}.}.C U :.9.T.Y.^.A.2.=.@.:.,.,.,.S w % X .   X X * * 7 = r r X .   : H H }.L C Z K K }.}.}.}.}.}.}.}.",
"}.}.}.}.}.}.}.}.}.}.}.}.}.}.}.}.}._ O.,.x.^.T.A.e.,.,.,.,.,.r   * 7 .   = 7     - q ,.*.7 =       t _ Y C U _ U C }.}.}.}.}.}.}.",
"}.}.}.}.}.}.}.}.}.}.}.}.}.}.}.}.}._ O.*.0.H.M.c.q.,.( I ~ ^ <   * 7 $ # s j     & 6 ^ Y q 9 # X   1 Y L C Y _ Y C }.}.}.}.}.}.}.",
"}.}.}.}.}.}.}.}.}.}.}.}.}.}.}.C K _ _ _ &.,.,.,.,.,.z   & - X   * 7 7 7 / _       . 7 8 C h 7 *   , C C }._ _ _ }.}.}.}.}.}.}.}.",
"}.}.}.}.}.}.}.}.}.}.}.}.}.}.}.C K _ O.&.*.,.,.,.$.I y # = 7 & # $ & - 7 C K # #   . & 6 ^ U B j , l u...}._ _ ^ }.}.}.}.}.}.}.}.",
"}.}.}.}.}.}.}.}.}.}.}.}.}.}.}.}.}.}.}.,.,.,.,.,.v   & - - - - 7 X   = 7 7 7 7 -       ; ,.,.,.&.C u.^.D._ _ _ U C }.}.}.}.}.}.}.",
"}.}.}.}.}.}.}.}.}.}.}.}.}.C }.}.}.}.}.,.>.&.' Q i   & 7 7 7 7 7 f x 8 7 Z L s s v c   + L ^ ,.:.) | a.X._ _ _ U C }.}.}.}.}.}.}.",
"}.}.}.}.}.}.}.}.}.}.}.}.}.C C }.}.}.}.,.*._ E G 4   & 7 7 7 7 7 U _ 0 7 *.,.B B ,.%.  . - g ,.,.,.O.C L _ _ _ U C }.}.}.}.}.}.}.",
"}.}.}.}.}.}.}.}.}.}.}.}.}.U U B }.}.}.e.9.&.J 4 @   X $ = 7 C L / _ 0 7 Z L ) ) ,.*.2 3 $ k e.w.,.&.U | k.5.&.^ C }.}.}.}.}.}.}.",
"}.}.}.}.}.}.}.}.}.}.}.}.}._ ) C C }.}.A.c.,.v           & 7 _ ,.@._ 0 7 - - ,.,.,.:.C M   F A.m.,.*._ f.^.N.,./ C }.}.}.}.}.}.}.",
"}.}.}.}.}.}.}.}.}.}.}.}.}.L L ^ ] A.h.} R z <           & 7 Z ^ 8.l./ ^ K K @.&.,.>.O.#.y.i.Y.P.c.x.8.G.^.b.&._ ^ }.}.}.}.}.}.}.",
"}.}.}.}.}.}.}.}.}.}.}.}.}.C Z _ ;.A.h.C a               & - h C h.A.1.,.O._ _ _ ,.,.,.<.A.J.^.Q.A.A.A.P.^.k._ _ _ }.}.}.}.}.}.}.",
"}.}.}.}.}.}.}.}.}.}.}.}.}.C Z _ @.w.6.C a   1 V d a >   X # T O.F.Y.J.H.D.D.*.*.c.t.,.1.Y.W.^.~.Y.Y.Y.^.'.U.l.6._ }.}.}.}.}.}.}.",
"}.}.}.}.}.}.}.}.}.}.}.}.}.C Z _ O.,.&.C a   x _ T C ,       ( ,.P.^.^.^.^.^.,.,.A.N.,.1.^.^.^.^.^.^.^.).{.~.A.8._ }.}.}.}.}.}.}.",
"}.}.}.}.}.}.}.}.}.}.}.}.}.}.}.K U @.) C a   b :./ C A H r . n U b.J.~.^.'.].P.P.Q.W.P.Y.^./.[.].[._.^.).{.~.A.e.:.}.}.}.}.}.}.}.",
"}.}.}.}.}.}.}.}.}.}.}.}.}.}.}.C K _ ^ C a   v ,.) C Y _ t   d C h.A.~.^.[.{.^.^.^.^.^.^.^.(.{.{.{.'.^.).{.~.A.e.,.}.}.}.}.}.}.}.",
"}.}.}.}.}.}.}.}.}.}.}.}.}._ / C Z K C 0 6   y U  .h.D.K.B.p.;.&.n.A.~.^.[.{.].].[.'.^.^.^.(.{.{.{.[.].[.{.~.A.e.,.}.}.}.}.}.}.}.",
"}.}.}.}.}.}.}.}.}.}.}.}.}._ ) C C C h 7 &   2 C o.A.Y.^.P.A.2.,.m.A.~.^.[.{.{.{.{.[.^.^.^.(.{.{.{.{.{.{.{.~.A.e.,.}.}.}.}.}.}.}.",
"}.}.}.}.}.}.}.}.}.}.}.}.}.}.}.) L 8 5 . .   i ) &.1.] W C.Q.H.N.2.<.W.^././.{.{.{.{.[.[.[.[.{.{.{.{.{.'./.S.<.<.}.}.}.}.}.}.}.}.",
"}.}.}.}.}.}.}.}.}.}.}.}.}.}.}._ U - =       x _ *.,.Y C V.^.J.A.2.,.W.^.^.^.{.{.{.{.{.{.{.{.{.{.{.{.{.'.^.M.,.,.}.}.}.}.}.}.}.}.",
"}.}.}.}.}.}.}.}.}.}.}.}.}.C Z _ U - *       u Z Y O.*.:.G.^.^.~.H.N.~.^.^.^.{.{.{.{.{.{.{.{.{.{.{.{.{.Q.1.<.,.,.}.}.}.}.}.}.}.}.",
"}.}.}.}.}.}.}.}.}.}.}.}.}.C Z _ U 7 *       2 C U _ *.,.H.^.^.^.J.A.~.^.^.^.{.{.{.{.{.{.{.{.{.{.{.{.{.Y.,.,.,.,.}.}.}.}.}.}.}.}.",
"}.}.}.}.}.}.}.}.}.}.}.}.}.}.}.C K _ U 7 &           a C s.A.2.,.P.^.^.^.[.{.{.{.{.{.{.{.{.{.{.].^.H.,.,.,.,.}.}.}.}.}.}.}.}.}.}.",
"}.}.}.}.}.}.}.}.}.}.}.}.}.}.}.C Z ) U 8 5 O O O .   p M 7.N.2.,.H.W.^.^.[.{.{.{.{.{.{.{.{.{.[.'.W.S.,.,.,.}.}.}.}.}.}.}.}.}.}.}.",
"}.}.}.}.}.}.}.}.}.}.}.}.}.}.}.C C C C C C C C C 2       I ,.,.,.,.,.W./.[.{.{.{.{.{.{.{.{.].^.P.,.,.,.,.}.}.}.}.}.}.}.}.}.}.}.}.",
"}.}.}.}.}.}.}.}.}.}.}.}.}.}.}.C C C C C C C C C p O O ; ! >.,.,.1.1.E./.[.{.{.{.{.{.{.{.].).W.L.,.,.,.,.}.}.}.}.}.}.}.}.}.}.}.}.",
"}.}.}.}.}.}.}.}.}.}.}.}.}.}.}.}.}.}.}.C C C C C C C ^ _ _ _ :.,.P.^.[.{.{.{.{.{.{.{.{.'.A.m.,.,.,.,.}.}.}.}.}.}.}.}.}.}.}.}.}.}.",
"}.}.}.}.}.}.}.}.}.}.}.}.}.}.}.}.}.}.}.C C C C C C C U ^ / _ *.:.S.T._.].[.{.{.{.{.{./.Q.m.t.,.,.,.}.}.}.}.}.}.}.}.}.}.}.}.}.}.}.",
"}.}.}.}.}.}.}.}.}.}.}.}.}.}.}.}.}.}.}.}.}.C C }.C C C C ^ _ _ _ :.,.W.^.[.{.{.{.{.'.,.,.,.,.,.,.}.}.}.}.}.}.}.}.}.}.}.}.}.}.}.}.",
"}.}.}.}.}.}.}.}.}.}.}.}.}.}.}.}.}.}.}.}.}.C }.}.C C C C U _ _ _ *.:.I.P.^./.^.^.^.Y.,.,.,.,.,.,.}.}.}.}.}.}.}.}.}.}.}.}.}.}.}.}.",
"}.}.}.}.}.}.}.}.}.}.}.}.}.}.}.}.}.}.}.}.}.}.}.}.C C C C }.}.}.}._ _ >.,.,.,.,.,.,.,.,.,.}.}.}.}.}.}.}.}.}.}.}.}.}.}.}.}.}.}.}.}.",
"}.}.}.}.}.}.}.}.}.}.}.}.}.}.}.}.}.}.}.}.}.}.}.}.}.B C C }.}.}.}.Y Y O.O.*.*.,.,.,.,.,.,.}.}.}.}.}.}.}.}.}.}.}.}.}.}.}.}.}.}.}.}.",
"}.}.}.}.}.}.}.}.}.}.}.}.}.}.}.}.}.}.}.}.}.}.}.}.}.}.}.}.}.}._ _ K C C C ) _ ,.,.}.}.}.}.}.}.}.}.}.}.}.}.}.}.}.}.}.}.}.}.}.}.}.}.",
"}.}.}.}.}.}.}.}.}.}.}.}.}.}.}.}.}.}.}.}.}.}.}.}.}.}.}.}.}.}.}._ K C C C _ _ ,.,.}.}.}.}.}.}.}.}.}.}.}.}.}.}.}.}.}.}.}.}.}.}.}.}.",
"}.}.}.}.}.}.}.}.}.}.}.}.}.}.}.}.}.}.}.}.}.}.}.}.}.}.}.}.}.}.}.}.}.}.}.}.}.}.}.}.}.}.}.}.}.}.}.}.}.}.}.}.}.}.}.}.}.}.}.}.}.}.}.}.",
"}.}.}.}.}.}.}.}.}.}.}.}.}.}.}.}.}.}.}.}.}.}.}.}.}.}.}.}.}.}.}.}.}.}.}.}.}.}.}.}.}.}.}.}.}.}.}.}.}.}.}.}.}.}.}.}.}.}.}.}.}.}.}.}.",
"}.}.}.}.}.}.}.}.}.}.}.}.}.}.}.}.}.}.}.}.}.}.}.}.}.}.}.}.}.}.}.}.}.}.}.}.}.}.}.}.}.}.}.}.}.}.}.}.}.}.}.}.}.}.}.}.}.}.}.}.}.}.}.}.",
"}.}.}.}.}.}.}.}.}.}.}.}.}.}.}.}.}.}.}.}.}.}.}.}.}.}.}.}.}.}.}.}.}.}.}.}.}.}.}.}.}.}.}.}.}.}.}.}.}.}.}.}.}.}.}.}.}.}.}.}.}.}.}.}."
};
