/* XPM */
static char *result[] = {
/* columns rows colors chars-per-pixel */
"64 64 214 2 ",
"   c #BD0808",
".  c #C50B07",
"X  c #CC0E06",
"o  c #C00C09",
"O  c #C51507",
"+  c #C5120B",
"@  c #C91B0B",
"#  c #D61105",
"$  c #DE1404",
"%  c #DE1E04",
"&  c #C31914",
"*  c #E51703",
"=  c #EB1903",
"-  c #F51C01",
";  c #C52507",
":  c #D62F05",
">  c #D6260E",
",  c #DE3C04",
"<  c #DB320E",
"1  c #DB3A0E",
"2  c #DE3704",
"3  c #C5261E",
"4  c #CB2513",
"5  c #D62810",
"6  c #D72912",
"7  c #DD3115",
"8  c #DC321A",
"9  c #DB3917",
"0  c #FF2000",
"q  c #FF2B00",
"w  c #E43908",
"e  c #FF3400",
"r  c #FF3E00",
"t  c #F33501",
"y  c #E23916",
"u  c #E62103",
"i  c #CF3827",
"p  c #D64C05",
"a  c #D64508",
"s  c #DA5606",
"d  c #CD4206",
"f  c #E44A09",
"g  c #FF4500",
"h  c #FF4900",
"j  c #F24B02",
"k  c #E6580A",
"l  c #FF5300",
"z  c #FF5C00",
"x  c #F85D07",
"c  c #EA441D",
"v  c #F1571D",
"b  c #F45C17",
"n  c #E95913",
"m  c #D96005",
"M  c #E66909",
"N  c #FF6600",
"B  c #FC6A01",
"V  c #F76405",
"C  c #E67607",
"Z  c #FF7100",
"A  c #FF7B00",
"S  c #E96913",
"D  c #F26618",
"F  c #F57315",
"G  c #F37319",
"H  c #E67F1A",
"J  c #DB4229",
"K  c #CE4535",
"L  c #CD453D",
"P  c #D34D37",
"I  c #EF4921",
"U  c #F15F34",
"Y  c #ED592C",
"T  c #FF6929",
"R  c #FC6327",
"E  c #EA703B",
"W  c #CE4546",
"Q  c #D6634C",
"!  c #DB6044",
"~  c #DA7258",
"^  c #F37648",
"/  c #E57750",
"(  c #E5775A",
")  c #D66364",
"_  c #E57765",
"`  c #EF8D02",
"'  c #E68A06",
"]  c #FF8200",
"[  c #FF8B00",
"{  c #FF820D",
"}  c #FB8E0C",
"|  c #F38D06",
" . c #E69B03",
".. c #FF9500",
"X. c #FF9E00",
"o. c #FB9E09",
"O. c #F79608",
"+. c #F78210",
"@. c #F58915",
"#. c #FB9B15",
"$. c #EFA706",
"%. c #EAAA0E",
"&. c #F7A301",
"*. c #FFA600",
"=. c #FEAA01",
"-. c #EFB802",
";. c #FFB100",
":. c #FFBA00",
">. c #FAB50C",
",. c #FFBE10",
"<. c #F7AB16",
"1. c #F3902D",
"2. c #F9A829",
"3. c #F9BC23",
"4. c #FFB635",
"5. c #FEC200",
"6. c #FFCB00",
"7. c #F9C506",
"8. c #FED500",
"9. c #FEDD01",
"0. c #FFC21A",
"q. c #FEC81A",
"w. c #FFE500",
"e. c #FFEC00",
"r. c #FFE40D",
"t. c #FFF300",
"y. c #FFF40D",
"u. c #FFF417",
"i. c #FFF51A",
"p. c #FFED18",
"a. c #FFCA2D",
"s. c #FFCE21",
"d. c #FFD228",
"f. c #FCC939",
"g. c #FFDA35",
"h. c #FFF52E",
"j. c #FFE837",
"k. c #FFF535",
"l. c #FEEA25",
"z. c #FD894D",
"x. c #FC9B59",
"c. c #F08F55",
"v. c #FAA646",
"b. c #F1B44A",
"n. c #DE8162",
"m. c #EA9166",
"M. c #E69F79",
"N. c #EB9579",
"B. c #EB8E66",
"V. c #F9A46B",
"C. c #EFAB7C",
"Z. c #FFB273",
"A. c #EDB86C",
"S. c #FFD247",
"D. c #FFCE50",
"F. c #FADB5E",
"G. c #FFE542",
"H. c #FFF647",
"J. c #FFF842",
"K. c #FFEB50",
"L. c #FFF950",
"P. c #FFF55E",
"I. c #FFF857",
"U. c #FFD864",
"Y. c #FFC776",
"T. c #FFD670",
"R. c #FFE663",
"E. c #FFFB6B",
"W. c #FFFA76",
"Q. c #FFF37B",
"!. c #FFE276",
"~. c #DE8183",
"^. c #EA9187",
"/. c #E29093",
"(. c #FABB83",
"). c #EFBE90",
"_. c #EFB18D",
"`. c #EBA6A4",
"'. c #EAAFB1",
"]. c #FDC988",
"[. c #FBDB82",
"{. c #F5C792",
"}. c #FBC995",
"|. c #FFD798",
" X c #FED891",
".X c #FEEA8E",
"XX c #FFF98E",
"oX c #FFFB94",
"OX c #FFFA99",
"+X c #FFE29F",
"@X c #F7DCA6",
"#X c #FCD9AC",
"$X c #FBE5A7",
"%X c #FFFAA5",
"&X c #FFFBA8",
"*X c #FFF3A5",
"=X c #FBECB2",
"-X c #FFFBBD",
";X c #FFF9B3",
":X c #EFBEC1",
">X c #F3CDD1",
",X c #FFFBC5",
"<X c #FFFBCE",
"1X c #FFF7CE",
"2X c #FFFBD5",
"3X c #FFFBDE",
"4X c #FFF3DF",
"5X c #F7DDE0",
"6X c #FFFBE6",
"7X c #FFFBEE",
"8X c #FBECF0",
"9X c #FFFBF6",
"0X c #FFFBFF",
"qX c None",
/* pixels */
"qXqXqXqXqXqXqXqXqXqXqXqXqXqXqXqXqXqXqXqXqXqXqXqXqXqXqXqXqXqXqXqXqXqXqXqXqXqXqXqXqXqXqXqXqXqXqXqXqXqXqXqXqXqXqXqXqXqXqXqXqXqXqXqX",
"qXqXqXqXqXqXqXqXqXqXqXqXqXqXqXqXqXqXqXqXqXqXqXqXqXqXqXqXqXqXqXqXqX0 *         qXqXqXqXqXqXqXqXqXqXqXqXqXqXqXqXqXqXqXqXqXqXqXqXqX",
"qXqXqXqXqXqXqXqXqXqXqXqX  qXqXqX  qXqXqXqXqXqXqXqXqXqXqXqXqXqX  * 0 - $ $ $ = 0 0 0 #       qXqXqXqXqX  qXqXqXqXqXqXqXqXqXqXqXqX",
"qXqXqXqXqXqXqXqXqXqXqX    qXqX    qXqXqXqXqXqXqXqXqXqXqXqXqXqX  # 0 - 0 0 0 0 0 0 0 #       qXqXqXqX    qXqXqXqXqXqXqXqXqXqXqXqX",
"qXqXqXqXqXqX  qXqXqX  # $ = 0 X   qXqXqXqXqXqXqXqXqXqXqXqXqXqX  X $ = 0 0 0 e h e - t w > $ j B O   , , 0 0 qXqX  qXqXqXqXqXqXqX",
"qXqXqXqXqXqX    qX    * 0 0 0 qXqXqXqXqXqXqXqXqXqXqXqXqXqXqXqXqXqX  # 0 0 0 h Z r 0 l B e 0 z Z O   V Z 0 0 qXqX    qXqXqXqXqXqX",
"qXqXqXqX  # * #   # * - 0 0 0 qXqXqXqXqXqXqXqXqXqXqXqX0 0 0 qXqXqXqX= 0 r l h r h l ] X.*.*.X.X.k f B Z l l 0 - * = qXqXqXqXqXqX",
"qXqXqXqX  # 0 $   $ 0 0 0 0 0 qXqXqXqXqXqXqXqXqXqXqXqX0 0 0 0 qXqXqXqX- g Z h 0 l B X.:.w.t.6.:.A Z Z Z Z Z 0 0 0 0 qXqXqXqXqXqX",
"qXqXqXqXqXX # $ * t l l l g qXqXqXqXqXqXqXqXqXqXqXqXqXqX0 0 0 0 qXqXqX0 q g z ] ..X...[ 9.t.w.9.=.X.X.X.Z Z 0 0 0 0 qXqXqXqXqXqX",
"qXqXqXqXqXqX  $ 0 h Z Z Z qXqXqXqXqXqXqXqXqXqXqXqXqXqXqXqX0 0 0 0 qXqX0 0 - B :.:.:.[ Z 8.t.t.t.5.:.:.:.Z Z 0 - 0 0 qXqXqXqXqXqX",
"qXqXqXqX    qX- 0 h Z Z qXqXqXqXqXqXqXZ Z qXqXZ Z qXqX0 e N h 0 0 0 0 0 g z Z ] :.w.5.=.j.I.L.L.r.w.5.:.Z Z ....z z 0 0 qXqXqXqX",
"qXqXqXqX    qX0 0 h Z qXqXqXqXqXqXqXqXZ Z qXqXZ Z qXqX0 e B z 0 0 0 0 0 h Z Z B 6.t.6.:.K.E.E.E.y.t.5.:.Z Z :.;.Z N 0 0 qXqXqXqX",
"qXqXqXqXqXqXqXX X u e qXqXqXqX0 0 0 0 N Z Z Z Z Z qXqXqXqXqXqXz h 0 0 0 h Z [ =.8.t.w.w.Q.&X&X&XI.L.r.w.=.=.] A Z N 0 0 qXqXqXqX",
"qXqXqXqXqXqXqX    $ 0 qXqXqXqX0 0 0 0 N Z Z Z Z Z qXqXqXqXqXqXZ l 0 0 0 h Z ..:.9.t.t.t.XX-X-X-XW.E.y.t.:.:.Z Z Z N 0 0 qXqXqXqX",
"qXqXqXqXqXqXqX    2 N qXqXqXqX0 0 0 0 q q q q Z Z qXqXZ Z Z Z Z B N N N h q l A *.5.w.t.y.u.OX-XW.E.y.t.e.e.Z Z Z N 0 0 0 0 qXqX",
"qXqXqXqXqXqXqX    , Z qXqXqXqX0 - 0 0 0 0 0 0 Z Z qXqXZ Z Z Z Z Z Z Z Z h 0 h Z X.:.9.t.t.t.XX-XW.E.y.t.t.t.Z Z Z N 0 0 0 0 qXqX",
"qXqXqXqXqXqXqX      qXqXqXqXqXqXqX0 0 N Z Z Z :.;.Z Z Z ] :.:.:.S.-XY.Z 4.E.g.:.w.t.J.E.i.t.L.E.E.E.y.t.t.t.Z N 0 0 0 0 0 0 qXqX",
"qXqXqXqXqXqXqX      qXqXqXqXqXqXqX0 0 N Z Z Z :.;.Z Z Z ] :.:.:.S.-XY.Z 4.E.g.:.9.t.J.E.i.t.L.E.E.E.y.t.t.t.Z N 0 0 0 0 0 0 qXqX",
"qXqXqXqXqXqXqXqXqXqXqXqXqXqXqXZ Z Z Z Z Z Z Z Z Z Z A :.:.:.6.t.h.E.%X0X;XE.k.t.8.:.p           K.E.{ Z :.:.Z N 0 0 qXqX0 0 qXqX",
"qXqXqXqXqXqXqXqXqXqXqXqXqXqXqXZ Z Z Z Z Z Z Z Z Z A ] :.:.6.6.w.h.W.%X9X;XE.k.e.:.&.p ; 3 3 ; ; b.U.} A ;.;.N z 0 0 qXqX0 0 qXqX",
"qXqXqXqXZ Z qXqXqXZ Z qXqXqXqXqXqXqXqXZ Z Z Z Z Z :.:.:.6.t.w.:.S.-X-X-XXXE.g.:.p    .t.XX-Xh.t.;   &.:.Z Z 0 0 qXqXqXqXqXqXqXqX",
"qXqXqXqXZ N qXqXqXB Z qXqXqXqXqXqXqXqXZ Z Z Z A ] :.:.:.6.t.w.:.f.%X$X@X.XU.a. .p ; %.u.XX-XH.u.d ; ` $.Z Z 0 0 qXqXqXqXqXqXqXqX",
"qXqXqXqXqXqX0 0 qXZ Z Z Z qXqXqXqX:.:.A Z Z Z :.:.:.:.:.6.e.w.:.:.:.C            .t.W.-X-X-X-X-Xl.t.;   Z Z 0 0 qXqXqXqXqXqXqXqX",
"qXqXqXqXqXqXe e qXN Z Z Z Z qXqXqX*.=.Z Z Z Z *.*.:.:.:.6.w.8.` ` o.m K L W L L %.w.P.XX;X-X-X-Xi.t.;   N z e e qXqXqXqXqXqXqXqX",
"qXqX0 0 qXqXZ h 0 h Z Z Z Z Z Z Z Z Z Z Z Z Z Z A :.:.:.:.:.`   @ 5 / -X4X0X3X-XS.:.9.t.XX-X-X-Xu.t.;   0 0 Z Z qXqXqXqXZ Z qXqX",
"qXqX- q qXZ Z z g z Z A ] A Z ] ] Z Z ] ] Z Z Z A 6.6.:.;.` m & 3 U C.<X6X0X6X,XU.a.q.7..X-X-X-Xu.t.;   e e Z Z qXqXqXqXZ Z qXqX",
"qXqXqXqXZ Z Z ..:...Z X.:.qXqX:.:.] Z ;.:.A Z Z ] t.w.:.'     5 / -X2X0X0X0X0X0X2X-X/ 5 {.-X-X-Xu.t.;   Z Z Z Z Z Z qXqXZ Z qXqX",
"qXqXqXZ Z Z Z [ X...[ ..X.=.qX:.:.=.*.6.8...[ Z A 5.:.C @.Q P 5 ( 2X6X0X>X`.>X0X6X2X( > {.-X-X-Xu.t.;   Z Z Z Z Z Z qXqXZ Z qXqX",
"qXqXZ Z Z Z Z Z Z ..:.[ B *.:.:.:.w.t.t.t.:.:.Z B Z V   K -X{.5 _ 0X0X0X~.  ~.0X0X0X_ > {.-X-X-Xu.t.;   Z Z Z Z Z Z Z Z Z Z qXqX",
"qXqXl l l z Z ] [ *.:.*.[ *.:.s.d.G.H.r.w.:.:.[ ] f k Q _ -X{.5 _ 6X7X0X'.) '.0X9X6X_ > m.].;X-XL.H.4   Z Z Z A [ [ Z A [ [ qXqX",
"qXqX0 0 0 r Z ..:.:.:.:.:.:.:.K.E.&X-X0.:.:.:.:.&.  3 -X-X-X{.: ~ -X2X0X0X0X0X0X3X,X/ 5 v T  X-X-X,X3   Z Z Z A :.;.Z ] :.:.qXqX",
"qXqX0 0 0 e h B ......=.:.:.:.K.E.&X-XR.U.,.:.m s   & m.m.m.c.' 2.F..X3X7X0X7X4X).V.E I x.Z.R.E.V.V.8 6 , , Z Z ............qXqX",
"qXqXqXqX0 - 0 h Z Z Z X.:.:.:.K.E.&X-X-X-Xq.:.        > 6 6 s t.9.:.S.,X3X0X3X-Xc.I R T @X-Xh.t.b I I I     B Z Z A :.=.Z Z qXqX",
"qXqXqXqX0 r h z Z Z Z [ ..=.:.d.g.Q.oXoXoX#...> 8 n.n.^.^.m.v.8.8.8.3.m.N.^.N.m.1.#.v.Z.R.P.3.#.@.+.+.+.    b V ......[ Z Z qXqX",
"qXqXqXqXqXqXZ Z Z Z Z Z Z *.:.:.:.K.E.E.E.{ Z I U ,X,X0X9X-X.X:.8.t.$.5 5 5 > > %.t.W.-Xh.t.G I =.:.:.:.    I v :.;.Z Z Z B qXqX",
"qXqX:.qXqXqXqXqXqXqXqXZ B X.:.:.:.q.d.d.d.a : (.{.6X6X0X0X6X1X!.b.C ' $.v.C.! + a m A.-Xv.@.O.}  X+X,.:.7 7 4 < [ [ Z A *.X.qXqX",
"qXqX:.:.qXqXqXqXqXqXqXZ Z X.:.:.:.:.:.:.:.@   -X,X0X0X0X0X0X7X-XC.5 C t.P.;Xn.      M.-X^ I o.:.6X0X,.>.I I   O Z Z Z ] :.:.qXqX",
"qXqXqXqXqXqXqXqXqXqXB Z Z ] [ ;.:.:.:.N z O   6X6X0X8X) /.0X0X6X_.4 E W.A.Q i       M.-X^ I o.:.D.F.,.:.} }   O Z Z *.X.qXqXqXqX",
"qXqXqXqXqXqXqXqXqXZ Z Z Z Z Z =.:.:.:.e 0 .   0X0X0X5X  W 0X0X0X`.6 / -X~           M.-X^ I o.:.;.:.:.:.:.:.  O Z A :.:.qXqXqXqX",
"qXqXqXqXqXqX:.qXqXqXqXqXqXZ Z ] ] l h - - o   1X1X9X8X>X>X0X9X1X_.6 J L 3       ~ ).=X,X^ I o.:.:.:.:.:.:.:.  + Z Z ] ] qXqXqXqX",
"qXqXqXqXqXqX:.:.qXqXqXqXqXZ Z Z Z e 0 0 0 .   -X,X0X0X0X0X0X7X-XC.> @           M.-X-X-X^ I o.:.:.:.:.:.:.:.  O Z Z Z Z qXqXqXqX",
"qXqXqXqX:.q.K.K.qXqXqXqXqXqXqXZ Z e 0 0 0 .   a.S.<X<X0X9X<X#X^ 1.-.'       Q ).=X-X-X-X^ I o.:.:.:.:.:.:.:.  O Z A *.=.qXqXqXqX",
"qXqXqXqX:.d.E.E.qXqXqXqXqXqXqXZ Z r - 0 - .   :.,.,X,X0X7X-X|.I @.t. .      n.-X-X-X-X-X^ I &.:.:.:.:.:.:.:.  O Z A :.:.qXqXqXqX",
"qXqXqXqXA A { { qXqXqXqXqXqXqX0 q 0 0 0 - > 5 e.8.J J J i J Y R x.%X$X@X@X@X=X-X-X-X-X-Xj.9.G v =.:.:.:.v v > 1 ;.*.A A qXqXqXqX",
"qXqXqXqXZ Z Z Z qXqXqXqXqXqXqX0 0 - - 0 0 > 6 t.9.6 5 5 5 5 y T x.-X-X-X-X-X-X-X-X-X-X-Xh.t.G I =.:.:.:.I I 6 1 :.;.Z Z qXqXqXqX",
"qXqXqXqXq g Z B qXqXqXZ Z r 0 0 0 z N N N < 5 3X2X@X@X$X(.R z.*XQ.u.3.U U U U U U U 3.u.XX%Xl.9.D v a 1 6 6 N B A A qXqXqXqXqXqX",
"qXqXqXqX0 r Z Z qXqXqXZ Z r 0 0 0 z Z Z Z < 5 0X9X-X-X-X|.T z.-XW.t.>.I I I I I I I >.t.XX-Xh.t.v I 8 5 5 5 Z Z Z Z qXqXqXqXqXqX",
"qXqXqXqX0 z :.:.qXqXqX0 0 v.E.u.t...Z Z Z Z Z -X,X0X9X-X-X-XXXt.>.I F :.:.:.:.:.:.:.F I 7.t.t.t.5.:.9 5 Z Z Z Z Z N 0 0 qXqXqXqX",
"qXqXqXqX0 z :.:.qXqXqX0 0 v.E.i.t...B Z Z Z Z -X,X0X9X-X-X-XXXt.>.I F :.:.:.:.:.:.:.G I 7.t.t.t.5.:.1 5 Z Z Z Z Z N 0 0 qXqXqXqX",
"qXqXqXqXqXqX:...Z h 0 - 0 ] :.:.:.:.:.:.:.e.t.Z ] t.t.t.h.-X}.I F :.U.0X[.:.:.:.:.:.:.:.D I o.:.1 5 B Z Z Z Z N 0 0 qXqXqXqXqXqX",
"qXqXqXqXqXqX:...Z h q q - A *.:.:.=.*.:.:.w.e.A [ t.t.u.h.%X XI F :.D.4XT.:.:.:.:.:.:.:.D I | *.f < V Z Z Z Z N 0 0 qXqXqXqXqXqX",
"qXqXqXqXqXqXqXZ Z Z Z r 0 0 - ..:.g 0 *.:.:.:.:.5.t.u.-XXXt.7.c F :.:.:.:.:.:.:.:.:.:.:.f > 5 5 V Z Z Z Z Z qXqXqXqXqXqXqXqXqXqX",
"qXqXqXqXqXqXqXB Z Z A h q 0 0 ] *.l q X.=.:.:.:.5.w.p.-XXXt.7.c D &.=.=.:.:.:.:.:.:.;.=.s > < < V Z Z Z Z Z qXqXqXqXqXqXqXqXqXqX",
"qXqXqXqXqXqX0 h Z ..:.[ Z r 0 0 0 z Z Z Z ;.:.:.:.:.0.-XXXt.-.  + > 8 I F :.:.:.:.:.G I 7 5 x B Z Z qXqXZ Z Z Z qXqXqXqXqXqXqXqX",
"qXqXqXqXqXqX0 h Z ..:.*.#.x e e e N Z Z Z ;.:.*.=.:.0.).A.-.'   + 7 y y S ` ` ` ` ` n c y w V Z Z Z qXqXZ Z Z Z qXqXqXqXqXqXqXqX",
"qXqXqXqXqXqXqXZ Z ..:.S.W.2.Z Z Z Z Z Z Z ;.:.Z A :.&.          4 I 8               @ 5 V Z Z Z qXqXqXqXqXqXqXqXqXqXqXqXqXqXqXqX",
"qXqXqXqXqXqXqXl l A X.a.G.#.B Z Z l l B Z X.*.Z Z X...: : : : : w b f : a m s p p p s k V Z Z B qXqXqXqXqXqXqXqXqXqXqXqXqXqXqXqX",
"qXqXqXqXqXqXqX0 0 h Z o.:.[ Z Z Z e 0 N Z Z Z Z Z Z Z Z Z Z Z Z Z B Z Z ;.t.8.:.:.:.:.:.qXqXqXqXqXqXqXqXqXqXqXqXqXqXqXqXqXqXqXqX",
"qXqXqXqXqXqXqXqX0 g l ] *.] Z Z Z N z ] [ Z Z Z Z Z Z Z Z Z N l z Z Z Z ;.t.:.*.*.X.=.:.qXqXqXqXqXqXqXqXqXqXqXqXqXqXqXqXqXqXqXqX",
"qXqXqXqXqXqXqXqXqX0 - l B Z Z Z Z =.:.:.:.A Z Z Z Z Z qXqXZ z 0 0 qXqXqXqXqXZ B Z Z qXqXqXqXqXqXqXqXqXqXqXqXqXqXqXqXqXqXqXqXqXqX",
"qXqXqXqXqXqXqXqXqXqX0 l Z l h N Z [ ......Z Z Z Z Z qXqXqXZ z 0 qXqXqXqXqXqXqXZ Z Z qXqXqXqXqXqXqXqXqXqXqXqXqXqXqXqXqXqXqXqXqXqX",
"qXqXqXqXqXqXqXqXqXqXqXqXqX0 0 z Z Z Z Z Z Z Z qXqXqXqXqXqXqXqXqXqXqXqXqXqXqXqXqXqXqXqXqXqXqXqXqXqXqXqXqXqXqXqXqXqXqXqXqXqXqXqXqX",
"qXqXqXqXqXqXqXqXqXqXqXqXqXqX0 z Z Z Z Z Z Z Z qXqXqXqXqXqXqXqXqXqXqXqXqXqXqXqXqXqXqXqXqXqXqXqXqXqXqXqXqXqXqXqXqXqXqXqXqXqXqXqXqX",
"qXqXqXqXqXqXqXqXqXqXqXqXqXqXqXqXqXqXqXqXqXqXqXqXqXqXqXqXqXqXqXqXqXqXqXqXqXqXqXqXqXqXqXqXqXqXqXqXqXqXqXqXqXqXqXqXqXqXqXqXqXqXqXqX"
};
