/* XPM */
static char *result[] = {
/* columns rows colors chars-per-pixel */
"64 64 175 2 ",
"   c #E82000",
".  c #EA2B00",
"X  c #EB3000",
"o  c #EC3600",
"O  c #ED3B00",
"+  c #EE4100",
"@  c #EC4200",
"#  c #F04C00",
"$  c #EE5300",
"%  c #F25700",
"&  c #F05800",
"*  c #F46200",
"=  c #F06400",
"-  c #F36600",
";  c #F26900",
":  c #F36C00",
">  c #F66D00",
",  c #F07000",
"<  c #F27500",
"1  c #F47400",
"2  c #F57600",
"3  c #F07C00",
"4  c #F57F00",
"5  c #F87800",
"6  c #F28700",
"7  c #F48600",
"8  c #F88100",
"9  c #F88A00",
"0  c #F29300",
"q  c #F49200",
"w  c #F89000",
"e  c #F89600",
"r  c #F89900",
"t  c #F89F00",
"y  c #EE8012",
"u  c #F08410",
"i  c #EE9B12",
"p  c #F29F18",
"a  c #F6A900",
"s  c #F8A800",
"d  c #F8AE00",
"f  c #F3AC09",
"g  c #F8B100",
"h  c #F8B400",
"j  c #F8B700",
"k  c #F8BA00",
"l  c #EEAA12",
"z  c #EEB012",
"x  c #DA9036",
"c  c #E48824",
"v  c #F08C20",
"b  c #E49724",
"n  c #E4AC24",
"m  c #F2A728",
"M  c #F4BA20",
"N  c #F6BD28",
"B  c #F8C000",
"V  c #F8C600",
"C  c #F8C900",
"Z  c #F8CC00",
"A  c #F8CF00",
"S  c #F8C60C",
"D  c #F8CA08",
"F  c #F8D200",
"G  c #F8D500",
"H  c #F8D800",
"J  c #F8DA04",
"K  c #F8D008",
"L  c #F8DC08",
"P  c #F8DE0C",
"I  c #F8C714",
"U  c #F8C810",
"Y  c #F8D014",
"T  c #F8D218",
"R  c #F8DE18",
"E  c #F8E010",
"W  c #F8E214",
"Q  c #F8E418",
"!  c #F8E61C",
"~  c #DACC36",
"^  c #DFD235",
"/  c #F8C828",
"(  c #F8D020",
")  c #F8DC20",
"_  c #F8DA28",
"`  c #F8D830",
"'  c #F8E820",
"]  c #F8EA24",
"[  c #F8E328",
"{  c #F8EC28",
"}  c #F8EE2C",
"|  c #F8E030",
" . c #F8F030",
".. c #F8F234",
"X. c #F8F438",
"o. c #F8F63C",
"O. c #BCA86C",
"+. c #BCAB6C",
"@. c #BCB46C",
"#. c #BCBA6C",
"$. c #B2B07E",
"%. c #B2B37E",
"&. c #B2B67E",
"*. c #B2B97E",
"=. c #B2BC7E",
"-. c #D09848",
";. c #CB9C51",
":. c #C6A05A",
">. c #C1A463",
",. c #BCC06C",
"<. c #BCC87C",
"1. c #D0C848",
"2. c #DAD446",
"3. c #CBC855",
"4. c #C6C45A",
"5. c #DAE05E",
"6. c #F8E448",
"7. c #F8F840",
"8. c #F8F848",
"9. c #F8E850",
"0. c #F8EC58",
"q. c #F8F050",
"w. c #F8F850",
"e. c #F8F058",
"r. c #F8F858",
"t. c #C1C263",
"y. c #DAD466",
"u. c #D0D868",
"i. c #C6D072",
"p. c #D5DC73",
"a. c #DFE479",
"s. c #F8F664",
"d. c #F8F860",
"f. c #F8F468",
"g. c #F8F868",
"h. c #E4E874",
"j. c #F8EC78",
"k. c #F8F070",
"l. c #F8F470",
"z. c #F8F870",
"x. c #F8F878",
"c. c #ADB487",
"v. c #ADBA87",
"b. c #ADBC8B",
"n. c None",
"m. c #ADBC93",
"M. c #B2C086",
"N. c #BCC484",
"B. c #B2C08E",
"V. c #BCC88C",
"C. c #B2C096",
"Z. c #BCC894",
"A. c #BCC89C",
"S. c #C1CC8F",
"D. c #C1CA93",
"F. c #C6D092",
"G. c #D0D490",
"H. c #DADC96",
"J. c #DAE08E",
"K. c #DAE09E",
"L. c #F8EE84",
"P. c #F8F880",
"I. c #F8F488",
"U. c #F8F888",
"Y. c #F8F090",
"T. c #F8F490",
"R. c #F8F890",
"E. c #C6D0A2",
"W. c #D0D8A8",
"Q. c #F8F8A0",
"!. c #F8F4A8",
"~. c #F8F8A8",
"^. c #F8F8B0",
"/. c #F8F8B8",
"(. c #F8F8C0",
/* pixels */
"n.n.n.n.n.n.n.n.n.n.n.n.n.n.n.n.n.n.n.n.n.n.n.n.n.n.n.n.n.n.n.n.n.n.n.n.n.n.n.n.n.n.n.n.n.n.n.n.n.n.n.n.n.n.n.n.n.n.n.n.n.n.n.n.",
"n.n.n.n.n.n.n.n.n.n.n.n.n.n.n.n.n.n.n.n.n.n.n.n.n.n.n.n.n.n.n.n.n.n.n.n.n.n.n.n.n.n.n.n.n.n.n.n.n.n.n.n.n.n.n.n.n.n.n.n.n.n.n.n.",
"n.n.n.n.n.n.n.n.n.n.n.n.n.n.n.n.n.n.n.n.n.n.n.n.n.n.n.n.n.n.n.n.n.n.n.n.n.n.n.n.n.n.n.n.n.n.n.n.n.n.n.n.n.n.n.n.n.n.n.n.n.n.n.n.",
"n.n.n.n.n.n.n.n.n.n.n.n.n.n.n.n.n.n.n.n.n.n.n.n.n.n.n.n.n.n.n.n.n.n.n.n.n.n.n.n.n.n.n.n.n.n.n.n.n.n.n.n.n.n.n.n.n.n.n.n.n.n.n.n.",
"n.n.n.n.n.n.n.n.n.n.n.n.n.n.n.n.n.n.n.n.n.n.n.n.n.n.n.n.n.n.n.n.n.n.n.n.n.n.n.n.n.n.n.n.n.n.n.n.n.n.n.n.n.n.n.n.n.n.n.n.n.n.n.n.",
"n.n.n.n.n.n.n.n.n.n.n.n.n.n.n.n.n.n.n.n.n.n.n.n.n.n.n.n.n.n.n.n.n.n.n.n.n.n.n.n.n.n.n.n.n.n.n.n.n.n.n.n.n.n.n.n.n.n.n.n.n.n.n.n.",
"n.n.n.n.n.n.n.n.n.n.n.n.n.n.n.n.n.n.n.n.n.n.n.n.n.n.n.n.n.n.n.n.n.n.n.n.n.n.n.n.n.n.n.n.n.n.n.n.n.n.n.n.n.n.n.n.n.n.n.n.n.n.n.n.",
"n.n.n.n.n.n.n.n.n.n.n.n.n.n.n.n.n.n.n.n.n.n.n.n.n.n.n.n.n.n.n.n.n.n.n.n.n.n.n.n.n.n.n.n.n.n.n.n.n.n.n.n.n.n.n.n.n.n.n.n.n.n.n.n.",
"n.n.n.n.n.n.n.n.n.n.n.n.n.n.n.n.n.n.n.n.n.n.n.n.n.n.n.n.n.n.n.n.n.n.n.n.n.n.n.n.n.n.n.n.n.n.n.n.n.n.n.n.n.n.n.n.n.n.n.n.n.n.n.n.",
"n.n.n.n.n.n.n.n.n.n.n.n.n.n.n.n.n.n.n.n.n.n.n.n.n.n.n.n.n.n.n.n.n.n.n.n.n.n.n.n.n.n.n.n.n.n.n.n.n.n.n.n.n.n.n.n.n.n.n.n.n.n.n.n.",
"n.n.n.n.n.n.n.n.n.n.n.n.n.n.n.n.n.n.n.n.n.n.n.n.n.c.$.$.$.%.&.&.&.&.&.=.=.n.n.n.n.n.n.n.n.n.n.n.n.n.n.n.n.n.n.n.n.n.n.n.n.n.n.n.",
"n.n.n.n.n.n.n.n.n.n.n.n.n.n.n.n.n.n.n.n.n.n.n.n.n.-.5 5 5 e s s s s s Z H ,.n.n.n.n.n.n.n.n.n.n.n.n.n.n.n.n.n.n.n.n.n.n.n.n.n.n.",
"n.n.n.n.n.n.n.n.n.n.n.n.n.n.n.n.n.n.n.n.n.c.$.$.$.-.y y y i l l l f d Z H 4.=.=.=.n.n.n.n.n.n.n.n.n.n.n.n.n.n.n.n.n.n.n.n.n.n.n.",
"n.n.n.n.n.n.n.n.n.n.n.n.n.n.n.n.n.n.n.n.n.-.5 5 5 -.n.n.n.n.n.n.n.~ H H H H H H H =.n.n.n.n.n.n.n.n.n.n.n.n.n.n.n.n.n.n.n.n.n.n.",
"n.n.n.n.n.n.n.n.n.n.n.n.n.n.n.n.n.n.n.n.n.;.y y y ;.n.n.n.b.M.M.M.^ L L L H H H H N.C.n.n.n.n.n.n.n.n.n.n.n.n.n.n.n.n.n.n.n.n.n.",
"n.n.n.n.n.n.n.n.n.n.n.n.n.n.n.n.n.n.n.n.n.n.n.n.n.n.n.n.n.5.7.7.7.7.7.7.7.E H H H !.(.C.n.n.n.n.n.n.n.n.n.n.n.n.n.n.n.n.n.n.n.n.",
"n.n.n.n.n.n.n.n.n.n.n.n.n.n.n.n.n.n.n.n.n.n.n.n.n.C.A.A.A.h.d.d.d.w.7.7.7.! E J H L.Y.D.A.m.n.n.n.n.n.n.n.n.n.n.n.n.n.n.n.n.n.n.",
"n.n.n.n.n.n.n.n.n.n.n.n.n.n.n.n.n.n.n.n.n.n.n.n.n.W.(.(.(.(.(.(.(.z.7.7.7.7.7.E H H H !.(.C.n.n.n.n.n.n.n.n.n.n.n.n.n.n.n.n.n.n.",
"n.n.n.n.n.n.n.n.n.n.n.n.n.n.n.n.n.n.n.n.n.C.A.V.<.K.(.(.(.^.Q.Q.Q.d.7.7.7.7.7.! E J H T.Q.B.n.n.n.n.n.n.n.n.n.n.n.n.n.n.n.n.n.n.",
"n.n.n.n.n.n.n.n.n.n.n.n.n.n.n.n.n.n.n.n.n.W.(.P.7.P.(.(.(.z.7.7.7.7.7.7.7.7.7.7.7.L H X.7.M.n.n.n.n.n.n.n.n.n.n.n.n.n.n.n.n.n.n.",
"n.n.n.n.n.n.n.n.n.n.n.n.n.n.n.n.n.m.A.Z.<.J.Q.z.7.f.Y.Y.Y.q. . . .X.7.7.7... .o.7.W E o.7.S.A.m.n.n.n.O.O.n.n.n.n.n.n.n.n.n.n.n.",
"n.n.n.n.n.n.n.n.n.n.n.n.n.n.n.n.n.E.(.R.7.7.7.7.7.' H H H H H H H { 7.7.7.E H  .7.7.7.7.7.^.(.C.n.n.n.5 5 n.n.n.n.n.n.n.n.n.n.n.",
"n.n.n.n.n.n.n.n.n.n.n.n.n.n.n.C.E.H.j.0.{ ..7.7.7.' H Z V V V F H { 7.7.7.] Q ' { o.7.7.7.U.R.B.n.n.n.5 5 n.n.n.n.n.n.n.n.n.n.n.",
"n.n.n.n.n.n.n.n.n.n.n.n.n.n.n.E.(.j.H H H ' 7.7.7.' H k s s s V H { 7.7.7.7.7.E H X.7.7.7.7.7.M.n.n.n.5 5 n.n.n.n.n.n.n.n.n.n.n.",
"n.n.n.n.n.n.n.n.n.n.n.=.4.4.4.y.j.9.Q Q Q ' { [ _ Y V h s h k Z H { 7.7.7.} { P H ] { s.z.z.z.B.n.n.n.5 5 n.n.n.n.n.n.n.n.n.n.n.",
"n.n.n.n.n.n.n.n.n.n.n.,.H H H H H Q 7.7.7.' H B s s s s s V H H H { 7.7.7.E H H H H H !.(.(.(.C.n.n.n.5 5 n.n.n.n.n.n.n.n.n.n.n.",
"n.n.n.n.n.n.n.n.n.n.n.,.H H H L Q { 7.X.{ ' Q S s g k k k Z H H H Q { o.7.E H C V G H !.(.(.(.C.n.n.n.5 5 n.n.n.n.n.n.n.n.n.n.n.",
"n.n.n.n.n.n.n.n.n.n.n.,.H H H Q 7.7.7.{ H ' 7.( s B H H H H H H H H H  .7.E H h s F H !.(.(.(.C.n.n.n.5 5 n.n.n.n.n.n.n.n.n.n.n.",
"n.n.n.n.n.n.n.n.n.=.1.~ H L ' } 7.7.7...'  .7.) B B B B B g s s s j B R ' D B d s F H l.P./.(.p.u.n.n.w w n.n.n.n.n.n.n.n.n.n.n.",
"n.n.n.n.n.n.n.n.n.,.H H H E 7.7.7.7.7.7.7.7.7.' H B s s s 9 5 5 5 e s Z H h s s s F H X.7.^.(.w.7.n.n.s s n.n.n.n.n.n.n.n.n.n.n.",
"n.n.n.n.n.n.n.n.n.#.B V H E 7.7.7.7.7.7.7.7.7.M 3 q s s s r w 8 5 : = a B d s k B G H X.7.^.(.w.7.n.n.s s n.n.n.n.n.n.n.n.n.n.n.",
"n.n.n.n.n.n.n.n.n.@.s h H E 7.7.7.7.7.7.7.7.7.v   = s s s s s 9 5 +   7 s s s Z H H H X.7.^.(.w.7.n.n.s s n.n.n.n.n.n.n.n.n.n.n.",
"n.n.n.n.n.n.n.n.n.@.s z 1.2.7.r.P.g.7...' ' ' u   & w t s s s 9 5 +   1 w w w T ' ' ' o.7.x.P.8.7.1.1.s s n.n.n.n.n.n.n.n.n.n.n.",
"n.n.n.n.n.n.n.n.n.@.s n n.<.7.z.(.R.7.{ H H H 3   # 5 e s s s 9 5 +   * 5 5 5 ` 7.7.7.7.7.7.7.7.7.H H s s n.n.n.n.n.n.n.n.n.n.n.",
"n.n.n.n.n.n.n.n.n.@.s n n.<.7.z.(.R.7.{ H Z B ,   o # 2 w w w - # X   + # > 5 ` 7.7.7.7.7.7.7.7.7.H H B B n.n.n.n.n.n.n.n.n.n.n.",
"n.n.n.n.n.n.n.n.n.@.s n n.<.7.z.(.R.7.{ H B s =       % 5 5 5 +           * 5 ` 7.7.7.7.7.7.7.7.7.H H H H n.n.n.n.n.n.n.n.n.n.n.",
"n.n.n.n.n.n.n.n.n.+.9 b n.b.i.J.(.^.R.0.H B s 4 % O   o + + + .           * 5 ` 7.! Q o.7.7.7.! Q H H 4.4.n.n.n.n.n.n.n.n.n.n.n.",
"n.n.n.n.n.n.n.n.n.O.5 c n.n.n.E.(.(.(.j.H B s w 5 #                       * 5 ` 7.L H X.7.7.7.L H H H n.n.n.n.n.n.n.n.n.n.n.n.n.",
"n.n.n.n.n.n.n.n.n.O.5 c n.n.n.E.(.(.(.j.H A V d e 2 % ; < @           # % > 5 U Q { { o.7.! Q J H H H n.n.n.n.n.n.n.n.n.n.n.n.n.",
"n.n.n.n.n.n.n.n.n.O.5 c n.n.n.E.(.(.(.j.H H H B s w 5 e s $           * 5 5 5 B H X.7.7.7.L H H H H H n.n.n.n.n.n.n.n.n.n.n.n.n.",
"n.n.n.n.n.n.n.n.n.c.:.>.n.n.n.E.(.Y.6.| H W { [ _ I h d s 7 < 6 0 p m N / / / K H X.7.7.7.} { 3.4.4.4.x x n.n.n.n.n.n.n.n.n.n.n.",
"n.n.n.n.n.n.n.n.n.n.n.n.n.n.n.E.(.j.H H H ' 7.7.7.' H k s s s V H { 7.7.7.7.7.E H X.7.7.7.7.7.M.n.n.n.5 5 n.n.n.n.n.n.n.n.n.n.n.",
"n.n.n.n.n.n.n.n.n.n.n.n.n.n.n.C.A.G.Y.k. .X.7.7.7.' H A Z Z Z G H { 7.7.7.! E {  .7.7.7.7.R.Q.C.n.n.n.5 5 n.n.n.n.n.n.n.n.n.n.n.",
"n.n.n.n.n.n.n.n.n.n.n.n.n.n.n.n.n.E.(.R.7.7.7.7.7.' H H H H H H H { 7.7.7.E H  .7.7.7.7.7.^.(.C.n.n.n.5 5 n.n.n.n.n.n.n.n.n.n.n.",
"n.n.n.n.n.n.n.n.n.n.n.n.n.n.n.n.n.C.A.V.<.J.Q.z.7.f.Y.Y.Y.e. . . .o.7.7.7... .o.7.Q E X.7.F.A.n.n.n.n.O.O.n.n.n.n.n.n.n.n.n.n.n.",
"n.n.n.n.n.n.n.n.n.n.n.n.n.n.n.n.n.n.n.n.n.W.(.P.7.P.(.(.(.z.7.7.7.7.7.7.7.7.7.7.7.L H X.7.M.n.n.n.n.n.n.n.n.n.n.n.n.n.n.n.n.n.n.",
"n.n.n.n.n.n.n.n.n.n.n.n.n.n.n.n.n.n.n.n.n.C.A.V.<.K.(.(.(.~.Q.Q.Q.g.7.7.7.7.7.! E H H I.Q.C.n.n.n.n.n.n.n.n.n.n.n.n.n.n.n.n.n.n.",
"n.n.n.n.n.n.n.n.n.n.n.n.n.n.n.n.n.n.n.n.n.n.n.n.n.W.(.(.(.(.(.(.(.z.7.7.7.7.7.E H H H !.(.C.n.n.n.n.n.n.n.n.n.n.n.n.n.n.n.n.n.n.",
"n.n.n.n.n.n.n.n.n.n.n.n.n.n.n.n.n.n.n.n.n.n.n.n.n.C.A.A.A.a.d.d.d.8.7.7.7.! E J H j.Y.E.A.n.n.n.n.n.n.n.n.n.n.n.n.n.n.n.n.n.n.n.",
"n.n.n.n.n.n.n.n.n.n.n.n.n.n.n.n.n.n.n.n.n.n.n.n.n.n.n.n.n.5.7.7.7.7.7.7.7.E H H H !.(.C.n.n.n.n.n.n.n.n.n.n.n.n.n.n.n.n.n.n.n.n.",
"n.n.n.n.n.n.n.n.n.n.n.n.n.n.n.n.n.n.n.n.n.;.y y y ;.n.n.n.b.M.M.M.^ L L L J H H H N.C.n.n.n.n.n.n.n.n.n.n.n.n.n.n.n.n.n.n.n.n.n.",
"n.n.n.n.n.n.n.n.n.n.n.n.n.n.n.n.n.n.n.n.n.-.5 5 5 -.n.n.n.n.n.n.n.~ H H H H H H H =.n.n.n.n.n.n.n.n.n.n.n.n.n.n.n.n.n.n.n.n.n.n.",
"n.n.n.n.n.n.n.n.n.n.n.n.n.n.n.n.n.n.n.n.n.c.$.$.$.-.y y y i l l l f d A H t.=.=.=.n.n.n.n.n.n.n.n.n.n.n.n.n.n.n.n.n.n.n.n.n.n.n.",
"n.n.n.n.n.n.n.n.n.n.n.n.n.n.n.n.n.n.n.n.n.n.n.n.n.-.5 5 5 e s s s s s Z H ,.n.n.n.n.n.n.n.n.n.n.n.n.n.n.n.n.n.n.n.n.n.n.n.n.n.n.",
"n.n.n.n.n.n.n.n.n.n.n.n.n.n.n.n.n.n.n.n.n.n.n.n.n.c.$.$.$.%.&.&.&.&.&.*.=.v.n.n.n.n.n.n.n.n.n.n.n.n.n.n.n.n.n.n.n.n.n.n.n.n.n.n.",
"n.n.n.n.n.n.n.n.n.n.n.n.n.n.n.n.n.n.n.n.n.n.n.n.n.n.n.n.n.n.n.n.n.n.n.n.n.n.n.n.n.n.n.n.n.n.n.n.n.n.n.n.n.n.n.n.n.n.n.n.n.n.n.n.",
"n.n.n.n.n.n.n.n.n.n.n.n.n.n.n.n.n.n.n.n.n.n.n.n.n.n.n.n.n.n.n.n.n.n.n.n.n.n.n.n.n.n.n.n.n.n.n.n.n.n.n.n.n.n.n.n.n.n.n.n.n.n.n.n.",
"n.n.n.n.n.n.n.n.n.n.n.n.n.n.n.n.n.n.n.n.n.n.n.n.n.n.n.n.n.n.n.n.n.n.n.n.n.n.n.n.n.n.n.n.n.n.n.n.n.n.n.n.n.n.n.n.n.n.n.n.n.n.n.n.",
"n.n.n.n.n.n.n.n.n.n.n.n.n.n.n.n.n.n.n.n.n.n.n.n.n.n.n.n.n.n.n.n.n.n.n.n.n.n.n.n.n.n.n.n.n.n.n.n.n.n.n.n.n.n.n.n.n.n.n.n.n.n.n.n.",
"n.n.n.n.n.n.n.n.n.n.n.n.n.n.n.n.n.n.n.n.n.n.n.n.n.n.n.n.n.n.n.n.n.n.n.n.n.n.n.n.n.n.n.n.n.n.n.n.n.n.n.n.n.n.n.n.n.n.n.n.n.n.n.n.",
"n.n.n.n.n.n.n.n.n.n.n.n.n.n.n.n.n.n.n.n.n.n.n.n.n.n.n.n.n.n.n.n.n.n.n.n.n.n.n.n.n.n.n.n.n.n.n.n.n.n.n.n.n.n.n.n.n.n.n.n.n.n.n.n.",
"n.n.n.n.n.n.n.n.n.n.n.n.n.n.n.n.n.n.n.n.n.n.n.n.n.n.n.n.n.n.n.n.n.n.n.n.n.n.n.n.n.n.n.n.n.n.n.n.n.n.n.n.n.n.n.n.n.n.n.n.n.n.n.n.",
"n.n.n.n.n.n.n.n.n.n.n.n.n.n.n.n.n.n.n.n.n.n.n.n.n.n.n.n.n.n.n.n.n.n.n.n.n.n.n.n.n.n.n.n.n.n.n.n.n.n.n.n.n.n.n.n.n.n.n.n.n.n.n.n.",
"n.n.n.n.n.n.n.n.n.n.n.n.n.n.n.n.n.n.n.n.n.n.n.n.n.n.n.n.n.n.n.n.n.n.n.n.n.n.n.n.n.n.n.n.n.n.n.n.n.n.n.n.n.n.n.n.n.n.n.n.n.n.n.n."
};
