/* XPM */
static char *result[] = {
/* columns rows colors chars-per-pixel */
"64 64 146 2 ",
"   c #E82000",
".  c #E92500",
"X  c #EA2B00",
"o  c #EC3600",
"O  c #EE4100",
"+  c #F04C00",
"@  c #F15100",
"#  c #F15200",
"$  c #F25700",
"%  c #F35D00",
"&  c #F46200",
"*  c #F36600",
"=  c #F46800",
"-  c #F66D00",
";  c #F77300",
":  c #F27500",
">  c #F07600",
",  c #F47400",
"<  c #F77600",
"1  c #F27B00",
"2  c #F07C00",
"3  c #F67F00",
"4  c #F87800",
"5  c #F87B00",
"6  c #F87E00",
"7  c #F78200",
"8  c #F48600",
"9  c #F88100",
"0  c #F88400",
"q  c #F88700",
"w  c #F88A00",
"e  c #F29300",
"r  c #F69700",
"t  c #F89000",
"y  c #F89300",
"u  c #F89600",
"i  c #F49E00",
"p  c #F89900",
"a  c #F89C00",
"s  c #F89F00",
"d  c #F8A200",
"f  c #F8A500",
"g  c #F8A800",
"h  c #F8AE00",
"j  c #F3A909",
"k  c #F8B100",
"l  c #F8B400",
"z  c #F8B700",
"x  c #F7B800",
"c  c #F8BA00",
"v  c #EEAA12",
"b  c #EEB912",
"n  c #DFAD2D",
"m  c #DAAE36",
"M  c #DABA36",
"N  c #E4AC24",
"B  c #F8C000",
"V  c #F8C300",
"C  c #F8C600",
"Z  c #F8CC00",
"A  c #F8CF00",
"S  c #F3C709",
"D  c #F8D200",
"F  c #F8D500",
"G  c #F8D800",
"H  c #F8DA04",
"J  c #F8DC08",
"K  c #F8DE0C",
"L  c #F8C414",
"P  c #F8C618",
"I  c #EED412",
"U  c #F8D410",
"Y  c #F8DF14",
"T  c #F8E010",
"R  c #F8E418",
"E  c #F8E31C",
"W  c #F8E61C",
"Q  c #DACC36",
"!  c #DFD031",
"~  c #F8D020",
"^  c #F8D320",
"/  c #F8E820",
"(  c #F8EA24",
")  c #F3E229",
"_  c #F8EC28",
"`  c #F8EE38",
"'  c #F8F030",
"]  c #F8F438",
"[  c #F8F23C",
"{  c #F8F63C",
"}  c #BCB46C",
"|  c #BCBD6C",
" . c #B7B575",
".. c #B2B67E",
"X. c #B2BC7E",
"o. c #D0B048",
"O. c #D0B648",
"+. c #C6B25A",
"@. c #C1B363",
"#. c #BCC06C",
"$. c #BCC87C",
"%. c #D0C848",
"&. c #CBC351",
"*. c #C6C45A",
"=. c #DFDA5D",
"-. c #DAE05E",
";. c #E4E044",
":. c #EEF04A",
">. c #F8F840",
",. c #F3F44D",
"<. c #F8F848",
"1. c #F8F850",
"2. c #F8F458",
"3. c #F8F25C",
"4. c #D0D868",
"5. c #DFE471",
"6. c #F8F860",
"7. c #F8F870",
"8. c None",
"9. c #ADBC93",
"0. c #B7C481",
"q. c #B2C086",
"w. c #B2C096",
"e. c #B7C499",
"r. c #BCC89C",
"t. c #C1CC9F",
"y. c #DFE28D",
"u. c #DFE499",
"i. c #F8F880",
"p. c #F8F888",
"a. c #E4E894",
"s. c #F8F890",
"d. c #F8F898",
"f. c #C6D0A2",
"g. c #D0D8A8",
"h. c #DAE0AE",
"j. c #E4E8A4",
"k. c #F3F4A5",
"l. c #F8F8A0",
"z. c #E4E8B4",
"x. c #E9ECB7",
"c. c #EEF0BA",
"v. c #F8F8B0",
"b. c #F3F4BD",
"n. c #F8F8B8",
"m. c #F8F8C0",
/* pixels */
"8.8.8.8.8.8.8.8.8.8.8.8.8.8.8.8.8.8.8.8.8.8.8.8.8.8.8.8.8.8.8.8.8.8.8.8.8.8.8.8.8.8.8.8.8.8.8.8.8.8.8.8.8.8.8.8.8.8.8.8.8.8.8.8.",
"8.8.8.8.8.8.8.8.8.8.8.8.8.8.8.8.8.8.8.8.8.8.8.8.8.8.8.8.8.8.8.8.8.8.8.8.8.8.8.8.8.8.8.8.8.8.8.8.8.8.8.8.8.8.8.8.8.8.8.8.8.8.8.8.",
"8.8.8.8.8.8.8.8.8.8.8.8.8.8.8.8.8.8.8.8.8.8.8.8.8.8.8.8.8.8.8.8.8.8.8.8.8.8.8.8.8.8.8.8.8.8.8.8.8.8.8.8.8.8.8.8.8.8.8.8.8.8.8.8.",
"8.8.8.8.8.8.8.8.8.8.8.8.8.8.8.8.8.8.8.8.8.8.8.8.8.8.8.8.8.8.8.8.8.8.8.8.8.8.8.8.8.8.8.8.8.8.8.8.8.8.8.8.8.8.8.8.8.8.8.8.8.8.8.8.",
"8.8.8.8.8.8.8.8.8.8.8.8.8.8.8.8.8.8.8.8.8.8.8.8.8.8.8.8.8.8.8.8.8.8.8.8.8.8.8.8.8.8.8.8.8.8.8.8.8.8.8.8.8.8.8.8.8.8.8.8.8.8.8.8.",
"8.8.8.8.8.8.8.8.8.8.8.8.8.8.8.8.8.8.8.8.8.8.8.8.8.8.8.8.8.8.8.8.8.8.8.8.8.8.8.8.8.8.8.8.8.8.8.8.8.8.8.8.8.8.8.8.8.8.8.8.8.8.8.8.",
"8.8.8.8.8.8.8.8.8.8.8.8.8.8.8.8.8.8.8.8.8.8.8.8.8.8.8.8.8.8.8.8.8.8.8.8.8.8.8.8.8.8.8.8.8.8.8.8.8.8.8.8.8.8.8.8.8.8.8.8.8.8.8.8.",
"8.8.8.8.8.8.8.8.8.8.8.8.8.8.8.8.8.8.8.8.8.8.8.8.8.8.8.8.8.8.8.8.8.8.8.8.8.8.8.8.8.8.8.8.8.8.8.8.8.8.8.8.8.8.8.8.8.8.8.8.8.8.8.8.",
"8.8.8.8.8.8.8.8.8.8.8.8.8.8.8.8.8.8.8.8.8.8.8.8.8.8.8.8.8.8.8.8.8.8.8.8.8.8.8.8.8.8.8.8.8.8.8.8.8.8.8.8.8.8.8.8.8.8.8.8.8.8.8.8.",
"8.8.8.8.8.8.8.8.8.8.8.8.8.8.8.8.8.8.8.8.8.8.8.8.8.8.8.8.8.8.8.8.8.8.8.8.8.8.8.8.8.8.8.8.8.8.8.8.8.8.8.8.8.8.8.8.8.8.8.8.8.8.8.8.",
"8.8.8.8.8.8.8.8.8.8.8.8.8.8.8.8.8.8.8.8.8.8.8.8.8.8.8.8.8.8.8.8.8.8.8.8.8.8.8.8.8.8.8.8.8.8.8.8.8.8.8.8.8.8.8.8.8.8.8.8.8.8.8.8.",
"8.8.8.8.8.8.8.8.8.8.8.8.8.8.8.8.8.8.8.8.8.8.8.8.8.8.8.8.8.8.8.8.8.8.8.8.8.8.8.8.8.8.8.8.8.8.8.8.8.8.8.8.8.8.8.8.8.8.8.8.8.8.8.8.",
"8.8.8.8.8.8.8.8.8.8.8.8.8.8.8.8.8.8.8.8.8.8.8.8.8.8.t.c.c.c.c.c.c.c.c.c.c.c.t.8.8.8.8.8.8.8.8.8.8.8.8.8.8.8.8.8.8.8.8.8.8.8.8.8.",
"8.8.8.8.8.8.8.8.8.8.8.8.8.8.8.8.8.8.8.8.8.8.8.8.8.8.f.m.m.m.m.m.m.m.m.m.m.m.f.8.8.8.8.8.8.8.8.8.8.8.8.8.8.8.8.8.8.8.8.8.8.8.8.8.",
"8.8.8.8.8.8.8.8.8.8.8.8.8.8.8.8.8.8.8.8.8.8.@.v b I ) 1.1.1.1.1.1.1.p.m.m.m.b.c.c.c.e.8.8.8.8.8.8.8.8.8.8.8.8.8.8.8.8.8.8.8.8.8.",
"8.8.8.8.8.8.8.8.8.8.8.8.8.8.8.8.8.8.8.8.8.8.+.g c G R >.>.>.>.>.>.>.i.m.m.m.m.m.m.m.r.8.8.8.8.8.8.8.8.8.8.8.8.8.8.8.8.8.8.8.8.8.",
"8.8.8.8.8.8.8.8.8.8.8.8.8.8.8.8.8.8.} v v v j g c G H J J J J J ( >.<.1.1.1.1.1.1.1.k.c.e.8.8.8.n v ..8.8.8.8.8.8.8.8.8.8.8.8.8.",
"8.8.8.8.8.8.8.8.8.8.8.8.8.8.8.8.8.8.} g g g g g c G G G G G G G / >.>.>.>.>.>.>.>.>.l.m.r.8.8.8.N g ..8.8.8.8.8.8.8.8.8.8.8.8.8.",
"8.8.8.8.8.8.8.8.8.8.8.8.8.8.8.8.8.8.8...........&.G G G G G G G H J J J J J J J J J [ 1.,.:.0.8.N g ..8.8.8.8.8.8.8.8.8.8.8.8.8.",
"8.8.8.8.8.8.8.8.8.8.8.8.8.8.8.8.8.8.8.8.8.8.8.8.*.G G G G G G G G G G G G G G G G G ' >.>.>.$.8.N g ..8.8.8.8.8.8.8.8.8.8.8.8.8.",
"8.8.8.8.8.8.8.8.8.8.8.8.8.8.8.8.8.8.8.8.$.>.>.>._ G G G B g g g g g g g g g g g C G ' >.>.>.$.8.N g g g ..8.8.8.8.8.8.8.8.8.8.8.",
"8.8.8.8.8.8.8.8.8.8.8.8.8.8.8.8.8.8.8.8.$.>.>.>._ G G G B g g g g g g g g g g g C G ' >.>.>.$.8.N g g g ..8.8.8.8.8.8.8.8.8.8.8.",
"8.8.8.8.8.8.8.8.8.8.8.8.8.8.8.8.8.8.r.m.l.>.>.>._ G C g g g t 4 4 4 4 4 4 4 u g g g Z G G G G G G G G G X.8.8.8.8.8.8.8.8.8.8.8.",
"8.8.8.8.8.8.8.8.8.8.8.8.8.8.8.8.8.8.r.m.l.>.>.>._ G C g g g t 4 4 4 4 4 4 4 u g g g Z G G G G G G G G G X.8.8.8.8.8.8.8.8.8.8.8.",
"8.8.8.8.8.8.8.8.8.8.8.8.8.8.r.m.l.>.' G G G C g P >.>.>.>.>.~ g t 4 4 4 u g g g g g Z G G G G G ' >.v.m.w.8.8.8.8.8.8.8.8.8.8.8.",
"8.8.8.8.8.8.8.8.8.8.8.8.8.8.r.m.l.>.' G F D V g L ] { >.>.>.^ h u 6 6 6 u d d d f g C D G G G G ' >.v.m.w.8.8.8.8.8.8.8.8.8.8.8.",
"8.8.8.8.8.8.8.8.8.8.8.8.8.8.r.m.l.>.' G Z g g g c G R >.>.>./ G B g g g w 4 4 4 u g g g Z G G G ' >.v.m.w.8.8.8.8.8.8.8.8.8.8.8.",
"8.8.8.8.8.8.8.8.8.8.8.8.8.w.t.m.l.>.' G Z g f d z G Y ` ` ` E G x r r r 7 4 4 4 y d g g Z G G G ' >.v.m.w.8.8.8.8.8.8.8.8.8.8.8.",
"8.8.8.8.8.8.8.8.8.8.8.8.w.m.m.m.l.>.' G Z g u 4 a G C g g g B G 2       $ 4 4 4 4 4 a g Z G G G ' >.v.m.w.8.8.8.8.8.8.8.8.8.8.8.",
"8.8.8.8.8.8.8.8.8.8.8.8.w.m.m.m.l.>.' G Z g u 4 u Z B g f d z Z >       # - < 6 5 4 a g Z G J J ' >.v.m.w.8.8.8.8.8.8.8.8.8.8.8.",
"8.8.8.8.8.8.8.8.8.8.8.8.w.m.m.m.l.>.' G Z g u 4 4 4 w g t 4 4 4 +           : g w 4 a g Z G ' >.>.>.v.m.w.8.8.8.8.8.8.8.8.8.8.8.",
"8.8.8.8.8.8.8.8.8.8.8.8.w.m.n.v.d.>.' G Z g u 4 4 4 q d t 6 5 4 @ X .       : g w 4 a g Z G ' >.1.1.v.m.w.8.8.8.8.8.8.8.8.8.8.8.",
"8.8.8.8.8.8.8.8.8.8.8.8.w.m.l.>.>.>.' G Z g u 4 4 4 4 4 t g t 4 4 4 +       : g w 4 a g Z G ' >.l.m.m.m.w.8.8.8.8.8.8.8.8.8.8.8.",
"8.8.8.8.8.8.8.8.8.8.8.8.w.m.l.>.{ ' ( G Z g u 4 4 4 ; & 3 a t 0 6 4 +       1 l t 4 a g Z G ' >.l.m.m.m.w.8.8.8.8.8.8.8.8.8.8.8.",
"8.8.8.8.8.8.8.8.8.8.8.8.w.m.l.>.' G G G Z g u 4 4 4 $   + 4 t g t 4 +       e G a 4 a g Z G ' >.l.m.m.m.w.8.8.8.8.8.8.8.8.8.8.8.",
"8.8.8.8.8.8.8.8.8.8.8.8.w.m.l.>.' G G G Z g p 0 9 4 $   O & , 8 , & O   X o i G d 0 s g Z G ' >.l.m.x.z.9.8.8.8.8.8.8.8.8.8.8.8.",
"8.8.8.8.8.8.8.8.8.8.8.8.w.m.l.>.' G G G Z g g g u 4 $                   $ 4 l G c g g g Z G ' >.l.m.w.8.8.8.8.8.8.8.8.8.8.8.8.8.",
"8.8.8.8.8.8.8.8.8.8.8.8.w.m.l.>.' G G G A l k g p 0 * o X           X o = 0 c G c g k l A G ' >.l.m.w.8.8.8.8.8.8.8.8.8.8.8.8.8.",
"8.8.8.8.8.8.8.8.8.8.8.8.w.m.l.>.' G G G G G C g g g u 4 +           + 4 u g C G c g Z G G G ' >.l.m.w.8.8.8.8.8.8.8.8.8.8.8.8.8.",
"8.8.8.8.8.8.8.8.8.8.8.8.9.h.j.7.2.R R R T G C g g g u 4 % O O O O O * w a g C G C c A G G G W _ y.h.9.8.8.8.8.8.8.8.8.8.8.8.8.8.",
"8.8.8.8.8.8.8.8.8.8.8.8.8.8.r.m.l.>.>.>.' G C g g g u 4 4 4 4 4 4 4 t g g g C G G G G G G G G G #.8.8.8.8.8.8.8.8.8.8.8.8.8.8.8.",
"8.8.8.8.8.8.8.8.8.8.8.8.8.8.w.h.a.>.>.>.' G Z c l g a w w w w w w w p g l c U R R R ! Q S C C C | 8.8.8.8.8.8.8.8.8.8.8.8.8.8.8.",
"8.8.8.8.8.8.8.8.8.8.8.8.8.8.8.8.$.>.>.>.' G G G C g g g g g g g g g g g C G _ >.>.>.$.8.N g g g } 8.8.8.8.8.8.8.8.8.8.8.8.8.8.8.",
"8.8.8.8.8.8.8.8.8.8.8.8.8.8.8.8.q.-.-.-.;.G G G Z c c c c c c c c c c c Z G _ >.>.>.$.8.N g n m  .8.8.8.8.8.8.8.8.8.8.8.8.8.8.8.",
"8.8.8.8.8.8.8.8.8.8.8.8.8.8.8.8.8.8.8.8.#.G G G G G G G G G G G G G G G G G _ >.>.>.$.8.N g } 8.8.8.8.8.8.8.8.8.8.8.8.8.8.8.8.8.",
"8.8.8.8.8.8.8.8.8.8.8.8.8.8...o.o.o.o.o.M G G G G G G G T / / / / / / / / / 3.i.5.4.q.8.N g } 8.8.8.8.8.8.8.8.8.8.8.8.8.8.8.8.8.",
"8.8.8.8.8.8.8.8.8.8.8.8.8.8.} g g g g g l G G G G G G G / >.>.>.>.>.>.>.>.>.s.m.f.8.8.8.N g } 8.8.8.8.8.8.8.8.8.8.8.8.8.8.8.8.8.",
"8.8.8.8.8.8.8.8.8.8.8.8.8.8...o.o.o.m g l G K / / / / / ' >.6.i.i.i.i.i.i.i.u.g.e.8.8.8.+.o...8.8.8.8.8.8.8.8.8.8.8.8.8.8.8.8.8.",
"8.8.8.8.8.8.8.8.8.8.8.8.8.8.8.8.8.8.} g l G R >.>.>.>.>.>.>.i.m.m.m.m.m.m.m.f.8.8.8.8.8.8.8.8.8.8.8.8.8.8.8.8.8.8.8.8.8.8.8.8.8.",
"8.8.8.8.8.8.8.8.8.8.8.8.8.8.8.8.8.8...o.O.%.=.i.i.i.i.i.i.i.l.m.m.m.z.g.g.g.e.8.8.8.8.8.8.8.8.8.8.8.8.8.8.8.8.8.8.8.8.8.8.8.8.8.",
"8.8.8.8.8.8.8.8.8.8.8.8.8.8.8.8.8.8.8.8.8.8.f.m.m.m.m.m.m.m.m.m.m.m.g.8.8.8.8.8.8.8.8.8.8.8.8.8.8.8.8.8.8.8.8.8.8.8.8.8.8.8.8.8.",
"8.8.8.8.8.8.8.8.8.8.8.8.8.8.8.8.8.8.8.8.8.8.e.g.g.g.g.g.g.g.g.g.g.g.r.8.8.8.8.8.8.8.8.8.8.8.8.8.8.8.8.8.8.8.8.8.8.8.8.8.8.8.8.8.",
"8.8.8.8.8.8.8.8.8.8.8.8.8.8.8.8.8.8.8.8.8.8.8.8.8.8.8.8.8.8.8.8.8.8.8.8.8.8.8.8.8.8.8.8.8.8.8.8.8.8.8.8.8.8.8.8.8.8.8.8.8.8.8.8.",
"8.8.8.8.8.8.8.8.8.8.8.8.8.8.8.8.8.8.8.8.8.8.8.8.8.8.8.8.8.8.8.8.8.8.8.8.8.8.8.8.8.8.8.8.8.8.8.8.8.8.8.8.8.8.8.8.8.8.8.8.8.8.8.8.",
"8.8.8.8.8.8.8.8.8.8.8.8.8.8.8.8.8.8.8.8.8.8.8.8.8.8.8.8.8.8.8.8.8.8.8.8.8.8.8.8.8.8.8.8.8.8.8.8.8.8.8.8.8.8.8.8.8.8.8.8.8.8.8.8.",
"8.8.8.8.8.8.8.8.8.8.8.8.8.8.8.8.8.8.8.8.8.8.8.8.8.8.8.8.8.8.8.8.8.8.8.8.8.8.8.8.8.8.8.8.8.8.8.8.8.8.8.8.8.8.8.8.8.8.8.8.8.8.8.8.",
"8.8.8.8.8.8.8.8.8.8.8.8.8.8.8.8.8.8.8.8.8.8.8.8.8.8.8.8.8.8.8.8.8.8.8.8.8.8.8.8.8.8.8.8.8.8.8.8.8.8.8.8.8.8.8.8.8.8.8.8.8.8.8.8.",
"8.8.8.8.8.8.8.8.8.8.8.8.8.8.8.8.8.8.8.8.8.8.8.8.8.8.8.8.8.8.8.8.8.8.8.8.8.8.8.8.8.8.8.8.8.8.8.8.8.8.8.8.8.8.8.8.8.8.8.8.8.8.8.8.",
"8.8.8.8.8.8.8.8.8.8.8.8.8.8.8.8.8.8.8.8.8.8.8.8.8.8.8.8.8.8.8.8.8.8.8.8.8.8.8.8.8.8.8.8.8.8.8.8.8.8.8.8.8.8.8.8.8.8.8.8.8.8.8.8.",
"8.8.8.8.8.8.8.8.8.8.8.8.8.8.8.8.8.8.8.8.8.8.8.8.8.8.8.8.8.8.8.8.8.8.8.8.8.8.8.8.8.8.8.8.8.8.8.8.8.8.8.8.8.8.8.8.8.8.8.8.8.8.8.8.",
"8.8.8.8.8.8.8.8.8.8.8.8.8.8.8.8.8.8.8.8.8.8.8.8.8.8.8.8.8.8.8.8.8.8.8.8.8.8.8.8.8.8.8.8.8.8.8.8.8.8.8.8.8.8.8.8.8.8.8.8.8.8.8.8.",
"8.8.8.8.8.8.8.8.8.8.8.8.8.8.8.8.8.8.8.8.8.8.8.8.8.8.8.8.8.8.8.8.8.8.8.8.8.8.8.8.8.8.8.8.8.8.8.8.8.8.8.8.8.8.8.8.8.8.8.8.8.8.8.8.",
"8.8.8.8.8.8.8.8.8.8.8.8.8.8.8.8.8.8.8.8.8.8.8.8.8.8.8.8.8.8.8.8.8.8.8.8.8.8.8.8.8.8.8.8.8.8.8.8.8.8.8.8.8.8.8.8.8.8.8.8.8.8.8.8.",
"8.8.8.8.8.8.8.8.8.8.8.8.8.8.8.8.8.8.8.8.8.8.8.8.8.8.8.8.8.8.8.8.8.8.8.8.8.8.8.8.8.8.8.8.8.8.8.8.8.8.8.8.8.8.8.8.8.8.8.8.8.8.8.8."
};
