/* XPM */
static char *result[] = {
/* columns rows colors chars-per-pixel */
"64 64 171 2 ",
"   c black",
".  c #0D0405",
"X  c #160407",
"o  c #190404",
"O  c #1C090E",
"+  c #1F0E14",
"@  c #240606",
"#  c #2C000A",
"$  c #2D080E",
"%  c #2A0707",
"&  c #310808",
"*  c #3D0A0A",
"=  c #370B13",
"-  c #201219",
";  c #231017",
":  c #37121C",
">  c #250C13",
",  c #560E0E",
"<  c #440C14",
"1  c #4A111C",
"2  c #5A121D",
"3  c #47060E",
"4  c #6D0E13",
"5  c #750D17",
"6  c #631010",
"7  c #6D1315",
"8  c #73171D",
"9  c #4E1724",
"0  c #531B2B",
"q  c #7B1520",
"w  c #6E1F31",
"e  c #750821",
"r  c #5C2A3E",
"t  c #572233",
"y  c #5E374D",
"u  c #7D2941",
"i  c #603C52",
"p  c #7B3852",
"a  c #6B3248",
"s  c #87001E",
"d  c #8A091D",
"f  c #96061F",
"g  c #8E0A29",
"h  c #960620",
"j  c #9A082F",
"k  c #851B2A",
"l  c #88182B",
"z  c #8C1824",
"x  c #9C0831",
"c  c #9E1C31",
"v  c #9B1238",
"b  c #B50029",
"n  c #B5082D",
"m  c #AB063A",
"M  c #BE0234",
"N  c #A1153C",
"B  c #AA0226",
"V  c #942335",
"C  c #8B2432",
"Z  c #B52039",
"A  c #C7063F",
"S  c #800C42",
"D  c #8B2D47",
"F  c #A02C41",
"G  c #BE2C48",
"H  c #A4354D",
"J  c #B5334E",
"K  c #A73756",
"L  c #A33F5A",
"P  c #BE3B52",
"I  c #BF3B5A",
"U  c #CA0043",
"Y  c #D2004D",
"T  c #CF0B52",
"R  c #D60052",
"E  c #DA0557",
"W  c #D11D55",
"Q  c #E1065E",
"!  c #C42F4F",
"~  c #CE2C57",
"^  c #C63D5E",
"/  c #CE395D",
"(  c #E40F63",
")  c #EF0F71",
"_  c #F41176",
"`  c #F8157C",
"'  c #E81067",
"]  c #D43760",
"[  c #D43E64",
"{  c #E83077",
"}  c #9D445F",
"|  c #80516F",
" . c #854E6F",
".. c #B74869",
"X. c #B84B71",
"o. c #B8537A",
"O. c #AA4264",
"+. c #CF4267",
"@. c #C54765",
"#. c #D9446C",
"$. c #C7576A",
"%. c #C14F77",
"&. c #DE4973",
"*. c #CE5179",
"=. c #D05177",
"-. c #DA557E",
";. c #E14E79",
":. c #E4537F",
">. c #FF1884",
",. c #FD1681",
"<. c #FF298F",
"1. c #FF268B",
"2. c #F03682",
"3. c #FF3494",
"4. c #BF79A7",
"5. c #D95A82",
"6. c #E65A85",
"7. c #E65E8C",
"8. c #EA5D8C",
"9. c #E45380",
"0. c #FF439B",
"q. c #DA618B",
"w. c #D86390",
"e. c #DF7A9C",
"r. c #EB6493",
"t. c #EA6A9B",
"y. c #EA6798",
"u. c #F16798",
"i. c #F36C9E",
"p. c #FF51A3",
"a. c #DF7DB7",
"s. c #F46FA2",
"d. c #E372A1",
"f. c #EE75A8",
"g. c #EC70A1",
"h. c #F771A5",
"j. c #F877AC",
"k. c #F97AAE",
"l. c #FF6EBC",
"z. c #F77EB1",
"x. c #FA7DB1",
"c. c #FF7FC7",
"v. c #CE81B1",
"b. c #EC81B5",
"n. c #EB8ABB",
"m. c #F480B5",
"M. c #FB81B5",
"N. c #F682BC",
"B. c #FA83BA",
"V. c #FC89BC",
"C. c #F58BBF",
"Z. c #E3A9B5",
"A. c #FA8AC1",
"S. c #FC8FC9",
"D. c #F78CC3",
"F. c #EC90C5",
"G. c #FF92C6",
"H. c #F692C9",
"J. c #FD94CB",
"K. c #FF98CF",
"L. c #EF98D0",
"P. c #FD94D2",
"I. c #FE9BD5",
"U. c #FF9DD9",
"Y. c #FFA2DE",
"T. c #FFC2E0",
"R. c #FFC3EA",
"E. c #F6DFE6",
"W. c #FFD9F3",
"Q. c #FFFBFF",
"!. c None",
/* pixels */
"!.!.!.!.!.!.!.!.!.!.!.!.!.!.!.!.!.!.!.!.!.!.!.!.!.!.!.!.!.!.!.!.!.!.!.!.!.!.!.!.!.!.!.!.!.!.!.!.!.!.!.!.!.!.!.!.!.!.!.!.!.!.!.!.",
"!.!.!.!.!.!.!.!.!.!.!.!.!.!.!.!.!.!.!.!.!.!.!.!.!.!.!.!.!.!.!.!.!.!.!.!.!.!.!.!.!.!.!.!.!.!.!.!.!.!.!.!.!.!.!.!.!.!.!.!.!.!.!.!.",
"!.!.!.!.!.!.!.!.!.!.!.!.!.!.!.!.!.!.!.!.!.!.!.!.!.!.!.!.!.!.!.!.!.!.!.!.!.!.!.!.!.!.!.!.!.!.!.!.!.!.!.!.!.!.!.!.!.!.!.!.!.!.!.!.",
"!.!.!.!.!.!.!.!.!.!.!.!.!.!.!.!.!.!.!.!.!.!.!.!.!.!.!.!.!.!.!.!.!.!.!.!.!.!.!.!.!.!.!.!.!.!.!.!.!.!.!.!.!.!.!.!.!.!.!.!.!.!.!.!.",
"!.!.!.!.!.!.!.!.!.!.!.!.!.!.!.!.!.!.!.!.!.!.!.!.!.!.!.!.!.!.!.!.!.!.!.!.!.!.!.!.!.!.!.!.!.!.!.!.!.!.!.!.!.!.!.!.!.!.!.!.!.!.!.!.",
"!.!.!.!.!.!.!.!.!.!.!.!.!.!.!.!.!.!.!.!.!.!.!.!.!.!.!.!.!.!.!.!.!.!.!.!.!.!.!.!.!.!.!.!.!.!.!.!.!.!.!.!.!.!.!.!.!.!.!.!.!.!.!.!.",
"!.!.!.!.!.!.!.!.!.!.!.!.!.!.!.!.!.!.!.!.!.!.!.!.!.!.!.!.!.!.!.!.!.!.!.!.!.!.!.!.!.!.!.!.!.!.!.!.!.!.!.!.!.!.!.!.!.!.!.!.!.!.!.!.",
"!.!.!.!.!.!.!.!.!.!.!.!.!.!.!.!.!.!.!.!.!.!.!.!.!.!.!.!.!.!.!.!.!.!.!.!.!.!.!.!.!.!.!.!.!.!.!.!.!.!.!.!.!.!.!.!.!.!.!.!.!.!.!.!.",
"!.!.!.!.!.!.!.!.!.!.!.!.!.!.!.!.!.!.!.!.!.!.!.!.!.!.!.!.!.!.!.!.!.!.!.!.!.!.!.!.!.!.!.!.!.!.!.!.!.!.!.!.!.!.!.!.!.!.!.!.!.!.!.!.",
"!.!.!.!.!.!.!.!.!.!.!.!.!.!.!.!.!.!.!.!.!.!.!.!.!.!.!.!.!.!.!.!.!.!.!.!.!.!.!.!.!.!.!.!.!.!.!.!.!.!.!.!.!.!.!.!.!.!.!.!.!.!.!.!.",
"!.!.!.!.!.!.!.!.!.!.!.!.!.!.!.!.!.!.!.!.!.!.!.!.!.!.!.!.!.!.!.!.!.!.!.!.!.!.!.!.!.!.!.!.!.!.!.!.!.!.!.!.!.!.!.!.!.!.!.!.!.!.!.!.",
"!.!.!.!.!.!.!.!.!.!.!.!.!.!.!.!.!.!.!.!.!.                                  !.!.!.!.!.!.!.!.!.!.!.!.!.!.!.!.!.!.!.!.!.!.!.!.!.!.",
"!.!.!.!.!.!.!.!.!.!.!.!.!.!.!.!.!.!.!.!.!.                                  !.!.!.!.!.!.!.!.!.!.!.!.!.!.!.!.!.!.!.!.!.!.!.!.!.!.",
"!.!.!.!.!.!.!.!.!.!.!.!.!.!.!.!.!.!.!.!.!.< < 9 0 t r r i i y r r 0 0 1 < = !.!.!.!.!.!.!.!.!.!.!.!.!.!.!.!.!.!.!.!.!.!.!.!.!.!.",
"!.!.!.!.!.!.!.!.!.!.!.!.!.!.!.!.        X Z Z / &.9.h.h.U.Y.D.h.h.&.&.! Z c           !.!.!.!.!.!.!.!.!.!.!.!.!.!.!.!.!.!.!.!.!.",
"!.!.!.!.!.!.!.!.!.!.!.!.!.!.!.!.        X Z Z / &.9.h.h.I.Y.G.h.h.;.&.! Z N           !.!.!.!.!.!.!.!.!.!.!.!.!.!.!.!.!.!.!.!.!.",
"!.!.!.!.!.!.!.!.!.!.!.!.!.!.        p h.j.Y.Y.Y.Y.Y.Y.Y.Y.Y.Y.Y.Y.Y.Y.K.G.V.&.&.:         !.!.!.!.!.!.!.!.!.!.!.!.!.!.!.!.!.!.!.",
"!.!.!.!.!.!.!.!.!.!.!.!.!.!.        p h.j.U.Y.Y.Y.Y.Y.Y.Y.Y.Y.Y.Y.Y.Y.K.G.A.&.&.:         !.!.!.!.!.!.!.!.!.!.!.!.!.!.!.!.!.!.!.",
"!.!.!.!.!.!.!.!.!.!.!.!.!.!.    u D %.h.s.=.*.b.Y.I.M.V.-.=.d.Y.Y.Y.Y.U.I.P.m.b.O.D 0     !.!.!.!.!.!.!.!.!.!.!.!.!.!.!.!.!.!.!.",
"!.!.!.!.!.!.!.!.!.!.!.!.!.!.    @.&.8.h.u.Z Z d.Y.K.h.h.G Z =.Y.Y.Y.Y.Y.Y.Y.Y.Y.r.&.D     !.!.!.!.!.!.!.!.!.!.!.!.!.!.!.!.!.!.!.",
"!.!.!.!.!.!.!.!.!.!.!.!.!.. o o *.7.7.r.-.$.$.n.Y.H.7.6.@.$.v.Y.Y.Y.Y.Y.Y.Y.Y.Y.g.7.} $ & !.!.!.!.!.!.!.!.!.!.!.!.!.!.!.!.!.!.!.",
"!.!.!.!.!.!.!.!.!.!.!.    @ 6 6 F.Y.q.Z P Q.Q.R.Y.b.Z Z E.Q.E.Y.Y.Y.Y.Y.Y.Y.Y.Y.Y.Y.d.Z Z X     !.!.!.!.!.!.!.!.!.!.!.!.!.!.!.!.",
"!.!.!.!.!.!.!.!.!.!.!.    @ 6 6 F.Y.q.Z P Q.Q.R.Y.n.Z Z E.Q.W.Y.Y.Y.Y.Y.Y.Y.Y.Y.Y.Y.d.Z Z X     !.!.!.!.!.!.!.!.!.!.!.!.!.!.!.!.",
"!.!.!.!.!.!.!.!.!.!.!.    9 +.+.K.Y. .X > 6.6.C.Y.4.o o H ! -.Y.Y.Y.Y.Y.Y.Y.Y.Y.Y.U.D.u.y.>     !.!.!.!.!.!.!.!.!.!.!.!.!.!.!.!.",
"!.!.!.!.!.!.!.!.!.!.!.    0 &.&.I.Y.|   O &.&.z.Y.4.    N Z =.Y.Y.Y.Y.Y.Y.Y.Y.Y.Y.Y.G.h.h.+     !.!.!.!.!.!.!.!.!.!.!.!.!.!.!.!.",
"!.!.!.!.!.!.!.!.!.        t 8.8.I.Y.|   O &.&.z.Y.4.    8 z ..Y.Y.Y.Y.Y.Y.Y.Y.Y.Y.Y.P.M.M.w 2 =   !.!.!.!.!.!.!.!.!.!.!.!.!.!.!.",
"!.!.!.!.!.!.!.!.!.        r h.h.I.U.|   O &.&.z.Y.4.    , 6 } Y.Y.Y.Y.Y.Y.Y.Y.Y.Y.Y.I.G.G.G Z 2     !.!.!.!.!.!.!.!.!.!.!.!.!.!.",
"!.!.!.!.!.!.!.!.!.    O O a j.k.S.P. .  O ;.-.N.Y.4.    2 7 L P.P.P.P.U.Y.Y.Y.Y.Y.Y.I.J.J.^ P w ; ; !.!.!.!.!.!.!.!.!.!.!.!.!.!.",
"!.!.!.!.!.!.          K &.g.Y.Y.<.>.S   + h.h.H.Y.4.    c G W >.>.,.,.l.Y.Y.Y.Y.Y.Y.Y.Y.Y.Y.Y.A.h.w.    !.!.!.!.!.!.!.!.!.!.!.!.",
"!.!.!.!.!.!.          K &.t.Y.Y.<.>.u   + h.h.H.Y.4.    c Z W >.>.,.,.c.Y.Y.Y.Y.Y.Y.Y.Y.Y.Y.Y.A.h.w.    !.!.!.!.!.!.!.!.!.!.!.!.",
"!.!.!.!.!.!.    . K K d.D.P.Y.Y.c.c.a.4.a.P.P.U.Y.L.4.4.a.z.A.c.c.c.c.U.Y.Y.Y.Y.Y.Y.Y.Y.Y.Y.Y.I.P.n.l l <     !.!.!.!.!.!.!.!.!.",
"!.!.!.!.!.!.    O &.&.D.Y.Y.Y.Y.Y.Y.Y.Y.U.Y.Y.Y.Y.Y.Y.Y.U.Y.U.Y.Y.Y.Y.Y.Y.Y.Y.Y.Y.Y.Y.Y.Y.Y.Y.Y.Y.H.Z Z <     !.!.!.!.!.!.!.!.!.",
"!.!.!.!.!.!.    O r.r.H.Y.Y.I.I.Y.Y.Y.Y.I.d.d.H.Y.Y.Y.Y.Y.Y.Y.Y.Y.Y.Y.Y.Y.Y.Y.Y.I.I.Y.Y.Y.Y.Y.Y.I.H.! ! 1     !.!.!.!.!.!.!.!.!.",
"!.!.!.!.!.!.    - G.G.Y.Y.I.G.G.U.Y.Y.Y.H.Z Z d.Y.Y.Y.Y.Y.Y.Y.Y.Y.Y.Y.Y.Y.Y.Y.Y.J.G.K.Y.Y.Y.Y.I.G.V.&.&.0     !.!.!.!.!.!.!.!.!.",
"!.!.!.!.!.!.    - G.G.I.Y.I.S.G.Y.Y.Y.Y.H.Z Z d.Y.Y.Y.Y.Y.Y.U.Y.Y.Y.Y.U.Y.Y.Y.Y.J.G.I.Y.Y.Y.Y.K.G.V.&.&.0     !.!.!.!.!.!.!.!.!.",
"!.!.!.!.!.!.    - G.G.I.Y.S.h.h.I.Y.f.&.+.6 6 h b n Z Z #.&.6.s.h.S.S.S.G.G.G.S.G.G.G.G.G.G.G.M.h.u.&.&.0     !.!.!.!.!.!.!.!.!.",
"!.!.!.!.!.!.    - G.G.Y.Y.S.h.h.I.Y.f.&.[ , 6 h b n Z Z #.;.6.i.h.G.G.G.G.G.G.G.G.G.G.G.G.G.G.M.h.i.&.&.0     !.!.!.!.!.!.!.!.!.",
"!.!.!.!.!.!.    + r.r.k.B.h.6.6.y.t...V C m m T ( { Z.Z.2.{ { ~ ~ r.r.m.G.G.G.G.x.x.h.r.r.k.z.i.6.:.! ! 1     !.!.!.!.!.!.!.!.!.",
"!.!.!.!.!.!.    O &.&.r.h.r.&.&.;.;.F 6 4 R R ) >.p.Q.Q.3.>.( b b &.&.h.G.G.G.G.k.h.r.&.&.i.h.7.&.#.Z Z <     !.!.!.!.!.!.!.!.!.",
"!.!.!.!.!.!.    > K K X.o.X.[ [ ! ^ V 5 z Q Q _ >.0.T.T.1.>.' U A / ] r.z.M.V.V.s.u.-.K K o.o...K H l l $     !.!.!.!.!.!.!.!.!.",
"!.!.!.!.!.!.!.!.!.        < Z Z 7 6 d b A >.>.>.>.>.>.>.>.>.>.>.>.b b ~ &.:.h.h.:.&.D                   !.!.!.!.!.!.!.!.!.!.!.!.",
"!.!.!.!.!.!.!.!.!.        < Z Z 7 6 d b M ` >.>.>.>.>.>.>.>.>.>.>.b b ~ &.&.h.h.:.&.D                   !.!.!.!.!.!.!.!.!.!.!.!.",
"!.!.!.!.!.!.!.!.!.!.!.!.!.!.X X , 6 j Y Y E E _ >.>.>.>.>.>.>.>.>.` ` v 8 k ;.:.C 8 <     !.!.!.!.!.!.!.!.!.!.!.!.!.!.!.!.!.!.!.",
"!.!.!.!.!.!.!.!.!.!.!.!.!.!.    , 6 x R R R R ) >.>.>.>.>.>.>.>.>.>.>.v 6 8 &.&.k 6 *     !.!.!.!.!.!.!.!.!.!.!.!.!.!.!.!.!.!.!.",
"!.!.!.!.!.!.!.!.!.!.!.!.!.!.    * * e m m U U E ( ' ) ) ,.>.>.>.>.) ) v 6 7 J H 2 * &     !.!.!.!.!.!.!.!.!.!.!.!.!.!.!.!.!.!.!.",
"!.!.!.!.!.!.!.!.!.!.!.!.!.!.!.!.    & 6 4 b b b b M R R ` >.>.>.>.R R g 6 6 6 6 X     !.!.!.!.!.!.!.!.!.!.!.!.!.!.!.!.!.!.!.!.!.",
"!.!.!.!.!.!.!.!.!.!.!.!.!.!.!.!.    & 6 7 b b b b M R R ` >.>.>.>.R R g 6 6 6 6 o     !.!.!.!.!.!.!.!.!.!.!.!.!.!.!.!.!.!.!.!.!.",
"!.!.!.!.!.!.!.!.!.!.!.!.!.!.!.!.!.!.          * 6 6 6 6 6 6 6 6 6 6 6 h b b b b %     !.!.!.!.!.!.!.!.!.!.!.!.!.!.!.!.!.!.!.!.!.",
"!.!.!.!.!.!.!.!.!.!.!.!.!.!.!.!.!.!.          * 6 6 6 6 6 6 6 6 6 6 6 h b b b b #     !.!.!.!.!.!.!.!.!.!.!.!.!.!.!.!.!.!.!.!.!.",
"!.!.!.!.!.!.!.!.!.!.!.!.!.!.!.!.!.!.!.!.!.!.!.@ @ 3 h h h h h h h h h B b b b b #     !.!.!.!.!.!.!.!.!.!.!.!.!.!.!.!.!.!.!.!.!.",
"!.!.!.!.!.!.!.!.!.!.!.!.!.!.!.!.!.!.!.!.!.!.!.    # b b b b b b b b b b b b b b #     !.!.!.!.!.!.!.!.!.!.!.!.!.!.!.!.!.!.!.!.!.",
"!.!.!.!.!.!.!.!.!.!.!.!.!.!.!.!.!.!.!.!.!.!.!.    # s s s s s s s s s s s s s s #   !.!.!.!.!.!.!.!.!.!.!.!.!.!.!.!.!.!.!.!.!.!.",
"!.!.!.!.!.!.!.!.!.!.!.!.!.!.!.!.!.!.!.!.!.!.!.!.!.!.                            !.!.!.!.!.!.!.!.!.!.!.!.!.!.!.!.!.!.!.!.!.!.!.!.",
"!.!.!.!.!.!.!.!.!.!.!.!.!.!.!.!.!.!.!.!.!.!.!.!.!.!.                            !.!.!.!.!.!.!.!.!.!.!.!.!.!.!.!.!.!.!.!.!.!.!.!.",
"!.!.!.!.!.!.!.!.!.!.!.!.!.!.!.!.!.!.!.!.!.!.!.!.!.!.!.!.!.!.!.!.!.!.!.!.!.!.!.!.!.!.!.!.!.!.!.!.!.!.!.!.!.!.!.!.!.!.!.!.!.!.!.!.",
"!.!.!.!.!.!.!.!.!.!.!.!.!.!.!.!.!.!.!.!.!.!.!.!.!.!.!.!.!.!.!.!.!.!.!.!.!.!.!.!.!.!.!.!.!.!.!.!.!.!.!.!.!.!.!.!.!.!.!.!.!.!.!.!.",
"!.!.!.!.!.!.!.!.!.!.!.!.!.!.!.!.!.!.!.!.!.!.!.!.!.!.!.!.!.!.!.!.!.!.!.!.!.!.!.!.!.!.!.!.!.!.!.!.!.!.!.!.!.!.!.!.!.!.!.!.!.!.!.!.",
"!.!.!.!.!.!.!.!.!.!.!.!.!.!.!.!.!.!.!.!.!.!.!.!.!.!.!.!.!.!.!.!.!.!.!.!.!.!.!.!.!.!.!.!.!.!.!.!.!.!.!.!.!.!.!.!.!.!.!.!.!.!.!.!.",
"!.!.!.!.!.!.!.!.!.!.!.!.!.!.!.!.!.!.!.!.!.!.!.!.!.!.!.!.!.!.!.!.!.!.!.!.!.!.!.!.!.!.!.!.!.!.!.!.!.!.!.!.!.!.!.!.!.!.!.!.!.!.!.!.",
"!.!.!.!.!.!.!.!.!.!.!.!.!.!.!.!.!.!.!.!.!.!.!.!.!.!.!.!.!.!.!.!.!.!.!.!.!.!.!.!.!.!.!.!.!.!.!.!.!.!.!.!.!.!.!.!.!.!.!.!.!.!.!.!.",
"!.!.!.!.!.!.!.!.!.!.!.!.!.!.!.!.!.!.!.!.!.!.!.!.!.!.!.!.!.!.!.!.!.!.!.!.!.!.!.!.!.!.!.!.!.!.!.!.!.!.!.!.!.!.!.!.!.!.!.!.!.!.!.!.",
"!.!.!.!.!.!.!.!.!.!.!.!.!.!.!.!.!.!.!.!.!.!.!.!.!.!.!.!.!.!.!.!.!.!.!.!.!.!.!.!.!.!.!.!.!.!.!.!.!.!.!.!.!.!.!.!.!.!.!.!.!.!.!.!.",
"!.!.!.!.!.!.!.!.!.!.!.!.!.!.!.!.!.!.!.!.!.!.!.!.!.!.!.!.!.!.!.!.!.!.!.!.!.!.!.!.!.!.!.!.!.!.!.!.!.!.!.!.!.!.!.!.!.!.!.!.!.!.!.!.",
"!.!.!.!.!.!.!.!.!.!.!.!.!.!.!.!.!.!.!.!.!.!.!.!.!.!.!.!.!.!.!.!.!.!.!.!.!.!.!.!.!.!.!.!.!.!.!.!.!.!.!.!.!.!.!.!.!.!.!.!.!.!.!.!."
};
