/* XPM */
static char *result[] = {
/* columns rows colors chars-per-pixel */
"64 64 170 2 ",
"   c black",
".  c #0C0203",
"X  c #140406",
"o  c #190404",
"O  c #250606",
"+  c #2D080E",
"@  c #27070B",
"#  c #3E0A0A",
"$  c #32050E",
"%  c #2A0010",
"&  c #370716",
"*  c #37121C",
"=  c #3D1C29",
"-  c #3A1723",
";  c #44000F",
":  c #4A0C0C",
">  c #560E0E",
",  c #440C15",
"<  c #480014",
"1  c #5A0014",
"2  c #50001E",
"3  c #5A101C",
"4  c #53131F",
"5  c #7D021C",
"6  c #631010",
"7  c #77141A",
"8  c #460722",
"9  c #711423",
"0  c #6F2439",
"q  c #6D2235",
"w  c #742C43",
"e  c #7B3852",
"r  c #773B51",
"t  c #87001F",
"y  c #9E0024",
"u  c #94072D",
"i  c #8C1824",
"p  c #841B2A",
"a  c #88182B",
"s  c #961A29",
"d  c #9C0831",
"f  c #A9012A",
"g  c #B50029",
"h  c #B9002E",
"j  c #A01C2F",
"k  c #AC0732",
"l  c #BD0E39",
"z  c #BD0735",
"x  c #AA1E34",
"c  c #B91638",
"v  c #872638",
"b  c #912535",
"n  c #B52039",
"m  c #C4013B",
"M  c #C10E3E",
"N  c #BB0048",
"B  c #8A324C",
"V  c #992A44",
"C  c #BA2540",
"Z  c #BE2A46",
"A  c #BF2A48",
"S  c #B82348",
"D  c #AF334E",
"F  c #B0344E",
"G  c #BE304E",
"H  c #A63655",
"J  c #A43F5C",
"K  c #B83D5B",
"L  c #BF1263",
"P  c #B13F60",
"I  c #C8024A",
"U  c #C70542",
"Y  c #D2054C",
"T  c #C71646",
"R  c #D60052",
"E  c #D70956",
"W  c #DB0358",
"Q  c #C32E4E",
"!  c #C9244E",
"~  c #CA2550",
"^  c #C63454",
"/  c #C93456",
"(  c #CD395D",
")  c #EA0C6B",
"_  c #EC1776",
"`  c #F61479",
"'  c #FA157D",
"]  c #F5197A",
"[  c #F11775",
"{  c #DB2E66",
"}  c #CE3E62",
"|  c #804963",
" . c #9A4667",
".. c #AE4366",
"X. c #B64163",
"o. c #A25272",
"O. c #B7537A",
"+. c #9B686D",
"@. c #BA6775",
"#. c #C54162",
"$. c #C04D6D",
"%. c #D9446C",
"&. c #D14B6E",
"*. c #D5436A",
"=. c #DE4973",
"-. c #DD4F79",
";. c #D15077",
":. c #DE527C",
">. c #E14E79",
",. c #E4537F",
"<. c #FF1884",
"1. c #FC3990",
"2. c #BF5790",
"3. c #BF79A7",
"4. c #D35980",
"5. c #DC5B83",
"6. c #E35481",
"7. c #E75885",
"8. c #E75D8A",
"9. c #EA5B8B",
"0. c #F95A9D",
"q. c #CD6189",
"w. c #DA618B",
"e. c #E56794",
"r. c #ED6292",
"t. c #EC6B9B",
"y. c #F16798",
"u. c #F46C9F",
"i. c #FF51A3",
"p. c #EE6FA1",
"a. c #F866A1",
"s. c #F569A3",
"d. c #E371A0",
"f. c #EE74A2",
"g. c #EE75A8",
"h. c #EC7BAE",
"j. c #F771A5",
"k. c #F979AD",
"l. c #F577AC",
"z. c #FF6EBC",
"x. c #F97DB2",
"c. c #F07EB2",
"v. c #B18587",
"b. c #C4969D",
"n. c #D5919E",
"m. c #ED81B4",
"M. c #F681B3",
"N. c #FB81B5",
"B. c #FB84B9",
"V. c #FD89BD",
"C. c #ED9EBB",
"Z. c #E5AAB8",
"A. c #FE8CC2",
"S. c #FC8FC8",
"D. c #F58CC2",
"F. c #FF92C6",
"G. c #F692C9",
"H. c #FE95CB",
"J. c #FF98CF",
"K. c #FB97D1",
"L. c #FF9BD4",
"P. c #FF9ED9",
"I. c #FFA2DE",
"U. c #F0B2C7",
"Y. c #D8C0C3",
"T. c #EDC4CD",
"R. c #FCD9E9",
"E. c #FFFBFF",
"W. c #FFF0FB",
"Q. c None",
/* pixels */
"Q.Q.Q.Q.Q.Q.Q.Q.Q.Q.Q.Q.Q.Q.Q.Q.Q.Q.Q.Q.Q.Q.Q.Q.Q.Q.Q.Q.Q.Q.Q.Q.Q.Q.Q.Q.Q.Q.Q.Q.Q.Q.Q.Q.Q.Q.Q.Q.Q.Q.Q.Q.Q.Q.Q.Q.Q.Q.Q.Q.Q.Q.Q.Q.",
"Q.Q.Q.Q.Q.Q.Q.Q.Q.Q.Q.Q.Q.Q.Q.Q.Q.Q.Q.Q.Q.Q.Q.Q.Q.Q.Q.Q.Q.Q.Q.Q.Q.Q.Q.Q.Q.Q.Q.Q.Q.Q.Q.Q.Q.Q.Q.Q.Q.Q.Q.Q.Q.Q.Q.Q.Q.Q.Q.Q.Q.Q.Q.Q.",
"Q.Q.Q.Q.Q.Q.Q.Q.Q.Q.Q.Q.Q.Q.Q.Q.Q.Q.Q.Q.Q.Q.Q.Q.Q.Q.Q.Q.Q.Q.Q.Q.Q.Q.Q.Q.Q.Q.Q.Q.Q.Q.Q.Q.Q.Q.Q.Q.Q.Q.Q.Q.Q.Q.Q.Q.Q.Q.Q.Q.Q.Q.Q.Q.",
"Q.Q.Q.Q.Q.Q.Q.Q.Q.Q.Q.Q.Q.Q.Q.Q.Q.Q.Q.Q.Q.Q.Q.Q.Q.Q.Q.Q.Q.Q.Q.Q.Q.Q.Q.Q.Q.Q.Q.Q.Q.Q.Q.Q.Q.Q.Q.Q.Q.Q.Q.Q.Q.Q.Q.Q.Q.Q.Q.Q.Q.Q.Q.Q.",
"Q.Q.Q.Q.Q.Q.Q.Q.Q.Q.Q.Q.Q.Q.Q.Q.Q.Q.Q.Q.Q.Q.Q.Q.Q.Q.Q.Q.Q.Q.Q.Q.Q.Q.Q.Q.Q.Q.Q.Q.Q.Q.Q.Q.Q.Q.Q.Q.Q.Q.Q.Q.Q.Q.Q.Q.Q.Q.Q.Q.Q.Q.Q.Q.",
"Q.Q.Q.Q.Q.Q.Q.Q.Q.Q.Q.Q.Q.Q.Q.Q.Q.Q.Q.Q.Q.Q.Q.Q.Q.Q.Q.Q.Q.Q.Q.Q.Q.Q.Q.Q.Q.Q.Q.Q.Q.Q.Q.Q.Q.Q.Q.Q.Q.Q.Q.Q.Q.Q.Q.Q.Q.Q.Q.Q.Q.Q.Q.Q.",
"Q.Q.Q.Q.Q.Q.Q.Q.Q.Q.Q.Q.Q.Q.Q.Q.Q.Q.Q.Q.Q.Q.Q.Q.Q.Q.Q.Q.Q.Q.Q.Q.Q.Q.Q.Q.Q.Q.Q.Q.Q.Q.Q.Q.Q.Q.Q.Q.Q.Q.Q.Q.Q.Q.Q.Q.Q.Q.Q.Q.Q.Q.Q.Q.",
"Q.Q.Q.Q.Q.Q.Q.Q.Q.Q.Q.Q.Q.Q.Q.Q.Q.Q.Q.Q.Q.Q.Q.Q.Q.Q.Q.Q.Q.Q.Q.Q.Q.Q.Q.Q.Q.Q.Q.Q.Q.Q.Q.Q.Q.Q.Q.Q.Q.Q.Q.Q.Q.Q.Q.Q.Q.Q.Q.Q.Q.Q.Q.Q.",
"Q.Q.Q.Q.Q.Q.Q.Q.Q.Q.Q.Q.Q.Q.Q.Q.Q.Q.Q.Q.Q.Q.Q.Q.Q.Q.Q.Q.Q.Q.Q.Q.Q.Q.Q.Q.Q.Q.Q.Q.Q.Q.Q.Q.Q.Q.Q.Q.Q.Q.Q.Q.Q.Q.Q.Q.Q.Q.Q.Q.Q.Q.Q.Q.",
"Q.Q.Q.Q.Q.Q.Q.Q.Q.Q.Q.Q.Q.Q.Q.Q.Q.Q.Q.Q.Q.Q.Q.Q.Q.Q.Q.Q.Q.Q.Q.Q.Q.Q.Q.Q.Q.Q.Q.Q.Q.Q.Q.Q.Q.Q.Q.Q.Q.Q.Q.Q.Q.Q.Q.Q.Q.Q.Q.Q.Q.Q.Q.Q.",
"Q.Q.Q.Q.Q.Q.Q.Q.Q.Q.Q.Q.Q.Q.Q.Q.Q.Q.Q.Q.Q.Q.Q.Q.Q.Q.Q.Q.Q.Q.Q.Q.Q.Q.Q.Q.Q.Q.Q.Q.Q.Q.Q.Q.Q.Q.Q.Q.Q.Q.Q.Q.Q.Q.Q.Q.Q.Q.Q.Q.Q.Q.Q.Q.",
"Q.Q.Q.Q.Q.Q.Q.Q.Q.Q.Q.Q.Q.Q.Q.Q.Q.Q.Q.Q.Q.Q.Q.Q.Q.Q.Q.Q.Q.Q.Q.Q.Q.Q.Q.Q.Q.Q.Q.Q.Q.Q.Q.Q.Q.Q.Q.Q.Q.Q.Q.Q.Q.Q.Q.Q.Q.Q.Q.Q.Q.Q.Q.Q.",
"Q.Q.Q.Q.Q.Q.Q.Q.Q.Q.Q.Q.Q.Q.Q.Q.Q.Q.Q.Q.Q.Q.Q.Q.Q.Q.Q.Q.Q.Q.Q.Q.Q.Q.Q.Q.Q.Q.Q.Q.Q.Q.Q.Q.Q.Q.Q.Q.Q.Q.Q.Q.Q.Q.Q.Q.Q.Q.Q.Q.Q.Q.Q.Q.",
"Q.Q.Q.Q.Q.Q.Q.Q.Q.Q.Q.Q.Q.Q.Q.Q.Q.Q.Q.Q.Q.Q.Q.                                  Q.Q.Q.Q.Q.Q.Q.Q.Q.Q.Q.Q.Q.Q.Q.Q.Q.Q.Q.Q.Q.Q.Q.Q.",
"Q.Q.Q.Q.Q.Q.Q.Q.Q.Q.Q.Q.Q.Q.Q.Q.Q.Q.Q.Q.Q.Q.Q.                                  Q.Q.Q.Q.Q.Q.Q.Q.Q.Q.Q.Q.Q.Q.Q.Q.Q.Q.Q.Q.Q.Q.Q.Q.",
"Q.Q.Q.Q.Q.Q.Q.Q.Q.Q.Q.Q.Q.Q.Q.Q.Q.Q.        , n n j.j.N.F.F.F.F.F.F.M.=.=.C n 3         Q.Q.Q.Q.Q.Q.Q.Q.Q.Q.Q.Q.Q.Q.Q.Q.Q.Q.Q.Q.",
"Q.Q.Q.Q.Q.Q.Q.Q.Q.Q.Q.Q.Q.Q.Q.Q.Q.Q.        , n n j.j.x.F.F.F.F.F.F.M.=.=.C n 3         Q.Q.Q.Q.Q.Q.Q.Q.Q.Q.Q.Q.Q.Q.Q.Q.Q.Q.Q.Q.",
"Q.Q.Q.Q.Q.Q.Q.Q.Q.Q.Q.Q.Q.Q.Q.Q.  @ 3 3 r | o.w.5.D.D.H.L.L.L.L.K.K.F.g.g.5.5.J 0 0 3 3 $   Q.Q.Q.Q.Q.Q.Q.Q.Q.Q.Q.Q.Q.Q.Q.Q.Q.Q.",
"Q.Q.Q.Q.Q.Q.Q.Q.Q.Q.Q.Q.Q.Q.Q.    + n n f.F.L.I.I.I.I.I.I.I.I.I.I.I.I.I.I.H.F.t.=.=.n n ,     Q.Q.Q.Q.Q.Q.Q.Q.Q.Q.Q.Q.Q.Q.Q.Q.Q.",
"Q.Q.Q.Q.Q.Q.Q.Q.Q.Q.Q.Q.Q.Q.Q.X X & C C e.M.F.I.I.L.L.G.G.G.I.I.I.I.I.I.I.J.F.g.6.6.Z Z 4 X . Q.Q.Q.Q.Q.Q.Q.Q.Q.Q.Q.Q.Q.Q.Q.Q.Q.",
"Q.Q.Q.Q.Q.Q.Q.Q.Q.Q.Q.Q.Q.    9 c A =.=.Z n ;.I.I.=.=./ n G I.I.I.I.I.I.I.I.I.I.I.I.j.j.*.n a     Q.Q.Q.Q.Q.Q.Q.Q.Q.Q.Q.Q.Q.Q.Q.",
"Q.Q.Q.Q.Q.Q.Q.Q.Q.Q.Q.Q.Q.    9 n A =.=.Z n ;.I.I.=.=./ n G I.I.I.I.I.I.I.I.I.I.I.I.j.j.#.c a     Q.Q.Q.Q.Q.Q.Q.Q.Q.Q.Q.Q.Q.Q.Q.",
"Q.Q.Q.Q.Q.Q.Q.Q.Q.Q.Q.Q.Q.    B :.#.b b n.Z.Z.K.K.b b @.Z.Z.I.I.I.I.I.I.I.I.I.I.I.I.F.H.5.( V     Q.Q.Q.Q.Q.Q.Q.Q.Q.Q.Q.Q.Q.Q.Q.",
"Q.Q.Q.Q.Q.Q.Q.Q.Q.Q.Q.Q.Q.     .j.4.6 6 Y.E.R.F.F.6 6 v.E.E.I.I.I.I.I.I.I.I.I.I.I.I.I.I.t.=.H     Q.Q.Q.Q.Q.Q.Q.Q.Q.Q.Q.Q.Q.Q.Q.",
"Q.Q.Q.Q.Q.Q.Q.Q.Q.Q.Q.Q.Q.+ + O.x.q.: : b.T.U.F.F.: : +.T.U.I.I.I.I.I.I.I.I.I.I.I.I.I.I.f.6.P X o Q.Q.Q.Q.Q.Q.Q.Q.Q.Q.Q.Q.Q.Q.Q.",
"Q.Q.Q.Q.Q.Q.Q.Q.Q.Q.      n n d.I.3.    a n &.F.F.    3 n G I.I.I.I.I.I.I.I.I.I.I.I.I.I.B.j.4.6 6 o     Q.Q.Q.Q.Q.Q.Q.Q.Q.Q.Q.Q.",
"Q.Q.Q.Q.Q.Q.Q.Q.Q.Q.      n c d.I.3.    a c &.F.F.    3 c G I.I.I.I.I.I.I.I.I.I.I.I.I.I.B.j.4.6 6 o     Q.Q.Q.Q.Q.Q.Q.Q.Q.Q.Q.Q.",
"Q.Q.Q.Q.Q.Q.Q.Q.Q.Q.      *.=.c.I.3.    H %.e.P.I.    q %.-.I.I.I.I.I.I.I.I.I.I.I.I.I.I.P.P.h.x x @     Q.Q.Q.Q.Q.Q.Q.Q.Q.Q.Q.Q.",
"Q.Q.Q.Q.Q.Q.Q.Q.Q.Q.      =.=.c.I.3.    H =.t.I.I.    0 =.6.I.I.I.I.I.I.I.I.I.I.I.I.I.I.I.I.m.n n +     Q.Q.Q.Q.Q.Q.Q.Q.Q.Q.Q.Q.",
"Q.Q.Q.Q.Q.Q.Q.Q.Q.Q.      7.7.a.z.2.    ..7.g.I.I.    w 7.9.z.z.S.F.K.I.I.I.I.I.I.I.L.L.I.I.D.} } &     Q.Q.Q.Q.Q.Q.Q.Q.Q.Q.Q.Q.",
"Q.Q.Q.Q.Q.Q.Q.Q.Q.Q.      j.j.1.<.L     O.j.V.I.I.    e j.a.<.<.0.j.x.I.I.I.I.I.I.I.F.F.L.I.J.j.j.=     Q.Q.Q.Q.Q.Q.Q.Q.Q.Q.Q.Q.",
"Q.Q.Q.Q.Q.Q.Q.Q.Q.Q.      j.j.1.<.L     O.j.B.I.I.    e j.a.<.<.0.j.N.I.I.I.I.I.I.I.F.F.L.I.J.j.j.=     Q.Q.Q.Q.Q.Q.Q.Q.Q.Q.Q.Q.",
"Q.Q.Q.Q.Q.Q.Q.Q.Q.Q.      j.j.S.I.I.I.I.I.I.I.I.I.I.I.I.I.G.=.=.x.F.H.I.I.I.I.I.I.I.j.j.B.F.V.j.j.=     Q.Q.Q.Q.Q.Q.Q.Q.Q.Q.Q.Q.",
"Q.Q.Q.Q.Q.Q.Q.Q.Q.Q.      j.j.F.I.I.I.I.I.I.I.I.I.I.I.I.I.L.=.=.x.F.J.I.I.I.I.I.I.I.j.j.B.F.V.j.j.=     Q.Q.Q.Q.Q.Q.Q.Q.Q.Q.Q.Q.",
"Q.Q.Q.Q.Q.Q.Q.Q.Q.Q.      7.7.M.J.L.I.I.w.;.d.I.I.I.I.I.I.K.^ Q t.x.B.J.J.J.J.J.J.J.7.7.u.k.l.7.7.-     Q.Q.Q.Q.Q.Q.Q.Q.Q.Q.Q.Q.",
"Q.Q.Q.Q.Q.Q.Q.Q.Q.Q.      =.=.l.F.J.I.I.#.n ;.I.I.I.I.I.I.G.n n 8.j.k.F.F.F.F.F.F.F.=.=.r.j.y.=.=.*     Q.Q.Q.Q.Q.Q.Q.Q.Q.Q.Q.Q.",
"Q.Q.Q.Q.Q.Q.Q.Q.Q.Q.      %.%.f.F.F.I.I.;.G :.I.I.I.I.I.I.G.n C 7.u.j.A.A.A.F.V.A.F.=.=.r.j.r.=.%.*     Q.Q.Q.Q.Q.Q.Q.Q.Q.Q.Q.Q.",
"Q.Q.Q.Q.Q.Q.Q.Q.Q.Q.      n n :.j.l.F.F.I.I.I.I.I.I.I.I.I.L.=.=.=.=.6.j.j.j.j.j.j.j.=.=.r.j.8.n n +     Q.Q.Q.Q.Q.Q.Q.Q.Q.Q.Q.Q.",
"Q.Q.Q.Q.Q.Q.Q.Q.Q.Q.      n c :.j.k.F.F.L.I.I.I.I.I.I.I.I.J.=.=.=.=.,.j.j.j.j.j.j.j.=.=.r.j.8.n n +     Q.Q.Q.Q.Q.Q.Q.Q.Q.Q.Q.Q.",
"Q.Q.Q.Q.Q.Q.Q.Q.Q.Q.      7 7 K ,.8.k.l.F.H.J.H.H.H.J.J.J.V.y.y.( Z Q ^ ^ ^ ^ *.,.6.y.y.8.6.X.$ + Q.Q.Q.Q.Q.Q.Q.Q.Q.Q.Q.Q.Q.Q.Q.",
"Q.Q.Q.Q.Q.Q.Q.Q.Q.Q.      6 6 D =.,.f.j.V.F.F.F.F.F.F.F.F.V.j.j.^ n n n c n n / =.=.j.j.7.=.H     Q.Q.Q.Q.Q.Q.Q.Q.Q.Q.Q.Q.Q.Q.Q.",
"Q.Q.Q.Q.Q.Q.Q.Q.Q.Q.Q.    # # v F #.r.r.k.B.B.B.B.B.B.B.V.N.r.r.^ n x s s s s S { { $.O.K F v     Q.Q.Q.Q.Q.Q.Q.Q.Q.Q.Q.Q.Q.Q.Q.",
"Q.Q.Q.Q.Q.Q.Q.Q.Q.Q.Q.Q.Q.    # 6 p =.=.y.j.j.j.j.j.j.j.j.u.=.=.Q n s 6 6 6 6 d R R 6 6 6 6 :     Q.Q.Q.Q.Q.Q.Q.Q.Q.Q.Q.Q.Q.Q.Q.",
"Q.Q.Q.Q.Q.Q.Q.Q.Q.Q.Q.Q.Q.    # 6 p =.=.y.j.j.j.j.j.j.j.j.u.=.=.Q n j 6 6 6 6 d R R 6 6 6 6 :     Q.Q.Q.Q.Q.Q.Q.Q.Q.Q.Q.Q.Q.Q.Q.",
"Q.Q.Q.Q.Q.Q.Q.Q.Q.Q.Q.Q.Q.Q.Q.. . 4 <.' T M ~ >.>.Z Z c l M E E [ [ ` _ _ _ _ l.R.R._ _ U f 5     Q.Q.Q.Q.Q.Q.Q.Q.Q.Q.Q.Q.Q.Q.Q.",
"Q.Q.Q.Q.Q.Q.Q.Q.Q.Q.Q.Q.Q.Q.Q.    8 <.<.m g ! =.=.n n c g h R R ` <.<.<.<.<.<.A.E.E.<.<.Y g t     Q.Q.Q.Q.Q.Q.Q.Q.Q.Q.Q.Q.Q.Q.Q.",
"Q.Q.Q.Q.Q.Q.Q.Q.Q.Q.Q.Q.Q.Q.Q.    & ) ) m g z ! ! i i k m I ) ) ' <.<.<.<.<.<.i.V.V.) ) M g t     Q.Q.Q.Q.Q.Q.Q.Q.Q.Q.Q.Q.Q.Q.Q.",
"Q.Q.Q.Q.Q.Q.Q.Q.Q.Q.Q.Q.Q.Q.Q.    & R Y h g g g g 6 6 d R W <.<.<.<.<.<.<.<.<.<.<.<.R R m g t     Q.Q.Q.Q.Q.Q.Q.Q.Q.Q.Q.Q.Q.Q.Q.",
"Q.Q.Q.Q.Q.Q.Q.Q.Q.Q.Q.Q.Q.Q.Q.    % N N f y y y y > > u Y R ' ' ' ' ' ' ' ' <.' ` ` I I k y t     Q.Q.Q.Q.Q.Q.Q.Q.Q.Q.Q.Q.Q.Q.Q.",
"Q.Q.Q.Q.Q.Q.Q.Q.Q.Q.Q.Q.Q.Q.Q.Q.Q.Q.                  1 g h R R R R R R R R R m g g 6 6 O     Q.Q.Q.Q.Q.Q.Q.Q.Q.Q.Q.Q.Q.Q.Q.Q.Q.",
"Q.Q.Q.Q.Q.Q.Q.Q.Q.Q.Q.Q.Q.Q.Q.Q.Q.Q.                  1 g h R R R R R R R R R m g g 6 6 O     Q.Q.Q.Q.Q.Q.Q.Q.Q.Q.Q.Q.Q.Q.Q.Q.Q.",
"Q.Q.Q.Q.Q.Q.Q.Q.Q.Q.Q.Q.Q.Q.Q.Q.Q.Q.Q.Q.Q.Q.Q.Q.Q.Q.Q.$ ; < 2 2 2 2 2 2 2 2 2 < ; ; O O X Q.Q.Q.Q.Q.Q.Q.Q.Q.Q.Q.Q.Q.Q.Q.Q.Q.Q.Q.",
"Q.Q.Q.Q.Q.Q.Q.Q.Q.Q.Q.Q.Q.Q.Q.Q.Q.Q.Q.Q.Q.Q.Q.Q.Q.Q.Q.                                  Q.Q.Q.Q.Q.Q.Q.Q.Q.Q.Q.Q.Q.Q.Q.Q.Q.Q.Q.Q.",
"Q.Q.Q.Q.Q.Q.Q.Q.Q.Q.Q.Q.Q.Q.Q.Q.Q.Q.Q.Q.Q.Q.Q.Q.Q.Q.Q.Q.                                Q.Q.Q.Q.Q.Q.Q.Q.Q.Q.Q.Q.Q.Q.Q.Q.Q.Q.Q.Q.",
"Q.Q.Q.Q.Q.Q.Q.Q.Q.Q.Q.Q.Q.Q.Q.Q.Q.Q.Q.Q.Q.Q.Q.Q.Q.Q.Q.Q.Q.Q.Q.Q.Q.Q.Q.Q.Q.Q.Q.Q.Q.Q.Q.Q.Q.Q.Q.Q.Q.Q.Q.Q.Q.Q.Q.Q.Q.Q.Q.Q.Q.Q.Q.Q.",
"Q.Q.Q.Q.Q.Q.Q.Q.Q.Q.Q.Q.Q.Q.Q.Q.Q.Q.Q.Q.Q.Q.Q.Q.Q.Q.Q.Q.Q.Q.Q.Q.Q.Q.Q.Q.Q.Q.Q.Q.Q.Q.Q.Q.Q.Q.Q.Q.Q.Q.Q.Q.Q.Q.Q.Q.Q.Q.Q.Q.Q.Q.Q.Q.",
"Q.Q.Q.Q.Q.Q.Q.Q.Q.Q.Q.Q.Q.Q.Q.Q.Q.Q.Q.Q.Q.Q.Q.Q.Q.Q.Q.Q.Q.Q.Q.Q.Q.Q.Q.Q.Q.Q.Q.Q.Q.Q.Q.Q.Q.Q.Q.Q.Q.Q.Q.Q.Q.Q.Q.Q.Q.Q.Q.Q.Q.Q.Q.Q.",
"Q.Q.Q.Q.Q.Q.Q.Q.Q.Q.Q.Q.Q.Q.Q.Q.Q.Q.Q.Q.Q.Q.Q.Q.Q.Q.Q.Q.Q.Q.Q.Q.Q.Q.Q.Q.Q.Q.Q.Q.Q.Q.Q.Q.Q.Q.Q.Q.Q.Q.Q.Q.Q.Q.Q.Q.Q.Q.Q.Q.Q.Q.Q.Q.",
"Q.Q.Q.Q.Q.Q.Q.Q.Q.Q.Q.Q.Q.Q.Q.Q.Q.Q.Q.Q.Q.Q.Q.Q.Q.Q.Q.Q.Q.Q.Q.Q.Q.Q.Q.Q.Q.Q.Q.Q.Q.Q.Q.Q.Q.Q.Q.Q.Q.Q.Q.Q.Q.Q.Q.Q.Q.Q.Q.Q.Q.Q.Q.Q.",
"Q.Q.Q.Q.Q.Q.Q.Q.Q.Q.Q.Q.Q.Q.Q.Q.Q.Q.Q.Q.Q.Q.Q.Q.Q.Q.Q.Q.Q.Q.Q.Q.Q.Q.Q.Q.Q.Q.Q.Q.Q.Q.Q.Q.Q.Q.Q.Q.Q.Q.Q.Q.Q.Q.Q.Q.Q.Q.Q.Q.Q.Q.Q.Q.",
"Q.Q.Q.Q.Q.Q.Q.Q.Q.Q.Q.Q.Q.Q.Q.Q.Q.Q.Q.Q.Q.Q.Q.Q.Q.Q.Q.Q.Q.Q.Q.Q.Q.Q.Q.Q.Q.Q.Q.Q.Q.Q.Q.Q.Q.Q.Q.Q.Q.Q.Q.Q.Q.Q.Q.Q.Q.Q.Q.Q.Q.Q.Q.Q.",
"Q.Q.Q.Q.Q.Q.Q.Q.Q.Q.Q.Q.Q.Q.Q.Q.Q.Q.Q.Q.Q.Q.Q.Q.Q.Q.Q.Q.Q.Q.Q.Q.Q.Q.Q.Q.Q.Q.Q.Q.Q.Q.Q.Q.Q.Q.Q.Q.Q.Q.Q.Q.Q.Q.Q.Q.Q.Q.Q.Q.Q.Q.Q.Q.",
"Q.Q.Q.Q.Q.Q.Q.Q.Q.Q.Q.Q.Q.Q.Q.Q.Q.Q.Q.Q.Q.Q.Q.Q.Q.Q.Q.Q.Q.Q.Q.Q.Q.Q.Q.Q.Q.Q.Q.Q.Q.Q.Q.Q.Q.Q.Q.Q.Q.Q.Q.Q.Q.Q.Q.Q.Q.Q.Q.Q.Q.Q.Q.Q.",
"Q.Q.Q.Q.Q.Q.Q.Q.Q.Q.Q.Q.Q.Q.Q.Q.Q.Q.Q.Q.Q.Q.Q.Q.Q.Q.Q.Q.Q.Q.Q.Q.Q.Q.Q.Q.Q.Q.Q.Q.Q.Q.Q.Q.Q.Q.Q.Q.Q.Q.Q.Q.Q.Q.Q.Q.Q.Q.Q.Q.Q.Q.Q.Q."
};
