/* XPM */
static char *result[] = {
/* columns rows colors chars-per-pixel */
"64 64 166 2 ",
"   c black",
".  c #0D0204",
"X  c #160205",
"o  c #190305",
"O  c #1A000A",
"+  c #1C090E",
"@  c #1E0E14",
"#  c #240506",
"$  c #230309",
"%  c #2D000A",
"&  c #201219",
"*  c #37121D",
"=  c #3E1D2A",
"-  c #3C1B27",
";  c #3F2231",
":  c #44000F",
">  c #4A0C0C",
",  c #570E0E",
"<  c #430C15",
"1  c #4C0019",
"2  c #5A0014",
"3  c #50001E",
"4  c #5A101C",
"5  c #7B021B",
"6  c #631010",
"7  c #6D1215",
"8  c #72161B",
"9  c #4B1A28",
"0  c #531B2B",
"q  c #581B2A",
"w  c #630322",
"e  c #711423",
"r  c #600932",
"t  c #402837",
"y  c #562232",
"u  c #5C2A3E",
"i  c #6F2439",
"p  c #612938",
"a  c #752E46",
"s  c #60374A",
"d  c #7C3953",
"f  c #7B4059",
"g  c #87001E",
"h  c #88001E",
"j  c #810A19",
"k  c #8E0A29",
"l  c #9E0024",
"z  c #9C022B",
"x  c #9E1C32",
"c  c #A00423",
"v  c #AB0226",
"b  c #AF022B",
"n  c #B50029",
"m  c #B9002E",
"M  c #AD0339",
"N  c #BD0033",
"B  c #B10437",
"V  c #B91C3C",
"C  c #B52039",
"Z  c #C10038",
"A  c #B90442",
"S  c #A61243",
"D  c #B1144A",
"F  c #8B2E47",
"G  c #892B45",
"H  c #912A44",
"J  c #BA2540",
"K  c #BD2A46",
"L  c #BE304D",
"P  c #B53352",
"I  c #A73756",
"U  c #B13F61",
"Y  c #CA0043",
"T  c #CE0048",
"R  c #CB0848",
"E  c #D1024C",
"W  c #D0094C",
"Q  c #D60052",
"!  c #DA0B56",
"~  c #DB0358",
"^  c #DA1C5E",
"/  c #C42F4F",
"(  c #CA2E58",
")  c #C53454",
"_  c #C93456",
"`  c #CE395E",
"'  c #CE355B",
"]  c #D4325F",
"[  c #E20761",
"{  c #E60964",
"}  c #E80A68",
"|  c #F61579",
" . c #FA157E",
".. c #DA2462",
"X. c #D92D66",
"o. c #CE3E62",
"O. c #D43D64",
"+. c #D43760",
"@. c #EA3779",
"#. c #804963",
"$. c #9A4667",
"%. c #9F5C7C",
"&. c #B74C77",
"*. c #C24065",
"=. c #C7486E",
"-. c #D9426B",
";. c #D6486F",
":. c #D44167",
">. c #C7576A",
",. c #CA4C75",
"<. c #DE4973",
"1. c #DE4E78",
"2. c #D05177",
"3. c #DE537D",
"4. c #E14E79",
"5. c #E4537F",
"6. c #FF1884",
"7. c #9F658B",
"8. c #AF6F99",
"9. c #BF6495",
"0. c #BF719B",
"q. c #E35480",
"w. c #E65986",
"e. c #E65B88",
"r. c #EA5D8C",
"t. c #DA668E",
"y. c #D17283",
"u. c #D96391",
"i. c #D56590",
"p. c #EE6394",
"a. c #E76998",
"s. c #F16798",
"d. c #F46C9F",
"f. c #FF5FAA",
"g. c #DE7BA9",
"h. c #FF65AD",
"j. c #F66FA2",
"k. c #E371A0",
"l. c #EC79AA",
"z. c #F771A5",
"x. c #F875A9",
"c. c #F27BAE",
"v. c #F979AD",
"b. c #F174A8",
"n. c #FF6DB2",
"m. c #F97DB2",
"M. c #B18587",
"N. c #DF80AD",
"B. c #EC81B5",
"V. c #F482B5",
"C. c #FB81B5",
"Z. c #FA84BA",
"A. c #FB89BC",
"S. c #F686BC",
"D. c #FD8DC2",
"F. c #FC8FC8",
"G. c #FF92C6",
"H. c #F692C9",
"J. c #FE95CB",
"K. c #FF98CF",
"L. c #FE9CD5",
"P. c #FF9ED8",
"I. c #FFA2DE",
"U. c #FFDFEF",
"Y. c #FFFBFF",
"T. c None",
/* pixels */
"T.T.T.T.T.T.T.T.T.T.T.T.T.T.T.T.T.T.T.T.T.T.T.T.T.T.T.T.T.T.T.T.T.T.T.T.T.T.T.T.T.T.T.T.T.T.T.T.T.T.T.T.T.T.T.T.T.T.T.T.T.T.T.T.",
"T.T.T.T.T.T.T.T.T.T.T.T.T.T.T.T.T.T.T.T.T.T.T.T.T.T.T.T.T.T.T.T.T.T.T.T.T.T.T.T.T.T.T.T.T.T.T.T.T.T.T.T.T.T.T.T.T.T.T.T.T.T.T.T.",
"T.T.T.T.T.T.T.T.T.T.T.T.T.T.T.T.T.T.T.T.T.T.T.T.T.T.T.T.T.T.T.T.T.T.T.T.T.T.T.T.T.T.T.T.T.T.T.T.T.T.T.T.T.T.T.T.T.T.T.T.T.T.T.T.",
"T.T.T.T.T.T.T.T.T.T.T.T.T.T.T.T.T.T.T.T.T.T.T.T.T.T.T.T.T.T.T.T.T.T.T.T.T.T.T.T.T.T.T.T.T.T.T.T.T.T.T.T.T.T.T.T.T.T.T.T.T.T.T.T.",
"T.T.T.T.T.T.T.T.T.T.T.T.T.T.T.T.T.T.T.T.T.T.T.T.T.T.T.T.T.T.T.T.T.T.T.T.T.T.T.T.T.T.T.T.T.T.T.T.T.T.T.T.T.T.T.T.T.T.T.T.T.T.T.T.",
"T.T.T.T.T.T.T.T.T.T.T.T.T.T.T.T.T.T.T.T.T.T.T.T.T.T.T.T.T.T.T.T.T.T.T.T.T.T.T.T.T.T.T.T.T.T.T.T.T.T.T.T.T.T.T.T.T.T.T.T.T.T.T.T.",
"T.T.T.T.T.T.T.T.T.T.T.T.T.T.T.T.T.T.T.T.T.T.T.T.T.T.T.T.T.T.T.T.T.T.T.T.T.T.T.T.T.T.T.T.T.T.T.T.T.T.T.T.T.T.T.T.T.T.T.T.T.T.T.T.",
"T.T.T.T.T.T.T.T.T.T.T.T.T.T.T.T.T.T.T.T.T.T.T.T.T.T.T.T.T.T.T.T.T.T.T.T.T.T.T.T.T.T.T.T.T.T.T.T.T.T.T.T.T.T.T.T.T.T.T.T.T.T.T.T.",
"T.T.T.T.T.T.T.T.T.T.T.T.T.T.T.T.T.T.T.T.T.T.T.T.T.T.T.T.T.T.T.T.T.T.T.T.T.T.T.T.T.T.T.T.T.T.T.T.T.T.T.T.T.T.T.T.T.T.T.T.T.T.T.T.",
"T.T.T.T.T.T.T.T.T.T.T.T.T.T.T.T.T.T.T.T.T.T.T.T.T.T.T.T.T.T.T.T.T.T.T.T.T.T.T.T.T.T.T.T.T.T.T.T.T.T.T.T.T.T.T.T.T.T.T.T.T.T.T.T.",
"T.T.T.T.T.T.T.T.T.T.T.T.T.T.T.T.T.T.T.T.T.T.T.T.T.T.T.T.T.T.T.T.T.T.T.T.T.T.T.T.T.T.T.T.T.T.T.T.T.T.T.T.T.T.T.T.T.T.T.T.T.T.T.T.",
"T.T.T.T.T.T.T.T.T.T.T.T.T.T.T.T.T.T.T.T.T.T.T.T.T.T.T.T.T.T.T.T.T.T.T.T.T.T.T.T.T.T.T.T.T.T.T.T.T.T.T.T.T.T.T.T.T.T.T.T.T.T.T.T.",
"T.T.T.T.T.T.T.T.T.T.T.T.T.T.T.T.T.T.T.T.T.T.                                        T.T.T.T.T.T.T.T.T.T.T.T.T.T.T.T.T.T.T.T.T.T.",
"T.T.T.T.T.T.T.T.T.T.T.T.T.T.T.T.T.T.T.T.T.T.                                        T.T.T.T.T.T.T.T.T.T.T.T.T.T.T.T.T.T.T.T.T.T.",
"T.T.T.T.T.T.T.T.T.T.T.T.T.T.T.T.T.T.            $ 4 4 i i a d d #.#.#.#.f i i .             T.T.T.T.T.T.T.T.T.T.T.T.T.T.T.T.T.T.",
"T.T.T.T.T.T.T.T.T.T.T.T.T.T.T.T.T.              < C C <.<.r.z.x.G.G.G.G.V.<.4.+             T.T.T.T.T.T.T.T.T.T.T.T.T.T.T.T.T.T.",
"T.T.T.T.T.T.T.T.T.T.T.T.T.T.T.T.T.    . @ + @ @ q L L q.q.p.v.m.G.J.G.J.S.q.5.- & @ + @     T.T.T.T.T.T.T.T.T.T.T.T.T.T.T.T.T.T.",
"T.T.T.T.T.T.T.T.T.T.T.T.T.T.T.        * <.<.s.z.Z.I.I.I.I.I.I.I.I.I.I.I.I.I.I.J.G.b.<.<.          T.T.T.T.T.T.T.T.T.T.T.T.T.T.T.",
"T.T.T.T.T.T.T.T.T.T.T.T.T.T.T.        * <.<.s.z.V.I.I.I.I.I.I.I.I.I.I.I.I.I.I.J.G.b.<.<.          T.T.T.T.T.T.T.T.T.T.T.T.T.T.T.",
"T.T.T.T.T.T.T.T.T.T.T.T.T.T.T.    0 F H / / c.F.l.2.2.I.I.I.I.I.I.I.I.I.I.I.I.L.L.J.V.V.F F *     T.T.T.T.T.T.T.T.T.T.T.T.T.T.T.",
"T.T.T.T.T.T.T.T.T.T.T.T.T.T.T.    F <.:.V C B.I.k.V C I.I.I.I.I.I.I.I.I.I.I.I.I.I.I.I.I.<.<.0     T.T.T.T.T.T.T.T.T.T.T.T.T.T.T.",
"T.T.T.T.T.T.T.T.T.T.T.T.T.T.T.    G O.` ) ) a.B.t.>.>.I.I.I.I.I.I.I.I.I.I.I.I.I.I.I.I.I.e.e.y     T.T.T.T.T.T.T.T.T.T.T.T.T.T.T.",
"T.T.T.T.T.T.T.T.T.T.T.T.          e C ) z.z.) C y.Y.Y.I.I.I.I.I.I.I.I.I.I.I.I.I.I.I.I.I.G.G.s         T.T.T.T.T.T.T.T.T.T.T.T.T.",
"T.T.T.T.T.T.T.T.T.T.T.T.          e C ) z.b.) C y.Y.Y.I.I.I.I.I.I.I.I.I.I.I.I.I.I.I.I.I.G.J.s         T.T.T.T.T.T.T.T.T.T.T.T.T.",
"T.T.T.T.T.T.T.T.T.T.T.T.      x x < X y z.z.9 X p e.t.I.I.I.I.I.I.I.I.I.I.I.I.I.I.I.I.I.P.I.u.o.I     T.T.T.T.T.T.T.T.T.T.T.T.T.",
"T.T.T.T.T.T.T.T.T.T.T.T.      C C <   = z.z.=   0 1.-.I.I.I.I.I.I.I.I.I.I.I.I.I.I.I.I.I.I.I.a.<.*.    T.T.T.T.T.T.T.T.T.T.T.T.T.",
"T.T.T.T.T.T.T.T.T.T.T.T.      o.` 9   ; Z.Z.=   y w.w.L.L.K.F.F.I.L.I.I.I.I.I.I.I.I.I.I.I.I.b.w.,.    T.T.T.T.T.T.T.T.T.T.T.T.T.",
"T.T.T.T.T.T.T.T.T.T.T.T.      z.z.u   t I.I.t   u z.z.G.F.Z.z.x.G.G.L.I.I.I.I.I.I.I.I.I.I.I.Z.z.u.    T.T.T.T.T.T.T.T.T.T.T.T.T.",
"T.T.T.T.T.T.T.T.T.T.T.T.      z.z.u   t I.I.t   u z.z.G.G.C.z.x.G.G.I.I.I.I.I.I.I.I.I.I.I.I.Z.z.u.    T.T.T.T.T.T.T.T.T.T.T.T.T.",
"T.T.T.T.T.T.T.T.T.T.T.T.      6.6.r   t I.I.t   r 6.6.z.z.D.I.I.I.I.I.I.I.I.I.I.I.I.I.I.I.I.K.G.N.    T.T.T.T.T.T.T.T.T.T.T.T.T.",
"T.T.T.T.T.T.T.T.T.T.T.T.      6.6.r   t I.I.t   r 6.6.z.z.D.P.I.I.I.I.I.I.I.I.I.I.I.I.I.I.I.K.G.N.    T.T.T.T.T.T.T.T.T.T.T.T.T.",
"T.T.T.T.T.T.T.T.T.T.T.T.      h.h.9.7.8.I.I.0.%.&.@.@.Z.Z.J.I.I.I.I.I.I.I.K.K.K.L.L.I.I.I.I.K.G.N.    T.T.T.T.T.T.T.T.T.T.T.T.T.",
"T.T.T.T.T.T.T.T.T.T.T.T.      G.G.L.I.I.I.I.J.G.x.<.<.G.G.K.I.I.I.I.I.I.L.G.G.G.G.K.I.I.I.I.K.G.g.    T.T.T.T.T.T.T.T.T.T.T.T.T.",
"T.T.T.T.T.T.T.T.T.T.T.T.      D.D.L.I.L.H.H.K.J.b.-.;.A.G.J.I.I.L.I.I.I.L.G.G.A.D.J.I.I.I.I.K.D.g.    T.T.T.T.T.T.T.T.T.T.T.T.T.",
"T.T.T.T.T.T.T.T.T.T.T.T.      z.z.F.I.B.C C B.I.k.C C z.z.C.G.G.G.G.G.G.G.G.G.x.z.Z.I.I.I.I.Z.z.u.    T.T.T.T.T.T.T.T.T.T.T.T.T.",
"T.T.T.T.T.T.T.T.T.T.T.T.      z.z.F.I.B.C C B.I.k.C C z.z.C.G.G.G.G.G.G.G.G.G.x.z.Z.I.I.I.I.Z.z.u.    T.T.T.T.T.T.T.T.T.T.T.T.T.",
"T.T.T.T.T.T.T.T.T.T.T.T.      5.5.c.J.G.B.B.L.I.l.:.:.5.5.s.v.v.v.v.x.x.z.e.e.d.z.m.J.K.m.m.p.5.=.    T.T.T.T.T.T.T.T.T.T.T.T.T.",
"T.T.T.T.T.T.T.T.T.T.T.T.      <.<.b.G.J.I.I.I.I.V.<.<.<.<.r.z.z.z.z.z.j.s.<.<.d.z.C.G.G.z.z.w.<.*.    T.T.T.T.T.T.T.T.T.T.T.T.T.",
"T.T.T.T.T.T.T.T.T.T.T.T.T.    F F i.Z.A.L.L.I.I.V.w.w.<.<.1.3.5.p.p.p.p.p.w.e.z.z.x.Z.C.p.p.;.` P     T.T.T.T.T.T.T.T.T.T.T.T.T.",
"T.T.T.T.T.T.T.T.T.T.T.T.T.T.T.    $.z.v.G.G.P.I.G.z.z.<.<._ C K <.<.<.<.5.z.z.z.z.z.z.z.<.<./ C x     T.T.T.T.T.T.T.T.T.T.T.T.T.",
"T.T.T.T.T.T.T.T.T.T.T.T.T.T.T.    $.z.v.G.G.P.I.F.z.z.<.<._ C C <.<.<.<.5.z.z.z.z.z.z.z.<.<./ V x     T.T.T.T.T.T.T.T.T.T.T.T.T.",
"T.T.T.T.T.T.T.T.T.T.T.T.T.    l l ) 4.w.x.x.D.J.G.D.D.A.A.Z.V.V.A.A.z.d.d.z.z.5.4.O./ / 8 8 8 7 6     T.T.T.T.T.T.T.T.T.T.T.T.T.",
"T.T.T.T.T.T.T.T.T.T.T.T.      n n ( 4.5.z.z.A.G.J.G.G.J.G.G.G.G.G.G.x.z.z.z.z.4.<._ V C 6 6 6 6 ,     T.T.T.T.T.T.T.T.T.T.T.T.T.",
"T.T.T.T.T.T.T.T.T.T.T.T.      ! ! ^ ..X.;.;.p.d.z.C.C.m.C.C.C.C.C.C.s.r.w.+.O.....^ ^ ^ M.M.U D S 2 2 $   T.T.T.T.T.T.T.T.T.T.T.",
"T.T.T.T.T.T.T.T.T.T.T.T.      6.6.{ Q W V C o.<.w.z.z.z.z.z.z.z.z.z.5.<.] n n E E { 6.6.Y.Y.n.6.| n n %     T.T.T.T.T.T.T.T.T.T.",
"T.T.T.T.T.T.T.T.T.T.T.T.      | | [ Q R V V ' :.4.p.p.p.p.p.s.p.t.a.4.-.] m m Q ~ } 6.6.U.U.f.6.| n n %     T.T.T.T.T.T.T.T.T.T.",
"T.T.T.T.T.T.T.T.T.T.T.T.      n n Y Q Q Q Q N n n n n n n n n v 6 6 c n Z Q Q  .6.6.6.6.6.6.6.6.| n n %     T.T.T.T.T.T.T.T.T.T.",
"T.T.T.T.T.T.T.T.T.T.T.T.      n n Y Q Q Q Q N n n n n n n n n v 6 6 c n m Q Q  .6.6.6.6.6.6.6.6.| n n %     T.T.T.T.T.T.T.T.T.T.",
"T.T.T.T.T.T.T.T.T.T.T.T.T.T.T.: : 1 3 w k k b n n n n n n n n v 6 6 B Y T Q Q [ { { { { { { ! W R 5 j #     T.T.T.T.T.T.T.T.T.T.",
"T.T.T.T.T.T.T.T.T.T.T.T.T.T.T.        o 6 6 c n n n n n n n n v 6 6 A Q Q Q Q Q Q Q Q Q Q Q Z n v 6 6 o     T.T.T.T.T.T.T.T.T.T.",
"T.T.T.T.T.T.T.T.T.T.T.T.T.T.T.        X > > 5 g g g g g g g h 5 > > M T E Q Q Q Q E T T A A z h 5 > > o   T.T.T.T.T.T.T.T.T.T.T.",
"T.T.T.T.T.T.T.T.T.T.T.T.T.T.T.T.T.T.T.T.                            h n N Q Q Q Q Y n n 6 6 #         T.T.T.T.T.T.T.T.T.T.T.T.T.",
"T.T.T.T.T.T.T.T.T.T.T.T.T.T.T.T.T.T.T.T.                            h n N Q Q Q Q Y n n 6 6 #         T.T.T.T.T.T.T.T.T.T.T.T.T.",
"T.T.T.T.T.T.T.T.T.T.T.T.T.T.T.T.T.T.T.T.T.T.T.T.T.T.T.T.T.T.T.T.T.T.. X X O O O O o o o . . T.T.T.T.T.T.T.T.T.T.T.T.T.T.T.T.T.T.",
"T.T.T.T.T.T.T.T.T.T.T.T.T.T.T.T.T.T.T.T.T.T.T.T.T.T.T.T.T.T.T.T.T.T.                        T.T.T.T.T.T.T.T.T.T.T.T.T.T.T.T.T.T.",
"T.T.T.T.T.T.T.T.T.T.T.T.T.T.T.T.T.T.T.T.T.T.T.T.T.T.T.T.T.T.T.T.T.T.T.                      T.T.T.T.T.T.T.T.T.T.T.T.T.T.T.T.T.T.",
"T.T.T.T.T.T.T.T.T.T.T.T.T.T.T.T.T.T.T.T.T.T.T.T.T.T.T.T.T.T.T.T.T.T.T.T.T.T.T.T.T.T.T.T.T.T.T.T.T.T.T.T.T.T.T.T.T.T.T.T.T.T.T.T.",
"T.T.T.T.T.T.T.T.T.T.T.T.T.T.T.T.T.T.T.T.T.T.T.T.T.T.T.T.T.T.T.T.T.T.T.T.T.T.T.T.T.T.T.T.T.T.T.T.T.T.T.T.T.T.T.T.T.T.T.T.T.T.T.T.",
"T.T.T.T.T.T.T.T.T.T.T.T.T.T.T.T.T.T.T.T.T.T.T.T.T.T.T.T.T.T.T.T.T.T.T.T.T.T.T.T.T.T.T.T.T.T.T.T.T.T.T.T.T.T.T.T.T.T.T.T.T.T.T.T.",
"T.T.T.T.T.T.T.T.T.T.T.T.T.T.T.T.T.T.T.T.T.T.T.T.T.T.T.T.T.T.T.T.T.T.T.T.T.T.T.T.T.T.T.T.T.T.T.T.T.T.T.T.T.T.T.T.T.T.T.T.T.T.T.T.",
"T.T.T.T.T.T.T.T.T.T.T.T.T.T.T.T.T.T.T.T.T.T.T.T.T.T.T.T.T.T.T.T.T.T.T.T.T.T.T.T.T.T.T.T.T.T.T.T.T.T.T.T.T.T.T.T.T.T.T.T.T.T.T.T.",
"T.T.T.T.T.T.T.T.T.T.T.T.T.T.T.T.T.T.T.T.T.T.T.T.T.T.T.T.T.T.T.T.T.T.T.T.T.T.T.T.T.T.T.T.T.T.T.T.T.T.T.T.T.T.T.T.T.T.T.T.T.T.T.T.",
"T.T.T.T.T.T.T.T.T.T.T.T.T.T.T.T.T.T.T.T.T.T.T.T.T.T.T.T.T.T.T.T.T.T.T.T.T.T.T.T.T.T.T.T.T.T.T.T.T.T.T.T.T.T.T.T.T.T.T.T.T.T.T.T.",
"T.T.T.T.T.T.T.T.T.T.T.T.T.T.T.T.T.T.T.T.T.T.T.T.T.T.T.T.T.T.T.T.T.T.T.T.T.T.T.T.T.T.T.T.T.T.T.T.T.T.T.T.T.T.T.T.T.T.T.T.T.T.T.T."
};
