/* XPM */
static char *result[] = {
/* columns rows colors chars-per-pixel */
"64 64 166 2 ",
"   c black",
".  c #0D0202",
"X  c #150406",
"o  c #190404",
"O  c #1C090E",
"+  c #250606",
"@  c #2C0707",
"#  c #2D000A",
"$  c #2D080E",
"%  c #310808",
"&  c #3E0A0A",
"*  c #300B12",
"=  c #36121C",
"-  c #3B1521",
";  c #3D1C29",
":  c #3C1A26",
">  c #4A0B0C",
",  c #560E0E",
"<  c #4E0E14",
"1  c #471015",
"2  c #5A101C",
"3  c #680B15",
"4  c #631010",
"5  c #6A1418",
"6  c #73171D",
"7  c #531B2B",
"8  c #6D1322",
"9  c #7D1520",
"0  c #600931",
"q  c #601137",
"w  c #5B283B",
"e  c #602637",
"r  c #752639",
"t  c #403F40",
"y  c #60364A",
"u  c #603D53",
"i  c #7D3B53",
"p  c #7F4B68",
"a  c #850D23",
"s  c #960620",
"d  c #87182B",
"f  c #9E1C31",
"g  c #941A2D",
"h  c #A50325",
"j  c #B50029",
"k  c #A01C2E",
"l  c #AA1E34",
"z  c #9C253D",
"x  c #8A303D",
"c  c #B52039",
"v  c #B8233D",
"b  c #B90442",
"n  c #BE1E44",
"m  c #8B3A49",
"M  c #823D57",
"N  c #BA2540",
"B  c #BE2A47",
"V  c #B62745",
"C  c #A3314C",
"Z  c #BE304D",
"A  c #BF3B5A",
"S  c #BB3F61",
"D  c #CA0043",
"F  c #C8024A",
"G  c #C71E4B",
"H  c #D60052",
"J  c #D60C56",
"K  c #C42F4F",
"L  c #C73C5C",
"P  c #CE395D",
"I  c #C93456",
"U  c #D22B5B",
"Y  c #D81667",
"T  c #E40E62",
"R  c #ED126D",
"E  c #EB1170",
"W  c #F8147B",
"Q  c #CE3E62",
"!  c #D33F64",
"~  c #DC376A",
"^  c #DA3F70",
"/  c #8A4A4B",
"(  c #9D4054",
")  c #9D465D",
"_  c #AD405A",
"`  c #9F4374",
"'  c #9F5C7D",
"]  c #AC5D7E",
"[  c #B15977",
"{  c #B9557B",
"}  c #A54A64",
"|  c #C24065",
" . c #CE4266",
".. c #C04D6E",
"X. c #D34A6F",
"o. c #D5466D",
"O. c #DE4973",
"+. c #D2597F",
"@. c #DC547F",
"#. c #E14E79",
"$. c #E4537F",
"%. c #FF1884",
"&. c #FE1B85",
"*. c #FF288C",
"=. c #FF2E90",
"-. c #FF3694",
";. c #FF3A9A",
":. c #9F658B",
">. c #BF79A6",
",. c #C55981",
"<. c #DA5980",
"1. c #D45C89",
"2. c #E45380",
"3. c #E45986",
"4. c #E65D8A",
"5. c #EA5D8C",
"6. c #FA4B97",
"7. c #C46181",
"8. c #DB628C",
"9. c #D07283",
"0. c #D86391",
"q. c #DA6C98",
"w. c #ED6594",
"e. c #EB6A9B",
"r. c #F16798",
"t. c #F36C9E",
"y. c #FF4CA6",
"u. c #EF6EA0",
"i. c #E471A0",
"p. c #ED75A3",
"a. c #EE75A8",
"s. c #EC78A6",
"d. c #F771A5",
"f. c #F876AB",
"g. c #F97BAE",
"h. c #F57DAE",
"j. c #FC68B0",
"k. c #FA7DB2",
"l. c #DF80AD",
"z. c #DF83B2",
"x. c #EC81B5",
"c. c #E88AB0",
"v. c #F580B4",
"b. c #FA82B6",
"n. c #FA84BA",
"m. c #F38ABE",
"M. c #FB89BB",
"N. c #F691BB",
"B. c #DF8EC2",
"V. c #F78CC3",
"C. c #FB8BC2",
"Z. c #FF84C9",
"A. c #FF92C6",
"S. c #FF95CC",
"D. c #FF98CF",
"F. c #F690C6",
"G. c #FF9BD3",
"H. c #FF9ED8",
"J. c #FD96D0",
"K. c #FFACD4",
"L. c #FFA2DE",
"P. c #FFC6E2",
"I. c #FFCEEE",
"U. c #FFEEF8",
"Y. c #FFFBFF",
"T. c None",
/* pixels */
"T.T.T.T.T.T.T.T.T.T.T.T.T.T.T.T.T.T.T.T.T.T.T.T.T.T.T.T.T.T.T.T.T.T.T.T.T.T.T.T.T.T.T.T.T.T.T.T.T.T.T.T.T.T.T.T.T.T.T.T.T.T.T.T.",
"T.T.T.T.T.T.T.T.T.T.T.T.T.T.T.T.T.T.T.T.T.T.T.T.T.T.T.T.T.T.T.T.T.T.T.T.T.T.T.T.T.T.T.T.T.T.T.T.T.T.T.T.T.T.T.T.T.T.T.T.T.T.T.T.",
"T.T.T.T.T.T.T.T.T.T.T.T.T.T.T.T.T.T.T.T.T.T.T.T.T.T.T.T.T.T.T.T.T.T.T.T.T.T.T.T.T.T.T.T.T.T.T.T.T.T.T.T.T.T.T.T.T.T.T.T.T.T.T.T.",
"T.T.T.T.T.T.T.T.T.T.T.T.T.T.T.T.T.T.T.T.T.T.T.T.T.T.T.T.T.T.T.T.T.T.T.T.T.T.T.T.T.T.T.T.T.T.T.T.T.T.T.T.T.T.T.T.T.T.T.T.T.T.T.T.",
"T.T.T.T.T.T.T.T.T.T.T.T.T.T.T.T.T.T.T.T.T.T.T.T.T.T.T.T.T.T.T.T.T.T.T.T.T.T.T.T.T.T.T.T.T.T.T.T.T.T.T.T.T.T.T.T.T.T.T.T.T.T.T.T.",
"T.T.T.T.T.T.T.T.T.T.T.T.T.T.T.T.T.T.T.T.T.T.T.T.T.T.T.T.T.T.T.T.T.T.T.T.T.T.T.T.T.T.T.T.T.T.T.T.T.T.T.T.T.T.T.T.T.T.T.T.T.T.T.T.",
"T.T.T.T.T.T.T.T.T.T.T.T.T.T.T.T.T.T.T.T.T.T.T.T.T.T.T.T.T.T.T.T.T.T.T.T.T.T.T.T.T.T.T.T.T.T.T.T.T.T.T.T.T.T.T.T.T.T.T.T.T.T.T.T.",
"T.T.T.T.T.T.T.T.T.T.T.T.T.T.T.T.T.T.T.T.T.T.T.T.T.T.T.T.T.T.T.T.T.T.T.T.T.T.T.T.T.T.T.T.T.T.T.T.T.T.T.T.T.T.T.T.T.T.T.T.T.T.T.T.",
"T.T.T.T.T.T.T.T.T.T.T.T.T.T.T.T.T.T.T.T.T.T.T.T.T.T.T.T.T.T.T.T.T.T.T.T.T.T.T.T.T.T.T.T.T.T.T.T.T.T.T.T.T.T.T.T.T.T.T.T.T.T.T.T.",
"T.T.T.T.T.T.T.T.T.T.T.T.T.T.T.T.T.T.T.T.T.T.T.T.T.T.T.T.T.T.T.T.T.T.T.T.T.T.T.T.T.T.T.T.T.T.T.T.T.T.T.T.T.T.T.T.T.T.T.T.T.T.T.T.",
"T.T.T.T.T.T.T.T.T.T.T.T.T.T.T.T.T.T.T.T.T.T.T.T.T.T.T.T.T.T.T.T.T.T.T.T.T.T.T.T.T.T.T.T.T.T.T.T.T.T.T.T.T.T.T.T.T.T.T.T.T.T.T.T.",
"T.T.T.T.T.T.T.T.T.T.T.T.T.T.T.T.T.T.T.T.T.T.T.T.T.T.T.T.T.T.T.T.T.T.T.T.T.T.T.T.T.T.T.T.T.T.T.T.T.T.T.T.T.T.T.T.T.T.T.T.T.T.T.T.",
"T.T.T.T.T.T.T.T.T.T.T.T.T.T.T.T.T.T.T.T.T.T.T.T.T.T.T.T.T.T.T.T.T.T.T.T.T.T.T.T.T.T.T.T.T.T.T.T.T.T.T.T.T.T.T.T.T.T.T.T.T.T.T.T.",
"T.T.T.T.T.T.T.T.T.T.T.T.T.T.T.T.T.T.T.T.T.T.T.T.T.T.T.T.T.T.T.T.T.T.T.T.T.T.T.T.T.T.T.T.T.T.T.T.T.T.T.T.T.T.T.T.T.T.T.T.T.T.T.T.",
"T.T.T.T.T.T.T.T.T.T.T.T.T.T.T.T.T.T.T.T.T.T.T.T.T.T.T.T.T.T.T.T.T.T.T.T.T.T.T.T.T.T.T.T.T.T.T.T.T.T.T.T.T.T.T.T.T.T.T.T.T.T.T.T.",
"T.T.T.T.T.T.T.T.T.T.T.T.T.T.T.T.T.T.T.T.T.                                            T.T.T.T.T.T.T.T.T.T.T.T.T.T.T.T.T.T.T.T.T.",
"T.T.T.T.T.T.T.T.T.T.T.T.T.T.T.T.T.T.T.T.T.                                            T.T.T.T.T.T.T.T.T.T.T.T.T.T.T.T.T.T.T.T.T.",
"T.T.T.T.T.T.T.T.T.T.T.T.T.T.T.T.        1 | S 0.0.q.l.l.B.B.B.B.B.B.B.z.l.q.| | 5 , @         T.T.T.T.T.T.T.T.T.T.T.T.T.T.T.T.T.",
"T.T.T.T.T.T.T.T.T.T.T.T.T.T.T.T.        = #.O.r.d.g.A.S.L.L.L.L.L.L.L.S.A.v.O.O.6 4 %         T.T.T.T.T.T.T.T.T.T.T.T.T.T.T.T.T.",
"T.T.T.T.T.T.T.T.T.T.T.T.T.T.T.T.7 7 w w r Q Q a.n.v.f.a.i.i.V.L.L.L.L.G.D.A.e.e.} ) i y y + + X T.T.T.T.T.T.T.T.T.T.T.T.T.T.T.T.",
"T.T.T.T.T.T.T.T.T.T.T.T.T.      O.O.w.d.3.c c h.L.v.O.O.c c 8.L.L.L.L.L.L.L.L.L.L.L.H.A.A.4 4 +     T.T.T.T.T.T.T.T.T.T.T.T.T.T.",
"T.T.T.T.T.T.T.T.T.T.T.T.T.      O.O.5.d.5.c V h.L.v.O.O.c c 8.L.L.L.L.L.L.L.L.L.L.L.G.A.A.4 4 +     T.T.T.T.T.T.T.T.T.T.T.T.T.T.",
"T.T.T.T.T.T.T.T.T.T.T.    % 4 4 L.L.u   t Y.Y.K.A.7.4 4 Y.Y.I.L.L.L.L.L.L.L.L.L.L.L.L.L.L.A.A.( 4 >     T.T.T.T.T.T.T.T.T.T.T.T.",
"T.T.T.T.T.T.T.T.T.T.T.    % 4 4 L.L.u   t Y.Y.K.A.7.4 4 Y.Y.I.L.L.L.L.L.L.L.L.L.L.L.L.L.L.A.A.( 4 >     T.T.T.T.T.T.T.T.T.T.T.T.",
"T.T.T.T.T.T.T.T.T.T.T.    w ....L.L.u   = 9.9.N.A.] + + 9.9.c.L.L.L.L.L.L.L.L.L.L.L.L.L.L.H.J.q...m     T.T.T.T.T.T.T.T.T.T.T.T.",
"T.T.T.T.T.T.T.T.T.T.T.    i d.d.L.L.u   $ c c p.A.'     c c 8.L.L.L.L.L.L.L.L.L.L.L.L.L.L.L.L.n.d.{     T.T.T.T.T.T.T.T.T.T.T.T.",
"T.T.T.T.T.T.T.T.T.T.T.. . i g.f.L.L.u   * N V s.S.'     N N 0.L.L.L.L.L.L.L.L.L.L.L.L.L.L.L.L.n.f.,.X X T.T.T.T.T.T.T.T.T.T.T.T.",
"T.T.T.T.T.T.T.T.T.    , 4 [ L.L.L.L.u   = O.O.V.L.:.    O.O.a.L.L.L.L.L.L.L.L.L.L.L.L.L.L.A.A.A.A.a.c c $     T.T.T.T.T.T.T.T.T.",
"T.T.T.T.T.T.T.T.T.    , 4 [ L.L.L.L.u   - O.O.V.L.:.    O.O.a.L.L.L.L.L.L.L.L.L.L.L.L.L.L.A.A.A.A.p.c c $     T.T.T.T.T.T.T.T.T.",
"T.T.T.T.T.T.T.T.T.    C A e.L.L.;.;.q   : r.r.S.L.:.    r.r.6.-.;.;.;.Z.L.L.L.L.L.L.L.L.L.H.H.D.A.h.! ! =     T.T.T.T.T.T.T.T.T.",
"T.T.T.T.T.T.T.T.T.    | O.s.L.L.%.%.0   ; d.d.J.L.:.    d.d.6.%.%.%.%.Z.L.L.L.L.L.L.L.L.L.L.L.J.A.k.O.O.=     T.T.T.T.T.T.T.T.T.",
"T.T.T.T.T.T.T.T.T.    | O.s.L.L.y.y.` u p n.n.J.L.>.u u n.n.j.y.y.y.y.Z.H.L.L.L.L.L.L.L.L.L.L.A.n.g.3.3.-     T.T.T.T.T.T.T.T.T.",
"T.T.T.T.T.T.T.T.T.    | O.a.L.L.L.L.L.L.L.L.L.L.L.L.L.L.L.L.L.L.L.L.L.D.A.S.L.L.L.L.L.L.L.L.L.n.d.d.d.d.;     T.T.T.T.T.T.T.T.T.",
"T.T.T.T.T.T.T.T.T.    | O.a.L.L.L.L.L.L.L.L.L.L.L.L.L.L.L.L.L.L.L.L.L.D.A.S.L.L.L.L.L.L.L.L.L.n.d.d.d.d.;     T.T.T.T.T.T.T.T.T.",
"T.T.T.T.T.T.T.T.T.    1.t.n.L.L.L.L.L.L.x.Z Z m.L.L.L.L.L.L.L.L.L.L.L.k.f.k.S.A.L.L.L.L.L.L.L.e.#.3.d.d.;     T.T.T.T.T.T.T.T.T.",
"T.T.T.T.T.T.T.T.T.    0.d.C.L.L.L.L.L.L.x.c c x.L.L.L.L.L.L.L.L.L.L.L.b.d.g.A.A.L.L.L.L.L.L.L.e.#.$.d.d.;     T.T.T.T.T.T.T.T.T.",
"T.T.T.T.T.T.T.T.T.    S X.e.M.C.G.G.G.G.M.+.@.N.L.L.L.L.L.L.L.L.L.L.L.u.5.w.b.b.D.D.J.G.J.C.C.@.I ! 5.5.=     T.T.T.T.T.T.T.T.T.",
"T.T.T.T.T.T.T.T.T.    f c X.d.d.A.A.A.A.A.A.A.L.L.L.L.L.L.L.L.L.L.L.L.4.O.$.d.d.A.A.A.A.A.d.d.Q c K O.O.=     T.T.T.T.T.T.T.T.T.",
"T.T.T.T.T.T.T.T.T.    g l o.d.d.A.A.A.A.A.A.A.L.L.L.L.L.L.L.L.L.L.L.H.3.o.#.t.t.b.M.M.M.M.r.r.P c V  . .=     T.T.T.T.T.T.T.T.T.",
"T.T.T.T.T.T.T.T.T.    , , S d.d.A.A.A.A.A.A.A.A.M.A.A.A.A.A.A.A.A.A.A.P c N O.#.O.O.O.O.O.c c P O.L 4 4 o     T.T.T.T.T.T.T.T.T.",
"T.T.T.T.T.T.T.T.T.    , 4 _ d.d.A.A.A.A.A.A.A.A.C.A.A.F.A.A.F.A.A.A.A.L c K O.O.O.O.O.O.O.c c P O.L 4 4 o     T.T.T.T.T.T.T.T.T.",
"T.T.T.T.T.T.T.T.T.T.T.+ + r Q ! b.g.g.g.k.k.k.r.w.3.X.X.( ( ( C ( ( ( V c c K K K K K K K P P I K z + + o T.T.T.T.T.T.T.T.T.T.T.",
"T.T.T.T.T.T.T.T.T.T.T.    2 c c d.d.d.d.d.d.d.$.O.P c c 4 4 4 4 4 4 4 k c c c c c c c c c O.#.K c d     T.T.T.T.T.T.T.T.T.T.T.T.",
"T.T.T.T.T.T.T.T.T.T.T.    < d d 4.4.4.4.3.+.+.o.~ U G G x x / / / x x V G G k k v B B B B A A z d 8     T.T.T.T.T.T.T.T.T.T.T.T.",
"T.T.T.T.T.T.T.T.T.T.T.T.T.      c c c c f 4 4 b H T %.%.A.A.P.Y.U.A.A.-.%.Y 4 4  .O.O.O.O.4 4 +     T.T.T.T.T.T.T.T.T.T.T.T.T.T.",
"T.T.T.T.T.T.T.T.T.T.T.T.T.      c c c c k 4 4 b H T %.%.A.A.P.Y.U.A.A.;.%.Y 4 4  .O.O.O.O.4 4 +     T.T.T.T.T.T.T.T.T.T.T.T.T.T.",
"T.T.T.T.T.T.T.T.T.T.T.T.T.T.T.T.o X > 5 a F F E W %.%.%.*.*.-.-.-.*.*.&.%.R h h 6 6 < + O . . T.T.T.T.T.T.T.T.T.T.T.T.T.T.T.T.T.",
"T.T.T.T.T.T.T.T.T.T.T.T.T.T.T.T.    & 4 a H H W %.%.%.%.%.%.%.%.%.%.%.%.%.R j j 3 4 %         T.T.T.T.T.T.T.T.T.T.T.T.T.T.T.T.T.",
"T.T.T.T.T.T.T.T.T.T.T.T.T.T.T.T.    @ & 3 D D J T T T T T T T T T T T T Y J s s > & +         T.T.T.T.T.T.T.T.T.T.T.T.T.T.T.T.T.",
"T.T.T.T.T.T.T.T.T.T.T.T.T.T.T.T.T.T.    # j j j j j j j j j j j j j j j j h 4 4 .     T.T.T.T.T.T.T.T.T.T.T.T.T.T.T.T.T.T.T.T.T.",
"T.T.T.T.T.T.T.T.T.T.T.T.T.T.T.T.T.T.    # j j j j j j j j j j j j j j j j h 4 4 .     T.T.T.T.T.T.T.T.T.T.T.T.T.T.T.T.T.T.T.T.T.",
"T.T.T.T.T.T.T.T.T.T.T.T.T.T.T.T.T.T.T.T.T.                                      T.T.T.T.T.T.T.T.T.T.T.T.T.T.T.T.T.T.T.T.T.T.T.T.",
"T.T.T.T.T.T.T.T.T.T.T.T.T.T.T.T.T.T.T.T.T.                                      T.T.T.T.T.T.T.T.T.T.T.T.T.T.T.T.T.T.T.T.T.T.T.T.",
"T.T.T.T.T.T.T.T.T.T.T.T.T.T.T.T.T.T.T.T.T.T.T.T.T.T.T.T.T.T.T.T.T.T.T.T.T.T.T.T.T.T.T.T.T.T.T.T.T.T.T.T.T.T.T.T.T.T.T.T.T.T.T.T.",
"T.T.T.T.T.T.T.T.T.T.T.T.T.T.T.T.T.T.T.T.T.T.T.T.T.T.T.T.T.T.T.T.T.T.T.T.T.T.T.T.T.T.T.T.T.T.T.T.T.T.T.T.T.T.T.T.T.T.T.T.T.T.T.T.",
"T.T.T.T.T.T.T.T.T.T.T.T.T.T.T.T.T.T.T.T.T.T.T.T.T.T.T.T.T.T.T.T.T.T.T.T.T.T.T.T.T.T.T.T.T.T.T.T.T.T.T.T.T.T.T.T.T.T.T.T.T.T.T.T.",
"T.T.T.T.T.T.T.T.T.T.T.T.T.T.T.T.T.T.T.T.T.T.T.T.T.T.T.T.T.T.T.T.T.T.T.T.T.T.T.T.T.T.T.T.T.T.T.T.T.T.T.T.T.T.T.T.T.T.T.T.T.T.T.T.",
"T.T.T.T.T.T.T.T.T.T.T.T.T.T.T.T.T.T.T.T.T.T.T.T.T.T.T.T.T.T.T.T.T.T.T.T.T.T.T.T.T.T.T.T.T.T.T.T.T.T.T.T.T.T.T.T.T.T.T.T.T.T.T.T.",
"T.T.T.T.T.T.T.T.T.T.T.T.T.T.T.T.T.T.T.T.T.T.T.T.T.T.T.T.T.T.T.T.T.T.T.T.T.T.T.T.T.T.T.T.T.T.T.T.T.T.T.T.T.T.T.T.T.T.T.T.T.T.T.T.",
"T.T.T.T.T.T.T.T.T.T.T.T.T.T.T.T.T.T.T.T.T.T.T.T.T.T.T.T.T.T.T.T.T.T.T.T.T.T.T.T.T.T.T.T.T.T.T.T.T.T.T.T.T.T.T.T.T.T.T.T.T.T.T.T.",
"T.T.T.T.T.T.T.T.T.T.T.T.T.T.T.T.T.T.T.T.T.T.T.T.T.T.T.T.T.T.T.T.T.T.T.T.T.T.T.T.T.T.T.T.T.T.T.T.T.T.T.T.T.T.T.T.T.T.T.T.T.T.T.T.",
"T.T.T.T.T.T.T.T.T.T.T.T.T.T.T.T.T.T.T.T.T.T.T.T.T.T.T.T.T.T.T.T.T.T.T.T.T.T.T.T.T.T.T.T.T.T.T.T.T.T.T.T.T.T.T.T.T.T.T.T.T.T.T.T.",
"T.T.T.T.T.T.T.T.T.T.T.T.T.T.T.T.T.T.T.T.T.T.T.T.T.T.T.T.T.T.T.T.T.T.T.T.T.T.T.T.T.T.T.T.T.T.T.T.T.T.T.T.T.T.T.T.T.T.T.T.T.T.T.T.",
"T.T.T.T.T.T.T.T.T.T.T.T.T.T.T.T.T.T.T.T.T.T.T.T.T.T.T.T.T.T.T.T.T.T.T.T.T.T.T.T.T.T.T.T.T.T.T.T.T.T.T.T.T.T.T.T.T.T.T.T.T.T.T.T."
};
