/* XPM */
static char *result[] = {
/* columns rows colors chars-per-pixel */
"64 64 173 2 ",
"   c black",
".  c #0E0202",
"X  c #160306",
"o  c #190404",
"O  c #1A000A",
"+  c #1C090E",
"@  c #170009",
"#  c #250606",
"$  c #2A0707",
"%  c #2D000A",
"&  c #2D080E",
"*  c #27020C",
"=  c #310808",
"-  c #3D0A0A",
";  c #3F010D",
":  c #200310",
">  c #350013",
",  c #380A12",
"<  c #3A031B",
"1  c #201F20",
"2  c #382324",
"3  c #44000F",
"4  c #4A0C0C",
"5  c #560E0E",
"6  c #420D15",
"7  c #50001E",
"8  c #5A101C",
"9  c #6E0E13",
"0  c #620C11",
"q  c #631010",
"w  c #73171D",
"e  c #780C16",
"r  c #400621",
"t  c #5F1624",
"y  c #531B2B",
"u  c #511927",
"i  c #711422",
"p  c #751C23",
"a  c #462935",
"s  c #5C2A3D",
"d  c #572133",
"f  c #6F2439",
"g  c #612232",
"h  c #7A364F",
"j  c #7B3852",
"k  c #7D415B",
"l  c #88001E",
"z  c #8C081C",
"x  c #810A19",
"c  c #82161F",
"v  c #8E0A29",
"b  c #990122",
"n  c #8B1826",
"m  c #811E28",
"M  c #961B2A",
"N  c #9A192D",
"B  c #9C0831",
"V  c #980033",
"C  c #821E32",
"Z  c #9E1C32",
"A  c #9B1339",
"S  c #AB0226",
"D  c #AF022A",
"F  c #B50029",
"G  c #B9002E",
"H  c #A01C2F",
"J  c #A6033B",
"K  c #BE0234",
"L  c #BA0932",
"P  c #B90138",
"I  c #872A3C",
"U  c #B52039",
"Y  c #C4003C",
"T  c #951E4D",
"R  c #B90442",
"E  c #A00F52",
"W  c #B81A43",
"Q  c #8D2D47",
"!  c #AB2944",
"~  c #BA2540",
"^  c #BD2A46",
"/  c #BE2C4A",
"(  c #B0344E",
")  c #A73756",
"_  c #B93A57",
"`  c #C70640",
"'  c #CA0043",
"]  c #CB0149",
"[  c #D2004D",
"{  c #C71E4C",
"}  c #C81748",
"|  c #D60052",
" . c #D90655",
".. c #DB0358",
"X. c #D7085A",
"o. c #C51558",
"O. c #D21754",
"+. c #E0065E",
"@. c #C9244E",
"#. c #C42F4F",
"$. c #C62850",
"%. c #CE2E57",
"&. c #C93456",
"*. c #C73A5B",
"=. c #CF395D",
"-. c #D3345F",
";. c #E60965",
":. c #EA0C6B",
">. c #EF0F71",
",. c #F51277",
"<. c #FA157E",
"1. c #DA2763",
"2. c #CE3E62",
"3. c #D63867",
"4. c #D73F6D",
"5. c #EE307B",
"6. c #AD405A",
"7. c #804963",
"8. c #8B4360",
"9. c #C34064",
"0. c #CD4569",
"q. c #D24A6E",
"w. c #D8446C",
"e. c #DE4973",
"r. c #D24D74",
"t. c #DD527B",
"y. c #E14E79",
"u. c #E3537F",
"i. c #FF1884",
"p. c #F03682",
"a. c #E75886",
"s. c #E75E8B",
"d. c #EA5D8C",
"f. c #E55784",
"g. c #D26895",
"h. c #E8608F",
"j. c #E36791",
"k. c #ED6392",
"l. c #EA6898",
"z. c #F16798",
"x. c #F46C9E",
"c. c #F85BA1",
"v. c #FF5DB1",
"b. c #EE75A8",
"n. c #EC75A3",
"m. c #F771A5",
"M. c #F876AA",
"N. c #F979AD",
"B. c #F479AA",
"V. c #FA7DB3",
"C. c #F37EB2",
"Z. c #EC81B5",
"A. c #F781B2",
"S. c #FB82B5",
"D. c #FC85B9",
"F. c #FC89BD",
"G. c #F483B8",
"H. c #EC96B9",
"J. c #FD8DC2",
"K. c #FC8FC8",
"L. c #FF92C6",
"P. c #FE95CB",
"I. c #FF98CF",
"U. c #FF9BD4",
"Y. c #FF9ED8",
"T. c #FFA2DE",
"R. c #FDACDB",
"E. c #FABFDA",
"W. c #FFB8E6",
"Q. c #ECC4CE",
"!. c #FDDBEB",
"~. c #FFFBFF",
"^. c None",
/* pixels */
"^.^.^.^.^.^.^.^.^.^.^.^.^.^.^.^.^.^.^.^.^.^.^.^.^.^.^.^.^.^.^.^.^.^.^.^.^.^.^.^.^.^.^.^.^.^.^.^.^.^.^.^.^.^.^.^.^.^.^.^.^.^.^.^.",
"^.^.^.^.^.^.^.^.^.^.^.^.^.^.^.^.^.^.^.^.^.^.^.^.^.^.^.^.^.^.^.^.^.^.^.^.^.^.^.^.^.^.^.^.^.^.^.^.^.^.^.^.^.^.^.^.^.^.^.^.^.^.^.^.",
"^.^.^.^.^.^.^.^.^.^.^.^.^.^.^.^.^.^.^.^.^.^.^.^.^.^.^.^.^.^.^.^.^.^.^.^.^.^.^.^.^.^.^.^.^.^.^.^.^.^.^.^.^.^.^.^.^.^.^.^.^.^.^.^.",
"^.^.^.^.^.^.^.^.^.^.^.^.^.^.^.^.^.^.^.^.^.^.^.^.^.^.^.^.^.^.^.^.^.^.^.^.^.^.^.^.^.^.^.^.^.^.^.^.^.^.^.^.^.^.^.^.^.^.^.^.^.^.^.^.",
"^.^.^.^.^.^.^.^.^.^.^.^.^.^.^.^.^.^.^.^.^.^.^.^.^.^.^.^.^.^.^.^.^.^.^.^.^.^.^.^.^.^.^.^.^.^.^.^.^.^.^.^.^.^.^.^.^.^.^.^.^.^.^.^.",
"^.^.^.^.^.^.^.^.^.^.^.^.^.^.^.^.^.^.^.^.^.^.^.^.^.^.^.^.^.^.^.^.^.^.^.^.^.^.^.^.^.^.^.^.^.^.^.^.^.^.^.^.^.^.^.^.^.^.^.^.^.^.^.^.",
"^.^.^.^.^.^.^.^.^.^.^.^.^.^.^.^.^.^.^.^.^.^.^.^.^.^.^.^.^.^.^.^.^.^.^.^.^.^.^.^.^.^.^.^.^.^.^.^.^.^.^.^.^.^.^.^.^.^.^.^.^.^.^.^.",
"^.^.^.^.^.^.^.^.^.^.^.^.^.^.^.^.^.^.^.^.^.^.^.^.^.^.^.^.^.^.^.^.^.^.^.^.^.^.^.^.^.^.^.^.^.^.^.^.^.^.^.^.^.^.^.^.^.^.^.^.^.^.^.^.",
"^.^.^.^.^.^.^.^.^.^.^.^.^.^.^.^.^.^.^.^.^.^.^.^.^.^.^.^.^.^.^.^.^.^.^.^.^.^.^.^.^.^.^.^.^.^.^.^.^.^.^.^.^.^.^.^.^.^.^.^.^.^.^.^.",
"^.^.^.^.^.^.^.^.^.^.^.^.^.^.^.^.^.^.^.^.^.^.^.^.^.^.^.^.^.^.^.^.^.^.^.^.^.^.^.^.^.^.^.^.^.^.^.^.^.^.^.^.^.^.^.^.^.^.^.^.^.^.^.^.",
"^.^.^.^.^.^.^.^.^.^.^.^.^.^.^.^.^.^.^.^.^.^.^.^.^.^.^.^.^.^.^.^.^.^.^.^.^.^.^.^.^.^.^.^.^.^.^.^.^.^.^.^.^.^.^.^.^.^.^.^.^.^.^.^.",
"^.^.^.^.^.^.^.^.^.^.^.^.^.^.^.^.^.^.^.^.^.^.^.^.^.^.^.^.^.^.^.^.^.^.^.^.^.^.^.^.^.^.^.^.^.^.^.^.^.^.^.^.^.^.^.^.^.^.^.^.^.^.^.^.",
"^.^.^.^.^.^.^.^.^.^.^.^.^.^.^.^.^.^.^.^.^.^.^.^.                                      ^.^.^.^.^.^.^.^.^.^.^.^.^.^.^.^.^.^.^.^.^.",
"^.^.^.^.^.^.^.^.^.^.^.^.^.^.^.^.^.^.^.^.^.^.^.^.                                      ^.^.^.^.^.^.^.^.^.^.^.^.^.^.^.^.^.^.^.^.^.",
"^.^.^.^.^.^.^.^.^.^.^.^.^.^.^.^.^.^.^.              ) e.a.m.m.J.L.L.L.J.m.m.a.e.)               ^.^.^.^.^.^.^.^.^.^.^.^.^.^.^.^.",
"^.^.^.^.^.^.^.^.^.^.^.^.^.^.^.^.^.^.^.              ) e.a.m.m.J.L.L.L.J.m.m.a.e.)               ^.^.^.^.^.^.^.^.^.^.^.^.^.^.^.^.",
"^.^.^.^.^.^.^.^.^.^.^.^.^.^.^.^.^.        , 8 t 7.7.g.n.A.F.J.I.U.U.U.U.J.J.C.b.g.j h t 8 ,         ^.^.^.^.^.^.^.^.^.^.^.^.^.^.",
"^.^.^.^.^.^.^.^.^.^.^.^.^.^.^.^.          i U / L.L.T.T.T.T.T.T.Y.T.T.T.T.T.T.T.P.m.m.^ U i         ^.^.^.^.^.^.^.^.^.^.^.^.^.^.",
"^.^.^.^.^.^.^.^.^.^.^.^.^.^.^.^.      + + C / *.A.G.U.T.T.T.T.T.T.T.T.T.T.T.T.T.U.M.M.*./ C @ X     ^.^.^.^.^.^.^.^.^.^.^.^.^.^.",
"^.^.^.^.^.^.^.^.^.^.^.^.^.^.^.^.      e.e.B.L.G.U U Z.T.T.T.T.T.T.T.T.T.T.T.T.T.T.T.T.P.P.j.U U     ^.^.^.^.^.^.^.^.^.^.^.^.^.^.",
"^.^.^.^.^.^.^.^.^.^.^.^.^.^.^.^.      e.e.B.L.A.U U Z.T.T.T.T.T.T.T.T.T.T.T.T.T.T.T.T.L.L.j.U U     ^.^.^.^.^.^.^.^.^.^.^.^.^.^.",
"^.^.^.^.^.^.^.^.^.^.^.^.^.^.    $ 4 4 z.z.8.a a Q.Q.R.T.T.P.P.P.I.U.T.T.T.T.T.T.T.T.T.Y.Y.G.s.s.          ^.^.^.^.^.^.^.^.^.^.^.",
"^.^.^.^.^.^.^.^.^.^.^.^.^.^.    = q q m.m.s   1 ~.~.W.T.I.L.L.L.K.U.T.T.T.T.T.T.T.T.T.T.T.K.m.m.          ^.^.^.^.^.^.^.^.^.^.^.",
"^.^.^.^.^.^.^.^.^.^.^.^.^.^.    6 m m s.s.g o 2 !.!.R.Y.P.A.A.A.C.J.I.I.Y.Y.T.T.T.T.T.T.T.P.V.V.& & X     ^.^.^.^.^.^.^.^.^.^.^.",
"^.^.^.^.^.^.^.^.^.^.^.^.^.^.    f e.e.U U c q p m.m.F.L.B.e.e.e.e.s.m.M.K.L.U.T.T.T.T.T.T.T.T.T.U U 6     ^.^.^.^.^.^.^.^.^.^.^.",
"^.^.^.^.^.^.^.^.^.^.^.^.^.^.    f e.e.U U c q p m.m.F.L.B.e.e.e.e.d.m.M.L.L.U.T.T.T.T.T.T.T.T.T.U U 6     ^.^.^.^.^.^.^.^.^.^.^.",
"^.^.^.^.^.^.^.^.^.^.^.^.^.^.    h x.x.X X Q 0.r.Y.Y.h.u.a.x.x.S.D.P.U.U.Y.T.T.T.T.T.T.T.T.T.T.T.w.w.y     ^.^.^.^.^.^.^.^.^.^.^.",
"^.^.^.^.^.^.^.^.^.^.^.^.^.^.    j m.m.    Q e.f.T.T.h.e.a.m.m.J.L.U.T.T.T.T.T.T.T.T.T.T.T.T.T.T.e.y.y     ^.^.^.^.^.^.^.^.^.^.^.",
"^.^.^.^.^.^.^.^.^.^.^.^.^.^.    k S.S.    T 5.p.v.v.4.&.t.S.S.P.U.Y.T.T.T.T.T.T.Y.U.U.T.T.T.T.T.a.d.d     ^.^.^.^.^.^.^.^.^.^.^.",
"^.^.^.^.^.^.^.^.^.^.^.^.^.^.    7.L.L.    E i.i.i.i.{ U q.L.L.Y.T.T.T.T.T.T.T.T.Y.L.L.T.T.T.T.T.m.m.s     ^.^.^.^.^.^.^.^.^.^.^.",
"^.^.^.^.^.^.^.^.^.^.^.^.^.^.    7.L.L.    E i.i.i.i.{ U q.L.L.T.T.T.T.T.T.T.T.T.Y.L.L.T.T.T.T.T.m.m.s     ^.^.^.^.^.^.^.^.^.^.^.",
"^.^.^.^.^.^.^.^.^.^.^.^.^.^.    7.L.L.T.T.T.T.T.T.T.9.U =.m.m.L.L.L.L.L.L.L.L.L.L.L.L.T.T.T.T.T.m.m.s     ^.^.^.^.^.^.^.^.^.^.^.",
"^.^.^.^.^.^.^.^.^.^.^.^.^.^.    k L.L.T.T.T.T.T.T.T.9.U 2.m.m.J.L.L.L.L.L.L.L.L.L.L.L.Y.T.T.T.T.m.m.s     ^.^.^.^.^.^.^.^.^.^.^.",
"^.^.^.^.^.^.^.^.^.^.        - 4 I q.q.I.I.Y.T.T.T.T.t.=.w.a.a.N.V.J.L.L.L.L.L.L.P.Y.Y.T.T.Y.I.I.a.a.d     ^.^.^.^.^.^.^.^.^.^.^.",
"^.^.^.^.^.^.^.^.^.          5 q n U U L.L.U.T.T.T.T.s.e.e.e.e.x.m.V.L.L.L.L.L.L.I.T.T.T.T.Y.L.L.e.e.y     ^.^.^.^.^.^.^.^.^.^.^.",
"^.^.^.^.^.^.^.^.^.O X O : : q 9 M / ^ L.J.I.T.T.T.T.l.u.y.e.e.k.z.B.F.F.J.J.L.P.P.T.T.Y.Y.U.J.J.e.e.y     ^.^.^.^.^.^.^.^.^.^.^.",
"^.^.^.^.^.^.^.    l F ` i.i.K F 3.m.m.m.m.D.L.L.T.T.I.L.B.e.e.~ U &.e.y.m.m.J.T.T.T.T.P.L.D.m.m.e.e.y     ^.^.^.^.^.^.^.^.^.^.^.",
"^.^.^.^.^.^.^.    l F ` i.i.L F 3.m.m.m.m.D.L.L.T.T.P.L.B.e.e.U U &.e.y.m.m.P.T.T.T.T.P.L.D.m.m.e.e.y     ^.^.^.^.^.^.^.^.^.^.^.",
"^.^.^.^.^.^.^.    V [  .i.i.[ ] 1.u.u.m.m.N.N.N.V.V.L.L.F.A.N.n.n.B.C.S.F.F.P.P.J.V.V.N.N.M.m.m.^ #.w 4 4     ^.^.^.^.^.^.^.^.^.",
"^.^.^.^.^.^.^.    J | +.i.i...| 1.e.e.m.m.m.m.m.m.m.F.L.L.L.L.L.L.L.L.L.L.L.L.L.F.m.m.m.m.m.m.m.U U c 0 5     ^.^.^.^.^.^.^.^.^.",
"^.^.^.^.^.^.^.    V '  .i.i...| O.&.%.k.k.x.m.m.m.m.V.D.D.D.D.D.D.D.D.D.S.S.D.D.V.m.m.m.m.x.k.k.M M A A A 7 7 @ ^.^.^.^.^.^.^.^.",
"^.^.^.^.^.^.^.    l F Y i.i...| Y F F e.e.k.m.m.m.m.m.m.m.m.m.m.m.m.m.m.m.m.m.m.m.m.m.m.m.k.e.e.q q o.i.<.| | >     ^.^.^.^.^.^.",
"^.^.^.^.^.^.^.    l F ` i.i...| Y F F y.y.k.m.m.m.m.m.m.m.m.m.m.m.m.m.m.m.m.m.m.m.m.m.m.m.k.e.e.q q o.i.<.| | >     ^.^.^.^.^.^.",
"^.^.^.^.^.^.^.    5 9 x K K [ | | [ [ L G -.y.u.m.m.m.m.m.m.m.m.m.m.m.m.m.m.m.m.m.m.m.f.y._ w w ] ] H.!.E.| | >     ^.^.^.^.^.^.",
"^.^.^.^.^.^.^.    4 q e F F [ | | | | F F %.e.y.m.m.m.m.m.m.m.m.m.m.m.m.m.m.m.m.m.m.m.t.e.( q q | | L.~.!.| | >     ^.^.^.^.^.^.",
"^.^.^.^.^.^.^.    $ = 4 z z P Y ] | | Y Y } @.@.6.6.0.q.t.d.d.d.d.d.d.d.d.d.t.q.0._ 6.$.@.W B B :.:.c.F.V.:.:.<     ^.^.^.^.^.^.",
"^.^.^.^.^.^.^.^.^.    X q q S F Y | | | [ Y F S q q Z U #.e.e.e.e.e.e.e.e.r.#.U Z q q S F Y | | i.i.i.i.i.i.i.r     ^.^.^.^.^.^.",
"^.^.^.^.^.^.^.^.^.    X 5 5 b b P ] ] [ [ K F S q q n Z ! 9.9.9.9.9.9.9.2.9.! Z N 9 9 D G Y ....i.i.i.i.i.<.<.r     ^.^.^.^.^.^.",
"^.^.^.^.^.^.^.^.^.^.^.^.        = q q F F F F S q q o                           % F F [ | ;.i.i.i.i.i.i.<.| | >     ^.^.^.^.^.^.",
"^.^.^.^.^.^.^.^.^.^.^.^.        = q q F F F F S q q o                           % F F [ | ;.i.i.i.i.i.i.i. .| >     ^.^.^.^.^.^.",
"^.^.^.^.^.^.^.^.^.^.^.^.^.^.^.^.o # # 3 3 3 3 3 # # o ^.^.^.^.^.^.^.^.^.^.^.    > ' ' | | ..;.;.i.i.>.;.X.v v $     ^.^.^.^.^.^.",
"^.^.^.^.^.^.^.^.^.^.^.^.^.^.^.^.                    ^.^.^.^.^.^.^.^.^.^.^.^.    > | | | | | | | i.i.;.[ ] q q o     ^.^.^.^.^.^.",
"^.^.^.^.^.^.^.^.^.^.^.^.^.^.^.^.^.                  ^.^.^.^.^.^.^.^.^.^.^.^.    > ] ] [ | | | | ,.,.X.P J 4 4 o   ^.^.^.^.^.^.^.",
"^.^.^.^.^.^.^.^.^.^.^.^.^.^.^.^.^.^.^.^.^.^.^.^.^.^.^.^.^.^.^.^.^.^.^.^.^.^.    % F F [ | | | | | | v q 5     ^.^.^.^.^.^.^.^.^.",
"^.^.^.^.^.^.^.^.^.^.^.^.^.^.^.^.^.^.^.^.^.^.^.^.^.^.^.^.^.^.^.^.^.^.^.^.^.^.    % F F [ | | | | | | v 8 5     ^.^.^.^.^.^.^.^.^.",
"^.^.^.^.^.^.^.^.^.^.^.^.^.^.^.^.^.^.^.^.^.^.^.^.^.^.^.^.^.^.^.^.^.^.^.^.^.^.^.^.^.X X O @ O O @ @ @ X . . ^.^.^.^.^.^.^.^.^.^.^.",
"^.^.^.^.^.^.^.^.^.^.^.^.^.^.^.^.^.^.^.^.^.^.^.^.^.^.^.^.^.^.^.^.^.^.^.^.^.^.^.^.^.                        ^.^.^.^.^.^.^.^.^.^.^.",
"^.^.^.^.^.^.^.^.^.^.^.^.^.^.^.^.^.^.^.^.^.^.^.^.^.^.^.^.^.^.^.^.^.^.^.^.^.^.^.^.^.                        ^.^.^.^.^.^.^.^.^.^.^.",
"^.^.^.^.^.^.^.^.^.^.^.^.^.^.^.^.^.^.^.^.^.^.^.^.^.^.^.^.^.^.^.^.^.^.^.^.^.^.^.^.^.^.^.^.^.^.^.^.^.^.^.^.^.^.^.^.^.^.^.^.^.^.^.^.",
"^.^.^.^.^.^.^.^.^.^.^.^.^.^.^.^.^.^.^.^.^.^.^.^.^.^.^.^.^.^.^.^.^.^.^.^.^.^.^.^.^.^.^.^.^.^.^.^.^.^.^.^.^.^.^.^.^.^.^.^.^.^.^.^.",
"^.^.^.^.^.^.^.^.^.^.^.^.^.^.^.^.^.^.^.^.^.^.^.^.^.^.^.^.^.^.^.^.^.^.^.^.^.^.^.^.^.^.^.^.^.^.^.^.^.^.^.^.^.^.^.^.^.^.^.^.^.^.^.^.",
"^.^.^.^.^.^.^.^.^.^.^.^.^.^.^.^.^.^.^.^.^.^.^.^.^.^.^.^.^.^.^.^.^.^.^.^.^.^.^.^.^.^.^.^.^.^.^.^.^.^.^.^.^.^.^.^.^.^.^.^.^.^.^.^.",
"^.^.^.^.^.^.^.^.^.^.^.^.^.^.^.^.^.^.^.^.^.^.^.^.^.^.^.^.^.^.^.^.^.^.^.^.^.^.^.^.^.^.^.^.^.^.^.^.^.^.^.^.^.^.^.^.^.^.^.^.^.^.^.^.",
"^.^.^.^.^.^.^.^.^.^.^.^.^.^.^.^.^.^.^.^.^.^.^.^.^.^.^.^.^.^.^.^.^.^.^.^.^.^.^.^.^.^.^.^.^.^.^.^.^.^.^.^.^.^.^.^.^.^.^.^.^.^.^.^."
};
