/* XPM */
static char *result[] = {
/* columns rows colors chars-per-pixel */
"64 64 172 2 ",
"   c black",
".  c #0B0202",
"X  c #140405",
"o  c #1A0405",
"O  c #1C090E",
"+  c #240606",
"@  c #2D080E",
"#  c #310808",
"$  c #3E0A0A",
"%  c #380A12",
"&  c #37121C",
"*  c #3B141F",
"=  c #3D1C29",
"-  c #3A1723",
";  c #4A0C0C",
":  c #560E0E",
">  c #440C15",
",  c #4A111B",
"<  c #55131C",
"1  c #710019",
"2  c #631010",
"3  c #6E1215",
"4  c #74161B",
"5  c #531B2B",
"6  c #5D1220",
"7  c #4C1825",
"8  c #7C0026",
"9  c #681220",
"0  c #711424",
"q  c #7B1E32",
"w  c #5A263A",
"e  c #5C2A3E",
"r  c #6F2439",
"t  c #632235",
"y  c #7A3849",
"u  c #603D53",
"i  c #7B3852",
"p  c #7E445E",
"a  c #7D4C68",
"s  c #820A19",
"d  c #96061F",
"f  c #960620",
"g  c #9E0024",
"h  c #990A24",
"j  c #831C29",
"k  c #88182B",
"l  c #890134",
"z  c #9E1C32",
"x  c #A10629",
"c  c #B50029",
"v  c #B9002E",
"b  c #B50C2F",
"n  c #AA0639",
"m  c #BD0033",
"M  c #BA0932",
"N  c #AA1E34",
"B  c #A32139",
"V  c #B52039",
"C  c #C5003D",
"Z  c #8B2C45",
"A  c #9F2942",
"S  c #9B3447",
"D  c #923A57",
"F  c #BA2540",
"G  c #BF2A48",
"H  c #BE304E",
"J  c #B0344E",
"K  c #A73756",
"L  c #BF3B5A",
"P  c #A4324C",
"I  c #BF1263",
"U  c #BF2C74",
"Y  c #CA0143",
"T  c #C71947",
"R  c #D60052",
"E  c #DB0358",
"W  c #DC0C59",
"Q  c #CA165B",
"!  c #D41B56",
"~  c #C42F4F",
"^  c #C93456",
"/  c #C53757",
"(  c #EA0C6B",
")  c #E31B68",
"_  c #DE286D",
"`  c #CE3E62",
"'  c #D43F64",
"]  c #C43F70",
"[  c #F22A7D",
"{  c #804B66",
"}  c #9A4666",
"|  c #80516F",
" . c #BF4C6D",
".. c #BB6270",
"X. c #C44064",
"o. c #CF4267",
"O. c #D9446C",
"+. c #D14B6E",
"@. c #DE4973",
"#. c #D64D74",
"$. c #D15077",
"%. c #E14E79",
"&. c #E4537F",
"*. c #FF1884",
"=. c #FF268B",
"-. c #FF3A9A",
";. c #FF3494",
":. c #B65D81",
">. c #AD6087",
",. c #BF79A7",
"<. c #D35981",
"1. c #DF4995",
"2. c #F2448E",
"3. c #E25581",
"4. c #E75886",
"5. c #E65D8B",
"6. c #EA5D8C",
"7. c #FF439B",
"8. c #F6529A",
"9. c #D27386",
"0. c #C76C95",
"q. c #D86391",
"w. c #DF6996",
"e. c #D1618A",
"r. c #ED6393",
"t. c #EC6B9C",
"y. c #E36794",
"u. c #F16799",
"i. c #F46C9E",
"p. c #EA719E",
"a. c #FF4CA6",
"s. c #FF53A7",
"d. c #FF5DB1",
"f. c #D77EAC",
"g. c #F56BA1",
"h. c #E471A0",
"j. c #E97AAA",
"k. c #E279AA",
"l. c #F771A5",
"z. c #F875A9",
"x. c #F979AD",
"c. c #EB7CB0",
"v. c #FA7DB1",
"b. c #F97EB6",
"n. c #B18587",
"m. c #E3829F",
"M. c #EC82AF",
"N. c #E883B4",
"B. c #F480B5",
"V. c #FA84BA",
"C. c #FB89BB",
"Z. c #FB83B6",
"A. c #C4A3A5",
"S. c #DF8EC2",
"D. c #F78CC3",
"F. c #FC8BC1",
"G. c #FC8FC8",
"H. c #EC90C5",
"J. c #FF92C6",
"K. c #F692CA",
"L. c #FD94CB",
"P. c #FF98CF",
"I. c #FB97D1",
"U. c #FE9BD4",
"Y. c #FF9ED9",
"T. c #FFA2DE",
"R. c #FFC2E0",
"E. c #ECDEE1",
"W. c #FFD4EA",
"Q. c #FFF0FB",
"!. c #FFFBFF",
"~. c None",
/* pixels */
"~.~.~.~.~.~.~.~.~.~.~.~.~.~.~.~.~.~.~.~.~.~.~.~.~.~.~.~.~.~.~.~.~.~.~.~.~.~.~.~.~.~.~.~.~.~.~.~.~.~.~.~.~.~.~.~.~.~.~.~.~.~.~.~.",
"~.~.~.~.~.~.~.~.~.~.~.~.~.~.~.~.~.~.~.~.~.~.~.~.~.~.~.~.~.~.~.~.~.~.~.~.~.~.~.~.~.~.~.~.~.~.~.~.~.~.~.~.~.~.~.~.~.~.~.~.~.~.~.~.",
"~.~.~.~.~.~.~.~.~.~.~.~.~.~.~.~.~.~.~.~.~.~.~.~.~.~.~.~.~.~.~.~.~.~.~.~.~.~.~.~.~.~.~.~.~.~.~.~.~.~.~.~.~.~.~.~.~.~.~.~.~.~.~.~.",
"~.~.~.~.~.~.~.~.~.~.~.~.~.~.~.~.~.~.~.~.~.~.~.~.~.~.~.~.~.~.~.~.~.~.~.~.~.~.~.~.~.~.~.~.~.~.~.~.~.~.~.~.~.~.~.~.~.~.~.~.~.~.~.~.",
"~.~.~.~.~.~.~.~.~.~.~.~.~.~.~.~.~.~.~.~.~.~.~.~.~.~.~.~.~.~.~.~.~.~.~.~.~.~.~.~.~.~.~.~.~.~.~.~.~.~.~.~.~.~.~.~.~.~.~.~.~.~.~.~.",
"~.~.~.~.~.~.~.~.~.~.~.~.~.~.~.~.~.~.~.~.~.~.~.~.~.~.~.~.~.~.~.~.~.~.~.~.~.~.~.~.~.~.~.~.~.~.~.~.~.~.~.~.~.~.~.~.~.~.~.~.~.~.~.~.",
"~.~.~.~.~.~.~.~.~.~.~.~.~.~.~.~.~.~.~.~.~.~.~.~.~.~.~.~.~.~.~.~.~.~.~.~.~.~.~.~.~.~.~.~.~.~.~.~.~.~.~.~.~.~.~.~.~.~.~.~.~.~.~.~.",
"~.~.~.~.~.~.~.~.~.~.~.~.~.~.~.~.~.~.~.~.~.~.~.~.~.~.~.~.~.~.~.~.~.~.~.~.~.~.~.~.~.~.~.~.~.~.~.~.~.~.~.~.~.~.~.~.~.~.~.~.~.~.~.~.",
"~.~.~.~.~.~.~.~.~.~.~.~.~.~.~.~.~.~.~.~.~.~.~.~.~.~.~.~.~.~.~.~.~.~.~.~.~.~.~.~.~.~.~.~.~.~.~.~.~.~.~.~.~.~.~.~.~.~.~.~.~.~.~.~.",
"~.~.~.~.~.~.~.~.~.~.~.~.~.~.~.~.~.~.~.~.~.~.~.~.~.~.~.~.~.~.~.~.~.~.~.~.~.~.~.~.~.~.~.~.~.~.~.~.~.~.~.~.~.~.~.~.~.~.~.~.~.~.~.~.",
"~.~.~.~.~.~.~.~.~.~.~.~.~.~.~.~.~.~.~.~.~.~.~.~.~.~.~.~.~.~.~.~.~.~.~.~.~.~.~.~.~.~.~.~.~.~.~.~.~.~.~.~.~.~.~.~.~.~.~.~.~.~.~.~.",
"~.~.~.~.~.~.~.~.~.~.~.~.~.~.~.~.~.~.~.~.~.~.~.~.~.~.~.~.~.~.~.~.~.~.~.~.~.~.~.~.~.~.~.~.~.~.~.~.~.~.~.~.~.~.~.~.~.~.~.~.~.~.~.~.",
"~.~.~.~.~.~.~.~.~.~.~.~.~.~.~.~.~.~.~.~.~.~.~.~.                                ~.~.~.~.~.~.~.~.~.~.~.~.~.~.~.~.~.~.~.~.~.~.~.~.",
"~.~.~.~.~.~.~.~.~.~.~.~.~.~.~.~.~.~.~.~.~.~.~.~.                                  ~.~.~.~.~.~.~.~.~.~.~.~.~.~.~.~.~.~.~.~.~.~.~.",
"~.~.~.~.~.~.~.~.~.~.~.~.~.~.~.~.~.~.~.~.~.~.~.X @ @ & & - = = = = - & % @ @ o o X ~.~.~.~.~.~.~.~.~.~.~.~.~.~.~.~.~.~.~.~.~.~.~.",
"~.~.~.~.~.~.~.~.~.~.~.~.~.~.~.~.~.~.~.        > V V @.@.6.l.l.l.l.3.%.' V V 3 2 #         ~.~.~.~.~.~.~.~.~.~.~.~.~.~.~.~.~.~.~.",
"~.~.~.~.~.~.~.~.~.~.~.~.~.~.~.~.~.~.~.        > V V @.@.5.l.l.l.l.3.@.' V V 3 2 #         ~.~.~.~.~.~.~.~.~.~.~.~.~.~.~.~.~.~.~.",
"~.~.~.~.~.~.~.~.~.~.~.~.~.~.~.~.    % z z f.S.H.K.K.I.I.U.Y.Y.Y.Y.Y.I.I.K.K.H.H.k.q.q.: : +     ~.~.~.~.~.~.~.~.~.~.~.~.~.~.~.~.",
"~.~.~.~.~.~.~.~.~.~.~.~.~.~.~.~.    @ V V K.T.T.T.T.T.T.T.T.T.T.Y.T.T.T.T.T.T.T.F.l.l.2 2 +     ~.~.~.~.~.~.~.~.~.~.~.~.~.~.~.~.",
"~.~.~.~.~.~.~.~.~.~.~.~.~.~.~.~.+ + , ~ ~ y.h.N.T.T.B.b.j.h.k.T.T.T.T.T.T.T.T.T.L.V.V.S S < + o ~.~.~.~.~.~.~.~.~.~.~.~.~.~.~.~.",
"~.~.~.~.~.~.~.~.~.~.~.~.~.~.    $ 2 j @.@.F V $.T.T.@.@.^ V H T.T.T.T.T.T.T.T.T.T.T.T.l.l.S 2 ;     ~.~.~.~.~.~.~.~.~.~.~.~.~.~.",
"~.~.~.~.~.~.~.~.~.~.~.~.~.~.    $ 2 q @.@.F V $.T.T.@.@.^ V H T.T.T.T.T.T.T.T.T.T.T.T.l.l.S 2 ;     ~.~.~.~.~.~.~.~.~.~.~.~.~.~.",
"~.~.~.~.~.~.~.~.~.~.~.~.~.~.    } l.<.2 2 E.!.W.J.J.2 2 n.!.Q.T.T.T.T.T.T.T.T.T.T.T.T.T.T.t.#.K     ~.~.~.~.~.~.~.~.~.~.~.~.~.~.",
"~.~.~.~.~.~.~.~.~.~.~.~.~.~.    } l.<.2 2 E.!.W.J.J.2 2 n.!.Q.T.T.T.T.T.T.T.T.T.T.T.T.T.T.y.@.K     ~.~.~.~.~.~.~.~.~.~.~.~.~.~.",
"~.~.~.~.~.~.~.~.~.~.~.~.  . $ $ ..K.0.+ + ..9.m.J.J.+ + y 9.9.T.T.T.T.T.T.T.T.T.T.T.T.T.T.C.M.e.$ $ X   ~.~.~.~.~.~.~.~.~.~.~.~.",
"~.~.~.~.~.~.~.~.~.~.~.    . 2 2 0.T.,.    z V +.J.J.    < V G T.T.T.T.T.T.T.T.T.T.T.T.T.T.T.T.f.2 2 o     ~.~.~.~.~.~.~.~.~.~.~.",
"~.~.~.~.~.~.~.~.~.~.~.    . 4 4 0.T.,.    B V $.L.L.    6 F ^ T.T.T.T.T.T.T.T.T.T.T.T.T.T.T.T.N.4 4 o     ~.~.~.~.~.~.~.~.~.~.~.",
"~.~.~.~.~.~.~.~.~.~.~.    O @.@.B.T.,.    ] @.t.T.T.    r @.3.T.T.T.T.T.T.T.T.T.T.T.T.T.T.T.T.D.@.@.&     ~.~.~.~.~.~.~.~.~.~.~.",
"~.~.~.~.~.~.~.~.~.~.~.    O @.@.B.T.,.    X.@.t.T.T.    r @.3.Y.T.T.T.T.T.T.T.T.T.T.T.T.T.T.T.D.@.@.&     ~.~.~.~.~.~.~.~.~.~.~.",
"~.~.~.~.~.~.~.~.~.~.~.    O @.@.2.-.U     <.u.b.T.T.    y u.g.-.-.-.-.s.T.T.T.T.T.T.T.T.T.T.T.I.B.B.P k 9     ~.~.~.~.~.~.~.~.~.",
"~.~.~.~.~.~.~.~.~.~.~.    O @.@.=.*.I     e.l.V.T.T.    i l.g.*.*.*.*.-.T.T.T.T.T.T.T.T.T.T.T.Y.J.J./ V 0     ~.~.~.~.~.~.~.~.~.",
"~.~.~.~.~.~.~.~.~.~.~.* 5 t 4.4.8.a.1.u p f.V.G.T.T.u u >.V.b.a.a.a.a.d.T.T.T.T.T.Y.U.T.T.T.T.T.P.P.#.~ q     ~.~.~.~.~.~.~.~.~.",
"~.~.~.~.~.~.~.~.~.    r %.%.l.l.J.T.T.T.T.T.T.T.T.T.T.T.T.T.T.T.T.T.T.T.T.T.T.T.U.J.J.T.T.T.T.T.T.T.5.@.Z     ~.~.~.~.~.~.~.~.~.",
"~.~.~.~.~.~.~.~.~.    r O.%.l.l.J.T.T.T.T.T.T.T.T.T.T.T.T.T.T.T.T.T.T.T.T.T.T.T.I.J.J.T.T.T.T.T.T.T.5.@.Z     ~.~.~.~.~.~.~.~.~.",
"~.~.~.~.~.~.~.~.~.    p V.Z.l.l.K.T.T.T.T.X.G <.T.T.T.T.T.T.T.T.T.T.T.T.T.T.I.L.V.z.z.T.T.T.T.T.T.T.B.i.}     ~.~.~.~.~.~.~.~.~.",
"~.~.~.~.~.~.~.~.~.    { J.F.l.l.G.T.T.T.T.~ V $.T.T.T.T.T.T.T.T.T.T.T.T.T.T.L.L.Z.l.l.T.T.T.T.T.T.T.v.l.}     ~.~.~.~.~.~.~.~.~.",
"~.~.~.~.~.~.~.~.~.    { I.K.6.6.B.I.Y.T.T.w.e.j.T.T.T.T.T.T.T.T.T.U.I.P.F.F.i.t.r.6.6.I.I.Y.T.Y.U.U.t.6.D     ~.~.~.~.~.~.~.~.~.",
"~.~.~.~.~.~.~.~.~.    | T.L.%.@.z.J.L.T.T.T.T.T.T.T.T.T.T.T.T.T.T.P.J.C.l.l.@.@.@.@.@.J.J.Y.T.Y.J.J.5.@.Z     ~.~.~.~.~.~.~.~.~.",
"~.~.~.~.~.~.~.~.~.    a P.D.o.o.p.F.J.T.Y.T.T.Y.Y.Y.I.I.K.K.K.K.K.N.M.j.y.y.@.@.O.O.O.C.C.L.U.I.C.C.&.O.Z     ~.~.~.~.~.~.~.~.~.",
"~.~.~.~.~.~.~.~.~.    r %.o.2 2 X.l.x.J.J.J.J.V.l.l.@.@.^ V V V V 4 2 2 2 : N V V V V @.@.r.l.u.@.@.G V 0     ~.~.~.~.~.~.~.~.~.",
"~.~.~.~.~.~.~.~.~.    r %.o.2 2  .z.v.J.J.J.J.V.l.l.@.@./ V V V V 4 2 2 2 2 N V V V V @.@.r.l.u.@.@.G V 0     ~.~.~.~.~.~.~.~.~.",
"~.~.~.~.~.~.~.~.~.~.~.- 5 7 + + Z o.#.v.v.v.B.g.4.4.T T ! ) ) ) ) ! Q ] A.A._ ) T M b 5 5 w e w 5 5 , , % ~.~.~.~.~.~.~.~.~.~.~.",
"~.~.~.~.~.~.~.~.~.~.~.          0 V / l.l.l.l.r.@.@.c c W *.*.*.*.*.*.a.!.!.;.*.W c c                     ~.~.~.~.~.~.~.~.~.~.~.",
"~.~.~.~.~.~.~.~.~.~.~.~.        3 j A 5.6.r.u.3.L L m m W *.*.*.*.*.*.7.R.R.=.*.W m m                   ~.~.~.~.~.~.~.~.~.~.~.~.",
"~.~.~.~.~.~.~.~.~.~.~.~.~.~.~.~.    @ V V O.@.J 2 2 R R ( *.*.*.*.*.*.*.*.*.*.*.( R R     ~.~.~.~.~.~.~.~.~.~.~.~.~.~.~.~.~.~.~.",
"~.~.~.~.~.~.~.~.~.~.~.~.~.~.~.~.    @ V V O.@.J 2 2 R R ( *.*.*.*.*.*.*.*.*.*.*.( R R     ~.~.~.~.~.~.~.~.~.~.~.~.~.~.~.~.~.~.~.",
"~.~.~.~.~.~.~.~.~.~.~.~.~.~.~.~.~.~.~.X o x M h 2 2 v v Y E E E E E E E E E E E Y v v     ~.~.~.~.~.~.~.~.~.~.~.~.~.~.~.~.~.~.~.",
"~.~.~.~.~.~.~.~.~.~.~.~.~.~.~.~.~.~.~.    g c d 2 2 c c C R R R R R R R R R R R C c c     ~.~.~.~.~.~.~.~.~.~.~.~.~.~.~.~.~.~.~.",
"~.~.~.~.~.~.~.~.~.~.~.~.~.~.~.~.~.~.~.    g c x s s d d x n n n n n n n n n l l 8 1 1     ~.~.~.~.~.~.~.~.~.~.~.~.~.~.~.~.~.~.~.",
"~.~.~.~.~.~.~.~.~.~.~.~.~.~.~.~.~.~.~.    g c c c c 2 2 2 2 2 2 2 2 2 2 2 2 .         ~.~.~.~.~.~.~.~.~.~.~.~.~.~.~.~.~.~.~.~.~.",
"~.~.~.~.~.~.~.~.~.~.~.~.~.~.~.~.~.~.~.    g c c c c 2 2 2 2 2 2 2 2 2 2 2 2 .         ~.~.~.~.~.~.~.~.~.~.~.~.~.~.~.~.~.~.~.~.~.",
"~.~.~.~.~.~.~.~.~.~.~.~.~.~.~.~.~.~.~.~.~.                                  ~.~.~.~.~.~.~.~.~.~.~.~.~.~.~.~.~.~.~.~.~.~.~.~.~.~.",
"~.~.~.~.~.~.~.~.~.~.~.~.~.~.~.~.~.~.~.~.~.                                  ~.~.~.~.~.~.~.~.~.~.~.~.~.~.~.~.~.~.~.~.~.~.~.~.~.~.",
"~.~.~.~.~.~.~.~.~.~.~.~.~.~.~.~.~.~.~.~.~.~.~.~.~.~.~.~.~.~.~.~.~.~.~.~.~.~.~.~.~.~.~.~.~.~.~.~.~.~.~.~.~.~.~.~.~.~.~.~.~.~.~.~.",
"~.~.~.~.~.~.~.~.~.~.~.~.~.~.~.~.~.~.~.~.~.~.~.~.~.~.~.~.~.~.~.~.~.~.~.~.~.~.~.~.~.~.~.~.~.~.~.~.~.~.~.~.~.~.~.~.~.~.~.~.~.~.~.~.",
"~.~.~.~.~.~.~.~.~.~.~.~.~.~.~.~.~.~.~.~.~.~.~.~.~.~.~.~.~.~.~.~.~.~.~.~.~.~.~.~.~.~.~.~.~.~.~.~.~.~.~.~.~.~.~.~.~.~.~.~.~.~.~.~.",
"~.~.~.~.~.~.~.~.~.~.~.~.~.~.~.~.~.~.~.~.~.~.~.~.~.~.~.~.~.~.~.~.~.~.~.~.~.~.~.~.~.~.~.~.~.~.~.~.~.~.~.~.~.~.~.~.~.~.~.~.~.~.~.~.",
"~.~.~.~.~.~.~.~.~.~.~.~.~.~.~.~.~.~.~.~.~.~.~.~.~.~.~.~.~.~.~.~.~.~.~.~.~.~.~.~.~.~.~.~.~.~.~.~.~.~.~.~.~.~.~.~.~.~.~.~.~.~.~.~.",
"~.~.~.~.~.~.~.~.~.~.~.~.~.~.~.~.~.~.~.~.~.~.~.~.~.~.~.~.~.~.~.~.~.~.~.~.~.~.~.~.~.~.~.~.~.~.~.~.~.~.~.~.~.~.~.~.~.~.~.~.~.~.~.~.",
"~.~.~.~.~.~.~.~.~.~.~.~.~.~.~.~.~.~.~.~.~.~.~.~.~.~.~.~.~.~.~.~.~.~.~.~.~.~.~.~.~.~.~.~.~.~.~.~.~.~.~.~.~.~.~.~.~.~.~.~.~.~.~.~.",
"~.~.~.~.~.~.~.~.~.~.~.~.~.~.~.~.~.~.~.~.~.~.~.~.~.~.~.~.~.~.~.~.~.~.~.~.~.~.~.~.~.~.~.~.~.~.~.~.~.~.~.~.~.~.~.~.~.~.~.~.~.~.~.~.",
"~.~.~.~.~.~.~.~.~.~.~.~.~.~.~.~.~.~.~.~.~.~.~.~.~.~.~.~.~.~.~.~.~.~.~.~.~.~.~.~.~.~.~.~.~.~.~.~.~.~.~.~.~.~.~.~.~.~.~.~.~.~.~.~.",
"~.~.~.~.~.~.~.~.~.~.~.~.~.~.~.~.~.~.~.~.~.~.~.~.~.~.~.~.~.~.~.~.~.~.~.~.~.~.~.~.~.~.~.~.~.~.~.~.~.~.~.~.~.~.~.~.~.~.~.~.~.~.~.~.",
"~.~.~.~.~.~.~.~.~.~.~.~.~.~.~.~.~.~.~.~.~.~.~.~.~.~.~.~.~.~.~.~.~.~.~.~.~.~.~.~.~.~.~.~.~.~.~.~.~.~.~.~.~.~.~.~.~.~.~.~.~.~.~.~."
};
