/* XPM */
static char *result[] = {
/* columns rows colors chars-per-pixel */
"64 64 169 2 ",
"   c black",
".  c #0C0202",
"X  c #160406",
"o  c #1A0404",
"O  c #14040B",
"+  c #1C090E",
"@  c #1E0D13",
"#  c #1F1016",
"$  c #240606",
"%  c #2D000B",
"&  c #2D080E",
"*  c #310808",
"=  c #3E0A0A",
"-  c #200310",
";  c #350014",
":  c #380A14",
">  c #20131B",
",  c #37121D",
"<  c #3C131A",
"1  c #3E1C29",
"2  c #391420",
"3  c #4A0C0C",
"4  c #47060D",
"5  c #4C0212",
"6  c #440C15",
"7  c #411114",
"8  c #5A101C",
"9  c #770C16",
"0  c #710019",
"q  c #631010",
"w  c #72171C",
"e  c #400621",
"r  c #531320",
"t  c #7F042B",
"y  c #711423",
"u  c #402837",
"i  c #462938",
"p  c #76222A",
"a  c #96061F",
"s  c #82002E",
"d  c #831D29",
"f  c #89142C",
"g  c #961A29",
"h  c #850033",
"j  c #9D1135",
"k  c #A00423",
"l  c #B50029",
"z  c #B9002E",
"x  c #A01C2F",
"c  c #AA0638",
"v  c #BD0033",
"b  c #B3043A",
"n  c #B51C37",
"m  c #8F2036",
"M  c #912535",
"N  c #8A303D",
"B  c #B52039",
"V  c #C5043D",
"C  c #BC0645",
"Z  c #A00F52",
"A  c #8A3444",
"S  c #9F3542",
"D  c #A82B41",
"F  c #BA2540",
"G  c #BE2A46",
"H  c #BF2A48",
"J  c #B0344E",
"K  c #A73756",
"L  c #BE3C52",
"P  c #CA0043",
"I  c #CE0048",
"U  c #C70640",
"Y  c #D2004D",
"T  c #D60052",
"R  c #DC0459",
"E  c #E1065E",
"W  c #E00E5F",
"Q  c #C32F4F",
"!  c #C53353",
"~  c #C93456",
"^  c #CB395C",
"/  c #C53858",
"(  c #E30F62",
")  c #EC0F6C",
"_  c #EF0F72",
"`  c #F61479",
"'  c #FA157D",
"]  c #F51277",
"[  c #CE3E62",
"{  c #D43E64",
"}  c #8A4B4B",
"|  c #9D4054",
" . c #834A64",
".. c #804D69",
"X. c #80516F",
"o. c #965C7E",
"O. c #BF4C6D",
"+. c #B1516B",
"@. c #B04F72",
"#. c #9D6869",
"$. c #C74162",
"%. c #CE4266",
"&. c #DE4973",
"*. c #D5486D",
"=. c #E14E7A",
"-. c #E2537E",
";. c #FF1884",
":. c #F13E8A",
">. c #FC3990",
",. c #9F658B",
"<. c #A0658B",
"1. c #B4678C",
"2. c #AF6C95",
"3. c #BF6B98",
"4. c #D75D84",
"5. c #E45380",
"6. c #E75885",
"7. c #E65D8A",
"8. c #E95E8C",
"9. c #D3658F",
"0. c #D07283",
"q. c #C96D94",
"w. c #CC769F",
"e. c #DA7D94",
"r. c #D76891",
"t. c #E46792",
"y. c #ED6292",
"u. c #E96B9B",
"i. c #F46B9E",
"p. c #F06798",
"a. c #D87EAB",
"s. c #E371A0",
"d. c #E97BAB",
"f. c #EE76A6",
"g. c #F772A5",
"h. c #F376AA",
"j. c #F876AA",
"k. c #F579AC",
"l. c #FF6DB2",
"z. c #FF6EBC",
"x. c #FA7DB2",
"c. c #F57AB3",
"v. c #FE79C1",
"b. c #CF84B4",
"n. c #EB82AF",
"m. c #EC82B5",
"M. c #EC8DB9",
"N. c #F481B5",
"B. c #FB81B5",
"V. c #F585BA",
"C. c #FC86BB",
"Z. c #FD89BD",
"A. c #F68DC3",
"S. c #FC8CC4",
"D. c #FF80C8",
"F. c #FC8FC8",
"G. c #EC90C5",
"H. c #FF92C6",
"J. c #F692CA",
"K. c #FE94CA",
"L. c #FF9BCE",
"P. c #F599CC",
"I. c #FE93D2",
"U. c #FE9BD4",
"Y. c #FF9ED8",
"T. c #FFA2DE",
"R. c #FFC3EA",
"E. c #FFFBFF",
"W. c None",
/* pixels */
"W.W.W.W.W.W.W.W.W.W.W.W.W.W.W.W.W.W.W.W.W.W.W.W.W.W.W.W.W.W.W.W.W.W.W.W.W.W.W.W.W.W.W.W.W.W.W.W.W.W.W.W.W.W.W.W.W.W.W.W.W.W.W.W.",
"W.W.W.W.W.W.W.W.W.W.W.W.W.W.W.W.W.W.W.W.W.W.W.W.W.W.W.W.W.W.W.W.W.W.W.W.W.W.W.W.W.W.W.W.W.W.W.W.W.W.W.W.W.W.W.W.W.W.W.W.W.W.W.W.",
"W.W.W.W.W.W.W.W.W.W.W.W.W.W.W.W.W.W.W.W.W.W.W.W.W.W.W.W.W.W.W.W.W.W.W.W.W.W.W.W.W.W.W.W.W.W.W.W.W.W.W.W.W.W.W.W.W.W.W.W.W.W.W.W.",
"W.W.W.W.W.W.W.W.W.W.W.W.W.W.W.W.W.W.W.W.W.W.W.W.W.W.W.W.W.W.W.W.W.W.W.W.W.W.W.W.W.W.W.W.W.W.W.W.W.W.W.W.W.W.W.W.W.W.W.W.W.W.W.W.",
"W.W.W.W.W.W.W.W.W.W.W.W.W.W.W.W.W.W.W.W.W.W.W.W.W.W.W.W.W.W.W.W.W.W.W.W.W.W.W.W.W.W.W.W.W.W.W.W.W.W.W.W.W.W.W.W.W.W.W.W.W.W.W.W.",
"W.W.W.W.W.W.W.W.W.W.W.W.W.W.W.W.W.W.W.W.W.W.W.W.W.W.W.W.W.W.W.W.W.W.W.W.W.W.W.W.W.W.W.W.W.W.W.W.W.W.W.W.W.W.W.W.W.W.W.W.W.W.W.W.",
"W.W.W.W.W.W.W.W.W.W.W.W.W.W.W.W.W.W.W.W.W.W.W.W.W.W.W.W.W.W.W.W.W.W.W.W.W.W.W.W.W.W.W.W.W.W.W.W.W.W.W.W.W.W.W.W.W.W.W.W.W.W.W.W.",
"W.W.W.W.W.W.W.W.W.W.W.W.W.W.W.W.W.W.W.W.W.W.W.W.W.W.W.W.W.W.W.W.W.W.W.W.W.W.W.W.W.W.W.W.W.W.W.W.W.W.W.W.W.W.W.W.W.W.W.W.W.W.W.W.",
"W.W.W.W.W.W.W.W.W.W.W.W.W.W.W.W.W.W.W.W.W.W.W.W.W.W.W.W.W.W.W.W.W.W.W.W.W.W.W.W.W.W.W.W.W.W.W.W.W.W.W.W.W.W.W.W.W.W.W.W.W.W.W.W.",
"W.W.W.W.W.W.W.W.W.W.W.W.W.W.W.W.W.W.W.W.W.W.W.W.W.W.W.W.W.W.W.W.W.W.W.W.W.W.W.W.W.W.W.W.W.W.W.W.W.W.W.W.W.W.W.W.W.W.W.W.W.W.W.W.",
"W.W.W.W.W.W.W.W.W.W.W.W.W.W.W.W.W.W.W.W.W.W.W.W.W.W.W.W.W.W.W.W.W.W.W.W.W.W.W.W.W.W.W.W.W.W.W.W.W.W.W.W.W.W.W.W.W.W.W.W.W.W.W.W.",
"W.W.W.W.W.W.W.W.W.W.W.W.W.W.W.W.W.W.W.W.W.W.W.W.W.W.W.W.W.W.W.W.W.W.W.W.W.W.W.W.W.W.W.W.W.W.W.W.W.W.W.W.W.W.W.W.W.W.W.W.W.W.W.W.",
"W.W.W.W.W.W.W.W.W.W.W.W.W.W.W.W.W.W.W.W.W.W.W.W.W.W.W.W.W.W.W.W.W.W.W.W.W.W.W.W.W.W.W.W.W.W.W.W.W.W.W.W.W.W.W.W.W.W.W.W.W.W.W.W.",
"W.W.W.W.W.W.W.W.W.W.W.W.W.W.W.W.W.W.W.W.W.W.W.W.W.W.W.W.W.W.W.W.W.W.W.W.W.W.W.W.W.W.W.W.W.W.W.W.W.W.W.W.W.W.W.W.W.W.W.W.W.W.W.W.",
"W.W.W.W.W.W.W.W.W.W.W.W.W.W.W.W.W.W.W.W.W.W.W.W.W.W.W.W.W.W.W.W.W.W.W.W.W.W.W.W.W.W.W.W.W.W.W.W.W.W.W.W.W.W.W.W.W.W.W.W.W.W.W.W.",
"W.W.W.W.W.W.W.W.W.W.W.W.W.W.W.W.W.W.W.W.W.                                          W.W.W.W.W.W.W.W.W.W.W.W.W.W.W.W.W.W.W.W.W.W.",
"W.W.W.W.W.W.W.W.W.W.W.W.W.W.W.W.W.W.W.W.W.                                            W.W.W.W.W.W.W.W.W.W.W.W.W.W.W.W.W.W.W.W.W.",
"W.W.W.W.W.W.W.W.W.W.W.W.W.W.W.W.W.W.W.W.W.+ + @ @ # > > > > > > > > > > # @ @ + . . . W.W.W.W.W.W.W.W.W.W.W.W.W.W.W.W.W.W.W.W.W.",
"W.W.W.W.W.W.W.W.W.W.W.W.W.W.W.W.        , &.&.i.g.B.H.H.T.T.T.T.T.T.T.L.H.h.&.&.q q *         W.W.W.W.W.W.W.W.W.W.W.W.W.W.W.W.W.",
"W.W.W.W.W.W.W.W.W.W.W.W.W.W.W.W.        , &.&.i.g.B.H.H.T.T.T.T.T.T.T.K.H.h.&.&.q q *         W.W.W.W.W.W.W.W.W.W.W.W.W.W.W.W.W.",
"W.W.W.W.W.W.W.W.W.W.W.W.W.W.  O K K M d d d d m.I.k.7.7.$.$.d.T.T.T.T.T.U.L.A.A.a.a.w.3.1.3 3 X     W.W.W.W.W.W.W.W.W.W.W.W.W.W.",
"W.W.W.W.W.W.W.W.W.W.W.W.W.    + &.&.Q B x q q G.T.f.&.&.B B s.T.T.T.T.T.T.T.T.T.T.T.U.H.n.q q o     W.W.W.W.W.W.W.W.W.W.W.W.W.W.",
"W.W.W.W.W.W.W.W.W.W.W.W.W.$ $ < u.u.D g S #.#.P.U.r.J J 0.0.M.T.T.T.T.T.T.T.T.T.T.T.U.L.A.| | 7 $ o W.W.W.W.W.W.W.W.W.W.W.W.W.W.",
"W.W.W.W.W.W.W.W.W.W.W.    = q p T.Y.A q } E.E.L.H.+.q q E.E.R.T.T.T.T.T.T.T.T.T.T.T.T.T.T.H.H.N q 3     W.W.W.W.W.W.W.W.W.W.W.W.",
"W.W.W.W.W.W.W.W.W.W.W.    = q p T.T.A q } E.E.L.H.+.q q E.E.R.T.T.T.T.T.T.T.T.T.T.T.T.T.T.H.H.N q 4     W.W.W.W.W.W.W.W.W.W.W.W.",
"W.W.W.W.W.W.W.W.W.W.W.    o.G.G.T.T.i . : L L N.H. .. . L L d.T.T.T.T.T.T.T.T.T.T.T.T.T.T.T.Y.h.t.+.    W.W.W.W.W.W.W.W.W.W.W.W.",
"W.W.W.W.W.W.W.W.W.W.W.    <.T.T.T.T.u   & B B V.H. .    B B s.T.T.T.T.T.T.T.T.T.T.T.T.T.T.T.T.x.g.@.    W.W.W.W.W.W.W.W.W.W.W.W.",
"W.W.W.W.W.W.W.W.W.    * & 1.T.T.T.T.u   : ~ ~ A.L.X.    ~ ~ d.T.T.T.T.T.T.T.T.T.T.T.T.T.T.L.L.C.B.r.8 8 O   W.W.W.W.W.W.W.W.W.W.",
"W.W.W.W.W.W.W.W.W.    q q q.T.T.T.T.u   2 &.&.U.T.X.    &.&.N.T.T.T.T.T.T.T.T.T.T.T.T.T.T.H.H.H.H.f.B B X     W.W.W.W.W.W.W.W.W.",
"W.W.W.W.W.W.W.W.W.    w w q.T.T.I.I.u   2 =.&.I.T.X.    =.=.c.I.I.I.I.T.T.T.T.T.T.T.T.T.T.K.K.H.H.f.F F X     W.W.W.W.W.W.W.W.W.",
"W.W.W.W.W.W.W.W.W.    &.&.N.T.I.;.;.e   1 g.g.U.T.X.    g.g.>.;.;.;.;.D.T.T.T.T.T.T.T.T.T.T.T.K.H.B.&.&.+     W.W.W.W.W.W.W.W.W.",
"W.W.W.W.W.W.W.W.W.    &.&.N.T.I.;.;.e   1 g.g.U.T.X.    g.g.>.;.;.;.;.D.T.T.T.T.T.T.T.T.T.T.T.K.H.N.&.&.@     W.W.W.W.W.W.W.W.W.",
"W.W.W.W.W.W.W.W.W.    &.&.c.T.U.z.v.3.,.2.F.J.Y.T.b.,.,.F.K.v.z.z.z.z.F.I.U.T.T.T.T.T.T.T.T.T.C.x.k.y.y.+     W.W.W.W.W.W.W.W.W.",
"W.W.W.W.W.W.W.W.W.    &.&.V.T.T.T.T.T.T.T.T.T.T.T.T.T.T.T.T.T.T.T.T.T.K.H.L.T.T.T.T.T.T.T.T.T.x.g.g.g.g.>     W.W.W.W.W.W.W.W.W.",
"W.W.W.W.W.W.W.W.W.    5.5.V.T.T.T.T.T.T.U.m.m.Y.T.T.T.T.T.T.T.T.T.T.T.F.Z.H.Y.Y.T.T.T.T.T.T.T.k.p.i.g.g.@     W.W.W.W.W.W.W.W.W.",
"W.W.W.W.W.W.W.W.W.    g.j.J.T.T.T.T.T.T.m.n B J.T.T.T.T.T.T.T.T.T.T.T.x.g.x.H.H.T.T.T.T.T.T.T.8.=.-.g.g.@     W.W.W.W.W.W.W.W.W.",
"W.W.W.W.W.W.W.W.W.    g.g.J.T.T.T.T.T.T.m.n B J.T.T.T.T.T.T.T.T.T.T.T.x.g.x.H.H.T.T.T.T.T.T.T.7.&.-.g.g.-     W.W.W.W.W.W.W.W.W.",
"W.W.W.W.W.W.W.W.W.    G G u.H.K.T.T.T.T.T.J.J.T.T.T.T.T.T.T.T.T.Y.K.K.8.=.8.j.j.H.H.L.H.H.k.k.^ B ~ g.g.>     W.W.W.W.W.W.W.W.W.",
"W.W.W.W.W.W.W.W.W.    B B t.H.K.T.T.T.T.T.T.T.T.T.T.T.T.T.T.T.T.Y.H.H.7.&.6.g.i.H.H.H.H.S.g.g.! B ~ g.g.>     W.W.W.W.W.W.W.W.W.",
"W.W.W.W.W.W.W.W.W.    g g 4.C.Z.U.I.T.T.T.T.T.T.T.T.T.T.U.U.K.S.V.t.t.*.^ &.y.y.f.h.h.h.h.y.y.! B ! y.y.$     W.W.W.W.W.W.W.W.W.",
"W.W.W.W.W.W.W.W.W.    q q $.g.j.H.H.Y.T.T.T.T.T.T.T.T.T.H.H.x.g.7.B B B B Q &.&.&.&.&.&.&.&.&.H n G &.&.+     W.W.W.W.W.W.W.W.W.",
"W.W.W.W.W.W.W.W.W.    q q O.g.k.H.H.Y.T.T.T.T.T.T.T.T.T.H.H.x.g.7.B B B B Q &.&.&.&.&.&.&.&.&.H n Q &.&.+     W.W.W.W.W.W.W.W.W.",
"W.W.W.W.W.W.W.W.W.W.W.    y F G g.g.g.g.g.g.g.g.g.g.g.g.&.&.M q f ;.;.E T P l l E.E.e.l l l l 9 q 3     W.W.W.W.W.W.W.W.W.W.W.W.",
"W.W.W.W.W.W.W.W.W.W.W.    y B G g.g.g.g.g.g.g.g.g.g.g.g.&.&.M q f ;.;.E T P l l E.E.e.l l l l 9 q 3     W.W.W.W.W.W.W.W.W.W.W.W.",
"W.W.W.W.W.W.W.W.W.W.W.W.W.: 6 r [ [ 5.6.6.5.6.6.6.6.6.6.M M j c C ;.;.] _ ) ( ( l.l.:.( W P P 5 $ $ W.W.W.W.W.W.W.W.W.W.W.W.W.W.",
"W.W.W.W.W.W.W.W.W.W.W.W.W.    O B n { &.=.&.&.=.&.&.&.&.q q c T ( ;.;.;.;.;.;.;.;.;.;.;.' T T ;     W.W.W.W.W.W.W.W.W.W.W.W.W.W.",
"W.W.W.W.W.W.W.W.W.W.W.W.W.+ + ; n n / %.%.[ [ [ %.%.%.%.q q c Y R ' ' ' ' ' ' ' ' ' ' ' ] Y Y ;     W.W.W.W.W.W.W.W.W.W.W.W.W.W.",
"W.W.W.W.W.W.W.W.W.W.W.    Z ;.` l z 9 q q q q q q q q q q q a l v T T T T T T T T T T T Y l l %     W.W.W.W.W.W.W.W.W.W.W.W.W.W.",
"W.W.W.W.W.W.W.W.W.W.W.    Z ;.` l l 9 q q q q q q q q q q q a l v T T T T T T T T T T T Y l l %     W.W.W.W.W.W.W.W.W.W.W.W.W.W.",
"W.W.W.W.W.W.W.W.W.W.W.    s V V I Y C C b k k k k k k k q q 4 % % ; ; ; ; ; ; ; ; ; ; ; ; % % W.W.W.W.W.W.W.W.W.W.W.W.W.W.W.W.W.",
"W.W.W.W.W.W.W.W.W.W.W.    0 l z T T T T I l l l l l l l q q $                                 W.W.W.W.W.W.W.W.W.W.W.W.W.W.W.W.W.",
"W.W.W.W.W.W.W.W.W.W.W.    5 0 0 h h h h s 0 0 0 0 0 0 0 = = o                                 W.W.W.W.W.W.W.W.W.W.W.W.W.W.W.W.W.",
"W.W.W.W.W.W.W.W.W.W.W.W.W.                                            W.W.W.W.W.W.W.W.W.W.W.W.W.W.W.W.W.W.W.W.W.W.W.W.W.W.W.W.W.",
"W.W.W.W.W.W.W.W.W.W.W.W.W.                                            W.W.W.W.W.W.W.W.W.W.W.W.W.W.W.W.W.W.W.W.W.W.W.W.W.W.W.W.W.",
"W.W.W.W.W.W.W.W.W.W.W.W.W.W.W.W.W.W.W.W.W.W.W.W.W.W.W.W.W.W.W.W.W.W.W.W.W.W.W.W.W.W.W.W.W.W.W.W.W.W.W.W.W.W.W.W.W.W.W.W.W.W.W.W.",
"W.W.W.W.W.W.W.W.W.W.W.W.W.W.W.W.W.W.W.W.W.W.W.W.W.W.W.W.W.W.W.W.W.W.W.W.W.W.W.W.W.W.W.W.W.W.W.W.W.W.W.W.W.W.W.W.W.W.W.W.W.W.W.W.",
"W.W.W.W.W.W.W.W.W.W.W.W.W.W.W.W.W.W.W.W.W.W.W.W.W.W.W.W.W.W.W.W.W.W.W.W.W.W.W.W.W.W.W.W.W.W.W.W.W.W.W.W.W.W.W.W.W.W.W.W.W.W.W.W.",
"W.W.W.W.W.W.W.W.W.W.W.W.W.W.W.W.W.W.W.W.W.W.W.W.W.W.W.W.W.W.W.W.W.W.W.W.W.W.W.W.W.W.W.W.W.W.W.W.W.W.W.W.W.W.W.W.W.W.W.W.W.W.W.W.",
"W.W.W.W.W.W.W.W.W.W.W.W.W.W.W.W.W.W.W.W.W.W.W.W.W.W.W.W.W.W.W.W.W.W.W.W.W.W.W.W.W.W.W.W.W.W.W.W.W.W.W.W.W.W.W.W.W.W.W.W.W.W.W.W.",
"W.W.W.W.W.W.W.W.W.W.W.W.W.W.W.W.W.W.W.W.W.W.W.W.W.W.W.W.W.W.W.W.W.W.W.W.W.W.W.W.W.W.W.W.W.W.W.W.W.W.W.W.W.W.W.W.W.W.W.W.W.W.W.W.",
"W.W.W.W.W.W.W.W.W.W.W.W.W.W.W.W.W.W.W.W.W.W.W.W.W.W.W.W.W.W.W.W.W.W.W.W.W.W.W.W.W.W.W.W.W.W.W.W.W.W.W.W.W.W.W.W.W.W.W.W.W.W.W.W.",
"W.W.W.W.W.W.W.W.W.W.W.W.W.W.W.W.W.W.W.W.W.W.W.W.W.W.W.W.W.W.W.W.W.W.W.W.W.W.W.W.W.W.W.W.W.W.W.W.W.W.W.W.W.W.W.W.W.W.W.W.W.W.W.W.",
"W.W.W.W.W.W.W.W.W.W.W.W.W.W.W.W.W.W.W.W.W.W.W.W.W.W.W.W.W.W.W.W.W.W.W.W.W.W.W.W.W.W.W.W.W.W.W.W.W.W.W.W.W.W.W.W.W.W.W.W.W.W.W.W.",
"W.W.W.W.W.W.W.W.W.W.W.W.W.W.W.W.W.W.W.W.W.W.W.W.W.W.W.W.W.W.W.W.W.W.W.W.W.W.W.W.W.W.W.W.W.W.W.W.W.W.W.W.W.W.W.W.W.W.W.W.W.W.W.W."
};
