/* XPM */
static char *result[] = {
/* columns rows colors chars-per-pixel */
"64 64 252 2 ",
"   c black",
".  c #100303",
"X  c #130303",
"o  c #170404",
"O  c #160407",
"+  c #1E0306",
"@  c #180404",
"#  c #190404",
"$  c #1A0404",
"%  c #1F0509",
"&  c #210505",
"*  c #250008",
"=  c #22060A",
"-  c #280109",
";  c #2D000A",
":  c #2D080E",
">  c #31000F",
",  c #310808",
"<  c #3D0A0A",
"1  c #3E0A0A",
"2  c #330011",
"3  c #330012",
"4  c #350014",
"5  c #300E17",
"6  c #37121D",
"7  c #391722",
"8  c #3B1723",
"9  c #3D1C29",
"0  c #3E1C29",
"q  c #4A0C0C",
"w  c #560E0E",
"e  c #440C15",
"r  c #5A0014",
"t  c #500E17",
"y  c #5A101C",
"u  c #770C16",
"i  c #631010",
"p  c #501B29",
"a  c #5B1A2B",
"s  c #6C1321",
"d  c #711423",
"f  c #711424",
"g  c #781522",
"h  c #50212E",
"j  c #502230",
"k  c #5F2234",
"l  c #5C2A3D",
"z  c #5C2A3E",
"x  c #5D2A3E",
"c  c #6F2439",
"v  c #5C2C40",
"b  c #5D2D41",
"n  c #60364A",
"m  c #603A50",
"M  c #603D53",
"N  c #7B3852",
"B  c #87001E",
"V  c #9E0024",
"C  c #8C1824",
"Z  c #831728",
"A  c #87182B",
"S  c #88182B",
"D  c #961A29",
"F  c #9C0831",
"G  c #A00423",
"H  c #AA0226",
"J  c #B50029",
"K  c #A01C2E",
"L  c #AB0639",
"P  c #B80038",
"I  c #AA1E34",
"U  c #B3163F",
"Y  c #912535",
"T  c #8A303D",
"R  c #B52039",
"E  c #C5003D",
"W  c #9F0F53",
"Q  c #9F1758",
"!  c #BD1C46",
"~  c #B1144A",
"^  c #9E2C45",
"/  c #8A3443",
"(  c #9A3447",
")  c #853D50",
"_  c #9F3350",
"`  c #A02C41",
"'  c #A72E4C",
"]  c #BA2540",
"[  c #BE244C",
"{  c #AF334E",
"}  c #B3314F",
"|  c #B0344E",
" . c #BC304F",
".. c #A73756",
"X. c #BE3C52",
"o. c #B83D5A",
"O. c #BE3E5D",
"+. c #C70143",
"@. c #CE0048",
"#. c #C8074F",
"$. c #D2004D",
"%. c #C71E4C",
"&. c #D60052",
"*. c #DA0C56",
"=. c #DE075D",
"-. c #C9244E",
";. c #CE2A56",
":. c #C53454",
">. c #C63454",
",. c #C93456",
"<. c #CE395D",
"1. c #E10960",
"2. c #E50965",
"3. c #EA0C6B",
"4. c #EF0F71",
"5. c #F21174",
"6. c #F51278",
"7. c #F61579",
"8. c #FA157D",
"9. c #FA177E",
"0. c #D43760",
"q. c #D43E64",
"w. c #D43F64",
"e. c #D7356B",
"r. c #E63D77",
"t. c #A14353",
"y. c #AD405A",
"u. c #80516F",
"i. c #B04563",
"p. c #B1516B",
"a. c #AB577C",
"s. c #B9557B",
"d. c #C74162",
"f. c #C64567",
"g. c #CB4165",
"h. c #CE4266",
"j. c #C04C6D",
"k. c #C04D6D",
"l. c #CF4F6D",
"z. c #CD4E6F",
"x. c #D6486F",
"c. c #C7576A",
"v. c #CF4F75",
"b. c #DE4973",
"n. c #DC4B75",
"m. c #DD4B75",
"M. c #D75078",
"N. c #DE537D",
"B. c #E4537F",
"V. c #FF1884",
"C. c #FF298F",
"Z. c #FF3A9A",
"A. c #9F658B",
"S. c #B66992",
"D. c #BF6E95",
"F. c #BF7097",
"G. c #C55A83",
"H. c #CB5D80",
"J. c #DA5980",
"K. c #CF5898",
"L. c #E45380",
"P. c #E15580",
"I. c #E75886",
"U. c #E75D8A",
"Y. c #E65F8D",
"T. c #EC5F8F",
"R. c #D66987",
"E. c #DA618B",
"W. c #D36C9A",
"Q. c #DF6F98",
"!. c #DE6E9B",
"~. c #D87298",
"^. c #E46592",
"/. c #EB6190",
"(. c #ED6292",
"). c #EF6797",
"_. c #E46894",
"`. c #E26B99",
"'. c #F06798",
"]. c #F16798",
"[. c #F46C9E",
"{. c #E67696",
"}. c #FF43A0",
"|. c #FF51A3",
" X c #FF5DB1",
".X c #F66FA2",
"XX c #F26FAB",
"oX c #E371A0",
"OX c #EE75A8",
"+X c #F470A2",
"@X c #F073A4",
"#X c #F771A5",
"$X c #F875A9",
"%X c #F977AB",
"&X c #F877AC",
"*X c #F979AD",
"=X c #F97AAE",
"-X c #FF65B6",
";X c #FF6EBC",
":X c #F97CB1",
">X c #FA7DB1",
",X c #F97DB3",
"<X c #ED81B4",
"1X c #EC81B5",
"2X c #F881B4",
"3X c #FB81B5",
"4X c #F187BA",
"5X c #FA83BA",
"6X c #FB84B9",
"7X c #FC86BA",
"8X c #FA87BE",
"9X c #FB87BF",
"0X c #F28BBA",
"qX c #FD89BD",
"wX c #DF8EC2",
"eX c #FF80C7",
"rX c #F78BC3",
"tX c #FB89C1",
"yX c #FF89C1",
"uX c #FC8EC6",
"iX c #FC8FC9",
"pX c #EA90C6",
"aX c #FF92C6",
"sX c #F692C9",
"dX c #F990C9",
"fX c #F991C9",
"gX c #FD92CB",
"hX c #FF94C9",
"jX c #FE94CB",
"kX c #FB93CD",
"lX c #FF96CC",
"zX c #FD95CF",
"xX c #FF98CF",
"cX c #EF98D0",
"vX c #FD96D0",
"bX c #FE97D2",
"nX c #FD98D2",
"mX c #FF9AD2",
"MX c #FE99D4",
"NX c #FF9CD5",
"BX c #FE9CD7",
"VX c #FF9DD7",
"CX c #FF9ED8",
"ZX c #FF9FDA",
"AX c #FFA0DB",
"SX c #FFA1DD",
"DX c #FFA2DE",
"FX c #ECC4CD",
"GX c #FFCEEE",
"HX c #FFE5F7",
"JX c #FFFBFF",
"KX c None",
/* pixels */
"KXKXKXKXKXKXKXKXKXKXKXKXKXKXKXKXKXKXKXKXKXKXKXKXKXKXKXKXKXKXKXKXKXKXKXKXKXKXKXKXKXKXKXKXKXKXKXKXKXKXKXKXKXKXKXKXKXKXKXKXKXKXKXKX",
"KXKXKXKXKXKXKXKXKXKXKXKXKXKXKXKXKXKXKXKXKXKXKXKXKXKXKXKXKXKXKXKXKXKXKXKXKXKXKXKXKXKXKXKXKXKXKXKXKXKXKXKXKXKXKXKXKXKXKXKXKXKXKXKX",
"KXKXKXKXKXKXKXKXKXKXKXKXKXKXKXKXKXKXKXKXKXKXKXKXKXKXKXKXKXKXKXKXKXKXKXKXKXKXKXKXKXKXKXKXKXKXKXKXKXKXKXKXKXKXKXKXKXKXKXKXKXKXKXKX",
"KXKXKXKXKXKXKXKXKXKXKXKXKXKXKXKXKXKXKXKXKXKXKXKXKXKXKXKXKXKXKXKXKXKXKXKXKXKXKXKXKXKXKXKXKXKXKXKXKXKXKXKXKXKXKXKXKXKXKXKXKXKXKXKX",
"KXKXKXKXKXKXKXKXKXKXKXKXKXKXKXKXKXKXKXKXKXKXKXKXKXKXKXKXKXKXKXKXKXKXKXKXKXKXKXKXKXKXKXKXKXKXKXKXKXKXKXKXKXKXKXKXKXKXKXKXKXKXKXKX",
"KXKXKXKXKXKXKXKXKXKXKXKXKXKXKXKXKXKXKXKXKXKXKXKXKXKXKXKXKXKXKXKXKXKXKXKXKXKXKXKXKXKXKXKXKXKXKXKXKXKXKXKXKXKXKXKXKXKXKXKXKXKXKXKX",
"KXKXKXKXKXKXKXKXKXKXKXKXKXKXKXKXKXKXKXKXKXKXKXKXKXKXKXKXKXKXKXKXKXKXKXKXKXKXKXKXKXKXKXKXKXKXKXKXKXKXKXKXKXKXKXKXKXKXKXKXKXKXKXKX",
"KXKXKXKXKXKXKXKXKXKXKXKXKXKXKXKXKXKXKXKXKXKXKXKXKXKXKXKXKXKXKXKXKXKXKXKXKXKXKXKXKXKXKXKXKXKXKXKXKXKXKXKXKXKXKXKXKXKXKXKXKXKXKXKX",
"KXKXKXKXKXKXKXKXKXKXKXKXKXKXKXKXKXKXKXKXKXKXKXKXKXKXKXKXKXKXKXKXKXKXKXKXKXKXKXKXKXKXKXKXKXKXKXKXKXKXKXKXKXKXKXKXKXKXKXKXKXKXKXKX",
"KXKXKXKXKXKXKXKXKXKXKXKXKXKXKXKXKXKXKXKXKXKXKXKXKXKXKXKXKXKXKXKXKXKXKXKXKXKXKXKXKXKXKXKXKXKXKXKXKXKXKXKXKXKXKXKXKXKXKXKXKXKXKXKX",
"KXKXKXKXKXKXKXKXKXKXKXKXKXKXKXKXKXKXKXKXKXKXKXKXKXKXKXKXKXKXKXKXKXKXKXKXKXKXKXKXKXKXKXKXKXKXKXKXKXKXKXKXKXKXKXKXKXKXKXKXKXKXKXKX",
"KXKXKXKXKXKXKXKXKXKXKXKXKXKXKXKXKXKXKXKXKX                                  KXKXKXKXKXKXKXKXKXKXKXKXKXKXKXKXKXKXKXKXKXKXKXKXKXKX",
"KXKXKXKXKXKXKXKXKXKXKXKXKXKXKXKXKXKXKXKXKX                                  KXKXKXKXKXKXKXKXKXKXKXKXKXKXKXKXKXKXKXKXKXKXKXKXKXKX",
"KXKXKXKXKXKXKXKXKXKXKXKXKXKXKXKXKXKXKXKXKXe e p z b M M M M m n n v z p e e KXKXKXKXKXKXKXKXKXKXKXKXKXKXKXKXKXKXKXKXKXKXKXKXKXKX",
"KXKXKXKXKXKXKXKXKXKXKXKXKXKXKXKX          R R x.#X&XDXDXDXDXCXaXaX$X#Xx.R R           KXKXKXKXKXKXKXKXKXKXKXKXKXKXKXKXKXKXKXKXKX",
"KXKXKXKXKXKXKXKXKXKXKXKXKXKXKXKX          R R x.#X&XDXDXDXDXCXaXaX$X#Xx.R R           KXKXKXKXKXKXKXKXKXKXKXKXKXKXKXKXKXKXKXKXKX",
"KXKXKXKXKXKXKXKXKXKXKXKXKXKX    q i ( #X#XDXDXDXDXDXDXDXDXDXDXDXDXDXDXmXaXaX#X#Xl         KXKXKXKXKXKXKXKXKXKXKXKXKXKXKXKXKXKXKX",
"KXKXKXKXKXKXKXKXKXKXKXKXKXKX    q i ( #X#XDXDXDXDXDXDXDXDXDXDXDXDXDXDXmXaXaX#X#Xl         KXKXKXKXKXKXKXKXKXKXKXKXKXKXKXKXKXKXKX",
"KXKXKXKXKXKXKXKXKXKXKXKXKXKX    ) p.H.#X#XE.E.1XDXZXtXtX`.E.oXDXDXDXDXCXmXmXtXtXa.N x     KXKXKXKXKXKXKXKXKXKXKXKXKXKXKXKXKXKXKX",
"KXKXKXKXKXKXKXKXKXKXKXKXKXKX    D.aX7X#X#XR R E.DXBX#X#X:.R d.DXDXDXDXDXDXDXDXDX5X#Xs.    KXKXKXKXKXKXKXKXKXKXKXKXKXKXKXKXKXKXKX",
"KXKXKXKXKXKXKXKXKXKXKXKXKXKXO O F.hX2X).).X.X.Q.DXBX).).l.X.z.DXDXDXDXDXDXDXDXDX9X&XG.O O KXKXKXKXKXKXKXKXKXKXKXKXKXKXKXKXKXKXKX",
"KXKXKXKXKXKXKXKXKXKXKX    : R R 1XDXoXR R JXJXGXDXsXR R FXJXHXDXDXDXDXDXDXDXDXDXDXDX<XR R :     KXKXKXKXKXKXKXKXKXKXKXKXKXKXKXKX",
"KXKXKXKXKXKXKXKXKXKXKX    : R R 1XDXoXR R JXJXGXDXsXR R FXJXHXDXDXDXDXDXDXDXDXDXDXDX<XR R :     KXKXKXKXKXKXKXKXKXKXKXKXKXKXKXKX",
"KXKXKXKXKXKXKXKXKXKXKX    7 U.U.fXDXS.: : {.{.0XDXpX: : t.c.R.DXDXDXDXDXDXDXDXDXDXDXdXU.U.7     KXKXKXKXKXKXKXKXKXKXKXKXKXKXKXKX",
"KXKXKXKXKXKXKXKXKXKXKX    0 #X#XvXDXA.    b.b.OXDXwX    S R d.DXDXDXDXDXDXDXDXDXDXDXzX#X#X9     KXKXKXKXKXKXKXKXKXKXKXKXKXKXKXKX",
"KXKXKXKXKXKXKXKXKXKXKX. @ j ,X,XMXDXA.    b.b.OXDXwX    g K o.DXDXDXDXDXDXDXDXDXDXDXnX*X*Xh @ $ KXKXKXKXKXKXKXKXKXKXKXKXKXKXKXKX",
"KXKXKXKXKXKXKXKXKX    < i / DXDXDXDXA.    b.b.OXDXwX    q i / DXDXDXDXDXDXDXDXDXDXDXCXaXaXT i 1     KXKXKXKXKXKXKXKXKXKXKXKXKXKX",
"KXKXKXKXKXKXKXKXKX    < i / DXDXDXDXA.    b.b.OXDXwX    q i / DXDXDXDXDXDXDXDXDXDXDXCXaXaXT i 1     KXKXKXKXKXKXKXKXKXKXKXKXKXKX",
"KXKXKXKXKXKXKXKXKX    s I O.DXDX}.C.Q     [.[.8XDXwX    _ h.e.C.C.C.C.-XDXDXDXDXDXDXCXaXaX@X^.i.w w     KXKXKXKXKXKXKXKXKXKXKXKX",
"KXKXKXKXKXKXKXKXKX    d R d.DXDXZ.V.W     #X#XtXDXwX    ..b.r.V.V.V.V. XDXDXDXDXDXDXCXaXaX*X#Xj.i i       KXKXKXKXKXKXKXKXKXKXKX",
"KXKXKXKXKXKXKX    c c ' ,.M.DXDX;X XK.u.u.tXtXvXDXcXu.u.W.OXXX X X X XeXDXDXDXDXDXDXAXmXmXuXtX!.y.y., , &   KXKXKXKXKXKXKXKXKXKX",
"KXKXKXKXKXKX      b.b.b.b.Y.DXDXDXDXDXDXDXDXDXDXDXDXDXDXDXDXDXDXDXDXDXDXDXDXDXDXDXDXDXDXDXDXDXiX#X#Xi i ,     KXKXKXKXKXKXKXKXKX",
"KXKXKXKXKXKX      b.b.b.b.Y.DXDXDXDXDXDXDXDXDXDXDXDXDXDXDXDXDXDXDXDXDXDXDXDXDXDXDXDXDXDXDXDXDXiX#X#Xi i ,     KXKXKXKXKXKXKXKXKX",
"KXKXKXKXKXKX      aXaX>X#X,XDXDXDXDXDXDXDXR R J.aXhXDXDXDXDXDXDXDXDXDXDXDXDXaXaXaXaXlXDXDXDXDXDXDXDXR R y     KXKXKXKXKXKXKXKXKX",
"KXKXKXKXKXKX      aXaX>X#X,XDXDXDXDXDXDXDXR R J.aXhXDXDXDXDXDXDXDXDXDXDXDXDXaXaXaXaXlXDXDXDXDXDXDXDXR R y     KXKXKXKXKXKXKXKXKX",
"KXKXKXKXKXKX      aXaX>X#X=XxXxXAXDXDXDXDXoXoX4XNXVXDXDXDXDXDXDXDXDXDXVXxXxXaXaX7X>X6XxXxXAXDXDXDXDXR R y     KXKXKXKXKXKXKXKXKX",
"KXKXKXKXKXKX      aXaX>X#X*XaXaXCXDXDXDXDXDXDXDXDXDXDXDXDXDXDXDXDXDXDXmXaXaXaXaX>X#X*XaXaXCXDXDXDXDXR R y     KXKXKXKXKXKXKXKXKX",
"KXKXKXKXKXKX      ~.~._.'.+XqXqXgXzXbXCXCXDXDXDXDXDXDXDXDXDXSXCXCXCXCXjXqXqXqXqX*X#X%XqXqXgXzXkXrXrXK K t     KXKXKXKXKXKXKXKXKX",
"KXKXKXKXKXKX      i i { b.L.#X#X#X#X>XaXaXDXDXDXDXDXDXDXDXDXCXaXaXaXaX3X#X#X#X#X#X#X#X#X#X#X#X(.b.b.i i ,     KXKXKXKXKXKXKXKXKX",
"KXKXKXKXKXKX      i i { b.L.#X#X#X#X>XaXaXDXDXDXDXDXDXDXDXDXCXaXaXaXaX3X#X#X#X#X#X#X#X#X#X#X#X(.b.b.i i ,     KXKXKXKXKXKXKXKXKX",
"KXKXKXKXKXKXKXKXKX# # 5 6 a >.>.m.B./.*X*X,X,X,X,X,X,X,X,X,X:X*X*X*X*X$X#X#X#X#XT.B.n.>.>.k 0 8 6 6 # # X KXKXKXKXKXKXKXKXKXKXKX",
"KXKXKXKXKXKXKXKXKX        : R R q.b.I.#X#X#X#X#X#X#X#X#X#X#X#X#X#X#X#X#X#X#X#X#XI.b.w.R R :               KXKXKXKXKXKXKXKXKXKXKX",
"KXKXKXKXKXKXKXKXKX        % f f  .<.g.k.k.k.k.v.N.P.(.(..X#X#X#X#X#X#X#X#X#X(.(.f.| ^ f f =             KXKXKXKXKXKXKXKXKXKXKXKX",
"KXKXKXKXKXKXKXKXKXKXKXKXKXKX    S R D i i i i C R ] b.b.].#X#X#X#X#X#X#X#X#Xb.b.Y i q           KXKXKXKXKXKXKXKXKXKXKXKXKXKXKXKX",
"KXKXKXKXKXKXKXKXKXKXKXKXKXKX    S R D i i i i C R ] b.b.].#X#X#X#X#X#X#X#X#Xb.b.Y i q           KXKXKXKXKXKXKXKXKXKXKXKXKXKXKXKX",
"KXKXKXKXKXKXKXKXKXKXKX    ; J J @.&.2.V.V.JXJXyXV.7.J J 0.b.b.b.b.b.b.` i i i i L &.@.J J ;     KXKXKXKXKXKXKXKXKXKXKXKXKXKXKXKX",
"KXKXKXKXKXKXKXKXKXKXKX    ; J J @.&.2.V.V.JXJXyXV.7.J J 0.b.b.b.b.b.b.` i i i i L &.@.J J ;     KXKXKXKXKXKXKXKXKXKXKXKXKXKXKXKX",
"KXKXKXKXKXKXKXKXKXKXKX    > E E 1.3.5.V.V.yXyX|.V.9.*.*.;.,.} c c [ -.U F F ~ ~ #.&.@.J J ;     KXKXKXKXKXKXKXKXKXKXKXKXKXKXKXKX",
"KXKXKXKXKXKXKXKXKXKXKX    4 &.&.6.V.V.V.V.V.V.V.V.V.V.V.%.R A     V J E &.&.V.V.2.&.@.J J ;     KXKXKXKXKXKXKXKXKXKXKXKXKXKXKXKX",
"KXKXKXKXKXKXKXKXKXKXKX    3 $.$.4.8.8.8.8.8.8.8.8.8.7.7.! I Z     B V P $.$.7.7.=.$.+.H H ;     KXKXKXKXKXKXKXKXKXKXKXKXKXKXKXKX",
"KXKXKXKXKXKXKXKXKXKXKX    ; J J @.&.&.&.&.&.&.&.&.$.J J u i q         r J J J J J J G i i #     KXKXKXKXKXKXKXKXKXKXKXKXKXKXKXKX",
"KXKXKXKXKXKXKXKXKXKXKX    ; J J @.&.&.&.&.&.&.&.&.$.J J u i q         r J J J J J J G i i #     KXKXKXKXKXKXKXKXKXKXKXKXKXKXKXKX",
"KXKXKXKXKXKXKXKXKXKXKXKXKXKX; ; 3 4 4 4 4 4 4 4 4 2 ; ; + # o KXKXKXKX* ; ; ; ; ; ; - # # KXKXKXKXKXKXKXKXKXKXKXKXKXKXKXKXKXKXKX",
"KXKXKXKXKXKXKXKXKXKXKXKXKXKX                                  KXKXKXKX                    KXKXKXKXKXKXKXKXKXKXKXKXKXKXKXKXKXKXKX",
"KXKXKXKXKXKXKXKXKXKXKXKXKXKX                                  KXKXKXKXKX                  KXKXKXKXKXKXKXKXKXKXKXKXKXKXKXKXKXKXKX",
"KXKXKXKXKXKXKXKXKXKXKXKXKXKXKXKXKXKXKXKXKXKXKXKXKXKXKXKXKXKXKXKXKXKXKXKXKXKXKXKXKXKXKXKXKXKXKXKXKXKXKXKXKXKXKXKXKXKXKXKXKXKXKXKX",
"KXKXKXKXKXKXKXKXKXKXKXKXKXKXKXKXKXKXKXKXKXKXKXKXKXKXKXKXKXKXKXKXKXKXKXKXKXKXKXKXKXKXKXKXKXKXKXKXKXKXKXKXKXKXKXKXKXKXKXKXKXKXKXKX",
"KXKXKXKXKXKXKXKXKXKXKXKXKXKXKXKXKXKXKXKXKXKXKXKXKXKXKXKXKXKXKXKXKXKXKXKXKXKXKXKXKXKXKXKXKXKXKXKXKXKXKXKXKXKXKXKXKXKXKXKXKXKXKXKX",
"KXKXKXKXKXKXKXKXKXKXKXKXKXKXKXKXKXKXKXKXKXKXKXKXKXKXKXKXKXKXKXKXKXKXKXKXKXKXKXKXKXKXKXKXKXKXKXKXKXKXKXKXKXKXKXKXKXKXKXKXKXKXKXKX",
"KXKXKXKXKXKXKXKXKXKXKXKXKXKXKXKXKXKXKXKXKXKXKXKXKXKXKXKXKXKXKXKXKXKXKXKXKXKXKXKXKXKXKXKXKXKXKXKXKXKXKXKXKXKXKXKXKXKXKXKXKXKXKXKX",
"KXKXKXKXKXKXKXKXKXKXKXKXKXKXKXKXKXKXKXKXKXKXKXKXKXKXKXKXKXKXKXKXKXKXKXKXKXKXKXKXKXKXKXKXKXKXKXKXKXKXKXKXKXKXKXKXKXKXKXKXKXKXKXKX",
"KXKXKXKXKXKXKXKXKXKXKXKXKXKXKXKXKXKXKXKXKXKXKXKXKXKXKXKXKXKXKXKXKXKXKXKXKXKXKXKXKXKXKXKXKXKXKXKXKXKXKXKXKXKXKXKXKXKXKXKXKXKXKXKX",
"KXKXKXKXKXKXKXKXKXKXKXKXKXKXKXKXKXKXKXKXKXKXKXKXKXKXKXKXKXKXKXKXKXKXKXKXKXKXKXKXKXKXKXKXKXKXKXKXKXKXKXKXKXKXKXKXKXKXKXKXKXKXKXKX",
"KXKXKXKXKXKXKXKXKXKXKXKXKXKXKXKXKXKXKXKXKXKXKXKXKXKXKXKXKXKXKXKXKXKXKXKXKXKXKXKXKXKXKXKXKXKXKXKXKXKXKXKXKXKXKXKXKXKXKXKXKXKXKXKX"
};
