/* XPM */
static char *result[] = {
/* columns rows colors chars-per-pixel */
"64 64 252 2 ",
"   c black",
".  c #0C0202",
"X  c #170404",
"o  c #170407",
"O  c #1E0306",
"+  c #190404",
"@  c #1D0505",
"#  c #1C090E",
"$  c #1F0E15",
"%  c #1F1118",
"&  c #210505",
"*  c #250606",
"=  c #2E0707",
"-  c #27020C",
";  c #280109",
":  c #2D000A",
">  c #2A070C",
",  c #2D080E",
"<  c #31000F",
"1  c #310808",
"2  c #2A0010",
"3  c #330011",
"4  c #350014",
"5  c #300A12",
"6  c #3C0B13",
"7  c #20141C",
"8  c #37121C",
"9  c #37121D",
"0  c #3D1C29",
"q  c #3E1C29",
"w  c #3E1F2D",
"e  c #4A0C0C",
"r  c #560E0E",
"t  c #430C15",
"y  c #440C15",
"u  c #470E19",
"i  c #50001E",
"p  c #41141F",
"a  c #5D1018",
"s  c #5A101C",
"d  c #610C11",
"f  c #6E0E13",
"g  c #770C16",
"h  c #631010",
"j  c #77141A",
"k  c #4C1622",
"l  c #5F1524",
"z  c #501927",
"x  c #531B2B",
"c  c #7D0529",
"v  c #6D1322",
"b  c #711423",
"n  c #711424",
"m  c #402837",
"M  c #5B2330",
"N  c #582335",
"B  c #5F2234",
"V  c #592538",
"C  c #5C2A3D",
"Z  c #5C2A3E",
"A  c #6F2439",
"S  c #5E2E42",
"D  c #5F3448",
"F  c #60364A",
"G  c #60374A",
"H  c #83011D",
"J  c #87001F",
"K  c #8E0A29",
"L  c #94002E",
"P  c #821E29",
"I  c #88182B",
"U  c #961A29",
"Y  c #9E1C32",
"T  c #9D133C",
"R  c #A00423",
"E  c #AA0226",
"W  c #B00127",
"Q  c #B50029",
"!  c #A0003D",
"~  c #AA0639",
"^  c #BD0033",
"/  c #BA0932",
"(  c #BD083C",
")  c #B51031",
"_  c #88283D",
"`  c #A7263F",
"'  c #A3283F",
"]  c #B52039",
"[  c #C10038",
"{  c #C2043A",
"}  c #C5003D",
"|  c #AD0240",
" . c #A80447",
".. c #BB0048",
"X. c #B61142",
"o. c #892B44",
"O. c #8B2E47",
"+. c #8B2D48",
"@. c #96304B",
"#. c #A02C41",
"$. c #BD2A46",
"%. c #B9224A",
"&. c #BF2A48",
"*. c #AF334E",
"=. c #AA3E5B",
"-. c #BE3B52",
";. c #BE3C52",
":. c #B93C5A",
">. c #BF1263",
",. c #C70640",
"<. c #CA0042",
"1. c #C8024A",
"2. c #CE084C",
"3. c #D2004D",
"4. c #D3044F",
"5. c #D4064F",
"6. c #D1094B",
"7. c #C9124A",
"8. c #C61C48",
"9. c #CD0A5E",
"0. c #D60052",
"q. c #DB0358",
"w. c #DC085E",
"e. c #D5175B",
"r. c #E1065E",
"t. c #C42F4F",
"y. c #CE2E57",
"u. c #C53454",
"i. c #CF395D",
"p. c #D3355F",
"a. c #DA1A62",
"s. c #DF1574",
"d. c #E30761",
"f. c #E50965",
"g. c #E60964",
"h. c #E60A66",
"j. c #E80A67",
"k. c #E80B68",
"l. c #EA0C6B",
"z. c #F21074",
"x. c #F21174",
"c. c #F51277",
"v. c #F61579",
"b. c #FA157D",
"n. c #FA157E",
"m. c #CE3E62",
"M. c #D43F64",
"N. c #804963",
"B. c #80516F",
"V. c #905B7D",
"C. c #9E597A",
"Z. c #D9446C",
"A. c #D6486F",
"S. c #C7576A",
"D. c #DE4973",
"F. c #D05177",
"G. c #DE527C",
"H. c #DE537D",
"J. c #E14E79",
"K. c #E1527E",
"L. c #E4537F",
"P. c #FF1884",
"I. c #FF268B",
"U. c #9F5F82",
"Y. c #AF698F",
"T. c #DA5980",
"R. c #DE5F88",
"E. c #E45380",
"W. c #E65682",
"Q. c #E55885",
"!. c #E75885",
"~. c #E75D8A",
"^. c #EA5D8C",
"/. c #EA5F8E",
"(. c #DA618B",
"). c #D86390",
"_. c #E36791",
"`. c #EC6291",
"'. c #ED6292",
"]. c #EA6492",
"[. c #EF6797",
"{. c #E66D9E",
"}. c #EE6D9C",
"|. c #F06798",
" X c #F16798",
".X c #F16799",
"XX c #F46C9E",
"oX c #E67696",
"OX c #FF51A3",
"+X c #F36FA1",
"@X c #E371A0",
"#X c #EE75A8",
"$X c #EF7AAD",
"%X c #F273A4",
"&X c #F373A5",
"*X c #F771A5",
"=X c #F474A5",
"-X c #F377A8",
";X c #F875A9",
":X c #F977AB",
">X c #F278AC",
",X c #F07AAE",
"<X c #F979AD",
"1X c #FA7DB1",
"2X c #F97DB3",
"3X c #ED81B4",
"4X c #EC81B5",
"5X c #ED86B7",
"6X c #E987BC",
"7X c #FB81B5",
"8X c #FA83BA",
"9X c #FC85B9",
"0X c #F688BA",
"qX c #F788BD",
"wX c #FB89BC",
"eX c #FD89BD",
"rX c #FD8ABE",
"tX c #FB89C1",
"yX c #FC8AC0",
"uX c #FE8EC2",
"iX c #FD8DC4",
"pX c #FC8FC8",
"aX c #FC8FC9",
"sX c #FA90C5",
"dX c #FE90C4",
"fX c #FF92C6",
"gX c #F692C9",
"hX c #F692CA",
"jX c #FC90C9",
"kX c #FD92CB",
"lX c #FF94C9",
"zX c #FF95CB",
"xX c #F894CD",
"cX c #FF96CC",
"vX c #FE96CF",
"bX c #FF98CF",
"nX c #FB97D1",
"mX c #FD96D0",
"MX c #FF9AD2",
"NX c #FF9BD3",
"BX c #FB9AD4",
"VX c #FF9BD4",
"CX c #FF9CD5",
"ZX c #FE9CD7",
"AX c #FF9ED8",
"SX c #FE9FDA",
"DX c #FF9FDA",
"FX c #FFA0DB",
"GX c #FFA2DE",
"HX c #FFADE2",
"JX c #FFFBFF",
"KX c None",
/* pixels */
"KXKXKXKXKXKXKXKXKXKXKXKXKXKXKXKXKXKXKXKXKXKXKXKXKXKXKXKXKXKXKXKXKXKXKXKXKXKXKXKXKXKXKXKXKXKXKXKXKXKXKXKXKXKXKXKXKXKXKXKXKXKXKXKX",
"KXKXKXKXKXKXKXKXKXKXKXKXKXKXKXKXKXKXKXKXKXKXKXKXKXKXKXKXKXKXKXKXKXKXKXKXKXKXKXKXKXKXKXKXKXKXKXKXKXKXKXKXKXKXKXKXKXKXKXKXKXKXKXKX",
"KXKXKXKXKXKXKXKXKXKXKXKXKXKXKXKXKXKXKXKXKXKXKXKXKXKXKXKXKXKXKXKXKXKXKXKXKXKXKXKXKXKXKXKXKXKXKXKXKXKXKXKXKXKXKXKXKXKXKXKXKXKXKXKX",
"KXKXKXKXKXKXKXKXKXKXKXKXKXKXKXKXKXKXKXKXKXKXKXKXKXKXKXKXKXKXKXKXKXKXKXKXKXKXKXKXKXKXKXKXKXKXKXKXKXKXKXKXKXKXKXKXKXKXKXKXKXKXKXKX",
"KXKXKXKXKXKXKXKXKXKXKXKXKXKXKXKXKXKXKXKXKXKXKXKXKXKXKXKXKXKXKXKXKXKXKXKXKXKXKXKXKXKXKXKXKXKXKXKXKXKXKXKXKXKXKXKXKXKXKXKXKXKXKXKX",
"KXKXKXKXKXKXKXKXKXKXKXKXKXKXKXKXKXKXKXKXKXKXKXKXKXKXKXKXKXKXKXKXKXKXKXKXKXKXKXKXKXKXKXKXKXKXKXKXKXKXKXKXKXKXKXKXKXKXKXKXKXKXKXKX",
"KXKXKXKXKXKXKXKXKXKXKXKXKXKXKXKXKXKXKXKXKXKXKXKXKXKXKXKXKXKXKXKXKXKXKXKXKXKXKXKXKXKXKXKXKXKXKXKXKXKXKXKXKXKXKXKXKXKXKXKXKXKXKXKX",
"KXKXKXKXKXKXKXKXKXKXKXKXKXKXKXKXKXKXKXKXKXKXKXKXKXKXKXKXKXKXKXKXKXKXKXKXKXKXKXKXKXKXKXKXKXKXKXKXKXKXKXKXKXKXKXKXKXKXKXKXKXKXKXKX",
"KXKXKXKXKXKXKXKXKXKXKXKXKXKXKXKXKXKXKXKXKXKXKXKXKXKXKXKXKXKXKXKXKXKXKXKXKXKXKXKXKXKXKXKXKXKXKXKXKXKXKXKXKXKXKXKXKXKXKXKXKXKXKXKX",
"KXKXKXKXKXKXKXKXKXKXKXKXKXKXKXKXKXKXKXKXKXKXKXKXKXKXKXKXKXKXKXKXKXKXKXKXKXKXKXKXKXKXKXKXKXKXKXKXKXKXKXKXKXKXKXKXKXKXKXKXKXKXKXKX",
"KXKXKXKXKXKXKXKXKXKXKXKXKXKXKXKXKXKXKXKXKXKXKXKXKXKXKXKXKXKXKXKXKXKXKXKXKXKXKXKXKXKXKXKXKXKXKXKXKXKXKXKXKXKXKXKXKXKXKXKXKXKXKXKX",
"KXKXKXKXKXKXKXKXKXKXKXKXKXKXKXKXKXKXKXKXKX                                        KXKXKXKXKXKXKXKXKXKXKXKXKXKXKXKXKXKXKXKXKXKXKX",
"KXKXKXKXKXKXKXKXKXKXKXKXKXKXKXKXKXKXKXKXKX                                        KXKXKXKXKXKXKXKXKXKXKXKXKXKXKXKXKXKXKXKXKXKXKX",
"KXKXKXKXKXKXKXKXKXKXKXKXKXKXKXKXKXKXKXKXKX    o y y z x N Z Z F F S Z V x x u y 6 KXKXKXKXKXKXKXKXKXKXKXKXKXKXKXKXKXKXKXKXKXKXKX",
"KXKXKXKXKXKXKXKXKXKXKXKXKXKXKXKX              , ] ] Z.D.^.*X*XfXfX1X*X|.D.D.&.] n           KXKXKXKXKXKXKXKXKXKXKXKXKXKXKXKXKXKX",
"KXKXKXKXKXKXKXKXKXKXKXKXKXKXKXKX              , ] ] Z.D.^.*X*XfXfX1X*X|.D.D.&.] n           KXKXKXKXKXKXKXKXKXKXKXKXKXKXKXKXKXKX",
"KXKXKXKXKXKXKXKXKXKXKXKXKXKX        # D.D. X*X2XGXGXGXGXGXGXGXGXGXGXGXGXGXGXGXGXaX*X*X] ] s     KXKXKXKXKXKXKXKXKXKXKXKXKXKXKXKX",
"KXKXKXKXKXKXKXKXKXKXKXKXKXKX        # D.D. X*X2XGXGXGXGXGXGXGXGXGXGXGXGXGXGXGXGXaX*X*X] ] s     KXKXKXKXKXKXKXKXKXKXKXKXKXKXKXKX",
"KXKXKXKXKXKXKXKXKXKXKXKXKXKX    x O.@.t.t.,XjX$XF.F.BXGXGXGXGXGXGXGXGXGXGXGXGXGXZXjXjX_._.=.n v     KXKXKXKXKXKXKXKXKXKXKXKXKXKX",
"KXKXKXKXKXKXKXKXKXKXKXKXKXKX    +.D.Z.] ] 4XGX3X] ] hXGXGXGXGXGXGXGXGXGXGXGXGXGXGXGXGXfXfXT.] Y     KXKXKXKXKXKXKXKXKXKXKXKXKXKX",
"KXKXKXKXKXKXKXKXKXKXKXKXKXKX    o.Z.M.$.$.@XgX5X;.;.hXGXGXGXGXGXGXGXGXGXGXGXGXGXGXGXGXlXlXR.$.`     KXKXKXKXKXKXKXKXKXKXKXKXKXKX",
"KXKXKXKXKXKXKXKXKXKXKXKX        b ] $.*X*Xu.] S.JXJXHXGXGXGXGXGXGXGXGXGXGXGXGXGXGXGXGXGXGXtX*X).    KXKXKXKXKXKXKXKXKXKXKXKXKXKX",
"KXKXKXKXKXKXKXKXKXKXKXKX        b ] $.*X*Xu.] S.JXJXHXGXGXGXGXGXGXGXGXGXGXGXGXGXGXGXGXGXGXtX*X).    KXKXKXKXKXKXKXKXKXKXKXKXKXKX",
"KXKXKXKXKXKXKXKXKXKXKXKX    I I s , p *X*XB , M oXoXnXGXGXGXGXGXGXGXGXGXGXGXGXGXGXGXGXGXGXZXmX6XI I >     KXKXKXKXKXKXKXKXKXKXKX",
"KXKXKXKXKXKXKXKXKXKXKXKX    ] ] t   $ *X*X0   9 D.D.nXGXGXGXGXGXGXGXGXGXGXGXGXGXGXGXGXGXGXGXGXgX] ] ,     KXKXKXKXKXKXKXKXKXKXKX",
"KXKXKXKXKXKXKXKXKXKXKXKX    m.m.k   % 8X8Xw   9 D.D.nXGXGXGXGXCXCXFXGXGXGXGXGXGXGXGXGXGXGXGXGXxXt.t.5     KXKXKXKXKXKXKXKXKXKXKX",
"KXKXKXKXKXKXKXKXKXKXKXKX    *X*XC   7 GXGXm   9 D.D.nXGXGXGXGXfXfXCXGXGXGXGXGXGXGXGXGXGXGXGXGXnXD.D.8     KXKXKXKXKXKXKXKXKXKXKX",
"KXKXKXKXKXKXKXKXKXKXKXKX    *X*XC   7 GXGXm   9 D.D.nXGXGXGXGXfXfXCXGXGXGXGXGXGXGXGXGXGXGXGXGXnXD.D.8     KXKXKXKXKXKXKXKXKXKXKX",
"KXKXKXKXKXKXKXKXKXKXKXKX    uXuXD   7 GXGXm   q XXXXZXGXVXlXlX;X;XkXGXGXGXGXGXGXGXGXGXGXGXGXGXnXD.D.8     KXKXKXKXKXKXKXKXKXKXKX",
"KXKXKXKXKXKXKXKXKXKXKXKX    fXfXG   7 GXGXm   q *X*XZXGXMXfXfX*X*XpXGXGXGXGXGXGXGXGXGXGXGXGXGXnXD.D.8     KXKXKXKXKXKXKXKXKXKXKX",
"KXKXKXKXKXKXKXKXKXKXKXKX    fXfXY.B.V.GXGXU.N.C.tXtXSXGXqX}.}.7X7XvXGXGXGXGXGXGXDXMXMXGXGXGXGXnXD.D.8     KXKXKXKXKXKXKXKXKXKXKX",
"KXKXKXKXKXKXKXKXKXKXKXKX    fXfXCXGXGXGXGXcXfXcXGXGXGXGX#XD.D.fXfXCXGXGXGXGXGXGXCXfXfXGXGXGXGXnXD.D.8     KXKXKXKXKXKXKXKXKXKXKX",
"KXKXKXKXKXKXKXKXKXKXKXKX    fXfXCXGXGXGXGXcXfXcXGXGXGXGX#XD.D.fXfXCXGXGXGXGXGXGXCXfXfXGXGXGXGXnXD.D.8     KXKXKXKXKXKXKXKXKXKXKX",
"KXKXKXKXKXKXKXKXKXKXKXKX    fXfXCXGXgX] ] 4XGXGXGXGXGXGX(.] ] *X*X9XfXfXfXfXfXfXfXfXfXGXGXMXfXwXD.D.P h e     KXKXKXKXKXKXKXKXKX",
"KXKXKXKXKXKXKXKXKXKXKXKX    fXfXCXGXgX] ] 4XGXGXGXGXGXGX(.] ] *X*X9XfXfXfXfXfXfXfXfXfXGXGXMXfXwXD.D.P h e     KXKXKXKXKXKXKXKXKX",
"KXKXKXKXKXKXKXKXKXKXKXKX    1X1XiXbXsX_._.0XbXNXGXGXGXGX{.i.i.!.!.+X1X1X1X1X1X1X&X].].bXbXyX1X=Xt.t.X.~ c     KXKXKXKXKXKXKXKXKX",
"KXKXKXKXKXKXKXKXKXKXKXKX    *X*X9XfXfXfXfXfXfXcXGXGXGXGX#XD.D.D.D.'.*X*X*X*X*X*X'.D.D.fXfX7X*X[.] ] 2.0.!     KXKXKXKXKXKXKXKXKX",
"KXKXKXKXKXKXKXKXKXKXKXKX    ~.~.-XeXeXeXeXdXfXzXAXAXAXAX>XE.E.D.D.Q.~.~.~.~.~.~.K.D.D.eXeX%X~.H.S.S.a.r. .    KXKXKXKXKXKXKXKXKX",
"KXKXKXKXKXKXKXKXKXKXKXKX    ] ] G.*X*X*X*XrXfXfXfXfXfXfX7X*X*XD.D.t.] ] ] ] ] ] t.D.D.*X*XA.] -.JXJXOXP.>.    KXKXKXKXKXKXKXKXKX",
"KXKXKXKXKXKXKXKXKXKXKXKX    ] ] G.*X*X*X*XrXfXfXfXfXfXfX7X*X*XD.D.t.] ] ] ] ] ] t.D.D.*X*XA.] -.JXJXOXP.>.    KXKXKXKXKXKXKXKXKX",
"KXKXKXKXKXKXKXKXKXKXKXKX    j j :.L.W.*X*X:X<X<X<X<X<X<X;X*X*X X X/.~.~.~.~.~.~.`. X X8.8.7.2.e.OXOXI.P.>.    KXKXKXKXKXKXKXKXKX",
"KXKXKXKXKXKXKXKXKXKXKXKX    h h *.D.J.*X*X*X*X*X*X*X*X*X*X*X*X*X*X*X*X*X*X*X*X*X*X*X*XQ Q } 0.q.P.P.P.P.>.    KXKXKXKXKXKXKXKXKX",
"KXKXKXKXKXKXKXKXKXKXKX2 i i T T %.y.p.'.'.'.'..X*X*X*X*X*X*X*X*X*X*X*X*X*X*X*X*X[.H.H.[ [ 4.g.j.P.P.P.P.>.    KXKXKXKXKXKXKXKXKX",
"KXKXKXKXKXKXKXKXKX    i 0.0.P.P.6.Q / D.D.D.D.E.*X*X*X*X*X*X*X*X*X*X*X*X*X*X*X*XH.] ] 0.0.l.P.P.P.P.P.P.>.    KXKXKXKXKXKXKXKXKX",
"KXKXKXKXKXKXKXKXKX    i 0.0.P.P.6.Q / D.D.D.D.E.*X*X*X*X*X*X*X*X*X*X*X*X*X*X*X*XH.] ] 0.0.l.P.P.P.P.P.P.>.    KXKXKXKXKXKXKXKXKX",
"KXKXKXKXKXKXKX    s.P.P.P.P.P.P.P.P.n.0.0.0.0.2.] ] Z.D.D.D.D.D.D.D.D.D.D.D.&.] U h h P.P.P.P.P.P.P.r.0.!     KXKXKXKXKXKXKXKXKX",
"KXKXKXKXKXKXKX    s.P.P.P.P.P.P.P.P.n.0.0.0.0.2.] ] Z.D.D.D.D.D.D.D.D.D.D.D.&.] U h h P.P.P.P.P.P.P.r.0.!     KXKXKXKXKXKXKXKXKX",
"KXKXKXKXKXKXKX    9.l.x.P.P.P.P.z.l.k.0.0.<.} { ) ) ' #._ A A A A A A A A A l s a h h l.l.c.P.P.P.P.5.} L     KXKXKXKXKXKXKXKXKX",
"KXKXKXKXKXKXKX    ..0.f.P.P.P.P.f.0.0.0.0.^ Q Q Q Q f h 1                       * h h 0.0.l.P.P.P.P.,.Q J     KXKXKXKXKXKXKXKXKX",
"KXKXKXKXKXKXKX    | 1.w.b.b.b.b.d.0.0.3.3.^ Q W E E d r =                       & r r 3.3.h.b.b.v.v.( E H     KXKXKXKXKXKXKXKXKX",
"KXKXKXKXKXKXKX    r h K 0.0.0.0.0.0.3.Q Q Q Q R h h .     KXKXKXKXKXKXKXKXKXKXKXKX    Q Q } 0.3.Q Q g h e     KXKXKXKXKXKXKXKXKX",
"KXKXKXKXKXKXKX    r h K 0.0.0.0.0.0.3.Q Q Q Q R h h .     KXKXKXKXKXKXKXKXKXKXKXKX    Q Q } 0.3.Q Q g h e     KXKXKXKXKXKXKXKXKX",
"KXKXKXKXKXKXKXKXKX@ + - 4 4 4 4 4 4 3 : : : : ; + + KXKXKXKXKXKXKXKXKXKXKXKXKXKXKXKXKX: : < 4 3 : : O + X KXKXKXKXKXKXKXKXKXKXKX",
"KXKXKXKXKXKXKXKXKX                                  KXKXKXKXKXKXKXKXKXKXKXKXKXKXKXKXKX                    KXKXKXKXKXKXKXKXKXKXKX",
"KXKXKXKXKXKXKXKXKX                                  KXKXKXKXKXKXKXKXKXKXKXKXKXKXKXKXKX                    KXKXKXKXKXKXKXKXKXKXKX",
"KXKXKXKXKXKXKXKXKXKXKXKXKXKXKXKXKXKXKXKXKXKXKXKXKXKXKXKXKXKXKXKXKXKXKXKXKXKXKXKXKXKXKXKXKXKXKXKXKXKXKXKXKXKXKXKXKXKXKXKXKXKXKXKX",
"KXKXKXKXKXKXKXKXKXKXKXKXKXKXKXKXKXKXKXKXKXKXKXKXKXKXKXKXKXKXKXKXKXKXKXKXKXKXKXKXKXKXKXKXKXKXKXKXKXKXKXKXKXKXKXKXKXKXKXKXKXKXKXKX",
"KXKXKXKXKXKXKXKXKXKXKXKXKXKXKXKXKXKXKXKXKXKXKXKXKXKXKXKXKXKXKXKXKXKXKXKXKXKXKXKXKXKXKXKXKXKXKXKXKXKXKXKXKXKXKXKXKXKXKXKXKXKXKXKX",
"KXKXKXKXKXKXKXKXKXKXKXKXKXKXKXKXKXKXKXKXKXKXKXKXKXKXKXKXKXKXKXKXKXKXKXKXKXKXKXKXKXKXKXKXKXKXKXKXKXKXKXKXKXKXKXKXKXKXKXKXKXKXKXKX",
"KXKXKXKXKXKXKXKXKXKXKXKXKXKXKXKXKXKXKXKXKXKXKXKXKXKXKXKXKXKXKXKXKXKXKXKXKXKXKXKXKXKXKXKXKXKXKXKXKXKXKXKXKXKXKXKXKXKXKXKXKXKXKXKX",
"KXKXKXKXKXKXKXKXKXKXKXKXKXKXKXKXKXKXKXKXKXKXKXKXKXKXKXKXKXKXKXKXKXKXKXKXKXKXKXKXKXKXKXKXKXKXKXKXKXKXKXKXKXKXKXKXKXKXKXKXKXKXKXKX",
"KXKXKXKXKXKXKXKXKXKXKXKXKXKXKXKXKXKXKXKXKXKXKXKXKXKXKXKXKXKXKXKXKXKXKXKXKXKXKXKXKXKXKXKXKXKXKXKXKXKXKXKXKXKXKXKXKXKXKXKXKXKXKXKX",
"KXKXKXKXKXKXKXKXKXKXKXKXKXKXKXKXKXKXKXKXKXKXKXKXKXKXKXKXKXKXKXKXKXKXKXKXKXKXKXKXKXKXKXKXKXKXKXKXKXKXKXKXKXKXKXKXKXKXKXKXKXKXKXKX",
"KXKXKXKXKXKXKXKXKXKXKXKXKXKXKXKXKXKXKXKXKXKXKXKXKXKXKXKXKXKXKXKXKXKXKXKXKXKXKXKXKXKXKXKXKXKXKXKXKXKXKXKXKXKXKXKXKXKXKXKXKXKXKXKX"
};
