/* XPM */
static char *result[] = {
/* columns rows colors chars-per-pixel */
"64 64 177 2 ",
"   c black",
".  c #0B0202",
"X  c #160407",
"o  c #190404",
"O  c #1B090D",
"+  c #1D0509",
"@  c #1D0D12",
"#  c #240606",
"$  c #2C010B",
"%  c #2D080E",
"&  c #25060B",
"*  c #310808",
"=  c #3D0A0A",
"-  c #39020C",
";  c #280B10",
":  c #350014",
">  c #3C0B13",
",  c #201219",
"<  c #37121C",
"1  c #39161C",
"2  c #44000F",
"3  c #4A0C0C",
"4  c #560E0E",
"5  c #440C15",
"6  c #4B0715",
"7  c #570714",
"8  c #40141E",
"9  c #5A101C",
"0  c #76071C",
"q  c #631010",
"w  c #6F0E1C",
"e  c #531B2B",
"r  c #711424",
"t  c #701E2A",
"y  c #641326",
"u  c #402837",
"i  c #5B283B",
"p  c #77222A",
"a  c #6F2439",
"s  c #662839",
"d  c #7E2738",
"f  c #713A3F",
"g  c #60374A",
"h  c #704661",
"j  c #87001F",
"k  c #8C081C",
"l  c #81161F",
"z  c #96061F",
"x  c #8E0A29",
"c  c #860822",
"v  c #9E0024",
"b  c #920125",
"n  c #851B2A",
"m  c #8B1529",
"M  c #931A29",
"N  c #921229",
"B  c #9C0831",
"V  c #991535",
"C  c #A00423",
"Z  c #AA0226",
"A  c #B50029",
"S  c #B00127",
"D  c #A0003D",
"F  c #AB0537",
"G  c #BD0033",
"H  c #B51835",
"J  c #882835",
"K  c #852035",
"L  c #922434",
"P  c #B52039",
"I  c #C3003B",
"U  c #8B2D48",
"Y  c #8A3444",
"T  c #953F5D",
"R  c #9A3447",
"E  c #A22D42",
"W  c #A72E4C",
"Q  c #BA2540",
"!  c #BD2A46",
"~  c #BE2E4A",
"^  c #BE304D",
"/  c #A63756",
"(  c #CA0043",
")  c #C8024A",
"_  c #D2004D",
"`  c #C71E4C",
"'  c #D60052",
"]  c #DA1C5E",
"[  c #E1065E",
"{  c #C42F4F",
"}  c #C9244E",
"|  c #C53454",
" . c #CE395E",
".. c #C83657",
"X. c #E40D63",
"o. c #ED0F6E",
"O. c #E9116E",
"+. c #EF0F71",
"@. c #F41276",
"#. c #F61579",
"$. c #F9157D",
"%. c #CE3E62",
"&. c #D83766",
"*. c #9D4054",
"=. c #964F67",
"-. c #AF496B",
";. c #BD4A6B",
":. c #B9557C",
">. c #9D6869",
",. c #C24065",
"<. c #C5456B",
"1. c #D3486D",
"2. c #DE4973",
"3. c #DE4172",
"4. c #C95C7B",
"5. c #DA527C",
"6. c #D2597F",
"7. c #C84A71",
"8. c #E14E79",
"9. c #E2527E",
"0. c #FF1884",
"q. c #FE2388",
"w. c #FF3A9A",
"e. c #BB618A",
"r. c #D25980",
"t. c #C95C85",
"y. c #E45482",
"u. c #E75886",
"i. c #E65E8D",
"p. c #EA5D8C",
"a. c #FE439E",
"s. c #FA4F99",
"d. c #D17283",
"f. c #D86390",
"g. c #DA719B",
"h. c #E2608C",
"j. c #ED6494",
"k. c #EC6C9C",
"l. c #E46894",
"z. c #F16798",
"x. c #F06D9E",
"c. c #FC5EA5",
"v. c #F26FA1",
"b. c #FB67AB",
"n. c #E471A0",
"m. c #EB78A9",
"M. c #F771A5",
"N. c #F576A9",
"B. c #F877AC",
"V. c #F679AD",
"C. c #F97DB2",
"Z. c #B18587",
"A. c #DA8D9C",
"S. c #DF90A4",
"D. c #EC81B5",
"F. c #EF84B9",
"G. c #F680B2",
"H. c #FB81B5",
"J. c #FA84BB",
"K. c #FC89BC",
"L. c #F586BC",
"P. c #C5A3A5",
"I. c #F78CC3",
"U. c #FB8BC3",
"Y. c #FF92C6",
"T. c #F692CA",
"R. c #FE93CA",
"E. c #FF98CF",
"W. c #FC96D0",
"Q. c #FE9BD4",
"!. c #FF9ED8",
"~. c #FFA2DE",
"^. c #FBA0D6",
"/. c #FFADE2",
"(. c #FFF0FB",
"). c #FFFBFF",
"_. c None",
/* pixels */
"_._._._._._._._._._._._._._._._._._._._._._._._._._._._._._._._._._._._._._._._._._._._._._._._._._._._._._._._._._._._._._._._.",
"_._._._._._._._._._._._._._._._._._._._._._._._._._._._._._._._._._._._._._._._._._._._._._._._._._._._._._._._._._._._._._._._.",
"_._._._._._._._._._._._._._._._._._._._._._._._._._._._._._._._._._._._._._._._._._._._._._._._._._._._._._._._._._._._._._._._.",
"_._._._._._._._._._._._._._._._._._._._._._._._._._._._._._._._._._._._._._._._._._._._._._._._._._._._._._._._._._._._._._._._.",
"_._._._._._._._._._._._._._._._._._._._._._._._._._._._._._._._._._._._._._._._._._._._._._._._._._._._._._._._._._._._._._._._.",
"_._._._._._._._._._._._._._._._._._._._._._._._._._._._._._._._._._._._._._._._._._._._._._._._._._._._._._._._._._._._._._._._.",
"_._._._._._._._._._._._._._._._._._._._._._._._._._._._._._._._._._._._._._._._._._._._._._._._._._._._._._._._._._._._._._._._.",
"_._._._._._._._._._._._._._._._._._._._._._._._._._._._._._._._._._._._._._._._._._._._._._._._._._._._._._._._._._._._._._._._.",
"_._._._._._._._._._._._._._._._._._._._._._._._._._._._._._._._._._._._._._._._._._._._._._._._._._._._._._._._._._._._._._._._.",
"_._._._._._._._._._._._._._._._._._._._._._._._._._._._._._._._._._._._._._._._._._._._._._._._._._._._._._._._._._._._._._._._.",
"_._._._._._._._._._._._._._._._._._._._._._._._.                            _._._._._._._._._._._._._._._._._._._._._._._._._._.",
"_._._._._._._._._._._._._._._._._._._._._._._.                              _._._._._._._._._._._._._._._._._._._._._._._._._._.",
"_._._._._._._._._._._._._._._._._._._._._._._.+ % % < < < < < < < < < % X o _._._._._._._._._._._._._._._._._._._._._._._._._._.",
"_._._._._._._._._._._._._._._._._._._.        r P Q 2.2.2.2.2.2.2.2.8.E q q           _._._._._._._._._._._._._._._._._._._._._.",
"_._._._._._._._._._._._._._._._._._._.        r P Q 2.2.2.2.2.2.2.2.2.L q q           _._._._._._._._._._._._._._._._._._._._._.",
"_._._._._._._._._._._._._._._._.    + 3 3 :.:.n.D.F.I.I.I.I.I.I.I.I.I.D.g.g./ / p 3 =     _._._._._._._._._._._._._._._._._._._.",
"_._._._._._._._._._._._._._._._.    # q q M.M.Y.~.~.~.~.~.~.~.~.~.~.~.Q.Y.Y.2.2.L q 3     _._._._._._._._._._._._._._._._._._._.",
"_._._._._._._._._._._._._._._._.    1 *.*.j.j.l.n.m.~.~.L.L.V.n.n.W.~.!.E.E.k.l.;.R d # & . _._._._._._._._._._._._._._._._._._.",
"_._._._._._._._._._._._._._._._.    g Y.R.2.2.{ P ^ ~.~.h.2. .P P T.~.~.~.~.~.~.J.M.r.q q o     _._._._._._._._._._._._._._._._.",
"_._._._._._._._._._._._._._._._.    g Y.Y.2.2.{ P ^ ~.~.h.2. .P P T.~.~.~.~.~.~.J.M.r.q q o     _._._._._._._._._._._._._._._._.",
"_._._._._._._._._._._._._._.    ;.2.k.~.!.q q P.).(.~.~.Y q >.).)./.~.~.~.~.~.~.~.~.L.2.2.<     _._._._._._._._._._._._._._._._.",
"_._._._._._._._._._._._._._.    %.2.k.~./.q q P.).(.~.~.Y q >.).)./.~.~.~.~.~.~.~.~.I.2.2.<     _._._._._._._._._._._._._._._._.",
"_._._._._._._._._.        & 9 9 5.i.N.~.~.* $ =.A.S.~.~.s * g A.A.^.~.~.~.~.~.~.~.~.E.k.k.d 9 5         _._._._._._._._._._._._.",
"_._._._._._._._._.        % P P z.v.J.~.~.    r P ^ ~.~.u   5 P P T.~.~.~.~.~.~.~.~.~.Y.R.%.H r           _._._._._._._._._._._.",
"_._._._._._._._._.X X @ , 8 P Q k.N.J.~.~.    r Q | ~.~.u   5 Q Q T.~.~.~.~.~.~.~.~.!.R.R.1.! K , @ X X X _._._._._._._._._._._.",
"_._._._._._.    X P H l.Y.G.8.2.W./.~.~.~.    U 8.9.~.~.u   e 2.2.W.~.~.~.~.~.~.~.~.~.~.~.C.M.M.M.M.P P 9     _._._._._._._._._.",
"_._._._._._.    o P P l.Y.G.2.2.W.~.~.~./.    U 2.y.~.~.u   e 2.2.W.~.~.~.~.~.~.~.~.~.~.~.C.M.M.M.M.P P 9     _._._._._._._._._.",
"_._._._._._.    O m.n.R.!.R.z.z.C.C.b.w.w.    T z.v.~.~.u   i z.k.a.w.w.w.w.~.~.~.~.~.~.~.W.W.W.E.E.D.D.t./ /     _._._._._._._.",
"_._._._._._.    , Y.Y.Q.~.E.M.M.M.M.s.0.0.    =.M.B.~.~.u   i N.M.q.0.0.0.0.~.~.~.~.~.~.~.~.~.~.!.~.~.~.m.2.,.    _._._._._._._.",
"_._._._._._.    , Y.Y.Q.!.Y.z.j.N.B.c.w.w.u u e.C.J.~.~.h u =.C.C.a.w.w.w.w.~.~.~.~.~.!.!.~.~.~./.!.!.!.N.y.7.    _._._._._._._.",
"_._._._._._.    , Y.Y.Y.Y.G.2.2.K.Y.W./.!.~.~.~.~.~.~.~.~.~.~.~.~.~.~.~.~.~.~.~.~.~.!.Y.R.!.~.~.~.~.R.R.H.M.f.    _._._._._._._.",
"_._._._._._.    , Y.Y.Y.Y.G.2.2.K.R.E.!./.~.~.~.~.~.~.~.~.~.~.~.~.~.~.~.~.~.~.~.~.!.!.Y.Y.!.~.~.~.!.Y.Y.H.M.f.    _._._._._._._.",
"_._._._._._.    O 9.9.9.9.8.2.2.| ~ ^ ^ ^ p p 4.B.C.!./.~.~.~.~.~.~.~.~.~.~.~.~.~.~.!.Y.Y.Y.R.R.Y.R.Y.Y.M.2.<.    _._._._._._._.",
"_._._._._._.    O 3.8.8.2.2.2.8.P P P P P q q ;.M.B.~.!.~.~.~.~.~.~.~.~.~.~.~.~.~.~.!.Y.Y.Y.Y.Y.Y.Y.Y.Y.k.2.,.    _._._._._._._.",
"_._._._._._._.  O a a W ..| } } ] ] ] ] ] Z.Z.4.1.5.U.U.Q.~.~.~.~.~.~.~.~.~.~.~.!.Q.R.H.C.H.H.H.H.H.x.x.-.a s     _._._._._._._.",
"_._._._._._._._._.    r H H A A #.0.0.0.0.).).d.H ! v.b.W.~.~./.~.~.~.~.~.~.~.~.E.Y.K.M.M.M.M.M.M.M.2.2.a     _._._._._._._._._.",
"_._._._._._._._._.    r P H A A #.0.0.0.0.).).d.Q ! M.M.R.~.~.!.~.~.~.~.~.~.~.~.E.Y.K.M.M.M.M.M.M.M.2.2.a     _._._._._._._._._.",
"_._._._._._._._._._._.    : ' ' 0.0.0.0.0.0.0.0.0.#.A A y.M.C.Y.Y.Y.Y.H.M.M.M.M.M.M.M.M.M...P r           _._._._._._._._._._._.",
"_._._._._._._._._._._.    : ' _ $.0.0.0.0.0.0.0.0.#.A A y.M.C.Y.Y.Y.Y.H.M.M.M.M.M.M.M.M.M...P r           _._._._._._._._._._._.",
"_._._._._._._._._._._.    $ I I #.0.0.0.0.0.0.0.0.$.( ( 8.u.j.C.C.C.C.B.M.M.M.M.M.M.j.%.%.e 5 > _._._._._._._._._._._._._._._._.",
"_._._._._._._._._._._.    $ A A #.0.0.0.0.0.0.0.0.$.' ' &.8.u.M.M.M.M.M.M.M.M.M.M.M.h.P H %     _._._._._._._._._._._._._._._._.",
"_._._._._._._._._._._.    $ C C O.#.@.@.@.0.0.0.0.$.[ [ &.%.9.M.M.M.M.M.M.M.z.z.h.6.;.m n %   _._._._._._._._._._._._._._._._._.",
"_._._._._._._._._._._.    X q q ) ' ' ' ' 0.0.0.0.0.0.0.` P %.M.M.M.M.M.M.M.2.2.L q 3     _._._._._._._._._._._._._._._._._._._.",
"_._._._._._._._._._._.    o q q ) ' ' ' ' 0.0.0.0.0.0.0.` H %.M.M.M.M.M.M.M.2.8.L q 3     _._._._._._._._._._._._._._._._._._._.",
"_._._._._._._._._._._._._._.o o w c B ' ' [ [ @.0.0.0.0.V w L ..| | | E J J n n N C 0     _._._._._._._._._._._._._._._._._._._.",
"_._._._._._._._._._._._._._.    4 q x ' ' ' ' +.0.0.0.0.m q l P P P P m q q q q z S c     _._._._._._._._._._._._._._._._._._._.",
"_._._._._._._._._._._._._._.    = = w D F ' ' X.+.o.X.X.y 2 4 r r M M N x x x x S I b     _._._._._._._._._._._._._._._._._._._.",
"_._._._._._._._._._._._._._._._.    # q q ' ' ' ' _ A A $         4 q B ' ' ' ' ' ' D     _._._._._._._._._._._._._._._._._._._.",
"_._._._._._._._._._._._._._._._.    # q q ' ' ' ' _ A A $         4 q B ' ' ' ' ' ' D     _._._._._._._._._._._._._._._._._._._.",
"_._._._._._._._._._._._._._._._._._._.                      2 A A A A I ' ' ' ' I A j     _._._._._._._._._._._._._._._._._._._.",
"_._._._._._._._._._._._._._._._._._._.                      2 A A A A I ' ' ' ' I A j     _._._._._._._._._._._._._._._._._._._.",
"_._._._._._._._._._._._._._._._._._._.                      - k k A A G I ( I I c 7 6     _._._._._._._._._._._._._._._._._._._.",
"_._._._._._._._._._._._._._._._._._._._._._._._._._._._.    # q q Z A A A A A A 2     _._._._._._._._._._._._._._._._._._._._._.",
"_._._._._._._._._._._._._._._._._._._._._._._._._._._._.    # 4 4 b v v v C v v -     _._._._._._._._._._._._._._._._._._._._._.",
"_._._._._._._._._._._._._._._._._._._._._._._._._._._._._._._.                  _._._._._._._._._._._._._._._._._._._._._._._._.",
"_._._._._._._._._._._._._._._._._._._._._._._._._._._._._._._.                  _._._._._._._._._._._._._._._._._._._._._._._._.",
"_._._._._._._._._._._._._._._._._._._._._._._._._._._._._._._._._._._._._._._._._._._._._._._._._._._._._._._._._._._._._._._._.",
"_._._._._._._._._._._._._._._._._._._._._._._._._._._._._._._._._._._._._._._._._._._._._._._._._._._._._._._._._._._._._._._._.",
"_._._._._._._._._._._._._._._._._._._._._._._._._._._._._._._._._._._._._._._._._._._._._._._._._._._._._._._._._._._._._._._._.",
"_._._._._._._._._._._._._._._._._._._._._._._._._._._._._._._._._._._._._._._._._._._._._._._._._._._._._._._._._._._._._._._._.",
"_._._._._._._._._._._._._._._._._._._._._._._._._._._._._._._._._._._._._._._._._._._._._._._._._._._._._._._._._._._._._._._._.",
"_._._._._._._._._._._._._._._._._._._._._._._._._._._._._._._._._._._._._._._._._._._._._._._._._._._._._._._._._._._._._._._._.",
"_._._._._._._._._._._._._._._._._._._._._._._._._._._._._._._._._._._._._._._._._._._._._._._._._._._._._._._._._._._._._._._._.",
"_._._._._._._._._._._._._._._._._._._._._._._._._._._._._._._._._._._._._._._._._._._._._._._._._._._._._._._._._._._._._._._._."
};
