/* XPM */
static char *result[] = {
/* columns rows colors chars-per-pixel */
"64 64 177 2 ",
"   c black",
".  c #040101",
"X  c #080101",
"o  c #080202",
"O  c #0C0202",
"+  c #0D0202",
"@  c #100303",
"#  c #110303",
"$  c #1D0606",
"%  c #210707",
"&  c #2E0F06",
"*  c #250808",
"=  c #290908",
"-  c #290909",
";  c #2E0909",
":  c #320A0A",
">  c #3B0C0C",
",  c #361007",
"<  c #220B1F",
"1  c #260B1D",
"2  c #2D0C19",
"3  c #2E0C19",
"4  c #2A0C1C",
"5  c #340C16",
"6  c #3B0D12",
"7  c #3C0D12",
"8  c #310C18",
"9  c #3A1418",
"0  c #0D082B",
"q  c #09082D",
"w  c #130927",
"e  c #170925",
"r  c #1B0923",
"t  c #1F0A21",
"y  c #180925",
"u  c #100829",
"i  c #100929",
"p  c #251322",
"a  c #371527",
"s  c #3E2936",
"d  c #430E0E",
"f  c #49100E",
"g  c #4C130D",
"h  c #4F130D",
"j  c #4C140C",
"k  c #4E180D",
"l  c #50160D",
"z  c #55160D",
"x  c #52190B",
"c  c #541C09",
"v  c #541C0D",
"b  c #551D0E",
"n  c #5C1E0B",
"m  c #5D1E0B",
"M  c #5B180D",
"N  c #421414",
"B  c #6A1F0C",
"V  c #58220D",
"C  c #62220A",
"Z  c #662309",
"A  c #61250D",
"S  c #682609",
"D  c #692609",
"F  c #6D200C",
"G  c #6D210C",
"H  c #6F2A08",
"J  c #752E07",
"K  c #73230C",
"L  c #6D350C",
"P  c #773105",
"I  c #76370A",
"U  c #793D0A",
"Y  c #673217",
"T  c #4C2820",
"R  c #543627",
"E  c #694322",
"W  c #6B4527",
"Q  c #724A3E",
"!  c #1D1C47",
"~  c #823605",
"^  c #8B3806",
"/  c #8D3806",
"(  c #8E3E04",
")  c #8F3E04",
"_  c #923D05",
"`  c #943D05",
"'  c #82480B",
"]  c #954203",
"[  c #9B4303",
"{  c #9B4602",
"}  c #9B4603",
"|  c #91450A",
" . c #994D0A",
".. c #89520C",
"X. c #9B5808",
"o. c #A14902",
"O. c #A84E01",
"+. c #AC5302",
"@. c #AF5D05",
"#. c #A65B08",
"$. c #B05902",
"%. c #B45F02",
"&. c #B66603",
"*. c #B96502",
"=. c #B06C07",
"-. c #BD6B02",
";. c #BA6B04",
":. c #B86E04",
">. c #AC7009",
",. c #BF7204",
"<. c #BB7606",
"1. c #B3790A",
"2. c #826032",
"3. c #956F34",
"4. c #A17D39",
"5. c #C17102",
"6. c #C17103",
"7. c #C97C03",
"8. c #C97C04",
"9. c #CB7F04",
"0. c #896856",
"q. c #82675B",
"w. c #B18021",
"e. c #AD8B3F",
"r. c #C68007",
"t. c #CB8305",
"y. c #CE8104",
"u. c #CE8204",
"i. c #C18308",
"p. c #CC8D08",
"a. c #D18704",
"s. c #D28704",
"d. c #D68D04",
"f. c #D69607",
"g. c #DB9304",
"h. c #DA9305",
"j. c #DF9905",
"k. c #DC9907",
"l. c #E39E05",
"z. c #E39F05",
"x. c #E7A405",
"c. c #E7A406",
"v. c #EBAA06",
"b. c #ECAE0C",
"n. c #ECAF13",
"m. c #EDAF13",
"M. c #EDB212",
"N. c #F0BB1E",
"B. c #D39D33",
"V. c #EAB729",
"C. c #F3C329",
"Z. c #F3C32A",
"A. c #F1C535",
"S. c #F5CB35",
"D. c #B99944",
"F. c #C4A74A",
"G. c #D0B44F",
"H. c #D0B54F",
"J. c #E4BA46",
"K. c #E3C14D",
"L. c #EFD24E",
"P. c #F2D04D",
"I. c #FADC4D",
"U. c #F2CA52",
"Y. c #F3CA52",
"T. c #E8D05A",
"R. c #FAE25F",
"E. c #E8D575",
"W. c #FFEC65",
"Q. c #B7A588",
"!. c #D0C39F",
"~. c #F6DF84",
"^. c #FFF287",
"/. c #FBEF9C",
"(. c #FEF8A8",
"). c #E7E1B8",
"_. c #FEFFD0",
/* pixels */
"q q q q q q q q q q q q q q q q q q q q q q q q q q q q q q q q q q q q q q q q q q q q q q q q q q q q q q q q q q q q q q q q ",
"q q q q q q q q q q q q q q q q q q q q q q q q q q q q q q q q q q q q q q q q q q q q q q q q q q q q q q q q q q q q q q q q ",
"q q q q q q q q q q q q q q q q q q q q q q q q q q q q q q 2 d d ! q q q q q q q q q q q q q q q q q q q q q q q q q q q q q q ",
"q q q q q q q q q q q q q q q q q q q q q q q q q q q w 2 2 q.Q.Q.a 2 < q q q q q q q q q q q q q q q q q q q q q q q q q q q q ",
"q q q q q q q q q q q q q q q q q q q q q q q q q r t s 0.0.!._._.D D b t t u q q q q q q q q q q q q q q q q q q q q q q q q q ",
"q q q q q q q q q q q q q q q q q q q q q q q q q 6 d Q _._._._._.O.O.) d d t q q q q q q q q q q q q q q q q q q q q q q q q q ",
"q q q q q q q q q q q q q q q q q q q q q q q i d )._._._._.U.v.v.O.O.O.O.O.D 3 q q q q q q q q q q q q q q q q q q q q q q q q ",
"q q q q q q q q q q q q q q q q q q q q q q q i d E.(._._.Y.n.v.v.h.-.O.O.O.D 3 q q q q q q q q q q q q q q q q q q q q q q q q ",
"q q q q q q q q q q q q q q q q q r t t t t t < d T.^./.~.m.v.v.v.v.s.*.O.O.D 5 t t t t t t 0 q q q q q q q q q q q q q q q q q ",
"q q q q q q q q q q q q q q 0 i i N v V V V V V d T.W.I.v.v.v.v.v.v.v.h.O.O.D k V V V V V V t i i q q q q q q q q q q q q q q q ",
"q q q q q q q q q q q q q q t d d ( 7.v.v.v.v.f.d T.W.I.v.v.v.v.v.v.v.h.O.O.D ' v.v.v.v.v.v.L d 7 q q q q q q q q q q q q q q q ",
"q q q q q q q q q q q q q 4 W H.H.K.V.v.v.v.v.f.d T.W.I.v.v.v.v.v.v.v.h.O.O.D ' v.v.v.v.v.v.p.i.1.5 w q q q q q q q q q q q q q ",
"q q q q q q q q q q q q 1 2.F.W.W.W.S.c.7.7.7.:.d T.W.P.7.c.v.v.v.v.r.#./ O.D I 7.7.7.d.v.v.v.j.,.J 9 e q q q q q q q q q q q q ",
"q q q q q q q q q q q q d G.W.W.W.W.A.h.{ { { ) d T.R.J.O.g.x.v.v.k. .K K o.Z C { { { &.z.z.z.u.O.O.m 1 q q q q q q q q q q q q ",
"q q q q q q q q q q q q d G.W.W.W.W.B.} d d d d d T.B.O.O.O.s.v.v.K K K K K z d d d d S O.O.O.O.O.O.m 1 q q q q q q q q q q q q ",
"q q q q q q q q q q y 5 i.L.W.W.W.3.Y x # # # # # E Y H O.O.%.@.| K K B h h = # # # # & n n <.8.O.O.] A 8 q q q q q q q q q q q ",
"q q q q q q q q q q t d v.C.S.A.B.Y : $           $ % , J J ] [ K M M j % % +         O * d i.a.O.O.O.J 7 q q q q q q q q q q q ",
"q q q q q q q q q q t d v.v.x.h.{ c $                 O > > P _ G > > ;                 o > >.t.$.O.O.J 7 q q q q q q q q q q q ",
"q q q q q q q q q q t d v.v.a.} d @                         - d d                           : ' l.O.O.J 7 q q q q q q q q q q q ",
"q q q q q q q q q q t d v.v.a.} d @                         . X X                           : ' l.O.O.J 7 q q q q q q q q q q q ",
"q q q q q q q q q q t d v.v.a.} d @                                                         : ' l.O.O.J 7 q q q q q q q q q q q ",
"q q q q q q q q q q t d v.v.a.} d @                                                         : ' l.O.O.J 7 q q q q q q q q q q q ",
"q q q q q q q q q q t d v.v.a.} d @                                                         : ' l.O.O.J 7 q q q q q q q q q q q ",
"q q q q q q q q q q t d v.v.a.} d @                                                         : ' l.O.O.J 7 q q q q q q q q q q q ",
"q q q q q q q q q q t d v.v.a.} d @                                                         : ' l.O.O.J 7 q q q q q q q q q q q ",
"q q q q q q q q q q t d v.v.a.} d @                                                         : ' l.O.O.J 7 q q q q q q q q q q q ",
"q q q q q q q q q q t d v.v.a.} d @                                                         : ' l.O.O.J 7 q q q q q q q q q q q ",
"q q q q q q q q q q t d v.v.a.} d @                                                         : ' l.O.O.J 7 q q q q q q q q q q q ",
"q q q q q q q q q q t d v.v.a.} d @                                                         : ' l.O.O.J 7 q q q q q q q q q q q ",
"q q q q q q q q q q t d v.v.a.} d @                                                         : ' l.O.O.J 7 q q q q q q q q q q q ",
"q q q q q q q q q q t d v.v.a.} d @                                                         : ' l.O.O.J 7 q q q q q q q q q q q ",
"q q q q q q q q q q t d v.v.a.} d @                                                         : ' l.O.O.J 7 q q q q q q q q q q q ",
"q q q q q q q q q q t d v.v.a.} d @                                                         : ' l.O.O.J 7 q q q q q q q q q q q ",
"q q q q q q q q q q t d v.v.a.} d @                                                         : ' l.O.O.J 7 q q q q q q q q q q q ",
"q q q q q q q q q q t d v.v.a.} d @                                                         : ' l.O.O.J 7 q q q q q q q q q q q ",
"q q q q q q q q q q t d v.v.a.} d @                                                         : ' l.O.O.J 7 q q q q q q q q q q q ",
"q q q q q q q q q q t d v.v.a.} d @                                                         : ' l.O.O.J 7 q q q q q q q q q q q ",
"q q q q q q q q q q t d v.v.a.} d @                                                         : ' l.O.O.J 7 q q q q q q q q q q q ",
"q q q q q q q q q q t d v.v.a.} d @                                                         : ' l.O.O.J 7 q q q q q q q q q q q ",
"q q q q q q q q q q t d v.v.a.} d @                                                         : ' l.O.O.J 7 q q q q q q q q q q q ",
"q q q q q q q q q q t d v.v.a.} d @                                                         : ' l.O.O.J 7 q q q q q q q q q q q ",
"q q q q q q q q q q t d v.v.a.} d @                                                         : ' l.O.O.J 7 q q q q q q q q q q q ",
"q q q q q q q q q q t d v.v.a.} d @                                                         : ' l.O.O.J 7 q q q q q q q q q q q ",
"q q q q q q q q q q t d v.v.a.} d @                                                         : ' l.O.O.J 7 q q q q q q q q q q q ",
"q q q q q q q q q q t d v.v.a.} d @                                                         : ' l.O.O.J 7 q q q q q q q q q q q ",
"q q q q q q q q q q t d v.v.a.} d @                                                         : ' l.O.O.J 7 q q q q q q q q q q q ",
"q q q q q q q q q q t d v.v.a.} d @                                                         : ' l.O.O.J 7 q q q q q q q q q q q ",
"q q q q q q q q q q t d v.v.a.} d @                                                         : ' l.O.O.J 7 q q q q q q q q q q q ",
"q q q q q q q q q q t d v.v.a.} d @                                                         : ' l.O.O.J 7 q q q q q q q q q q q ",
"q q q q q q q q q q t d v.v.a.} d @                                                         : ' l.O.O.J 7 q q q q q q q q q q q ",
"q q q q q q q q q q t d v.v.a.} d @                                                         : ' l.O.O.J 7 q q q q q q q q q q q ",
"q q q q q q q q q q t d v.v.a.} d @                                                         : ' l.O.O.J 7 q q q q q q q q q q q ",
"q q q q q q q q q q t d v.v.a.} d @                                                         : ' l.O.O.J 7 q q q q q q q q q q q ",
"q q q q q q q q q r R 4.S.M.a.} d @                                                         : ' l.O.6.=...1 0 q q q q q q q q q ",
"q q q q q q q q e T e.W.W.N.a.} d @                                                         : ' l.O.g.v.f.L p u q q q q q q q q ",
"q q q q q q q q d D.W.W.W.N.a.} d @                                                         : ' l.O.g.v.v.v.V 1 q q q q q q q q ",
"q q q q q q q q d D.W.W.M.b.a.} d @                                                         : ' l.O.+.y.v.v.V 1 q q q q q q q q ",
"q q q q q q q q d w.Z.Z.v.v.a.} d @                                                         : ' l.O.O.%.5.5.v 1 q q q q q q q q ",
"q q q q q q q q d >.v.v.v.v.a.} d @                                                         : ' l.O.O.O.O.O.l 1 q q q q q q q q ",
"q q q q q q q q d >.v.v.v.v.a.} d @                                                         : ' l.O.O.O.O.O.l 1 q q q q q q q q ",
"q q q q q q q q d >.v.v.v.v.a.} d @                                                         : ' l.O.O.O.O.O.l 1 q q q q q q q q ",
"q q q q q q q q d >.v.v.v.v.a.} d @                                                         : ' l.O.O.O.O.O.l 1 q q q q q q q q ",
"q q q q q q q q d X.s.s.s.s.;.^ d @                                                         : U 9.` ` ` ` ` g 1 q q q q q q q q ",
"q q q q q q q q d ~ O.O.O.O.` F d @                                                         : S o.K K K K K f 1 q q q q q q q q "
};
