/* XPM */
static char *result[] = {
/* columns rows colors chars-per-pixel */
"64 64 169 2 ",
"   c black",
".  c #0D0202",
"X  c #160206",
"o  c #190404",
"O  c #1A000A",
"+  c #1C090E",
"@  c gray12",
"#  c #250606",
"$  c #2A0707",
"%  c #2D000A",
"&  c #2D080E",
"*  c #200308",
"=  c #310808",
"-  c #3D0A0A",
";  c #38010E",
":  c #200310",
">  c #350014",
",  c #380A12",
"<  c #3C041C",
"1  c #31191D",
"2  c #44000F",
"3  c #4A0B0C",
"4  c #560D0E",
"5  c #430D15",
"6  c #50001E",
"7  c #5A101C",
"8  c #6E0E13",
"9  c #610C11",
"0  c #631010",
"q  c #73171D",
"w  c #770C16",
"e  c #400621",
"r  c #5F1624",
"t  c #531B2B",
"y  c #511927",
"u  c #751823",
"i  c #402431",
"p  c #5C2A3E",
"a  c #572233",
"s  c #6F2439",
"d  c #6B283A",
"f  c #7A364F",
"g  c #7B3852",
"h  c #604451",
"j  c #7D415B",
"k  c #87001F",
"l  c #8C081C",
"z  c #810C1D",
"x  c #81161F",
"c  c #8E0A29",
"v  c #990123",
"b  c #8B1826",
"n  c #811E28",
"m  c #961B2A",
"M  c #990034",
"N  c #9C0831",
"B  c #801D30",
"V  c #9E1C32",
"C  c #9A1339",
"Z  c #AA0226",
"A  c #AE022B",
"S  c #B50029",
"D  c #B9002E",
"F  c #A01C2F",
"G  c #A6023D",
"H  c #BE0234",
"J  c #BA0932",
"K  c #B90138",
"L  c #852538",
"P  c #B52039",
"I  c #C4003C",
"U  c #951E4D",
"Y  c #9F0F53",
"T  c #B90442",
"R  c #B91A43",
"E  c #8D2D46",
"W  c #AB2944",
"Q  c #BA2540",
"!  c #BD2A46",
"~  c #BE2C4A",
"^  c #AF334E",
"/  c #A73756",
"(  c #B93957",
")  c #C70640",
"_  c #CA0043",
"`  c #CB0149",
"'  c #D2004D",
"]  c #C71E4B",
"[  c #C81748",
"{  c #CD0A55",
"}  c #D60052",
"|  c #DB0358",
" . c #DB075B",
".. c #C41558",
"X. c #D21754",
"o. c #E1065E",
"O. c #C9244E",
"+. c #C42F4F",
"@. c #C62850",
"#. c #CE2E57",
"$. c #C93456",
"%. c #C73A5A",
"&. c #CF395D",
"*. c #D3355F",
"=. c #E60965",
"-. c #EA0C6B",
";. c #EF0F71",
":. c #F51277",
">. c #FA157E",
",. c #DA2763",
"<. c #CE3E61",
"1. c #D63867",
"2. c #D73E6D",
"3. c #EE307B",
"4. c #AD405A",
"5. c #804963",
"6. c #C34064",
"7. c #CD4569",
"8. c #D24A6E",
"9. c #D8446C",
"0. c #DE4973",
"q. c #D34D74",
"w. c #DD517A",
"e. c #E14E79",
"r. c #E3537F",
"t. c #FF1884",
"y. c #F03682",
"u. c #E75886",
"i. c #E75E8B",
"p. c #EA5D8C",
"a. c #E25481",
"s. c #D36895",
"d. c #E36792",
"f. c #ED6392",
"g. c #EA6898",
"h. c #F16798",
"j. c #F46C9E",
"k. c #F75BA1",
"l. c #FF5DB1",
"z. c #EE75A8",
"x. c #EE77A5",
"c. c #F771A5",
"v. c #F876AA",
"b. c #F979AD",
"n. c #F479AA",
"m. c #FA7DB3",
"M. c #F37EB2",
"N. c #ED81B4",
"B. c #F781B2",
"V. c #FB82B5",
"C. c #FC85B9",
"Z. c #FC89BD",
"A. c #EC97B9",
"S. c #FD8DC2",
"D. c #FC8FC9",
"F. c #FF92C6",
"G. c #FE95CB",
"H. c #FF98CF",
"J. c #FD96D0",
"K. c #FF9BD4",
"L. c #FF9ED8",
"P. c #FFA2DE",
"I. c #FCACDB",
"U. c #FABFDA",
"Y. c #FFB8E6",
"T. c #ECC4CE",
"R. c #FDDBEB",
"E. c #FFFBFF",
"W. c None",
/* pixels */
"W.W.W.W.W.W.W.W.W.W.W.W.W.W.W.W.W.W.W.W.W.W.W.W.W.W.W.W.W.W.W.W.W.W.W.W.W.W.W.W.W.W.W.W.W.W.W.W.W.W.W.W.W.W.W.W.W.W.W.W.W.W.W.W.",
"W.W.W.W.W.W.W.W.W.W.W.W.W.W.W.W.W.W.W.W.W.W.W.W.W.W.W.W.W.W.W.W.W.W.W.W.W.W.W.W.W.W.W.W.W.W.W.W.W.W.W.W.W.W.W.W.W.W.W.W.W.W.W.W.",
"W.W.W.W.W.W.W.W.W.W.W.W.W.W.W.W.W.W.W.W.W.W.W.W.W.W.W.W.W.W.W.W.W.W.W.W.W.W.W.W.W.W.W.W.W.W.W.W.W.W.W.W.W.W.W.W.W.W.W.W.W.W.W.W.",
"W.W.W.W.W.W.W.W.W.W.W.W.W.W.W.W.W.W.W.W.W.W.W.W.W.W.W.W.W.W.W.W.W.W.W.W.W.W.W.W.W.W.W.W.W.W.W.W.W.W.W.W.W.W.W.W.W.W.W.W.W.W.W.W.",
"W.W.W.W.W.W.W.W.W.W.W.W.W.W.W.W.W.W.W.W.W.W.W.W.W.W.W.W.W.W.W.W.W.W.W.W.W.W.W.W.W.W.W.W.W.W.W.W.W.W.W.W.W.W.W.W.W.W.W.W.W.W.W.W.",
"W.W.W.W.W.W.W.W.W.W.W.W.W.W.W.W.W.W.W.W.W.W.W.W.W.W.W.W.W.W.W.W.W.W.W.W.W.W.W.W.W.W.W.W.W.W.W.W.W.W.W.W.W.W.W.W.W.W.W.W.W.W.W.W.",
"W.W.W.W.W.W.W.W.W.W.W.W.W.W.W.W.W.W.W.W.W.W.W.W.W.W.W.W.W.W.W.W.W.W.W.W.W.W.W.W.W.W.W.W.W.W.W.W.W.W.W.W.W.W.W.W.W.W.W.W.W.W.W.W.",
"W.W.W.W.W.W.W.W.W.W.W.W.W.W.W.W.W.W.W.W.W.W.W.W.W.W.W.W.W.W.W.W.W.W.W.W.W.W.W.W.W.W.W.W.W.W.W.W.W.W.W.W.W.W.W.W.W.W.W.W.W.W.W.W.",
"W.W.W.W.W.W.W.W.W.W.W.W.W.W.W.W.W.W.W.W.W.W.W.W.W.W.W.W.W.W.W.W.W.W.W.W.W.W.W.W.W.W.W.W.W.W.W.W.W.W.W.W.W.W.W.W.W.W.W.W.W.W.W.W.",
"W.W.W.W.W.W.W.W.W.W.W.W.W.W.W.W.W.W.W.W.W.W.W.W.W.W.W.W.W.W.W.W.W.W.W.W.W.W.W.W.W.W.W.W.W.W.W.W.W.W.W.W.W.W.W.W.W.W.W.W.W.W.W.W.",
"W.W.W.W.W.W.W.W.W.W.W.W.W.W.W.W.W.W.W.W.W.W.W.W.W.W.W.W.W.W.W.W.W.W.W.W.W.W.W.W.W.W.W.W.W.W.W.W.W.W.W.W.W.W.W.W.W.W.W.W.W.W.W.W.",
"W.W.W.W.W.W.W.W.W.W.W.W.W.W.W.W.W.W.W.W.W.W.W.W.W.W.W.W.W.W.W.W.W.W.W.W.W.W.W.W.W.W.W.W.W.W.W.W.W.W.W.W.W.W.W.W.W.W.W.W.W.W.W.W.",
"W.W.W.W.W.W.W.W.W.W.W.W.W.W.W.W.W.W.W.W.W.                                      W.W.W.W.W.W.W.W.W.W.W.W.W.W.W.W.W.W.W.W.W.W.W.W.",
"W.W.W.W.W.W.W.W.W.W.W.W.W.W.W.W.W.W.W.W.W.                                      W.W.W.W.W.W.W.W.W.W.W.W.W.W.W.W.W.W.W.W.W.W.W.W.",
"W.W.W.W.W.W.W.W.W.W.W.W.W.W.W.W.              / 0.u.c.c.S.F.F.F.S.c.c.u.0./               W.W.W.W.W.W.W.W.W.W.W.W.W.W.W.W.W.W.W.",
"W.W.W.W.W.W.W.W.W.W.W.W.W.W.W.W.              / 0.u.c.c.F.F.F.F.S.c.c.u.0./               W.W.W.W.W.W.W.W.W.W.W.W.W.W.W.W.W.W.W.",
"W.W.W.W.W.W.W.W.W.W.W.W.W.W.        , 7 r g g s.z.M.S.S.J.J.L.J.J.S.S.B.z.s.5.j r 7 ,         W.W.W.W.W.W.W.W.W.W.W.W.W.W.W.W.W.",
"W.W.W.W.W.W.W.W.W.W.W.W.W.W.        u P ! c.c.G.P.P.P.P.P.P.P.P.P.P.P.P.P.P.G.F.~ P u           W.W.W.W.W.W.W.W.W.W.W.W.W.W.W.W.",
"W.W.W.W.W.W.W.W.W.W.W.W.W.W.    X X B ~ %.v.v.J.P.P.P.P.P.P.P.P.P.P.P.P.P.J.B.B.%.~ L + +       W.W.W.W.W.W.W.W.W.W.W.W.W.W.W.W.",
"W.W.W.W.W.W.W.W.W.W.W.W.W.W.    P P d.G.G.P.P.P.P.P.P.P.P.P.P.P.P.P.P.P.P.N.P P B.G.n.0.0.      W.W.W.W.W.W.W.W.W.W.W.W.W.W.W.W.",
"W.W.W.W.W.W.W.W.W.W.W.W.W.W.    P P d.G.G.P.P.P.P.P.P.P.P.P.P.P.P.P.P.P.P.N.P P B.G.n.0.0.      W.W.W.W.W.W.W.W.W.W.W.W.W.W.W.W.",
"W.W.W.W.W.W.W.W.W.W.W.          i.i.C.L.L.P.P.P.P.P.P.P.P.P.L.G.G.G.G.L.P.I.T.T.h i g f.h.3 3 $     W.W.W.W.W.W.W.W.W.W.W.W.W.W.",
"W.W.W.W.W.W.W.W.W.W.W.          c.c.D.P.P.P.P.P.P.P.P.P.P.P.J.G.F.F.F.L.P.Y.E.E.@   p c.c.0 0 =     W.W.W.W.W.W.W.W.W.W.W.W.W.W.",
"W.W.W.W.W.W.W.W.W.W.W.    . & & m.M.J.P.P.P.P.P.P.P.L.L.J.H.Z.B.M.B.B.D.L.I.R.R.1 o d i.i.n n 5     W.W.W.W.W.W.W.W.W.W.W.W.W.W.",
"W.W.W.W.W.W.W.W.W.W.W.    5 P P L.P.P.P.P.P.P.P.P.K.F.F.v.c.p.0.0.0.0.x.F.Z.c.c.u 0 x P P e.0.s     W.W.W.W.W.W.W.W.W.W.W.W.W.W.",
"W.W.W.W.W.W.W.W.W.W.W.    5 P P P.P.P.P.P.P.P.P.P.L.F.F.c.c.p.0.0.0.0.n.F.Z.c.c.u 0 x P P 0.0.s     W.W.W.W.W.W.W.W.W.W.W.W.W.W.",
"W.W.W.W.W.W.W.W.W.W.W.    y 9.9.P.P.P.P.P.P.P.P.P.P.P.L.L.L.F.Z.V.j.j.u.a.g.K.K.q.7.E X o j.j.f     W.W.W.W.W.W.W.W.W.W.W.W.W.W.",
"W.W.W.W.W.W.W.W.W.W.W.    t e.0.P.P.P.P.P.P.P.P.P.P.P.P.P.P.K.F.F.c.c.u.0.i.P.P.a.0.E     c.c.g     W.W.W.W.W.W.W.W.W.W.W.W.W.W.",
"W.W.W.W.W.W.W.W.W.W.W.    a p.p.P.P.P.P.P.L.J.P.P.P.P.P.P.P.P.J.H.B.B.w.$.2.l.l.y.3.U     V.V.j     W.W.W.W.W.W.W.W.W.W.W.W.W.W.",
"W.W.W.W.W.W.W.W.W.W.W.    p c.c.P.P.P.P.L.G.F.L.P.P.P.P.P.P.P.P.P.F.F.8.P ] t.t.t.t.Y     F.F.5.    W.W.W.W.W.W.W.W.W.W.W.W.W.W.",
"W.W.W.W.W.W.W.W.W.W.W.    p c.c.P.P.P.P.L.G.D.L.P.P.P.P.P.P.P.P.P.F.F.8.P ] t.t.t.t.Y     F.F.5.    W.W.W.W.W.W.W.W.W.W.W.W.W.W.",
"W.W.W.W.W.W.W.W.W.W.W.    p c.c.P.P.P.P.L.G.F.F.F.F.F.F.F.F.F.F.Z.c.c.1.P 6.P.P.P.P.P.P.P.F.F.5.    W.W.W.W.W.W.W.W.W.W.W.W.W.W.",
"W.W.W.W.W.W.W.W.W.W.W.    d c.c.P.P.P.P.P.F.F.F.F.F.F.F.F.F.F.F.F.c.c.<.P 6.P.P.P.P.P.P.P.F.F.5.    W.W.W.W.W.W.W.W.W.W.W.W.W.W.",
"W.W.W.W.W.W.W.W.W.W.W.    t u.r.H.H.L.P.P.K.K.G.F.F.F.F.F.F.Z.b.v.u.u.9.&.w.P.P.P.P.L.H.H.8.q.L - -         W.W.W.W.W.W.W.W.W.W.",
"W.W.W.W.W.W.W.W.W.W.W.    t 0.0.F.F.L.P.P.P.P.G.F.F.F.F.F.F.C.c.j.0.0.0.e.i.P.P.P.P.L.F.F.P P b 0 4           W.W.W.W.W.W.W.W.W.",
"W.W.W.W.W.W.W.W.W.W.W.    t 0.0.F.Z.H.L.P.P.P.H.F.F.F.Z.Z.Z.c.f.f.0.0.e.e.d.P.P.P.P.H.Z.Z.! ! m 8 0 : : X X . W.W.W.W.W.W.W.W.W.",
"W.W.W.W.W.W.W.W.W.W.W.    t e.0.c.c.C.F.G.P.P.P.P.F.c.c.e.0.$.P P 0.0.c.F.G.P.P.G.D.C.c.c.c.c.1.S H t.t.) S k     W.W.W.W.W.W.W.",
"W.W.W.W.W.W.W.W.W.W.W.    t e.0.c.c.C.F.G.P.P.P.P.F.c.c.e.e.$.P Q 0.0.n.F.G.P.P.G.F.C.c.c.c.c.1.S H t.t.) S k     W.W.W.W.W.W.W.",
"W.W.W.W.W.W.W.W.W.    - 3 u ! +.c.c.v.v.b.m.m.D.G.D.S.Z.M.B.n.x.x.B.B.F.F.Z.B.m.b.b.c.c.c.a.e.,.` ' t.t. .` M     W.W.W.W.W.W.W.",
"W.W.W.W.W.W.W.W.W.    4 0 x P P c.c.c.c.c.c.c.Z.F.F.F.F.F.F.F.F.F.F.F.F.F.Z.c.c.c.c.c.c.c.e.e.,.}  .t.t.o.} G     W.W.W.W.W.W.W.",
"W.W.W.W.W.W.W.W.W.6 6 C C C m m f.f.j.c.c.c.c.m.C.C.C.C.C.C.C.C.Z.C.C.C.C.V.c.c.c.c.j.f.f.#.#.X.} | t.t.} _ M     W.W.W.W.W.W.W.",
"W.W.W.W.W.W.    > } } >.t...0 0 0.e.f.c.c.c.c.c.c.c.c.c.c.c.c.c.c.c.c.c.c.c.c.c.c.c.f.0.0.S S I } | t.t.I S k     W.W.W.W.W.W.W.",
"W.W.W.W.W.W.    > } } t.t...9 4 0.0.p.c.c.c.c.c.c.c.c.c.c.c.c.c.c.c.c.c.c.c.c.c.c.c.f.0.0.S S I } | t.t.) S c     W.W.W.W.W.W.W.",
"W.W.W.W.W.W.    > } } U.R.A.` ` q q ( e.r.c.c.c.c.c.c.c.c.c.c.c.c.c.c.c.c.c.c.c.r.w.*.J J ' ' } } ' H H x 8 4     W.W.W.W.W.W.W.",
"W.W.W.W.W.W.    & } } R.E.F.} } 0 0 ^ 0.e.c.c.c.c.c.c.c.c.c.c.c.c.c.c.c.c.c.c.c.e.0.#.S S } } } } ' S S w 0 3     W.W.W.W.W.W.W.",
"W.W.W.W.W.W.    < -.-.m.Z.k.-.-.N N R O.O.4.4.7.8.w.p.p.p.p.p.p.p.p.p.w.8.7.4.( @.O.[ I I } } ` I H l l 3 = $     W.W.W.W.W.W.W.",
"W.W.W.W.W.W.    e t.t.t.t.t.t.t.} } I S Z 0 0 F P @.0.0.0.0.0.0.0.0.0.+.P F 0 0 Z S I } } } } K S Z 0 0 o     W.W.W.W.W.W.W.W.W.",
"W.W.W.W.W.W.    < >.>.t.t.t.t.t.| } I J S 8 8 b V W 6.6.6.6.6.6.6.6.6.W V m 0 0 Z S H ' ' ` ` K v v 4 4 o     W.W.W.W.W.W.W.W.W.",
"W.W.W.W.W.W.    > } } >.t.t.t.t.t.t.=.} ' S S %                           o 0 0 Z S S S S 0 0 =         W.W.W.W.W.W.W.W.W.W.W.W.",
"W.W.W.W.W.W.    > } } t.t.t.t.t.t.t.=.} ' S S %                           o 0 0 Z S S S S 0 0 =         W.W.W.W.W.W.W.W.W.W.W.W.",
"W.W.W.W.W.W.    * c c  .=.;.t.t.=.=.| } ' _ _ ;     W.W.W.W.W.W.W.W.W.W.W.. $ # ; 2 2 2 2 # # o W.W.W.W.W.W.W.W.W.W.W.W.W.W.W.W.",
"W.W.W.W.W.W.    o 0 0 ` } =.t.t.} } } } } } } >     W.W.W.W.W.W.W.W.W.W.W.W.                    W.W.W.W.W.W.W.W.W.W.W.W.W.W.W.W.",
"W.W.W.W.W.W.    o 3 3 G T { :.:.} } } } } ` ` >     W.W.W.W.W.W.W.W.W.W.W.W.                  W.W.W.W.W.W.W.W.W.W.W.W.W.W.W.W.W.",
"W.W.W.W.W.W.W.W.W.    4 0 c } } } } } } ' S S %     W.W.W.W.W.W.W.W.W.W.W.W.W.W.W.W.W.W.W.W.W.W.W.W.W.W.W.W.W.W.W.W.W.W.W.W.W.W.",
"W.W.W.W.W.W.W.W.W.    4 0 c } } } } } } ' S S %     W.W.W.W.W.W.W.W.W.W.W.W.W.W.W.W.W.W.W.W.W.W.W.W.W.W.W.W.W.W.W.W.W.W.W.W.W.W.",
"W.W.W.W.W.W.W.W.W.W.W.. . . O O O O O O O X X W.W.W.W.W.W.W.W.W.W.W.W.W.W.W.W.W.W.W.W.W.W.W.W.W.W.W.W.W.W.W.W.W.W.W.W.W.W.W.W.W.",
"W.W.W.W.W.W.W.W.W.W.W.                        W.W.W.W.W.W.W.W.W.W.W.W.W.W.W.W.W.W.W.W.W.W.W.W.W.W.W.W.W.W.W.W.W.W.W.W.W.W.W.W.W.",
"W.W.W.W.W.W.W.W.W.W.W.                        W.W.W.W.W.W.W.W.W.W.W.W.W.W.W.W.W.W.W.W.W.W.W.W.W.W.W.W.W.W.W.W.W.W.W.W.W.W.W.W.W.",
"W.W.W.W.W.W.W.W.W.W.W.W.W.W.W.W.W.W.W.W.W.W.W.W.W.W.W.W.W.W.W.W.W.W.W.W.W.W.W.W.W.W.W.W.W.W.W.W.W.W.W.W.W.W.W.W.W.W.W.W.W.W.W.W.",
"W.W.W.W.W.W.W.W.W.W.W.W.W.W.W.W.W.W.W.W.W.W.W.W.W.W.W.W.W.W.W.W.W.W.W.W.W.W.W.W.W.W.W.W.W.W.W.W.W.W.W.W.W.W.W.W.W.W.W.W.W.W.W.W.",
"W.W.W.W.W.W.W.W.W.W.W.W.W.W.W.W.W.W.W.W.W.W.W.W.W.W.W.W.W.W.W.W.W.W.W.W.W.W.W.W.W.W.W.W.W.W.W.W.W.W.W.W.W.W.W.W.W.W.W.W.W.W.W.W.",
"W.W.W.W.W.W.W.W.W.W.W.W.W.W.W.W.W.W.W.W.W.W.W.W.W.W.W.W.W.W.W.W.W.W.W.W.W.W.W.W.W.W.W.W.W.W.W.W.W.W.W.W.W.W.W.W.W.W.W.W.W.W.W.W.",
"W.W.W.W.W.W.W.W.W.W.W.W.W.W.W.W.W.W.W.W.W.W.W.W.W.W.W.W.W.W.W.W.W.W.W.W.W.W.W.W.W.W.W.W.W.W.W.W.W.W.W.W.W.W.W.W.W.W.W.W.W.W.W.W.",
"W.W.W.W.W.W.W.W.W.W.W.W.W.W.W.W.W.W.W.W.W.W.W.W.W.W.W.W.W.W.W.W.W.W.W.W.W.W.W.W.W.W.W.W.W.W.W.W.W.W.W.W.W.W.W.W.W.W.W.W.W.W.W.W."
};
