/* XPM */
static char *result[] = {
/* columns rows colors chars-per-pixel */
"64 64 248 2 ",
"   c black",
".  c #0C0202",
"X  c #0B0204",
"o  c #140303",
"O  c #160404",
"+  c #1E0306",
"@  c #190404",
"#  c #1C090E",
"$  c #1F0E14",
"%  c #1F1118",
"&  c #1F141C",
"*  c #210505",
"=  c #250606",
"-  c #2E0707",
";  c #200308",
":  c #280109",
">  c #2D000A",
",  c #2A070C",
"<  c #2D080E",
"1  c #31000F",
"2  c #310808",
"3  c #2A0010",
"4  c #350014",
"5  c #330D15",
"6  c #3C0B13",
"7  c #37121C",
"8  c #37121D",
"9  c #3C1926",
"0  c #3D1C29",
"q  c #3E1C29",
"w  c #3F2231",
"e  c #4A0C0C",
"r  c #560E0E",
"t  c #570E0E",
"y  c #440C15",
"u  c #50001E",
"i  c #50001F",
"p  c #49111C",
"a  c #5E1018",
"s  c #5A101C",
"d  c #600C11",
"f  c #6D0E13",
"g  c #780C16",
"h  c #7D021B",
"j  c #631010",
"k  c #77141A",
"l  c #4C1623",
"z  c #511927",
"x  c #531B2B",
"c  c #601523",
"v  c #6D1322",
"b  c #711423",
"n  c #711424",
"m  c #402837",
"M  c #5C2330",
"N  c #582335",
"B  c #5F2234",
"V  c #5B283B",
"C  c #5C2A3E",
"Z  c #6F2439",
"A  c #5E2E41",
"S  c #603548",
"D  c #60364A",
"F  c #60374A",
"G  c #88001E",
"H  c #83042C",
"J  c #8E0A29",
"K  c #94002E",
"L  c #811E28",
"P  c #88182B",
"I  c #961A29",
"U  c #9E1C31",
"Y  c #9D133C",
"T  c #A00423",
"R  c #AA0226",
"E  c #B50029",
"W  c #A1003D",
"Q  c #AA0639",
"!  c #AD023F",
"~  c #BB0030",
"^  c #BD0033",
"/  c #BA0932",
"(  c #BE0538",
")  c #AC103B",
"_  c #B51031",
"`  c #88283D",
"'  c #A3293F",
"]  c #B52039",
"[  c #C10038",
"{  c #C1043A",
"}  c #C5003D",
"|  c #A80447",
" . c #BB0048",
".. c #892B44",
"X. c #8B2D47",
"o. c #8B2E47",
"O. c #962F4B",
"+. c #A62640",
"@. c #A02C41",
"#. c #BD2A46",
"$. c #BF2A47",
"%. c #B9224A",
"&. c #B0344E",
"*. c #AA3E5B",
"=. c #BE3C52",
"-. c #BD3A5A",
";. c #BF1263",
":. c #C70640",
">. c #CA0043",
",. c #C8024A",
"<. c #CE084C",
"1. c #D2004D",
"2. c #D3044F",
"3. c #D4064F",
"4. c #D1094B",
"5. c #C9124A",
"6. c #C61C48",
"7. c #CD0B5E",
"8. c #D60052",
"9. c #D30B52",
"0. c #DB0358",
"q. c #DB085D",
"w. c #E0065E",
"e. c #E1065E",
"r. c #C42F4F",
"t. c #CE2E57",
"y. c #C63454",
"u. c #CF395D",
"i. c #D2355F",
"p. c #DA1A61",
"a. c #DF1574",
"s. c #E30761",
"d. c #E50965",
"f. c #E60964",
"g. c #E60A66",
"h. c #E80A67",
"j. c #E80A68",
"k. c #EA0C6B",
"l. c #F21074",
"z. c #F21174",
"x. c #F51277",
"c. c #F61579",
"v. c #FA157D",
"b. c #FA157E",
"n. c #CE3E62",
"m. c #D43E64",
"M. c #804963",
"N. c #80516F",
"B. c #905B7D",
"V. c #9F597B",
"C. c #D9446C",
"Z. c #D6486F",
"A. c #C7576A",
"S. c #DE4973",
"D. c #D05177",
"F. c #DE527C",
"G. c #DE537D",
"H. c #E14E79",
"J. c #E1527E",
"K. c #E4537F",
"L. c #FF1884",
"P. c #FF268C",
"I. c #9F5F81",
"U. c #AF6990",
"Y. c #DA5980",
"T. c #DE5F88",
"R. c #E45380",
"E. c #E55885",
"W. c #E75885",
"Q. c #E75D8A",
"!. c #EA5D8C",
"~. c #EA5F8E",
"^. c #DA618B",
"/. c #D86390",
"(. c #E7668F",
"). c #E36791",
"_. c #EC6291",
"`. c #ED6292",
"'. c #EA6492",
"]. c #EF6495",
"[. c #EF6797",
"{. c #E66D9E",
"}. c #EE6D9C",
"|. c #F06798",
" X c #F16798",
".X c #F46C9E",
"XX c #E67696",
"oX c #FF51A3",
"OX c #F26FA0",
"+X c #E371A0",
"@X c #ED75A6",
"#X c #EE75A8",
"$X c #F273A4",
"%X c #F771A5",
"&X c #F473A5",
"*X c #F474A5",
"=X c #F875A9",
"-X c #F877AB",
";X c #F278AC",
":X c #F77AAD",
">X c #F979AD",
",X c #EC7FB1",
"<X c #FA7DB1",
"1X c #F97DB3",
"2X c #ED81B4",
"3X c #EC81B5",
"4X c #FB81B5",
"5X c #F485BB",
"6X c #FA83BA",
"7X c #FC86BA",
"8X c #F788BD",
"9X c #FB89BB",
"0X c #FD89BD",
"qX c #FB89C1",
"wX c #FC8AC0",
"eX c #FD8DC3",
"rX c #FE8EC2",
"tX c #FB8FC5",
"yX c #FC8FC8",
"uX c #FC8FC9",
"iX c #FA90C5",
"pX c #FE90C4",
"aX c #FF92C6",
"sX c #F692C9",
"dX c #F692CA",
"fX c #FC90C9",
"gX c #FD91CA",
"hX c #FF94C9",
"jX c #FF95CB",
"kX c #F895CD",
"lX c #FF96CC",
"zX c #FE96CF",
"xX c #FF98CF",
"cX c #FB97D1",
"vX c #FD96D0",
"bX c #FF9AD2",
"nX c #FA9AD4",
"mX c #FF9BD4",
"MX c #FF9CD5",
"NX c #FE9CD7",
"BX c #FF9ED8",
"VX c #FF9FDA",
"CX c #FDA2D9",
"ZX c #FFA0DB",
"AX c #FFA2DE",
"SX c #FFADE2",
"DX c #FFFBFF",
"FX c None",
/* pixels */
"FXFXFXFXFXFXFXFXFXFXFXFXFXFXFXFXFXFXFXFXFXFXFXFXFXFXFXFXFXFXFXFXFXFXFXFXFXFXFXFXFXFXFXFXFXFXFXFXFXFXFXFXFXFXFXFXFXFXFXFXFXFXFXFX",
"FXFXFXFXFXFXFXFXFXFXFXFXFXFXFXFXFXFXFXFXFXFXFXFXFXFXFXFXFXFXFXFXFXFXFXFXFXFXFXFXFXFXFXFXFXFXFXFXFXFXFXFXFXFXFXFXFXFXFXFXFXFXFXFX",
"FXFXFXFXFXFXFXFXFXFXFXFXFXFXFXFXFXFXFXFXFXFXFXFXFXFXFXFXFXFXFXFXFXFXFXFXFXFXFXFXFXFXFXFXFXFXFXFXFXFXFXFXFXFXFXFXFXFXFXFXFXFXFXFX",
"FXFXFXFXFXFXFXFXFXFXFXFXFXFXFXFXFXFXFXFXFXFXFXFXFXFXFXFXFXFXFXFXFXFXFXFXFXFXFXFXFXFXFXFXFXFXFXFXFXFXFXFXFXFXFXFXFXFXFXFXFXFXFXFX",
"FXFXFXFXFXFXFXFXFXFXFXFXFXFXFXFXFXFXFXFXFXFXFXFXFXFXFXFXFXFXFXFXFXFXFXFXFXFXFXFXFXFXFXFXFXFXFXFXFXFXFXFXFXFXFXFXFXFXFXFXFXFXFXFX",
"FXFXFXFXFXFXFXFXFXFXFXFXFXFXFXFXFXFXFXFXFXFXFXFXFXFXFXFXFXFXFXFXFXFXFXFXFXFXFXFXFXFXFXFXFXFXFXFXFXFXFXFXFXFXFXFXFXFXFXFXFXFXFXFX",
"FXFXFXFXFXFXFXFXFXFXFXFXFXFXFXFXFXFXFXFXFXFXFXFXFXFXFXFXFXFXFXFXFXFXFXFXFXFXFXFXFXFXFXFXFXFXFXFXFXFXFXFXFXFXFXFXFXFXFXFXFXFXFXFX",
"FXFXFXFXFXFXFXFXFXFXFXFXFXFXFXFXFXFXFXFXFXFXFXFXFXFXFXFXFXFXFXFXFXFXFXFXFXFXFXFXFXFXFXFXFXFXFXFXFXFXFXFXFXFXFXFXFXFXFXFXFXFXFXFX",
"FXFXFXFXFXFXFXFXFXFXFXFXFXFXFXFXFXFXFXFXFXFXFXFXFXFXFXFXFXFXFXFXFXFXFXFXFXFXFXFXFXFXFXFXFXFXFXFXFXFXFXFXFXFXFXFXFXFXFXFXFXFXFXFX",
"FXFXFXFXFXFXFXFXFXFXFXFXFXFXFXFXFXFXFXFXFXFXFXFXFXFXFXFXFXFXFXFXFXFXFXFXFXFXFXFXFXFXFXFXFXFXFXFXFXFXFXFXFXFXFXFXFXFXFXFXFXFXFXFX",
"FXFXFXFXFXFXFXFXFXFXFXFXFXFXFXFXFXFXFXFXFXFXFXFXFXFXFXFXFXFXFXFXFXFXFXFXFXFXFXFXFXFXFXFXFXFXFXFXFXFXFXFXFXFXFXFXFXFXFXFXFXFXFXFX",
"FXFXFXFXFXFXFXFXFXFXFXFXFXFXFXFXFXFXFXFXFXFXFX                                        FXFXFXFXFXFXFXFXFXFXFXFXFXFXFXFXFXFXFXFXFX",
"FXFXFXFXFXFXFXFXFXFXFXFXFXFXFXFXFXFXFXFXFXFXFX                                        FXFXFXFXFXFXFXFXFXFXFXFXFXFXFXFXFXFXFXFXFX",
"FXFXFXFXFXFXFXFXFXFXFXFXFXFXFXFXFXFXFXFXFXFXFX6 y p x x V C A D D C C N x z y y X     FXFXFXFXFXFXFXFXFXFXFXFXFXFXFXFXFXFXFXFXFX",
"FXFXFXFXFXFXFXFXFXFXFXFXFXFXFXFXFXFX          b ] $.S.S. X%X<XaXaX%X%X!.S.C.] ] <               FXFXFXFXFXFXFXFXFXFXFXFXFXFXFXFX",
"FXFXFXFXFXFXFXFXFXFXFXFXFXFXFXFXFXFX          b ] $.S.S. X%X<XaXaX%X%X!.S.C.] ] <               FXFXFXFXFXFXFXFXFXFXFXFXFXFXFXFX",
"FXFXFXFXFXFXFXFXFXFXFXFXFXFXFXFX    s ] ] %X%XyXAXAXAXAXAXAXAXAXAXAXAXAXAXAXAXAX1X%X|.S.S.#         FXFXFXFXFXFXFXFXFXFXFXFXFXFX",
"FXFXFXFXFXFXFXFXFXFXFXFXFXFXFXFX    s ] ] %X%XyXAXAXAXAXAXAXAXAXAXAXAXAXAXAXAXAX1X%X|.S.S.#         FXFXFXFXFXFXFXFXFXFXFXFXFXFX",
"FXFXFXFXFXFXFXFXFXFXFXFXFXFX    v n *.).).fXfXNXAXAXAXAXAXAXAXAXAXAXAXAXAXnXD.D.5XfX@Xr.r.O.o.x     FXFXFXFXFXFXFXFXFXFXFXFXFXFX",
"FXFXFXFXFXFXFXFXFXFXFXFXFXFX    U ] Y.aXaXAXAXAXAXAXAXAXAXAXAXAXAXAXAXAXAXsX] ] 3XAX2X] ] C.S.X.    FXFXFXFXFXFXFXFXFXFXFXFXFXFX",
"FXFXFXFXFXFXFXFXFXFXFXFXFXFX    +.#.T.hXhXAXAXAXAXAXAXAXAXAXAXAXAXAXAXAXAXsX=.=.+XsX,X#.#.m.C...    FXFXFXFXFXFXFXFXFXFXFXFXFXFX",
"FXFXFXFXFXFXFXFXFXFXFXFXFXFX    /.%XqXAXAXAXAXAXAXAXAXAXAXAXAXAXAXAXAXAXAXSXDXDXA.] y.%X%X#.] n         FXFXFXFXFXFXFXFXFXFXFXFX",
"FXFXFXFXFXFXFXFXFXFXFXFXFXFX    /.%XqXAXAXAXAXAXAXAXAXAXAXAXAXAXAXAXAXAXAXSXDXDXA.] y.%X%X#.] n         FXFXFXFXFXFXFXFXFXFXFXFX",
"FXFXFXFXFXFXFXFXFXFXFX    , P P 5XvXNXAXAXAXAXAXAXAXAXAXAXAXAXAXAXAXAXAXAXCXXXXXM < B %X%Xl < y P P     FXFXFXFXFXFXFXFXFXFXFXFX",
"FXFXFXFXFXFXFXFXFXFXFX    < ] ] dXAXAXAXAXAXAXAXAXAXAXAXAXAXAXAXAXAXAXAXAXcXS.S.7   q %X%X$   y ] ]     FXFXFXFXFXFXFXFXFXFXFXFX",
"FXFXFXFXFXFXFXFXFXFXFX    5 r.r.kXAXAXAXAXAXAXAXAXAXAXAXAXAXZXMXMXAXAXAXAXcXS.S.7   w 6X6X%   l n.n.    FXFXFXFXFXFXFXFXFXFXFXFX",
"FXFXFXFXFXFXFXFXFXFXFX    8 S.S.cXAXAXAXAXAXAXAXAXAXAXAXAXAXMXaXaXAXAXAXAXcXS.S.7   m AXAX&   C %X%X    FXFXFXFXFXFXFXFXFXFXFXFX",
"FXFXFXFXFXFXFXFXFXFXFX    8 S.S.cXAXAXAXAXAXAXAXAXAXAXAXAXAXMXaXaXAXAXAXAXcXS.S.7   m AXAX&   C %X%X    FXFXFXFXFXFXFXFXFXFXFXFX",
"FXFXFXFXFXFXFXFXFXFXFX    8 S.S.cXAXAXAXAXAXAXAXAXAXAXAXAXAXgX=X=XhXhXmXAXNX.X.X9   m AXAX&   S rXrX    FXFXFXFXFXFXFXFXFXFXFXFX",
"FXFXFXFXFXFXFXFXFXFXFX    8 S.S.cXAXAXAXAXAXAXAXAXAXAXAXAXAXuX%X%XaXaXbXAXNX%X%X0   m AXAX&   F aXaX    FXFXFXFXFXFXFXFXFXFXFXFX",
"FXFXFXFXFXFXFXFXFXFXFX    8 S.S.cXAXAXAXAXbXbXVXAXAXAXAXAXAXzX4X4X}.}.8XAXVXqXqXV.M.I.AXAXB.N.U.aXaX    FXFXFXFXFXFXFXFXFXFXFXFX",
"FXFXFXFXFXFXFXFXFXFXFX    8 S.S.cXAXAXAXAXaXaXMXAXAXAXAXAXAXMXaXaXS.S.#XAXAXAXAXlXaXlXAXAXAXAXMXaXaX    FXFXFXFXFXFXFXFXFXFXFXFX",
"FXFXFXFXFXFXFXFXFXFXFX    8 S.S.cXAXAXAXAXaXaXMXAXAXAXAXAXAXMXaXaXS.S.#XAXAXAXAXlXaXlXAXAXAXAXMXaXaX    FXFXFXFXFXFXFXFXFXFXFXFX",
"FXFXFXFXFXFXFXFXFX    e j L S.S.9XaXbXAXAXaXaXaXaXaXaXaXaXaX7X%X%X] ] ^.AXAXAXAXAXAX2X] ] dXAXMXaXaX    FXFXFXFXFXFXFXFXFXFXFXFX",
"FXFXFXFXFXFXFXFXFX    e j L S.S.9XaXbXAXAXaXaXaXaXaXaXaXaXaX7X%X%X] ] ^.AXAXAXAXAXAX2X] ] dXAXMXaXaX    FXFXFXFXFXFXFXFXFXFXFXFX",
"FXFXFXFXFXFXFXFXFX    H Q ) r.r.*X<XwXxXxX'.'.&X<X<X<X<X<X<XOXW.W.u.u.{.AXAXAXAXbXxXiX).).tXxXeX<X<X    FXFXFXFXFXFXFXFXFXFXFXFX",
"FXFXFXFXFXFXFXFXFX    W 8.<.] ] [.%X4XaXaXS.S.`.%X%X%X%X%X%X`.S.S.S.S.#XAXAXAXAXlXaXaXaXaXaXaX7X%X%X    FXFXFXFXFXFXFXFXFXFXFXFX",
"FXFXFXFXFXFXFXFXFX    | e.p.A.A.(.Q.$X0X0XS.S.E.Q.Q.Q.Q.Q.Q.J.S.S.R.R.;XBXBXBXBXjXaXpX0X0X0X0X:XQ.Q.    FXFXFXFXFXFXFXFXFXFXFXFX",
"FXFXFXFXFXFXFXFXFX    ;.L.oXDXDX=.] Z.%X%XS.S.r.] ] ] ] ] ] r.S.S.%X%X4XaXaXaXaXaXaX0X%X%X%X%XG.] ]     FXFXFXFXFXFXFXFXFXFXFXFX",
"FXFXFXFXFXFXFXFXFX    ;.L.oXDXDX=.] Z.%X%XS.S.r.] ] ] ] ] ] r.S.S.%X%X4XaXaXaXaXaXaX0X%X%X%X%XG.] ]     FXFXFXFXFXFXFXFXFXFXFXFX",
"FXFXFXFXFXFXFXFXFX    ;.L.P.oXoX9.<.5.6.6. X X~.Q.Q.Q.Q.Q.Q._. X X%X%X=X>X>X>X>X>X>X-X%X%XW.K.-.k k     FXFXFXFXFXFXFXFXFXFXFXFX",
"FXFXFXFXFXFXFXFXFX    ;.L.L.L.L.0.8.} E E %X%X%X%X%X%X%X%X%X%X%X%X%X%X%X%X%X%X%X%X%X%X%X%XH.S.&.j j     FXFXFXFXFXFXFXFXFXFXFXFX",
"FXFXFXFXFXFXFXFXFX    ;.L.L.L.L.h.f.2.[ [ G.G.[.%X%X%X%X%X%X%X%X%X%X%X%X%X%X%X%X].`.`.`.`.i.t.%.Y Y u u 3 FXFXFXFXFXFXFXFXFXFXFX",
"FXFXFXFXFXFXFXFXFX    ;.L.L.L.L.L.L.k.8.8.] ] F.%X%X%X%X%X%X%X%X%X%X%X%X%X%X%X%XK.S.S.S.S./ E 4.L.L.8.8.i     FXFXFXFXFXFXFXFXFX",
"FXFXFXFXFXFXFXFXFX    ;.L.L.L.L.L.L.k.8.8.] ] F.%X%X%X%X%X%X%X%X%X%X%X%X%X%X%X%XK.S.S.S.S./ E 4.L.L.8.8.i     FXFXFXFXFXFXFXFXFX",
"FXFXFXFXFXFXFXFXFX    W 8.w.L.L.L.L.L.L.L.j j I ] $.S.S.S.S.S.S.S.S.S.S.S.C.] ] <.8.8.8.8.b.L.L.L.L.L.L.L.L.a.    FXFXFXFXFXFXFX",
"FXFXFXFXFXFXFXFXFX    W 8.w.L.L.L.L.L.L.L.j j I ] $.S.S.S.S.S.S.S.S.S.S.S.C.] ] <.8.8.8.8.b.L.L.L.L.L.L.L.L.a.    FXFXFXFXFXFXFX",
"FXFXFXFXFXFXFXFXFX    K } 3.L.L.L.L.x.k.k.j j a s c Z Z Z Z Z Z Z Z Z ` @.' _ _ { } >.8.8.j.k.z.L.L.L.L.l.k.7.    FXFXFXFXFXFXFX",
"FXFXFXFXFXFXFXFXFX    G E :.L.L.L.L.k.8.8.j j =                       2 j f E E E E ^ 8.8.8.8.d.L.L.L.L.d.8. .    FXFXFXFXFXFXFX",
"FXFXFXFXFXFXFXFXFX    h R ( c.c.v.v.g.1.1.r r *                       - r d R R E E ~ 1.1.8.8.s.v.v.v.v.q.,.!     FXFXFXFXFXFXFX",
"FXFXFXFXFXFXFXFXFX    e j g E E 1.8.} E E     FXFXFXFXFXFXFXFXFXFXFXFX    . j j T E E E E 1.8.8.8.8.8.8.J j t     FXFXFXFXFXFXFX",
"FXFXFXFXFXFXFXFXFX    e j g E E 1.8.} E E     FXFXFXFXFXFXFXFXFXFXFXFX    . j j T E E E E 1.8.8.8.8.8.8.J j t     FXFXFXFXFXFXFX",
"FXFXFXFXFXFXFXFXFXFXFXO @ + > > 4 4 1 > > FXFXFXFXFXFXFXFXFXFXFXFXFXFXFXFXFX@ @ : > > > > 4 4 4 4 4 4 4 ; @ o FXFXFXFXFXFXFXFXFX",
"FXFXFXFXFXFXFXFXFXFXFX                    FXFXFXFXFXFXFXFXFXFXFXFXFXFXFXFXFX                                  FXFXFXFXFXFXFXFXFX",
"FXFXFXFXFXFXFXFXFXFXFX                    FXFXFXFXFXFXFXFXFXFXFXFXFXFXFXFXFX                                  FXFXFXFXFXFXFXFXFX",
"FXFXFXFXFXFXFXFXFXFXFXFXFXFXFXFXFXFXFXFXFXFXFXFXFXFXFXFXFXFXFXFXFXFXFXFXFXFXFXFXFXFXFXFXFXFXFXFXFXFXFXFXFXFXFXFXFXFXFXFXFXFXFXFX",
"FXFXFXFXFXFXFXFXFXFXFXFXFXFXFXFXFXFXFXFXFXFXFXFXFXFXFXFXFXFXFXFXFXFXFXFXFXFXFXFXFXFXFXFXFXFXFXFXFXFXFXFXFXFXFXFXFXFXFXFXFXFXFXFX",
"FXFXFXFXFXFXFXFXFXFXFXFXFXFXFXFXFXFXFXFXFXFXFXFXFXFXFXFXFXFXFXFXFXFXFXFXFXFXFXFXFXFXFXFXFXFXFXFXFXFXFXFXFXFXFXFXFXFXFXFXFXFXFXFX",
"FXFXFXFXFXFXFXFXFXFXFXFXFXFXFXFXFXFXFXFXFXFXFXFXFXFXFXFXFXFXFXFXFXFXFXFXFXFXFXFXFXFXFXFXFXFXFXFXFXFXFXFXFXFXFXFXFXFXFXFXFXFXFXFX",
"FXFXFXFXFXFXFXFXFXFXFXFXFXFXFXFXFXFXFXFXFXFXFXFXFXFXFXFXFXFXFXFXFXFXFXFXFXFXFXFXFXFXFXFXFXFXFXFXFXFXFXFXFXFXFXFXFXFXFXFXFXFXFXFX",
"FXFXFXFXFXFXFXFXFXFXFXFXFXFXFXFXFXFXFXFXFXFXFXFXFXFXFXFXFXFXFXFXFXFXFXFXFXFXFXFXFXFXFXFXFXFXFXFXFXFXFXFXFXFXFXFXFXFXFXFXFXFXFXFX",
"FXFXFXFXFXFXFXFXFXFXFXFXFXFXFXFXFXFXFXFXFXFXFXFXFXFXFXFXFXFXFXFXFXFXFXFXFXFXFXFXFXFXFXFXFXFXFXFXFXFXFXFXFXFXFXFXFXFXFXFXFXFXFXFX",
"FXFXFXFXFXFXFXFXFXFXFXFXFXFXFXFXFXFXFXFXFXFXFXFXFXFXFXFXFXFXFXFXFXFXFXFXFXFXFXFXFXFXFXFXFXFXFXFXFXFXFXFXFXFXFXFXFXFXFXFXFXFXFXFX",
"FXFXFXFXFXFXFXFXFXFXFXFXFXFXFXFXFXFXFXFXFXFXFXFXFXFXFXFXFXFXFXFXFXFXFXFXFXFXFXFXFXFXFXFXFXFXFXFXFXFXFXFXFXFXFXFXFXFXFXFXFXFXFXFX"
};
