/* XPM */
static char *result[] = {
/* columns rows colors chars-per-pixel */
"64 64 167 2 ",
"   c black",
".  c #0C0202",
"X  c #160406",
"o  c #190404",
"O  c #1C090E",
"+  c #17010C",
"@  c #1E0E14",
"#  c #1F1016",
"$  c #240606",
"%  c #2D000B",
"&  c #2D080E",
"*  c #310808",
"=  c #3E0A0A",
"-  c #3C060B",
";  c #230812",
":  c #350014",
">  c #370C14",
",  c #20131B",
"<  c #37121C",
"1  c #3A151B",
"2  c #3D1C29",
"3  c #4A0C0C",
"4  c #490613",
"5  c #5A101C",
"6  c #4C0F1B",
"7  c #780C16",
"8  c #710019",
"9  c #631010",
"0  c #72171C",
"q  c #400621",
"w  c #531320",
"e  c #401F31",
"r  c #7D0228",
"t  c #711424",
"y  c #402837",
"u  c #4C2A39",
"i  c #772229",
"p  c #96061F",
"a  c #831D29",
"s  c #89142C",
"d  c #961A29",
"f  c #850033",
"g  c #971835",
"h  c #A00423",
"j  c #B50029",
"k  c #B9002E",
"l  c #A01C2E",
"z  c #AA0639",
"x  c #A90637",
"c  c #BD0033",
"v  c #B3043A",
"b  c #B51C37",
"n  c #912534",
"m  c #8A303D",
"M  c #B52039",
"N  c #9F0F53",
"B  c #BC0442",
"V  c #8A3443",
"C  c #BA2540",
"Z  c #BE2A46",
"A  c #BF2A48",
"S  c #AF314B",
"D  c #B0344E",
"F  c #A73756",
"G  c #BE3C52",
"H  c #CA0143",
"J  c #CE0048",
"K  c #C60847",
"L  c #D2004D",
"P  c #D60052",
"I  c #DC065A",
"U  c #E0065E",
"Y  c #E10D5E",
"T  c #C32F4F",
"R  c #C53353",
"E  c #C93456",
"W  c #CC395D",
"Q  c #C83658",
"!  c #E30F62",
"~  c #EC0F6C",
"^  c #EF0F72",
"/  c #F41276",
"(  c #F61579",
")  c #FA157D",
"_  c #CE3E62",
"`  c #D43F64",
"'  c #8A4A4C",
"]  c #9D4054",
"[  c #834A64",
"{  c #804D69",
"}  c #80516F",
"|  c #965C7E",
" . c #B1516B",
".. c #B04E73",
"X. c #AB5D7E",
"o. c #B9547C",
"O. c #9D6869",
"+. c #C74162",
"@. c #CE4266",
"#. c #C04C6D",
"$. c #DE4973",
"%. c #DF517B",
"&. c #D34368",
"*. c #E14E7A",
"=. c #E4537F",
"-. c #FF1884",
";. c #F13E8A",
":. c #FC3990",
">. c #9F658B",
",. c #B2688E",
"<. c #AF6793",
"1. c #BF6E95",
"2. c #BE739F",
"3. c #D75D83",
"4. c #E45380",
"5. c #E75885",
"6. c #E65D8A",
"7. c #E95C8B",
"8. c #D3658F",
"9. c #D07283",
"0. c #C96D94",
"q. c #CC769F",
"w. c #DA7D94",
"e. c #D76891",
"r. c #E9608E",
"t. c #E46791",
"y. c #ED6292",
"u. c #E96B9A",
"i. c #F36B9E",
"p. c #F06798",
"a. c #D87EAB",
"s. c #E471A0",
"d. c #EA7CAC",
"f. c #ED76A5",
"g. c #F772A5",
"h. c #F876AA",
"j. c #F377AB",
"k. c #FF6DB2",
"l. c #FF6EBC",
"z. c #FA7DB2",
"x. c #F47AB3",
"c. c #FF7DC5",
"v. c #CF84B4",
"b. c #EC82AF",
"n. c #EC81B5",
"m. c #EC8DB8",
"M. c #F581B4",
"N. c #FB81B5",
"B. c #FA86BC",
"V. c #FD89BD",
"C. c #F483B9",
"Z. c #F58CC2",
"A. c #FC8EC4",
"S. c #FC8FC9",
"D. c #EC90C5",
"F. c #FF92C6",
"G. c #F692CA",
"H. c #FE94CA",
"J. c #FF9BCE",
"K. c #F59ACC",
"L. c #FE93D2",
"P. c #FE9BD4",
"I. c #FF9DD9",
"U. c #FFA2DE",
"Y. c #FFC3EA",
"T. c #FFFBFF",
"R. c None",
/* pixels */
"R.R.R.R.R.R.R.R.R.R.R.R.R.R.R.R.R.R.R.R.R.R.R.R.R.R.R.R.R.R.R.R.R.R.R.R.R.R.R.R.R.R.R.R.R.R.R.R.R.R.R.R.R.R.R.R.R.R.R.R.R.R.R.R.",
"R.R.R.R.R.R.R.R.R.R.R.R.R.R.R.R.R.R.R.R.R.R.R.R.R.R.R.R.R.R.R.R.R.R.R.R.R.R.R.R.R.R.R.R.R.R.R.R.R.R.R.R.R.R.R.R.R.R.R.R.R.R.R.R.",
"R.R.R.R.R.R.R.R.R.R.R.R.R.R.R.R.R.R.R.R.R.R.R.R.R.R.R.R.R.R.R.R.R.R.R.R.R.R.R.R.R.R.R.R.R.R.R.R.R.R.R.R.R.R.R.R.R.R.R.R.R.R.R.R.",
"R.R.R.R.R.R.R.R.R.R.R.R.R.R.R.R.R.R.R.R.R.R.R.R.R.R.R.R.R.R.R.R.R.R.R.R.R.R.R.R.R.R.R.R.R.R.R.R.R.R.R.R.R.R.R.R.R.R.R.R.R.R.R.R.",
"R.R.R.R.R.R.R.R.R.R.R.R.R.R.R.R.R.R.R.R.R.R.R.R.R.R.R.R.R.R.R.R.R.R.R.R.R.R.R.R.R.R.R.R.R.R.R.R.R.R.R.R.R.R.R.R.R.R.R.R.R.R.R.R.",
"R.R.R.R.R.R.R.R.R.R.R.R.R.R.R.R.R.R.R.R.R.R.R.R.R.R.R.R.R.R.R.R.R.R.R.R.R.R.R.R.R.R.R.R.R.R.R.R.R.R.R.R.R.R.R.R.R.R.R.R.R.R.R.R.",
"R.R.R.R.R.R.R.R.R.R.R.R.R.R.R.R.R.R.R.R.R.R.R.R.R.R.R.R.R.R.R.R.R.R.R.R.R.R.R.R.R.R.R.R.R.R.R.R.R.R.R.R.R.R.R.R.R.R.R.R.R.R.R.R.",
"R.R.R.R.R.R.R.R.R.R.R.R.R.R.R.R.R.R.R.R.R.R.R.R.R.R.R.R.R.R.R.R.R.R.R.R.R.R.R.R.R.R.R.R.R.R.R.R.R.R.R.R.R.R.R.R.R.R.R.R.R.R.R.R.",
"R.R.R.R.R.R.R.R.R.R.R.R.R.R.R.R.R.R.R.R.R.R.R.R.R.R.R.R.R.R.R.R.R.R.R.R.R.R.R.R.R.R.R.R.R.R.R.R.R.R.R.R.R.R.R.R.R.R.R.R.R.R.R.R.",
"R.R.R.R.R.R.R.R.R.R.R.R.R.R.R.R.R.R.R.R.R.R.R.R.R.R.R.R.R.R.R.R.R.R.R.R.R.R.R.R.R.R.R.R.R.R.R.R.R.R.R.R.R.R.R.R.R.R.R.R.R.R.R.R.",
"R.R.R.R.R.R.R.R.R.R.R.R.R.R.R.R.R.R.R.R.R.R.R.R.R.R.R.R.R.R.R.R.R.R.R.R.R.R.R.R.R.R.R.R.R.R.R.R.R.R.R.R.R.R.R.R.R.R.R.R.R.R.R.R.",
"R.R.R.R.R.R.R.R.R.R.R.R.R.R.R.R.R.R.R.R.R.R.R.R.R.R.R.R.R.R.R.R.R.R.R.R.R.R.R.R.R.R.R.R.R.R.R.R.R.R.R.R.R.R.R.R.R.R.R.R.R.R.R.R.",
"R.R.R.R.R.R.R.R.R.R.R.R.R.R.R.R.R.R.R.R.R.R.R.R.R.R.R.R.R.R.R.R.R.R.R.R.R.R.R.R.R.R.R.R.R.R.R.R.R.R.R.R.R.R.R.R.R.R.R.R.R.R.R.R.",
"R.R.R.R.R.R.R.R.R.R.R.R.R.R.R.R.R.R.R.R.R.R.R.R.R.R.R.R.R.R.R.R.R.R.R.R.R.R.R.R.R.R.R.R.R.R.R.R.R.R.R.R.R.R.R.R.R.R.R.R.R.R.R.R.",
"R.R.R.R.R.R.R.R.R.R.R.R.R.R.R.R.R.R.R.R.R.R.R.R.R.R.R.R.R.R.R.R.R.R.R.R.R.R.R.R.R.R.R.R.R.R.R.R.R.R.R.R.R.R.R.R.R.R.R.R.R.R.R.R.",
"R.R.R.R.R.R.R.R.R.R.R.R.R.R.R.R.R.R.R.R.R.R.                                          R.R.R.R.R.R.R.R.R.R.R.R.R.R.R.R.R.R.R.R.R.",
"R.R.R.R.R.R.R.R.R.R.R.R.R.R.R.R.R.R.R.R.R.                                            R.R.R.R.R.R.R.R.R.R.R.R.R.R.R.R.R.R.R.R.R.",
"R.R.R.R.R.R.R.R.R.R.R.R.R.R.R.R.R.R.R.R.R.. . . O O @ , , , , , , , , , , , # # @ O O R.R.R.R.R.R.R.R.R.R.R.R.R.R.R.R.R.R.R.R.R.",
"R.R.R.R.R.R.R.R.R.R.R.R.R.R.R.R.R.        * 9 9 $.$.j.F.H.U.U.U.U.U.U.U.F.F.N.g.i.$.$.1         R.R.R.R.R.R.R.R.R.R.R.R.R.R.R.R.",
"R.R.R.R.R.R.R.R.R.R.R.R.R.R.R.R.R.        * 9 9 $.$.j.S.H.U.U.U.U.U.U.U.F.F.N.g.i.$.$.1         R.R.R.R.R.R.R.R.R.R.R.R.R.R.R.R.",
"R.R.R.R.R.R.R.R.R.R.R.R.R.R.    X 3 3 X.1.q.a.a.G.Z.P.I.I.U.U.U.U.n.+.+.r.=.j.J.Z.a a a a g F F ,     R.R.R.R.R.R.R.R.R.R.R.R.R.",
"R.R.R.R.R.R.R.R.R.R.R.R.R.R.    o 9 9 b.F.P.U.U.U.U.U.U.U.U.U.U.U.s.M M $.$.f.U.D.9 9 g M A $.$.O     R.R.R.R.R.R.R.R.R.R.R.R.R.",
"R.R.R.R.R.R.R.R.R.R.R.R.R.R.$ $ 6 ] ] Z.J.I.U.U.U.U.U.U.U.U.U.U.U.m.9.9.S S e.U.K.O.O.n d D u.u.1 $ $ R.R.R.R.R.R.R.R.R.R.R.R.R.",
"R.R.R.R.R.R.R.R.R.R.R.R.    3 9 m H.F.I.U.U.U.U.U.U.U.U.U.U.U.U.U.Y.T.T.9 9  .F.J.T.T.' 9 V U.U.i 9 3     R.R.R.R.R.R.R.R.R.R.R.",
"R.R.R.R.R.R.R.R.R.R.R.R.    3 9 m F.F.U.U.U.U.U.U.U.U.U.U.U.U.U.U.Y.T.T.9 9  .F.J.T.T.' 9 V U.U.i 9 =     R.R.R.R.R.R.R.R.R.R.R.",
"R.R.R.R.R.R.R.R.R.R.R.R.    ..t.s.U.U.U.U.U.U.U.U.U.U.U.U.U.U.U.U.b.G G . . [ F.M.G G 1 . u U.U.D.D.|     R.R.R.R.R.R.R.R.R.R.R.",
"R.R.R.R.R.R.R.R.R.R.R.R.    o.g.z.U.U.U.U.U.U.U.U.U.U.U.U.U.U.U.U.s.M M     [ F.M.M M &   y U.U.U.U.>.    R.R.R.R.R.R.R.R.R.R.R.",
"R.R.R.R.R.R.R.R.R.R.  X 5 5 8.N.B.J.J.U.U.U.U.U.U.U.U.U.U.U.U.U.U.d.R E     { P.Z.Q R >   y U.U.U.U.,.* *     R.R.R.R.R.R.R.R.R.",
"R.R.R.R.R.R.R.R.R.    X M M f.F.F.F.F.U.U.U.U.U.U.U.U.U.U.U.U.U.U.x.$.$.    } U.L.$.$.<   y U.U.U.U.0.9 9     R.R.R.R.R.R.R.R.R.",
"R.R.R.R.R.R.R.R.R.    X C C f.F.F.H.F.U.U.U.U.U.U.U.U.U.I.L.L.L.L.x.*.*.    } U.L.*.%.<   e L.L.U.U.0.0 0     R.R.R.R.R.R.R.R.R.",
"R.R.R.R.R.R.R.R.R.    O $.$.N.F.J.U.U.U.U.U.U.U.U.U.U.U.c.-.-.-.-.:.g.g.    } U.I.g.g.2   q -.-.L.U.M.$.$.    R.R.R.R.R.R.R.R.R.",
"R.R.R.R.R.R.R.R.R.    O $.$.z.F.H.U.U.U.U.U.U.U.U.U.U.U.c.-.-.-.-.:.g.g.    } U.I.g.g.2   q -.-.L.U.M.$.$.    R.R.R.R.R.R.R.R.R.",
"R.R.R.R.R.R.R.R.R.    # y.y.g.z.V.U.U.U.U.U.U.U.U.U.I.H.H.l.l.l.l.c.H.S.>.>.v.U.I.G.S.2.>.<.l.l.I.U.x.$.$.    R.R.R.R.R.R.R.R.R.",
"R.R.R.R.R.R.R.R.R.    # g.g.g.g.M.U.U.U.U.U.U.U.U.U.J.F.H.U.U.U.U.U.U.U.U.U.U.U.U.U.U.U.U.U.U.U.U.U.C.$.$.    R.R.R.R.R.R.R.R.R.",
"R.R.R.R.R.R.R.R.R.    ; g.g.i.p.j.U.U.U.U.U.U.U.I.I.H.V.F.U.U.U.U.U.U.U.U.U.U.U.U.n.n.P.U.U.U.U.U.U.C.4.4.    R.R.R.R.R.R.R.R.R.",
"R.R.R.R.R.R.R.R.R.    ; g.g.=.$.r.U.U.U.U.U.U.U.F.F.z.g.z.U.U.U.U.U.U.U.U.U.U.U.G.M M n.U.U.U.U.U.U.S.g.g.    R.R.R.R.R.R.R.R.R.",
"R.R.R.R.R.R.R.R.R.    # g.g.=.$.r.U.U.U.U.U.U.U.F.F.z.i.z.U.U.U.U.U.U.U.U.U.U.U.G.M M n.U.U.U.U.U.U.F.g.g.    R.R.R.R.R.R.R.R.R.",
"R.R.R.R.R.R.R.R.R.    @ g.g.E C Q j.h.F.H.H.H.H.h.h.7.*.r.H.H.U.U.U.U.U.U.U.U.U.U.G.G.P.U.U.U.U.H.H.u.Z Z     R.R.R.R.R.R.R.R.R.",
"R.R.R.R.R.R.R.R.R.    @ g.g.R M R g.g.V.F.F.F.F.i.g.5.*.5.F.S.I.U.U.U.U.U.U.U.U.U.U.U.U.U.U.U.U.H.F.t.b M     R.R.R.R.R.R.R.R.R.",
"R.R.R.R.R.R.R.R.R.    @ y.y.R M T y.y.j.g.j.j.j.y.y.$.W &.t.t.Z.S.H.I.P.U.U.U.U.U.U.U.U.U.I.P.P.A.B.3.d d     R.R.R.R.R.R.R.R.R.",
"R.R.R.R.R.R.R.R.R.    O $.$.A M Z $.$.$.$.$.$.$.$.$.T M M M M 6.g.z.F.F.U.U.U.U.U.U.U.U.U.I.F.F.h.g.#.9 9     R.R.R.R.R.R.R.R.R.",
"R.R.R.R.R.R.R.R.R.    ; $.$.A M T $.$.$.$.$.$.$.$.$.T M M M b 6.g.z.F.F.U.I.U.U.U.U.U.U.U.I.F.F.h.g.#.9 9     R.R.R.R.R.R.R.R.R.",
"R.R.R.R.R.R.R.R.R.R.R.R.    3 9 7 j j j j w.T.T.j j H P I -.-.s 9 n $.$.g.g.g.g.g.g.g.g.g.g.g.g.Z b t     R.R.R.R.R.R.R.R.R.R.R.",
"R.R.R.R.R.R.R.R.R.R.R.R.    3 9 7 j j j j w.T.T.j j H P U -.-.s 9 n $.$.g.g.g.g.g.g.g.g.g.g.g.g.Z M t     R.R.R.R.R.R.R.R.R.R.R.",
"R.R.R.R.R.R.R.R.R.R.R.R.R.R.o $ 4 H H Y Y 4.k.k.! ! ~ ^ / -.-.K z g n n 5.5.5.5.5.5.5.5.5.*._ _ 5 6 > R.R.R.R.R.R.R.R.R.R.R.R.R.",
"R.R.R.R.R.R.R.R.R.R.R.R.R.R.    : P P ) ) -.-.-.-.-.-.-.-.-.-.U P z 9 9 $.*.$.$.$.*.$.$.$.` M M X     R.R.R.R.R.R.R.R.R.R.R.R.R.",
"R.R.R.R.R.R.R.R.R.R.R.R.R.R.    : L L / ) ) -.) ) ) ) ) -.) ) I L z 9 9 _ @.@.@._ _ @.@.@.W b b : ; + R.R.R.R.R.R.R.R.R.R.R.R.R.",
"R.R.R.R.R.R.R.R.R.R.R.R.R.R.    % j j L P P P P P P P P P P P c j p 9 9 9 9 9 9 9 9 9 9 9 7 j j ( -.N     R.R.R.R.R.R.R.R.R.R.R.",
"R.R.R.R.R.R.R.R.R.R.R.R.R.R.    % j j L P P P P P P P P P P P c j p 9 9 9 9 9 9 9 9 9 9 9 7 j j ( -.N     R.R.R.R.R.R.R.R.R.R.R.",
"R.R.R.R.R.R.R.R.R.R.R.R.R.R.R.R.R.% % : : : : : : : : : : : : % % - 9 9 h h h h h h h v v K J L K H r     R.R.R.R.R.R.R.R.R.R.R.",
"R.R.R.R.R.R.R.R.R.R.R.R.R.R.R.R.R.                                $ 9 9 j j j j j j j H P P P P k j 8     R.R.R.R.R.R.R.R.R.R.R.",
"R.R.R.R.R.R.R.R.R.R.R.R.R.R.R.R.R.                                o = = 8 8 8 8 8 8 8 f f f f f 8 8 4     R.R.R.R.R.R.R.R.R.R.R.",
"R.R.R.R.R.R.R.R.R.R.R.R.R.R.R.R.R.R.R.R.R.R.R.R.R.R.R.R.R.                                            R.R.R.R.R.R.R.R.R.R.R.R.R.",
"R.R.R.R.R.R.R.R.R.R.R.R.R.R.R.R.R.R.R.R.R.R.R.R.R.R.R.R.R.                                            R.R.R.R.R.R.R.R.R.R.R.R.R.",
"R.R.R.R.R.R.R.R.R.R.R.R.R.R.R.R.R.R.R.R.R.R.R.R.R.R.R.R.R.R.R.R.R.R.R.R.R.R.R.R.R.R.R.R.R.R.R.R.R.R.R.R.R.R.R.R.R.R.R.R.R.R.R.R.",
"R.R.R.R.R.R.R.R.R.R.R.R.R.R.R.R.R.R.R.R.R.R.R.R.R.R.R.R.R.R.R.R.R.R.R.R.R.R.R.R.R.R.R.R.R.R.R.R.R.R.R.R.R.R.R.R.R.R.R.R.R.R.R.R.",
"R.R.R.R.R.R.R.R.R.R.R.R.R.R.R.R.R.R.R.R.R.R.R.R.R.R.R.R.R.R.R.R.R.R.R.R.R.R.R.R.R.R.R.R.R.R.R.R.R.R.R.R.R.R.R.R.R.R.R.R.R.R.R.R.",
"R.R.R.R.R.R.R.R.R.R.R.R.R.R.R.R.R.R.R.R.R.R.R.R.R.R.R.R.R.R.R.R.R.R.R.R.R.R.R.R.R.R.R.R.R.R.R.R.R.R.R.R.R.R.R.R.R.R.R.R.R.R.R.R.",
"R.R.R.R.R.R.R.R.R.R.R.R.R.R.R.R.R.R.R.R.R.R.R.R.R.R.R.R.R.R.R.R.R.R.R.R.R.R.R.R.R.R.R.R.R.R.R.R.R.R.R.R.R.R.R.R.R.R.R.R.R.R.R.R.",
"R.R.R.R.R.R.R.R.R.R.R.R.R.R.R.R.R.R.R.R.R.R.R.R.R.R.R.R.R.R.R.R.R.R.R.R.R.R.R.R.R.R.R.R.R.R.R.R.R.R.R.R.R.R.R.R.R.R.R.R.R.R.R.R.",
"R.R.R.R.R.R.R.R.R.R.R.R.R.R.R.R.R.R.R.R.R.R.R.R.R.R.R.R.R.R.R.R.R.R.R.R.R.R.R.R.R.R.R.R.R.R.R.R.R.R.R.R.R.R.R.R.R.R.R.R.R.R.R.R.",
"R.R.R.R.R.R.R.R.R.R.R.R.R.R.R.R.R.R.R.R.R.R.R.R.R.R.R.R.R.R.R.R.R.R.R.R.R.R.R.R.R.R.R.R.R.R.R.R.R.R.R.R.R.R.R.R.R.R.R.R.R.R.R.R.",
"R.R.R.R.R.R.R.R.R.R.R.R.R.R.R.R.R.R.R.R.R.R.R.R.R.R.R.R.R.R.R.R.R.R.R.R.R.R.R.R.R.R.R.R.R.R.R.R.R.R.R.R.R.R.R.R.R.R.R.R.R.R.R.R.",
"R.R.R.R.R.R.R.R.R.R.R.R.R.R.R.R.R.R.R.R.R.R.R.R.R.R.R.R.R.R.R.R.R.R.R.R.R.R.R.R.R.R.R.R.R.R.R.R.R.R.R.R.R.R.R.R.R.R.R.R.R.R.R.R."
};
