/* XPM */
static char *result[] = {
/* columns rows colors chars-per-pixel */
"64 64 175 2 ",
"   c black",
".  c #160407",
"X  c #190404",
"o  c #1A080D",
"O  c #1E0D13",
"+  c #1F1219",
"@  c #240606",
"#  c #2B020A",
"$  c #2D080E",
"%  c #23060B",
"&  c #33020D",
"*  c #31080A",
"=  c #3D0A0A",
"-  c #3C000E",
";  c #280B10",
":  c #350014",
">  c #360B13",
",  c #201219",
"<  c #37121C",
"1  c #38161C",
"2  c #43000F",
"3  c #4A0C0C",
"4  c #570E0E",
"5  c #440C15",
"6  c #4A0715",
"7  c #560714",
"8  c #5A101C",
"9  c #680A1D",
"0  c #75081B",
"q  c #631010",
"w  c #77141A",
"e  c #531B2B",
"r  c #4D1A27",
"t  c #6A1926",
"y  c #711424",
"u  c #402837",
"i  c #5C293C",
"p  c #77222A",
"a  c #6F2439",
"s  c #662839",
"d  c #7F293C",
"f  c #713A3F",
"g  c #60374A",
"h  c #6F4761",
"j  c #7D4561",
"k  c #88001E",
"l  c #8C081C",
"z  c #82161F",
"x  c #96061F",
"c  c #8E0A29",
"v  c #810622",
"b  c #9E0024",
"n  c #950627",
"m  c #851B2A",
"M  c #8B1529",
"N  c #941B2A",
"B  c #921229",
"V  c #9C0831",
"C  c #9A1535",
"Z  c #A00423",
"A  c #AB0226",
"S  c #B50029",
"D  c #B00127",
"F  c #A1003D",
"G  c #A90636",
"H  c #BD0033",
"J  c #B51835",
"K  c #882835",
"L  c #852034",
"P  c #912535",
"I  c #B52039",
"U  c #C3003B",
"Y  c #8B2D47",
"T  c #8A3443",
"R  c #9A3447",
"E  c #A22D42",
"W  c #A72E4C",
"Q  c #BA2540",
"!  c #BD2A46",
"~  c #BE2E4A",
"^  c #BE304D",
"/  c #A73756",
"(  c #CA0043",
")  c #C8024A",
"_  c #D2004D",
"`  c #C71E4B",
"'  c #D60052",
"]  c #DA1C5E",
"[  c #E1065E",
"{  c #C42F4F",
"}  c #C9244E",
"|  c #C53454",
" . c #CE395D",
".. c #C83558",
"X. c #E40D63",
"o. c #ED0F6E",
"O. c #EF0F71",
"+. c #F51277",
"@. c #F61579",
"#. c #F9157D",
"$. c #CE3E62",
"%. c #D83766",
"&. c #9D4054",
"*. c #994464",
"=. c #9B5B65",
"-. c #AF496B",
";. c #BD4969",
":. c #AC5A7F",
">. c #B9557C",
",. c #9D6869",
"<. c #C24065",
"1. c #C6466D",
"2. c #C64769",
"3. c #DE4973",
"4. c #D7547D",
"5. c #D05176",
"6. c #E14E79",
"7. c #E24378",
"8. c #E2527E",
"9. c #C86078",
"0. c #FF1884",
"q. c #FD1681",
"w. c #FE2388",
"e. c #FF3A9A",
"r. c #FC3A96",
"t. c #D25980",
"y. c #DA5D86",
"u. c #C95C85",
"i. c #E45483",
"p. c #E75886",
"a. c #E65E8C",
"s. c #EA5D8C",
"d. c #FC4B9C",
"f. c #D17283",
"g. c #D86390",
"h. c #D87299",
"j. c #D4719F",
"k. c #E36791",
"l. c #EE6595",
"z. c #EC6C9C",
"x. c #E76A99",
"c. c #F16798",
"v. c #F16D9F",
"b. c #F867A6",
"n. c #E471A0",
"m. c #EB7AAD",
"M. c #EB78A7",
"N. c #F771A5",
"B. c #F877AC",
"V. c #F578AC",
"C. c #F778AC",
"Z. c #F97DB2",
"A. c #B18587",
"S. c #DA8D9C",
"D. c #DF90A4",
"F. c #EC81B5",
"G. c #F680B2",
"H. c #FB81B5",
"J. c #FA84BB",
"K. c #FC8ABD",
"L. c #C4A2A5",
"P. c #F78CC3",
"I. c #FB8BC4",
"U. c #FF92C6",
"Y. c #F692C9",
"T. c #FE94CA",
"R. c #FF98CF",
"E. c #FC96D0",
"W. c #FE9BD5",
"Q. c #FF9ED8",
"!. c #FFA2DE",
"~. c #FFADE2",
"^. c #FFF0FB",
"/. c #FFFBFF",
"(. c None",
/* pixels */
"(.(.(.(.(.(.(.(.(.(.(.(.(.(.(.(.(.(.(.(.(.(.(.(.(.(.(.(.(.(.(.(.(.(.(.(.(.(.(.(.(.(.(.(.(.(.(.(.(.(.(.(.(.(.(.(.(.(.(.(.(.(.(.(.",
"(.(.(.(.(.(.(.(.(.(.(.(.(.(.(.(.(.(.(.(.(.(.(.(.(.(.(.(.(.(.(.(.(.(.(.(.(.(.(.(.(.(.(.(.(.(.(.(.(.(.(.(.(.(.(.(.(.(.(.(.(.(.(.(.",
"(.(.(.(.(.(.(.(.(.(.(.(.(.(.(.(.(.(.(.(.(.(.(.(.(.(.(.(.(.(.(.(.(.(.(.(.(.(.(.(.(.(.(.(.(.(.(.(.(.(.(.(.(.(.(.(.(.(.(.(.(.(.(.(.",
"(.(.(.(.(.(.(.(.(.(.(.(.(.(.(.(.(.(.(.(.(.(.(.(.(.(.(.(.(.(.(.(.(.(.(.(.(.(.(.(.(.(.(.(.(.(.(.(.(.(.(.(.(.(.(.(.(.(.(.(.(.(.(.(.",
"(.(.(.(.(.(.(.(.(.(.(.(.(.(.(.(.(.(.(.(.(.(.(.(.(.(.(.(.(.(.(.(.(.(.(.(.(.(.(.(.(.(.(.(.(.(.(.(.(.(.(.(.(.(.(.(.(.(.(.(.(.(.(.(.",
"(.(.(.(.(.(.(.(.(.(.(.(.(.(.(.(.(.(.(.(.(.(.(.(.(.(.(.(.(.(.(.(.(.(.(.(.(.(.(.(.(.(.(.(.(.(.(.(.(.(.(.(.(.(.(.(.(.(.(.(.(.(.(.(.",
"(.(.(.(.(.(.(.(.(.(.(.(.(.(.(.(.(.(.(.(.(.(.(.(.(.(.(.(.(.(.(.(.(.(.(.(.(.(.(.(.(.(.(.(.(.(.(.(.(.(.(.(.(.(.(.(.(.(.(.(.(.(.(.(.",
"(.(.(.(.(.(.(.(.(.(.(.(.(.(.(.(.(.(.(.(.(.(.(.(.(.(.(.(.(.(.(.(.(.(.(.(.(.(.(.(.(.(.(.(.(.(.(.(.(.(.(.(.(.(.(.(.(.(.(.(.(.(.(.(.",
"(.(.(.(.(.(.(.(.(.(.(.(.(.(.(.(.(.(.(.(.(.(.(.(.(.(.(.(.(.(.(.(.(.(.(.(.(.(.(.(.(.(.(.(.(.(.(.(.(.(.(.(.(.(.(.(.(.(.(.(.(.(.(.(.",
"(.(.(.(.(.(.(.(.(.(.(.(.(.(.(.(.(.(.(.(.(.(.(.(.(.(.(.(.(.(.(.(.(.(.(.(.(.(.(.(.(.(.(.(.(.(.(.(.(.(.(.(.(.(.(.(.(.(.(.(.(.(.(.(.",
"(.(.(.(.(.(.(.(.(.(.(.(.(.(.(.(.(.(.(.(.(.(.(.(.(.(.                            (.(.(.(.(.(.(.(.(.(.(.(.(.(.(.(.(.(.(.(.(.(.(.(.",
"(.(.(.(.(.(.(.(.(.(.(.(.(.(.(.(.(.(.(.(.(.(.(.(.(.(.                              (.(.(.(.(.(.(.(.(.(.(.(.(.(.(.(.(.(.(.(.(.(.(.",
"(.(.(.(.(.(.(.(.(.(.(.(.(.(.(.(.(.(.(.(.(.(.(.(.(.(.X X ; < < < 1 < < < < < $ $ $ (.(.(.(.(.(.(.(.(.(.(.(.(.(.(.(.(.(.(.(.(.(.(.",
"(.(.(.(.(.(.(.(.(.(.(.(.(.(.(.(.(.(.(.(.(.          q q E 3.3.3.3.3.3.3.3.3.Q I y         (.(.(.(.(.(.(.(.(.(.(.(.(.(.(.(.(.(.(.",
"(.(.(.(.(.(.(.(.(.(.(.(.(.(.(.(.(.(.(.(.(.          q q E 3.3.3.3.3.3.3.3.3.Q I y         (.(.(.(.(.(.(.(.(.(.(.(.(.(.(.(.(.(.(.",
"(.(.(.(.(.(.(.(.(.(.(.(.(.(.(.(.(.(.(.    = 3 t / / h.h.m.P.P.P.P.P.P.P.P.P.F.F.j.>.>.3 3 $     (.(.(.(.(.(.(.(.(.(.(.(.(.(.(.(.",
"(.(.(.(.(.(.(.(.(.(.(.(.(.(.(.(.(.(.(.    3 q P 3.3.U.U.W.!.!.!.Q.~.!.!.!.!.!.!.U.N.N.q q %     (.(.(.(.(.(.(.(.(.(.(.(.(.(.(.(.",
"(.(.(.(.(.(.(.(.(.(.(.(.(.(.(.(.(.(.(.@ @ d R ;.x.x.E.R.Q.!.W.n.n.m.F.P.!.!.m.n.x.l.l.&.&.1     (.(.(.(.(.(.(.(.(.(.(.(.(.(.(.(.",
"(.(.(.(.(.(.(.(.(.(.(.(.(.(.(.(.    X q q 9.N.J.!.!.!.!.!.!.Y.I J $.3.a.!.!.^ I { 3.3.U.U.g     (.(.(.(.(.(.(.(.(.(.(.(.(.(.(.(.",
"(.(.(.(.(.(.(.(.(.(.(.(.(.(.(.(.    X q q 4.N.J.!.!.!.!.!.!.Y.I I  .3.a.!.!.^ I { 3.3.U.U.g     (.(.(.(.(.(.(.(.(.(.(.(.(.(.(.(.",
"(.(.(.(.(.(.(.(.(.(.(.(.(.(.(.(.    < 3.3.P.~.!.!.!.!.!.!.!.~././.,.q T !.!.^./.L.q q Q.!.x.7.<.    (.(.(.(.(.(.(.(.(.(.(.(.(.(.",
"(.(.(.(.(.(.(.(.(.(.(.(.(.(.(.(.    < 3.3.P.!.!.!.!.!.!.!.!.~././.,.q T !.!.^./.L.q q ~.!.x.3.$.    (.(.(.(.(.(.(.(.(.(.(.(.(.(.",
"(.(.(.(.(.(.(.(.(.(.(.(.        5 e d z.z.E.!.!.!.!.!.!.!.!.!.S.S.g * s !.!.D.D.=.* # Q.Q.V.s.t.8 8 %         (.(.(.(.(.(.(.(.(.",
"(.(.(.(.(.(.(.(.(.(.(.          y J  .U.U.W.!.!.!.!.!.!.!.!.Y.J I 5   u !.!.^ J y     !.~.J.b.l.I I $         (.(.(.(.(.(.(.(.(.",
"(.(.(.(.(.(.(.(.(.(.(.. . . , , L {  .U.U.Q.!.!.!.!.!.!.!.!.Y.Q Q 3   u !.!.| Q y     !.!.I.B.v.Q I r , o . . (.(.(.(.(.(.(.(.(.",
"(.(.(.(.(.(.(.(.(.    8 I I N.N.N.N.Z.!.!.!.!.!.!.!.!.!.!.!.E.3.6.e   u !.!.i.3.Y     !.!.!.!.E.6.3.G.U.k.I I .     (.(.(.(.(.(.",
"(.(.(.(.(.(.(.(.(.    8 J I N.N.N.N.Z.!.!.!.!.!.!.!.!.!.!.!.E.3.6.e   u !.!.i.3.Y     !.!.Q.~.E.6.3.G.U.k.I I .     (.(.(.(.(.(.",
"(.(.(.(.(.(.(.    Y / u.F.F.E.E.E.E.W.!.!.!.!.!.!.!.e.e.e.e.e.c.c.i   u !.!.v.l.*.    e.e.b.Z.B.l.l.Y.Q.K.M.M.+     (.(.(.(.(.(.",
"(.(.(.(.(.(.(.    <.3.M.!.!.!.!.!.!.!.!.!.!.!.!.!.!.0.0.0.0.w.N.N.i   u !.!.C.N.*.    0.0.d.N.N.N.N.R.!.Q.U.U.+     (.(.(.(.(.(.",
"(.(.(.(.(.(.(.    1.i.V.Q.Q.!.!.!.!.!.Q.Q.!.!.!.!.!.e.e.e.e.d.Z.Z.j u h !.!.H.Z.:.u u e.e.b.C.V.c.c.U.Q.E.U.U.+     (.(.(.(.(.(.",
"(.(.(.(.(.(.(.    g.N.H.U.U.!.!.!.!.Q.U.U.Q.!.!.!.!.!.!.!.!.!.!.~.!.!.!.!.!.~.Q.!.!.!.!.!.R.U.K.3.3.Z.U.U.U.U.+     (.(.(.(.(.(.",
"(.(.(.(.(.(.(.    g.N.H.U.U.!.!.!.!.Q.U.U.Q.!.!.!.!.!.!.!.!.!.!.!.!.!.!.!.!.!.!.!.!.!.!.!.R.U.K.3.3.G.U.U.U.U.+     (.(.(.(.(.(.",
"(.(.(.(.(.(.(.    2.8.v.U.U.T.T.T.T.U.U.U.!.!.!.!.!.!.!.!.!.!.!.!.!.!.!.!.!.Z.B.9.p p ^ ^ ^ ^ ^ 3.3.4.8.8.8.8.o     (.(.(.(.(.(.",
"(.(.(.(.(.(.(.    <.3.z.U.U.U.T.U.U.U.U.U.W.!.!.!.!.!.!.!.!.!.!.!.!.!.!.!.!.B.b.;.q q J J Q I Q 3.3.7.6.3.3.3.o     (.(.(.(.(.(.",
"(.(.(.(.(.(.(.    s a -.z.z.H.H.H.H.H.H.G.U.R.!.!.!.!.!.!.!.!.!.!.!.!.W.I.I.4.3.9.A.A.] ] ] ] ] } } { ..W a a o   (.(.(.(.(.(.(.",
"(.(.(.(.(.(.(.(.(.    a 3.6.N.N.N.N.N.N.N.K.U.R.!.!.!.!.!.!.!.!.!.!.!.E.N.N.! J f././.0.0.0.0.#.S S J I y     (.(.(.(.(.(.(.(.(.",
"(.(.(.(.(.(.(.(.(.    a 3.3.N.N.N.N.N.N.N.K.U.R.!.!.!.!.!.!.!.!.!.!.!.E.N.N.! J f././.0.0.0.0.@.S S J I y     (.(.(.(.(.(.(.(.(.",
"(.(.(.(.(.(.(.(.(.(.(.          y I | N.N.N.N.N.N.N.N.N.H.U.U.U.U.Z.N.p.D S @.0.0.0.0.0.0.0.0.#.' ' :     (.(.(.(.(.(.(.(.(.(.(.",
"(.(.(.(.(.(.(.(.(.(.(.          y I | N.N.N.N.N.N.N.N.N.H.U.U.U.U.Z.N.p.S S @.0.0.0.0.0.0.0.0.q.' _ :     (.(.(.(.(.(.(.(.(.(.(.",
"(.(.(.(.(.(.(.(.(.(.(.(.(.(.(.(.= 5 y 2.$.l.N.N.N.N.N.N.B.Z.G.G.Z.l.p.7.( ( #.0.0.0.0.0.0.0.0.#.U U &     (.(.(.(.(.(.(.(.(.(.(.",
"(.(.(.(.(.(.(.(.(.(.(.(.(.(.(.(.    $ J I a.N.N.N.N.N.N.N.N.N.N.N.p.3.%.' ' q.0.0.0.0.0.0.0.0.+.S S #     (.(.(.(.(.(.(.(.(.(.(.",
"(.(.(.(.(.(.(.(.(.(.(.(.(.(.(.(.    $ m m 1.t.y.c.l.N.N.N.N.N.N.N.8.%.%.X.' q.0.0.0.0.+.+.#.+.o.Z Z #     (.(.(.(.(.(.(.(.(.(.(.",
"(.(.(.(.(.(.(.(.(.(.(.(.(.(.(.(.(.(.(.    3 q P 3.3.N.N.N.N.N.N.N.$.I ` 0.0.0.0.0.0.0.' ' ' ' ) q q X     (.(.(.(.(.(.(.(.(.(.(.",
"(.(.(.(.(.(.(.(.(.(.(.(.(.(.(.(.(.(.(.    3 q P 3.3.N.N.N.N.N.N.N.$.I ` 0.0.0.0.0.0.0.' ' ' ' ) q q X     (.(.(.(.(.(.(.(.(.(.(.",
"(.(.(.(.(.(.(.(.(.(.(.(.(.(.(.(.(.(.(.    0 Z V m m K K W | | | | N w C 0.0.0.0.+.[ [ ' ' G 0 w X X (.(.(.(.(.(.(.(.(.(.(.(.(.(.",
"(.(.(.(.(.(.(.(.(.(.(.(.(.(.(.(.(.(.(.    k S x q q q q M I I J I m q M 0.0.0.0.O.' ' ' ' c q 4     (.(.(.(.(.(.(.(.(.(.(.(.(.(.",
"(.(.(.(.(.(.(.(.(.(.(.(.(.(.(.(.(.(.(.    n U A c c c B B N N y y 4 = 9 X.X.O.O.X.' ' G G 9 = =     (.(.(.(.(.(.(.(.(.(.(.(.(.(.",
"(.(.(.(.(.(.(.(.(.(.(.(.(.(.(.(.(.(.(.    F ' ' ' ' ' _ V q 4         # S S ' ' ' ' ' q q %     (.(.(.(.(.(.(.(.(.(.(.(.(.(.(.(.",
"(.(.(.(.(.(.(.(.(.(.(.(.(.(.(.(.(.(.(.    F _ ' ' ' ' ' V q 4         # S S _ ' ' ' ' q q @     (.(.(.(.(.(.(.(.(.(.(.(.(.(.(.(.",
"(.(.(.(.(.(.(.(.(.(.(.(.(.(.(.(.(.(.(.    k S U ' ' ' ' U S S S S 2                       (.(.(.(.(.(.(.(.(.(.(.(.(.(.(.(.(.(.(.",
"(.(.(.(.(.(.(.(.(.(.(.(.(.(.(.(.(.(.(.    k S U ' ' ' ' U S S S S 2                       (.(.(.(.(.(.(.(.(.(.(.(.(.(.(.(.(.(.(.",
"(.(.(.(.(.(.(.(.(.(.(.(.(.(.(.(.(.(.(.    7 7 v ( U U U H S D l l &                       (.(.(.(.(.(.(.(.(.(.(.(.(.(.(.(.(.(.(.",
"(.(.(.(.(.(.(.(.(.(.(.(.(.(.(.(.(.(.(.(.(.    2 S S S S S S A q q @     (.(.(.(.(.(.(.(.(.(.(.(.(.(.(.(.(.(.(.(.(.(.(.(.(.(.(.(.",
"(.(.(.(.(.(.(.(.(.(.(.(.(.(.(.(.(.(.(.(.(.    - b b b b b b n 4 4 @     (.(.(.(.(.(.(.(.(.(.(.(.(.(.(.(.(.(.(.(.(.(.(.(.(.(.(.(.",
"(.(.(.(.(.(.(.(.(.(.(.(.(.(.(.(.(.(.(.(.(.(.(.(.                  (.(.(.(.(.(.(.(.(.(.(.(.(.(.(.(.(.(.(.(.(.(.(.(.(.(.(.(.(.(.(.",
"(.(.(.(.(.(.(.(.(.(.(.(.(.(.(.(.(.(.(.(.(.(.(.(.                  (.(.(.(.(.(.(.(.(.(.(.(.(.(.(.(.(.(.(.(.(.(.(.(.(.(.(.(.(.(.(.",
"(.(.(.(.(.(.(.(.(.(.(.(.(.(.(.(.(.(.(.(.(.(.(.(.(.(.(.(.(.(.(.(.(.(.(.(.(.(.(.(.(.(.(.(.(.(.(.(.(.(.(.(.(.(.(.(.(.(.(.(.(.(.(.(.",
"(.(.(.(.(.(.(.(.(.(.(.(.(.(.(.(.(.(.(.(.(.(.(.(.(.(.(.(.(.(.(.(.(.(.(.(.(.(.(.(.(.(.(.(.(.(.(.(.(.(.(.(.(.(.(.(.(.(.(.(.(.(.(.(.",
"(.(.(.(.(.(.(.(.(.(.(.(.(.(.(.(.(.(.(.(.(.(.(.(.(.(.(.(.(.(.(.(.(.(.(.(.(.(.(.(.(.(.(.(.(.(.(.(.(.(.(.(.(.(.(.(.(.(.(.(.(.(.(.(.",
"(.(.(.(.(.(.(.(.(.(.(.(.(.(.(.(.(.(.(.(.(.(.(.(.(.(.(.(.(.(.(.(.(.(.(.(.(.(.(.(.(.(.(.(.(.(.(.(.(.(.(.(.(.(.(.(.(.(.(.(.(.(.(.(.",
"(.(.(.(.(.(.(.(.(.(.(.(.(.(.(.(.(.(.(.(.(.(.(.(.(.(.(.(.(.(.(.(.(.(.(.(.(.(.(.(.(.(.(.(.(.(.(.(.(.(.(.(.(.(.(.(.(.(.(.(.(.(.(.(.",
"(.(.(.(.(.(.(.(.(.(.(.(.(.(.(.(.(.(.(.(.(.(.(.(.(.(.(.(.(.(.(.(.(.(.(.(.(.(.(.(.(.(.(.(.(.(.(.(.(.(.(.(.(.(.(.(.(.(.(.(.(.(.(.(.",
"(.(.(.(.(.(.(.(.(.(.(.(.(.(.(.(.(.(.(.(.(.(.(.(.(.(.(.(.(.(.(.(.(.(.(.(.(.(.(.(.(.(.(.(.(.(.(.(.(.(.(.(.(.(.(.(.(.(.(.(.(.(.(.(.",
"(.(.(.(.(.(.(.(.(.(.(.(.(.(.(.(.(.(.(.(.(.(.(.(.(.(.(.(.(.(.(.(.(.(.(.(.(.(.(.(.(.(.(.(.(.(.(.(.(.(.(.(.(.(.(.(.(.(.(.(.(.(.(.(."
};
