/* XPM */
static char *result[] = {
/* columns rows colors chars-per-pixel */
"64 64 160 2 ",
"   c black",
".  c #0D0304",
"X  c #160205",
"o  c #1A0206",
"O  c #1A000A",
"+  c #1C090E",
"@  c #1E0D13",
"#  c #240309",
"$  c #2D000A",
"%  c #250606",
"&  c #201219",
"*  c #37121C",
"=  c #3E1D2A",
"-  c #3C1B27",
";  c #3F2231",
":  c #44000F",
">  c #4A0C0C",
",  c #560E0E",
"<  c #440C15",
"1  c #4C001A",
"2  c #5A0014",
"3  c #50001E",
"4  c #5A101C",
"5  c #631010",
"6  c #6D1215",
"7  c #72161B",
"8  c #78031A",
"9  c #5D0221",
"0  c #4B1A28",
"q  c #531B2B",
"w  c #581B2A",
"e  c #711424",
"r  c #600932",
"t  c #402837",
"y  c #552030",
"u  c #5C2A3E",
"i  c #6F2439",
"p  c #612837",
"a  c #752E46",
"s  c #60374A",
"d  c #7C3953",
"f  c #7B4058",
"g  c #86001E",
"h  c #810A19",
"j  c #8E0A29",
"k  c #9E0024",
"l  c #98012D",
"z  c #9E1C32",
"x  c #A20424",
"c  c #AA0226",
"v  c #B50029",
"b  c #B9002E",
"n  c #AE0436",
"m  c #BD0033",
"M  c #B91C3C",
"N  c #83263D",
"B  c #B52039",
"V  c #C10038",
"C  c #B90442",
"Z  c #A61243",
"A  c #B1144A",
"S  c #8B2E47",
"D  c #BA2540",
"F  c #BD2A46",
"G  c #A1324F",
"H  c #BE304D",
"J  c #B53352",
"K  c #A73756",
"L  c #B13F61",
"P  c #CA0042",
"I  c #CE0048",
"U  c #CE084C",
"Y  c #C70844",
"T  c #D1004C",
"R  c #D0094C",
"E  c #D60052",
"W  c #DA0B56",
"Q  c #DB0358",
"!  c #DA1C5E",
"~  c #E0075F",
"^  c #C42F4F",
"/  c #CE2D57",
"(  c #C53454",
")  c #CE395D",
"_  c #C83357",
"`  c #E60964",
"'  c #E60965",
"]  c #F61579",
"[  c #FA157E",
"{  c #DA2462",
"}  c #D92D65",
"|  c #CE3E62",
" . c #D43C64",
".. c #D43760",
"X. c #EA3779",
"o. c #804963",
"O. c #9A4667",
"+. c #9F5C7C",
"@. c #B74C77",
"#. c #C24065",
"$. c #D9426B",
"%. c #D6486F",
"&. c #D44167",
"*. c #C7576A",
"=. c #C94B73",
"-. c #DE4973",
";. c #DE4E78",
":. c #D05177",
">. c #DE537D",
",. c #E14E79",
"<. c #E4537F",
"1. c #FF1884",
"2. c #9F658B",
"3. c #AF688E",
"4. c #BF6495",
"5. c #BF79A7",
"6. c #E35581",
"7. c #E65A86",
"8. c #E65B88",
"9. c #EA5D8C",
"0. c #D17283",
"q. c #D96390",
"w. c #D56590",
"e. c #EE6394",
"r. c #E76998",
"t. c #F06798",
"y. c #F46C9F",
"u. c #FF5FAB",
"i. c #DE7CA9",
"p. c #F66FA2",
"a. c #FF65AD",
"s. c #E371A0",
"d. c #EC75A6",
"f. c #E37DA4",
"g. c #F771A5",
"h. c #F875A9",
"j. c #F979AD",
"k. c #FF6DB2",
"l. c #F37EB1",
"z. c #F97DB2",
"x. c #B18587",
"c. c #DF80AD",
"v. c #ED81B5",
"b. c #F582B5",
"n. c #FB81B5",
"m. c #FB84BA",
"M. c #FB89BB",
"N. c #F686BC",
"B. c #FD8DC2",
"V. c #FC8FC8",
"C. c #FF92C6",
"Z. c #F692C9",
"A. c #FE95CB",
"S. c #FF98CF",
"D. c #FF9CD5",
"F. c #FF9ED8",
"G. c #FFA2DE",
"H. c #FFDFEF",
"J. c #FFFBFF",
"K. c None",
/* pixels */
"K.K.K.K.K.K.K.K.K.K.K.K.K.K.K.K.K.K.K.K.K.K.K.K.K.K.K.K.K.K.K.K.K.K.K.K.K.K.K.K.K.K.K.K.K.K.K.K.K.K.K.K.K.K.K.K.K.K.K.K.K.K.K.K.",
"K.K.K.K.K.K.K.K.K.K.K.K.K.K.K.K.K.K.K.K.K.K.K.K.K.K.K.K.K.K.K.K.K.K.K.K.K.K.K.K.K.K.K.K.K.K.K.K.K.K.K.K.K.K.K.K.K.K.K.K.K.K.K.K.",
"K.K.K.K.K.K.K.K.K.K.K.K.K.K.K.K.K.K.K.K.K.K.K.K.K.K.K.K.K.K.K.K.K.K.K.K.K.K.K.K.K.K.K.K.K.K.K.K.K.K.K.K.K.K.K.K.K.K.K.K.K.K.K.K.",
"K.K.K.K.K.K.K.K.K.K.K.K.K.K.K.K.K.K.K.K.K.K.K.K.K.K.K.K.K.K.K.K.K.K.K.K.K.K.K.K.K.K.K.K.K.K.K.K.K.K.K.K.K.K.K.K.K.K.K.K.K.K.K.K.",
"K.K.K.K.K.K.K.K.K.K.K.K.K.K.K.K.K.K.K.K.K.K.K.K.K.K.K.K.K.K.K.K.K.K.K.K.K.K.K.K.K.K.K.K.K.K.K.K.K.K.K.K.K.K.K.K.K.K.K.K.K.K.K.K.",
"K.K.K.K.K.K.K.K.K.K.K.K.K.K.K.K.K.K.K.K.K.K.K.K.K.K.K.K.K.K.K.K.K.K.K.K.K.K.K.K.K.K.K.K.K.K.K.K.K.K.K.K.K.K.K.K.K.K.K.K.K.K.K.K.",
"K.K.K.K.K.K.K.K.K.K.K.K.K.K.K.K.K.K.K.K.K.K.K.K.K.K.K.K.K.K.K.K.K.K.K.K.K.K.K.K.K.K.K.K.K.K.K.K.K.K.K.K.K.K.K.K.K.K.K.K.K.K.K.K.",
"K.K.K.K.K.K.K.K.K.K.K.K.K.K.K.K.K.K.K.K.K.K.K.K.K.K.K.K.K.K.K.K.K.K.K.K.K.K.K.K.K.K.K.K.K.K.K.K.K.K.K.K.K.K.K.K.K.K.K.K.K.K.K.K.",
"K.K.K.K.K.K.K.K.K.K.K.K.K.K.K.K.K.K.K.K.K.K.K.K.K.K.K.K.K.K.K.K.K.K.K.K.K.K.K.K.K.K.K.K.K.K.K.K.K.K.K.K.K.K.K.K.K.K.K.K.K.K.K.K.",
"K.K.K.K.K.K.K.K.K.K.K.K.K.K.K.K.K.K.K.K.K.K.K.K.K.K.K.K.K.K.K.K.K.K.K.K.K.K.K.K.K.K.K.K.K.K.K.K.K.K.K.K.K.K.K.K.K.K.K.K.K.K.K.K.",
"K.K.K.K.K.K.K.K.K.K.K.K.K.K.K.K.K.K.K.K.K.K.K.K.K.K.K.K.K.K.K.K.K.K.K.K.K.K.K.K.K.K.K.K.K.K.K.K.K.K.K.K.K.K.K.K.K.K.K.K.K.K.K.K.",
"K.K.K.K.K.K.K.K.K.K.K.K.K.K.K.K.K.K.K.K.K.K.K.K.K.K.K.K.K.K.K.K.K.K.K.K.K.K.K.K.K.K.K.K.K.K.K.K.K.K.K.K.K.K.K.K.K.K.K.K.K.K.K.K.",
"K.K.K.K.K.K.K.K.K.K.K.K.K.K.K.K.K.K.K.K.K.K.                                        K.K.K.K.K.K.K.K.K.K.K.K.K.K.K.K.K.K.K.K.K.K.",
"K.K.K.K.K.K.K.K.K.K.K.K.K.K.K.K.K.K.K.K.K.K.                                        K.K.K.K.K.K.K.K.K.K.K.K.K.K.K.K.K.K.K.K.K.K.",
"K.K.K.K.K.K.K.K.K.K.K.K.K.K.K.K.K.K.            X i i f o.o.o.o.d d a i i 4 4 #             K.K.K.K.K.K.K.K.K.K.K.K.K.K.K.K.K.K.",
"K.K.K.K.K.K.K.K.K.K.K.K.K.K.K.K.K.K.            + -.-.b.C.C.C.C.h.g.9.-.-.B B <               K.K.K.K.K.K.K.K.K.K.K.K.K.K.K.K.K.",
"K.K.K.K.K.K.K.K.K.K.K.K.K.K.K.K.K.K.    + + @ & - 6.6.b.A.C.A.A.l.j.e.6.6.H H w @ @ + +       K.K.K.K.K.K.K.K.K.K.K.K.K.K.K.K.K.",
"K.K.K.K.K.K.K.K.K.K.K.K.K.K.K.          -.-.h.C.A.G.G.G.G.G.G.G.G.G.G.G.G.G.G.m.g.t.-.-.*         K.K.K.K.K.K.K.K.K.K.K.K.K.K.K.",
"K.K.K.K.K.K.K.K.K.K.K.K.K.K.K.          -.-.d.C.A.G.G.G.G.G.G.G.G.G.G.G.G.G.G.m.g.t.-.-.*         K.K.K.K.K.K.K.K.K.K.K.K.K.K.K.",
"K.K.K.K.K.K.K.K.K.K.K.K.K.K.K.    * S S b.b.A.D.F.G.G.G.G.G.G.G.G.G.G.G.G.:.:.d.A.d.^ ^ G S q     K.K.K.K.K.K.K.K.K.K.K.K.K.K.K.",
"K.K.K.K.K.K.K.K.K.K.K.K.K.K.K.    q -.-.G.G.G.G.G.G.G.G.G.G.G.G.G.G.G.G.G.B B s.G.v.B B  .-.S     K.K.K.K.K.K.K.K.K.K.K.K.K.K.K.",
"K.K.K.K.K.K.K.K.K.K.K.K.K.K.K.    y 8.8.G.G.G.G.G.G.G.G.G.G.G.G.G.G.G.G.G.*.*.f.v.r.( (  . .N     K.K.K.K.K.K.K.K.K.K.K.K.K.K.K.",
"K.K.K.K.K.K.K.K.K.K.K.K.K.        s C.C.G.G.G.G.G.G.G.G.G.G.G.G.G.G.G.G.G.J.J.0.B ( g.g.( B e           K.K.K.K.K.K.K.K.K.K.K.K.",
"K.K.K.K.K.K.K.K.K.K.K.K.K.        s C.A.G.G.G.G.G.G.G.G.G.G.G.G.G.G.G.G.G.J.J.0.B ( g.g.( B e           K.K.K.K.K.K.K.K.K.K.K.K.",
"K.K.K.K.K.K.K.K.K.K.K.K.K.    K #.q.G.G.G.G.G.G.G.G.G.G.G.G.G.G.G.G.G.G.G.8.8.u X y h.g.0 X < z z       K.K.K.K.K.K.K.K.K.K.K.K.",
"K.K.K.K.K.K.K.K.K.K.K.K.K.    #.-.r.G.G.G.G.G.G.G.G.G.G.G.G.G.G.G.G.G.G.G.-.-.q   = g.g.=   < B B       K.K.K.K.K.K.K.K.K.K.K.K.",
"K.K.K.K.K.K.K.K.K.K.K.K.K.    =.7.g.G.G.G.G.G.G.G.G.G.G.G.G.D.D.A.V.S.D.D.7.7.y   ; m.m.;   0 | &.      K.K.K.K.K.K.K.K.K.K.K.K.",
"K.K.K.K.K.K.K.K.K.K.K.K.K.    q.g.m.G.G.G.G.G.G.G.G.G.G.G.F.C.C.g.g.z.A.C.g.g.u   ; G.G.;   u h.g.      K.K.K.K.K.K.K.K.K.K.K.K.",
"K.K.K.K.K.K.K.K.K.K.K.K.K.    q.g.N.G.G.G.G.G.G.G.G.G.G.G.F.A.C.h.g.n.C.C.g.g.u   t G.G.t   u g.g.      K.K.K.K.K.K.K.K.K.K.K.K.",
"K.K.K.K.K.K.K.K.K.K.K.K.K.    c.C.S.G.G.G.G.G.G.G.G.G.G.G.G.G.G.G.G.B.g.g.1.[ r   t G.G.t   r 1.1.      K.K.K.K.K.K.K.K.K.K.K.K.",
"K.K.K.K.K.K.K.K.K.K.K.K.K.    c.C.S.G.G.G.G.G.G.G.G.G.G.G.G.G.G.G.G.M.g.g.1.1.r   t G.G.t   r 1.1.      K.K.K.K.K.K.K.K.K.K.K.K.",
"K.K.K.K.K.K.K.K.K.K.K.K.K.    c.C.S.G.G.G.G.D.S.D.S.S.F.G.G.G.G.G.G.A.m.M.X.X.@.+.3.G.G.5.2.4.a.a.      K.K.K.K.K.K.K.K.K.K.K.K.",
"K.K.K.K.K.K.K.K.K.K.K.K.K.    c.C.S.G.G.G.G.S.C.C.C.C.D.G.G.G.G.G.G.D.C.C.-.-.g.C.A.G.G.G.G.D.C.C.      K.K.K.K.K.K.K.K.K.K.K.K.",
"K.K.K.K.K.K.K.K.K.K.K.K.K.    i.B.S.G.G.G.G.A.B.B.C.C.D.G.F.G.F.G.F.S.B.B.$.$.d.A.M.Z.Z.G.G.D.B.B.      K.K.K.K.K.K.K.K.K.K.K.K.",
"K.K.K.K.K.K.K.K.K.K.K.K.K.    q.g.m.G.G.G.G.m.g.h.C.C.C.C.C.C.C.C.C.n.g.g.B B s.G.v.B B v.G.Z.g.g.      K.K.K.K.K.K.K.K.K.K.K.K.",
"K.K.K.K.K.K.K.K.K.K.K.K.K.    q.p.m.G.G.G.G.m.g.h.C.C.C.C.C.C.C.C.C.n.g.g.B B s.G.v.B M v.G.Z.g.g.      K.K.K.K.K.K.K.K.K.K.K.K.",
"K.K.K.K.K.K.K.K.K.K.K.K.K.    =.6.e.z.z.A.S.z.g.g.8.8.g.j.j.j.j.j.j.e.<.<.&.&.l.G.D.v.v.C.S.l.<.<.      K.K.K.K.K.K.K.K.K.K.K.K.",
"K.K.K.K.K.K.K.K.K.K.K.K.K.    #.-.7.g.p.C.C.z.g.y.-.-.t.g.g.g.g.g.g.9.-.-.-.-.b.G.G.G.G.A.C.g.-.-.      K.K.K.K.K.K.K.K.K.K.K.K.",
"K.K.K.K.K.K.K.K.K.K.K.K.K.    J ) -.e.e.m.m.j.g.p.7.8.9.9.e.e.9.6.>.;.-.-.7.8.N.G.G.D.D.M.m.w.S S     K.K.K.K.K.K.K.K.K.K.K.K.K.",
"K.K.K.K.K.K.K.K.K.K.K.K.K.    z M ^ -.-.g.g.g.g.p.g.g.<.-.-.,.-.B B _ -.-.g.p.V.G.G.C.C.j.g.O.    K.K.K.K.K.K.K.K.K.K.K.K.K.K.K.",
"K.K.K.K.K.K.K.K.K.K.K.K.K.    z M H -.-.g.y.g.g.g.g.g.6.,.,.,.-.F B _ ,.-.g.g.V.G.G.C.C.j.g.O.    K.K.K.K.K.K.K.K.K.K.K.K.K.K.K.",
"K.K.K.K.K.K.K.K.K.K.K.K.K.    5 6 6 7 7 ^ D $.,.6.g.g.p.y.p.M.M.b.b.m.M.M.B.B.C.C.M.h.g.7.,._ k k     K.K.K.K.K.K.K.K.K.K.K.K.K.",
"K.K.K.K.K.K.K.K.K.K.K.K.K.    , 5 6 5 5 B B ) -.,.g.g.g.p.j.V.C.C.C.C.C.C.C.C.C.C.M.g.g.<.-./ v v       K.K.K.K.K.K.K.K.K.K.K.K.",
"K.K.K.K.K.K.K.K.K.K.K.  # 2 2 Z A O.x.x.! ! ! { {  ...7.9.e.z.n.n.n.n.n.n.n.n.g.y.e.%.%.} { ! W W       K.K.K.K.K.K.K.K.K.K.K.K.",
"K.K.K.K.K.K.K.K.K.K.    $ v v ] 1.k.J.J.1.1.` T T v v ..,.,.g.p.g.g.g.g.g.g.g.7.-.&.B B U E ` 1.1.      K.K.K.K.K.K.K.K.K.K.K.K.",
"K.K.K.K.K.K.K.K.K.K.    $ v v ] 1.a.H.H.1.1.` Q E b b /  .%.r.r.e.e.e.e.e.e.t.,.$.) M M U E ~ ] ]       K.K.K.K.K.K.K.K.K.K.K.K.",
"K.K.K.K.K.K.K.K.K.K.    $ v v ] 1.1.1.1.1.1.1.1.[ E E m v x 5 5 c v v v v v v v v m E E E E P v v       K.K.K.K.K.K.K.K.K.K.K.K.",
"K.K.K.K.K.K.K.K.K.K.    $ v v ] 1.1.1.1.1.1.1.1.[ E E m v x 5 5 c v v v v v v v v m E E E E P v v       K.K.K.K.K.K.K.K.K.K.K.K.",
"K.K.K.K.K.K.K.K.K.K.    o h h Y R W ` ` ` ` ` ` ~ E E I P n 5 5 c v v v v v v v v c j j 9 3 1 : : K.K.K.K.K.K.K.K.K.K.K.K.K.K.K.",
"K.K.K.K.K.K.K.K.K.K.    o 5 5 c v V E E E E E E E E E E E C 5 5 c v v v v v v v v x 5 5 o         K.K.K.K.K.K.K.K.K.K.K.K.K.K.K.",
"K.K.K.K.K.K.K.K.K.K.    X > > g g l C C I I T E E E E T I n > > g g g g g g g g g 8 > > X         K.K.K.K.K.K.K.K.K.K.K.K.K.K.K.",
"K.K.K.K.K.K.K.K.K.K.K.K.K.        % 5 5 v v P E E E E m v g                             K.K.K.K.K.K.K.K.K.K.K.K.K.K.K.K.K.K.K.K.",
"K.K.K.K.K.K.K.K.K.K.K.K.K.        % 5 5 v v P E E E E m v j                             K.K.K.K.K.K.K.K.K.K.K.K.K.K.K.K.K.K.K.K.",
"K.K.K.K.K.K.K.K.K.K.K.K.K.K.K.K.K.K.. . X X o O O O O o X o K.K.K.K.K.K.K.K.K.K.K.K.K.K.K.K.K.K.K.K.K.K.K.K.K.K.K.K.K.K.K.K.K.K.",
"K.K.K.K.K.K.K.K.K.K.K.K.K.K.K.K.K.K.                        K.K.K.K.K.K.K.K.K.K.K.K.K.K.K.K.K.K.K.K.K.K.K.K.K.K.K.K.K.K.K.K.K.K.",
"K.K.K.K.K.K.K.K.K.K.K.K.K.K.K.K.K.K.                      K.K.K.K.K.K.K.K.K.K.K.K.K.K.K.K.K.K.K.K.K.K.K.K.K.K.K.K.K.K.K.K.K.K.K.",
"K.K.K.K.K.K.K.K.K.K.K.K.K.K.K.K.K.K.K.K.K.K.K.K.K.K.K.K.K.K.K.K.K.K.K.K.K.K.K.K.K.K.K.K.K.K.K.K.K.K.K.K.K.K.K.K.K.K.K.K.K.K.K.K.",
"K.K.K.K.K.K.K.K.K.K.K.K.K.K.K.K.K.K.K.K.K.K.K.K.K.K.K.K.K.K.K.K.K.K.K.K.K.K.K.K.K.K.K.K.K.K.K.K.K.K.K.K.K.K.K.K.K.K.K.K.K.K.K.K.",
"K.K.K.K.K.K.K.K.K.K.K.K.K.K.K.K.K.K.K.K.K.K.K.K.K.K.K.K.K.K.K.K.K.K.K.K.K.K.K.K.K.K.K.K.K.K.K.K.K.K.K.K.K.K.K.K.K.K.K.K.K.K.K.K.",
"K.K.K.K.K.K.K.K.K.K.K.K.K.K.K.K.K.K.K.K.K.K.K.K.K.K.K.K.K.K.K.K.K.K.K.K.K.K.K.K.K.K.K.K.K.K.K.K.K.K.K.K.K.K.K.K.K.K.K.K.K.K.K.K.",
"K.K.K.K.K.K.K.K.K.K.K.K.K.K.K.K.K.K.K.K.K.K.K.K.K.K.K.K.K.K.K.K.K.K.K.K.K.K.K.K.K.K.K.K.K.K.K.K.K.K.K.K.K.K.K.K.K.K.K.K.K.K.K.K.",
"K.K.K.K.K.K.K.K.K.K.K.K.K.K.K.K.K.K.K.K.K.K.K.K.K.K.K.K.K.K.K.K.K.K.K.K.K.K.K.K.K.K.K.K.K.K.K.K.K.K.K.K.K.K.K.K.K.K.K.K.K.K.K.K.",
"K.K.K.K.K.K.K.K.K.K.K.K.K.K.K.K.K.K.K.K.K.K.K.K.K.K.K.K.K.K.K.K.K.K.K.K.K.K.K.K.K.K.K.K.K.K.K.K.K.K.K.K.K.K.K.K.K.K.K.K.K.K.K.K.",
"K.K.K.K.K.K.K.K.K.K.K.K.K.K.K.K.K.K.K.K.K.K.K.K.K.K.K.K.K.K.K.K.K.K.K.K.K.K.K.K.K.K.K.K.K.K.K.K.K.K.K.K.K.K.K.K.K.K.K.K.K.K.K.K."
};
