/* XPM */
static char *result[] = {
/* columns rows colors chars-per-pixel */
"64 64 175 2 ",
"   c black",
".  c #0B0202",
"X  c #140406",
"o  c #180404",
"O  c #1D0509",
"+  c #250606",
"@  c #2D080E",
"#  c #23060B",
"$  c #3E0A0A",
"%  c #32050E",
"&  c #390117",
"*  c #36111B",
"=  c #3E1C29",
"-  c #391520",
";  c #44000F",
":  c #4A0C0C",
">  c #560E0E",
",  c #430C15",
"<  c #480015",
"1  c #5A0014",
"2  c #50001E",
"3  c #5A101C",
"4  c #710019",
"5  c #631010",
"6  c #77141A",
"7  c #420821",
"8  c #531320",
"9  c #711424",
"0  c #6F2439",
"q  c #6D2235",
"w  c #742C43",
"e  c #7B3852",
"r  c #763B52",
"t  c #88001E",
"y  c #83011E",
"u  c #9E0024",
"i  c #94072D",
"p  c #8C1824",
"a  c #851B2A",
"s  c #88182B",
"d  c #961A29",
"f  c #9C0831",
"g  c #A80129",
"h  c #B50029",
"j  c #B9002E",
"k  c #A01C2E",
"l  c #AC0732",
"z  c #BD0E39",
"x  c #BD0735",
"c  c #AA1E34",
"v  c #B61938",
"b  c #832435",
"n  c #912535",
"m  c #B52039",
"M  c #C4013B",
"N  c #C10E3E",
"B  c #BB0048",
"V  c #9C2D48",
"C  c #8A324C",
"Z  c #BA2540",
"A  c #BE2A47",
"S  c #BF2A48",
"D  c #B82348",
"F  c #A1324F",
"G  c #B0344E",
"H  c #BE304D",
"J  c #A73756",
"K  c #A43F5C",
"L  c #BA3D5B",
"P  c #BF1263",
"I  c #B23F61",
"U  c #C8024A",
"Y  c #C70542",
"T  c #D2054C",
"R  c #D0144F",
"E  c #D60052",
"W  c #D70956",
"Q  c #DB0358",
"!  c #C41B45",
"~  c #C32F4E",
"^  c #C9244E",
"/  c #CA2550",
"(  c #C63454",
")  c #C93456",
"_  c #CE395C",
"`  c #EA0C6B",
"'  c #EC136E",
"]  c #EC1776",
"[  c #F61579",
"{  c #FA157D",
"}  c #F31979",
"|  c #F51277",
" . c #DB2E66",
".. c #CE3E62",
"X. c #804963",
"o. c #9A4667",
"O. c #AD4063",
"+. c #B64063",
"@. c #A55274",
"#. c #B9557B",
"$. c #9B686D",
"%. c #BA6775",
"&. c #C04D6D",
"*. c #CA4467",
"=. c #D9446C",
"-. c #D14B6E",
";. c #D5436A",
":. c #DE4973",
">. c #D74E75",
",. c #D15176",
"<. c #DE537D",
"1. c #E14E79",
"2. c #E4537F",
"3. c #FF1884",
"4. c #FC3990",
"5. c #BF4E8B",
"6. c #BF7AA7",
"7. c #D35980",
"8. c #DD5B83",
"9. c #E35480",
"0. c #E75886",
"q. c #E75D8A",
"w. c #EA5A8B",
"e. c #F95B9C",
"r. c #CD6189",
"t. c #DA618B",
"y. c #C87F8B",
"u. c #DF6995",
"i. c #EC6292",
"p. c #EB6B9B",
"a. c #F16798",
"s. c #F46C9F",
"d. c #EB719D",
"f. c #FF51A3",
"g. c #F866A0",
"h. c #F469A3",
"j. c #E371A0",
"k. c #EE74A4",
"l. c #EE75A8",
"z. c #E77DAF",
"x. c #F771A5",
"c. c #F97AAD",
"v. c #F277AC",
"b. c #FF6EBC",
"n. c #F97DB2",
"m. c #F07EB2",
"M. c #B18587",
"N. c #C4969D",
"B. c #EC81B5",
"V. c #F681B3",
"C. c #FB81B5",
"Z. c #FB84B9",
"A. c #FD8ABE",
"S. c #F186BB",
"D. c #ED9FBB",
"F. c #E5AAB8",
"G. c #FE8CC2",
"H. c #FC8FC9",
"J. c #FD84C4",
"K. c #FF92C6",
"L. c #F692CA",
"P. c #FE94CB",
"I. c #FF98CF",
"U. c #FC97D1",
"Y. c #FF9BD3",
"T. c #FF9ED9",
"R. c #FFA2DE",
"E. c #F6B8D1",
"W. c #D8C0C3",
"Q. c #EDC4CD",
"!. c #F2C7D6",
"~. c #FCD9E9",
"^. c #FFFBFF",
"/. c #FFF0FB",
"(. c None",
/* pixels */
"(.(.(.(.(.(.(.(.(.(.(.(.(.(.(.(.(.(.(.(.(.(.(.(.(.(.(.(.(.(.(.(.(.(.(.(.(.(.(.(.(.(.(.(.(.(.(.(.(.(.(.(.(.(.(.(.(.(.(.(.(.(.(.(.",
"(.(.(.(.(.(.(.(.(.(.(.(.(.(.(.(.(.(.(.(.(.(.(.(.(.(.(.(.(.(.(.(.(.(.(.(.(.(.(.(.(.(.(.(.(.(.(.(.(.(.(.(.(.(.(.(.(.(.(.(.(.(.(.(.",
"(.(.(.(.(.(.(.(.(.(.(.(.(.(.(.(.(.(.(.(.(.(.(.(.(.(.(.(.(.(.(.(.(.(.(.(.(.(.(.(.(.(.(.(.(.(.(.(.(.(.(.(.(.(.(.(.(.(.(.(.(.(.(.(.",
"(.(.(.(.(.(.(.(.(.(.(.(.(.(.(.(.(.(.(.(.(.(.(.(.(.(.(.(.(.(.(.(.(.(.(.(.(.(.(.(.(.(.(.(.(.(.(.(.(.(.(.(.(.(.(.(.(.(.(.(.(.(.(.(.",
"(.(.(.(.(.(.(.(.(.(.(.(.(.(.(.(.(.(.(.(.(.(.(.(.(.(.(.(.(.(.(.(.(.(.(.(.(.(.(.(.(.(.(.(.(.(.(.(.(.(.(.(.(.(.(.(.(.(.(.(.(.(.(.(.",
"(.(.(.(.(.(.(.(.(.(.(.(.(.(.(.(.(.(.(.(.(.(.(.(.(.(.(.(.(.(.(.(.(.(.(.(.(.(.(.(.(.(.(.(.(.(.(.(.(.(.(.(.(.(.(.(.(.(.(.(.(.(.(.(.",
"(.(.(.(.(.(.(.(.(.(.(.(.(.(.(.(.(.(.(.(.(.(.(.(.(.(.(.(.(.(.(.(.(.(.(.(.(.(.(.(.(.(.(.(.(.(.(.(.(.(.(.(.(.(.(.(.(.(.(.(.(.(.(.(.",
"(.(.(.(.(.(.(.(.(.(.(.(.(.(.(.(.(.(.(.(.(.(.(.(.(.(.(.(.(.(.(.(.(.(.(.(.(.(.(.(.(.(.(.(.(.(.(.(.(.(.(.(.(.(.(.(.(.(.(.(.(.(.(.(.",
"(.(.(.(.(.(.(.(.(.(.(.(.(.(.(.(.(.(.(.(.(.(.(.(.(.(.(.(.(.(.(.(.(.(.(.(.(.(.(.(.(.(.(.(.(.(.(.(.(.(.(.(.(.(.(.(.(.(.(.(.(.(.(.(.",
"(.(.(.(.(.(.(.(.(.(.(.(.(.(.(.(.(.(.(.(.(.(.(.(.(.(.(.(.(.(.(.(.(.(.(.(.(.(.(.(.(.(.(.(.(.(.(.(.(.(.(.(.(.(.(.(.(.(.(.(.(.(.(.(.",
"(.(.(.(.(.(.(.(.(.(.(.(.(.(.(.(.(.(.(.(.(.(.(.(.(.(.(.(.(.(.(.(.(.(.(.(.(.(.(.(.(.(.(.(.(.(.(.(.(.(.(.(.(.(.(.(.(.(.(.(.(.(.(.(.",
"(.(.(.(.(.(.(.(.(.(.(.(.(.(.(.(.(.(.(.(.(.(.(.(.(.(.(.(.(.(.(.(.(.(.(.(.(.(.(.(.(.(.(.(.(.(.(.(.(.(.(.(.(.(.(.(.(.(.(.(.(.(.(.(.",
"(.(.(.(.(.(.(.(.(.(.(.(.(.(.(.(.(.(.(.(.(.(.(.(.(.(.(.(.(.(.(.(.(.(.(.(.(.(.(.(.(.(.(.(.(.(.(.(.(.(.(.(.(.(.(.(.(.(.(.(.(.(.(.(.",
"(.(.(.(.(.(.(.(.(.(.(.(.(.(.(.(.(.(.(.(.(.(.(.(.                                  (.(.(.(.(.(.(.(.(.(.(.(.(.(.(.(.(.(.(.(.(.(.(.",
"(.(.(.(.(.(.(.(.(.(.(.(.(.(.(.(.(.(.(.(.(.(.(.(.                                  (.(.(.(.(.(.(.(.(.(.(.(.(.(.(.(.(.(.(.(.(.(.(.",
"(.(.(.(.(.(.(.(.(.(.(.(.(.(.(.(.(.(.(.(.        3 m Z :.:.V.K.K.K.K.K.K.C.x.x.m m ,         (.(.(.(.(.(.(.(.(.(.(.(.(.(.(.(.(.(.",
"(.(.(.(.(.(.(.(.(.(.(.(.(.(.(.(.(.(.(.(.        3 m Z :.:.V.K.K.K.K.K.K.V.x.x.v m ,         (.(.(.(.(.(.(.(.(.(.(.(.(.(.(.(.(.(.",
"(.(.(.(.(.(.(.(.(.(.(.(.(.(.(.(.(.(.  % 3 3 0 0 K <.t.l.l.K.I.Y.Y.Y.Y.U.L.G.G.t.t.@.X.r 3 3 #   (.(.(.(.(.(.(.(.(.(.(.(.(.(.(.(.",
"(.(.(.(.(.(.(.(.(.(.(.(.(.(.(.(.(.    , m m 1.:.p.K.P.R.R.R.R.R.R.R.R.R.R.R.R.R.R.I.K.k.m m @     (.(.(.(.(.(.(.(.(.(.(.(.(.(.(.",
"(.(.(.(.(.(.(.(.(.(.(.(.(.(.(.(.(.O X 8 A A 2.2.v.P.P.R.R.R.R.R.R.R.L.L.I.U.I.R.R.L.V.k.Z Z , X X (.(.(.(.(.(.(.(.(.(.(.(.(.(.(.",
"(.(.(.(.(.(.(.(.(.(.(.(.(.(.(.    s v ..x.x.R.R.R.R.R.R.R.R.R.R.R.R.S m ) :.:.R.R.,.m A :.:.S m 9     (.(.(.(.(.(.(.(.(.(.(.(.(.",
"(.(.(.(.(.(.(.(.(.(.(.(.(.(.(.    s m ..x.x.R.R.R.R.R.R.R.R.R.R.R.R.H m ) :.:.R.R.,.m ~ :.:.S v 9     (.(.(.(.(.(.(.(.(.(.(.(.(.",
"(.(.(.(.(.(.(.(.(.(.(.(.(.(.(.    V _ 8.K.L.R.R.R.R.R.R.R.R.R.R.R.R.F.F.%.n n I.K.D.F.y.n n -.8.C     (.(.(.(.(.(.(.(.(.(.(.(.(.",
"(.(.(.(.(.(.(.(.(.(.(.(.(.(.(.    J :.p.R.R.R.R.R.R.R.R.R.R.R.R.R.R./.^.M.5 5 K.K.~.^.W.5 5 7.x.o.    (.(.(.(.(.(.(.(.(.(.(.(.(.",
"(.(.(.(.(.(.(.(.(.(.(.(.(.(.(.o o +.9.k.R.R.R.R.R.R.R.R.R.R.R.R.R.R.!.Q.$.: : K.K.E.Q.N.: : r.n.@.@ @ (.(.(.(.(.(.(.(.(.(.(.(.(.",
"(.(.(.(.(.(.(.(.(.(.(.(.    o 5 5 7.x.Z.R.R.R.R.R.R.R.R.R.R.R.R.R.R.H m 3     K.K.-.v s     6.R.j.m m       (.(.(.(.(.(.(.(.(.(.",
"(.(.(.(.(.(.(.(.(.(.(.(.    o 5 5 7.x.Z.R.R.R.R.R.R.R.R.R.R.R.R.R.R.H m 3     K.H.-.v s     6.R.j.m m       (.(.(.(.(.(.(.(.(.(.",
"(.(.(.(.(.(.(.(.(.(.(.(.    @ c c z.T.T.R.R.R.R.R.R.R.R.R.R.R.R.R.R.<.=.q     R.T.p.-.F     6.R.m.=.=.      (.(.(.(.(.(.(.(.(.(.",
"(.(.(.(.(.(.(.(.(.(.(.(.    @ m v B.R.R.R.R.R.R.R.R.R.R.R.R.R.R.R.R.9.:.0     R.R.p.>.J     6.R.V.:.:.      (.(.(.(.(.(.(.(.(.(.",
"(.(.(.(.(.(.(.(.(.(.(.(.    * ....S.R.R.Y.Y.R.R.R.R.R.R.R.P.H.J.b.b.w.0.w     R.R.x.0.I     5.b.h.w.0.      (.(.(.(.(.(.(.(.(.(.",
"(.(.(.(.(.(.(.(.(.(.(.(.    = x.x.U.R.Y.K.K.R.R.R.R.R.R.R.n.x.a.3.3.g.x.e     R.R.Z.x.#.    P 3.4.x.x.      (.(.(.(.(.(.(.(.(.(.",
"(.(.(.(.(.(.(.(.(.(.(.(.    = x.x.U.R.T.K.K.R.R.R.R.R.R.R.n.x.f.3.3.g.x.e     R.R.Z.x.#.    P 3.4.x.x.      (.(.(.(.(.(.(.(.(.(.",
"(.(.(.(.(.(.(.(.(.(.(.(.    = x.x.A.K.Z.x.x.R.R.R.R.R.R.R.P.K.V.:.:.U.R.R.R.R.R.R.R.R.R.R.R.R.R.L.x.x.      (.(.(.(.(.(.(.(.(.(.",
"(.(.(.(.(.(.(.(.(.(.(.(.    = x.x.A.K.A.x.x.R.R.R.R.R.R.R.P.K.V.:.:.U.R.R.R.R.R.R.R.R.R.R.R.R.R.K.x.x.      (.(.(.(.(.(.(.(.(.(.",
"(.(.(.(.(.(.(.(.(.(.(.(.    - q.0.x.V.s.0.0.I.I.I.I.I.I.I.Z.c.a.~ ( L.R.R.R.R.R.R.d.,.u.R.R.Y.I.V.0.0.      (.(.(.(.(.(.(.(.(.(.",
"(.(.(.(.(.(.(.(.(.(.(.(.    * :.:.a.x.i.:.:.K.K.K.K.K.K.K.c.x.q.v m L.R.R.R.R.R.R.,.m *.R.R.P.K.v.:.:.      (.(.(.(.(.(.(.(.(.(.",
"(.(.(.(.(.(.(.(.(.(.(.(.    * =.=.a.x.i.:.:.A.A.A.K.A.K.G.x.k.q.Z Z L.R.R.R.R.R.R.7.H *.R.R.K.K.k.=.=.      (.(.(.(.(.(.(.(.(.(.",
"(.(.(.(.(.(.(.(.(.(.(.(.    @ m m q.x.i.:.:.x.x.x.x.x.x.x.2.:.:.:.:.U.R.R.R.R.R.R.R.R.R.K.K.c.x.<.v m       (.(.(.(.(.(.(.(.(.(.",
"(.(.(.(.(.(.(.(.(.(.(.(.    @ m m q.x.i.1.:.x.x.x.x.x.x.x.2.:.:.:.:.U.R.R.R.R.R.R.R.R.R.K.K.c.x.<.m m       (.(.(.(.(.(.(.(.(.(.",
"(.(.(.(.(.(.(.(.(.(.(.(.(.(.(.@ @ +.2.0.a.a.2.2.;.( ( ( ( ~ A ) a.a.K.I.P.I.P.I.P.P.K.A.c.c.q.2.L 6 6       (.(.(.(.(.(.(.(.(.(.",
"(.(.(.(.(.(.(.(.(.(.(.(.(.(.(.    J :.0.x.s.:.:.) m m m m m m ( x.x.G.K.K.K.K.K.K.K.K.A.x.x.2.:.G 5 5       (.(.(.(.(.(.(.(.(.(.",
"(.(.(.(.(.(.(.(.(.(.(.(.(.(.(.    b G L #.&. . .D d d d d c v ~ i.i.C.Z.Z.Z.Z.Z.Z.Z.C.V.i.a.L G b $ :     (.(.(.(.(.(.(.(.(.(.(.",
"(.(.(.(.(.(.(.(.(.(.(.(.(.(.(.    : 5 5 5 5 E E f 5 5 5 5 k m ~ :.:.s.x.x.x.x.x.x.x.x.a.:.:.a 5 $     (.(.(.(.(.(.(.(.(.(.(.(.(.",
"(.(.(.(.(.(.(.(.(.(.(.(.(.(.(.    : 5 5 5 5 E E f 5 5 5 5 k m ~ :.:.s.x.x.x.x.x.x.x.x.a.:.:.a 5 $     (.(.(.(.(.(.(.(.(.(.(.(.(.",
"(.(.(.(.(.(.(.(.(.(.(.(.(.(.(.    y g Y ] ] ~.~.v.] ] ] ] } } ' W W Y z m ~ A 1.1.^ N R { { 7 . . (.(.(.(.(.(.(.(.(.(.(.(.(.(.(.",
"(.(.(.(.(.(.(.(.(.(.(.(.(.(.(.    y h T 3.3.^.^.J.3.3.3.3.3.3.| E E j h z m m :.=.^ h N 3.3.7     (.(.(.(.(.(.(.(.(.(.(.(.(.(.(.",
"(.(.(.(.(.(.(.(.(.(.(.(.(.(.(.    t h Y ` ` A.A.f.3.3.3.3.3.3.{ ` ` Y M l p p ^ ^ z h M ' ` &     (.(.(.(.(.(.(.(.(.(.(.(.(.(.(.",
"(.(.(.(.(.(.(.(.(.(.(.(.(.(.(.    t h M E E 3.3.3.3.3.3.3.3.3.3.3.3.Q E i 5 5 h h h h j E E %     (.(.(.(.(.(.(.(.(.(.(.(.(.(.(.",
"(.(.(.(.(.(.(.(.(.(.(.(.(.(.(.    4 u l U U [ [ { { { { { 3.{ { { { E E i > > u u u u g B B &     (.(.(.(.(.(.(.(.(.(.(.(.(.(.(.",
"(.(.(.(.(.(.(.(.(.(.(.(.(.(.(.(.(.    + 5 5 h h M E E E E E E E E E j h 1                   (.(.(.(.(.(.(.(.(.(.(.(.(.(.(.(.(.(.",
"(.(.(.(.(.(.(.(.(.(.(.(.(.(.(.(.(.    + 5 5 h h M E E E E E E E E E j h 1                   (.(.(.(.(.(.(.(.(.(.(.(.(.(.(.(.(.(.",
"(.(.(.(.(.(.(.(.(.(.(.(.(.(.(.(.(.(.(.X + + ; ; < 2 2 2 2 2 2 2 2 2 ; ; % (.(.(.(.(.(.(.(.(.(.(.(.(.(.(.(.(.(.(.(.(.(.(.(.(.(.(.",
"(.(.(.(.(.(.(.(.(.(.(.(.(.(.(.(.(.(.(.(.                                  (.(.(.(.(.(.(.(.(.(.(.(.(.(.(.(.(.(.(.(.(.(.(.(.(.(.(.",
"(.(.(.(.(.(.(.(.(.(.(.(.(.(.(.(.(.(.(.(.                                (.(.(.(.(.(.(.(.(.(.(.(.(.(.(.(.(.(.(.(.(.(.(.(.(.(.(.(.",
"(.(.(.(.(.(.(.(.(.(.(.(.(.(.(.(.(.(.(.(.(.(.(.(.(.(.(.(.(.(.(.(.(.(.(.(.(.(.(.(.(.(.(.(.(.(.(.(.(.(.(.(.(.(.(.(.(.(.(.(.(.(.(.(.",
"(.(.(.(.(.(.(.(.(.(.(.(.(.(.(.(.(.(.(.(.(.(.(.(.(.(.(.(.(.(.(.(.(.(.(.(.(.(.(.(.(.(.(.(.(.(.(.(.(.(.(.(.(.(.(.(.(.(.(.(.(.(.(.(.",
"(.(.(.(.(.(.(.(.(.(.(.(.(.(.(.(.(.(.(.(.(.(.(.(.(.(.(.(.(.(.(.(.(.(.(.(.(.(.(.(.(.(.(.(.(.(.(.(.(.(.(.(.(.(.(.(.(.(.(.(.(.(.(.(.",
"(.(.(.(.(.(.(.(.(.(.(.(.(.(.(.(.(.(.(.(.(.(.(.(.(.(.(.(.(.(.(.(.(.(.(.(.(.(.(.(.(.(.(.(.(.(.(.(.(.(.(.(.(.(.(.(.(.(.(.(.(.(.(.(.",
"(.(.(.(.(.(.(.(.(.(.(.(.(.(.(.(.(.(.(.(.(.(.(.(.(.(.(.(.(.(.(.(.(.(.(.(.(.(.(.(.(.(.(.(.(.(.(.(.(.(.(.(.(.(.(.(.(.(.(.(.(.(.(.(.",
"(.(.(.(.(.(.(.(.(.(.(.(.(.(.(.(.(.(.(.(.(.(.(.(.(.(.(.(.(.(.(.(.(.(.(.(.(.(.(.(.(.(.(.(.(.(.(.(.(.(.(.(.(.(.(.(.(.(.(.(.(.(.(.(.",
"(.(.(.(.(.(.(.(.(.(.(.(.(.(.(.(.(.(.(.(.(.(.(.(.(.(.(.(.(.(.(.(.(.(.(.(.(.(.(.(.(.(.(.(.(.(.(.(.(.(.(.(.(.(.(.(.(.(.(.(.(.(.(.(.",
"(.(.(.(.(.(.(.(.(.(.(.(.(.(.(.(.(.(.(.(.(.(.(.(.(.(.(.(.(.(.(.(.(.(.(.(.(.(.(.(.(.(.(.(.(.(.(.(.(.(.(.(.(.(.(.(.(.(.(.(.(.(.(.(.",
"(.(.(.(.(.(.(.(.(.(.(.(.(.(.(.(.(.(.(.(.(.(.(.(.(.(.(.(.(.(.(.(.(.(.(.(.(.(.(.(.(.(.(.(.(.(.(.(.(.(.(.(.(.(.(.(.(.(.(.(.(.(.(.(.",
"(.(.(.(.(.(.(.(.(.(.(.(.(.(.(.(.(.(.(.(.(.(.(.(.(.(.(.(.(.(.(.(.(.(.(.(.(.(.(.(.(.(.(.(.(.(.(.(.(.(.(.(.(.(.(.(.(.(.(.(.(.(.(.(."
};
