/* XPM */
static char *result[] = {
/* columns rows colors chars-per-pixel */
"64 64 246 2 ",
"   c black",
".  c #0D0407",
"X  c #160407",
"o  c #190404",
"O  c #1C090E",
"+  c #1F0E14",
"@  c #240606",
"#  c #2D000A",
"$  c #2D080E",
"%  c #36070A",
"&  c #310808",
"*  c #3E0A0A",
"=  c #380A12",
"-  c #351019",
";  c #37121C",
":  c #37121D",
">  c #201F20",
",  c #391722",
"<  c #3A1D28",
"1  c #3D1C29",
"2  c #3E1C29",
"3  c #3D1F2C",
"4  c #3F202D",
"5  c #46040E",
"6  c #4A0C0C",
"7  c #530D0D",
"8  c #560E0E",
"9  c #580E0E",
"0  c #440C15",
"q  c #5A0014",
"w  c #550F1A",
"e  c #40121A",
"r  c #49111C",
"t  c #6D0E13",
"y  c #6E0E13",
"u  c #7A0C17",
"i  c #710019",
"p  c #611010",
"a  c #621010",
"s  c #631010",
"d  c #641010",
"f  c #77141A",
"g  c #72171C",
"h  c #471927",
"j  c #491827",
"k  c #561021",
"l  c #531B2B",
"z  c #711424",
"x  c #600932",
"c  c #7B1E32",
"v  c #78183E",
"b  c #402431",
"n  c #592537",
"m  c #722940",
"M  c #603D53",
"N  c #7B3852",
"B  c #810A19",
"V  c #87091B",
"C  c #8C081C",
"Z  c #850B22",
"A  c #800C20",
"S  c #960829",
"D  c #8C1824",
"F  c #88182B",
"G  c #8A1C2A",
"H  c #961A29",
"J  c #860033",
"K  c #870436",
"L  c #810939",
"P  c #9C0831",
"I  c #9E0934",
"U  c #88173D",
"Y  c #971F34",
"T  c #9F143C",
"R  c #AA0226",
"E  c #B50029",
"W  c #B5042B",
"Q  c #B5082D",
"!  c #B0093F",
"~  c #A91E3C",
"^  c #B51433",
"/  c #B51835",
"(  c #BE133C",
")  c #B52039",
"_  c #C5003D",
"`  c #9F0F53",
"'  c #B90441",
"]  c #BA0D46",
"[  c #B1144A",
"{  c #8B2D47",
"}  c #8B2E47",
"|  c #8B2D48",
" . c #83334D",
".. c #9A3447",
"X. c #A02C41",
"o. c #BD2242",
"O. c #BA2540",
"+. c #BD2A46",
"@. c #BF2A48",
"#. c #BE3651",
"$. c #BF3B5A",
"%. c #C70640",
"&. c #CA0042",
"*. c #CA0043",
"=. c #C8024A",
"-. c #CF0349",
";. c #D0094B",
":. c #D1094B",
">. c #D60052",
",. c #D70956",
"<. c #DB0358",
"1. c #C41558",
"2. c #E1065E",
"3. c #C22F4E",
"4. c #C42F4F",
"5. c #C63454",
"6. c #CA3658",
"7. c #CA3659",
"8. c #CB395C",
"9. c #CF395D",
"0. c #C93D5F",
"q. c #EA0C6B",
"w. c #E81369",
"e. c #EC126E",
"r. c #EF0F71",
"t. c #F11373",
"y. c #F51579",
"u. c #FA157D",
"i. c #FB167F",
"p. c #DA2462",
"a. c #CE3E62",
"s. c #D03065",
"d. c #D43E64",
"f. c #D43F64",
"g. c #80516F",
"h. c #B54360",
"j. c #B1516B",
"k. c #8F617F",
"l. c #C8405F",
"z. c #CE4266",
"x. c #C04D6D",
"c. c #D8446B",
"v. c #CF4F75",
"b. c #DE4973",
"n. c #D15077",
"m. c #D05177",
"M. c #D15378",
"N. c #D3547B",
"B. c #DE537D",
"V. c #E14E79",
"C. c #E14E7A",
"Z. c #E2527E",
"A. c #E4537F",
"S. c #FF1884",
"D. c #FF298F",
"F. c #9F658B",
"G. c #B8698F",
"H. c #AF6F99",
"J. c #E45380",
"K. c #E15580",
"L. c #E15680",
"P. c #E75885",
"I. c #E75886",
"U. c #E65986",
"Y. c #E65B87",
"T. c #E65B88",
"R. c #E75D8A",
"E. c #E65D8B",
"W. c #E65E8D",
"Q. c #E65F8D",
"!. c #E65F8E",
"~. c #FB4494",
"^. c #FB4D99",
"/. c #C46B91",
"(. c #CF7499",
"). c #E8608C",
"_. c #E16592",
"`. c #E46591",
"'. c #ED6292",
"]. c #EE6292",
"[. c #EA6492",
"{. c #EE6495",
"}. c #EA6A9B",
"|. c #EE6D9C",
" X c #F06798",
".X c #F16799",
"XX c #F16B9C",
"oX c #F36C9E",
"OX c #E67696",
"+X c #FF5DB1",
"@X c #D87EAB",
"#X c #EE75A8",
"$X c #F771A5",
"%X c #F574A6",
"&X c #F875A9",
"*X c #F877AC",
"=X c #F57BAC",
"-X c #F979AD",
";X c #F37DB2",
":X c #FA7DB1",
">X c #FD73B9",
",X c #CF84B4",
"<X c #E780B3",
"1X c #EC81B5",
"2X c #F780B1",
"3X c #F584B5",
"4X c #FA83BA",
"5X c #F28BBA",
"6X c #FB89BB",
"7X c #FD89BD",
"8X c #FD8ABE",
"9X c #FE8BBF",
"0X c #E390B0",
"qX c #EC8EC1",
"wX c #F78CC3",
"eX c #FB89C1",
"rX c #FE8EC2",
"tX c #FE8FC5",
"yX c #FF80C8",
"uX c #FF89CE",
"iX c #F190C0",
"pX c #FF92C6",
"aX c #F692C9",
"sX c #FB92CB",
"dX c #FF94C9",
"fX c #FF96CC",
"gX c #FD95CF",
"hX c #FF98CF",
"jX c #FF91D3",
"kX c #FB97D1",
"lX c #FE98D1",
"zX c #FD99D3",
"xX c #FF9AD2",
"cX c #FE9BD4",
"vX c #FD9BD6",
"bX c #FE9CD7",
"nX c #FF9DD7",
"mX c #FF9ED8",
"MX c #FFA0DB",
"NX c #FFA2DE",
"BX c #FFAEE4",
"VX c #FDBBE3",
"CX c #FFCEEE",
"ZX c #FFD3F7",
"AX c #FFFBFF",
"SX c None",
/* pixels */
"SXSXSXSXSXSXSXSXSXSXSXSXSXSXSXSXSXSXSXSXSXSXSXSXSXSXSXSXSXSXSXSXSXSXSXSXSXSXSXSXSXSXSXSXSXSXSXSXSXSXSXSXSXSXSXSXSXSXSXSXSXSXSXSX",
"SXSXSXSXSXSXSXSXSXSXSXSXSXSXSXSXSXSXSXSXSXSXSXSXSXSXSXSXSXSXSXSXSXSXSXSXSXSXSXSXSXSXSXSXSXSXSXSXSXSXSXSXSXSXSXSXSXSXSXSXSXSXSXSX",
"SXSXSXSXSXSXSXSXSXSXSXSXSXSXSXSXSXSXSXSXSXSXSXSXSXSXSXSXSXSXSXSXSXSXSXSXSXSXSXSXSXSXSXSXSXSXSXSXSXSXSXSXSXSXSXSXSXSXSXSXSXSXSXSX",
"SXSXSXSXSXSXSXSXSXSXSXSXSXSXSXSXSXSXSXSXSXSXSXSXSXSXSXSXSXSXSXSXSXSXSXSXSXSXSXSXSXSXSXSXSXSXSXSXSXSXSXSXSXSXSXSXSXSXSXSXSXSXSXSX",
"SXSXSXSXSXSXSXSXSXSXSXSXSXSXSXSXSXSXSXSXSXSXSXSXSXSXSXSXSXSXSXSXSXSXSXSXSXSXSXSXSXSXSXSXSXSXSXSXSXSXSXSXSXSXSXSXSXSXSXSXSXSXSXSX",
"SXSXSXSXSXSXSXSXSXSXSXSXSXSXSXSXSXSXSXSXSXSXSXSXSXSXSXSXSXSXSXSXSXSXSXSXSXSXSXSXSXSXSXSXSXSXSXSXSXSXSXSXSXSXSXSXSXSXSXSXSXSXSXSX",
"SXSXSXSXSXSXSXSXSXSXSXSXSXSXSXSXSXSXSXSXSXSXSXSXSXSXSXSXSXSXSXSXSXSXSXSXSXSXSXSXSXSXSXSXSXSXSXSXSXSXSXSXSXSXSXSXSXSXSXSXSXSXSXSX",
"SXSXSXSXSXSXSXSXSXSXSXSXSXSXSXSXSXSXSXSXSXSXSXSXSXSXSXSXSXSXSXSXSXSXSXSXSXSXSXSXSXSXSXSXSXSXSXSXSXSXSXSXSXSXSXSXSXSXSXSXSXSXSXSX",
"SXSXSXSXSXSXSXSXSXSXSXSXSXSXSXSXSXSXSXSXSXSXSXSXSXSXSXSXSXSXSXSXSXSXSXSXSXSXSXSXSXSXSXSXSXSXSXSXSXSXSXSXSXSXSXSXSXSXSXSXSXSXSXSX",
"SXSXSXSXSXSXSXSXSXSXSXSXSXSXSXSXSXSXSXSXSXSX                        SXSXSX                  SXSXSXSXSXSXSXSXSXSXSXSXSXSXSXSXSXSX",
"SXSXSXSXSXSXSXSXSXSXSXSXSXSXSXSXSXSXSXSXSXSX                        SXSX                    SXSXSXSXSXSXSXSXSXSXSXSXSXSXSXSXSXSX",
"SXSXSXSXSXSXSXSXSXSXSXSXSXSXSXSXSXSXSXSXSXSX    + 1 1 b b b b 3 ; ; SXSXe ; ; 1 1 1 1 , $ $ SXSXSXSXSXSXSXSXSXSXSXSXSXSXSXSXSXSX",
"SXSXSXSXSXSXSXSXSXSXSXSXSXSXSXSXSXSXSXSX        N $X&XpXpXpXpX2Xb.b.g s X.b.b.$X$X$X$XR.) ) $     SXSXSXSXSXSXSXSXSXSXSXSXSXSXSX",
"SXSXSXSXSXSXSXSXSXSXSXSXSXSXSXSXSXSXSXSX        N $X&XpXpXpXpX2Xb.b.g s X.b.b.$X$X$X$XR.) ) $     SXSXSXSXSXSXSXSXSXSXSXSXSXSXSX",
"SXSXSXSXSXSXSXSXSXSXSXSXSXSXSX              8 8 G +.3.Z.Z.Z.Z.Z.b.b.z.z.`.6X6XbXbXbXbXlX3X3X<     SXSXSXSXSXSXSXSXSXSXSXSXSXSXSX",
"SXSXSXSXSXSXSXSXSXSXSXSXSXSXSX              s s D ) O.b.b.b.b.b.b.b.b.b.|.pXpXNXNXNXNXmXpXpXb     SXSXSXSXSXSXSXSXSXSXSXSXSXSXSX",
"SXSXSXSXSXSXSXSXSXSXSXSXSXSXSX    = 0 r l l ....h.m.N.}.}.}.}.Q.b.b.).[.=XpXpXNXNXNXNXmXpXpXb     SXSXSXSXSXSXSXSXSXSXSXSXSXSXSX",
"SXSXSXSXSXSXSXSXSXSXSXSX          F ) 4.b.b.$X$XeXNXNXNXNXNXNXwXb.b.6XpXpXpXpXNXNXNXNXmXpXpXb     SXSXSXSXSXSXSXSXSXSXSXSXSXSXSX",
"SXSXSXSXSXSXSXSXSXSXSXSX          F ) 4.b.b.$X$XeXNXNXNXNXNXNXwXb.b.6XpXpXpXpXNXNXNXNXmXpXpXb     SXSXSXSXSXSXSXSXSXSXSXSXSXSXSX",
"SXSXSXSXSXSXSXSXSXSXSXSX    $ ) ) R.$X4XNXNXNXNXNXNXNXNXNXNXNXgX$X$XrXpXpXpXpXpXpXpXpXpXpXpXb     SXSXSXSXSXSXSXSXSXSXSXSXSXSXSX",
"SXSXSXSXSXSXSXSXSXSXSXSX    $ ) ) R.$X4XNXNXNXNXNXNXNXNXNXNXNXgX$X$XrXpXpXpXpXpXpXpXpXpXpXpXb     SXSXSXSXSXSXSXSXSXSXSXSXSXSXSX",
"SXSXSXSXSXSXSXSXSXSX        - 9.9.8.a._.NXNXM M H.NXNXNXNXNXNXgX$X$XrXpXpXpXpXpXpXpXpX9X:X:X4         SXSXSXSXSXSXSXSXSXSXSXSXSX",
"SXSXSXSXSXSXSXSXSXSX        : b.b.@.) n.NXNX    g.NXNXNXNXNXNXgX$X$XrXpXpXpXpXpXpXpXpX7X$X$X1         SXSXSXSXSXSXSXSXSXSXSXSXSX",
"SXSXSXSXSXSXSXSXSXSX    . O h C.C.l.#.M.aXaX> > k.NXNXNXNXNXNXzX*X*XrXpXpXpXpXrXrXrXrX7X&X&Xn O .     SXSXSXSXSXSXSXSXSXSXSXSXSX",
"SXSXSXSXSXSXSXSXSXSX    | b.J.$X$XVXZX0X) ) AXAXCXNXNXNXNXNXNXNXNXNXdXpXpXpXpX$X$X$X$X-XpXpXT.b.{     SXSXSXSXSXSXSXSXSXSXSXSXSX",
"SXSXSXSXSXSXSXSXSXSX    | b.J.$X$XVXZX0X) ) AXAXCXNXNXNXNXNXNXNXNXNXdXpXpXpXpX$X$X$X$X-XpXpXT.b.{     SXSXSXSXSXSXSXSXSXSXSXSXSX",
"SXSXSXSXSXSXSXSXSXSX    | b.c.5.5.iXBX(.f f OXOX5XNXNXNXNXNXNXNXNXNXmXmXhXpXpX8X8X8X8XtXmXmXW.b.{     SXSXSXSXSXSXSXSXSXSXSXSXSX",
"SXSXSXSXSXSXSXSXSXSX    | b.f.) ) 1XNX/.s s b.b.#XNXNXNXNXNXNXNXNXNXNXNXxXpXpXpXpXpXpXfXNXNX!.b.{     SXSXSXSXSXSXSXSXSXSXSXSXSX",
"SXSXSXSXSXSXSXSXSXSX    | b.0.H H <XNXG.* * I.I.;XNXNXNXNXNXNXNXNXNXNXNXnXhXhXhXhXhXhXxXNXNX!.b.{     SXSXSXSXSXSXSXSXSXSXSXSXSX",
"SXSXSXSXSXSXSXSXSXSX    | b.$.s s @XNXF.    $X$XeXNXNXNXNXNXNXNXNXNXNXNXNXNXNXNXNXNXNXNXNXNX!.b.{     SXSXSXSXSXSXSXSXSXSXSXSXSX",
"SXSXSXSXSXSXSXSXSXSX    | b.$.s s @XNXF.    $X$XeXNXNXNXNXNXNXNXNXNXNXNXNXNXNXNXNXNXNXNXNXNX!.b.{     SXSXSXSXSXSXSXSXSXSXSXSXSX",
"SXSXSXSXSXSXSXSXSXSX    K ,.] s s @XNXF.    $X$X^.D.D.D.D.uXNXNXNXNXNXNXNXNXNXNXNXNXNXNXNXNX!.b.{     SXSXSXSXSXSXSXSXSXSXSXSXSX",
"SXSXSXSXSXSXSXSXSXSX    J >.' s s @XNXF.    $X$X~.S.S.S.S.yXNXNXNXNXNXNXNXNXNXNXNXNXNXNXNXNX!.b.{     SXSXSXSXSXSXSXSXSXSXSXSXSX",
"SXSXSXSXSXSXSXSXSXSX    U p.s.j.j.qXNX,Xg.g.eXeX>X+X+X+X+XjXNXNXNXNXNXNXNXNXNXNXNXNXNXMXxXxXE.b.{     SXSXSXSXSXSXSXSXSXSXSXSXSX",
"SXSXSXSXSXSXSXSXSXSX    | b.Y.pXpXmXNXNXNXNXNXNXNXNXNXNXNXNXNXNXNXNXNXNXNXNXNXNXNXNXNXmXpXpXT.b.{     SXSXSXSXSXSXSXSXSXSXSXSXSX",
"SXSXSXSXSXSXSXSXSXSX    | b.U.rXrXsXkXvXMXMXNXNXNXNXNXNXNXNXNXNXNXNXNXNXNXNXNXMXMXMXMXcXrXrXT.b.{     SXSXSXSXSXSXSXSXSXSXSXSXSX",
"SXSXSXSXSXSXSXSXSXSX    | b.J.$X$XA.b.[.pXpXNXNXNXNXNXNXNXNXNXNXNXNXNXNXNXNXNXpXpXpXpX7X$X$XA.b.{     s s a SXSXSXSXSXSXSXSXSXSX",
"SXSXSXSXSXSXSXSXSXSX    | b.J.$X$XA.b.[.pXpXNXNXNXNXNXNXNXNXNXNXNXNXNXNXNXNXNXpXpXpXpX7X$X$XA.b.{     s s a SXSXSXSXSXSXSXSXSXSX",
"SXSXSXSXSXSXSXSXSXSXSXSXj l  .$X$X.X].XX:X:XhXhXhXhXhXhXhXhXhXhXhXhXhXhXhXhXhX:X:X:X:X%XP.P.m l v ` ` 1.1.T s d SXSXSXSXSXSXSXSX",
"SXSXSXSXSXSXSXSXSXSXSXSX    2 $X$X$X$X$X$X$XpXpXpXpXpXpXpXpXpXpXpXpXpXpXpXpXpX$X$X$X$X Xb.b.;   x S.S.S.S.[ s s SXSXSXSXSXSXSXSX",
"SXSXSXSXSXSXSXSXSXSXSXSX    , R.R.oX$X$X$X$X7X7X7X7X7X7X7X7X7X7X7X7X7X7X7X7X7X$X$X$X$X{.d.d.k # L S.S.S.S.[ s s SXSXSXSXSXSXSXSX",
"SXSXSXSXSXSXSXSXSXSXSXSX    $ ) ) R.$X$X$X$X$X$X$X$X$X$X$X$X$X$X$X$X$X$X$X$X$X$X$X$X$XR.) ) Q E :.S.S.S.S.[ s s SXSXSXSXSXSXSXSX",
"SXSXSXSXSXSXSXSXSXSXSXSX    $ ) ) R.$X$X$X$X$X$X$X$X$X$X$X$X$X$X$X$X$X$X$X$X$X$X$X$X$XR.) ) Q E :.S.S.S.S.[ s s SXSXSXSXSXSXSXSX",
"SXSXSXSXSXSXSXSXSXSXSXSX9 8 * X X Y +.7.V.V.$X$X$X$X$X$X$X$X$X$X$X$X$X$X$X$X$XV.V.6.+.o.W W w.y.i.S.S.<.<.I s s SXSXSXSXSXSXSXSX",
"SXSXSXSXSXSXSXSXSXSXSXSXp s 6     F ) 4.b.b.$X$X$X$X$X$X$X$X$X$X$X$X$X$X$X$X$Xb.b.4.) / E E e.S.S.S.S.>.>.P s s SXSXSXSXSXSXSXSX",
"SXSXSXSXSXSXSXSXSXSXSXSXSXs 7 @ @ w z c } } x.x.v.B.K.'.'.'.'.'.'.'.L.B.v.x.x.} } ~ ^ ( ;.;.t.S.u.r.r.*.*.S s s SXSXSXSXSXSXSXSX",
"SXSXSXSXSXSXSXSXSXSXSXSXSXSXSXs s o         s s D ) O.b.b.b.b.b.b.b.O.) D s s     i E %.S.S.S.S.r.>.>.E E C s s SXSXSXSXSXSXSXSX",
"SXSXSXSXSXSXSXSXSXSXSXSXSXSXSXs s o         s s D ) O.b.b.b.b.b.b.b.O.) D s s     i E %.S.S.S.S.r.>.>.E E C s s SXSXSXSXSXSXSXSX",
"SXSXSXSXSXSXSXSXSXSXSXSXSXSXSXSXSXs s B E E                                   E E E E %.S.S.2.>.&.E E s s a SXSXSXSXSXSXSXSXSXSX",
"SXSXSXSXSXSXSXSXSXSXSXSXSXSXSXSXSXs s B E E                                   E E E E %.S.S.2.>.&.E E s s a SXSXSXSXSXSXSXSXSXSX",
"SXSXSXSXSXSXSXSXSXSXSXSXSXSXSXSXSXSXa u C C & & & & % q q q q q q q q q 5 & & _ _ _ _ -.q.q.! P S C C a a SXSXSXSXSXSXSXSXSXSXSX",
"SXSXSXSXSXSXSXSXSXSXSXSXSXSXSXSXSXSXSXSXs s s s s s t E E E E E E E E E C s s >.>.>.>.>.>.>.A s s s s SXSXSXSXSXSXSXSXSXSXSXSXSX",
"SXSXSXSXSXSXSXSXSXSXSXSXSXSXSXSXSXSXSXSXa a a a a a y R R R R R R R R R V s s =.=.=.=.=.=.=.Z a a a a SXSXSXSXSXSXSXSXSXSXSXSXSX",
"SXSXSXSXSXSXSXSXSXSXSXSXSXSXSXSXSXSXSXSXSXSXSXSXSXSXSXs s s s s s s s s s s s s s s s s s s SXSXSXSXSXSXSXSXSXSXSXSXSXSXSXSXSXSX",
"SXSXSXSXSXSXSXSXSXSXSXSXSXSXSXSXSXSXSXSXSXSXSXSXSXSXSXs s s s s s s s s s s s s s s s s s s SXSXSXSXSXSXSXSXSXSXSXSXSXSXSXSXSXSX",
"SXSXSXSXSXSXSXSXSXSXSXSXSXSXSXSXSXSXSXSXSXSXSXSXSXSXSXSXSXSXSXSXSXSXSXSXSXSXSXSXSXSXSXSXSXSXSXSXSXSXSXSXSXSXSXSXSXSXSXSXSXSXSXSX",
"SXSXSXSXSXSXSXSXSXSXSXSXSXSXSXSXSXSXSXSXSXSXSXSXSXSXSXSXSXSXSXSXSXSXSXSXSXSXSXSXSXSXSXSXSXSXSXSXSXSXSXSXSXSXSXSXSXSXSXSXSXSXSXSX",
"SXSXSXSXSXSXSXSXSXSXSXSXSXSXSXSXSXSXSXSXSXSXSXSXSXSXSXSXSXSXSXSXSXSXSXSXSXSXSXSXSXSXSXSXSXSXSXSXSXSXSXSXSXSXSXSXSXSXSXSXSXSXSXSX",
"SXSXSXSXSXSXSXSXSXSXSXSXSXSXSXSXSXSXSXSXSXSXSXSXSXSXSXSXSXSXSXSXSXSXSXSXSXSXSXSXSXSXSXSXSXSXSXSXSXSXSXSXSXSXSXSXSXSXSXSXSXSXSXSX",
"SXSXSXSXSXSXSXSXSXSXSXSXSXSXSXSXSXSXSXSXSXSXSXSXSXSXSXSXSXSXSXSXSXSXSXSXSXSXSXSXSXSXSXSXSXSXSXSXSXSXSXSXSXSXSXSXSXSXSXSXSXSXSXSX",
"SXSXSXSXSXSXSXSXSXSXSXSXSXSXSXSXSXSXSXSXSXSXSXSXSXSXSXSXSXSXSXSXSXSXSXSXSXSXSXSXSXSXSXSXSXSXSXSXSXSXSXSXSXSXSXSXSXSXSXSXSXSXSXSX",
"SXSXSXSXSXSXSXSXSXSXSXSXSXSXSXSXSXSXSXSXSXSXSXSXSXSXSXSXSXSXSXSXSXSXSXSXSXSXSXSXSXSXSXSXSXSXSXSXSXSXSXSXSXSXSXSXSXSXSXSXSXSXSXSX",
"SXSXSXSXSXSXSXSXSXSXSXSXSXSXSXSXSXSXSXSXSXSXSXSXSXSXSXSXSXSXSXSXSXSXSXSXSXSXSXSXSXSXSXSXSXSXSXSXSXSXSXSXSXSXSXSXSXSXSXSXSXSXSXSX",
"SXSXSXSXSXSXSXSXSXSXSXSXSXSXSXSXSXSXSXSXSXSXSXSXSXSXSXSXSXSXSXSXSXSXSXSXSXSXSXSXSXSXSXSXSXSXSXSXSXSXSXSXSXSXSXSXSXSXSXSXSXSXSXSX"
};
