/* XPM */
static char *result[] = {
/* columns rows colors chars-per-pixel */
"64 64 248 2 ",
"   c black",
".  c #0C0202",
"X  c #0B0204",
"o  c #100003",
"O  c #160005",
"+  c #170005",
"@  c #160407",
"#  c #170407",
"$  c #180404",
"%  c #1B000A",
"&  c #1A090D",
"*  c #1C090E",
"=  c #1F0E14",
"-  c #220007",
";  c #250606",
":  c #250008",
">  c #22060A",
",  c #2A0009",
"<  c #2D000A",
"1  c #2D080E",
"2  c #31000F",
"3  c #3D000E",
"4  c #310808",
"5  c #290E15",
"6  c #350710",
"7  c #350014",
"8  c #300F16",
"9  c #35121C",
"0  c #37121D",
"q  c #3E1C29",
"w  c #43000F",
"e  c #410B10",
"r  c #5A0014",
"t  c #50001F",
"y  c #53001F",
"u  c #5A0C1A",
"i  c #44141B",
"p  c #5A101C",
"a  c #710019",
"s  c #631010",
"d  c #77111E",
"f  c #72171C",
"g  c #400621",
"h  c #451624",
"j  c #4E1624",
"k  c #531B2B",
"l  c #5B1A2A",
"z  c #610A2E",
"x  c #711423",
"c  c #600931",
"v  c #600932",
"b  c #601A3D",
"n  c #402837",
"m  c #5C2A3D",
"M  c #7E2338",
"N  c #732E45",
"B  c #673047",
"V  c #603D53",
"C  c #7B3852",
"Z  c #4C4142",
"A  c #605E60",
"S  c #87001E",
"D  c #87001F",
"F  c #88001E",
"G  c #81161F",
"H  c #960620",
"J  c #9E0024",
"K  c #8C1824",
"L  c #8A122D",
"P  c #87182B",
"I  c #88182B",
"U  c #961A29",
"Y  c #9A0036",
"T  c #9C0831",
"R  c #9C0039",
"E  c #941234",
"W  c #9F1531",
"Q  c #9E1C31",
"!  c #9E1C32",
"~  c #A00E2B",
"^  c #B50029",
"/  c #A1003D",
"(  c #BD0033",
")  c #BA0932",
"_  c #B80038",
"`  c #AB1E34",
"'  c #B51835",
"]  c #8D222F",
"[  c #882835",
"{  c #932236",
"}  c #912535",
"|  c #B52039",
" . c #C10038",
".. c #C2093C",
"X. c #9F0F52",
"o. c #B90441",
"O. c #972F41",
"+. c #9A2A44",
"@. c #9C2C48",
"#. c #802E58",
"$. c #BF2A48",
"%. c #AF314B",
"&. c #BE304D",
"*. c #A73756",
"=. c #BF3B5A",
"-. c #BF1263",
";. c #CA0042",
":. c #CE0048",
">. c #C30B48",
",. c #CA0A4E",
"<. c #CA0B4E",
"1. c #D1014B",
"2. c #D2004D",
"3. c #D3034E",
"4. c #D1094B",
"5. c #D60052",
"6. c #D70956",
"7. c #DA0C56",
"8. c #DB0358",
"9. c #DE0C5C",
"0. c #C51558",
"q. c #E0065E",
"w. c #E0075F",
"e. c #E1095F",
"r. c #C63454",
"t. c #CE395D",
"y. c #CE395E",
"u. c #E30C61",
"i. c #E50965",
"p. c #E60964",
"a. c #EA0C6B",
"s. c #E9106E",
"d. c #EC126D",
"f. c #ED126E",
"g. c #EF0F71",
"h. c #EF0F72",
"j. c #EC1776",
"k. c #F11775",
"l. c #F51278",
"z. c #F61579",
"x. c #FA157D",
"c. c #FA157E",
"v. c #FB167E",
"b. c #F6197B",
"n. c #CE3E61",
"m. c #815060",
"M. c #B04A6E",
"N. c #B55075",
"B. c #B9557B",
"V. c #B9547C",
"C. c #C24065",
"Z. c #CE4266",
"A. c #D7466D",
"S. c #D6486F",
"D. c #DA4871",
"F. c #DE4973",
"G. c #E4537F",
"H. c #FD1680",
"J. c #FF1884",
"K. c #FF3A9A",
"L. c #AB6782",
"P. c #D25980",
"I. c #E45380",
"U. c #E65B88",
"Y. c #E75D8A",
"T. c #EA5D8C",
"R. c #D06089",
"E. c #D36B98",
"W. c #DB6F9D",
"Q. c #EC6291",
"!. c #EF6797",
"~. c #E06C95",
"^. c #EB6B98",
"/. c #EA6A9B",
"(. c #EE6D9C",
"). c #F16798",
"_. c #F36C9E",
"`. c #F46C9F",
"'. c #FF4CA6",
"]. c #FF5DB1",
"[. c #DF7AAB",
"{. c #F56FA2",
"}. c #F66FA2",
"|. c #ED75A3",
" X c #EC76A3",
".X c #EF7BAB",
"XX c #F173A5",
"oX c #F771A5",
"OX c #F572A4",
"+X c #F875A9",
"@X c #F979AD",
"#X c #FF6EBC",
"$X c #F77EB4",
"%X c #FA7DB1",
"&X c #F97DB3",
"*X c #FF77C2",
"=X c #DF80AD",
"-X c #EC82AF",
";X c #EC81B5",
":X c #F784B7",
">X c #FB81B5",
",X c #FA83BA",
"<X c #FB85B9",
"1X c #FC85B9",
"2X c #FB89BB",
"3X c #FC88BC",
"4X c #FD89BD",
"5X c #FD8ABE",
"6X c #E690B0",
"7X c #C4A3A5",
"8X c #DF8EC2",
"9X c #F58CC2",
"0X c #F78CC3",
"qX c #FB89C1",
"wX c #FD8BC0",
"eX c #FC8AC1",
"rX c #FD8CC0",
"tX c #FD8CC1",
"yX c #FE8EC2",
"uX c #FD8EC4",
"iX c #FE90C4",
"pX c #FE90C5",
"aX c #FF92C6",
"sX c #FC90C9",
"dX c #FF93C8",
"fX c #FF94C9",
"gX c #FF96CC",
"hX c #FF98CF",
"jX c #FB97D1",
"kX c #FD96D0",
"lX c #FF99D1",
"zX c #FF9AD2",
"xX c #FE9BD4",
"cX c #FF9BD4",
"vX c #FF9CD5",
"bX c #FE9CD7",
"nX c #FF9ED8",
"mX c #FAA5C7",
"MX c #FFA0DB",
"NX c #FFA1DD",
"BX c #FFA2DE",
"VX c #FFA4DD",
"CX c #FBB6D2",
"ZX c #FFADE2",
"AX c #DFDCDF",
"SX c #FFC2E0",
"DX c #FFFBFF",
"FX c None",
/* pixels */
"FXFXFXFXFXFXFXFXFXFXFXFXFXFXFXFXFXFXFXFXFXFXFXFXFXFXFXFXFXFXFXFXFXFXFXFXFXFXFXFXFXFXFXFXFXFXFXFXFXFXFXFXFXFXFXFXFXFXFXFXFXFXFXFX",
"FXFXFXFXFXFXFXFXFXFXFXFXFXFXFXFXFXFXFXFXFXFXFXFXFXFXFXFXFXFXFXFXFXFXFXFXFXFXFXFXFXFXFXFXFXFXFXFXFXFXFXFXFXFXFXFXFXFXFXFXFXFXFXFX",
"FXFXFXFXFXFXFXFXFXFXFXFXFXFXFXFXFXFXFXFXFXFXFXFXFXFXFXFXFXFXFXFXFXFXFXFXFXFXFXFXFXFXFXFXFXFXFXFXFXFXFXFXFXFXFXFXFXFXFXFXFXFXFXFX",
"FXFXFXFXFXFXFXFXFXFXFXFXFXFXFXFXFXFXFXFXFXFXFXFXFXFXFXFXFXFXFXFXFXFXFXFXFXFXFXFXFXFXFXFXFXFXFXFXFXFXFXFXFXFXFXFXFXFXFXFXFXFXFXFX",
"FXFXFXFXFXFXFXFXFXFXFXFXFXFXFXFXFXFXFXFXFXFXFXFXFXFXFXFXFXFXFXFXFXFXFXFXFXFXFXFXFXFXFXFXFXFXFXFXFXFXFXFXFXFXFXFXFXFXFXFXFXFXFXFX",
"FXFXFXFXFXFXFXFXFXFXFXFXFXFXFXFXFXFXFXFXFXFXFXFXFXFXFXFXFXFXFXFXFXFXFXFXFXFXFXFXFXFXFXFXFXFXFXFXFXFXFXFXFXFXFXFXFXFXFXFXFXFXFXFX",
"FXFXFXFXFXFXFXFXFXFXFXFXFXFXFXFXFXFXFXFXFXFXFXFXFXFXFXFXFXFXFXFXFXFXFXFXFXFXFXFXFXFXFXFXFXFXFXFXFXFXFXFXFXFXFXFXFXFXFXFXFXFXFXFX",
"FXFXFXFXFXFXFXFXFXFXFXFXFXFXFXFXFXFXFXFXFXFXFXFXFXFXFXFXFXFXFXFXFXFXFXFXFXFXFXFXFXFXFXFXFXFXFXFXFXFXFXFXFXFXFXFXFXFXFXFXFXFXFXFX",
"FXFXFXFXFXFXFXFXFXFXFXFXFXFXFXFXFXFXFXFXFXFXFXFXFXFXFXFXFXFXFXFXFXFXFXFXFXFXFXFXFXFXFXFXFXFXFXFXFXFXFXFXFXFXFXFXFXFXFXFXFXFXFXFX",
"FXFXFXFXFXFXFXFXFXFXFXFXFXFXFXFXFXFXFXFXFXFXFX                        FXFXFXFXFXFXFXFXFXFXFXFXFXFXFXFXFXFXFXFXFXFXFXFXFXFXFXFXFX",
"FXFXFXFXFXFXFXFXFXFXFXFXFXFXFXFXFXFXFXFXFXFXFX                        FXFXFXFXFXFXFXFXFXFXFXFXFXFXFXFXFXFXFXFXFXFXFXFXFXFXFXFXFX",
"FXFXFXFXFXFXFXFXFXFXFXFXFXFXFXFXFXFXFXFXFX    C.F.(.aXaXaXaX%XoXB.                    FXFXFXFXFXFXFXFXFXFXFXFXFXFXFXFXFXFXFXFXFX",
"FXFXFXFXFXFXFXFXFXFXFXFXFXFXFXFXFXFXFXFXFX    C.F.(.aXaXaXaX%XoXB.                    FXFXFXFXFXFXFXFXFXFXFXFXFXFXFXFXFXFXFXFXFX",
"FXFXFXFXFXFXFXFXFXFXFXFXFXFXFXFXFXFXFXFXFX    R.(.:XzXzXzXzXwX>XW.C C i 4 e p p               FXFXFXFXFXFXFXFXFXFXFXFXFXFXFXFXFX",
"FXFXFXFXFXFXFXFXFXFXFXFXFXFXFXFXFXFXFXFXFX    =XaXzXBXBXBXBXhXaX4XoXoX[ s G | |               FXFXFXFXFXFXFXFXFXFXFXFXFXFXFXFXFX",
"FXFXFXFXFXFXFXFXFXFXFXFXFXFXFXFXFXFXFXFXFX. . =XaXzXBXBXBXBXhXaXrX+X+XO.f ] &.&.= = & @ @     FXFXFXFXFXFXFXFXFXFXFXFXFXFXFXFXFX",
"FXFXFXFXFXFXFXFXFXFXFXFXFXFXFXFXFXFX    $ s s -XaXzXBXBXBXBXhXaXaXaXaXU.F./.BXBXoXoXS.| !           FXFXFXFXFXFXFXFXFXFXFXFXFXFX",
"FXFXFXFXFXFXFXFXFXFXFXFXFXFXFXFXFXFX    $ s s -XaXzXBXBXBXBXhXaXaXaXaXU.F./.BXBXoXoXS.| !           FXFXFXFXFXFXFXFXFXFXFXFXFXFX",
"FXFXFXFXFXFXFXFXFXFXFXFXFXFXFXFX        8 =.=.2XaXfXgXgXgXgXdXaXaXaXaXOX).$XBXBXkXkX9X;X[.*.*.h         FXFXFXFXFXFXFXFXFXFXFXFX",
"FXFXFXFXFXFXFXFXFXFXFXFXFXFXFXFX        0 F.F.2XaXaXaXaXaXaXaXaXaXaXaX@XoX,XBXBXBXBXBXBXjXF.F.k         FXFXFXFXFXFXFXFXFXFXFXFX",
"FXFXFXFXFXFXFXFXFXFXFXFXFXFXFXFX    > 1 l I.I.<X4XyXaXaXaXaXaXaXiX4X4X%X@XeXBXBXBXBXBXBXjX*.*.j 1 >     FXFXFXFXFXFXFXFXFXFXFXFX",
"FXFXFXFXFXFXFXFXFXFXFXFXFXFXFXFX    I | r.oXoXoXoX>XaXaXaXaXaXaX4XoXoX5XaXhXBXBXBXBXBXBX8X    x | P     FXFXFXFXFXFXFXFXFXFXFXFX",
"FXFXFXFXFXFXFXFXFXFXFXFXFXFXFXFX    I | r.oXoXoXoX>XaXaXaXaXaXaX4XoXoX5XaXhXBXBXBXBXBXBX8X    x | P     FXFXFXFXFXFXFXFXFXFXFXFX",
"FXFXFXFXFXFXFXFXFXFXFXFXFXFX        N.!.XXbXbXpXyX>X+X+X+X+X+X+X%XyXyXxXMXNXBXBXBXBXBXBXZXAXAX6X!.M.          FXFXFXFXFXFXFXFXFX",
"FXFXFXFXFXFXFXFXFXFXFXFXFX          V.oX&XBXBXfXaX>XoXoXoXoXoXoX@XaXaXnXBXBXBXBXBXBXBXBXZXDXDXmXoXB.          FXFXFXFXFXFXFXFXFX",
"FXFXFXFXFXFXFXFXFX            X p p E.qXsXBXBXcXzXuX>X>X>X>X>X>X3XzXzXMXBXBXBXBXBXBXBXBXVXCXCXL.C N p p X     FXFXFXFXFXFXFXFXFX",
"FXFXFXFXFXFXFXFXFX            # | | ;XBXBXBXBXBXBXzXaXaXaXaXaXaXgXBXBXBXBXBXBXBXBXBXBXBXbXoXoXm   1 | | @     FXFXFXFXFXFXFXFXFX",
"FXFXFXFXFXFXFXFXFX            # | | ;XBXBXBXBXBXBXzXaXaXaXaXaXaXgXBXBXBXBXBXBXBXBXBXBXBXbXoXoXm   1 | | @     FXFXFXFXFXFXFXFXFX",
"FXFXFXFXFXFX    ; s s 5.5.T s f F.F.0XBXBXBXBXBXBXBXBXBXBXBXBXBXBXBXBXBXBXBXBXBXBXBXBXBXBXBXBXV   0 F.F.*     FXFXFXFXFXFXFXFXFX",
"FXFXFXFXFXFX    ; s s 5.5.T s f F.F.0XBXBXBXBXBXBXBXBXBXBXBXBXBXBXBXBXBXBXBXBXBXBXBXBXBXBXBXBXV   0 F.F.*     FXFXFXFXFXFXFXFXFX",
"FXFXFXFX        Z 7X7Xh.h.>.H ~ F.F.0XBXBXBXBXBXBXBXBXBXBXBXBXBXBXBXBXBXBXBXBXBXBXBX*X'.'.'.'.b   0 F.F.*     FXFXFXFXFXFXFXFXFX",
"FXFXFXFX        A DXDXJ.J.7.^ ) F.F.0XBXBXBXBXBXBXBXBXBXBXBXBXBXBXBXBXBXBXBXBXBXBXBX].J.J.J.J.c   0 F.F.*     FXFXFXFXFXFXFXFXFX",
"FXFXFXFX    - < m.SXSXJ.J.9.( ..F.F.0XBXBXBXBXBXBXBXBXBXBXBXBXBXBXBXBXBXBXBXBXBXBXBX#XK.K.K.K.#.n B F.F.*     FXFXFXFXFXFXFXFXFX",
"FXFXFXFX    F ^ 4.J.J.J.J.a.5.6.F.F.0XBXBXBXBXBXBXBXBXBXBXBXBXBXBXBXBXBXBXBXBXBXBXBXBXBXBXBXBXBXBX0XF.F.*             FXFXFXFXFX",
"FXFXFXFX    F ^ 4.J.J.J.J.a.5.6.F.F.0XBXBXBXBXBXBXBXBXBXBXBXBXBXBXBXBXBXBXBXBXBXBXBXBXBXBXBXBXBXBX0XF.F.*             FXFXFXFXFX",
"FXFXFXFX    Y :.e.J.J.J.J.c.l.k.$.$..XgXlXBXBXBXBXBXBXBXBXBXBXBXBXBXBXBXBXBXBXBXBXBXBXBXBXBXBXcXgX.X$.$.@   g -.-./ / y     FXFX",
"FXFXFXFX    / 5.i.J.J.J.J.J.J.b.| |  XaXgXBXBXBXBXBXBXBXBXBXBXBXBXBXBXBXBXBXBXBXBXBXBXBXBXBXBXhXaX|.| | @   v J.J.5.5.t     FXFX",
"FXFXFXFX    / 5.i.J.J.J.J.J.J.b.| | ^.1XtXvXvXvXvXvXvXvXBXBXBXBXBXBXBXBXBXBXBXBXvXvXvXvXvXvXvXuX1X~.U U z v X.J.J.5.5.t     FXFX",
"FXFXFXFX    / 5.i.J.J.J.J.J.J.b.| | Y.oX@XaXaXaXaXaXaXaXBXBXBXBXBXBXBXBXBXBXBXBXaXaXaXaXaXaXaX%XoXP.s s j.J.J.J.J.5.5.t     FXFX",
"FXFXFXFX    / 5.i.J.J.J.J.J.J.b.| | Y.oX@XaXaXaXaXaXaXaXBXBXBXBXBXBXBXBXBXBXBXBXaXaXaXaXaXaXaX%XoXP.s s j.J.J.J.J.5.5.t     FXFX",
"FXFXFXFX    / 5.i.J.J.J.J.J.J.z.^ ^ ' | r.oXoXoXoXoXoXoXaXaXaXaXaXaXaXaXaXaXaXaXoXoXoXoXoXoXoXn.| ' ^ ^ z.J.J.J.J.^ ^ w     FXFX",
"FXFXFXFX    / 5.i.J.J.J.J.J.J.z.^ ^ ' | r.oXoXoXoXoXoXoXaXaXaXaXaXaXaXaXaXaXaXaXoXoXoXoXoXoXoXn.| ' ^ ^ z.J.J.J.J.^ ^ w     FXFX",
"FXFXFXFX    / 5.i.J.J.J.J.d.7.<.r r u p M T.T.}.oXoXoXoX>X>X>X>X>X>X>X>X>X>X>X>XoXoXoXoX{.T.T.%.K W 7.7.v.J.J.J.J.^ ^ w     FXFX",
"FXFXFXFX    / 5.i.J.J.J.J.7.^ J         0 F.F.`.oXoXoXoXoXoXoXoXoXoXoXoXoXoXoXoXoXoXoXoX`.F.F.} s L J.J.J.J.J.J.J.^ ^ w     FXFX",
"FXFXFXFX    R 2.w.x.x.z.z.,.J D         5 C.C.Q.!._.oXoXoXoXoXoXoXoXoXoXoXoXoXoXoXoX_.!.Q.Z.Z.{ d E J.J.J.J.H.x.x.J J 3     FXFX",
"FXFXFXFX    F ^  .5.5.^ ^ r     FXFX          Q | S.oXoXoXoXoXoXoXoXoXoXoXoXoXoXoXoXS.| ` s s 0.J.J.J.J.J.J.g.5.5.    FXFXFXFXFX",
"FXFXFXFX    F ^  .5.5.^ ^ r     FXFX          Q | S.oXoXoXoXoXoXoXoXoXoXoXoXoXoXoXoXS.| ` s s 0.J.J.J.J.J.J.g.5.5.    FXFXFXFXFX",
"FXFXFXFXFXFX, < 2 7 7 < < : FXFXFXFXFXFXFX    1 1 9 q q r.r.A.G.G.G.G.G.G.D.r.r.q q 9 1 6 o.o.s.J.J.J.J.p.q.3.( (     FXFXFXFXFX",
"FXFXFXFXFXFX                FXFXFXFXFXFXFX              | | t.F.F.F.F.F.F.y.| |         % 5.5.g.J.J.J.J.8.5.;.^ ^     FXFXFXFXFX",
"FXFXFXFXFXFX              FXFXFXFXFXFXFXFX              P P @.*.*.*.*.*.*.+.P P         % :.:.u.f.f.f.f.1.:._ S S     FXFXFXFXFX",
"FXFXFXFXFXFXFXFXFXFXFXFXFXFXFXFXFXFXFXFXFXFXFXFXFX                                      + ^ ^ ^ ^ ^ ^ ^ ^ ^ a     FXFXFXFXFXFXFX",
"FXFXFXFXFXFXFXFXFXFXFXFXFXFXFXFXFXFXFXFXFXFXFXFXFX                                      + ^ ^ ^ ^ ^ ^ ^ ^ ^ a     FXFXFXFXFXFXFX",
"FXFXFXFXFXFXFXFXFXFXFXFXFXFXFXFXFXFXFXFXFXFXFXFXFXFXFXFXFXFXFXFXFXFXFXFXFXFXFXFXFXFXFXFXFXO O O O O O O O O o FXFXFXFXFXFXFXFXFX",
"FXFXFXFXFXFXFXFXFXFXFXFXFXFXFXFXFXFXFXFXFXFXFXFXFXFXFXFXFXFXFXFXFXFXFXFXFXFXFXFXFXFXFXFXFX                    FXFXFXFXFXFXFXFXFX",
"FXFXFXFXFXFXFXFXFXFXFXFXFXFXFXFXFXFXFXFXFXFXFXFXFXFXFXFXFXFXFXFXFXFXFXFXFXFXFXFXFXFXFXFXFX                  FXFXFXFXFXFXFXFXFXFX",
"FXFXFXFXFXFXFXFXFXFXFXFXFXFXFXFXFXFXFXFXFXFXFXFXFXFXFXFXFXFXFXFXFXFXFXFXFXFXFXFXFXFXFXFXFXFXFXFXFXFXFXFXFXFXFXFXFXFXFXFXFXFXFXFX",
"FXFXFXFXFXFXFXFXFXFXFXFXFXFXFXFXFXFXFXFXFXFXFXFXFXFXFXFXFXFXFXFXFXFXFXFXFXFXFXFXFXFXFXFXFXFXFXFXFXFXFXFXFXFXFXFXFXFXFXFXFXFXFXFX",
"FXFXFXFXFXFXFXFXFXFXFXFXFXFXFXFXFXFXFXFXFXFXFXFXFXFXFXFXFXFXFXFXFXFXFXFXFXFXFXFXFXFXFXFXFXFXFXFXFXFXFXFXFXFXFXFXFXFXFXFXFXFXFXFX",
"FXFXFXFXFXFXFXFXFXFXFXFXFXFXFXFXFXFXFXFXFXFXFXFXFXFXFXFXFXFXFXFXFXFXFXFXFXFXFXFXFXFXFXFXFXFXFXFXFXFXFXFXFXFXFXFXFXFXFXFXFXFXFXFX",
"FXFXFXFXFXFXFXFXFXFXFXFXFXFXFXFXFXFXFXFXFXFXFXFXFXFXFXFXFXFXFXFXFXFXFXFXFXFXFXFXFXFXFXFXFXFXFXFXFXFXFXFXFXFXFXFXFXFXFXFXFXFXFXFX",
"FXFXFXFXFXFXFXFXFXFXFXFXFXFXFXFXFXFXFXFXFXFXFXFXFXFXFXFXFXFXFXFXFXFXFXFXFXFXFXFXFXFXFXFXFXFXFXFXFXFXFXFXFXFXFXFXFXFXFXFXFXFXFXFX",
"FXFXFXFXFXFXFXFXFXFXFXFXFXFXFXFXFXFXFXFXFXFXFXFXFXFXFXFXFXFXFXFXFXFXFXFXFXFXFXFXFXFXFXFXFXFXFXFXFXFXFXFXFXFXFXFXFXFXFXFXFXFXFXFX",
"FXFXFXFXFXFXFXFXFXFXFXFXFXFXFXFXFXFXFXFXFXFXFXFXFXFXFXFXFXFXFXFXFXFXFXFXFXFXFXFXFXFXFXFXFXFXFXFXFXFXFXFXFXFXFXFXFXFXFXFXFXFXFXFX",
"FXFXFXFXFXFXFXFXFXFXFXFXFXFXFXFXFXFXFXFXFXFXFXFXFXFXFXFXFXFXFXFXFXFXFXFXFXFXFXFXFXFXFXFXFXFXFXFXFXFXFXFXFXFXFXFXFXFXFXFXFXFXFXFX"
};
