/* XPM */
static char *result[] = {
/* columns rows colors chars-per-pixel */
"64 64 241 2 ",
"   c black",
".  c #0B0202",
"X  c #0C0202",
"o  c #0D0202",
"O  c #0E0205",
"+  c #170407",
"@  c #1C090E",
"#  c #240606",
"$  c #250606",
"%  c #310808",
"&  c #3C0A0A",
"*  c #3D0A0A",
"=  c #3E0A0A",
"-  c #200310",
";  c #2C0513",
":  c #390A10",
">  c #37121D",
",  c #3B1723",
"<  c #3E1C29",
"1  c #4A0C0C",
"2  c #4E0D0D",
"3  c #560E0E",
"4  c #410F14",
"5  c #440C15",
"6  c #470E19",
"7  c #5A0817",
"8  c #540F1A",
"9  c #550F1A",
"0  c #44141E",
"q  c #5A101C",
"w  c #7C0B18",
"e  c #7F0A1C",
"r  c #621010",
"t  c #631010",
"y  c #77111E",
"u  c #73171D",
"i  c #78141A",
"p  c #4C1320",
"a  c #4A1926",
"s  c #541623",
"d  c #531B2B",
"f  c #651122",
"g  c #651A2B",
"h  c #791121",
"j  c #761C23",
"k  c #751C27",
"l  c #6A1F32",
"z  c #6F2439",
"x  c #7F2B3C",
"c  c #752E42",
"v  c #73344D",
"b  c #603D53",
"n  c #663D54",
"m  c #7B3852",
"M  c #7E445E",
"N  c #8C081C",
"B  c #96061F",
"V  c #8E0A29",
"C  c #87182B",
"Z  c #821E29",
"A  c #88182B",
"S  c #90112E",
"D  c #961A29",
"F  c #9C0831",
"G  c #971337",
"H  c #951C32",
"J  c #9E1C31",
"K  c #9E1C32",
"L  c #A00423",
"P  c #B50029",
"I  c #B5082D",
"U  c #A2102D",
"Y  c #A01C2E",
"T  c #AC0E30",
"R  c #BD0033",
"E  c #BA0932",
"W  c #BD0E39",
"Q  c #AB1E34",
"!  c #BD163C",
"~  c #942A3B",
"^  c #B52039",
"/  c #C2093C",
"(  c #AF1247",
")  c #B1144A",
"_  c #B8134E",
"`  c #972740",
"'  c #982C46",
"]  c #A62640",
"[  c #B32841",
"{  c #BD2A46",
"}  c #BF2A47",
"|  c #BE304E",
" . c #A73756",
".. c #A93C5C",
"X. c #BF3B5A",
"o. c #C8024A",
"O. c #D60052",
"+. c #D00E53",
"@. c #DA0C56",
"#. c #DE0C5C",
"$. c #C42F4F",
"%. c #C93456",
"&. c #C43858",
"*. c #EA0C6B",
"=. c #EC1776",
"-. c #F51278",
";. c #FA157E",
":. c #CF3C60",
">. c #CE3E62",
",. c #D43E64",
"<. c #9D475D",
"1. c #AD405A",
"2. c #B44656",
"3. c #804963",
"4. c #804C67",
"5. c #9A4667",
"6. c #80516F",
"7. c #AD4667",
"8. c #BC4767",
"9. c #B9557C",
"0. c #B6617E",
"q. c #C24065",
"w. c #CB476B",
"e. c #C04D6D",
"r. c #D9446C",
"t. c #DA466F",
"y. c #D6486F",
"u. c #C7576A",
"i. c #C64E71",
"p. c #D74A71",
"a. c #DE4973",
"s. c #CB5377",
"d. c #D15176",
"f. c #D05177",
"g. c #DB537B",
"h. c #E14E79",
"j. c #E14E7A",
"k. c #E2527E",
"l. c #E4537F",
"z. c #FF1884",
"x. c #FD2E8C",
"c. c #B75B80",
"v. c #BB5B82",
"b. c #BF6480",
"n. c #BF6E95",
"m. c #BF79A7",
"M. c #BF7AA7",
"N. c #D65782",
"B. c #DB5681",
"V. c #DA5980",
"C. c #DF5B86",
"Z. c #E75886",
"A. c #E75D8A",
"S. c #E95B89",
"D. c #EA5D8C",
"F. c #DF608A",
"G. c #CF708E",
"H. c #D86390",
"J. c #DA7998",
"K. c #E46791",
"L. c #E46592",
"P. c #EB6392",
"I. c #ED6292",
"U. c #EA6492",
"Y. c #EC6594",
"T. c #EF6495",
"R. c #EF6797",
"E. c #EC6896",
"W. c #EA6A9B",
"Q. c #ED6C9A",
"!. c #EE6D9C",
"~. c #F06B9C",
"^. c #F36C9E",
"/. c #F46C9F",
"(. c #F863AA",
"). c #E371A0",
"_. c #E771A1",
"`. c #EE74A6",
"'. c #EE75A8",
"]. c #F570A3",
"[. c #F074A3",
"{. c #F771A5",
"}. c #F376A7",
"|. c #F377A7",
" X c #F873A7",
".X c #F577A9",
"XX c #F875A9",
"oX c #F977AB",
"OX c #F479AA",
"+X c #F979AD",
"@X c #FF6EBC",
"#X c #FA7DB1",
"$X c #F97DB3",
"%X c #9F839A",
"&X c #9F9D9F",
"*X c #EC81B5",
"=X c #F780B1",
"-X c #F581B5",
";X c #FA80B5",
":X c #FB81B5",
">X c #FB83B7",
",X c #F782B8",
"<X c #FB83B9",
"1X c #FA83BA",
"2X c #FC84B9",
"3X c #FC85B9",
"4X c #F589BF",
"5X c #FB89BB",
"6X c #FD8ABE",
"7X c #DF8EC2",
"8X c #DF99C6",
"9X c #F78CC3",
"0X c #FB89C1",
"qX c #FB8EC3",
"wX c #FE8EC2",
"eX c #FF92C6",
"rX c #F592CA",
"tX c #FC90C9",
"yX c #FE91C8",
"uX c #FF94C9",
"iX c #FE94CA",
"pX c #F895CD",
"aX c #FF96CC",
"sX c #FF97CE",
"dX c #FF98CF",
"fX c #EF97D0",
"gX c #FB97D1",
"hX c #FE99D1",
"jX c #FF9AD2",
"kX c #FF9CD5",
"lX c #FF9ED8",
"zX c #FF9FDA",
"xX c #FFA0DB",
"cX c #FFA2DE",
"vX c #FBAADA",
"bX c #F7B0D6",
"nX c #FFB8E6",
"mX c #EDC4CD",
"MX c #FFD3F7",
"NX c #FFFBFF",
"BX c None",
/* pixels */
"BXBXBXBXBXBXBXBXBXBXBXBXBXBXBXBXBXBXBXBXBXBXBXBXBXBXBXBXBXBXBXBXBXBXBXBXBXBXBXBXBXBXBXBXBXBXBXBXBXBXBXBXBXBXBXBXBXBXBXBXBXBXBXBX",
"BXBXBXBXBXBXBXBXBXBXBXBXBXBXBXBXBXBXBXBXBXBXBXBXBXBXBXBXBXBXBXBXBXBXBXBXBXBXBXBXBXBXBXBXBXBXBXBXBXBXBXBXBXBXBXBXBXBXBXBXBXBXBXBX",
"BXBXBXBXBXBXBXBXBXBXBXBXBXBXBXBXBXBXBXBXBXBXBXBXBXBXBXBXBXBXBXBXBXBXBXBXBXBXBXBXBXBXBXBXBXBXBXBXBXBXBXBXBXBXBXBXBXBXBXBXBXBXBXBX",
"BXBXBXBXBXBXBXBXBXBXBXBXBXBXBXBXBXBXBXBXBXBXBXBXBXBXBXBXBXBXBXBXBXBXBXBXBXBXBXBXBXBXBXBXBXBXBXBXBXBXBXBXBXBXBXBXBXBXBXBXBXBXBXBX",
"BXBXBXBXBXBXBXBXBXBXBXBXBXBXBXBXBXBXBXBXBXBXBXBXBXBXBXBXBXBXBXBXBXBXBXBXBXBXBXBXBXBXBXBXBXBXBXBXBXBXBXBXBXBXBXBXBXBXBXBXBXBXBXBX",
"BXBXBXBXBXBXBXBXBXBXBXBXBXBXBXBXBXBXBXBXBXBXBXBXBXBXBXBXBXBXBXBXBXBXBXBXBXBXBXBXBXBXBXBXBXBXBXBXBXBXBXBXBXBXBXBXBXBXBXBXBXBXBXBX",
"BXBXBXBXBXBXBXBXBXBXBXBXBXBXBXBXBXBXBXBXBXBXBXBXBXBXBXBXBXBXBXBXBXBXBXBXBXBXBXBXBXBXBXBXBXBXBXBXBXBXBXBXBXBXBXBXBXBXBXBXBXBXBXBX",
"BXBXBXBXBXBXBXBXBXBXBXBXBXBXBXBXBXBXBXBXBXBXBXBXBXBXBXBXBXBXBXBXBXBXBXBXBXBXBXBXBXBXBXBXBXBXBXBXBXBXBXBXBXBXBXBXBXBXBXBXBXBXBXBX",
"BXBXBXBXBXBXBXBXBXBXBXBXBXBXBXBXBXBXBXBXBXBXBXBXBXBXBXBXBXBXBXBXBXBXBXBXBXBXBXBXBXBXBXBXBXBXBXBXBXBXBXBXBXBXBXBXBXBXBXBXBXBXBXBX",
"BXBXBXBXBXBXBXBXBXBXBXBXBXBXBXBXBXBXBXBXBXBXBXBXBXBXBXBXBXBXBXBXBXBXBXBXBXBXBXBXBXBXBXBXBXBXBXBXBXBXBXBXBXBXBXBXBXBXBXBXBXBXBXBX",
"BXBXBXBXBXBXBXBXBXBXBXBXBXBXBXBXBXBXBXBXBXBXBXBXBXBXBXBXBXBXBXBXBXBXBXBXBXBXBXBXBXBXBXBXBXBXBXBXBXBXBXBXBXBXBXBXBXBXBXBXBXBXBXBX",
"BXBXBXBXBXBXBXBXBXBXBXBXBXBXBXBXBXBXBXBXBXBX                          BXBX                        BXBXBXBXBXBXBXBXBXBXBXBXBXBXBX",
"BXBXBXBXBXBXBXBXBXBXBXBXBXBXBXBXBXBXBXBXBXBX                          BXBX                        BXBXBXBXBXBXBXBXBXBXBXBXBXBXBX",
"BXBXBXBXBXBXBXBXBXBXBXBXBXBXBXBXBXBXBXBX    v 9.v.n.n.n.n.c. . .        O A A 7.9.9.9.9... .` A A     BXBXBXBXBXBXBXBXBXBXBXBXBX",
"BXBXBXBXBXBXBXBXBXBXBXBXBXBXBXBXBXBXBXBX    5.{.+XeXeXeXeX}.a.a.        + ^ ^ A.{.{.{.{.h.a.%.^ ^     BXBXBXBXBXBXBXBXBXBXBXBXBX",
"BXBXBXBXBXBXBXBXBXBXBXBXBXBXBXBXBXBXBXBX    c e.s.K.K.[.|.U.a.a.d d p 5 s f.f.`.1X1X1X1XE.U.p.$.$.    BXBXBXBXBXBXBXBXBXBXBXBXBX",
"BXBXBXBXBXBXBXBXBXBXBXBXBXBXBXBXBX          * t i ^ ^ ,.a.a.a.a.a.a.%.^ | cXcXcXcXcXcXcXuXeX!.a.a.    BXBXBXBXBXBXBXBXBXBXBXBXBX",
"BXBXBXBXBXBXBXBXBXBXBXBXBXBXBXBXBX          * t i ^ ^ ,.a.a.a.a.a.a.%.^ | cXcXcXcXcXcXcXuXeX!.a.a.    BXBXBXBXBXBXBXBXBXBXBXBXBX",
"BXBXBXBXBXBXBXBXBXBXBXBXBXBXBX    9 K K q.q.N.L._.rXrXpXgXgXgXgX5X5X.XR.~.uXuXzXcXcXcXcXuXeX!.a.a.    BXBXBXBXBXBXBXBXBXBXBXBXBX",
"BXBXBXBXBXBXBXBXBXBXBXBXBXBXBX    q ^ ^ a.a.I.{.$XcXcXcXcXcXcXcXeXeX:X{.XXeXeXlXcXcXcXcXuXeX!.a.a.    BXBXBXBXBXBXBXBXBXBXBXBXBX",
"BXBXBXBXBXBXBXBXBXBXBXBXBX    8 q ' y.y.'.'.,X0XtXcXcXcXcXcXcXcXeXeX6X:X>XeXeXdXjXjXjXjX2X:XY.a.a.    BXBXBXBXBXBXBXBXBXBXBXBXBX",
"BXBXBXBXBXBXBXBXBXBXBXBXBX    J ^ y.{.{.cXcXcXcXcXcXcXcXcXcXcXcXeXeXeXeXeXeXeXeXeXeXeXeXXX{.D.a.a.    BXBXBXBXBXBXBXBXBXBXBXBXBX",
"BXBXBXBXBXBXBXBXBXBXBXBXBXX X ] { w.H.H.cXcXcXcXfX7X7XcXcXcXcXcXeXeXeXeXeXeXeXeXeXeXeXeX].^.S.a.a.    BXBXBXBXBXBXBXBXBXBXBXBXBX",
"BXBXBXBXBXBXBXBXBXBX    $ t t L.{.m     cXcXcXcXm.    M.cXcXcXcXeXeXeXeXeXeXeXeXeXeXeXeXk.a.a.a.a.    BXBXBXBXBXBXBXBXBXBXBXBXBX",
"BXBXBXBXBXBXBXBXBXBX    $ t t L.{.m     cXcXcXcXm.    M.cXcXcXcXeXeXeXeXeXeXeXeXeXeXeXeXk.a.a.a.a.    BXBXBXBXBXBXBXBXBXBXBXBXBX",
"BXBXBXBXBXBXBXBXBXBX    : D D &.>.0.%X%XcXcX).f.G.&X&X8XcXcXcXcXkXkXsXeXeXeXeX:X#X#X#X#XOX|.g.$.$.    BXBXBXBXBXBXBXBXBXBXBXBXBX",
"BXBXBXBXBXBXBXBXBXBX    5 ^ ^ ^ ^ J.MXMXcXcXd.^ u.NXNXnXcXcXcXcXcXcXjXeXeXeXeX+X{.{.{.{.wXeXV.^ ^     BXBXBXBXBXBXBXBXBXBXBXBXBX",
"BXBXBXBXBXBXBXBXBXBX    6 } } H C b.bXbXcXcXi.Y 2.mXmXvXcXcXcXcXcXcXkXaXaXaXaX<X$X$X$X$XiXaXF.} }     BXBXBXBXBXBXBXBXBXBXBXBXBX",
"BXBXBXBXBXBXBXBXBXBX    d a.a.@   z a.a.cXcX<.t i ^ ^ *XcXcXcXcXcXcXcXcXcXcXcXcXcXcXcXcXcXcX'.a.a.    BXBXBXBXBXBXBXBXBXBXBXBXBX",
"BXBXBXBXBXBXBXBXBXBX    d a.a.@   z a.a.cXcX<.t i ^ ^ *XcXcXcXcXcXcXcXcXcXcXcXcXcXcXcXcXcXcX'.a.a.    BXBXBXBXBXBXBXBXBXBXBXBXBX",
"BXBXBXBXBXBXBXBXBXBX    d a.a.@   M 5X5XcXcXn o 0 r.r.4XcXcXcXcXcXcXcXcXcXcXcXcXcXcXcXcXcXcX'.a.a.    BXBXBXBXBXBXBXBXBXBXBXBXBX",
"BXBXBXBXBXBXBXBXBXBX    d a.a.@   3.eXeXcXcXb   > a.a.9XcXcXcXcXcXcXcXcXcXcXcXcXcXcXcXcXcXcX'.a.a.    BXBXBXBXBXBXBXBXBXBXBXBXBX",
"BXBXBXBXBXBXBXBXBXBX    d a.a.@   4.dXdXcXcXb   , Z.Z.(.@X@X@X@XcXcXcXcXcXcXcXcXcXcXcXcXcXcX'.a.a.    BXBXBXBXBXBXBXBXBXBXBXBXBX",
"BXBXBXBXBXBXBXBXBXBX    d a.a.@   6.cXcXcXcXb   < {.{.x.z.z.z.z.cXcXcXcXcXcXcXcXcXcXcXcXcXcX'.a.a.    BXBXBXBXBXBXBXBXBXBXBXBXBX",
"BXBXBXBXBXBXBXBXBXBX    d a.a.@   6.cXcXcXcXb   < {.{.x.z.z.z.z.cXcXcXcXcXcXcXcXcXcXcXcXcXcX'.a.a.    BXBXBXBXBXBXBXBXBXBXBXBXBX",
"BXBXBXBXBXBXBXBXBXBX    d a.a.gXcXcXcXcXcXcXcXcXcXcXcXcXcXcXcXcXcXcXcXcXcXcXcXcXcXcXcXcXuXeX!.a.a.    BXBXBXBXBXBXBXBXBXBXBXBXBX",
"BXBXBXBXBXBXBXBXBXBX    d a.a.gXcXcXcXcXcXcXcXcXcXcXcXcXcXcXcXcXcXcXcXcXcXcXcXcXcXcXcXcXuXeX!.a.a.    BXBXBXBXBXBXBXBXBXBXBXBXBX",
"BXBXBXBXBXBXBXBXBXBX    d a.a.qXdX-XW.W.dXdXlXcXcXcXcXcXcXcXcXcXcXcXcXcXcXcXcXjXdXdXdXdX;X#XP.a.a.    BXBXBXBXBXBXBXBXBXBXBXBXBX",
"BXBXBXBXBXBXBXBXBXBX    d a.a.5XeX!.a.a.eXeXkXcXcXcXcXcXcXcXcXcXcXcXcXcXcXcXcXaXeXeXeXeXXX{.D.a.a.    BXBXBXBXBXBXBXBXBXBXBXBXBX",
"BXBXBXBXBXBXBXBXBXBX    a q.q.=X5XQ.j.j.wXwXhXxXxXxXxXxXxXxXxXxXxXxXxXxXxXxXxXyXwXwXwXwX].^.B.q.q.    BXBXBXBXBXBXBXBXBXBXBXBXBX",
"BXBXBXBXBXBXBXBXBXBXBXBXBX    q.a.D.{.{.{.{.3XeXeXeXeXeXeXeXeXeXeXeXeXeXeXeXeX+X{.{.{.{.h.a.z     BXBXBXBXBXBXBXBXBXBXBXBXBXBXBX",
"BXBXBXBXBXBXBXBXBXBXBXBXBX    q.a.D.{.{.{.{.3XeXeXeXeXeXeXeXeXeXeXeXeXeXeXeXeX+X{.{.{.{.h.a.z     BXBXBXBXBXBXBXBXBXBXBXBXBXBXBX",
"BXBXBXBXBXBXBXBXBXBXBXBXBX    k Z 8.{.{.{.{.oX+X+X+X+X+X+X+X+X+X+X+X+X+X+X+X+X X{.{.{.{.~ Z 4     BXBXBXBXBXBXBXBXBXBXBXBXBXBXBX",
"BXBXBXBXBXBXBXBXBXBXBXBXBX    3 t 1.{.{.{.{.{.{.{.{.{.{.{.{.{.{.{.{.{.{.{.{.{.{.{.{.{.{.j t %     BXBXBXBXBXBXBXBXBXBXBXBXBXBXBX",
"BXBXBXBXBXBXBXBXBXBXBXBXBX    & = x e.e.I.I./.{.{.{.{.{.{.{.{.{.{.{.{.{.{.{.{.T.I.C.e.e.S V 7 # # BXBXBXBXBXBXBXBXBXBXBXBXBXBXBX",
"BXBXBXBXBXBXBXBXBXBXBXBXBXBXBX    % t t a.a.I.{.{.{.{.{.{.{.{.{.{.{.{.{.{.{.{.l.a.X.t t o.O.F t t BXBXBXBXBXBXBXBXBXBXBXBXBXBXBX",
"BXBXBXBXBXBXBXBXBXBXBXBXBXBXBX    % t t a.a.I.{.{.{.{.{.{.{.{.{.{.{.{.{.{.{.{.l.a.X.t t o.O.F t t BXBXBXBXBXBXBXBXBXBXBXBXBXBXBX",
"BXBXBXBXBXBXBXBXBXBXBXBXBXBXBXBXBX. o o u u U W ! { { t.h.h.h.h.h.h.:.{ [ j j T E / o.o.-.;.( t t BXBXBXBXBXBXBXBXBXBXBXBXBXBXBX",
"BXBXBXBXBXBXBXBXBXBXBXBXBXBXBXBXBX      t t B P I ^ ^ ,.a.a.a.a.a.a.%.^ Q t t L P R O.O.;.z.) t t BXBXBXBXBXBXBXBXBXBXBXBXBXBXBX",
"BXBXBXBXBXBXBXBXBXBXBXBXBXBXBXBXBXBX    t t w N e q q l z z z z z z g q f ) ) +.@.#.*.*._ ) G r r BXBXBXBXBXBXBXBXBXBXBXBXBXBXBX",
"BXBXBXBXBXBXBXBXBXBXBXBXBXBXBXBXBXBXBXBXt t t t 1                       - z.z.z.z.z.z.z.y t r BXBXBXBXBXBXBXBXBXBXBXBXBXBXBXBXBX",
"BXBXBXBXBXBXBXBXBXBXBXBXBXBXBXBXBXBXBXBXr r r r 2     X X X X X X X X X ; =.=.=.=.=.=.=.h r BXBXBXBXBXBXBXBXBXBXBXBXBXBXBXBXBXBX",
"BXBXBXBXBXBXBXBXBXBXBXBXBXBXBXBXBXBXBXBXBXBXBXBXBXBXBXt t t t t t t t t t t t t t t t t BXBXBXBXBXBXBXBXBXBXBXBXBXBXBXBXBXBXBXBX",
"BXBXBXBXBXBXBXBXBXBXBXBXBXBXBXBXBXBXBXBXBXBXBXBXBXBXBXt t t t t t t t t t t t t t t t t BXBXBXBXBXBXBXBXBXBXBXBXBXBXBXBXBXBXBXBX",
"BXBXBXBXBXBXBXBXBXBXBXBXBXBXBXBXBXBXBXBXBXBXBXBXBXBXBXBXBXBXBXBXBXBXBXBXBXBXBXBXBXBXBXBXBXBXBXBXBXBXBXBXBXBXBXBXBXBXBXBXBXBXBXBX",
"BXBXBXBXBXBXBXBXBXBXBXBXBXBXBXBXBXBXBXBXBXBXBXBXBXBXBXBXBXBXBXBXBXBXBXBXBXBXBXBXBXBXBXBXBXBXBXBXBXBXBXBXBXBXBXBXBXBXBXBXBXBXBXBX",
"BXBXBXBXBXBXBXBXBXBXBXBXBXBXBXBXBXBXBXBXBXBXBXBXBXBXBXBXBXBXBXBXBXBXBXBXBXBXBXBXBXBXBXBXBXBXBXBXBXBXBXBXBXBXBXBXBXBXBXBXBXBXBXBX",
"BXBXBXBXBXBXBXBXBXBXBXBXBXBXBXBXBXBXBXBXBXBXBXBXBXBXBXBXBXBXBXBXBXBXBXBXBXBXBXBXBXBXBXBXBXBXBXBXBXBXBXBXBXBXBXBXBXBXBXBXBXBXBXBX",
"BXBXBXBXBXBXBXBXBXBXBXBXBXBXBXBXBXBXBXBXBXBXBXBXBXBXBXBXBXBXBXBXBXBXBXBXBXBXBXBXBXBXBXBXBXBXBXBXBXBXBXBXBXBXBXBXBXBXBXBXBXBXBXBX",
"BXBXBXBXBXBXBXBXBXBXBXBXBXBXBXBXBXBXBXBXBXBXBXBXBXBXBXBXBXBXBXBXBXBXBXBXBXBXBXBXBXBXBXBXBXBXBXBXBXBXBXBXBXBXBXBXBXBXBXBXBXBXBXBX",
"BXBXBXBXBXBXBXBXBXBXBXBXBXBXBXBXBXBXBXBXBXBXBXBXBXBXBXBXBXBXBXBXBXBXBXBXBXBXBXBXBXBXBXBXBXBXBXBXBXBXBXBXBXBXBXBXBXBXBXBXBXBXBXBX",
"BXBXBXBXBXBXBXBXBXBXBXBXBXBXBXBXBXBXBXBXBXBXBXBXBXBXBXBXBXBXBXBXBXBXBXBXBXBXBXBXBXBXBXBXBXBXBXBXBXBXBXBXBXBXBXBXBXBXBXBXBXBXBXBX",
"BXBXBXBXBXBXBXBXBXBXBXBXBXBXBXBXBXBXBXBXBXBXBXBXBXBXBXBXBXBXBXBXBXBXBXBXBXBXBXBXBXBXBXBXBXBXBXBXBXBXBXBXBXBXBXBXBXBXBXBXBXBXBXBX",
"BXBXBXBXBXBXBXBXBXBXBXBXBXBXBXBXBXBXBXBXBXBXBXBXBXBXBXBXBXBXBXBXBXBXBXBXBXBXBXBXBXBXBXBXBXBXBXBXBXBXBXBXBXBXBXBXBXBXBXBXBXBXBXBX"
};
