/* XPM */
static char *result[] = {
/* columns rows colors chars-per-pixel */
"64 64 248 2 ",
"   c black",
".  c #0C0202",
"X  c #0B0204",
"o  c #100003",
"O  c #160005",
"+  c #160407",
"@  c #170407",
"#  c #190007",
"$  c #190404",
"%  c #1B000A",
"&  c #19070B",
"*  c #1A090D",
"=  c #1C090E",
"-  c #1F0E14",
";  c #220007",
":  c #250606",
">  c #250008",
",  c #22060A",
"<  c #2A000A",
"1  c #2D000A",
"2  c #2F000D",
"3  c #2D080E",
"4  c #3C000E",
"5  c #310808",
"6  c #350014",
"7  c #300E16",
"8  c #3D0018",
"9  c #35121C",
"0  c #37121C",
"q  c #37121D",
"w  c #3E1C29",
"e  c #44000F",
"r  c #410B0F",
"t  c #480818",
"y  c #5A0014",
"u  c #50001E",
"i  c #5A0C1A",
"p  c #44141A",
"a  c #5A101C",
"s  c #710019",
"d  c #631010",
"f  c #77111E",
"g  c #72171C",
"h  c #500729",
"j  c #531B2B",
"k  c #5B1A2B",
"l  c #610A2E",
"z  c #681D2F",
"x  c #711424",
"c  c #600931",
"v  c #600932",
"b  c #601A3C",
"n  c #402837",
"m  c #5C2A3E",
"M  c #7E2338",
"N  c #732E45",
"B  c #683146",
"V  c #603D53",
"C  c #7B3852",
"Z  c #4C4042",
"A  c #764256",
"S  c #605E60",
"D  c #87001E",
"F  c #87001F",
"G  c #82161F",
"H  c #960620",
"J  c #9E0024",
"K  c #8C1824",
"L  c #8A122D",
"P  c #87182B",
"I  c #88182B",
"U  c #961A29",
"Y  c #9A0035",
"T  c #9C0831",
"R  c #9E003B",
"E  c #9F1531",
"W  c #9E1C31",
"Q  c #9E1C32",
"!  c #9D133B",
"~  c #A00E2A",
"^  c #B50029",
"/  c #A0003D",
"(  c #A1003D",
")  c #AF0039",
"_  c #BD0033",
"`  c #BA0932",
"'  c #AA1E34",
"]  c #B51835",
"[  c #8E212F",
"{  c #882835",
"}  c #932237",
"|  c #912535",
" . c #902D3D",
".. c #B52039",
"X. c #C10038",
"o. c #C00939",
"O. c #9F0F53",
"+. c #B90441",
"@. c #9A2A44",
"#. c #9C2C48",
"$. c #BF2A48",
"%. c #AF324B",
"&. c #BE304D",
"*. c #A73756",
"=. c #BF3B5A",
"-. c #BF1263",
";. c #8F3061",
":. c #C90042",
">. c #CE0048",
",. c #C30B48",
"<. c #CA0A4E",
"1. c #D2004D",
"2. c #D3034E",
"3. c #D4044E",
"4. c #D1094B",
"5. c #D60052",
"6. c #D70956",
"7. c #DA0C56",
"8. c #DB0358",
"9. c #DF095D",
"0. c #DE0C5C",
"q. c #C41558",
"w. c #E0065E",
"e. c #E00A5E",
"r. c #C53454",
"t. c #C63454",
"y. c #CE395D",
"u. c #CE395E",
"i. c #E10760",
"p. c #E30761",
"a. c #E50965",
"s. c #EA0C6B",
"d. c #E11169",
"f. c #EC126D",
"g. c #ED126E",
"h. c #EC136F",
"j. c #EF0F71",
"k. c #EF0F72",
"l. c #EB1776",
"z. c #F51278",
"x. c #F61579",
"c. c #FA157D",
"v. c #FA157E",
"b. c #FA177E",
"n. c #F6197B",
"m. c #CE3E62",
"M. c #B04A6E",
"N. c #B55075",
"B. c #B9557B",
"V. c #B9547C",
"C. c #C24065",
"Z. c #CE4266",
"A. c #D7466D",
"S. c #D6486F",
"D. c #DA4871",
"F. c #DE4973",
"G. c #E4537F",
"H. c #FD1680",
"J. c #FF1884",
"K. c #FF3A9A",
"L. c #AB6782",
"P. c #D25980",
"I. c #D05F89",
"U. c #E45380",
"Y. c #E65B87",
"T. c #E75D8A",
"R. c #EA5D8C",
"E. c #D36B98",
"W. c #DB6F9C",
"Q. c #EC6291",
"!. c #EF6797",
"~. c #E56A96",
"^. c #EA6A9B",
"/. c #EB6D9A",
"(. c #EE6D9C",
"). c #F16798",
"_. c #F36C9E",
"`. c #F46C9F",
"'. c #FF4CA6",
"]. c #FF5DB1",
"[. c #F56FA2",
"{. c #F66FA2",
"}. c #ED75A3",
"|. c #EC76A3",
" X c #E876A8",
".X c #EF7BAB",
"XX c #F771A5",
"oX c #F472A4",
"OX c #F575A9",
"+X c #F875A9",
"@X c #F979AD",
"#X c #FF6EBC",
"$X c #F57CB1",
"%X c #FA7DB1",
"&X c #F97DB3",
"*X c #FF77C2",
"=X c #DF80AD",
"-X c #EB82AF",
";X c #ED81B4",
":X c #EC81B5",
">X c #F385B5",
",X c #F784B7",
"<X c #F980B3",
"1X c #FB81B5",
"2X c #FA83BA",
"3X c #FC85B9",
"4X c #FB87BF",
"5X c #FC87BD",
"6X c #FB89BC",
"7X c #FD89BD",
"8X c #FD8ABE",
"9X c #E690B0",
"0X c #C4A3A5",
"qX c #DF8EC2",
"wX c #F58CC2",
"eX c #F78CC3",
"rX c #FB89C1",
"tX c #FD8AC0",
"yX c #FC8BC0",
"uX c #FE8EC2",
"iX c #FD8EC4",
"pX c #FC8FC9",
"aX c #ED92CA",
"sX c #FE90C4",
"dX c #FE90C5",
"fX c #FF92C6",
"gX c #FF94C9",
"hX c #FF96CC",
"jX c #FF98CF",
"kX c #FB97D1",
"lX c #FD96D0",
"zX c #FF99D1",
"xX c #FF9AD2",
"cX c #FF9BD3",
"vX c #FF9CD5",
"bX c #FE9CD7",
"nX c #FF9ED8",
"mX c #FAA5C7",
"MX c #FFA0DB",
"NX c #FFA1DD",
"BX c #FFA2DE",
"VX c #FEA4DD",
"CX c #FBB6D2",
"ZX c #FFADE2",
"AX c #DFDCDF",
"SX c #FFC2E0",
"DX c #FFFBFF",
"FX c None",
/* pixels */
"FXFXFXFXFXFXFXFXFXFXFXFXFXFXFXFXFXFXFXFXFXFXFXFXFXFXFXFXFXFXFXFXFXFXFXFXFXFXFXFXFXFXFXFXFXFXFXFXFXFXFXFXFXFXFXFXFXFXFXFXFXFXFXFX",
"FXFXFXFXFXFXFXFXFXFXFXFXFXFXFXFXFXFXFXFXFXFXFXFXFXFXFXFXFXFXFXFXFXFXFXFXFXFXFXFXFXFXFXFXFXFXFXFXFXFXFXFXFXFXFXFXFXFXFXFXFXFXFXFX",
"FXFXFXFXFXFXFXFXFXFXFXFXFXFXFXFXFXFXFXFXFXFXFXFXFXFXFXFXFXFXFXFXFXFXFXFXFXFXFXFXFXFXFXFXFXFXFXFXFXFXFXFXFXFXFXFXFXFXFXFXFXFXFXFX",
"FXFXFXFXFXFXFXFXFXFXFXFXFXFXFXFXFXFXFXFXFXFXFXFXFXFXFXFXFXFXFXFXFXFXFXFXFXFXFXFXFXFXFXFXFXFXFXFXFXFXFXFXFXFXFXFXFXFXFXFXFXFXFXFX",
"FXFXFXFXFXFXFXFXFXFXFXFXFXFXFXFXFXFXFXFXFXFXFXFXFXFXFXFXFXFXFXFXFXFXFXFXFXFXFXFXFXFXFXFXFXFXFXFXFXFXFXFXFXFXFXFXFXFXFXFXFXFXFXFX",
"FXFXFXFXFXFXFXFXFXFXFXFXFXFXFXFXFXFXFXFXFXFXFXFXFXFXFXFXFXFXFXFXFXFXFXFXFXFXFXFXFXFXFXFXFXFXFXFXFXFXFXFXFXFXFXFXFXFXFXFXFXFXFXFX",
"FXFXFXFXFXFXFXFXFXFXFXFXFXFXFXFXFXFXFXFXFXFXFXFXFXFXFXFXFXFXFXFXFXFXFXFXFXFXFXFXFXFXFXFXFXFXFXFXFXFXFXFXFXFXFXFXFXFXFXFXFXFXFXFX",
"FXFXFXFXFXFXFXFXFXFXFXFXFXFXFXFXFXFXFXFXFXFXFXFXFXFXFXFXFXFXFXFXFXFXFXFXFXFXFXFXFXFXFXFXFXFXFXFXFXFXFXFXFXFXFXFXFXFXFXFXFXFXFXFX",
"FXFXFXFXFXFXFXFXFXFXFXFXFXFXFXFXFXFXFXFXFXFXFXFXFXFXFXFXFXFXFXFXFXFXFXFXFXFXFXFXFXFXFXFXFXFXFXFXFXFXFXFXFXFXFXFXFXFXFXFXFXFXFXFX",
"FXFXFXFXFXFXFXFXFXFXFXFXFXFXFXFXFXFXFXFXFXFXFXFXFXFXFXFXFX                        FXFXFXFXFXFXFXFXFXFXFXFXFXFXFXFXFXFXFXFXFXFXFX",
"FXFXFXFXFXFXFXFXFXFXFXFXFXFXFXFXFXFXFXFXFXFXFXFXFXFXFXFXFX                        FXFXFXFXFXFXFXFXFXFXFXFXFXFXFXFXFXFXFXFXFXFXFX",
"FXFXFXFXFXFXFXFXFXFXFXFXFXFXFXFXFXFXFXFXFX                    V.XX%XfXfXfXfX(.F.C.    FXFXFXFXFXFXFXFXFXFXFXFXFXFXFXFXFXFXFXFXFX",
"FXFXFXFXFXFXFXFXFXFXFXFXFXFXFXFXFXFXFXFXFX                    V.XX%XfXfXfXfX(.F.C.    FXFXFXFXFXFXFXFXFXFXFXFXFXFXFXFXFXFXFXFXFX",
"FXFXFXFXFXFXFXFXFXFXFXFXFXFXFXFXFX              a a r 5 p C C W.1XyXxXxXxXxX,X(.I.    FXFXFXFXFXFXFXFXFXFXFXFXFXFXFXFXFXFXFXFXFX",
"FXFXFXFXFXFXFXFXFXFXFXFXFXFXFXFXFX              ....G d { XXXX8XfXjXBXBXBXBXxXfX=X    FXFXFXFXFXFXFXFXFXFXFXFXFXFXFXFXFXFXFXFXFX",
"FXFXFXFXFXFXFXFXFXFXFXFXFXFXFXFXFX    + + * - - &.&.[ g  .+X+X8XfXjXBXBXBXBXxXfX=X. . FXFXFXFXFXFXFXFXFXFXFXFXFXFXFXFXFXFXFXFXFX",
"FXFXFXFXFXFXFXFXFXFXFXFXFXFX          W ..S.XXXXBXBX^.F.Y.fXfXfXfXjXBXBXBXBXxXfX-Xd d $     FXFXFXFXFXFXFXFXFXFXFXFXFXFXFXFXFXFX",
"FXFXFXFXFXFXFXFXFXFXFXFXFXFX          W ..S.XXXXBXBX^.F.Y.fXfXfXfXjXBXBXBXBXxXfX-Xd d $     FXFXFXFXFXFXFXFXFXFXFXFXFXFXFXFXFXFX",
"FXFXFXFXFXFXFXFXFXFXFXFX        q *.*. X:XwXlXlXBXBX$X).oXfXfXfXfXgXhXhXhXhXgXfX>X=.=.7         FXFXFXFXFXFXFXFXFXFXFXFXFXFXFXFX",
"FXFXFXFXFXFXFXFXFXFXFXFX        j F.F.kXBXBXBXBXBXBX2XXX@XfXfXfXfXfXfXfXfXfXfXfX6XF.F.0         FXFXFXFXFXFXFXFXFXFXFXFXFXFXFXFX",
"FXFXFXFXFXFXFXFXFXFXFXFX    , 3 z *.*.aXBXBXBXBXBXBX4X@X%X7X7XsXfXfXfXfXfXfXuX7X<XU.U.k 3 ,     FXFXFXFXFXFXFXFXFXFXFXFXFXFXFXFX",
"FXFXFXFXFXFXFXFXFXFXFXFX    I ..x     qXBXBXBXBXBXBXjXfX7XXXXX8XfXfXfXfXfXfX1XXXXXXXXXr...P     FXFXFXFXFXFXFXFXFXFXFXFXFXFXFXFX",
"FXFXFXFXFXFXFXFXFXFXFXFX    I ..x     qXBXBXBXBXBXBXjXfX7XXXXX8XfXfXfXfXfXfX1XXXXXXXXXr...P     FXFXFXFXFXFXFXFXFXFXFXFXFXFXFXFX",
"FXFXFXFXFXFXFXFXFX          N.!.9XAXAXZXBXBXBXBXBXBXNXMXvXuXuX@X+X+X+X+X+X+X1XuXdXbXbXOX!.M.        FXFXFXFXFXFXFXFXFXFXFXFXFXFX",
"FXFXFXFXFXFXFXFXFX          V.XXmXDXDXZXBXBXBXBXBXBXBXBXnXfXfX@XXXXXXXXXXXXX1XfXgXBXBX&XXXB.          FXFXFXFXFXFXFXFXFXFXFXFXFX",
"FXFXFXFXFXFXFXFXFX    X a a N C L.CXCXVXBXBXBXBXBXBXBXBXMXxXxX5X1X1X1X1X1X1XiXxXcXBXBXpXrXE.a a X             FXFXFXFXFXFXFXFXFX",
"FXFXFXFXFXFXFXFXFX    @ ....3   m XXXXbXBXBXBXBXBXBXBXBXBXBXBXhXfXfXfXfXfXfXxXBXBXBXBXBXBX;X....+             FXFXFXFXFXFXFXFXFX",
"FXFXFXFXFXFXFXFXFX    @ ....3   m XXXXbXBXBXBXBXBXBXBXBXBXBXBXhXfXfXfXfXfXfXxXBXBXBXBXBXBX;X....+             FXFXFXFXFXFXFXFXFX",
"FXFXFXFXFXFXFXFXFX    = F.F.0   V BXBXBXBXBXBXBXBXBXBXBXBXBXBXBXBXBXBXBXBXBXBXBXBXBXBXBXBXeXF.F.g d T 5.5.d d :     FXFXFXFXFXFX",
"FXFXFXFXFXFXFXFXFX    = F.F.0   V BXBXBXBXBXBXBXBXBXBXBXBXBXBXBXBXBXBXBXBXBXBXBXBXBXBXBXBXeXF.F.g d T 5.5.d d :     FXFXFXFXFXFX",
"FXFXFXFXFXFXFXFXFX    = F.F.0   b '.'.'.'.*XBXBXBXBXBXBXBXBXBXBXBXBXBXBXBXBXBXBXBXBXBXBXBXeXF.F.~ H ,.k.k.0X0XZ         FXFXFXFX",
"FXFXFXFXFXFXFXFXFX    = F.F.0   v J.J.J.J.].BXBXBXBXBXBXBXBXBXBXBXBXBXBXBXBXBXBXBXBXBXBXBXeXF.F.` ^ 7.J.J.DXDXS         FXFXFXFX",
"FXFXFXFXFXFXFXFXFX    = F.F.B n ;.K.K.K.K.#XBXBXBXBXBXBXBXBXBXBXBXBXBXBXBXBXBXBXBXBXBXBXBXeXF.F.o._ 0.J.J.SXSXA 1 ;     FXFXFXFX",
"FXFXFXFXFX            = F.F.eXBXBXBXBXBXBXBXBXBXBXBXBXBXBXBXBXBXBXBXBXBXBXBXBXBXBXBXBXBXBXeXF.F.6.5.s.J.J.J.J.4.^ F     FXFXFXFX",
"FXFXFXFXFX            = F.F.eXBXBXBXBXBXBXBXBXBXBXBXBXBXBXBXBXBXBXBXBXBXBXBXBXBXBXBXBXBXBXeXF.F.6.5.s.J.J.J.J.4.^ F     FXFXFXFX",
"FXFX    8 ( ( -.-.h   & $.$..XhXxXBXBXBXBXBXBXBXBXBXBXBXBXBXBXBXBXBXBXBXBXBXBXBXBXBXBXzXhX.X$.$.h.z.v.J.J.J.J.9.>.Y     FXFXFXFX",
"FXFX    u 5.5.J.J.c   @ ....|.fXjXBXBXBXBXBXBXBXBXBXBXBXBXBXBXBXBXBXBXBXBXBXBXBXBXBXBXhXfX}.....n.J.J.J.J.J.J.a.5./     FXFXFXFX",
"FXFX    u 5.5.J.J.O.v l U U ~.3XiXvXvXvXvXvXvXvXBXBXBXBXBXBXBXBXBXBXBXBXvXvXvXvXvXvXvXtX3X/.....n.J.J.J.J.J.J.a.5./     FXFXFXFX",
"FXFX    u 5.5.J.J.J.J.l.d d P.XX%XfXfXfXfXfXfXfXBXBXBXBXBXBXBXBXBXBXBXBXfXfXfXfXfXfXfX@XXXT.....n.J.J.J.J.J.J.a.5./     FXFXFXFX",
"FXFX    u 5.5.J.J.J.J.l.d d P.XX%XfXfXfXfXfXfXfXBXBXBXBXBXBXBXBXBXBXBXBXfXfXfXfXfXfXfX@XXXT.....n.J.J.J.J.J.J.a.5./     FXFXFXFX",
"FXFX    e ^ ^ J.J.J.J.x.^ ^ ] ..m.XXXXXXXXXXXXXXfXfXfXfXfXfXfXfXfXfXfXfXXXXXXXXXXXXXXXr...] ^ ^ x.J.J.J.J.J.J.a.5./     FXFXFXFX",
"FXFX    e ^ ^ J.J.J.J.x.^ ^ ] ..m.XXXXXXXXXXXXXXfXfXfXfXfXfXfXfXfXfXfXfXXXXXXXXXXXXXXXr...] ^ ^ x.J.J.J.J.J.J.a.5./     FXFXFXFX",
"FXFX    e ^ ^ J.J.J.J.b.7.7.E K %.R.R.{.XXXXXXXX1X1X1X1X1X1X1X1X1X1X1X1XXXXXXXXX[.R.R.M a i y y <.7.f.J.J.J.J.a.5./     FXFXFXFX",
"FXFX    e ^ ^ J.J.J.J.J.J.J.L d | F.F.`.XXXXXXXXXXXXXXXXXXXXXXXXXXXXXXXXXXXXXXXX`.F.F.0         J ^ 7.J.J.J.J.a.5./     FXFXFXFX",
"FXFX    4 J J c.c.H.J.J.J.J.! f } Z.Z.Q.!._.XXXXXXXXXXXXXXXXXXXXXXXXXXXXXXXX_.!.Q.C.C.0         D J <.x.x.c.c.i.1.R     FXFXFXFX",
"FXFXFXFXFX    5.5.j.J.J.J.J.J.J.q.d d ' ..S.XXXXXXXXXXXXXXXXXXXXXXXXXXXXXXXXS...Q           FXFX    y ^ ^ 5.5.X.^ F     FXFXFXFX",
"FXFXFXFXFX    5.5.j.J.J.J.J.J.J.q.d d ' ..S.XXXXXXXXXXXXXXXXXXXXXXXXXXXXXXXXS...Q           FXFX    y ^ ^ 5.5.X.^ F     FXFXFXFX",
"FXFXFXFXFX    _ _ 3.w.p.J.J.J.J.d.+.+.t 3 9 w w t.t.A.G.G.G.G.G.G.D.t.t.w w 9 3 ,     FXFXFXFXFXFXFX> 1 1 6 6 2 1 < FXFXFXFXFXFX",
"FXFXFXFXFX    ^ ^ :.5.8.J.J.J.J.j.5.5.%         ....y.F.F.F.F.F.F.u.....              FXFXFXFXFXFXFX                FXFXFXFXFXFX",
"FXFXFXFXFX    D D ) >.2.g.g.g.g.e.>.>.#         P P #.*.*.*.*.*.*.@.P P               FXFXFXFXFXFXFXFX              FXFXFXFXFXFX",
"FXFXFXFXFXFXFX    s ^ ^ ^ ^ ^ ^ ^ ^ ^ O                                       FXFXFXFXFXFXFXFXFXFXFXFXFXFXFXFXFXFXFXFXFXFXFXFXFX",
"FXFXFXFXFXFXFX    s ^ ^ ^ ^ ^ ^ ^ ^ ^ O                                       FXFXFXFXFXFXFXFXFXFXFXFXFXFXFXFXFXFXFXFXFXFXFXFXFX",
"FXFXFXFXFXFXFXFXFXo O O O O O O O O O FXFXFXFXFXFXFXFXFXFXFXFXFXFXFXFXFXFXFXFXFXFXFXFXFXFXFXFXFXFXFXFXFXFXFXFXFXFXFXFXFXFXFXFXFX",
"FXFXFXFXFXFXFXFXFX                    FXFXFXFXFXFXFXFXFXFXFXFXFXFXFXFXFXFXFXFXFXFXFXFXFXFXFXFXFXFXFXFXFXFXFXFXFXFXFXFXFXFXFXFXFX",
"FXFXFXFXFXFXFXFXFXFX                  FXFXFXFXFXFXFXFXFXFXFXFXFXFXFXFXFXFXFXFXFXFXFXFXFXFXFXFXFXFXFXFXFXFXFXFXFXFXFXFXFXFXFXFXFX",
"FXFXFXFXFXFXFXFXFXFXFXFXFXFXFXFXFXFXFXFXFXFXFXFXFXFXFXFXFXFXFXFXFXFXFXFXFXFXFXFXFXFXFXFXFXFXFXFXFXFXFXFXFXFXFXFXFXFXFXFXFXFXFXFX",
"FXFXFXFXFXFXFXFXFXFXFXFXFXFXFXFXFXFXFXFXFXFXFXFXFXFXFXFXFXFXFXFXFXFXFXFXFXFXFXFXFXFXFXFXFXFXFXFXFXFXFXFXFXFXFXFXFXFXFXFXFXFXFXFX",
"FXFXFXFXFXFXFXFXFXFXFXFXFXFXFXFXFXFXFXFXFXFXFXFXFXFXFXFXFXFXFXFXFXFXFXFXFXFXFXFXFXFXFXFXFXFXFXFXFXFXFXFXFXFXFXFXFXFXFXFXFXFXFXFX",
"FXFXFXFXFXFXFXFXFXFXFXFXFXFXFXFXFXFXFXFXFXFXFXFXFXFXFXFXFXFXFXFXFXFXFXFXFXFXFXFXFXFXFXFXFXFXFXFXFXFXFXFXFXFXFXFXFXFXFXFXFXFXFXFX",
"FXFXFXFXFXFXFXFXFXFXFXFXFXFXFXFXFXFXFXFXFXFXFXFXFXFXFXFXFXFXFXFXFXFXFXFXFXFXFXFXFXFXFXFXFXFXFXFXFXFXFXFXFXFXFXFXFXFXFXFXFXFXFXFX",
"FXFXFXFXFXFXFXFXFXFXFXFXFXFXFXFXFXFXFXFXFXFXFXFXFXFXFXFXFXFXFXFXFXFXFXFXFXFXFXFXFXFXFXFXFXFXFXFXFXFXFXFXFXFXFXFXFXFXFXFXFXFXFXFX",
"FXFXFXFXFXFXFXFXFXFXFXFXFXFXFXFXFXFXFXFXFXFXFXFXFXFXFXFXFXFXFXFXFXFXFXFXFXFXFXFXFXFXFXFXFXFXFXFXFXFXFXFXFXFXFXFXFXFXFXFXFXFXFXFX",
"FXFXFXFXFXFXFXFXFXFXFXFXFXFXFXFXFXFXFXFXFXFXFXFXFXFXFXFXFXFXFXFXFXFXFXFXFXFXFXFXFXFXFXFXFXFXFXFXFXFXFXFXFXFXFXFXFXFXFXFXFXFXFXFX",
"FXFXFXFXFXFXFXFXFXFXFXFXFXFXFXFXFXFXFXFXFXFXFXFXFXFXFXFXFXFXFXFXFXFXFXFXFXFXFXFXFXFXFXFXFXFXFXFXFXFXFXFXFXFXFXFXFXFXFXFXFXFXFXFX"
};
