/* XPM */
static char *result[] = {
/* columns rows colors chars-per-pixel */
"64 64 173 2 ",
"   c #000000",
".  c #0D0202",
"X  c #160206",
"o  c #1C090E",
"O  c #1D0009",
"+  c #1F0E14",
"@  c #240606",
"#  c #2D080E",
"$  c #2D000A",
"%  c #31080A",
"&  c #3C0A0C",
"*  c #2D0E16",
"=  c #201219",
"-  c #36121C",
";  c #3E1C29",
":  c #4A0C0C",
">  c #45000F",
",  c #450815",
"<  c #5A0513",
"1  c #48111C",
"2  c #5A101C",
"3  c #5E1016",
"4  c #610115",
"5  c #710019",
"6  c #780C16",
"7  c #631010",
"8  c #6D1215",
"9  c #400621",
"0  c #531B2B",
"q  c #7E0726",
"w  c #671C2B",
"e  c #711424",
"r  c #771A2C",
"t  c #402837",
"y  c #5B2B3D",
"u  c #562132",
"i  c #77222A",
"p  c #6F2439",
"a  c #603D53",
"s  c #7B3952",
"d  c #7E455F",
"f  c #7E4865",
"g  c #87001E",
"h  c #8C081C",
"j  c #96061F",
"k  c #81161F",
"l  c #8E0A29",
"z  c #87182B",
"x  c #961A29",
"c  c #850033",
"v  c #9E1D33",
"b  c #AA0226",
"n  c #B50029",
"m  c #B5082D",
"M  c #BE0334",
"N  c #BE123B",
"B  c #B51936",
"V  c #882835",
"C  c #85243A",
"Z  c #912535",
"A  c #B52039",
"S  c #B31050",
"D  c #8B2D47",
"F  c #8B2D48",
"G  c #8B3346",
"H  c #9F314E",
"J  c #BA2540",
"K  c #BD2A46",
"L  c #BF2A48",
"P  c #B0344E",
"I  c #A73756",
"U  c #BE3B52",
"Y  c #A92E46",
"T  c #CA0149",
"R  c #C41B45",
"E  c #D60052",
"W  c #DB0358",
"Q  c #C51558",
"!  c #E0065E",
"~  c #C6204B",
"^  c #C32D53",
"/  c #C53454",
"(  c #CF395D",
")  c #C83859",
"_  c #D71462",
"`  c #EA0C6B",
"'  c #E40E67",
"]  c #EF0F71",
"[  c #F41176",
"{  c #F9147C",
"}  c #F51579",
"|  c #CE3E62",
" . c #D43760",
".. c #D63867",
"X. c #E63D77",
"o. c #E23C7D",
"O. c #EA2377",
"+. c #804963",
"@. c #9A4667",
"#. c #80516F",
"$. c #9B5676",
"%. c #BE4769",
"&. c #B15977",
"*. c #9D6869",
"=. c #C74162",
"-. c #CF4067",
";. c #D6486F",
":. c #D44267",
">. c #DE4973",
",. c #DE4675",
"<. c #DA547D",
"1. c #D2597F",
"2. c #E14E79",
"3. c #E2527D",
"4. c #C5627C",
"5. c #FF1884",
"6. c #FD1680",
"7. c #EF2B81",
"8. c #FF3694",
"9. c #E63C81",
"0. c #BF79A7",
"q. c #D85A82",
"w. c #EA498C",
"e. c #E25480",
"r. c #E75885",
"t. c #E75E8C",
"y. c #EA5D8C",
"u. c #E65688",
"i. c #F54E97",
"p. c #C86485",
"a. c #DA618B",
"s. c #D17283",
"d. c #EE6393",
"f. c #EA6A9A",
"g. c #E26B96",
"h. c #F36C9E",
"j. c #FF51A3",
"k. c #CF7BAF",
"l. c #DC7AA6",
"z. c #F66FA2",
"x. c #E472A2",
"c. c #EC76A3",
"v. c #F771A5",
"b. c #F876AA",
"n. c #F87AAE",
"m. c #F97DB2",
"M. c #F67DB6",
"N. c #FF7FC7",
"B. c #CF83B3",
"V. c #ED81B5",
"C. c #E28AB9",
"Z. c #F381B6",
"A. c #FB81B5",
"S. c #FC85B9",
"D. c #FC89BC",
"F. c #F287BD",
"G. c #DF8EC2",
"H. c #F78CC3",
"J. c #FE8DC2",
"K. c #FF87CC",
"L. c #EB90C4",
"P. c #FF92C6",
"I. c #FE93C9",
"U. c #FF98CF",
"Y. c #F692C9",
"T. c #FE92D3",
"R. c #FF9BD3",
"E. c #FF9ED8",
"W. c #FFA2DE",
"Q. c #FFB8E6",
"!. c #FBE5EE",
"~. c #FFFBFF",
"^. c None",
/* pixels */
"^.^.^.^.^.^.^.^.^.^.^.^.^.^.^.^.^.^.^.^.^.^.^.^.^.^.^.^.^.^.^.^.^.^.^.^.^.^.^.^.^.^.^.^.^.^.^.^.^.^.^.^.^.^.^.^.^.^.^.^.^.^.^.^.",
"^.^.^.^.^.^.^.^.^.^.^.^.^.^.^.^.^.^.^.^.^.^.^.^.^.^.^.^.^.^.^.^.^.^.^.^.^.^.^.^.^.^.^.^.^.^.^.^.^.^.^.^.^.^.^.^.^.^.^.^.^.^.^.^.",
"^.^.^.^.^.^.^.^.^.^.^.^.^.^.^.^.^.^.^.^.^.^.^.^.^.^.^.^.^.^.^.^.^.^.^.^.^.^.^.^.^.^.^.^.^.^.^.^.^.^.^.^.^.^.^.^.^.^.^.^.^.^.^.^.",
"^.^.^.^.^.^.^.^.^.^.^.^.^.^.^.^.^.^.^.^.^.^.^.^.^.^.^.^.^.^.^.^.^.^.^.^.^.^.^.^.^.^.^.^.^.^.^.^.^.^.^.^.^.^.^.^.^.^.^.^.^.^.^.^.",
"^.^.^.^.^.^.^.^.^.^.^.^.^.^.^.^.^.^.^.^.^.^.^.^.^.^.^.^.^.^.^.^.^.^.^.^.^.^.^.^.^.^.^.^.^.^.^.^.^.^.^.^.^.^.^.^.^.^.^.^.^.^.^.^.",
"^.^.^.^.^.^.^.^.^.^.^.^.^.^.^.^.^.^.^.^.^.^.^.^.^.^.^.^.^.^.^.^.^.^.^.^.^.^.^.^.^.^.^.^.^.^.^.^.^.^.^.^.^.^.^.^.^.^.^.^.^.^.^.^.",
"^.^.^.^.^.^.^.^.^.^.^.^.^.^.^.^.^.^.^.^.^.^.^.^.^.^.^.^.^.^.^.^.^.^.^.^.^.^.^.^.^.^.^.^.^.^.^.^.^.^.^.^.^.^.^.^.^.^.^.^.^.^.^.^.",
"^.^.^.^.^.^.^.^.^.^.^.^.^.^.^.^.^.^.^.^.^.^.^.^.^.^.^.^.^.^.^.^.^.^.^.^.^.^.^.^.^.^.^.^.^.^.^.^.^.^.^.^.^.^.^.^.^.^.^.^.^.^.^.^.",
"^.^.^.^.^.^.^.^.^.^.^.^.^.^.^.^.^.^.^.^.^.^.^.^.^.^.^.^.^.^.^.^.^.^.^.^.^.^.^.^.^.^.^.^.^.^.^.^.^.^.^.^.^.^.^.^.^.^.^.^.^.^.^.^.",
"^.^.^.^.^.^.^.^.^.^.^.^.^.^.^.^.^.^.^.^.^.^.^.^.^.^.^.^.^.^.^.^.^.^.^.^.^.^.^.^.^.^.^.^.^.^.^.^.^.^.^.^.^.^.^.^.^.^.^.^.^.^.^.^.",
"^.^.^.^.^.^.^.^.^.^.^.^.^.^.^.^.^.^.^.^.^.                  ^.^.^.^.^.^.^.^.^.^.                    ^.^.^.^.^.^.^.^.^.^.^.^.^.^.",
"^.^.^.^.^.^.^.^.^.^.^.^.^.^.^.^.^.^.^.^.^.                  ^.^.^.^.^.^.^.^.^.^.                    ^.^.^.^.^.^.^.^.^.^.^.^.^.^.",
"^.^.^.^.^.^.^.^.^.^.^.^.^.^.^.^.^.^.^.  % 2 2 s s f f f p p *                   p p s +.f s s w 2 1     ^.^.^.^.^.^.^.^.^.^.^.^.",
"^.^.^.^.^.^.^.^.^.^.^.^.^.^.^.^.^.^.    1 A A v.v.J.W.R.>.>.-                   >.>.c.P.D.v.v./ A e     ^.^.^.^.^.^.^.^.^.^.^.^.",
"^.^.^.^.^.^.^.^.^.^.^.^.^.^.^.^.^.^.    1 K L h.f.M.Y.H.>.>.0 o o o o X X o + + e.e.m.I.P.b.b.| K r     ^.^.^.^.^.^.^.^.^.^.^.^.",
"^.^.^.^.^.^.^.^.^.^.^.^.^.^.^.^.        y v.v.>.>.) B J >.>.>.>.>.>.>.J A ;.v.v.W.W.W.W.W.W.W.m.v.@.    ^.^.^.^.^.^.^.^.^.^.^.^.",
"^.^.^.^.^.^.^.^.^.^.^.^.^.^.^.^.        y v.v.>.>./ B J 2.>.>.>.>.>.>.J A ;.v.v.W.W.W.W.W.W.W.m.v.@.    ^.^.^.^.^.^.^.^.^.^.^.^.",
"^.^.^.^.^.^.^.^.^.^.^.^.^.^.^.^.    p D H | | d.d.f.x.x.Z.M.Z.Z.Z.Z.Z.x.l.M.I.J.W.W.W.W.W.W.W.J.S.$.    ^.^.^.^.^.^.^.^.^.^.^.^.",
"^.^.^.^.^.^.^.^.^.^.^.^.^.^.^.^.    I >.( A A v.v.H.W.W.W.W.W.W.W.W.W.W.E.W.W.W.W.W.W.W.W.W.W.I.I.$.    ^.^.^.^.^.^.^.^.^.^.^.^.",
"^.^.^.^.^.^.^.^.^.^.^.^.^.^.^.^.    I >.:.=.=.m.m.J.W.W.W.W.W.W.W.W.W.W.W.E.E.E.E.E.E.E.E.E.E.J.D.$.    ^.^.^.^.^.^.^.^.^.^.^.^.",
"^.^.^.^.^.^.^.^.^.^.^.^.^.          I >.f.W.W.W.W.W.W.W.W.W.W.W.W.W.W.W.W.R.P.P.I.P.P.P.P.P.P.n.v.@.    ^.^.^.^.^.^.^.^.^.^.^.^.",
"^.^.^.^.^.^.^.^.^.^.^.^.^.          I >.f.W.W.W.W.W.W.W.W.W.W.W.W.W.W.W.W.U.P.P.P.P.P.P.P.P.P.n.v.@.    ^.^.^.^.^.^.^.^.^.^.^.^.",
"^.^.^.^.^.^.^.^.^.^.^.^.^.    # v v g.D.p.i i W.W.W.W.L.i i C.W.W.W.W.W.W.R.P.P.b.b.D.P.P.P.P.t.3.D     ^.^.^.^.^.^.^.^.^.^.^.^.",
"^.^.^.^.^.^.^.^.^.^.^.^.^.    # A A c.I.p.7 7 W.W.W.W.L.7 7 B.W.W.W.W.W.W.R.P.P.v.v.S.P.P.P.P.r.2.D     ^.^.^.^.^.^.^.^.^.^.^.^.",
"^.^.^.^.^.^.^.^.^.^.^.^.^.    - | | q.g.4.*.*.W.W.F.x.l.*.*.C.W.W.W.W.W.W.E.R.R.m.m.A.S.S.S.S.%.P w     ^.^.^.^.^.^.^.^.^.^.^.^.",
"^.^.^.^.^.^.^.^.^.^.^.        ; v.v./ B s.~.~.W.W.a.A U ~.~.Q.W.W.W.W.W.W.W.W.W.P.P.m.v.v.v.v.V 7 &     ^.^.^.^.^.^.^.^.^.^.^.^.",
"^.^.^.^.^.^.^.^.^.^.^.        ; v.v./ A s.~.~.W.W.a.A U ~.~.Q.W.W.W.W.W.W.W.W.W.P.P.m.v.v.v.v.V 7 :     ^.^.^.^.^.^.^.^.^.^.^.^.",
"^.^.^.^.^.^.^.^.^.^.^.    e A =.W.W.G 7 k A A W.W.&.7 8 A A V.W.W.W.W.W.W.W.W.W.W.W.W.W.W.W.W.=.A e     ^.^.^.^.^.^.^.^.^.^.^.^.",
"^.^.^.^.^.^.^.^.^.^.^.    e A =.W.W.G 7 k A A W.W.&.7 8 A A V.W.W.W.W.W.W.W.W.W.W.W.W.W.W.W.W.=.A e     ^.^.^.^.^.^.^.^.^.^.^.^.",
"^.^.^.^.^.^.^.^.^.^.^.    C ( <.W.W.y @ w ( ( W.W.$.@ % ( ( F.W.W.W.W.W.W.W.W.W.W.W.W.W.W.W.W.<.( C     ^.^.^.^.^.^.^.^.^.^.^.^.",
"^.^.^.^.^.^.^.^.^.^.^.    F >.t.W.W.t   0 >.>.W.W.f   + >.>.Y.W.W.W.W.W.W.W.W.W.W.W.W.W.W.W.W.d.>.D     ^.^.^.^.^.^.^.^.^.^.^.^.",
"^.^.^.^.^.^.^.^.^.^.^.    F >.u.T.T.t   u 3.3.W.W.f   + 3.3.m.T.T.T.T.W.W.W.W.W.W.W.W.W.W.W.W.t.>.D     ^.^.^.^.^.^.^.^.^.^.^.^.",
"^.^.^.^.^.^.^.^.^.^.^.    D >.X.5.5.-   a W.W.W.W.#.  = P.P.8.6.5.5.5.T.W.W.W.W.W.W.W.W.W.W.W.t.>.D     ^.^.^.^.^.^.^.^.^.^.^.^.",
"^.^.^.^.^.^.^.^.^.^.^.    D >.X.5.5.9   a W.W.W.W.#.  = P.P.8.6.5.5.5.T.W.W.W.W.W.W.W.W.W.W.W.g.>.D     ^.^.^.^.^.^.^.^.^.^.^.^.",
"^.^.^.^.^.^.^.^.^.^.^.    r K -.N.N.k.0.G.W.W.W.W.G.0.B.E.E.K.K.N.N.N.W.W.W.W.W.W.W.W.W.W.W.W.t.>.D     ^.^.^.^.^.^.^.^.^.^.^.^.",
"^.^.^.^.^.^.^.^.^.^.^.    e A =.W.W.W.W.W.W.W.W.W.W.W.W.W.W.W.W.E.W.W.W.W.W.W.W.W.W.W.W.W.W.W.t.>.D     ^.^.^.^.^.^.^.^.^.^.^.^.",
"^.^.^.^.^.^.^.^.^.^.^.@ @ q B ^ M.Z.E.W.R.M.M.W.W.W.W.W.W.W.W.W.W.W.W.W.W.W.W.W.W.W.W.W.W.R.R.<.( Z @ @ ^.^.^.^.^.^.^.^.^.^.^.^.",
"^.^.^.^.^.^.^.^.      7 7 j n N ,.,.H.W.Z.>.>.W.W.W.W.W.W.W.W.W.W.W.W.W.W.W.W.W.W.W.W.W.E.P.P.=.A x 7 7 .     ^.^.^.^.^.^.^.^.^.",
"^.^.^.^.^.^.^.^.      7 7 j n N >.>.H.W.Z.>.>.W.W.W.W.W.W.W.W.W.W.W.W.W.W.W.W.W.W.W.W.W.E.P.P.) A x 7 7 .     ^.^.^.^.^.^.^.^.^.",
"^.^.^.^.^.^.^.^.      T T ' } i.!.!.o._ o.D.D.I.I.E.W.W.W.W.W.W.W.W.W.W.W.E.I.I.I.I.I.P.D.b.b.~ m b b b X     ^.^.^.^.^.^.^.^.^.",
"^.^.^.^.^.^.^.^.      E E ] 5.j.~.~.o.E o.J.I.I.P.R.W.W.W.W.W.W.W.E.W.W.W.R.P.P.P.P.P.P.D.b.v.R n n n n X     ^.^.^.^.^.^.^.^.^.",
"^.^.^.^.^.^.^.^.      ` ` { 5.8.J.J.7.` O.w.w.m.A.J.R.R.U.R.U.R.R.R.R.R.R.J.A.A.A.A.A.A.v.;.;.N n n n n X     ^.^.^.^.^.^.^.^.^.",
"^.^.^.^.^.^.^.^.      5.5.5.5.5.6.5.5.5.[ E E v.v.A.P.P.P.P.P.P.P.I.I.P.P.A.v.v.v.v.v.v.t.A A m n n n n X     ^.^.^.^.^.^.^.^.^.",
"^.^.^.^.^.^.^.^.      { { 6.5.5.5.5.5.5.[ W E z.h.m.J.J.P.D.P.J.J.J.J.J.J.m.v.v.v.v.z.h.r.B B m n n n n X     ^.^.^.^.^.^.^.^.^.",
"^.^.^.^.^.^.^.^.      E E ] 5.5.5.5.5.5.5.5.5.>.>.y.v.v.v.v.v.v.v.v.v.v.v.v.v.v.v.v.r.>. .n n n n n n n X     ^.^.^.^.^.^.^.^.^.",
"^.^.^.^.^.^.^.^.      E E ] 5.5.5.5.5.5.5.5.5.>.>.y.v.v.v.v.v.v.v.v.v.v.v.v.v.z.v.v.r.>. .n n n n n n n X     ^.^.^.^.^.^.^.^.^.",
"^.^.^.^.^.^.^.^.      l l _ 5.5.5.5.5.5.5.5.5.R R ,.v.v.v.v.v.v.v.v.v.v.v.d.r.r.| -.Y Z v n n n n n n n X     ^.^.^.^.^.^.^.^.^.",
"^.^.^.^.^.^.^.^.      7 7 Q 5.5.5.5.5.5.5.5.6.n n  .v.v.v.v.v.b.v.v.v.v.v.y.2.>.B A k 7 6 n n n n n n n X     ^.^.^.^.^.^.^.^.^.",
"^.^.^.^.^.^.^.^.^.    : : S } { 5.5.5.5.5.5.5.n n ^ 1.1.t.y.t.t.t.y.y.q.1.%.I I z z 3 : < g g g g g g g X   ^.^.^.^.^.^.^.^.^.^.",
"^.^.^.^.^.^.^.^.^.^.^.    c E ! 5.5.5.5.5.5.5.n n h 7 8 A A A A A A A 8 7 %                             ^.^.^.^.^.^.^.^.^.^.^.^.",
"^.^.^.^.^.^.^.^.^.^.^.    c E ! 5.5.5.5.5.5.5.n n h 7 8 A A A A A A A 8 7 %                             ^.^.^.^.^.^.^.^.^.^.^.^.",
"^.^.^.^.^.^.^.^.^.^.^.^.^.X O > M M E E W W W n n 4 . . X X X X X X X . .       ^.^.^.^.^.^.^.^.^.^.^.^.^.^.^.^.^.^.^.^.^.^.^.^.",
"^.^.^.^.^.^.^.^.^.^.^.^.^.    $ n n T E E E E m n <                             ^.^.^.^.^.^.^.^.^.^.^.^.^.^.^.^.^.^.^.^.^.^.^.^.",
"^.^.^.^.^.^.^.^.^.^.^.^.^.^.  O 5 5 c c c c c 5 5 >                             ^.^.^.^.^.^.^.^.^.^.^.^.^.^.^.^.^.^.^.^.^.^.^.^.",
"^.^.^.^.^.^.^.^.^.^.^.^.^.^.^.^.                    ^.^.^.^.^.^.^.^.^.^.^.^.^.^.^.^.^.^.^.^.^.^.^.^.^.^.^.^.^.^.^.^.^.^.^.^.^.^.",
"^.^.^.^.^.^.^.^.^.^.^.^.^.^.^.^.                    ^.^.^.^.^.^.^.^.^.^.^.^.^.^.^.^.^.^.^.^.^.^.^.^.^.^.^.^.^.^.^.^.^.^.^.^.^.^.",
"^.^.^.^.^.^.^.^.^.^.^.^.^.^.^.^.^.^.^.^.^.^.^.^.^.^.^.^.^.^.^.^.^.^.^.^.^.^.^.^.^.^.^.^.^.^.^.^.^.^.^.^.^.^.^.^.^.^.^.^.^.^.^.^.",
"^.^.^.^.^.^.^.^.^.^.^.^.^.^.^.^.^.^.^.^.^.^.^.^.^.^.^.^.^.^.^.^.^.^.^.^.^.^.^.^.^.^.^.^.^.^.^.^.^.^.^.^.^.^.^.^.^.^.^.^.^.^.^.^.",
"^.^.^.^.^.^.^.^.^.^.^.^.^.^.^.^.^.^.^.^.^.^.^.^.^.^.^.^.^.^.^.^.^.^.^.^.^.^.^.^.^.^.^.^.^.^.^.^.^.^.^.^.^.^.^.^.^.^.^.^.^.^.^.^.",
"^.^.^.^.^.^.^.^.^.^.^.^.^.^.^.^.^.^.^.^.^.^.^.^.^.^.^.^.^.^.^.^.^.^.^.^.^.^.^.^.^.^.^.^.^.^.^.^.^.^.^.^.^.^.^.^.^.^.^.^.^.^.^.^.",
"^.^.^.^.^.^.^.^.^.^.^.^.^.^.^.^.^.^.^.^.^.^.^.^.^.^.^.^.^.^.^.^.^.^.^.^.^.^.^.^.^.^.^.^.^.^.^.^.^.^.^.^.^.^.^.^.^.^.^.^.^.^.^.^.",
"^.^.^.^.^.^.^.^.^.^.^.^.^.^.^.^.^.^.^.^.^.^.^.^.^.^.^.^.^.^.^.^.^.^.^.^.^.^.^.^.^.^.^.^.^.^.^.^.^.^.^.^.^.^.^.^.^.^.^.^.^.^.^.^.",
"^.^.^.^.^.^.^.^.^.^.^.^.^.^.^.^.^.^.^.^.^.^.^.^.^.^.^.^.^.^.^.^.^.^.^.^.^.^.^.^.^.^.^.^.^.^.^.^.^.^.^.^.^.^.^.^.^.^.^.^.^.^.^.^.",
"^.^.^.^.^.^.^.^.^.^.^.^.^.^.^.^.^.^.^.^.^.^.^.^.^.^.^.^.^.^.^.^.^.^.^.^.^.^.^.^.^.^.^.^.^.^.^.^.^.^.^.^.^.^.^.^.^.^.^.^.^.^.^.^."
};
