/* XPM */
static char *result[] = {
/* columns rows colors chars-per-pixel */
"64 64 227 2 ",
"   c black",
".  c #0B0202",
"X  c #0C0202",
"o  c #130303",
"O  c #160407",
"+  c #170407",
"@  c #180404",
"#  c #1B0505",
"$  c #13060A",
"%  c #1A090D",
"&  c #1C090E",
"*  c #1F0310",
"=  c #1D0B11",
"-  c #1D0E15",
";  c #1F0E14",
":  c #1F141C",
">  c #250606",
",  c #3E0A0A",
"<  c #280B10",
"1  c #201219",
"2  c #20131A",
"3  c #20141C",
"4  c #37121C",
"5  c #37121D",
"6  c #3E202C",
"7  c #4B0A0F",
"8  c #4A0C0C",
"9  c #560E0E",
"0  c #50001E",
"q  c #5A101C",
"w  c #6A0F14",
"e  c #6C0F15",
"r  c #710E18",
"t  c #7E0C1F",
"y  c #621010",
"u  c #631010",
"i  c #6D1215",
"p  c #77141A",
"a  c #74161D",
"s  c #78141A",
"d  c #491827",
"f  c #5F1F31",
"g  c #671C2F",
"h  c #711424",
"j  c #402431",
"k  c #402837",
"l  c #50283E",
"z  c #6A2028",
"x  c #772229",
"c  c #6F2439",
"v  c #782131",
"b  c #7F2C44",
"n  c #603D53",
"m  c #6F445C",
"M  c #7C4662",
"N  c #87001F",
"B  c #81161F",
"V  c #800C20",
"C  c #8E0A29",
"Z  c #950A28",
"A  c #881927",
"S  c #8C1824",
"D  c #821E29",
"F  c #961A29",
"G  c #9C0831",
"H  c #971733",
"J  c #B50029",
"K  c #B5082D",
"L  c #AB0033",
"P  c #AA0639",
"I  c #BA0737",
"U  c #882835",
"Y  c #8B2D3E",
"T  c #962733",
"R  c #902534",
"E  c #912535",
"W  c #902635",
"Q  c #B52039",
"!  c #C10038",
"~  c #B90441",
"^  c #B90442",
"/  c #AB1155",
"(  c #862D45",
")  c #8B2D47",
"_  c #8B2E47",
"`  c #8E334E",
"'  c #9A3447",
"]  c #A02C41",
"[  c #A62B4B",
"{  c #BA2540",
"}  c #BD2A46",
"|  c #BF2A47",
" . c #BE2E4A",
".. c #B0344E",
"X. c #A73756",
"o. c #AA3C54",
"O. c #B13651",
"+. c #BF1263",
"@. c #CA0043",
"#. c #D60052",
"$. c #C11455",
"%. c #C41558",
"&. c #CF395D",
"*. c #DB1265",
"=. c #EF0F71",
"-. c #EC1776",
";. c #D43E64",
":. c #DC376A",
">. c #E63D77",
",. c #97465C",
"<. c #9D475D",
"1. c #A94451",
"2. c #AD405A",
"3. c #B8415F",
"4. c #9A4667",
"5. c #80516E",
"6. c #80516F",
"7. c #A64B6E",
"8. c #B14B68",
"9. c #B1516B",
"0. c #C74162",
"q. c #C24065",
"w. c #C14666",
"e. c #CF486D",
"r. c #D5456A",
"t. c #D6486F",
"y. c #C7576A",
"u. c #DE4973",
"i. c #CF5479",
"p. c #D15176",
"a. c #D05177",
"s. c #DE537D",
"d. c #D2597F",
"f. c #E6447C",
"g. c #E6467D",
"h. c #E14E79",
"j. c #E2527E",
"k. c #E2537F",
"l. c #FF1884",
"z. c #FF3694",
"x. c #FF3794",
"c. c #FF3A9A",
"v. c #9F658A",
"b. c #D95780",
"n. c #D25980",
"m. c #D65C84",
"M. c #DC5A85",
"N. c #E45380",
"B. c #E25481",
"V. c #E75885",
"C. c #E65B87",
"Z. c #E15D87",
"A. c #E65B88",
"S. c #E75D8A",
"D. c #E65E8C",
"F. c #E65F8D",
"G. c #EA5D8C",
"H. c #E95F8E",
"J. c #D07283",
"K. c #C46C91",
"L. c #E46592",
"P. c #EA6492",
"I. c #ED6C9B",
"U. c #EE6D9C",
"Y. c #F06798",
"T. c #F46C9F",
"R. c #FD4CA0",
"E. c #FF51A6",
"W. c #DF74A1",
"Q. c #D87EAA",
"!. c #D87EAB",
"~. c #F06FA0",
"^. c #F36FA1",
"/. c #F56FA2",
"(. c #E371A0",
"). c #EF73A2",
"_. c #ED7CAF",
"`. c #F771A5",
"'. c #F074A4",
"]. c #F875A9",
"[. c #F877AC",
"{. c #F778AB",
"}. c #F979AD",
"|. c #F07EB1",
" X c #F97DB0",
".X c #FA7DB1",
"XX c #FA7FB4",
"oX c #DA8D9C",
"OX c #EC81B5",
"+X c #F780B1",
"@X c #F280B6",
"#X c #F381B6",
"$X c #FB81B5",
"%X c #F484B9",
"&X c #FC85B9",
"*X c #FC86BA",
"=X c #FC86BB",
"-X c #FD87BB",
";X c #FB89BB",
":X c #FD89BD",
">X c #EB8FC4",
",X c #F78CC3",
"<X c #FB89C1",
"1X c #FD8CC0",
"2X c #FE8EC2",
"3X c #FC8FC8",
"4X c #FE90C5",
"5X c #FF92C6",
"6X c #FC90C9",
"7X c #FF94C9",
"8X c #FD94CD",
"9X c #FF96CC",
"0X c #FF97CE",
"qX c #F69DCE",
"wX c #FB97D1",
"eX c #F599D1",
"rX c #FF9AD2",
"tX c #FF9CD5",
"yX c #FE9CD7",
"uX c #FF9ED8",
"iX c #FE9FDA",
"pX c #FFA0DB",
"aX c #FFA1DD",
"sX c #FFA2DE",
"dX c #FFB8E6",
"fX c #FFFBFF",
"gX c None",
/* pixels */
"gXgXgXgXgXgXgXgXgXgXgXgXgXgXgXgXgXgXgXgXgXgXgXgXgXgXgXgXgXgXgXgXgXgXgXgXgXgXgXgXgXgXgXgXgXgXgXgXgXgXgXgXgXgXgXgXgXgXgXgXgXgXgXgX",
"gXgXgXgXgXgXgXgXgXgXgXgXgXgXgXgXgXgXgXgXgXgXgXgXgXgXgXgXgXgXgXgXgXgXgXgXgXgXgXgXgXgXgXgXgXgXgXgXgXgXgXgXgXgXgXgXgXgXgXgXgXgXgXgX",
"gXgXgXgXgXgXgXgXgXgXgXgXgXgXgXgXgXgXgXgXgXgXgXgXgXgXgXgXgXgXgXgXgXgXgXgXgXgXgXgXgXgXgXgXgXgXgXgXgXgXgXgXgXgXgXgXgXgXgXgXgXgXgXgX",
"gXgXgXgXgXgXgXgXgXgXgXgXgXgXgXgXgXgXgXgXgXgXgXgXgXgXgXgXgXgXgXgXgXgXgXgXgXgXgXgXgXgXgXgXgXgXgXgXgXgXgXgXgXgXgXgXgXgXgXgXgXgXgXgX",
"gXgXgXgXgXgXgXgXgXgXgXgXgXgXgXgXgXgXgXgXgXgXgXgXgXgXgXgXgXgXgXgXgXgXgXgXgXgXgXgXgXgXgXgXgXgXgXgXgXgXgXgXgXgXgXgXgXgXgXgXgXgXgXgX",
"gXgXgXgXgXgXgXgXgXgXgXgXgXgXgXgXgXgXgXgXgXgXgXgXgXgXgXgXgXgXgXgXgXgXgXgXgXgXgXgXgXgXgXgXgXgXgXgXgXgXgXgXgXgXgXgXgXgXgXgXgXgXgXgX",
"gXgXgXgXgXgXgXgXgXgXgXgXgXgXgXgXgXgXgXgXgXgXgXgXgXgXgXgXgXgXgXgXgXgXgXgXgXgXgXgXgXgXgXgXgXgXgXgXgXgXgXgXgXgXgXgXgXgXgXgXgXgXgXgX",
"gXgXgXgXgXgXgXgXgXgXgXgXgXgXgXgXgXgXgXgXgXgXgXgXgXgXgXgXgXgXgXgXgXgXgXgXgXgXgXgXgXgXgXgXgXgXgXgXgXgXgXgXgXgXgXgXgXgXgXgXgXgXgXgX",
"gXgXgXgXgXgXgXgXgXgXgXgXgXgXgXgXgXgXgXgXgXgXgXgXgXgXgXgXgXgXgXgXgXgXgXgXgXgXgXgXgXgXgXgXgXgXgXgXgXgXgXgXgXgXgXgXgXgXgXgXgXgXgXgX",
"gXgXgXgXgXgXgXgXgXgXgXgXgXgXgXgXgXgXgXgXgXgX                  gXgXgXgXgXgXgXgX                        gXgXgXgXgXgXgXgXgXgXgXgXgX",
"gXgXgXgXgXgXgXgXgXgXgXgXgXgXgXgXgXgXgXgXgXgX                    gXgXgXgXgXgXgX                        gXgXgXgXgXgXgXgXgXgXgXgXgX",
"gXgXgXgXgXgXgXgXgXgXgXgXgXgXgXgXgXgXgXgXgXgX& & - 3 2 1 1 & & $ gXgXgXgXgXgXgXO O & & = ; ; ; ; % O O gXgXgXgXgXgXgXgXgXgXgXgXgX",
"gXgXgXgXgXgXgXgXgXgXgXgXgXgXgXgXgXgXgX      u.u.@XsXuX5X5XA.u.)             + Q Q ;.u.N.`.`.`.`.t.Q Q     gXgXgXgXgXgXgXgXgXgXgX",
"gXgXgXgXgXgXgXgXgXgXgXgXgXgXgXgXgXgXgX      u.u.@XsXuX5X5XA.u.)             + Q Q ;.u.N.`.`.`.`.t.Q Q     gXgXgXgXgXgXgXgXgXgXgX",
"gXgXgXgXgXgXgXgXgXgXgXgXgXgXgXgXgX          E E 3.a.b.P.P.j.u.q._ _ h h ( 4.7.(.(._.#X%X6X6X=X*XI.s.s.    gXgXgXgXgXgXgXgXgXgXgX",
"gXgXgXgXgXgXgXgXgXgXgXgXgXgXgXgXgX          u u F Q | u.u.u.u.u.u.u.Q Q t.`.[.sXsXsXsXsXsXsX7X5X$X`.`.    gXgXgXgXgXgXgXgXgXgXgX",
"gXgXgXgXgXgXgXgXgXgXgXgXgXgXgXgXgXo @ < 4 4 U U O.0.e.F.F.F.F.F.F.F.0.0.Z.}.XXsXsXsXsXsXsXsX7X5X$X`.`.    gXgXgXgXgXgXgXgXgXgXgX",
"gXgXgXgXgXgXgXgXgXgXgXgXgXgXgX    9 u ] u.u.`.`.3XsXsXsXsXsXsXsXsXsXsXsXrX5X7XsXsXsXsXsXsXsX7X5X$X`.`.    gXgXgXgXgXgXgXgXgXgXgX",
"gXgXgXgXgXgXgXgXgXgXgXgXgXgXgX    9 u ] u.u.`.`.3XsXsXsXsXsXsXsXsXsXsXsXrX5X7XsXsXsXsXsXsXsX7X5X$X`.`.    gXgXgXgXgXgXgXgXgXgXgX",
"gXgXgXgXgXgXgXgXgXgXgXgX    # 9 9 n.L.|.wXwXyXyXiXsXsXsXsXsXsXsXsXsXsXsXaXpXpXsXsXsXsXuX7X7X5X5X~.h.h.    gXgXgXgXgXgXgXgXgXgXgX",
"gXgXgXgXgXgXgXgXgXgXgXgX    @ u u L.`.<XsXsXsXsXsXsXsXsXsXsXsXsXsXsXsXsXsXsXsXsXsXsXsXuX5X5X5X5XU.u.u.    gXgXgXgXgXgXgXgXgXgXgX",
"gXgXgXgXgXgXgXgXgXgXgXgX    < R R )..XW.K.K.sXsXsXsX>XK.K.eXsXsXsXsXsXsXsXsXaXtXtXtXtXrX5X5X-X&Xm.....    gXgXgXgXgXgXgXgXgXgXgX",
"gXgXgXgXgXgXgXgXgXgXgXgX    5 u.u.;X5X9.u u sXsXsXsXQ.u u !.sXsXsXsXsXsXsXsXpX5X5X5X5X5X5X5X].`.2.u u     gXgXgXgXgXgXgXgXgXgXgX",
"gXgXgXgXgXgXgXgXgXgXgXgX    5 u.u.;X5X9.u u sXsXsXsXQ.u u !.sXsXsXsXsXsXsXsXpX5X5X5X5X5X5X5X].`.2.u u     gXgXgXgXgXgXgXgXgXgXgX",
"gXgXgXgXgXgXgXgXgXgX    X.u.C.5X5X .Q oXfXfXsXsXp.Q y.fXfXdXsXsXsXsXsXsXsXsXpX5X5X}.`.`.`.`.} Q q     gXgXgXgXgXgXgXgXgXgXgXgXgX",
"gXgXgXgXgXgXgXgXgXgX    X.u.C.5X5X .Q oXfXfXsXsXp.Q y.fXfXdXsXsXsXsXsXsXsXsXpX5X5X}.`.`.`.`.} Q q     gXgXgXgXgXgXgXgXgXgXgXgXgX",
"gXgXgXgXgXgXgXgXgXgX    X.u.D.tXtXW B 1.J.J.sXsX8.B T J.J.qXsXsXsXsXsXsXsXsXaXtXtX8X6X6X6X6Xr.&.g     gXgXgXgXgXgXgXgXgXgXgXgXgX",
"gXgXgXgXgXgXgXgXgXgX    X.u.F.sXsXx u S Q Q sXsX<.u s Q Q OXsXsXsXsXsXsXsXsXsXsXsXsXsXsXsXsXB.u.c     gXgXgXgXgXgXgXgXgXgXgXgXgX",
"gXgXgXgXgXgXgXgXgXgX    X.u.F.sXsXz 9 A { { sXsX,.9 a { { OXsXsXsXsXsXsXsXsXsXsXsXsXsXsXsXsXB.u.c     gXgXgXgXgXgXgXgXgXgXgXgXgX",
"gXgXgXgXgXgXgXgXgXgX    X.u.F.sXsX:   c u.u.sXsXn   5 u.u.,XsXsXsXsXsXsXsXsXsXsXsXsXsXsXsXsXB.u.c     gXgXgXgXgXgXgXgXgXgXgXgXgX",
"gXgXgXgXgXgXgXgXgXgX    X.u.F.sXsX:   c u.u.sXsXn   5 u.u.,XsXsXsXsXsXsXsXsXsXsXsXsXsXsXsXsXB.u.c     gXgXgXgXgXgXgXgXgXgXgXgXgX",
"gXgXgXgXgXgXgXgXgXgX    X.u.g.c.c.*   M ,X,XsXsXn   6 +X+XR.c.c.c.c.sXsXsXsXsXsXsXsXsXsXsXsXB.u.c     gXgXgXgXgXgXgXgXgXgXgXgXgX",
"gXgXgXgXgXgXgXgXgXgX    X.u.>.l.l.*   6.sXsXsXsXn   j 5X5Xx.l.l.l.l.sXsXsXsXsXsXsXsXsXsXsXsXB.u.c     gXgXgXgXgXgXgXgXgXgXgXgXgX",
"gXgXgXgXgXgXgXgXgXgX    X.u.f.z.z.l k v.sXsXsXsX5.k m 9X9XE.c.c.c.c.sXsXsXsXsXsXsXsXsXaXuXuXk.u.c     gXgXgXgXgXgXgXgXgXgXgXgXgX",
"gXgXgXgXgXgXgXgXgXgX    X.u.C.5X5XpXsXsXsXsXsXsXsXsXsXsXsXsXsXsXsXsXsXsXsXsXsXsXsXsXsXuX5X5Xj.u.c     gXgXgXgXgXgXgXgXgXgXgXgXgX",
"gXgXgXgXgXgXgXgXgXgX    X.u.C.5X5XpXsXsXsXsXsXsXsXsXsXsXsXsXsXsXsXsXsXsXsXsXsXsXsXsXsXuX5X5Xj.u.c     gXgXgXgXgXgXgXgXgXgXgXgXgX",
"gXgXgXgXgXgXgXgXgXgX    X.u.N.].].4X7X'.B.B.sXsXsXsXsXsXsXsXsXsXsXsXsXsXsXsXpX7X7X7X7X1X].].h.u.c     gXgXgXgXgXgXgXgXgXgXgXgXgX",
"gXgXgXgXgXgXgXgXgXgX    X.u.N.`.`.2X5XU.u.u.sXsXsXsXsXsXsXsXsXsXsXsXsXsXsXsXpX5X5X5X5X:X`.`.h.u.c     gXgXgXgXgXgXgXgXgXgXgXgXgX",
"gXgXgXgXgXgXgXgXgXgX    f c ` G.G. X$X^.G.G.rXrXrXrXrXrXrXrXrXrXrXrXrXrXrXrX0X$X$X$X$X{.G.G.b c d     gXgXgXgXgXgXgXgXgXgXgXgXgX",
"gXgXgXgXgXgXgXgXgXgXgXgX    5 u.u.T.`.`.`.`.5X5X5X5X5X5X5X5X5X5X5X5X5X5X5X5X2X`.`.`.`.Y.u.u.&     gXgXgXgXgXgXgXgXgXgXgXgXgXgXgX",
"gXgXgXgXgXgXgXgXgXgXgXgX    5 u.u.T.`.`.`.`.5X5X5X5X5X5X5X5X5X5X5X5X5X5X5X5X2X`.`.`.`.Y.u.u.&     gXgXgXgXgXgXgXgXgXgXgXgXgXgXgX",
"gXgXgXgXgXgXgXgXgXgXgXgX    @ u u L.`.`.`.`.`.`.`.`.`.`.`.`.`.`.`.`.`.`.`.`.`.`.`.`.`.n.u u X     gXgXgXgXgXgXgXgXgXgXgXgXgXgXgX",
"gXgXgXgXgXgXgXgXgXgXgXgX    @ u u L.`.`.`.`.`.`.`.`.`.`.`.`.`.`.`.`.`.`.`.`.`.`.`.`.`.n.u u X     gXgXgXgXgXgXgXgXgXgXgXgXgXgXgX",
"gXgXgXgXgXgXgXgXgXgXgXgXgXgX. > > Y ' w.V.V.`.`.`.`.`.`.`.`.`.`.`.`.`.`.`.`./.V.V.o.' [ P P 7 , , gXgXgXgXgXgXgXgXgXgXgXgXgXgXgX",
"gXgXgXgXgXgXgXgXgXgXgXgXgXgXgX    9 u ] u.u.`.`.`.`.`.`.`.`.`.`.`.`.`.`.`.`.T.u.u.D u V #.#.r u y gXgXgXgXgXgXgXgXgXgXgXgXgXgXgX",
"gXgXgXgXgXgXgXgXgXgXgXgXgXgXgX@ @ 8 8 v X.X.d.d.M.S.H.Y.Y.Y.Y.Y.Y.Y.S.S.M.d.i.:.:.H V C ^ ^ e u gXgXgXgXgXgXgXgXgXgXgXgXgXgXgXgX",
"gXgXgXgXgXgXgXgXgXgXgXgXgXgXgXu u X         u u F Q | u.u.u.u.u.u.u.Q Q S u r #.#.#.#.~ u u gXgXgXgXgXgXgXgXgXgXgXgXgXgXgXgXgXgX",
"gXgXgXgXgXgXgXgXgXgXgXgXgXgXgXu u X         u u F Q | u.u.u.u.u.u.u.Q Q S u r #.#.#.#.~ u u gXgXgXgXgXgXgXgXgXgXgXgXgXgXgXgXgXgX",
"gXgXgXgXgXgXgXgXgXgXgXgXgXgXgXu u / +.+.+.+.~ ~ I K Z 5 5 5 5 5 5 5 p p i u w V V V V t gXgXgXgXgXgXgXgXgXgXgXgXgXgXgXgXgXgXgXgX",
"gXgXgXgXgXgXgXgXgXgXgXgXgXgXgXu u -.l.l.l.l.#.#.! J N               u u u u u u u u u u gXgXgXgXgXgXgXgXgXgXgXgXgXgXgXgXgXgXgXgX",
"gXgXgXgXgXgXgXgXgXgXgXgXgXgXgXu u $.%.*.=.=.#.#.@.! L 0 0 0 0 0 0 0 u u u u u u u u u gXgXgXgXgXgXgXgXgXgXgXgXgXgXgXgXgXgXgXgXgX",
"gXgXgXgXgXgXgXgXgXgXgXgXgXgXgXgXgXy u G #.#.#.#.#.#.#.#.#.#.#.#.#.#.u u y gXgXgXgXgXgXgXgXgXgXgXgXgXgXgXgXgXgXgXgXgXgXgXgXgXgXgX",
"gXgXgXgXgXgXgXgXgXgXgXgXgXgXgXgXgXy u G #.#.#.#.#.#.#.#.#.#.#.#.#.#.u u y gXgXgXgXgXgXgXgXgXgXgXgXgXgXgXgXgXgXgXgXgXgXgXgXgXgXgX",
"gXgXgXgXgXgXgXgXgXgXgXgXgXgXgXgXgXgXgXy u u u u u u u u u u u u u u gXgXgXgXgXgXgXgXgXgXgXgXgXgXgXgXgXgXgXgXgXgXgXgXgXgXgXgXgXgX",
"gXgXgXgXgXgXgXgXgXgXgXgXgXgXgXgXgXgXgXy u u u u u u u u u u u u u u gXgXgXgXgXgXgXgXgXgXgXgXgXgXgXgXgXgXgXgXgXgXgXgXgXgXgXgXgXgX",
"gXgXgXgXgXgXgXgXgXgXgXgXgXgXgXgXgXgXgXgXy y y y y y y y y y y y y y gXgXgXgXgXgXgXgXgXgXgXgXgXgXgXgXgXgXgXgXgXgXgXgXgXgXgXgXgXgX",
"gXgXgXgXgXgXgXgXgXgXgXgXgXgXgXgXgXgXgXgXgXgXgXgXgXgXgXgXgXgXgXgXgXgXgXgXgXgXgXgXgXgXgXgXgXgXgXgXgXgXgXgXgXgXgXgXgXgXgXgXgXgXgXgX",
"gXgXgXgXgXgXgXgXgXgXgXgXgXgXgXgXgXgXgXgXgXgXgXgXgXgXgXgXgXgXgXgXgXgXgXgXgXgXgXgXgXgXgXgXgXgXgXgXgXgXgXgXgXgXgXgXgXgXgXgXgXgXgXgX",
"gXgXgXgXgXgXgXgXgXgXgXgXgXgXgXgXgXgXgXgXgXgXgXgXgXgXgXgXgXgXgXgXgXgXgXgXgXgXgXgXgXgXgXgXgXgXgXgXgXgXgXgXgXgXgXgXgXgXgXgXgXgXgXgX",
"gXgXgXgXgXgXgXgXgXgXgXgXgXgXgXgXgXgXgXgXgXgXgXgXgXgXgXgXgXgXgXgXgXgXgXgXgXgXgXgXgXgXgXgXgXgXgXgXgXgXgXgXgXgXgXgXgXgXgXgXgXgXgXgX",
"gXgXgXgXgXgXgXgXgXgXgXgXgXgXgXgXgXgXgXgXgXgXgXgXgXgXgXgXgXgXgXgXgXgXgXgXgXgXgXgXgXgXgXgXgXgXgXgXgXgXgXgXgXgXgXgXgXgXgXgXgXgXgXgX",
"gXgXgXgXgXgXgXgXgXgXgXgXgXgXgXgXgXgXgXgXgXgXgXgXgXgXgXgXgXgXgXgXgXgXgXgXgXgXgXgXgXgXgXgXgXgXgXgXgXgXgXgXgXgXgXgXgXgXgXgXgXgXgXgX",
"gXgXgXgXgXgXgXgXgXgXgXgXgXgXgXgXgXgXgXgXgXgXgXgXgXgXgXgXgXgXgXgXgXgXgXgXgXgXgXgXgXgXgXgXgXgXgXgXgXgXgXgXgXgXgXgXgXgXgXgXgXgXgXgX",
"gXgXgXgXgXgXgXgXgXgXgXgXgXgXgXgXgXgXgXgXgXgXgXgXgXgXgXgXgXgXgXgXgXgXgXgXgXgXgXgXgXgXgXgXgXgXgXgXgXgXgXgXgXgXgXgXgXgXgXgXgXgXgXgX"
};
