/* XPM */
static char *result[] = {
/* columns rows colors chars-per-pixel */
"64 64 213 2 ",
"   c black",
".  c #070101",
"X  c #0B0202",
"o  c #120303",
"O  c #160005",
"+  c #170005",
"@  c #140407",
"#  c #160407",
"$  c #180404",
"%  c #190404",
"&  c #1E0507",
"*  c #1C090E",
"=  c #250606",
"-  c #2F0409",
";  c #2D040C",
":  c #2D080E",
">  c #33070E",
",  c #310808",
"<  c #3D080A",
"1  c #2F0B12",
"2  c #3E0B12",
"3  c #20141C",
"4  c #37121D",
"5  c #3C1A26",
"6  c #3E1C29",
"7  c #4A0C0C",
"8  c #460C12",
"9  c #440C15",
"0  c #50001E",
"q  c #500E18",
"w  c #5A101C",
"e  c #5C181E",
"r  c #6A0F11",
"t  c #6E0E13",
"y  c #730D15",
"u  c #770C16",
"i  c #621010",
"p  c #631010",
"a  c #78141A",
"s  c #510421",
"d  c #510923",
"f  c #4B1320",
"g  c #531B2B",
"h  c #6A1727",
"j  c #761C23",
"k  c #402431",
"l  c #402837",
"z  c #6F2439",
"x  c #7F2E47",
"c  c #6E3E57",
"v  c #7B3852",
"b  c #704661",
"n  c #88001F",
"m  c #810A19",
"M  c #8C081C",
"N  c #8E0120",
"B  c #9E0024",
"V  c #8C1824",
"C  c #88182B",
"Z  c #9E1C32",
"A  c #A00423",
"S  c #B50029",
"D  c #AA1E34",
"F  c #AB1E34",
"G  c #85222E",
"H  c #A3213A",
"J  c #A42139",
"K  c #B52039",
"L  c #852C44",
"P  c #8B2E47",
"I  c #982C46",
"U  c #813044",
"Y  c #8A3444",
"T  c #9F3542",
"R  c #BA2540",
"E  c #BD2A46",
"W  c #B02E4B",
"Q  c #BE304D",
"!  c #A83A53",
"~  c #B63352",
"^  c #B73A5A",
"/  c #D60052",
"(  c #D8125A",
")  c #D91B5E",
"_  c #C42F4F",
"`  c #C53454",
"'  c #C93456",
"]  c #CE395E",
"[  c #AD405A",
"{  c #804963",
"}  c #804E6A",
"|  c #80516F",
" . c #A44F69",
".. c #B84764",
"X. c #BF4468",
"o. c #BD486D",
"O. c #B9547B",
"+. c #B9547C",
"@. c #C74162",
"#. c #C24065",
"$. c #CC486D",
"%. c #D9446C",
"&. c #D6486F",
"*. c #C7576A",
"=. c #C84A71",
"-. c #D94B73",
";. c #DE4973",
":. c #DD4F79",
">. c #DC5179",
",. c #DB577E",
"<. c #E14E79",
"1. c #E2527D",
"2. c #E2527E",
"3. c #E4537F",
"4. c #FF1884",
"5. c #FE2388",
"6. c #FF3A9A",
"7. c #BA5B82",
"8. c #9F6387",
"9. c #BF79A7",
"0. c #BF7AA7",
"q. c #DA5980",
"w. c #DE5B85",
"e. c #E25480",
"r. c #E35581",
"t. c #E75886",
"y. c #E65B88",
"u. c #E65D8A",
"i. c #E75D8A",
"p. c #E65F8E",
"a. c #E95C8B",
"s. c #EA5D8C",
"d. c #FE409D",
"f. c #D16780",
"g. c #CE7290",
"h. c #DA7998",
"j. c #E46592",
"k. c #E46794",
"l. c #EB6190",
"z. c #EA6391",
"x. c #ED6292",
"c. c #EE6292",
"v. c #E86493",
"b. c #EA6492",
"n. c #EA6695",
"m. c #EF6595",
"M. c #EF6797",
"N. c #EC6B98",
"B. c #EE6D9C",
"V. c #EF6C9D",
"C. c #F16798",
"Z. c #F1699B",
"A. c #F36C9E",
"S. c #F46C9F",
"D. c #FD4CA1",
"F. c #FF4CA6",
"G. c #EE73A5",
"H. c #EE75A8",
"J. c #F071A1",
"K. c #F771A5",
"L. c #F875A9",
"P. c #F877AC",
"I. c #F979AD",
"U. c #FA7DB1",
"Y. c #F97DB3",
"T. c #DA8D9C",
"R. c #EE8EB5",
"E. c #F780B1",
"W. c #F985B6",
"Q. c #FA85B7",
"!. c #F885BB",
"~. c #FC85B9",
"^. c #FB89BB",
"/. c #FD89BD",
"(. c #FD8ABE",
"). c #F090BA",
"_. c #DF8EC2",
"`. c #F78CC3",
"'. c #FB89C1",
"]. c #FD8AC0",
"[. c #FE8EC2",
"{. c #FF92C6",
"}. c #F692CA",
"|. c #FF94C9",
" X c #FE95CB",
".X c #FF95CB",
"XX c #FC94CC",
"oX c #FF96CC",
"OX c #FE97CE",
"+X c #FF98CF",
"@X c #EF97D0",
"#X c #FB97D1",
"$X c #FD96D0",
"%X c #FE98D0",
"&X c #FF98D0",
"*X c #FF99D1",
"=X c #FF9AD2",
"-X c #FE99D4",
";X c #FF9CD5",
":X c #FF9DD7",
">X c #FF9ED8",
",X c #FF9FDA",
"<X c #DFB3D5",
"1X c #DFB9D8",
"2X c #FBA0D6",
"3X c #FFA0DB",
"4X c #FFA2DE",
"5X c #FFADE2",
"6X c #DFDCDF",
"7X c #FFCDF4",
"8X c #FFD3F7",
"9X c #FFFBFF",
"0X c None",
/* pixels */
"0X0X0X0X0X0X0X0X0X0X0X0X0X0X0X0X0X0X0X0X0X0X0X0X0X0X0X0X0X0X0X0X0X0X0X0X0X0X0X0X0X0X0X0X0X0X0X0X0X0X0X0X0X0X0X0X0X0X0X0X0X0X0X0X",
"0X0X0X0X0X0X0X0X0X0X0X0X0X0X0X0X0X0X0X0X0X0X0X0X0X0X0X0X0X0X0X0X0X0X0X0X0X0X0X0X0X0X0X0X0X0X0X0X0X0X0X0X0X0X0X0X0X0X0X0X0X0X0X0X",
"0X0X0X0X0X0X0X0X0X0X0X0X0X0X0X0X0X0X0X0X0X0X0X0X0X0X0X0X0X0X0X0X0X0X0X0X0X0X0X0X0X0X0X0X0X0X0X0X0X0X0X0X0X0X0X0X0X0X0X0X0X0X0X0X",
"0X0X0X0X0X0X0X0X0X0X0X0X0X0X0X0X0X0X0X0X0X0X0X0X0X0X0X0X0X0X0X0X0X0X0X0X0X0X0X0X0X0X0X0X0X0X0X0X0X0X0X0X0X0X0X0X0X0X0X0X0X0X0X0X",
"0X0X0X0X0X0X0X0X0X0X0X0X0X0X0X0X0X0X0X0X0X0X0X0X0X0X0X0X0X0X0X0X0X0X0X0X0X0X0X0X0X0X0X0X0X0X0X0X0X0X0X0X0X0X0X0X0X0X0X0X0X0X0X0X",
"0X0X0X0X0X0X0X0X0X0X0X0X0X0X0X0X0X0X0X0X0X0X0X0X0X0X0X0X0X0X0X0X0X0X0X0X0X0X0X0X0X0X0X0X0X0X0X0X0X0X0X0X0X0X0X0X0X0X0X0X0X0X0X0X",
"0X0X0X0X0X0X0X0X0X0X0X0X0X0X0X0X0X0X0X0X0X0X0X0X0X0X0X0X0X0X0X0X0X0X0X0X0X0X0X0X0X0X0X0X0X0X0X0X0X0X0X0X0X0X0X0X0X0X0X0X0X0X0X0X",
"0X0X0X0X0X0X0X0X0X0X0X0X0X0X0X0X0X0X0X0X0X0X0X0X0X0X0X0X0X0X0X0X0X0X0X0X0X0X0X0X0X0X0X0X0X0X0X0X0X0X0X0X0X0X0X0X0X0X0X0X0X0X0X0X",
"0X0X0X0X0X0X0X0X0X0X0X0X0X0X0X0X0X0X0X0X0X0X0X0X0X0X0X0X0X0X0X0X0X0X0X0X0X0X0X0X0X0X0X0X0X0X0X0X0X0X0X0X0X0X0X0X0X0X0X0X0X0X0X0X",
"0X0X0X0X0X0X0X0X0X0X0X0X0X0X0X0X0X0X0X0X0X0X0X0X0X0X0X0X0X0X0X0X0X0X0X0X0X0X0X0X0X0X0X0X0X0X0X0X0X0X0X0X0X0X0X0X0X0X0X0X0X0X0X0X",
"0X0X0X0X0X0X0X0X0X0X0X0X0X0X0X0X0X0X0X0X0X0X0X0X0X0X0X0X0X0X0X0X0X0X0X0X0X0X0X0X0X0X0X0X0X0X0X0X0X0X0X0X0X0X0X0X0X0X0X0X0X0X0X0X",
"0X0X0X0X0X0X0X0X0X0X0X0X0X0X0X0X0X0X0X0X0X0X0X                        0X0X0X                        0X0X0X0X0X0X0X0X0X0X0X0X0X0X",
"0X0X0X0X0X0X0X0X0X0X0X0X0X0X0X0X0X0X0X0X0X0X0X                        0X0X0X                        0X0X0X0X0X0X0X0X0X0X0X0X0X0X",
"0X0X0X0X0X0X0X0X0X0X0X0X0X0X0X0X0X0X0X0X0X    +.K.I.{.{.{.{.B.;.;.        * ;.;.C.K.K.K.K.<.;.' K Z     0X0X0X0X0X0X0X0X0X0X0X0X",
"0X0X0X0X0X0X0X0X0X0X0X0X0X0X0X0X0X0X0X0X0X    +.K.I.{.{.{.{.B.;.;.        * ;.;.C.K.K.K.K.<.;.' K Z     0X0X0X0X0X0X0X0X0X0X0X0X",
"0X0X0X0X0X0X0X0X0X0X0X0X0X0X0X0X0X0X0X        U [ ..q.q.N.B.y.;.;.z z z z x H.H.!.'.'.'.'.J.B.>.' W     0X0X0X0X0X0X0X0X0X0X0X0X",
"0X0X0X0X0X0X0X0X0X0X0X0X0X0X0X0X0X0X          7 p a K K %.;.;.;.;.;.;.;.;.e.4X4X4X4X4X4X4X|.{.B.;.#.    0X0X0X0X0X0X0X0X0X0X0X0X",
"0X0X0X0X0X0X0X0X0X0X0X0X0X0X0X0X0X0X@ # # * * e j G Q Q :.e.e.e.e.1.1.1.1.u.3X3X4X4X4X4X4X|.{.B.;.#.    0X0X0X0X0X0X0X0X0X0X0X0X",
"0X0X0X0X0X0X0X0X0X0X0X0X0X0X0X0X    w K R ;.;.C.K.Y.4X4X4X4X4X4X4X{.{.{.{.{.{.{.>X4X4X4X4X|.{.B.;.#.    0X0X0X0X0X0X0X0X0X0X0X0X",
"0X0X0X0X0X0X0X0X0X0X0X0X0X0X0X0X    w K R ;.;.C.K.Y.4X4X4X4X4X4X4X{.{.{.{.{.{.{.>X4X4X4X4X|.{.B.;.#.    0X0X0X0X0X0X0X0X0X0X0X0X",
"0X0X0X0X0X0X0X0X0X0X0X0X0X0X    C C ^ i.z.`.`.XX$X-X4X4X4X4X4X4X4X{.{.{.{.{.{.{..XoXoXoXoX{.{.B.;.#.    0X0X0X0X0X0X0X0X0X0X0X0X",
"0X0X0X0X0X0X0X0X0X0X0X0X0X0X    K K &.K.P.4X4X4X4X4X4X4X4X4X4X4X4X{.{.{.{.{.{.{.{.{.{.{.{.{.{.B.;.#.    0X0X0X0X0X0X0X0X0X0X0X0X",
"0X0X0X0X0X0X0X0X0X0X0X0X0XX $ $ ` ` X.O.7.4X4X4X4X@X0.0.@X4X4X4X4X{.{.[././.{.{.{.{.{.{.{.W.E.b.;.#.    0X0X0X0X0X0X0X0X0X0X0X0X",
"0X0X0X0X0X0X0X0X0X0X0X    = p p K.K.v   3 4X4X4X4X9.    _.4X4X4X4X{.{.U.K.L.{.{.{.{.{.{.{.2.;.;.;.#.    0X0X0X0X0X0X0X0X0X0X0X0X",
"0X0X0X0X0X0X0X0X0X0X0X    = p p K.K.v   3 4X4X4X4X9.    _.4X4X4X4X{.{.U.K.L.{.{.{.{.{.{.{.2.;.;.;.#.    0X0X0X0X0X0X0X0X0X0X0X0X",
"0X0X0X0X0X0X0X0X0X0X0X    2 D D E E g.1X<X4X4X$.Q f.6X6X5X4X4X4X4X3X3X X[.(.L.L.L.L.L.L.L.Q.^.,.R J     0X0X0X0X0X0X0X0X0X0X0X0X",
"0X0X0X0X0X0X0X0X0X0X0X    9 K K K K h.8X7X4X4X@.K *.9X9X5X4X4X4X4X4X4X+X{.[.K.K.K.K.K.K.K.[.{.q.K Z     0X0X0X0X0X0X0X0X0X0X0X0X",
"0X0X0X0X0X0X0X0X0X0X0X    f ' ' w w  .R.).4X4X! V T T.T.2X4X4X4X4X4X4X:X=X&X'.'.'.'.'.'.'.%X=Xk.' W     0X0X0X0X0X0X0X0X0X0X0X0X",
"0X0X0X0X0X0X0X0X0X0X0X    g ;.;.    z ;.e.4X4XY p a K K }.4X4X4X4X4X4X4X4X4X4X4X4X4X4X4X4X4X4XH.;.#.    0X0X0X0X0X0X0X0X0X0X0X0X",
"0X0X0X0X0X0X0X0X0X0X0X    g ;.;.    z ;.e.4X4XY p a K K }.4X4X4X4X4X4X4X4X4X4X4X4X4X4X4X4X4X4XH.;.#.    0X0X0X0X0X0X0X0X0X0X0X0X",
"0X0X0X0X0X0X0X0X0X0X0X    g ;.;.    { {.|.4X4Xl   4 ;.;.#X4X4X4X4X4X4X4X4X4X4X4X4X4X4X4X4X4X4XH.;.#.    0X0X0X0X0X0X0X0X0X0X0X0X",
"0X0X0X0X0X0X0X0X0X0X0X    g ;.;.    { {.|.4X4Xl   4 ;.;.#X4X4X4X4X4X4X4X4X4X4X4X4X4X4X4X4X4X4XH.;.#.    0X0X0X0X0X0X0X0X0X0X0X0X",
"0X0X0X0X0X0X0X0X0X0X0X    d ) )     } ;X:X4X4Xl   5 c.c.D.F.F.F.F.4X4X4X4X4X4X4X4X4X4X4X4X4X4XH.;.#.    0X0X0X0X0X0X0X0X0X0X0X0X",
"0X0X0X0X0X0X0X0X0X0X0X    0 / /     | 4X4X4X4Xl   6 K.K.5.4.4.4.4.4X4X4X4X4X4X4X4X4X4X4X4X4X4XH.;.#.    0X0X0X0X0X0X0X0X0X0X0X0X",
"0X0X0X0X0X0X0X0X0X0X0X    s ( ( k k 8.4X4X4X4Xb l c Y.Y.d.6.6.6.6.4X4X4X4X4X4X4X4X4X4X4X4X,X>XG.;.#.    0X0X0X0X0X0X0X0X0X0X0X0X",
"0X0X0X0X0X0X0X0X0X0X0X    g ;.;.{.{.=X4X4X4X4X4X4X4X4X4X4X4X4X4X4X4X4X4X4X4X4X4X4X4X4X4X4X|.{.B.;.#.    0X0X0X0X0X0X0X0X0X0X0X0X",
"0X0X0X0X0X0X0X0X0X0X0X    g ;.;.{.{.=X4X4X4X4X4X4X4X4X4X4X4X4X4X4X4X4X4X4X4X4X4X4X4X4X4X4X|.{.B.;.#.    0X0X0X0X0X0X0X0X0X0X0X0X",
"0X0X0X0X0X0X0X0X0X0X0X    g ;.;.I.I.V.p.v.oXoX,X4X4X4X4X4X4X4X4X4X4X4X4X4X4X4X4X*XoXoXoXoXU.I.l.;.#.    0X0X0X0X0X0X0X0X0X0X0X0X",
"0X0X0X0X0X0X0X0X0X0X0X    g ;.;.K.K.s.;.1.{.{.>X4X4X4X4X4X4X4X4X4X4X4X4X4X4X4X4XoX{.{.{.{.L.K.s.;.#.    0X0X0X0X0X0X0X0X0X0X0X0X",
"0X0X0X0X0X0X0X0X0X0X0X    4 P P K.K.m.t.a.~.~.OX;X;X;X;X;X;X;X;X;X;X;X;X;X;X;X;X].~.~.~.~.M.x.o.P L     0X0X0X0X0X0X0X0X0X0X0X0X",
"0X0X0X0X0X0X0X0X0X0X0X          K.K.K.K.K.K.K.(.{.{.{.{.{.{.{.{.{.{.{.{.{.{.{.{.I.K.K.K.K.<.;.z     0X0X0X0X0X0X0X0X0X0X0X0X0X0X",
"0X0X0X0X0X0X0X0X0X0X0X          K.K.K.K.K.K.K.(.{.{.{.{.{.{.{.{.{.{.{.{.{.{.{.{.I.K.K.K.K.<.;.z     0X0X0X0X0X0X0X0X0X0X0X0X0X0X",
"0X0X0X0X0X0X0X0X0X0X0X0X0X0X    K K &.K.K.K.K.K.K.K.K.K.K.K.K.K.K.K.K.K.K.K.K.K.K.K.K.K.K.E K w     0X0X0X0X0X0X0X0X0X0X0X0X0X0X",
"0X0X0X0X0X0X0X0X0X0X0X0X0X0X    K K &.K.K.K.K.K.K.K.K.K.K.K.K.K.K.K.K.K.K.K.K.K.K.K.K.K.K.E K w     0X0X0X0X0X0X0X0X0X0X0X0X0X0X",
"0X0X0X0X0X0X0X0X0X0X0X0X0X0X    w w I &.-.s.s.S.K.K.K.K.K.K.K.K.K.K.K.K.K.K.K.K.x.s.r.&.&.h w 8 , , 0X0X0X0X0X0X0X0X0X0X0X0X0X0X",
"0X0X0X0X0X0X0X0X0X0X0X0X0X0X        w K R ;.;.C.K.K.K.K.K.K.K.K.K.K.K.K.K.K.K.K.3.;.] K K #   , p p 0X0X0X0X0X0X0X0X0X0X0X0X0X0X",
"0X0X0X0X0X0X0X0X0X0X0X0X0X0X        q Z H #.#.w.j.n.M.M.A.A.A.A.A.A.A.Z.M.M.j.j.=.#.~ Z Z ; O < p p 0X0X0X0X0X0X0X0X0X0X0X0X0X0X",
"0X0X0X0X0X0X0X0X0X0X0X0X0X0X0X0X              7 p a K K %.;.;.;.;.;.;._ K F p p %         B S M p p 0X0X0X0X0X0X0X0X0X0X0X0X0X0X",
"0X0X0X0X0X0X0X0X0X0X0X0X0X0X0X0X              7 p a K K %.;.;.;.;.;.;._ K F p p %         B S M p p 0X0X0X0X0X0X0X0X0X0X0X0X0X0X",
"0X0X0X0X0X0X0X0X0X0X0X0X0X0X0X0X0X0X0X0X0X    o % & : : 4 4 4 4 4 4 4 1 : > A A N n n n n m u y 0X0X0X0X0X0X0X0X0X0X0X0X0X0X0X0X",
"0X0X0X0X0X0X0X0X0X0X0X0X0X0X0X0X0X0X0X0X0X                                + S S S S S S S t p i 0X0X0X0X0X0X0X0X0X0X0X0X0X0X0X0X",
"0X0X0X0X0X0X0X0X0X0X0X0X0X0X0X0X0X0X0X0X0X        . $ $ $ $ $ $ $ $ $ $ $ - A A A A A A A r p 0X0X0X0X0X0X0X0X0X0X0X0X0X0X0X0X0X",
"0X0X0X0X0X0X0X0X0X0X0X0X0X0X0X0X0X0X0X0X0X0X0X0X0X0Xp p p p p p p p p p p p p p p p p p p 0X0X0X0X0X0X0X0X0X0X0X0X0X0X0X0X0X0X0X",
"0X0X0X0X0X0X0X0X0X0X0X0X0X0X0X0X0X0X0X0X0X0X0X0X0X0Xp p p p p p p p p p p p p p p p p p p 0X0X0X0X0X0X0X0X0X0X0X0X0X0X0X0X0X0X0X",
"0X0X0X0X0X0X0X0X0X0X0X0X0X0X0X0X0X0X0X0X0X0X0X0X0X0X0X0X0X0X0X0X0X0X0X0X0X0X0X0X0X0X0X0X0X0X0X0X0X0X0X0X0X0X0X0X0X0X0X0X0X0X0X0X",
"0X0X0X0X0X0X0X0X0X0X0X0X0X0X0X0X0X0X0X0X0X0X0X0X0X0X0X0X0X0X0X0X0X0X0X0X0X0X0X0X0X0X0X0X0X0X0X0X0X0X0X0X0X0X0X0X0X0X0X0X0X0X0X0X",
"0X0X0X0X0X0X0X0X0X0X0X0X0X0X0X0X0X0X0X0X0X0X0X0X0X0X0X0X0X0X0X0X0X0X0X0X0X0X0X0X0X0X0X0X0X0X0X0X0X0X0X0X0X0X0X0X0X0X0X0X0X0X0X0X",
"0X0X0X0X0X0X0X0X0X0X0X0X0X0X0X0X0X0X0X0X0X0X0X0X0X0X0X0X0X0X0X0X0X0X0X0X0X0X0X0X0X0X0X0X0X0X0X0X0X0X0X0X0X0X0X0X0X0X0X0X0X0X0X0X",
"0X0X0X0X0X0X0X0X0X0X0X0X0X0X0X0X0X0X0X0X0X0X0X0X0X0X0X0X0X0X0X0X0X0X0X0X0X0X0X0X0X0X0X0X0X0X0X0X0X0X0X0X0X0X0X0X0X0X0X0X0X0X0X0X",
"0X0X0X0X0X0X0X0X0X0X0X0X0X0X0X0X0X0X0X0X0X0X0X0X0X0X0X0X0X0X0X0X0X0X0X0X0X0X0X0X0X0X0X0X0X0X0X0X0X0X0X0X0X0X0X0X0X0X0X0X0X0X0X0X",
"0X0X0X0X0X0X0X0X0X0X0X0X0X0X0X0X0X0X0X0X0X0X0X0X0X0X0X0X0X0X0X0X0X0X0X0X0X0X0X0X0X0X0X0X0X0X0X0X0X0X0X0X0X0X0X0X0X0X0X0X0X0X0X0X",
"0X0X0X0X0X0X0X0X0X0X0X0X0X0X0X0X0X0X0X0X0X0X0X0X0X0X0X0X0X0X0X0X0X0X0X0X0X0X0X0X0X0X0X0X0X0X0X0X0X0X0X0X0X0X0X0X0X0X0X0X0X0X0X0X",
"0X0X0X0X0X0X0X0X0X0X0X0X0X0X0X0X0X0X0X0X0X0X0X0X0X0X0X0X0X0X0X0X0X0X0X0X0X0X0X0X0X0X0X0X0X0X0X0X0X0X0X0X0X0X0X0X0X0X0X0X0X0X0X0X",
"0X0X0X0X0X0X0X0X0X0X0X0X0X0X0X0X0X0X0X0X0X0X0X0X0X0X0X0X0X0X0X0X0X0X0X0X0X0X0X0X0X0X0X0X0X0X0X0X0X0X0X0X0X0X0X0X0X0X0X0X0X0X0X0X"
};
