/* XPM */
static char *result[] = {
/* columns rows colors chars-per-pixel */
"64 64 240 2 ",
"   c black",
".  c #060101",
"X  c #0B0202",
"o  c #0C0202",
"O  c #0D0202",
"+  c #160407",
"@  c #1D0509",
"#  c #1C090E",
"$  c #1F0310",
"%  c #240606",
"&  c #250606",
"*  c #310808",
"=  c #3C0A0A",
"-  c #3E0A0A",
";  c #2C0513",
":  c #3A0A10",
">  c #37121C",
",  c #3B1019",
"<  c #391420",
"1  c #3D1C29",
"2  c #460B0B",
"3  c #4A0C0C",
"4  c #570E0E",
"5  c #430C15",
"6  c #410F14",
"7  c #440C15",
"8  c #5A0817",
"9  c #550F1A",
"0  c #540F1B",
"q  c #4A111C",
"w  c #5A101C",
"e  c #7C0B18",
"r  c #621010",
"t  c #631010",
"y  c #77141A",
"u  c #76111F",
"i  c #73171D",
"p  c #4C1320",
"a  c #4A1726",
"s  c #531623",
"d  c #531B2B",
"f  c #651122",
"g  c #6E1821",
"h  c #651A2B",
"j  c #791120",
"k  c #751C23",
"l  c #761C23",
"z  c #6A1F32",
"x  c #6F2439",
"c  c #7F2B3C",
"v  c #762E42",
"b  c #603D53",
"n  c #663D54",
"m  c #7B3852",
"M  c #7E445E",
"N  c #800A1C",
"B  c #8C081C",
"V  c #96061F",
"C  c #8E0A29",
"Z  c #87182B",
"A  c #821E29",
"S  c #88182B",
"D  c #90112E",
"F  c #961A29",
"G  c #9C0831",
"H  c #971337",
"J  c #9E1C32",
"K  c #A00423",
"L  c #A50D2C",
"P  c #B50029",
"I  c #B5082D",
"U  c #A2102D",
"Y  c #A01C2E",
"T  c #BD0033",
"R  c #B90533",
"E  c #BA0932",
"W  c #BD0E39",
"Q  c #AA1E34",
"!  c #BD143C",
"~  c #8D2636",
"^  c #A7263F",
"/  c #B52039",
"(  c #AF1247",
")  c #B1144A",
"_  c #B8134E",
"`  c #972740",
"'  c #982C46",
"]  c #B32841",
"[  c #BD2A46",
"{  c #BF2A47",
"}  c #BE304D",
"|  c #A73756",
" . c #A8395A",
".. c #BF3B5A",
"X. c #C8024A",
"o. c #D60052",
"O. c #D00E53",
"+. c #DA0C56",
"@. c #DE0C5B",
"#. c #C42F4F",
"$. c #C93456",
"%. c #C43858",
"&. c #EA0C6B",
"*. c #EC1776",
"=. c #F51278",
"-. c #FA157E",
";. c #CF3C60",
":. c #CE3E62",
">. c #D43F64",
",. c #8D415E",
"<. c #9D475E",
"1. c #AD405A",
"2. c #B34656",
"3. c #804963",
"4. c #804C67",
"5. c #9A4667",
"6. c #80516F",
"7. c #AD4568",
"8. c #BC4767",
"9. c #BB5874",
"0. c #B5567A",
"q. c #B9557C",
"w. c #B6617E",
"e. c #C24065",
"r. c #CB476B",
"t. c #C04D6D",
"y. c #C14D6F",
"u. c #D7446B",
"i. c #D9446C",
"p. c #D6486F",
"a. c #C7576A",
"s. c #D74A71",
"d. c #DE4973",
"f. c #C75476",
"g. c #D15077",
"h. c #D05177",
"j. c #DB537B",
"k. c #E14E79",
"l. c #E14E7A",
"z. c #E2527D",
"x. c #FF1884",
"c. c #FD2E8C",
"v. c #BB5B82",
"b. c #BF6480",
"n. c #BF6E95",
"m. c #BF79A7",
"M. c #BF7AA7",
"N. c #DB5681",
"B. c #D75881",
"V. c #DA5980",
"C. c #E45380",
"Z. c #E75886",
"A. c #E75D8A",
"S. c #E65E8C",
"D. c #E95B89",
"F. c #EA5D8C",
"G. c #DF608A",
"H. c #D86390",
"J. c #DA7998",
"K. c #E46791",
"L. c #E46592",
"P. c #EB6392",
"I. c #ED6292",
"U. c #EA6492",
"Y. c #EC6594",
"T. c #EF6797",
"R. c #EC6896",
"E. c #EA6A9B",
"W. c #ED6C9A",
"Q. c #EE6D9C",
"!. c #F16799",
"~. c #F06B9B",
"^. c #F36C9E",
"/. c #F46C9F",
"(. c #EE719F",
"). c #EB6FA0",
"_. c #E371A0",
"`. c #EE75A8",
"'. c #F470A2",
"]. c #F771A5",
"[. c #F773A7",
"{. c #F276A7",
"}. c #F377A7",
"|. c #F577A9",
" X c #F875A9",
".X c #F479AA",
"XX c #F279AC",
"oX c #F979AD",
"OX c #FA6EB3",
"+X c #FF6EBC",
"@X c #FA7DB1",
"#X c #F97DB3",
"$X c #9F839A",
"%X c #9F9D9F",
"&X c #ED81B4",
"*X c #F780B1",
"=X c #F581B5",
"-X c #FB80B5",
";X c #FB81B5",
":X c #FB83B7",
">X c #FC83B7",
",X c #F682B8",
"<X c #FA83B9",
"1X c #FA83BA",
"2X c #FB84B9",
"3X c #FC86BA",
"4X c #FB89BB",
"5X c #FB89BC",
"6X c #FD8ABE",
"7X c #DF8EC2",
"8X c #F78CC3",
"9X c #FB89C1",
"0X c #FB8EC3",
"qX c #FE8EC2",
"wX c #FC8FC9",
"eX c #FF92C6",
"rX c #F592CA",
"tX c #FE92C8",
"yX c #FE93C8",
"uX c #FF94C9",
"iX c #FF96CC",
"pX c #FF97CE",
"aX c #FF98CF",
"sX c #EF97D0",
"dX c #FB97D1",
"fX c #FE99D1",
"gX c #FF9AD2",
"hX c #FF9BD3",
"jX c #FF9CD5",
"kX c #FF9ED8",
"lX c #EFA9D6",
"zX c #FFA0DB",
"xX c #FFA2DE",
"cX c #FBABDA",
"vX c #F7B0D6",
"bX c #FFB8E6",
"nX c #EDC4CD",
"mX c #FFD3F7",
"MX c #FFFBFF",
"NX c None",
/* pixels */
"NXNXNXNXNXNXNXNXNXNXNXNXNXNXNXNXNXNXNXNXNXNXNXNXNXNXNXNXNXNXNXNXNXNXNXNXNXNXNXNXNXNXNXNXNXNXNXNXNXNXNXNXNXNXNXNXNXNXNXNXNXNXNXNX",
"NXNXNXNXNXNXNXNXNXNXNXNXNXNXNXNXNXNXNXNXNXNXNXNXNXNXNXNXNXNXNXNXNXNXNXNXNXNXNXNXNXNXNXNXNXNXNXNXNXNXNXNXNXNXNXNXNXNXNXNXNXNXNXNX",
"NXNXNXNXNXNXNXNXNXNXNXNXNXNXNXNXNXNXNXNXNXNXNXNXNXNXNXNXNXNXNXNXNXNXNXNXNXNXNXNXNXNXNXNXNXNXNXNXNXNXNXNXNXNXNXNXNXNXNXNXNXNXNXNX",
"NXNXNXNXNXNXNXNXNXNXNXNXNXNXNXNXNXNXNXNXNXNXNXNXNXNXNXNXNXNXNXNXNXNXNXNXNXNXNXNXNXNXNXNXNXNXNXNXNXNXNXNXNXNXNXNXNXNXNXNXNXNXNXNX",
"NXNXNXNXNXNXNXNXNXNXNXNXNXNXNXNXNXNXNXNXNXNXNXNXNXNXNXNXNXNXNXNXNXNXNXNXNXNXNXNXNXNXNXNXNXNXNXNXNXNXNXNXNXNXNXNXNXNXNXNXNXNXNXNX",
"NXNXNXNXNXNXNXNXNXNXNXNXNXNXNXNXNXNXNXNXNXNXNXNXNXNXNXNXNXNXNXNXNXNXNXNXNXNXNXNXNXNXNXNXNXNXNXNXNXNXNXNXNXNXNXNXNXNXNXNXNXNXNXNX",
"NXNXNXNXNXNXNXNXNXNXNXNXNXNXNXNXNXNXNXNXNXNXNXNXNXNXNXNXNXNXNXNXNXNXNXNXNXNXNXNXNXNXNXNXNXNXNXNXNXNXNXNXNXNXNXNXNXNXNXNXNXNXNXNX",
"NXNXNXNXNXNXNXNXNXNXNXNXNXNXNXNXNXNXNXNXNXNXNXNXNXNXNXNXNXNXNXNXNXNXNXNXNXNXNXNXNXNXNXNXNXNXNXNXNXNXNXNXNXNXNXNXNXNXNXNXNXNXNXNX",
"NXNXNXNXNXNXNXNXNXNXNXNXNXNXNXNXNXNXNXNXNXNXNXNXNXNXNXNXNXNXNXNXNXNXNXNXNXNXNXNXNXNXNXNXNXNXNXNXNXNXNXNXNXNXNXNXNXNXNXNXNXNXNXNX",
"NXNXNXNXNXNXNXNXNXNXNXNXNXNXNXNXNXNXNXNXNXNXNXNXNXNXNXNXNXNXNXNXNXNXNXNXNXNXNXNXNXNXNXNXNXNXNXNXNXNXNXNXNXNXNXNXNXNXNXNXNXNXNXNX",
"NXNXNXNXNXNXNXNXNXNXNXNXNXNXNXNXNXNXNXNXNXNXNXNXNXNXNXNXNXNXNXNXNXNXNXNXNXNXNXNXNXNXNXNXNXNXNXNXNXNXNXNXNXNXNXNXNXNXNXNXNXNXNXNX",
"NXNXNXNXNXNXNXNXNXNXNXNXNXNXNX                        NXNX                          NXNXNXNXNXNXNXNXNXNXNXNXNXNXNXNXNXNXNXNXNXNX",
"NXNXNXNXNXNXNXNXNXNXNXNXNXNXNX                        NXNX                          NXNXNXNXNXNXNXNXNXNXNXNXNXNXNXNXNXNXNXNXNXNX",
"NXNXNXNXNXNXNXNXNXNXNXNXNX    S S ` |  .q.q.q.q.7.S S @         | | 0.n.n.n.n.v.q.,.    NXNXNXNXNXNXNXNXNXNXNXNXNXNXNXNXNXNXNXNX",
"NXNXNXNXNXNXNXNXNXNXNXNXNX    / / $.d.k.].].].].A./ / +         d.d.{.eXeXeXeXoX].5.    NXNXNXNXNXNXNXNXNXNXNXNXNXNXNXNXNXNXNXNX",
"NXNXNXNXNXNXNXNXNXNXNXNXNX    #.#.s.U.R.1X1X1X1XXXh.h.s 7 p d d d.d.U.}.(.K.K.f.t.v     NXNXNXNXNXNXNXNXNXNXNXNXNXNXNXNXNXNXNXNX",
"NXNXNXNXNXNXNXNXNXNXNXNXNX    d.d.Q.eXuXxXxXxXxXxXxXxX} / $.d.d.d.d.d.d.>./ / y t -           NXNXNXNXNXNXNXNXNXNXNXNXNXNXNXNXNX",
"NXNXNXNXNXNXNXNXNXNXNXNXNX    d.d.Q.eXuXxXxXxXxXxXxXxX} / $.d.d.d.d.d.d.>./ / y t -           NXNXNXNXNXNXNXNXNXNXNXNXNXNXNXNXNX",
"NXNXNXNXNXNXNXNXNXNXNXNXNX    d.d.Q.eXuXxXxXxXxXkXuXuX~.T.|.4X4XdXdXdXdXdXrXrX).L.B.e.e.J J 9     NXNXNXNXNXNXNXNXNXNXNXNXNXNXNX",
"NXNXNXNXNXNXNXNXNXNXNXNXNX    d.d.Q.eXuXxXxXxXxXkXeXeX X].;XeXeXxXxXxXxXxXxXxX#X].I.d.d./ / w     NXNXNXNXNXNXNXNXNXNXNXNXNXNXNX",
"NXNXNXNXNXNXNXNXNXNXNXNXNX    d.d.Y.;X2XgXgXgXgXaXeXeX>X;X6XeXeXxXxXxXxXxXxXxXwX9X,X`.`.p.p.' w 0     NXNXNXNXNXNXNXNXNXNXNXNXNX",
"NXNXNXNXNXNXNXNXNXNXNXNXNX    d.d.F.]. XeXeXeXeXeXeXeXeXeXeXeXeXxXxXxXxXxXxXxXxXxXxXxXxX].].p./ J     NXNXNXNXNXNXNXNXNXNXNXNXNX",
"NXNXNXNXNXNXNXNXNXNXNXNXNX    d.d.D.^.'.eXeXeXeXeXeXeXeXeXeXeXeXxXxXxXxXsX7X7XxXxXxXxXxXH.H.r.[ ^ o o NXNXNXNXNXNXNXNXNXNXNXNXNX",
"NXNXNXNXNXNXNXNXNXNXNXNXNX    d.d.d.d.z.eXeXeXeXeXeXeXeXeXeXeXeXxXxXxXxXm.    M.xXxXxXxX    m ].L.t t &     NXNXNXNXNXNXNXNXNXNX",
"NXNXNXNXNXNXNXNXNXNXNXNXNX    d.d.d.d.z.eXeXeXeXeXeXeXeXeXeXeXeXxXxXxXxXm.    M.xXxXxXxX    m ].L.t t &     NXNXNXNXNXNXNXNXNXNX",
"NXNXNXNXNXNXNXNXNXNXNXNXNX    #.#.j.}..X@X@X@X@X:XeXeXeXeXpXjXjXxXxXxXxXlX%X%X9.h._.xXxX$X$Xw.:.%.F F :     NXNXNXNXNXNXNXNXNXNX",
"NXNXNXNXNXNXNXNXNXNXNXNXNX    / / V.eXqX].].].].oXeXeXeXeXgXxXxXxXxXxXxXbXMXMXa./ g.xXxXmXmXJ./ / / / 5     NXNXNXNXNXNXNXNXNXNX",
"NXNXNXNXNXNXNXNXNXNXNXNXNX    { { G.iXtX#X#X#X#X<XiXiXiXiXjXxXxXxXxXxXxXcXnXnX2.Y y.xXxXvXvXb.Z Z { { q     NXNXNXNXNXNXNXNXNXNX",
"NXNXNXNXNXNXNXNXNXNXNXNXNX    d.d.`.xXxXxXxXxXxXxXxXxXxXxXxXxXxXxXxXxXxX&X/ / y t <.xXxXd.d.x   # d.d.d     NXNXNXNXNXNXNXNXNXNX",
"NXNXNXNXNXNXNXNXNXNXNXNXNX    d.d.`.xXxXxXxXxXxXxXxXxXxXxXxXxXxXxXxXxXxX&X/ / y t <.xXxXd.d.x   # d.d.d     NXNXNXNXNXNXNXNXNXNX",
"NXNXNXNXNXNXNXNXNXNXNXNXNX    d.d.`.xXxXxXxXxXxXxXxXxXxXxXxXxXxXxXxXxXxX8Xi.i., O n xXxX4X4XM   # d.d.d     NXNXNXNXNXNXNXNXNXNX",
"NXNXNXNXNXNXNXNXNXNXNXNXNX    d.d.`.xXxXxXxXxXxXxXxXxXxXxXxXxXxXxXxXxXxX8Xd.d.>   b xXxXeXeX3.  # d.d.d     NXNXNXNXNXNXNXNXNXNX",
"NXNXNXNXNXNXNXNXNXNXNXNXNX    d.d.`.xXxXxXxXxXxXxXxXxXxXxXxXxXxX+X+X+X+XOXZ.Z.<   b xXxXaXaX4.  # d.d.d     NXNXNXNXNXNXNXNXNXNX",
"NXNXNXNXNXNXNXNXNXNXNXNXNX    d.d.`.xXxXxXxXxXxXxXxXxXxXxXxXxXxXx.x.x.x.c.].].1   b xXxXxXxX6.  # d.d.d     NXNXNXNXNXNXNXNXNXNX",
"NXNXNXNXNXNXNXNXNXNXNXNXNX    d.d.`.xXxXxXxXxXxXxXxXxXxXxXxXxXxXx.x.x.x.c.].].1   b xXxXxXxX6.  # d.d.d     NXNXNXNXNXNXNXNXNXNX",
"NXNXNXNXNXNXNXNXNXNXNXNXNX    d.d.Q.eXuXxXxXxXxXxXxXxXxXxXxXxXxXxXxXxXxXxXxXxXxXxXxXxXxXxXxXxXxXdXd.d.d     NXNXNXNXNXNXNXNXNXNX",
"NXNXNXNXNXNXNXNXNXNXNXNXNX    d.d.Q.eXuXxXxXxXxXxXxXxXxXxXxXxXxXxXxXxXxXxXxXxXxXxXxXxXxXxXxXxXxXdXd.d.d     NXNXNXNXNXNXNXNXNXNX",
"NXNXNXNXNXNXNXNXNXNXNXNXNX    d.d.P.@X-XaXaXaXaXhXxXxXxXxXxXxXxXxXxXxXxXxXxXxXxXxXkXaXaXE.E.=XaX0Xd.d.d     NXNXNXNXNXNXNXNXNXNX",
"NXNXNXNXNXNXNXNXNXNXNXNXNX    d.d.F.]. XeXeXeXeXiXxXxXxXxXxXxXxXxXxXxXxXxXxXxXxXxXjXeXeXd.d.Q.eX5Xd.d.d     NXNXNXNXNXNXNXNXNXNX",
"NXNXNXNXNXNXNXNXNXNXNXNXNX    e.e.N.^.'.qXqXqXqXyXzXzXzXzXzXzXzXzXzXzXzXzXzXzXzXzXfXqXqXl.l.W.4X*Xe.e.a     NXNXNXNXNXNXNXNXNXNX",
"NXNXNXNXNXNXNXNXNXNXNXNXNXNXNX    x d.k.].].].].oXeXeXeXeXeXeXeXeXeXeXeXeXeXeXeXeX3X].].].].F.d.e.    NXNXNXNXNXNXNXNXNXNXNXNXNX",
"NXNXNXNXNXNXNXNXNXNXNXNXNXNXNX    x d.k.].].].].oXeXeXeXeXeXeXeXeXeXeXeXeXeXeXeXeX3X].].].].F.d.e.    NXNXNXNXNXNXNXNXNXNXNXNXNX",
"NXNXNXNXNXNXNXNXNXNXNXNXNXNXNX    6 A ~ ].].].].[.oXoXoXoXoXoXoXoXoXoXoXoXoXoXoXoX X].].].].8.A g     NXNXNXNXNXNXNXNXNXNXNXNXNX",
"NXNXNXNXNXNXNXNXNXNXNXNXNXNXNX    * t k ].].].].].].].].].].].].].].].].].].].].].].].].].].1.t 4     NXNXNXNXNXNXNXNXNXNXNXNXNX",
"NXNXNXNXNXNXNXNXNXNXNXNXNXNXNX% % 8 C D t.t.S.I.!.].].].].].].].].].].].].].].].]./.I.I.t.t.c - =     NXNXNXNXNXNXNXNXNXNXNXNXNX",
"NXNXNXNXNXNXNXNXNXNXNXNXNXNXNXt t G o.X.t t ..d.C.].].].].].].].].].].].].].].].].I.d.d.t t *     NXNXNXNXNXNXNXNXNXNXNXNXNXNXNX",
"NXNXNXNXNXNXNXNXNXNXNXNXNXNXNXt t G o.X.t t ..d.C.].].].].].].].].].].].].].].].].I.d.d.t t *     NXNXNXNXNXNXNXNXNXNXNXNXNXNXNX",
"NXNXNXNXNXNXNXNXNXNXNXNXNXNXNXt t ( -.=.X.X.R E L l l ] [ ;.k.k.k.k.k.k.u.[ [ ! W U i i O O X NXNXNXNXNXNXNXNXNXNXNXNXNXNXNXNXNX",
"NXNXNXNXNXNXNXNXNXNXNXNXNXNXNXt t ) x.-.o.o.T P K t t Q / $.d.d.d.d.d.d.>./ / I P V t t       NXNXNXNXNXNXNXNXNXNXNXNXNXNXNXNXNX",
"NXNXNXNXNXNXNXNXNXNXNXNXNXNXNXr r H ) _ &.&.@.+.O.) ) f w h x x x x x x z w w N B e t t     NXNXNXNXNXNXNXNXNXNXNXNXNXNXNXNXNXNX",
"NXNXNXNXNXNXNXNXNXNXNXNXNXNXNXNXNXr t u x.x.x.x.x.x.x.$                       3 t t t t NXNXNXNXNXNXNXNXNXNXNXNXNXNXNXNXNXNXNXNX",
"NXNXNXNXNXNXNXNXNXNXNXNXNXNXNXNXNXNXr j *.*.*.*.*.*.*.; o o o o o o o o .     2 r r r r NXNXNXNXNXNXNXNXNXNXNXNXNXNXNXNXNXNXNXNX",
"NXNXNXNXNXNXNXNXNXNXNXNXNXNXNXNXNXNXNXNXt t t t t t t t t t t t t t t t t NXNXNXNXNXNXNXNXNXNXNXNXNXNXNXNXNXNXNXNXNXNXNXNXNXNXNX",
"NXNXNXNXNXNXNXNXNXNXNXNXNXNXNXNXNXNXNXNXt t t t t t t t t t t t t t t t t NXNXNXNXNXNXNXNXNXNXNXNXNXNXNXNXNXNXNXNXNXNXNXNXNXNXNX",
"NXNXNXNXNXNXNXNXNXNXNXNXNXNXNXNXNXNXNXNXNXNXNXNXNXNXNXNXNXNXNXNXNXNXNXNXNXNXNXNXNXNXNXNXNXNXNXNXNXNXNXNXNXNXNXNXNXNXNXNXNXNXNXNX",
"NXNXNXNXNXNXNXNXNXNXNXNXNXNXNXNXNXNXNXNXNXNXNXNXNXNXNXNXNXNXNXNXNXNXNXNXNXNXNXNXNXNXNXNXNXNXNXNXNXNXNXNXNXNXNXNXNXNXNXNXNXNXNXNX",
"NXNXNXNXNXNXNXNXNXNXNXNXNXNXNXNXNXNXNXNXNXNXNXNXNXNXNXNXNXNXNXNXNXNXNXNXNXNXNXNXNXNXNXNXNXNXNXNXNXNXNXNXNXNXNXNXNXNXNXNXNXNXNXNX",
"NXNXNXNXNXNXNXNXNXNXNXNXNXNXNXNXNXNXNXNXNXNXNXNXNXNXNXNXNXNXNXNXNXNXNXNXNXNXNXNXNXNXNXNXNXNXNXNXNXNXNXNXNXNXNXNXNXNXNXNXNXNXNXNX",
"NXNXNXNXNXNXNXNXNXNXNXNXNXNXNXNXNXNXNXNXNXNXNXNXNXNXNXNXNXNXNXNXNXNXNXNXNXNXNXNXNXNXNXNXNXNXNXNXNXNXNXNXNXNXNXNXNXNXNXNXNXNXNXNX",
"NXNXNXNXNXNXNXNXNXNXNXNXNXNXNXNXNXNXNXNXNXNXNXNXNXNXNXNXNXNXNXNXNXNXNXNXNXNXNXNXNXNXNXNXNXNXNXNXNXNXNXNXNXNXNXNXNXNXNXNXNXNXNXNX",
"NXNXNXNXNXNXNXNXNXNXNXNXNXNXNXNXNXNXNXNXNXNXNXNXNXNXNXNXNXNXNXNXNXNXNXNXNXNXNXNXNXNXNXNXNXNXNXNXNXNXNXNXNXNXNXNXNXNXNXNXNXNXNXNX",
"NXNXNXNXNXNXNXNXNXNXNXNXNXNXNXNXNXNXNXNXNXNXNXNXNXNXNXNXNXNXNXNXNXNXNXNXNXNXNXNXNXNXNXNXNXNXNXNXNXNXNXNXNXNXNXNXNXNXNXNXNXNXNXNX",
"NXNXNXNXNXNXNXNXNXNXNXNXNXNXNXNXNXNXNXNXNXNXNXNXNXNXNXNXNXNXNXNXNXNXNXNXNXNXNXNXNXNXNXNXNXNXNXNXNXNXNXNXNXNXNXNXNXNXNXNXNXNXNXNX",
"NXNXNXNXNXNXNXNXNXNXNXNXNXNXNXNXNXNXNXNXNXNXNXNXNXNXNXNXNXNXNXNXNXNXNXNXNXNXNXNXNXNXNXNXNXNXNXNXNXNXNXNXNXNXNXNXNXNXNXNXNXNXNXNX"
};
