/* XPM */
static char *result[] = {
/* columns rows colors chars-per-pixel */
"64 64 169 2 ",
"   c black",
".  c #0C0203",
"X  c #160306",
"o  c #1C090E",
"O  c #15090D",
"+  c #1F0E14",
"@  c #1F1219",
"#  c #250606",
"$  c #2D010A",
"%  c #28070C",
"&  c #38080B",
"*  c #3C0B13",
"=  c #20141C",
"-  c #37121D",
";  c #3F2230",
":  c #44000F",
">  c #560E0E",
",  c #440C15",
"<  c #580716",
"1  c #5A101C",
"2  c #6C0E13",
"3  c #7B0C17",
"4  c #710019",
"5  c #720E19",
"6  c #770C16",
"7  c #631010",
"8  c #75131D",
"9  c #4E1222",
"0  c #5D1321",
"q  c #521B2B",
"w  c #571727",
"e  c #6A1B2D",
"r  c #711424",
"t  c #402736",
"y  c #5C2A3E",
"u  c #6F2439",
"i  c #7B253A",
"p  c #603D53",
"a  c #7B3852",
"s  c #78334C",
"d  c #7B4059",
"f  c #704662",
"g  c #605E60",
"h  c #6B5A60",
"j  c #7F6777",
"k  c #88001E",
"l  c #830A1A",
"z  c #8C081C",
"x  c #960620",
"c  c #9E0024",
"v  c #861A2B",
"b  c #88182B",
"n  c #961A29",
"m  c #8C1D31",
"M  c #9E1C32",
"N  c #9B1238",
"B  c #A00423",
"V  c #AA0127",
"C  c #B50029",
"Z  c #B00127",
"A  c #902239",
"S  c #8C253B",
"D  c #B52039",
"F  c #C7063F",
"G  c #9F0F53",
"H  c #B1144A",
"J  c #8B2E48",
"K  c #952B46",
"L  c #BD2A46",
"P  c #BF2A48",
"I  c #BA2540",
"U  c #BE304D",
"Y  c #AD3758",
"T  c #CE0048",
"R  c #D2004D",
"E  c #D60052",
"W  c #DC0659",
"Q  c #E1065E",
"!  c #CE2B57",
"~  c #CE3A5D",
"^  c #C63454",
"/  c #D7275E",
"(  c #DC0E62",
")  c #D81667",
"_  c #E40D63",
"`  c #EA0C6B",
"'  c #E21D6A",
"]  c #CE3E62",
"[  c #D43760",
"{  c #D63867",
"}  c #DB376A",
"|  c #E02A6F",
" . c #E22A71",
".. c #804B66",
"X. c #9A4667",
"o. c #80516F",
"O. c #905B7D",
"+. c #B9547C",
"@. c #B55075",
"#. c #966B7E",
"$. c #C54164",
"%. c #CE4166",
"&. c #D94069",
"*. c #D6486F",
"=. c #D2466B",
"-. c #DE4973",
";. c #DD4673",
":. c #D15077",
">. c #DA527B",
",. c #E14E7A",
"<. c #E2527E",
"1. c #FF1884",
"2. c #F72480",
"3. c #9F5C85",
"4. c #9F658B",
"5. c #AC678D",
"6. c #BF79A7",
"7. c #D75781",
"8. c #E25480",
"9. c #E75885",
"0. c #E65E8C",
"q. c #EA5D8C",
"w. c #F95B9C",
"e. c #C56991",
"r. c #DC6996",
"t. c #D66793",
"y. c #EE6494",
"u. c #EA6897",
"i. c #F46C9E",
"p. c #F06798",
"a. c #FF4CA6",
"s. c #DF74AB",
"d. c #F56FA2",
"f. c #E371A0",
"g. c #EE75A8",
"h. c #ED77A6",
"j. c #F771A5",
"k. c #F876AA",
"l. c #F979AD",
"z. c #F57BAD",
"x. c #FA7DB1",
"c. c #FA79B4",
"v. c #FF7FC7",
"b. c #AF809F",
"n. c #ED81B5",
"m. c #F680B2",
"M. c #FB81B5",
"N. c #FB85B9",
"B. c #F886BB",
"V. c #E3A8B5",
"C. c #DF8EC2",
"Z. c #EA8FC5",
"A. c #F78CC3",
"S. c #FC8DC3",
"D. c #EB90C4",
"F. c #FF92C6",
"G. c #FF94CA",
"H. c #FF98CF",
"J. c #F692C9",
"K. c #EF98D0",
"L. c #FE92D2",
"P. c #FF9CD5",
"I. c #FF9ED8",
"U. c #FFA2DE",
"Y. c #FFCEEE",
"T. c #F6DFE6",
"R. c #FFE5F7",
"E. c #FFFBFF",
"W. c None",
/* pixels */
"W.W.W.W.W.W.W.W.W.W.W.W.W.W.W.W.W.W.W.W.W.W.W.W.W.W.W.W.W.W.W.W.W.W.W.W.W.W.W.W.W.W.W.W.W.W.W.W.W.W.W.W.W.W.W.W.W.W.W.W.W.W.W.W.",
"W.W.W.W.W.W.W.W.W.W.W.W.W.W.W.W.W.W.W.W.W.W.W.W.W.W.W.W.W.W.W.W.W.W.W.W.W.W.W.W.W.W.W.W.W.W.W.W.W.W.W.W.W.W.W.W.W.W.W.W.W.W.W.W.",
"W.W.W.W.W.W.W.W.W.W.W.W.W.W.W.W.W.W.W.W.W.W.W.W.W.W.W.W.W.W.W.W.W.W.W.W.W.W.W.W.W.W.W.W.W.W.W.W.W.W.W.W.W.W.W.W.W.W.W.W.W.W.W.W.",
"W.W.W.W.W.W.W.W.W.W.W.W.W.W.W.W.W.W.W.W.W.W.W.W.W.W.W.W.W.W.W.W.W.W.W.W.W.W.W.W.W.W.W.W.W.W.W.W.W.W.W.W.W.W.W.W.W.W.W.W.W.W.W.W.",
"W.W.W.W.W.W.W.W.W.W.W.W.W.W.W.W.W.W.W.W.W.W.W.W.W.W.W.W.W.W.W.W.W.W.W.W.W.W.W.W.W.W.W.W.W.W.W.W.W.W.W.W.W.W.W.W.W.W.W.W.W.W.W.W.",
"W.W.W.W.W.W.W.W.W.W.W.W.W.W.W.W.W.W.W.W.W.W.W.W.W.W.W.W.W.W.W.W.W.W.W.W.W.W.W.W.W.W.W.W.W.W.W.W.W.W.W.W.W.W.W.W.W.W.W.W.W.W.W.W.",
"W.W.W.W.W.W.W.W.W.W.W.W.W.W.W.W.W.W.W.W.W.W.W.W.W.W.W.W.W.W.W.W.W.W.W.W.W.W.W.W.W.W.W.W.W.W.W.W.W.W.W.W.W.W.W.W.W.W.W.W.W.W.W.W.",
"W.W.W.W.W.W.W.W.W.W.W.W.W.W.W.W.W.W.W.W.W.W.W.W.W.W.W.W.W.W.W.W.W.W.W.W.W.W.W.W.W.W.W.W.W.W.W.W.W.W.W.W.W.W.W.W.W.W.W.W.W.W.W.W.",
"W.W.W.W.W.W.W.W.W.W.W.W.W.W.W.W.W.W.W.W.W.W.W.W.W.W.W.W.W.W.W.W.W.W.W.W.W.W.W.W.W.W.W.W.W.W.W.W.W.W.W.W.W.W.W.W.W.W.W.W.W.W.W.W.",
"W.W.W.W.W.W.W.W.W.W.W.W.W.W.W.W.W.W.W.W.W.W.W.W.W.W.W.W.W.W.W.W.W.W.W.W.W.W.W.W.W.W.W.W.W.W.W.W.W.W.W.W.W.W.W.W.W.W.W.W.W.W.W.W.",
"W.W.W.W.W.W.W.W.W.W.W.W.W.W.W.W.W.W.W.W.W.W.                            W.W.W.                      W.W.W.W.W.W.W.W.W.W.W.W.W.W.",
"W.W.W.W.W.W.W.W.W.W.W.W.W.W.W.W.W.W.W.W.W.                              W.W.                          W.W.W.W.W.W.W.W.W.W.W.W.W.",
"W.W.W.W.W.W.W.W.W.W.W.W.W.W.W.W.W.            O o.o.....d u u u u e 1 1     * 1 0 a a a a s u u 0 1 *     W.W.W.W.W.W.W.W.W.W.W.",
"W.W.W.W.W.W.W.W.W.W.W.W.W.W.W.W.W.            = U.U.P.F.m.-.-.-.-.~ D D     1 D P j.j.j.j.p.-.-.D D 1     W.W.W.W.W.W.W.W.W.W.W.",
"W.W.W.W.W.W.W.W.W.W.W.W.W.W.W.W.W.    X X o + t U.U.G.F.B.8.8.8.8.*.U U o o e L ^ l.k.l.k.d.<.<.^ D 0     W.W.W.W.W.W.W.W.W.W.W.",
"W.W.W.W.W.W.W.W.W.W.W.W.W.W.          M D *.j.j.F.F.F.F.G.U.U.U.U.U.U.U.-.-.q.j.l.U.U.U.U.I.F.F.,.,.u     W.W.W.W.W.W.W.W.W.W.W.",
"W.W.W.W.W.W.W.W.W.W.W.W.W.W.          M D *.j.k.F.F.F.F.G.U.U.U.U.U.U.U.-.-.0.j.l.U.U.U.U.U.F.F.<.-.u     W.W.W.W.W.W.W.W.W.W.W.",
"W.W.W.W.W.W.W.W.W.W.W.W.        - J J t.f.n.F.G.P.I.P.P.I.U.U.U.U.U.U.U.k.h.m.N.N.U.U.U.U.U.F.F.<.-.u     W.W.W.W.W.W.W.W.W.W.W.",
"W.W.W.W.W.W.W.W.W.W.W.W.        q ;.-.K.U.U.U.U.U.U.U.U.U.U.U.U.U.U.U.U.F.F.F.F.G.U.U.U.U.H.F.F.<.-.u     W.W.W.W.W.W.W.W.W.W.W.",
"W.W.W.W.W.W.W.W.W.W.W.W.    % % i y.0.I.U.U.U.U.U.U.U.U.U.U.U.U.U.U.U.U.F.F.F.F.F.U.H.U.U.H.F.F.<.-.u     W.W.W.W.W.W.W.W.W.W.W.",
"W.W.W.W.W.W.W.W.W.W.W.W.    b D :.U.U.U.U.U.U.U.U.U.U.U.U.U.U.U.U.U.U.U.F.F.F.F.F.F.F.F.F.F.F.F.<.-.u     W.W.W.W.W.W.W.W.W.W.W.",
"W.W.W.W.W.W.W.W.W.W.W.W.    b D :.U.U.U.U.U.U.U.U.U.U.U.U.U.U.U.U.U.U.U.F.F.F.F.F.F.F.F.F.F.F.F.<.-.u     W.W.W.W.W.W.W.W.W.W.W.",
"W.W.W.W.W.W.W.W.W.          @.p.z.G.G.t = 3.U.U.U.U.f = p U.U.U.U.U.U.U.F.F.M.k.l.F.F.F.F.m.<.<.v 8 &     W.W.W.W.W.W.W.W.W.W.W.",
"W.W.W.W.W.W.W.W.W.          +.j.x.F.G.@   f U.U.U.U.p   t U.U.U.U.U.U.U.F.F.M.j.k.F.F.F.F.m.-.-.8 7 %     W.W.W.W.W.W.W.W.W.W.W.",
"W.W.W.W.W.W.W.W.W.    . , , e.B.z.u.r.h g 6.U.P.f.f.#.g j U.U.U.U.U.U.U.H.H.N.m.m.N.N.N.N.d.~ ~ > , #     W.W.W.W.W.W.W.W.W.W.W.",
"W.W.W.W.W.W.W.W.W.    X D D n.U.f.D D T.E.Y.U.D.D D V.E.R.U.U.U.U.U.U.U.U.U.H.F.F.j.j.j.j.0.D D O     W.W.W.W.W.W.W.W.W.W.W.W.W.",
"W.W.W.W.W.W.W.W.W.    X D D n.U.f.D D T.E.Y.U.J.D D V.E.R.U.U.U.U.U.U.U.U.U.U.B.B.k.j.j.j.0.D D X     W.W.W.W.W.W.W.W.W.W.W.W.W.",
"W.W.W.W.W.W.W.W.W.    o -.-.A.U.e.7 7 %.-.g.U.Z.7 7 n D $.U.U.U.U.U.U.U.U.U.U.U.U.U.U.U.U.B.-.-.o     W.W.W.W.W.W.W.W.W.W.W.W.W.",
"W.W.W.W.W.W.W.W.W.    o -.-.A.U.e.7 7 %.-.g.U.Z.7 7 n D $.U.U.U.U.U.U.U.U.U.U.U.U.U.U.U.U.A.-.-.o     W.W.W.W.W.W.W.W.W.W.W.W.W.",
"W.W.W.W.W.W.W.W.W.    o -.-.A.U.5.# # 7.y.m.U.Z.# # S ~ >.U.U.U.U.U.U.U.U.U.U.U.U.U.U.U.U.A.-.-.o     W.W.W.W.W.W.W.W.W.W.W.W.W.",
"W.W.W.W.W.W.W.W.W.    o -.-.A.U.4.    t.j.A.I.C.    J -.0.U.U.I.U.U.U.U.U.U.U.U.U.U.U.U.U.A.-.-.+     W.W.W.W.W.W.W.W.W.W.W.W.W.",
"W.W.W.W.W.W.W.W.W.    o -.-.c.L.3.    r.k.F.U.C.    J <.q.L.L.L.H.U.U.U.U.U.U.U.U.U.U.U.U.A.-.-.o     W.W.W.W.W.W.W.W.W.W.W.W.W.",
"W.W.W.W.W.W.W.W.W.    o ,.;.2.1.G     C.U.U.U.C.    X.j.w.1.1.1.1.a.U.U.U.U.U.U.U.U.U.U.U.A.-.-.o     W.W.W.W.W.W.W.W.W.W.W.W.W.",
"W.W.W.W.W.W.W.W.W.    o -.;.2.1.G     C.U.U.U.C.    X.j.w.1.1.1.1.a.U.U.U.U.U.U.U.U.U.U.U.A.-.-.o     W.W.W.W.W.W.W.W.W.W.W.W.W.",
"W.W.W.W.W.W.W.W.W.    X L ^ y.c.s.6.6.U.U.U.U.K.e.b.Z.L.L.v.S.v.S.L.U.U.U.U.U.U.U.U.U.P.G.h.^ L X     W.W.W.W.W.W.W.W.W.W.W.W.W.",
"W.W.W.W.W.W.W.W.W.    X D D h.F.H.U.U.U.U.U.U.U.U.U.U.U.U.I.U.U.I.U.U.U.U.U.U.U.U.U.U.H.F.h.D D X     W.W.W.W.W.W.W.W.W.W.W.W.W.",
"W.W.W.W.W.W.W.W.W.    . r r r.N.F.P.P.B.m.J.P.P.U.U.U.U.U.U.U.U.U.U.U.U.I.P.P.P.U.H.P.B.N.t.r r % # # W.W.W.W.W.W.W.W.W.W.W.W.W.",
"W.W.W.W.W.W.W.W.W.          +.j.x.F.F.<.-.i.F.G.U.U.U.U.U.U.U.U.U.U.U.U.F.F.S.G.F.F.F.l.j.+.    > 7 7 W.W.W.W.W.W.W.W.W.W.W.W.W.",
"W.W.W.W.W.W.W.W.W.          +.j.l.F.F.<.-.u.F.G.U.U.U.U.U.U.U.U.U.U.U.U.F.S.G.F.F.F.F.l.j.+.    > 7 7 W.W.W.W.W.W.W.W.W.W.W.W.W.",
"W.W.W.W.W.W.W.W.W.W.W.W.    m P =.k.k.i.i.j.k.c.G.G.L.I.G.G.F.G.G.G.G.G.k.k.k.k.j.k.k.~ P A     x V z 7 7 W.W.W.W.W.W.W.W.W.W.W.",
"W.W.W.W.W.W.W.W.W.W.W.W.    b D ] j.j.j.j.j.j.k.F.F.F.F.F.F.F.F.F.F.F.F.j.j.j.j.j.j.j.^ D b     c C z 7 7 W.W.W.W.W.W.W.W.W.W.W.",
"W.W.W.W.W.W.W.W.W.W.W.W.    , 1 J q.q.j.j.j.j.j.M.M.M.m.M.M.M.M.m.M.M.M.j.j.j.j.d.q.q.i 1 1 < < V C z 7 7 W.W.W.W.W.W.W.W.W.W.W.",
"W.W.W.W.W.W.W.W.W.W.W.W.        q ,.*.d.j.j.j.j.j.j.j.j.j.j.j.j.j.j.j.j.j.j.j.j.i.&.,.*   $ C C C C z 7 7 W.W.W.W.W.W.W.W.W.W.W.",
"W.W.W.W.W.W.W.W.W.W.W.W.    . . w &.} q.y.i.j.j.j.j.j.j.j.j.j.j.j.j.j.j.j.j.i.p.q.@.$.9 X & C C C C z 7 7 W.W.W.W.W.W.W.W.W.W.W.",
"W.W.W.W.W.W.W.W.W.W.W.W.W.W.7 7 l C C C C { j.j.j.j.j.j.j.j.j.j.j.j.j.j.j.j.*.D M .   k C C C C C C z 7 7 W.W.W.W.W.W.W.W.W.W.W.",
"W.W.W.W.W.W.W.W.W.W.W.W.W.W.7 7 l C C C C { j.j.j.i.j.j.j.j.j.j.j.j.j.j.j.j.*.D M     k C C C C C C z 7 7 W.W.W.W.W.W.W.W.W.W.W.",
"W.W.W.W.W.W.W.W.W.W.W.W.W.W.7 7 N _ ' _ _ '  . .! ! ,.<.9.9.<.9.9.-.%.] y y q , , 4 4 B C C C C l l 3 W.W.W.W.W.W.W.W.W.W.W.W.W.",
"W.W.W.W.W.W.W.W.W.W.W.W.W.W.7 7 N 1.1.1.` ` E R C C ! ;.;.,.,.,.-.~ D D         X C C C C C C C 2 7 7 W.W.W.W.W.W.W.W.W.W.W.W.W.",
"W.W.W.W.W.W.W.W.W.W.W.W.W.W.7 7 N ) ) ) ) _ _ W F F / } } [ [ Y Y K b b $ $ $ $ : C C C C Z B B 2 7 7 W.W.W.W.W.W.W.W.W.W.W.W.W.",
"W.W.W.W.W.W.W.W.W.W.W.W.W.W.W.W.W.7 7 7 7 H 1.1.1.1._ E T C C X         C C C C C C C C C B 7 7 7 7 7 W.W.W.W.W.W.W.W.W.W.W.W.W.",
"W.W.W.W.W.W.W.W.W.W.W.W.W.W.W.W.W.7 7 7 7 H 1.1.1.1._ E T C C X         C C C C C C C C C B 7 7 7 7 7 W.W.W.W.W.W.W.W.W.W.W.W.W.",
"W.W.W.W.W.W.W.W.W.W.W.W.W.W.W.W.W.W.W.W.W.8 8 8 8 8 5 5 5 2 2 > > > > > C C C C C C C 3 2 2 7 7 W.W.W.W.W.W.W.W.W.W.W.W.W.W.W.W.",
"W.W.W.W.W.W.W.W.W.W.W.W.W.W.W.W.W.W.W.W.W.7 7 7 7 7 7 7 7 7 7 7 7 7 7 7 C C C C C C C 3 7 7 7 7 W.W.W.W.W.W.W.W.W.W.W.W.W.W.W.W.",
"W.W.W.W.W.W.W.W.W.W.W.W.W.W.W.W.W.W.W.W.W.W.7 7 7 7 7 7 7 7 7 7 7 7 7 7 x x x x x x x 3 7 7 7 7 W.W.W.W.W.W.W.W.W.W.W.W.W.W.W.W.",
"W.W.W.W.W.W.W.W.W.W.W.W.W.W.W.W.W.W.W.W.W.W.W.W.W.W.W.W.W.W.W.W.W.W.W.W.7 7 7 7 7 7 7 W.W.W.W.W.W.W.W.W.W.W.W.W.W.W.W.W.W.W.W.W.",
"W.W.W.W.W.W.W.W.W.W.W.W.W.W.W.W.W.W.W.W.W.W.W.W.W.W.W.W.W.W.W.W.W.W.W.W.7 7 7 7 7 7 7 W.W.W.W.W.W.W.W.W.W.W.W.W.W.W.W.W.W.W.W.W.",
"W.W.W.W.W.W.W.W.W.W.W.W.W.W.W.W.W.W.W.W.W.W.W.W.W.W.W.W.W.W.W.W.W.W.W.W.W.W.W.W.W.W.W.W.W.W.W.W.W.W.W.W.W.W.W.W.W.W.W.W.W.W.W.W.",
"W.W.W.W.W.W.W.W.W.W.W.W.W.W.W.W.W.W.W.W.W.W.W.W.W.W.W.W.W.W.W.W.W.W.W.W.W.W.W.W.W.W.W.W.W.W.W.W.W.W.W.W.W.W.W.W.W.W.W.W.W.W.W.W.",
"W.W.W.W.W.W.W.W.W.W.W.W.W.W.W.W.W.W.W.W.W.W.W.W.W.W.W.W.W.W.W.W.W.W.W.W.W.W.W.W.W.W.W.W.W.W.W.W.W.W.W.W.W.W.W.W.W.W.W.W.W.W.W.W.",
"W.W.W.W.W.W.W.W.W.W.W.W.W.W.W.W.W.W.W.W.W.W.W.W.W.W.W.W.W.W.W.W.W.W.W.W.W.W.W.W.W.W.W.W.W.W.W.W.W.W.W.W.W.W.W.W.W.W.W.W.W.W.W.W.",
"W.W.W.W.W.W.W.W.W.W.W.W.W.W.W.W.W.W.W.W.W.W.W.W.W.W.W.W.W.W.W.W.W.W.W.W.W.W.W.W.W.W.W.W.W.W.W.W.W.W.W.W.W.W.W.W.W.W.W.W.W.W.W.W.",
"W.W.W.W.W.W.W.W.W.W.W.W.W.W.W.W.W.W.W.W.W.W.W.W.W.W.W.W.W.W.W.W.W.W.W.W.W.W.W.W.W.W.W.W.W.W.W.W.W.W.W.W.W.W.W.W.W.W.W.W.W.W.W.W.",
"W.W.W.W.W.W.W.W.W.W.W.W.W.W.W.W.W.W.W.W.W.W.W.W.W.W.W.W.W.W.W.W.W.W.W.W.W.W.W.W.W.W.W.W.W.W.W.W.W.W.W.W.W.W.W.W.W.W.W.W.W.W.W.W.",
"W.W.W.W.W.W.W.W.W.W.W.W.W.W.W.W.W.W.W.W.W.W.W.W.W.W.W.W.W.W.W.W.W.W.W.W.W.W.W.W.W.W.W.W.W.W.W.W.W.W.W.W.W.W.W.W.W.W.W.W.W.W.W.W."
};
