/* XPM */
static char *result[] = {
/* columns rows colors chars-per-pixel */
"64 64 247 2 ",
"   c black",
".  c #0C0202",
"X  c #0B0204",
"o  c #160005",
"O  c #170005",
"+  c #170407",
"@  c #180404",
"#  c #1C090E",
"$  c #1F0E15",
"%  c #1F141C",
"&  c #250606",
"*  c #2A0507",
"=  c #2B0707",
"-  c #280108",
";  c #2D000A",
":  c #38000D",
">  c #310808",
",  c #30080B",
"<  c #350014",
"1  c #390A10",
"2  c #3D0B12",
"3  c #20141C",
"4  c #560E0E",
"5  c #430C15",
"6  c #440C15",
"7  c #460E19",
"8  c #5A0014",
"9  c #5A0617",
"0  c #49111C",
"q  c #5A101C",
"w  c #680F12",
"e  c #6E0E13",
"r  c #6C0118",
"t  c #700D14",
"y  c #770C16",
"u  c #7A0B17",
"i  c #780C16",
"p  c #710019",
"a  c #7D001C",
"s  c #621010",
"d  c #631010",
"f  c #400621",
"g  c #531B2B",
"h  c #5F1F31",
"j  c #680520",
"k  c #690227",
"l  c #6B0029",
"z  c #6C042B",
"x  c #7E032A",
"c  c #711424",
"v  c #751A22",
"b  c #6D1231",
"n  c #4D2333",
"m  c #522130",
"M  c #5C2A3D",
"N  c #5C2A3E",
"B  c #772026",
"V  c #70202E",
"C  c #6F2439",
"Z  c #5E3346",
"A  c #7D2940",
"S  c #60374A",
"D  c #603D53",
"F  c #8A041E",
"G  c #810A19",
"H  c #820A19",
"J  c #87091A",
"K  c #8C081C",
"L  c #91071E",
"P  c #96061F",
"I  c #81161F",
"U  c #8C0024",
"Y  c #950420",
"T  c #9E0024",
"R  c #9C0627",
"E  c #920824",
"W  c #821E29",
"Q  c #88182B",
"!  c #961A29",
"~  c #9C0831",
"^  c #9E1C32",
"/  c #A00423",
"(  c #A60324",
")  c #A1062C",
"_  c #B50029",
"`  c #B9002E",
"'  c #AA0639",
"]  c #B40133",
"[  c #BD0033",
"{  c #B52039",
"}  c #C10038",
"|  c #C5003D",
" . c #BB0048",
".. c #8E2F41",
"X. c #8C2B49",
"o. c #9A3447",
"O. c #BA2540",
"+. c #BD2A46",
"@. c #BF2A47",
"#. c #BF2A48",
"$. c #A73756",
"%. c #AA3C5C",
"&. c #B73A5A",
"*. c #B63E61",
"=. c #CA0143",
"-. c #C8024A",
";. c #C80B4D",
":. c #D60052",
">. c #D70956",
",. c #DB0358",
"<. c #CB2258",
"1. c #C93456",
"2. c #EA0C6B",
"3. c #DA2462",
"4. c #AD405A",
"5. c #B94260",
"6. c #BF4468",
"7. c #C74162",
"8. c #C24065",
"9. c #C74165",
"0. c #CE4166",
"q. c #CF4267",
"w. c #D9446C",
"e. c #D6486F",
"r. c #C94A71",
"t. c #DD4972",
"y. c #DE4973",
"u. c #DB4E76",
"i. c #C0557A",
"p. c #CA597D",
"a. c #DD5079",
"s. c #DE537D",
"d. c #E14E79",
"f. c #E2507B",
"g. c #E0537D",
"h. c #E2527D",
"j. c #E4537F",
"k. c #FF1884",
"l. c #FF298F",
"z. c #BF79A7",
"x. c #BF7AA7",
"c. c #D05983",
"v. c #DA5980",
"b. c #E45380",
"n. c #E75886",
"m. c #E65B87",
"M. c #E25E8A",
"N. c #E75D8A",
"B. c #E65F8E",
"V. c #E85A88",
"C. c #E95A89",
"Z. c #EA5D8C",
"A. c #EC5F8F",
"S. c #FA4F99",
"D. c #D86390",
"F. c #D86391",
"G. c #D96997",
"H. c #EA608F",
"J. c #EB6291",
"K. c #EA6492",
"L. c #EA6595",
"P. c #EA6695",
"I. c #EF6797",
"U. c #EC6997",
"Y. c #EA6999",
"T. c #EA6A9B",
"R. c #EC6D9D",
"E. c #EE6D9C",
"W. c #EC6E9F",
"Q. c #F06798",
"!. c #F16798",
"~. c #F46C9F",
"^. c #FA5BA2",
"/. c #FF5DB1",
"(. c #DB77A3",
"). c #D87EAA",
"_. c #D87EAB",
"`. c #F66FA2",
"'. c #FA69A9",
"]. c #F771A5",
"[. c #F875A9",
"{. c #F877AC",
"}. c #F979AD",
"|. c #FF6EBC",
" X c #FA7DB1",
".X c #F97DB3",
"XX c #FF77C2",
"oX c #B6A1A6",
"OX c #BFBCBF",
"+X c #DF80AD",
"@X c #CF83B4",
"#X c #CF84B4",
"$X c #E38DAE",
"%X c #EC81B5",
"&X c #F381B6",
"*X c #FB80B5",
"=X c #FB81B5",
"-X c #F783B9",
";X c #FA83BA",
":X c #FC85B9",
">X c #FC86BA",
",X c #FB89BC",
"<X c #FD89BD",
"1X c #FD8ABE",
"2X c #FE8BBF",
"3X c #EE96BB",
"4X c #E298BC",
"5X c #E7A7B8",
"6X c #FB88C0",
"7X c #FB89C1",
"8X c #FE8CC0",
"9X c #FE8DC1",
"0X c #FE8EC2",
"qX c #FA8DC6",
"wX c #FD8EC4",
"eX c #FD8FC4",
"rX c #FF89CD",
"tX c #FF92C6",
"yX c #FC90C9",
"uX c #FF93C8",
"iX c #FF94C9",
"pX c #FF96CC",
"aX c #FF97CE",
"sX c #FF98CF",
"dX c #FD96D0",
"fX c #FE9BD4",
"gX c #FF9BD4",
"hX c #FF9CD5",
"jX c #FE9CD7",
"kX c #FF9ED8",
"lX c #FF9ED9",
"zX c #DFBAD2",
"xX c #ECA6C7",
"cX c #EDA6C7",
"vX c #F3B8CA",
"bX c #F9A6D4",
"nX c #F7ADD0",
"mX c #FFA0DB",
"MX c #FFA1DD",
"NX c #FFA2DE",
"BX c #FDBBE3",
"VX c #FFC0ED",
"CX c #F6DFE6",
"ZX c #FFD3F7",
"AX c #FFD9F3",
"SX c #FFFBFF",
"DX c None",
/* pixels */
"DXDXDXDXDXDXDXDXDXDXDXDXDXDXDXDXDXDXDXDXDXDXDXDXDXDXDXDXDXDXDXDXDXDXDXDXDXDXDXDXDXDXDXDXDXDXDXDXDXDXDXDXDXDXDXDXDXDXDXDXDXDXDXDX",
"DXDXDXDXDXDXDXDXDXDXDXDXDXDXDXDXDXDXDXDXDXDXDXDXDXDXDXDXDXDXDXDXDXDXDXDXDXDXDXDXDXDXDXDXDXDXDXDXDXDXDXDXDXDXDXDXDXDXDXDXDXDXDXDX",
"DXDXDXDXDXDXDXDXDXDXDXDXDXDXDXDXDXDXDXDXDXDXDXDXDXDXDXDXDXDXDXDXDXDXDXDXDXDXDXDXDXDXDXDXDXDXDXDXDXDXDXDXDXDXDXDXDXDXDXDXDXDXDXDX",
"DXDXDXDXDXDXDXDXDXDXDXDXDXDXDXDXDXDXDXDXDXDXDXDXDXDXDXDXDXDXDXDXDXDXDXDXDXDXDXDXDXDXDXDXDXDXDXDXDXDXDXDXDXDXDXDXDXDXDXDXDXDXDXDX",
"DXDXDXDXDXDXDXDXDXDXDXDXDXDXDXDXDXDXDXDXDXDXDXDXDXDXDXDXDXDXDXDXDXDXDXDXDXDXDXDXDXDXDXDXDXDXDXDXDXDXDXDXDXDXDXDXDXDXDXDXDXDXDXDX",
"DXDXDXDXDXDXDXDXDXDXDXDXDXDXDXDXDXDXDXDXDXDXDXDXDXDXDXDXDXDXDXDXDXDXDXDXDXDXDXDXDXDXDXDXDXDXDXDXDXDXDXDXDXDXDXDXDXDXDXDXDXDXDXDX",
"DXDXDXDXDXDXDXDXDXDXDXDXDXDXDXDXDXDXDXDXDXDXDXDXDXDXDXDXDXDXDXDXDXDXDXDXDXDXDXDXDXDXDXDXDXDXDXDXDXDXDXDXDXDXDXDXDXDXDXDXDXDXDXDX",
"DXDXDXDXDXDXDXDXDXDXDXDXDXDXDXDXDXDXDXDXDXDXDXDXDXDXDXDXDXDXDXDXDXDXDXDXDXDXDXDXDXDXDXDXDXDXDXDXDXDXDXDXDXDXDXDXDXDXDXDXDXDXDXDX",
"DXDXDXDXDXDXDXDXDXDXDXDXDXDXDXDXDXDXDXDXDXDXDXDXDXDXDXDXDXDXDXDXDXDXDXDXDXDXDXDXDXDXDXDXDXDXDXDXDXDXDXDXDXDXDXDXDXDXDXDXDXDXDXDX",
"DXDXDXDXDXDXDXDXDXDXDXDXDXDXDXDXDXDXDXDXDXDXDXDXDXDXDXDXDXDXDXDXDXDXDXDXDXDXDXDXDXDXDXDXDXDXDXDXDXDXDXDXDXDXDXDXDXDXDXDXDXDXDXDX",
"DXDXDXDXDXDXDXDXDXDXDXDXDXDXDXDXDXDXDXDXDXDX                        DXDXDX                  DXDXDXDXDXDXDXDXDXDXDXDXDXDXDXDXDXDX",
"DXDXDXDXDXDXDXDXDXDXDXDXDXDXDXDXDXDXDXDXDXDX                        DXDXDX                  DXDXDXDXDXDXDXDXDXDXDXDXDXDXDXDXDXDX",
"DXDXDXDXDXDXDXDXDXDXDXDXDXDXDXDXDXDXDXDX        n F.F.+X+X+X+X(.8.8.v s ..F.F.F.F.F.F.c.^ ^ 2     DXDXDXDXDXDXDXDXDXDXDXDXDXDXDX",
"DXDXDXDXDXDXDXDXDXDXDXDXDXDXDXDXDXDXDXDX        N ].].tXtXtXtX,Xy.y.W d o.].].].].].].I.{ { 5     DXDXDXDXDXDXDXDXDXDXDXDXDXDXDX",
"DXDXDXDXDXDXDXDXDXDXDXDXDXDXDX              = > V e.e.E.E.E.E.U.y.y.5.4.p.=X=X6X7X7X7X-Xv.v.m     DXDXDXDXDXDXDXDXDXDXDXDXDXDXDX",
"DXDXDXDXDXDXDXDXDXDXDXDXDXDXDX              4 d I { { y.y.y.y.y.y.y.!.]. XtXtXmXNXNXNXmXtXtXS     DXDXDXDXDXDXDXDXDXDXDXDXDXDXDX",
"DXDXDXDXDXDXDXDXDXDXDXDXDXDXDX              4 d I { { y.y.y.y.y.y.y.!.]. XtXtXmXNXNXNXmXtXtXS     DXDXDXDXDXDXDXDXDXDXDXDXDXDXDX",
"DXDXDXDXDXDXDXDXDXDXDXDX          Q { @.y.y.~.].;XNXNXNXNXNXNXjX].].1XtXtXtXtXmXNXNXNXmXtXtXS     DXDXDXDXDXDXDXDXDXDXDXDXDXDXDX",
"DXDXDXDXDXDXDXDXDXDXDXDX          Q { @.y.y.~.].;XNXNXNXNXNXNXjX].].1XtXtXtXtXmXNXNXNXmXtXtXS     DXDXDXDXDXDXDXDXDXDXDXDXDXDXDX",
"DXDXDXDXDXDXDXDXDXDXDXDX    X c c 6.s.M.&X&XqXyXdXNXNXNXNXNXNXlX>X>X0XtXtXtXtXaXsXsXsXaXtXtXS     DXDXDXDXDXDXDXDXDXDXDXDXDXDXDX",
"DXDXDXDXDXDXDXDXDXDXDXDX    + { { N.]..XNXNXNXNXNXNXNXNXNXNXNXmXtXtXtXtXtXtXtXtXtXtXtXtXtXtXS     DXDXDXDXDXDXDXDXDXDXDXDXDXDXDX",
"DXDXDXDXDXDXDXDXDXDXDXDX    + @.@.a.N.W.NXNX#Xx.@XNXNXNXNXNXNXmXtXtX2X<X8XtXtXtXtXtXtXtX<X<XZ     DXDXDXDXDXDXDXDXDXDXDXDXDXDXDX",
"DXDXDXDXDXDXDXDXDXDX        # y.y.#.{ 7.NXNX%   D NXNXNXNXNXNXmXtXtX}.]. XtXtXtXtXtXtX0X].].M         DXDXDXDXDXDXDXDXDXDXDXDXDX",
"DXDXDXDXDXDXDXDXDXDX        # y.y.#.{ 7.NXNX%   D NXNXNXNXNXNXmXtXtX}.]. XtXtXtXtXtXtX0X].].M         DXDXDXDXDXDXDXDXDXDXDXDXDX",
"DXDXDXDXDXDXDXDXDXDX    g $.*.!.!.3XxX$X7.7.oXOXzXNXNXNXNXNXNXMXkXkXeX1X>X}.}.}.}.}.}.}.1X1Xi.$.A     DXDXDXDXDXDXDXDXDXDXDXDXDX",
"DXDXDXDXDXDXDXDXDXDX    C y.d.].].BXZXcX{ { CXSXAXNXNXNXNXNXNXNXNXNXpXtX>X].].].].].].[.tXtXK.y.$.    DXDXDXDXDXDXDXDXDXDXDXDXDX",
"DXDXDXDXDXDXDXDXDXDX    C y.t.s.s.bXVX4X! ! 5XvXnXNXNXNXNXNXNXNXNXNXgXsXwX X X X X X X*XsXsXP.y.$.    DXDXDXDXDXDXDXDXDXDXDXDXDX",
"DXDXDXDXDXDXDXDXDXDX    C y.w.{ { %XNX).d d 0.y.T.NXNXNXNXNXNXNXNXNXNXNXhXtXtXtXtXtXtXiXNXNXT.y.$.    DXDXDXDXDXDXDXDXDXDXDXDXDX",
"DXDXDXDXDXDXDXDXDXDX    C y.w.{ { %XNX).d d 0.y.T.NXNXNXNXNXNXNXNXNXNXNXhXtXtXtXtXtXtXiXNXNXT.y.$.    DXDXDXDXDXDXDXDXDXDXDXDXDX",
"DXDXDXDXDXDXDXDXDXDX    C y.q.d d _.NXz.    D.].;XNXNXNXNXNXNXNXNXNXNXNXNXNXNXNXNXNXNXNXNXNXT.y.$.    DXDXDXDXDXDXDXDXDXDXDXDXDX",
"DXDXDXDXDXDXDXDXDXDX    C y.q.d d _.NXz.    D.].;XNXNXNXNXNXNXNXNXNXNXNXNXNXNXNXNXNXNXNXNXNXT.y.$.    DXDXDXDXDXDXDXDXDXDXDXDXDX",
"DXDXDXDXDXDXDXDXDXDX    b 3.<.d d _.NXz.    D.].'././././.rXNXNXNXNXNXNXNXNXNXNXNXNXNXNXNXNXT.y.$.    DXDXDXDXDXDXDXDXDXDXDXDXDX",
"DXDXDXDXDXDXDXDXDXDX    l :.-.d d _.NXz.    D.].S.k.k.k.k.|.NXNXNXNXNXNXNXNXNXNXNXNXNXNXNXNXT.y.$.    DXDXDXDXDXDXDXDXDXDXDXDXDX",
"DXDXDXDXDXDXDXDXDXDX    z >.;.B B _.NX@X3 3 G.{.^.l.l.l.l.XXNXNXNXNXNXNXNXNXNXNXNXNXNXNXmXmXY.y.$.    DXDXDXDXDXDXDXDXDXDXDXDXDX",
"DXDXDXDXDXDXDXDXDXDX    C y.h.tXtXkXNXNXNXNXNXNXNXNXNXNXNXNXNXNXNXNXNXNXNXNXNXNXNXNXNXmXtXtXK.y.$.    4 d d DXDXDXDXDXDXDXDXDXDX",
"DXDXDXDXDXDXDXDXDXDX    C y.h.tXtXkXNXNXNXNXNXNXNXNXNXNXNXNXNXNXNXNXNXNXNXNXNXNXNXNXNXmXtXtXK.y.$.    4 d d DXDXDXDXDXDXDXDXDXDX",
"DXDXDXDXDXDXDXDXDXDX    C y.f.}.}.L.B.R.pXpXmXNXNXNXNXNXNXNXNXNXNXNXNXNXNXNXNXsXpXpXpXuX}.}.V.y.$.    F / L d d DXDXDXDXDXDXDXDX",
"DXDXDXDXDXDXDXDXDXDX    C y.d.].].j.y.m.tXtXmXNXNXNXNXNXNXNXNXNXNXNXNXNXNXNXNXiXtXtXtX0X].].n.y.$.    T _ P d d DXDXDXDXDXDXDXDX",
"DXDXDXDXDXDXDXDXDXDX    h $.%.].].C.b.H.<X<XfXkXkXkXkXkXkXkXkXkXkXkXkXkXkXkXkX9X<X<X<X:XQ.Q.r.$.X.f f ] [ R d d DXDXDXDXDXDXDXDX",
"DXDXDXDXDXDXDXDXDXDXDXDX    $ ].].].].].].].0XtXtXtXtXtXtXtXtXtXtXtXtXtXtXtXtX[.].].].~.y.y.g   f k.k.,.:.' d d DXDXDXDXDXDXDXDX",
"DXDXDXDXDXDXDXDXDXDXDXDX    $ ].].].].].].].0XtXtXtXtXtXtXtXtXtXtXtXtXtXtXtXtX[.].].].~.y.y.g   f k.k.,.:.' d d DXDXDXDXDXDXDXDX",
"DXDXDXDXDXDXDXDXDXDXDXDX    + +.+.J.].].].].[.[.[.[.[.[.[.[.[.[.[.[.[.[.[.[.[.].].].].I.O.O.7   f k.k.,.:.' d d DXDXDXDXDXDXDXDX",
"DXDXDXDXDXDXDXDXDXDXDXDX    + { { N.].].].].].].].].].].].].].].].].].].].].].].].].].I.{ { 5   f k.k.,.:.' d d DXDXDXDXDXDXDXDX",
"DXDXDXDXDXDXDXDXDXDXs s j l k q q &.e.u.Z.Z.`.].].].].].].].].].].].].].].].].A.Z.g.e.9.q q 9 8 x 2.2.=.| ) d d DXDXDXDXDXDXDXDX",
"DXDXDXDXDXDXDXDXDXDXd d ~ :. .    Q { @.y.y.~.].].].].].].].].].].].].].].].].d.y.1.{ ^     p _ [ :.:.` _ P d d DXDXDXDXDXDXDXDX",
"DXDXDXDXDXDXDXDXDXDXd d ~ :. .    Q { @.y.y.~.].].].].].].].].].].].].].].].].d.y.1.{ ^     p _ [ :.:.` _ P d d DXDXDXDXDXDXDXDX",
"DXDXDXDXDXDXDXDXDXDXd d ~ :.:.:.:.<         4 d I { { y.y.y.y.y.y.y.#.{ ! d d .       O _ _ _ _ _ _ _ e d d DXDXDXDXDXDXDXDXDXDX",
"DXDXDXDXDXDXDXDXDXDXd d ~ :.:.:.:.<         4 d I { { y.y.y.y.y.y.y.#.{ ! d d .       O _ _ _ _ _ _ _ e d d DXDXDXDXDXDXDXDXDXDX",
"DXDXDXDXDXDXDXDXDXDXd d E } } } } U p p p p * & , 6 6 g g g g g g g 0 6 1 & & r p p p a _ _ P G G G G DXDXDXDXDXDXDXDXDXDXDXDXDX",
"DXDXDXDXDXDXDXDXDXDXd d K _ _ _ _ _ _ _ _ _ o                                 T _ _ _ _ _ _ H d d d d DXDXDXDXDXDXDXDXDXDXDXDXDX",
"DXDXDXDXDXDXDXDXDXDXd d J / / / / / / ( _ _ : ; ; ; ; ; ; ; ; ; ; ; ; ; - @ @ Y / / / / / / u d d d d DXDXDXDXDXDXDXDXDXDXDXDXDX",
"DXDXDXDXDXDXDXDXDXDXDXDXs d d d d d d i _ _ _ _ _ _ _ _ _ _ _ _ _ _ _ _ P d d d d d d d d d DXDXDXDXDXDXDXDXDXDXDXDXDXDXDXDXDXDX",
"DXDXDXDXDXDXDXDXDXDXDXDXs d d d d d d i _ _ _ _ _ _ _ _ _ _ _ _ _ _ _ _ P d d d d d d d d d DXDXDXDXDXDXDXDXDXDXDXDXDXDXDXDXDXDX",
"DXDXDXDXDXDXDXDXDXDXDXDXDXDXDXDXDXd d w y y y y y y y y y y y y y y y y t DXDXDXDXDXDXDXDXDXDXDXDXDXDXDXDXDXDXDXDXDXDXDXDXDXDXDX",
"DXDXDXDXDXDXDXDXDXDXDXDXDXDXDXDXDXd d d d d d d d d d d d d d d d d d d d DXDXDXDXDXDXDXDXDXDXDXDXDXDXDXDXDXDXDXDXDXDXDXDXDXDXDX",
"DXDXDXDXDXDXDXDXDXDXDXDXDXDXDXDXDXDXd d d d d d d d d d d d d d d d d d DXDXDXDXDXDXDXDXDXDXDXDXDXDXDXDXDXDXDXDXDXDXDXDXDXDXDXDX",
"DXDXDXDXDXDXDXDXDXDXDXDXDXDXDXDXDXDXDXDXDXDXDXDXDXDXDXDXDXDXDXDXDXDXDXDXDXDXDXDXDXDXDXDXDXDXDXDXDXDXDXDXDXDXDXDXDXDXDXDXDXDXDXDX",
"DXDXDXDXDXDXDXDXDXDXDXDXDXDXDXDXDXDXDXDXDXDXDXDXDXDXDXDXDXDXDXDXDXDXDXDXDXDXDXDXDXDXDXDXDXDXDXDXDXDXDXDXDXDXDXDXDXDXDXDXDXDXDXDX",
"DXDXDXDXDXDXDXDXDXDXDXDXDXDXDXDXDXDXDXDXDXDXDXDXDXDXDXDXDXDXDXDXDXDXDXDXDXDXDXDXDXDXDXDXDXDXDXDXDXDXDXDXDXDXDXDXDXDXDXDXDXDXDXDX",
"DXDXDXDXDXDXDXDXDXDXDXDXDXDXDXDXDXDXDXDXDXDXDXDXDXDXDXDXDXDXDXDXDXDXDXDXDXDXDXDXDXDXDXDXDXDXDXDXDXDXDXDXDXDXDXDXDXDXDXDXDXDXDXDX",
"DXDXDXDXDXDXDXDXDXDXDXDXDXDXDXDXDXDXDXDXDXDXDXDXDXDXDXDXDXDXDXDXDXDXDXDXDXDXDXDXDXDXDXDXDXDXDXDXDXDXDXDXDXDXDXDXDXDXDXDXDXDXDXDX",
"DXDXDXDXDXDXDXDXDXDXDXDXDXDXDXDXDXDXDXDXDXDXDXDXDXDXDXDXDXDXDXDXDXDXDXDXDXDXDXDXDXDXDXDXDXDXDXDXDXDXDXDXDXDXDXDXDXDXDXDXDXDXDXDX",
"DXDXDXDXDXDXDXDXDXDXDXDXDXDXDXDXDXDXDXDXDXDXDXDXDXDXDXDXDXDXDXDXDXDXDXDXDXDXDXDXDXDXDXDXDXDXDXDXDXDXDXDXDXDXDXDXDXDXDXDXDXDXDXDX",
"DXDXDXDXDXDXDXDXDXDXDXDXDXDXDXDXDXDXDXDXDXDXDXDXDXDXDXDXDXDXDXDXDXDXDXDXDXDXDXDXDXDXDXDXDXDXDXDXDXDXDXDXDXDXDXDXDXDXDXDXDXDXDXDX"
};
