/* XPM */
static char *result[] = {
/* columns rows colors chars-per-pixel */
"64 64 216 2 ",
"   c black",
".  c #070101",
"X  c #130303",
"o  c #160005",
"O  c #140407",
"+  c #160407",
"@  c #170407",
"#  c #180404",
"$  c #190404",
"%  c #1E0506",
"&  c #1C090E",
"*  c #1F141C",
"=  c #240407",
"-  c #250606",
";  c #2D040C",
":  c #2D080E",
">  c #310808",
",  c #3D080A",
"<  c #320D15",
"1  c #3F0B13",
"2  c #351019",
"3  c #37121C",
"4  c #37121D",
"5  c #3A1723",
"6  c #3D1C29",
"7  c #4A0C0C",
"8  c #440813",
"9  c #460C12",
"0  c #430C15",
"q  c #50001F",
"w  c #500E18",
"e  c #5A101C",
"r  c #6D0E13",
"t  c #710B15",
"y  c #700D14",
"u  c #730D15",
"i  c #770C16",
"p  c #621010",
"a  c #631010",
"s  c #61161C",
"d  c #77141A",
"f  c #510922",
"g  c #4C1320",
"h  c #531B2B",
"j  c #6A1726",
"k  c #761C23",
"l  c #402431",
"z  c #402837",
"x  c #6F2439",
"c  c #7F2F47",
"v  c #6E3D56",
"b  c #7B3852",
"n  c #6F4761",
"m  c #88001F",
"M  c #8C081C",
"N  c #8E0120",
"B  c #9E0024",
"V  c #8C1824",
"C  c #88182B",
"Z  c #9E1C31",
"A  c #9E1C32",
"S  c #A00423",
"D  c #B50029",
"F  c #AA1E34",
"G  c #8A202C",
"H  c #A32139",
"J  c #A3213A",
"K  c #B52039",
"L  c #852C45",
"P  c #8B2E47",
"I  c #982C46",
"U  c #823144",
"Y  c #8A3443",
"T  c #9F3542",
"R  c #BA2540",
"E  c #BD2A46",
"W  c #B02D4C",
"Q  c #BE304D",
"!  c #A93A53",
"~  c #B63252",
"^  c #B73A5A",
"/  c #D60052",
"(  c #D8125A",
")  c #D91B5E",
"_  c #C42F4F",
"`  c #C53454",
"'  c #C93456",
"]  c #CE395D",
"[  c #AD405A",
"{  c #804963",
"}  c #804E6A",
"|  c #80516F",
" . c #A44F69",
".. c #B84663",
"X. c #BC4F64",
"o. c #BF4468",
"O. c #BD486D",
"+. c #B9547B",
"@. c #B9557B",
"#. c #C74162",
"$. c #C24065",
"%. c #CD486F",
"&. c #D9446C",
"*. c #D6486F",
"=. c #C7576A",
"-. c #D84B73",
";. c #DE4973",
":. c #DD4F79",
">. c #D15077",
",. c #DC5179",
"<. c #DB577E",
"1. c #E14E79",
"2. c #E2527D",
"3. c #E2527E",
"4. c #FF1884",
"5. c #FE2388",
"6. c #FF3A9A",
"7. c #9F6387",
"8. c #BF7AA7",
"9. c #DA5980",
"0. c #DA5C87",
"q. c #E45380",
"w. c #E25480",
"e. c #E25481",
"r. c #E35581",
"t. c #E75886",
"y. c #E65B88",
"u. c #E65D8A",
"i. c #E75D8A",
"p. c #E65F8E",
"a. c #E95C8B",
"s. c #EA5D8C",
"d. c #FE469F",
"f. c #C9628D",
"g. c #CE7290",
"h. c #DA7998",
"j. c #E46592",
"k. c #E46794",
"l. c #EB6190",
"z. c #E86391",
"x. c #ED6292",
"c. c #EE6292",
"v. c #EA6492",
"b. c #EF6595",
"n. c #EF6797",
"m. c #EA6898",
"M. c #EC6B99",
"N. c #EE6D9C",
"B. c #EF6C9D",
"V. c #F06798",
"C. c #F1699B",
"Z. c #F36C9E",
"A. c #F46C9F",
"S. c #FC4CA1",
"D. c #FF4CA6",
"F. c #EE73A5",
"G. c #EE75A8",
"H. c #F071A1",
"J. c #F771A5",
"K. c #F875A9",
"L. c #F877AC",
"P. c #F979AD",
"I. c #F97CB0",
"U. c #FA7DB1",
"Y. c #F97DB3",
"T. c #DA8D9C",
"R. c #EE8EB5",
"E. c #F780B1",
"W. c #FA85B7",
"Q. c #F884BB",
"!. c #FC85B9",
"~. c #FB89BB",
"^. c #FD89BD",
"/. c #FD8ABE",
"(. c #FE8BBF",
"). c #F090BA",
"_. c #DF8EC2",
"`. c #F78CC3",
"'. c #FB89C1",
"]. c #FD8CC1",
"[. c #FE8CC0",
"{. c #FE8EC2",
"}. c #FF92C6",
"|. c #FF93C7",
" X c #F692C9",
".X c #FF94C9",
"XX c #FE95CB",
"oX c #FF95CB",
"OX c #FC93CD",
"+X c #FF96CC",
"@X c #FE96CE",
"#X c #FF98CF",
"$X c #EF97D0",
"%X c #FB97D1",
"&X c #FD96D0",
"*X c #FE98D0",
"=X c #FF98D0",
"-X c #FF99D1",
";X c #FD99D3",
":X c #FF9AD2",
">X c #FA9FD6",
",X c #FF9CD5",
"<X c #FF9DD7",
"1X c #FF9ED8",
"2X c #FF9FDA",
"3X c #DFB2D5",
"4X c #DFB9D8",
"5X c #FFA0DB",
"6X c #FFA1DD",
"7X c #FFA2DE",
"8X c #FFADE2",
"9X c #DFDCDF",
"0X c #FFCDF4",
"qX c #FFD3F7",
"wX c #FFFBFF",
"eX c None",
/* pixels */
"eXeXeXeXeXeXeXeXeXeXeXeXeXeXeXeXeXeXeXeXeXeXeXeXeXeXeXeXeXeXeXeXeXeXeXeXeXeXeXeXeXeXeXeXeXeXeXeXeXeXeXeXeXeXeXeXeXeXeXeXeXeXeXeX",
"eXeXeXeXeXeXeXeXeXeXeXeXeXeXeXeXeXeXeXeXeXeXeXeXeXeXeXeXeXeXeXeXeXeXeXeXeXeXeXeXeXeXeXeXeXeXeXeXeXeXeXeXeXeXeXeXeXeXeXeXeXeXeXeX",
"eXeXeXeXeXeXeXeXeXeXeXeXeXeXeXeXeXeXeXeXeXeXeXeXeXeXeXeXeXeXeXeXeXeXeXeXeXeXeXeXeXeXeXeXeXeXeXeXeXeXeXeXeXeXeXeXeXeXeXeXeXeXeXeX",
"eXeXeXeXeXeXeXeXeXeXeXeXeXeXeXeXeXeXeXeXeXeXeXeXeXeXeXeXeXeXeXeXeXeXeXeXeXeXeXeXeXeXeXeXeXeXeXeXeXeXeXeXeXeXeXeXeXeXeXeXeXeXeXeX",
"eXeXeXeXeXeXeXeXeXeXeXeXeXeXeXeXeXeXeXeXeXeXeXeXeXeXeXeXeXeXeXeXeXeXeXeXeXeXeXeXeXeXeXeXeXeXeXeXeXeXeXeXeXeXeXeXeXeXeXeXeXeXeXeX",
"eXeXeXeXeXeXeXeXeXeXeXeXeXeXeXeXeXeXeXeXeXeXeXeXeXeXeXeXeXeXeXeXeXeXeXeXeXeXeXeXeXeXeXeXeXeXeXeXeXeXeXeXeXeXeXeXeXeXeXeXeXeXeXeX",
"eXeXeXeXeXeXeXeXeXeXeXeXeXeXeXeXeXeXeXeXeXeXeXeXeXeXeXeXeXeXeXeXeXeXeXeXeXeXeXeXeXeXeXeXeXeXeXeXeXeXeXeXeXeXeXeXeXeXeXeXeXeXeXeX",
"eXeXeXeXeXeXeXeXeXeXeXeXeXeXeXeXeXeXeXeXeXeXeXeXeXeXeXeXeXeXeXeXeXeXeXeXeXeXeXeXeXeXeXeXeXeXeXeXeXeXeXeXeXeXeXeXeXeXeXeXeXeXeXeX",
"eXeXeXeXeXeXeXeXeXeXeXeXeXeXeXeXeXeXeXeXeXeXeXeXeXeXeXeXeXeXeXeXeXeXeXeXeXeXeXeXeXeXeXeXeXeXeXeXeXeXeXeXeXeXeXeXeXeXeXeXeXeXeXeX",
"eXeXeXeXeXeXeXeXeXeXeXeXeXeXeXeXeXeXeXeXeXeXeXeXeXeXeXeXeXeXeXeXeXeXeXeXeXeXeXeXeXeXeXeXeXeXeXeXeXeXeXeXeXeXeXeXeXeXeXeXeXeXeXeX",
"eXeXeXeXeXeXeXeXeXeXeXeXeXeXeXeXeXeXeXeXeXeXeXeXeXeXeXeXeXeXeXeXeXeXeXeXeXeXeXeXeXeXeXeXeXeXeXeXeXeXeXeXeXeXeXeXeXeXeXeXeXeXeXeX",
"eXeXeXeXeXeXeXeXeXeXeXeXeXeX                        eXeXeX                        eXeXeXeXeXeXeXeXeXeXeXeXeXeXeXeXeXeXeXeXeXeXeX",
"eXeXeXeXeXeXeXeXeXeXeXeXeXeX                        eXeXeX                        eXeXeXeXeXeXeXeXeXeXeXeXeXeXeXeXeXeXeXeXeXeXeX",
"eXeXeXeXeXeXeXeXeXeXeXeX    Z K ' ;.1.J.J.J.J.V.;.;.&         ;.;.N.}.}.}.}.P.J.@.    eXeXeXeXeXeXeXeXeXeXeXeXeXeXeXeXeXeXeXeXeX",
"eXeXeXeXeXeXeXeXeXeXeXeX    Z K ' ;.1.J.J.J.J.V.;.;.&         ;.;.N.}.}.}.}.P.J.@.    eXeXeXeXeXeXeXeXeXeXeXeXeXeXeXeXeXeXeXeXeX",
"eXeXeXeXeXeXeXeXeXeXeXeX    W ' ,.N.H.'.'.'.'.Q.G.G.c x x x x ;.;.y.N.M.9.9...[ U         eXeXeXeXeXeXeXeXeXeXeXeXeXeXeXeXeXeXeX",
"eXeXeXeXeXeXeXeXeXeXeXeX    $.;.N.}..X7X7X7X7X7X7X7Xe.;.;.;.;.;.;.;.;.&.K K d a 7           eXeXeXeXeXeXeXeXeXeXeXeXeXeXeXeXeXeX",
"eXeXeXeXeXeXeXeXeXeXeXeX    $.;.N.}..X7X7X7X7X6X5X5Xu.2.2.2.2.w.w.w.w.:.Q Q G k s & & + + O eXeXeXeXeXeXeXeXeXeXeXeXeXeXeXeXeXeX",
"eXeXeXeXeXeXeXeXeXeXeXeX    $.;.N.}..X7X7X7X7X1X}.}.}.}.}.}.}.7X7X7X7X7X7X7XY.J.V.;.;.R K e     eXeXeXeXeXeXeXeXeXeXeXeXeXeXeXeX",
"eXeXeXeXeXeXeXeXeXeXeXeX    $.;.N.}..X7X7X7X7X1X}.}.}.}.}.}.}.7X7X7X7X7X7X7XY.J.V.;.;.R K e     eXeXeXeXeXeXeXeXeXeXeXeXeXeXeXeX",
"eXeXeXeXeXeXeXeXeXeXeXeX    $.;.N.}.|.+X+X+X+XoX}.}.}.}.}.}.}.7X7X7X7X7X7X7X;X&XOX`.`.z.i.^ C C     eXeXeXeXeXeXeXeXeXeXeXeXeXeX",
"eXeXeXeXeXeXeXeXeXeXeXeX    $.;.N.}.}.}.}.}.}.}.}.}.}.}.}.}.}.7X7X7X7X7X7X7X7X7X7X7X7XL.J.*.K K     eXeXeXeXeXeXeXeXeXeXeXeXeXeX",
"eXeXeXeXeXeXeXeXeXeXeXeX    $.;.v.E.E.}.}.}.}.}.}.}.(.^.[.}.}.7X7X7X7X7X8.8.$X7X7X7X7Xf.+.o.` ` # # # eXeXeXeXeXeXeXeXeXeXeXeXeX",
"eXeXeXeXeXeXeXeXeXeXeXeX    $.;.;.;.2.}.}.}.}.}.}.}.K.J.U.}.}.7X7X7X7X_.    8.7X7X7X7X*   b J.J.a a -     eXeXeXeXeXeXeXeXeXeXeX",
"eXeXeXeXeXeXeXeXeXeXeXeX    $.;.;.;.2.}.}.}.}.}.}.}.K.J.U.}.}.7X7X7X7X_.    8.7X7X7X7X*   b J.J.a a -     eXeXeXeXeXeXeXeXeXeXeX",
"eXeXeXeXeXeXeXeXeXeXeXeX    J R <.~.W.K.K.K.K.K.K.K./.{.XX5X5X7X7X7X7X8X9X9XX.Q >.7X7X3X4Xg.E E F F 1     eXeXeXeXeXeXeXeXeXeXeX",
"eXeXeXeXeXeXeXeXeXeXeXeX    Z K 9.}.{.J.J.J.J.J.J.J.{.}.#X7X7X7X7X7X7X8XwXwX=.K #.7X7X0XqXh.K K K K 0     eXeXeXeXeXeXeXeXeXeXeX",
"eXeXeXeXeXeXeXeXeXeXeXeX    W ' k.:X=X'.'.'.'.'.'.'.*X:X<X7X7X7X7X7X7X>XT.T.T V ! 7X7X).R. .e e ' ' g     eXeXeXeXeXeXeXeXeXeXeX",
"eXeXeXeXeXeXeXeXeXeXeXeX    $.;.G.7X7X7X7X7X7X7X7X7X7X7X7X7X7X7X7X7X7X XK K d a Y 7X7Xe.;.x     ;.;.h     eXeXeXeXeXeXeXeXeXeXeX",
"eXeXeXeXeXeXeXeXeXeXeXeX    $.;.G.7X7X7X7X7X7X7X7X7X7X7X7X7X7X7X7X7X7X XK K d a Y 7X7Xe.;.x     ;.;.h     eXeXeXeXeXeXeXeXeXeXeX",
"eXeXeXeXeXeXeXeXeXeXeXeX    $.;.G.7X7X7X7X7X7X7X7X7X7X7X7X7X7X7X7X7X7X%X;.;.3   z 7X7X.X}.{     ;.;.h     eXeXeXeXeXeXeXeXeXeXeX",
"eXeXeXeXeXeXeXeXeXeXeXeX    $.;.G.7X7X7X7X7X7X7X7X7X7X7X7X7X7X7X7X7X7X%X;.;.3   z 7X7X.X}.{     ;.;.h     eXeXeXeXeXeXeXeXeXeXeX",
"eXeXeXeXeXeXeXeXeXeXeXeX    $.;.G.7X7X7X7X7X7X7X7X7X7X7X7X7X7XD.D.D.D.S.c.c.5   z 7X7X<X,X}     ) ) f     eXeXeXeXeXeXeXeXeXeXeX",
"eXeXeXeXeXeXeXeXeXeXeXeX    $.;.G.7X7X7X7X7X7X7X7X7X7X7X7X7X7X4.4.4.4.5.J.J.6   z 7X7X7X7X|     / / q     eXeXeXeXeXeXeXeXeXeXeX",
"eXeXeXeXeXeXeXeXeXeXeXeX    $.;.F.1X1X7X7X7X7X7X7X7X7X7X7X7X7X6.6.6.6.d.Y.Y.v z n 7X7X7X7X7.l l ( ( f     eXeXeXeXeXeXeXeXeXeXeX",
"eXeXeXeXeXeXeXeXeXeXeXeX    $.;.N.}..X7X7X7X7X7X7X7X7X7X7X7X7X7X7X7X7X7X7X7X7X7X7X7X7X7X7X:X}.}.;.;.h     eXeXeXeXeXeXeXeXeXeXeX",
"eXeXeXeXeXeXeXeXeXeXeXeX    $.;.N.}..X7X7X7X7X7X7X7X7X7X7X7X7X7X7X7X7X7X7X7X7X7X7X7X7X7X7X:X}.}.;.;.h     eXeXeXeXeXeXeXeXeXeXeX",
"eXeXeXeXeXeXeXeXeXeXeXeX    $.;.l.P.I.+X+X+X+X-X7X7X7X7X7X7X7X7X7X7X7X7X7X7X7X7X2X+X+Xm.p.B.P.P.;.;.h     eXeXeXeXeXeXeXeXeXeXeX",
"eXeXeXeXeXeXeXeXeXeXeXeX    $.;.s.J.K.}.}.}.}.+X7X7X7X7X7X7X7X7X7X7X7X7X7X7X7X7X1X}.}.3.;.s.J.J.;.;.h     eXeXeXeXeXeXeXeXeXeXeX",
"eXeXeXeXeXeXeXeXeXeXeXeX    L P O.x.n.!.!.!.!.].,X,X,X,X,X,X,X,X,X,X,X,X,X,X,X,X@X!.!.a.t.b.J.J.P P 3     eXeXeXeXeXeXeXeXeXeXeX",
"eXeXeXeXeXeXeXeXeXeXeXeXeXeX    x ;.1.J.J.J.J.P.}.}.}.}.}.}.}.}.}.}.}.}.}.}.}.}.^.J.J.J.J.J.J.J.          eXeXeXeXeXeXeXeXeXeXeX",
"eXeXeXeXeXeXeXeXeXeXeXeXeXeX    x ;.1.J.J.J.J.P.}.}.}.}.}.}.}.}.}.}.}.}.}.}.}.}.^.J.J.J.J.J.J.J.          eXeXeXeXeXeXeXeXeXeXeX",
"eXeXeXeXeXeXeXeXeXeXeXeXeXeX    e K E J.J.J.J.J.J.J.J.J.J.J.J.J.J.J.J.J.J.J.J.J.J.J.J.J.J.*.K K     eXeXeXeXeXeXeXeXeXeXeXeXeXeX",
"eXeXeXeXeXeXeXeXeXeXeXeXeXeX    e K E J.J.J.J.J.J.J.J.J.J.J.J.J.J.J.J.J.J.J.J.J.J.J.J.J.J.*.K K     eXeXeXeXeXeXeXeXeXeXeXeXeXeX",
"eXeXeXeXeXeXeXeXeXeXeXeXeXeX> > 9 e j *.*.r.s.c.J.J.J.J.J.J.J.J.J.J.J.J.J.J.J.J.A.s.s.-.*.I e e     eXeXeXeXeXeXeXeXeXeXeXeXeXeX",
"eXeXeXeXeXeXeXeXeXeXeXeXeXeXp a >   @ K K ] ;.q.J.J.J.J.J.J.J.J.J.J.J.J.J.J.J.J.V.;.;.R K e         eXeXeXeXeXeXeXeXeXeXeXeXeXeX",
"eXeXeXeXeXeXeXeXeXeXeXeXeXeXp a , o ; A A ~ $.%.j.j.n.n.C.Z.Z.Z.Z.Z.Z.Z.n.n.j.j.0.$.$.H A w         eXeXeXeXeXeXeXeXeXeXeXeXeXeX",
"eXeXeXeXeXeXeXeXeXeXeXeXeXeXp a M D B         # a a F K _ ;.;.;.;.;.;.&.K K d a 7               eXeXeXeXeXeXeXeXeXeXeXeXeXeXeXeX",
"eXeXeXeXeXeXeXeXeXeXeXeXeXeXp a M D B         # a a F K _ ;.;.;.;.;.;.&.K K d a 7               eXeXeXeXeXeXeXeXeXeXeXeXeXeXeXeX",
"eXeXeXeXeXeXeXeXeXeXeXeXeXeXeXeXu i t m m m m N S S 8 : < 4 4 4 4 4 4 2 : : % $ X     eXeXeXeXeXeXeXeXeXeXeXeXeXeXeXeXeXeXeXeXeX",
"eXeXeXeXeXeXeXeXeXeXeXeXeXeXeXeXp a r D D D D D D D o                                 eXeXeXeXeXeXeXeXeXeXeXeXeXeXeXeXeXeXeXeXeX",
"eXeXeXeXeXeXeXeXeXeXeXeXeXeXeXeXeXa y S S S S S S S = # # # # # # # # # # # .         eXeXeXeXeXeXeXeXeXeXeXeXeXeXeXeXeXeXeXeXeX",
"eXeXeXeXeXeXeXeXeXeXeXeXeXeXeXeXeXeXeXa a a a a a a a a a a a a a a a a a a eXeXeXeXeXeXeXeXeXeXeXeXeXeXeXeXeXeXeXeXeXeXeXeXeXeX",
"eXeXeXeXeXeXeXeXeXeXeXeXeXeXeXeXeXeXeXa a a a a a a a a a a a a a a a a a a eXeXeXeXeXeXeXeXeXeXeXeXeXeXeXeXeXeXeXeXeXeXeXeXeXeX",
"eXeXeXeXeXeXeXeXeXeXeXeXeXeXeXeXeXeXeXeXeXeXeXeXeXeXeXeXeXeXeXeXeXeXeXeXeXeXeXeXeXeXeXeXeXeXeXeXeXeXeXeXeXeXeXeXeXeXeXeXeXeXeXeX",
"eXeXeXeXeXeXeXeXeXeXeXeXeXeXeXeXeXeXeXeXeXeXeXeXeXeXeXeXeXeXeXeXeXeXeXeXeXeXeXeXeXeXeXeXeXeXeXeXeXeXeXeXeXeXeXeXeXeXeXeXeXeXeXeX",
"eXeXeXeXeXeXeXeXeXeXeXeXeXeXeXeXeXeXeXeXeXeXeXeXeXeXeXeXeXeXeXeXeXeXeXeXeXeXeXeXeXeXeXeXeXeXeXeXeXeXeXeXeXeXeXeXeXeXeXeXeXeXeXeX",
"eXeXeXeXeXeXeXeXeXeXeXeXeXeXeXeXeXeXeXeXeXeXeXeXeXeXeXeXeXeXeXeXeXeXeXeXeXeXeXeXeXeXeXeXeXeXeXeXeXeXeXeXeXeXeXeXeXeXeXeXeXeXeXeX",
"eXeXeXeXeXeXeXeXeXeXeXeXeXeXeXeXeXeXeXeXeXeXeXeXeXeXeXeXeXeXeXeXeXeXeXeXeXeXeXeXeXeXeXeXeXeXeXeXeXeXeXeXeXeXeXeXeXeXeXeXeXeXeXeX",
"eXeXeXeXeXeXeXeXeXeXeXeXeXeXeXeXeXeXeXeXeXeXeXeXeXeXeXeXeXeXeXeXeXeXeXeXeXeXeXeXeXeXeXeXeXeXeXeXeXeXeXeXeXeXeXeXeXeXeXeXeXeXeXeX",
"eXeXeXeXeXeXeXeXeXeXeXeXeXeXeXeXeXeXeXeXeXeXeXeXeXeXeXeXeXeXeXeXeXeXeXeXeXeXeXeXeXeXeXeXeXeXeXeXeXeXeXeXeXeXeXeXeXeXeXeXeXeXeXeX",
"eXeXeXeXeXeXeXeXeXeXeXeXeXeXeXeXeXeXeXeXeXeXeXeXeXeXeXeXeXeXeXeXeXeXeXeXeXeXeXeXeXeXeXeXeXeXeXeXeXeXeXeXeXeXeXeXeXeXeXeXeXeXeXeX",
"eXeXeXeXeXeXeXeXeXeXeXeXeXeXeXeXeXeXeXeXeXeXeXeXeXeXeXeXeXeXeXeXeXeXeXeXeXeXeXeXeXeXeXeXeXeXeXeXeXeXeXeXeXeXeXeXeXeXeXeXeXeXeXeX",
"eXeXeXeXeXeXeXeXeXeXeXeXeXeXeXeXeXeXeXeXeXeXeXeXeXeXeXeXeXeXeXeXeXeXeXeXeXeXeXeXeXeXeXeXeXeXeXeXeXeXeXeXeXeXeXeXeXeXeXeXeXeXeXeX"
};
