/* XPM */
static char *result[] = {
/* columns rows colors chars-per-pixel */
"64 64 232 2 ",
"   c black",
".  c #0C0202",
"X  c #130303",
"o  c #160407",
"O  c #180404",
"+  c #190404",
"@  c #1B0505",
"#  c #13060A",
"$  c #19070A",
"%  c #1A090D",
"&  c #1C090E",
"*  c #1D0D13",
"=  c #1D0E15",
"-  c #1F0E14",
";  c #250606",
":  c #20070A",
">  c #3E0A0A",
",  c #200310",
"<  c #200C16",
"1  c #280B10",
"2  c #201219",
"3  c #20141C",
"4  c #37121C",
"5  c #37121D",
"6  c #3E1F2C",
"7  c #4B0A0F",
"8  c #4A0C0C",
"9  c #560E0E",
"0  c #570E0E",
"q  c #50001E",
"w  c #5A101C",
"e  c #710E18",
"r  c #770D1B",
"t  c #7E0C1F",
"y  c #621010",
"u  c #631010",
"i  c #6D1215",
"p  c #6B1218",
"a  c #77141A",
"s  c #491827",
"d  c #5F1F31",
"f  c #671C2F",
"g  c #711424",
"h  c #402431",
"j  c #402837",
"k  c #6A2027",
"l  c #76222A",
"z  c #6F2439",
"x  c #782131",
"c  c #602B48",
"v  c #7E2B43",
"b  c #603D53",
"n  c #70435D",
"m  c #7C4662",
"M  c #88001E",
"N  c #81161F",
"B  c #800C20",
"V  c #8E0A29",
"C  c #950B29",
"Z  c #881927",
"A  c #8C1824",
"S  c #811E28",
"D  c #961A29",
"F  c #9C0831",
"G  c #961633",
"H  c #B50029",
"J  c #B5082D",
"K  c #A00030",
"L  c #AA0639",
"P  c #B30632",
"I  c #882835",
"U  c #8B2D3D",
"Y  c #902534",
"T  c #912535",
"R  c #902635",
"E  c #96263E",
"W  c #95333D",
"Q  c #B52039",
"!  c #C10038",
"~  c #B90441",
"^  c #B90442",
"/  c #BB135D",
"(  c #862D45",
")  c #8B2E47",
"_  c #8B2D48",
"`  c #8E324E",
"'  c #9A3447",
"]  c #A02C41",
"[  c #BA2540",
"{  c #BD2A46",
"}  c #BF2A48",
"|  c #BE2E4B",
" . c #B0344E",
".. c #A73756",
"X. c #AD3852",
"o. c #B23E5A",
"O. c #BF1263",
"+. c #CA0043",
"@. c #D60052",
"#. c #C11455",
"$. c #C41558",
"%. c #CF395D",
"&. c #DB1265",
"*. c #EF0F71",
"=. c #EB1776",
"-. c #D43F64",
";. c #DC376A",
":. c #E63D77",
">. c #97455C",
",. c #9D475E",
"<. c #A94451",
"1. c #AD405A",
"2. c #B9425F",
"3. c #9A4667",
"4. c #80516F",
"5. c #8F5B7D",
"6. c #A64C6F",
"7. c #B24B68",
"8. c #B1516B",
"9. c #C74162",
"0. c #C24065",
"q. c #C14666",
"w. c #CF486D",
"e. c #D5446A",
"r. c #D6486F",
"t. c #C7576A",
"y. c #DE4973",
"u. c #D15077",
"i. c #D05177",
"p. c #D6547B",
"a. c #DE537D",
"s. c #D2597F",
"d. c #E6447B",
"f. c #E6457D",
"g. c #E04E78",
"h. c #E14E79",
"j. c #E2527D",
"k. c #E4537F",
"l. c #FF1884",
"z. c #FF3694",
"x. c #FF3A9A",
"c. c #9F658A",
"v. c #D85580",
"b. c #D25980",
"n. c #D65C84",
"m. c #DC5A85",
"M. c #E25480",
"N. c #E25481",
"B. c #E55582",
"V. c #E75885",
"C. c #E65B87",
"Z. c #E15D87",
"A. c #E65B88",
"S. c #E15C88",
"D. c #E75D8A",
"F. c #E65D8B",
"G. c #E65F8D",
"H. c #E65F8E",
"J. c #EA5D8C",
"K. c #D07283",
"L. c #C46C91",
"P. c #EA608E",
"I. c #E46592",
"U. c #EA6492",
"Y. c #ED6C9B",
"T. c #EE6D9C",
"R. c #F06798",
"E. c #F16798",
"W. c #F46C9F",
"Q. c #FD4CA0",
"!. c #FF51A7",
"~. c #DF74A1",
"^. c #D87EAA",
"/. c #D87EAB",
"(. c #F06FA0",
"). c #F36FA1",
"_. c #F66FA2",
"`. c #E371A0",
"'. c #EF73A3",
"]. c #F771A5",
"[. c #F074A4",
"{. c #F875A9",
"}. c #F877AC",
"|. c #F778AB",
" X c #F979AD",
".X c #F07EB1",
"XX c #F07FB2",
"oX c #F97DB0",
"OX c #FA7DB1",
"+X c #F97DB2",
"@X c #DA8D9C",
"#X c #ED81B4",
"$X c #EF83B8",
"%X c #F780B1",
"&X c #F380B6",
"*X c #F381B6",
"=X c #FB81B5",
"-X c #F686BC",
";X c #FC85B9",
":X c #FC86BA",
">X c #FC87BB",
",X c #FB89BC",
"<X c #FD8ABE",
"1X c #EB8FC4",
"2X c #F18FC1",
"3X c #F78CC3",
"4X c #FB89C1",
"5X c #FE8DC2",
"6X c #FE8EC2",
"7X c #FC8FC9",
"8X c #FE90C5",
"9X c #FF92C6",
"0X c #FC90C9",
"qX c #FC92CB",
"wX c #FF94C9",
"eX c #FF96CC",
"rX c #FE97CE",
"tX c #FB97D1",
"yX c #F599D1",
"uX c #FF99D1",
"iX c #FF9AD2",
"pX c #FF9CD5",
"aX c #FE9CD7",
"sX c #FF9ED8",
"dX c #FE9FDA",
"fX c #FF9FDA",
"gX c #FFA0DB",
"hX c #FFA1DD",
"jX c #FFA2DE",
"kX c #FFB8E6",
"lX c #FFFBFF",
"zX c None",
/* pixels */
"zXzXzXzXzXzXzXzXzXzXzXzXzXzXzXzXzXzXzXzXzXzXzXzXzXzXzXzXzXzXzXzXzXzXzXzXzXzXzXzXzXzXzXzXzXzXzXzXzXzXzXzXzXzXzXzXzXzXzXzXzXzXzXzX",
"zXzXzXzXzXzXzXzXzXzXzXzXzXzXzXzXzXzXzXzXzXzXzXzXzXzXzXzXzXzXzXzXzXzXzXzXzXzXzXzXzXzXzXzXzXzXzXzXzXzXzXzXzXzXzXzXzXzXzXzXzXzXzXzX",
"zXzXzXzXzXzXzXzXzXzXzXzXzXzXzXzXzXzXzXzXzXzXzXzXzXzXzXzXzXzXzXzXzXzXzXzXzXzXzXzXzXzXzXzXzXzXzXzXzXzXzXzXzXzXzXzXzXzXzXzXzXzXzXzX",
"zXzXzXzXzXzXzXzXzXzXzXzXzXzXzXzXzXzXzXzXzXzXzXzXzXzXzXzXzXzXzXzXzXzXzXzXzXzXzXzXzXzXzXzXzXzXzXzXzXzXzXzXzXzXzXzXzXzXzXzXzXzXzXzX",
"zXzXzXzXzXzXzXzXzXzXzXzXzXzXzXzXzXzXzXzXzXzXzXzXzXzXzXzXzXzXzXzXzXzXzXzXzXzXzXzXzXzXzXzXzXzXzXzXzXzXzXzXzXzXzXzXzXzXzXzXzXzXzXzX",
"zXzXzXzXzXzXzXzXzXzXzXzXzXzXzXzXzXzXzXzXzXzXzXzXzXzXzXzXzXzXzXzXzXzXzXzXzXzXzXzXzXzXzXzXzXzXzXzXzXzXzXzXzXzXzXzXzXzXzXzXzXzXzXzX",
"zXzXzXzXzXzXzXzXzXzXzXzXzXzXzXzXzXzXzXzXzXzXzXzXzXzXzXzXzXzXzXzXzXzXzXzXzXzXzXzXzXzXzXzXzXzXzXzXzXzXzXzXzXzXzXzXzXzXzXzXzXzXzXzX",
"zXzXzXzXzXzXzXzXzXzXzXzXzXzXzXzXzXzXzXzXzXzXzXzXzXzXzXzXzXzXzXzXzXzXzXzXzXzXzXzXzXzXzXzXzXzXzXzXzXzXzXzXzXzXzXzXzXzXzXzXzXzXzXzX",
"zXzXzXzXzXzXzXzXzXzXzXzXzXzXzXzXzXzXzXzXzXzXzXzXzXzXzXzXzXzXzXzXzXzXzXzXzXzXzXzXzXzXzXzXzXzXzXzXzXzXzXzXzXzXzXzXzXzXzXzXzXzXzXzX",
"zXzXzXzXzXzXzXzXzXzXzXzXzX                        zXzXzXzXzXzXzXzX                  zXzXzXzXzXzXzXzXzXzXzXzXzXzXzXzXzXzXzXzXzXzX",
"zXzXzXzXzXzXzXzXzXzXzXzXzX                        zXzXzXzXzXzXzX                    zXzXzXzXzXzXzXzXzXzXzXzXzXzXzXzXzXzXzXzXzXzX",
"zXzXzXzXzXzXzXzXzXzXzXzXzXo o % - - - - & & $ o o zXzXzXzXzXzXzX# & * 2 2 3 3 = & & zXzXzXzXzXzXzXzXzXzXzXzXzXzXzXzXzXzXzXzXzXzX",
"zXzXzXzXzXzXzXzXzXzXzX    Q Q r.].].].].k.y.-.Q Q o             _ y.C.9X9XsXjX&Xy.y.      zXzXzXzXzXzXzXzXzXzXzXzXzXzXzXzXzXzXzX",
"zXzXzXzXzXzXzXzXzXzXzX    Q Q r.].].].].k.y.-.Q Q o             _ y.C.9X9XsXjX&Xy.y.      zXzXzXzXzXzXzXzXzXzXzXzXzXzXzXzXzXzXzX",
"zXzXzXzXzXzXzXzXzXzXzX    a.a.Y.:X>X0X0X-X*XXX`.`.6.3.( g g ) ) 0.y.g.U.U.p.i.2.T T           zXzXzXzXzXzXzXzXzXzXzXzXzXzXzXzXzX",
"zXzXzXzXzXzXzXzXzXzXzX    ].].=X9XwXjXjXjXjXjXjXjX}.].r.Q Q y.y.y.y.y.y.y.} Q D u u           zXzXzXzXzXzXzXzXzXzXzXzXzXzXzXzXzX",
"zXzXzXzXzXzXzXzXzXzXzX    ].].=X9XwXjXjXjXjXjXjXjX+X XZ.9.9.G.G.G.G.G.G.G.w.9.X.I I 4 4 1 O @ zXzXzXzXzXzXzXzXzXzXzXzXzXzXzXzXzX",
"zXzXzXzXzXzXzXzXzXzXzX    ].].=X9XwXjXjXjXjXjXjXjXwX9XiXjXjXjXjXjXjXjXjXjXjXjX7X].].y.y.] u 0     zXzXzXzXzXzXzXzXzXzXzXzXzXzXzX",
"zXzXzXzXzXzXzXzXzXzXzX    ].].=X9XwXjXjXjXjXjXjXjXwX9XiXjXjXjXjXjXjXjXjXjXjXjX7X].].y.y.] u 0     zXzXzXzXzXzXzXzXzXzXzXzXzXzXzX",
"zXzXzXzXzXzXzXzXzXzXzX    h.h.(.9X9XwXwXfXjXjXjXjXgXgXhXjXjXjXjXjXjXjXjXjXjXjXdXaXaXtXtX.XI.b.9 9 X     zXzXzXzXzXzXzXzXzXzXzXzX",
"zXzXzXzXzXzXzXzXzXzXzX    y.y.T.9X9X9X9XsXjXjXjXjXjXjXjXjXjXjXjXjXjXjXjXjXjXjXjXjXjXjXjX4X].I.u u +     zXzXzXzXzXzXzXzXzXzXzXzX",
"zXzXzXzXzXzXzXzXzXzXzX     . .n.;X>X9X9XuXpXpXpXpXhXjXjXjXjXjXjXjXjX1XL.L.yXjXjXjXjXL.L.~.OX'.Y Y :     zXzXzXzXzXzXzXzXzXzXzXzX",
"zXzXzXzXzXzXzXzXzXzXzX    u u 1.].{.9X9X9X9X9X9X9XgXjXjXjXjXjXjXjXjX^.u u /.jXjXjXjXu u 8.9X,Xy.y.4     zXzXzXzXzXzXzXzXzXzXzXzX",
"zXzXzXzXzXzXzXzXzXzXzX    u u 1.].{.9X9X9X9X9X9X9XgXjXjXjXjXjXjXjXjX^.u u /.jXjXjXjXu u 8.9X,Xy.y.4     zXzXzXzXzXzXzXzXzXzXzXzX",
"zXzXzXzXzXzXzXzXzXzXzXzXzX    w Q { ].].].]. X9X9XgXjXjXjXjXjXjXjXjXkXlXlXt.Q u.jXjXlXlX@XQ | 9X9XA.y...    zXzXzXzXzXzXzXzXzXzX",
"zXzXzXzXzXzXzXzXzXzXzXzXzX    w Q { ].].].]. X9X9XgXjXjXjXjXjXjXjXjXkXlXlXt.Q u.jXjXlXlX@XQ | 9X9XA.y...    zXzXzXzXzXzXzXzXzXzX",
"zXzXzXzXzXzXzXzXzXzXzXzXzX    f %.e.0X0X0X0XqXpXpXhXjXjXjXjXjXjXjXjX2XK.K.W N 7.jXjXK.K.<.N R pXpXF.y...    zXzXzXzXzXzXzXzXzXzX",
"zXzXzXzXzXzXzXzXzXzXzXzXzX    z y.M.jXjXjXjXjXjXjXjXjXjXjXjXjXjXjXjX#XQ Q a u ,.jXjXQ Q A u l jXjXH.y...    zXzXzXzXzXzXzXzXzXzX",
"zXzXzXzXzXzXzXzXzXzXzXzXzX    z y.M.jXjXjXjXjXjXjXjXjXjXjXjXjXjXjXjX$X[ [ p 9 >.jXjX[ [ Z 9 k jXjXH.y...    zXzXzXzXzXzXzXzXzXzX",
"zXzXzXzXzXzXzXzXzXzXzXzXzX    z y.M.jXjXjXjXjXjXjXjXjXjXjXjXjXjXjXjX3Xy.y.4   b jXjXy.y.z   3 jXjXH.y...    zXzXzXzXzXzXzXzXzXzX",
"zXzXzXzXzXzXzXzXzXzXzXzXzX    z y.M.jXjXjXjXjXjXjXjXjXjXjXjXjXjXjXjX3Xy.y.4   b jXjXy.y.z   3 jXjXH.y...    zXzXzXzXzXzXzXzXzXzX",
"zXzXzXzXzXzXzXzXzXzXzXzXzX    z y.M.jXjXjXjXjXjXjXjXjXjXjXjXx.x.x.x.Q.%X%X6   b jXjX3X3Xm   < x.x.f.y...    zXzXzXzXzXzXzXzXzXzX",
"zXzXzXzXzXzXzXzXzXzXzXzXzX    z y.M.jXjXjXjXjXjXjXjXjXjXjXjXl.l.l.l.z.9X9Xh   b jXjXjXjX4.  , l.l.:.y...    zXzXzXzXzXzXzXzXzXzX",
"zXzXzXzXzXzXzXzXzXzXzXzXzX    z y.M.sXsXhXjXjXjXjXjXjXjXjXjXx.x.x.x.!.eXeXn j 5.jXjXjXjXc.j c z.z.d.y...    zXzXzXzXzXzXzXzXzXzX",
"zXzXzXzXzXzXzXzXzXzXzXzXzX    z y.j.9X9XsXjXjXjXjXjXjXjXjXjXjXjXjXjXjXjXjXjXjXjXjXjXjXjXjXjXgX9X9XA.y...    zXzXzXzXzXzXzXzXzXzX",
"zXzXzXzXzXzXzXzXzXzXzXzXzX    z y.j.9X9XsXjXjXjXjXjXjXjXjXjXjXjXjXjXjXjXjXjXjXjXjXjXjXjXjXjXgX9X9XA.y...    zXzXzXzXzXzXzXzXzXzX",
"zXzXzXzXzXzXzXzXzXzXzXzXzX    z y.h.{.{.5XwXwXwXwXgXjXjXjXjXjXjXjXjXjXjXjXjXjXjXjXjXN.N.[.wX8X{.{.B.y...    zXzXzXzXzXzXzXzXzXzX",
"zXzXzXzXzXzXzXzXzXzXzXzXzX    z y.h.].].<X9X9X9X9XgXjXjXjXjXjXjXjXjXjXjXjXjXjXjXjXjXy.y.T.9X6X].].k.y...    zXzXzXzXzXzXzXzXzXzX",
"zXzXzXzXzXzXzXzXzXzXzXzXzX    s z v J.J.|.=X=X=X=XrXiXiXiXiXiXiXiXiXiXiXiXiXiXiXiXiXJ.J.).=XoXJ.J.` z d     zXzXzXzXzXzXzXzXzXzX",
"zXzXzXzXzXzXzXzXzXzXzXzXzXzXzX    & y.y.E.].].].].6X9X9X9X9X9X9X9X9X9X9X9X9X9X9X9X9X].].].].W.y.y.4     zXzXzXzXzXzXzXzXzXzXzXzX",
"zXzXzXzXzXzXzXzXzXzXzXzXzXzXzX    & y.y.E.].].].].6X9X9X9X9X9X9X9X9X9X9X9X9X9X9X9X9X].].].].W.y.y.4     zXzXzXzXzXzXzXzXzXzXzXzX",
"zXzXzXzXzXzXzXzXzXzXzXzXzXzXzX    . u u b.].].].].].].].].].].].].].].].].].].].].].].].].].I.u u +     zXzXzXzXzXzXzXzXzXzXzXzX",
"zXzXzXzXzXzXzXzXzXzXzXzXzXzXzX    . u u b.].].].].].].].].].].].].].].].].].].].].].].].].].I.u u +     zXzXzXzXzXzXzXzXzXzXzXzX",
"zXzXzXzXzXzXzXzXzXzXzXzXzXzXzX> > 7 L L E ' o.V.V._.].].].].].].].].].].].].].].].].V.V.q.' U ; ; O zXzXzXzXzXzXzXzXzXzXzXzXzXzX",
"zXzXzXzXzXzXzXzXzXzXzXzXzXzXzXy u e @.@.B u S y.y.W.].].].].].].].].].].].].].].].].y.y.] u 0     zXzXzXzXzXzXzXzXzXzXzXzXzXzXzX",
"zXzXzXzXzXzXzXzXzXzXzXzXzXzXzXzXu r ^ ^ V B G ;.;.v.s.m.D.D.R.R.R.R.R.R.R.P.D.S.s.s.....x 8 > O O zXzXzXzXzXzXzXzXzXzXzXzXzXzXzX",
"zXzXzXzXzXzXzXzXzXzXzXzXzXzXzXzXzXzXu u ^ @.@.@.@.e u A Q Q y.y.y.y.y.y.y.} Q D u u         . u u zXzXzXzXzXzXzXzXzXzXzXzXzXzXzX",
"zXzXzXzXzXzXzXzXzXzXzXzXzXzXzXzXzXzXu u ^ @.@.@.@.e u A Q Q y.y.y.y.y.y.y.} Q D u u         . u u zXzXzXzXzXzXzXzXzXzXzXzXzXzXzX",
"zXzXzXzXzXzXzXzXzXzXzXzXzXzXzXzXzXzXzXzXt B B B B u u i a a 5 5 5 5 5 5 5 C J P ~ ~ O.O.O.O./ u u zXzXzXzXzXzXzXzXzXzXzXzXzXzXzX",
"zXzXzXzXzXzXzXzXzXzXzXzXzXzXzXzXzXzXzXzXu u u u u u u u u u               M H ! @.@.l.l.l.l.=.u u zXzXzXzXzXzXzXzXzXzXzXzXzXzXzX",
"zXzXzXzXzXzXzXzXzXzXzXzXzXzXzXzXzXzXzXzXzXu u u u u u u u u q q q q q q q K ! +.@.@.*.*.&.$.#.u u zXzXzXzXzXzXzXzXzXzXzXzXzXzXzX",
"zXzXzXzXzXzXzXzXzXzXzXzXzXzXzXzXzXzXzXzXzXzXzXzXzXzXzXy u u @.@.@.@.@.@.@.@.@.@.@.@.@.@.F u u zXzXzXzXzXzXzXzXzXzXzXzXzXzXzXzXzX",
"zXzXzXzXzXzXzXzXzXzXzXzXzXzXzXzXzXzXzXzXzXzXzXzXzXzXzXy u u @.@.@.@.@.@.@.@.@.@.@.@.@.@.F u u zXzXzXzXzXzXzXzXzXzXzXzXzXzXzXzXzX",
"zXzXzXzXzXzXzXzXzXzXzXzXzXzXzXzXzXzXzXzXzXzXzXzXzXzXzXzXzXzXu u u u u u u u u u u u u u y zXzXzXzXzXzXzXzXzXzXzXzXzXzXzXzXzXzXzX",
"zXzXzXzXzXzXzXzXzXzXzXzXzXzXzXzXzXzXzXzXzXzXzXzXzXzXzXzXzXzXu u u u u u u u u u u u u u y zXzXzXzXzXzXzXzXzXzXzXzXzXzXzXzXzXzXzX",
"zXzXzXzXzXzXzXzXzXzXzXzXzXzXzXzXzXzXzXzXzXzXzXzXzXzXzXzXzXzXy y y y y y y y y y y y y y zXzXzXzXzXzXzXzXzXzXzXzXzXzXzXzXzXzXzXzX",
"zXzXzXzXzXzXzXzXzXzXzXzXzXzXzXzXzXzXzXzXzXzXzXzXzXzXzXzXzXzXzXzXzXzXzXzXzXzXzXzXzXzXzXzXzXzXzXzXzXzXzXzXzXzXzXzXzXzXzXzXzXzXzXzX",
"zXzXzXzXzXzXzXzXzXzXzXzXzXzXzXzXzXzXzXzXzXzXzXzXzXzXzXzXzXzXzXzXzXzXzXzXzXzXzXzXzXzXzXzXzXzXzXzXzXzXzXzXzXzXzXzXzXzXzXzXzXzXzXzX",
"zXzXzXzXzXzXzXzXzXzXzXzXzXzXzXzXzXzXzXzXzXzXzXzXzXzXzXzXzXzXzXzXzXzXzXzXzXzXzXzXzXzXzXzXzXzXzXzXzXzXzXzXzXzXzXzXzXzXzXzXzXzXzXzX",
"zXzXzXzXzXzXzXzXzXzXzXzXzXzXzXzXzXzXzXzXzXzXzXzXzXzXzXzXzXzXzXzXzXzXzXzXzXzXzXzXzXzXzXzXzXzXzXzXzXzXzXzXzXzXzXzXzXzXzXzXzXzXzXzX",
"zXzXzXzXzXzXzXzXzXzXzXzXzXzXzXzXzXzXzXzXzXzXzXzXzXzXzXzXzXzXzXzXzXzXzXzXzXzXzXzXzXzXzXzXzXzXzXzXzXzXzXzXzXzXzXzXzXzXzXzXzXzXzXzX",
"zXzXzXzXzXzXzXzXzXzXzXzXzXzXzXzXzXzXzXzXzXzXzXzXzXzXzXzXzXzXzXzXzXzXzXzXzXzXzXzXzXzXzXzXzXzXzXzXzXzXzXzXzXzXzXzXzXzXzXzXzXzXzXzX",
"zXzXzXzXzXzXzXzXzXzXzXzXzXzXzXzXzXzXzXzXzXzXzXzXzXzXzXzXzXzXzXzXzXzXzXzXzXzXzXzXzXzXzXzXzXzXzXzXzXzXzXzXzXzXzXzXzXzXzXzXzXzXzXzX",
"zXzXzXzXzXzXzXzXzXzXzXzXzXzXzXzXzXzXzXzXzXzXzXzXzXzXzXzXzXzXzXzXzXzXzXzXzXzXzXzXzXzXzXzXzXzXzXzXzXzXzXzXzXzXzXzXzXzXzXzXzXzXzXzX"
};
