/* XPM */
static char *result[] = {
/* columns rows colors chars-per-pixel */
"64 64 171 2 ",
"   c #000000",
".  c #0B0203",
"X  c #160306",
"o  c #1C090E",
"O  c #15090C",
"+  c #1F0E14",
"@  c #1F141C",
"#  c #250606",
"$  c #2D010A",
"%  c #28070C",
"&  c #38080B",
"*  c #3A0C15",
"=  c #20131B",
"-  c #37121D",
";  c #3E2230",
":  c #43000F",
">  c #560E0E",
",  c #440C15",
"<  c #5A0416",
"1  c #5A101C",
"2  c #511014",
"3  c #6C0E13",
"4  c #710019",
"5  c #740D17",
"6  c #631010",
"7  c #75131D",
"8  c #5E1321",
"9  c #521B2B",
"0  c #571727",
"q  c #6A1C2D",
"w  c #711424",
"e  c #402736",
"r  c #5C2A3E",
"t  c #6F2439",
"y  c #7E2338",
"u  c #503345",
"i  c #6E2B40",
"p  c #603D53",
"a  c #7B3852",
"s  c #78334C",
"d  c #7B4058",
"f  c #704662",
"g  c #605E60",
"h  c #6B5A60",
"j  c #87001F",
"k  c #830A19",
"l  c #8C081C",
"z  c #960620",
"x  c #9E0024",
"c  c #86192B",
"v  c #88182B",
"b  c #961A29",
"n  c #8E1831",
"m  c #9E1C32",
"M  c #991236",
"N  c #A00423",
"B  c #AA0126",
"V  c #B50029",
"C  c #B00127",
"Z  c #902239",
"A  c #8D253B",
"S  c #B52039",
"D  c #C7063F",
"F  c #B1144A",
"G  c #A00F52",
"H  c #8B2E47",
"J  c #962C47",
"K  c #8C304B",
"L  c #BD2A46",
"P  c #BF2A48",
"I  c #BA2540",
"U  c #BE304D",
"Y  c #A73756",
"T  c #CE0048",
"R  c #D2004D",
"E  c #D60052",
"W  c #DE065C",
"Q  c #E1065E",
"!  c #CE2B57",
"~  c #CE395D",
"^  c #C63454",
"/  c #D22156",
"(  c #DC0E62",
")  c #D81667",
"_  c #E40D63",
"`  c #EA0C6B",
"'  c #E21D6A",
"]  c #CE3E62",
"[  c #D43760",
"{  c #D63867",
"}  c #DB3769",
"|  c #E02A6E",
" . c #E22A71",
".. c #804B65",
"X. c #9A4667",
"o. c #80516F",
"O. c #905B7D",
"+. c #B04A6E",
"@. c #B9557B",
"#. c #966B7E",
"$. c #C54164",
"%. c #CF4267",
"&. c #D94069",
"*. c #D6486F",
"=. c #D4466D",
"-. c #DE4973",
";. c #DD4673",
":. c #D55279",
">. c #E14E7A",
",. c #E2527D",
"<. c #FF1884",
"1. c #F72480",
"2. c #A05C86",
"3. c #907787",
"4. c #A6678C",
"5. c #BF79A7",
"6. c #D75882",
"7. c #E25480",
"8. c #E75885",
"9. c #E65E8C",
"0. c #EA5D8C",
"q. c #F95A9D",
"w. c #C56B91",
"e. c #DC6996",
"r. c #D56793",
"t. c #ED6494",
"y. c #EA6897",
"u. c #F46C9E",
"i. c #F16798",
"p. c #FF4CA6",
"a. c #F46EA1",
"s. c #E371A0",
"d. c #EE75A8",
"f. c #ED77A6",
"g. c #F771A5",
"h. c #F876AA",
"j. c #F979AD",
"k. c #F678AB",
"l. c #FA7DB1",
"z. c #FB79B3",
"x. c #EF77B5",
"c. c #FF7FC7",
"v. c #AF809F",
"b. c #DE88BB",
"n. c #EE81B4",
"m. c #F680B2",
"M. c #FB81B5",
"N. c #F683BB",
"B. c #FC85B9",
"V. c #FD8ABF",
"C. c #E3A9B5",
"Z. c #DF8EC2",
"A. c #F78CC3",
"S. c #FC8DC3",
"D. c #FF88CD",
"F. c #EC90C5",
"G. c #FF92C6",
"H. c #FF94CA",
"J. c #FF98CF",
"K. c #F692CA",
"L. c #EF98D0",
"P. c #FE93D2",
"I. c #FF9CD5",
"U. c #FF9ED8",
"Y. c #E68FC3",
"T. c #FFA2DE",
"R. c #FFCEEE",
"E. c #F6E0E6",
"W. c #FFE5F7",
"Q. c #FFFBFF",
"!. c None",
/* pixels */
"!.!.!.!.!.!.!.!.!.!.!.!.!.!.!.!.!.!.!.!.!.!.!.!.!.!.!.!.!.!.!.!.!.!.!.!.!.!.!.!.!.!.!.!.!.!.!.!.!.!.!.!.!.!.!.!.!.!.!.!.!.!.!.!.",
"!.!.!.!.!.!.!.!.!.!.!.!.!.!.!.!.!.!.!.!.!.!.!.!.!.!.!.!.!.!.!.!.!.!.!.!.!.!.!.!.!.!.!.!.!.!.!.!.!.!.!.!.!.!.!.!.!.!.!.!.!.!.!.!.",
"!.!.!.!.!.!.!.!.!.!.!.!.!.!.!.!.!.!.!.!.!.!.!.!.!.!.!.!.!.!.!.!.!.!.!.!.!.!.!.!.!.!.!.!.!.!.!.!.!.!.!.!.!.!.!.!.!.!.!.!.!.!.!.!.",
"!.!.!.!.!.!.!.!.!.!.!.!.!.!.!.!.!.!.!.!.!.!.!.!.!.!.!.!.!.!.!.!.!.!.!.!.!.!.!.!.!.!.!.!.!.!.!.!.!.!.!.!.!.!.!.!.!.!.!.!.!.!.!.!.",
"!.!.!.!.!.!.!.!.!.!.!.!.!.!.!.!.!.!.!.!.!.!.!.!.!.!.!.!.!.!.!.!.!.!.!.!.!.!.!.!.!.!.!.!.!.!.!.!.!.!.!.!.!.!.!.!.!.!.!.!.!.!.!.!.",
"!.!.!.!.!.!.!.!.!.!.!.!.!.!.!.!.!.!.!.!.!.!.!.!.!.!.!.!.!.!.!.!.!.!.!.!.!.!.!.!.!.!.!.!.!.!.!.!.!.!.!.!.!.!.!.!.!.!.!.!.!.!.!.!.",
"!.!.!.!.!.!.!.!.!.!.!.!.!.!.!.!.!.!.!.!.!.!.!.!.!.!.!.!.!.!.!.!.!.!.!.!.!.!.!.!.!.!.!.!.!.!.!.!.!.!.!.!.!.!.!.!.!.!.!.!.!.!.!.!.",
"!.!.!.!.!.!.!.!.!.!.!.!.!.!.!.!.!.!.!.!.!.!.!.!.!.!.!.!.!.!.!.!.!.!.!.!.!.!.!.!.!.!.!.!.!.!.!.!.!.!.!.!.!.!.!.!.!.!.!.!.!.!.!.!.",
"!.!.!.!.!.!.!.!.!.!.!.!.!.!.!.!.!.!.!.!.!.!.!.!.!.!.!.!.!.!.!.!.!.!.!.!.!.!.!.!.!.!.!.!.!.!.!.!.!.!.!.!.!.!.!.!.!.!.!.!.!.!.!.!.",
"!.!.!.!.!.!.!.!.!.!.!.!.!.!.!.!.!.!.!.!.!.!.!.!.!.!.!.!.!.!.!.!.!.!.!.!.!.!.!.!.!.!.!.!.!.!.!.!.!.!.!.!.!.!.!.!.!.!.!.!.!.!.!.!.",
"!.!.!.!.!.!.!.!.!.!.!.!.!.!.                      !.!.!.                            !.!.!.!.!.!.!.!.!.!.!.!.!.!.!.!.!.!.!.!.!.!.",
"!.!.!.!.!.!.!.!.!.!.!.!.!.                          !.!.                              !.!.!.!.!.!.!.!.!.!.!.!.!.!.!.!.!.!.!.!.!.",
"!.!.!.!.!.!.!.!.!.!.!.    * 1 1 t t s a a a a 8 1 *     1 1 q t t t t d ....o.o.O             !.!.!.!.!.!.!.!.!.!.!.!.!.!.!.!.!.",
"!.!.!.!.!.!.!.!.!.!.!.    1 S I -.-.t.g.g.g.g.L S 1     S S ~ -.-.-.-.m.G.J.T.T.@             !.!.!.!.!.!.!.!.!.!.!.!.!.!.!.!.!.",
"!.!.!.!.!.!.!.!.!.!.!.    6 I ^ ,.,.a.j.j.h.h.^ L q o o U U *.,.7.7.7.m.G.J.U.T.; + o X X     !.!.!.!.!.!.!.!.!.!.!.!.!.!.!.!.!.",
"!.!.!.!.!.!.!.!.!.!.!.    t *.>.G.G.U.T.T.T.T.j.g.0.-.-.T.T.T.T.T.T.T.J.G.G.G.G.h.g.*.S m           !.!.!.!.!.!.!.!.!.!.!.!.!.!.",
"!.!.!.!.!.!.!.!.!.!.!.    t -.,.H.H.J.T.T.T.T.k.h.0.-.-.T.T.T.T.T.T.T.H.G.G.G.G.h.g.*.S Z           !.!.!.!.!.!.!.!.!.!.!.!.!.!.",
"!.!.!.!.!.!.!.!.!.!.!.    t -.,.G.G.T.T.T.T.T.V.M.m.f.h.T.T.T.T.T.T.T.U.I.I.U.U.K.G.n.s.e.H H -         !.!.!.!.!.!.!.!.!.!.!.!.",
"!.!.!.!.!.!.!.!.!.!.!.    t -.,.G.G.T.T.T.T.T.G.G.G.G.G.T.T.T.T.T.T.T.T.T.T.T.T.T.T.T.T.J.>.-.9         !.!.!.!.!.!.!.!.!.!.!.!.",
"!.!.!.!.!.!.!.!.!.!.!.    t -.,.G.G.J.T.T.J.T.H.G.G.G.G.T.T.T.T.T.T.T.T.T.T.T.T.T.T.T.T.H.9.9.t % #     !.!.!.!.!.!.!.!.!.!.!.!.",
"!.!.!.!.!.!.!.!.!.!.!.    t -.,.G.G.G.G.V.G.G.G.G.G.G.G.T.T.T.T.T.T.T.T.T.T.T.T.T.T.T.T.T.T.T.:.S v     !.!.!.!.!.!.!.!.!.!.!.!.",
"!.!.!.!.!.!.!.!.!.!.!.    t -.,.G.G.G.G.G.G.G.G.G.G.G.G.T.T.T.T.T.T.T.T.T.T.T.T.T.T.T.T.T.T.T.:.S v     !.!.!.!.!.!.!.!.!.!.!.!.",
"!.!.!.!.!.!.!.!.!.!.!.    * 7 c ,.,.B.G.G.G.G.m.h.M.G.G.T.T.T.T.T.T.T.u = f T.T.T.T.O.= e G.G.k.i.+.          !.!.!.!.!.!.!.!.!.",
"!.!.!.!.!.!.!.!.!.!.!.    & 6 7 -.-.m.G.G.G.V.h.g.M.G.G.T.T.T.T.T.T.T.e   p T.T.T.T.o.  @ G.G.m.h.@.          !.!.!.!.!.!.!.!.!.",
"!.!.!.!.!.!.!.!.!.!.!.    % & 2 ~ ~ f.B.B.B.B.m.m.V.J.J.T.T.T.T.T.T.T.3.g #.s.s.I.T.5.g g e.9.m.N.r., , .     !.!.!.!.!.!.!.!.!.",
"!.!.!.!.!.!.!.!.!.!.!.!.!.    X S S 9.g.g.g.g.V.G.J.T.T.T.T.T.T.T.T.T.W.Q.C.S S K.T.R.Q.E.S S s.T.n.S S X     !.!.!.!.!.!.!.!.!.",
"!.!.!.!.!.!.!.!.!.!.!.!.!.    X S S 9.g.g.g.k.V.G.I.T.T.T.T.T.T.T.T.T.W.Q.C.S S K.T.R.Q.E.S S s.T.n.S S X     !.!.!.!.!.!.!.!.!.",
"!.!.!.!.!.!.!.!.!.!.!.!.!.    o -.-.V.T.T.T.T.T.T.T.T.T.T.T.T.T.T.T.T.$.S b 6 6 F.T.d.;.] 6 6 w.T.A.-.-.o     !.!.!.!.!.!.!.!.!.",
"!.!.!.!.!.!.!.!.!.!.!.!.!.    o -.-.A.T.T.T.T.T.T.T.T.T.T.T.T.T.T.T.T.$.S b 6 6 F.T.d.;.%.6 6 w.T.A.-.-.o     !.!.!.!.!.!.!.!.!.",
"!.!.!.!.!.!.!.!.!.!.!.!.!.    o -.-.F.T.T.T.T.T.T.T.T.T.T.T.T.T.T.T.T.:.~ A # # Y.T.N.t.6.# % 4.T.A.-.-.o     !.!.!.!.!.!.!.!.!.",
"!.!.!.!.!.!.!.!.!.!.!.!.!.    o -.-.V.T.T.T.T.T.T.T.T.T.T.T.T.T.T.T.T.9.-.H     Z.T.S.g.r.    4.T.A.-.-.o     !.!.!.!.!.!.!.!.!.",
"!.!.!.!.!.!.!.!.!.!.!.!.!.    + -.-.V.T.T.T.T.T.T.T.T.T.T.T.U.P.P.P.P.t.,.K     Z.T.S.h.e.    2.P.N.-.-.o     !.!.!.!.!.!.!.!.!.",
"!.!.!.!.!.!.!.!.!.!.!.!.!.    o -.-.A.T.T.T.T.T.T.T.T.T.T.T.p.<.<.<.<.q.a.X.    Z.T.T.T.Z.    G <.1.-.-.o     !.!.!.!.!.!.!.!.!.",
"!.!.!.!.!.!.!.!.!.!.!.!.!.    o -.-.A.T.T.T.T.T.T.T.T.T.T.T.p.<.<.<.<.q.g.X.    Z.T.T.T.Z.    G <.1.-.-.o     !.!.!.!.!.!.!.!.!.",
"!.!.!.!.!.!.!.!.!.!.!.!.!.    o L ^ f.J.J.T.T.T.T.T.T.T.T.T.D.c.c.c.c.P.P.b.5.5.T.T.T.T.L.5.5.x.z.i.P P X     !.!.!.!.!.!.!.!.!.",
"!.!.!.!.!.!.!.!.!.!.!.!.!.    X S S f.G.J.T.T.T.T.T.T.T.T.T.T.T.T.T.T.T.T.T.T.T.T.T.T.T.T.T.T.J.S.f.S S X     !.!.!.!.!.!.!.!.!.",
"!.!.!.!.!.!.!.!.!.!.!.!.!.# # % 7 w e.M.S.U.I.I.U.I.I.I.T.T.T.T.T.T.T.T.T.T.T.T.T.J.G.m.N.I.I.G.B.r.w w .     !.!.!.!.!.!.!.!.!.",
"!.!.!.!.!.!.!.!.!.!.!.!.!.6 6 >     @.g.j.G.G.G.G.G.G.G.T.T.T.T.T.T.T.T.T.T.T.T.H.G.y.-.,.G.G.m.g.@.          !.!.!.!.!.!.!.!.!.",
"!.!.!.!.!.!.!.!.!.!.!.!.!.6 6 >     @.g.j.G.G.G.G.G.G.G.T.T.T.T.T.T.T.T.T.T.T.T.G.G.y.-.,.G.G.j.g.@.          !.!.!.!.!.!.!.!.!.",
"!.!.!.!.!.!.!.!.!.!.!.6 6 l B z     n L ~ h.g.h.h.h.h.h.H.H.H.G.H.H.H.H.H.H.H.H.j.h.g.u.u.h.h.=.P Z     !.!.!.!.!.!.!.!.!.!.!.!.",
"!.!.!.!.!.!.!.!.!.!.!.6 6 l V N     v S ^ a.g.g.g.g.g.g.G.G.G.G.G.G.G.G.G.G.G.G.h.g.g.g.g.g.g.] S c     !.!.!.!.!.!.!.!.!.!.!.!.",
"!.!.!.!.!.!.!.!.!.!.!.6 6 l V B < < 1 1 y 0.0.a.g.g.g.g.M.M.M.M.M.M.M.M.M.M.l.M.g.g.g.g.a.0.0.H 1 ,     !.!.!.!.!.!.!.!.!.!.!.!.",
"!.!.!.!.!.!.!.!.!.!.!.6 6 l V V V V $   * ;.>.u.g.g.g.g.g.g.g.g.g.g.g.g.g.g.g.g.g.g.g.g.a.-.-.9         !.!.!.!.!.!.!.!.!.!.!.!.",
"!.!.!.!.!.!.!.!.!.!.!.6 6 l V V V V : X * +.] 0.i.u.g.g.g.g.g.g.g.g.g.g.g.g.g.g.g.g.u.t.0.&.&.0 . .     !.!.!.!.!.!.!.!.!.!.!.!.",
"!.!.!.!.!.!.!.!.!.!.!.6 6 l V V V V V V j     m S *.g.g.g.g.g.g.g.g.g.g.g.g.g.g.g.g.{ V V V V k 6 6 !.!.!.!.!.!.!.!.!.!.!.!.!.!.",
"!.!.!.!.!.!.!.!.!.!.!.6 6 l V V V V V V j     m S *.g.g.g.g.g.g.g.g.g.g.g.g.g.g.g.g.{ V V V V k 6 6 !.!.!.!.!.!.!.!.!.!.!.!.!.!.",
"!.!.!.!.!.!.!.!.!.!.!.!.!.5 k l V V V V B 4 4 , , 9 r r [ %.-.8.8.8.8.8.8.;.! ! |  .' _ _ _ _ M 6 6 !.!.!.!.!.!.!.!.!.!.!.!.!.!.",
"!.!.!.!.!.!.!.!.!.!.!.!.!.6 6 3 V V V V V V V X         S S ~ >.-.-.-.-.-.! V V R E ` <.<.<.<.M 6 6 !.!.!.!.!.!.!.!.!.!.!.!.!.!.",
"!.!.!.!.!.!.!.!.!.!.!.!.!.6 6 3 N N C V V V V & $ $ $ $ c v J Y Y [ [ } } / D D W Q ( ) ) ) ) n 6 6 !.!.!.!.!.!.!.!.!.!.!.!.!.!.",
"!.!.!.!.!.!.!.!.!.!.!.!.!.6 6 6 6 6 N V V V V V V V V V         X V V T E _ <.<.<.<.F 6 6 6 6 !.!.!.!.!.!.!.!.!.!.!.!.!.!.!.!.!.",
"!.!.!.!.!.!.!.!.!.!.!.!.!.6 6 6 6 6 N V V V V V V V V V         X V V T E _ <.<.<.<.F 6 6 6 6 !.!.!.!.!.!.!.!.!.!.!.!.!.!.!.!.!.",
"!.!.!.!.!.!.!.!.!.!.!.!.!.!.!.!.6 6 3 3 k V V V V V V V > > > > > 3 3 5 5 5 w 7 7 7 7 !.!.!.!.!.!.!.!.!.!.!.!.!.!.!.!.!.!.!.!.!.",
"!.!.!.!.!.!.!.!.!.!.!.!.!.!.!.!.6 6 6 6 5 V V V V V V V 6 6 6 6 6 6 6 6 6 6 6 6 6 6 6 !.!.!.!.!.!.!.!.!.!.!.!.!.!.!.!.!.!.!.!.!.",
"!.!.!.!.!.!.!.!.!.!.!.!.!.!.!.!.6 6 6 6 5 z z z z z z z 6 6 6 6 6 6 6 6 6 6 6 6 6 6 !.!.!.!.!.!.!.!.!.!.!.!.!.!.!.!.!.!.!.!.!.!.",
"!.!.!.!.!.!.!.!.!.!.!.!.!.!.!.!.!.!.!.!.!.6 6 6 6 6 6 6 !.!.!.!.!.!.!.!.!.!.!.!.!.!.!.!.!.!.!.!.!.!.!.!.!.!.!.!.!.!.!.!.!.!.!.!.",
"!.!.!.!.!.!.!.!.!.!.!.!.!.!.!.!.!.!.!.!.!.6 6 6 6 6 6 6 !.!.!.!.!.!.!.!.!.!.!.!.!.!.!.!.!.!.!.!.!.!.!.!.!.!.!.!.!.!.!.!.!.!.!.!.",
"!.!.!.!.!.!.!.!.!.!.!.!.!.!.!.!.!.!.!.!.!.!.!.!.!.!.!.!.!.!.!.!.!.!.!.!.!.!.!.!.!.!.!.!.!.!.!.!.!.!.!.!.!.!.!.!.!.!.!.!.!.!.!.!.",
"!.!.!.!.!.!.!.!.!.!.!.!.!.!.!.!.!.!.!.!.!.!.!.!.!.!.!.!.!.!.!.!.!.!.!.!.!.!.!.!.!.!.!.!.!.!.!.!.!.!.!.!.!.!.!.!.!.!.!.!.!.!.!.!.",
"!.!.!.!.!.!.!.!.!.!.!.!.!.!.!.!.!.!.!.!.!.!.!.!.!.!.!.!.!.!.!.!.!.!.!.!.!.!.!.!.!.!.!.!.!.!.!.!.!.!.!.!.!.!.!.!.!.!.!.!.!.!.!.!.",
"!.!.!.!.!.!.!.!.!.!.!.!.!.!.!.!.!.!.!.!.!.!.!.!.!.!.!.!.!.!.!.!.!.!.!.!.!.!.!.!.!.!.!.!.!.!.!.!.!.!.!.!.!.!.!.!.!.!.!.!.!.!.!.!.",
"!.!.!.!.!.!.!.!.!.!.!.!.!.!.!.!.!.!.!.!.!.!.!.!.!.!.!.!.!.!.!.!.!.!.!.!.!.!.!.!.!.!.!.!.!.!.!.!.!.!.!.!.!.!.!.!.!.!.!.!.!.!.!.!.",
"!.!.!.!.!.!.!.!.!.!.!.!.!.!.!.!.!.!.!.!.!.!.!.!.!.!.!.!.!.!.!.!.!.!.!.!.!.!.!.!.!.!.!.!.!.!.!.!.!.!.!.!.!.!.!.!.!.!.!.!.!.!.!.!.",
"!.!.!.!.!.!.!.!.!.!.!.!.!.!.!.!.!.!.!.!.!.!.!.!.!.!.!.!.!.!.!.!.!.!.!.!.!.!.!.!.!.!.!.!.!.!.!.!.!.!.!.!.!.!.!.!.!.!.!.!.!.!.!.!.",
"!.!.!.!.!.!.!.!.!.!.!.!.!.!.!.!.!.!.!.!.!.!.!.!.!.!.!.!.!.!.!.!.!.!.!.!.!.!.!.!.!.!.!.!.!.!.!.!.!.!.!.!.!.!.!.!.!.!.!.!.!.!.!.!."
};
