/* XPM */
static char *result[] = {
/* columns rows colors chars-per-pixel */
"64 64 182 2 ",
"   c #000000",
".  c #0D0202",
"X  c #160206",
"o  c #1C090E",
"O  c #1D0009",
"+  c #1F0E14",
"@  c #1F1219",
"#  c #240606",
"$  c #29050B",
"%  c #31080A",
"&  c #3B0B0C",
"*  c #32000A",
"=  c #380715",
"-  c #37121D",
";  c #2B0E16",
":  c #3D1C29",
">  c #4A0C0C",
",  c #45000F",
"<  c #440C16",
"1  c #5A0513",
"2  c #48111C",
"3  c #5A101C",
"4  c #610115",
"5  c #710019",
"6  c #770C16",
"7  c #631010",
"8  c #6E1215",
"9  c #641119",
"0  c #400621",
"q  c #401F31",
"w  c #4C1928",
"e  c #7E0E21",
"r  c #671C2B",
"t  c #711424",
"y  c #76192B",
"u  c #5D2B3D",
"i  c #562131",
"p  c #402837",
"a  c #77222A",
"s  c #6F2439",
"d  c #612032",
"f  c #603D53",
"g  c #7B3952",
"h  c #7E455F",
"j  c #7E4965",
"k  c #87001E",
"l  c #8C081C",
"z  c #96061F",
"x  c #82161F",
"c  c #8E0A29",
"v  c #82002E",
"b  c #87182B",
"n  c #961A2B",
"m  c #850033",
"M  c #9E1C32",
"N  c #AA0226",
"B  c #B50029",
"V  c #B5082D",
"C  c #BE0334",
"Z  c #BE123B",
"A  c #B51936",
"S  c #882835",
"D  c #81233A",
"F  c #8C253B",
"G  c #912535",
"H  c #B52039",
"J  c #B60F4F",
"K  c #8B2D47",
"L  c #8B2D48",
"P  c #8A3443",
"I  c #9F314E",
"U  c #BA2540",
"Y  c #BD2A46",
"T  c #BF2A48",
"R  c #B0344E",
"E  c #A73756",
"W  c #BE3C52",
"Q  c #A92E45",
"!  c #CA0149",
"~  c #D3034E",
"^  c #C51B45",
"/  c #D60052",
"(  c #DB0358",
")  c #C41558",
"_  c #E1065E",
"`  c #C6204A",
"'  c #C63355",
"]  c #C73C5D",
"[  c #CE395D",
"{  c #C93456",
"}  c #C32C54",
"|  c #D71462",
" . c #EA0C6B",
".. c #E40E67",
"X. c #EF0F71",
"o. c #F41176",
"O. c #F9147C",
"+. c #F6157A",
"@. c #CE3E63",
"#. c #D43760",
"$. c #D63867",
"%. c #E63D77",
"&. c #E33B7E",
"*. c #EA2277",
"=. c #804963",
"-. c #9A4667",
";. c #80516F",
":. c #9A5575",
">. c #A05B7C",
",. c #B15977",
"<. c #BC476B",
"1. c #9D6869",
"2. c #C74162",
"3. c #C6496B",
"4. c #D6486F",
"5. c #DE4973",
"6. c #DE4675",
"7. c #DB537D",
"8. c #D2597F",
"9. c #E14E79",
"0. c #E2527D",
"q. c #C5627C",
"w. c #FF1884",
"e. c #FD1680",
"r. c #F02B80",
"t. c #E63C81",
"y. c #FF3594",
"u. c #BF79A7",
"i. c #D85A82",
"p. c #EA498C",
"a. c #E25581",
"s. c #E75986",
"d. c #E75E8C",
"f. c #EA5D8C",
"g. c #E5538F",
"h. c #F84494",
"j. c #C96486",
"k. c #DA618B",
"l. c #D17283",
"z. c #DF759F",
"x. c #E6628E",
"c. c #EE6393",
"v. c #E96B9A",
"b. c #E46791",
"n. c #F36C9E",
"m. c #FF51A3",
"M. c #CF7BAF",
"N. c #D87EAA",
"B. c #F66FA2",
"V. c #E472A2",
"C. c #ED75A3",
"Z. c #F771A5",
"A. c #F876AA",
"S. c #F87BAE",
"D. c #F97DB2",
"F. c #F57FB4",
"G. c #FF7FC7",
"H. c #CF84B4",
"J. c #EE81B4",
"K. c #F381B6",
"L. c #FB81B5",
"P. c #FC86BA",
"I. c #FC89BC",
"U. c #F288BD",
"Y. c #DF8EC2",
"T. c #F78BC2",
"R. c #FE8DC2",
"E. c #FC87C7",
"W. c #EC90C5",
"Q. c #EB9BC8",
"!. c #FF92C6",
"~. c #FE93C9",
"^. c #FF98CF",
"/. c #F692C9",
"(. c #FE93D2",
"). c #FF9AD3",
"_. c #FF9ED8",
"`. c #FFA2DE",
"'. c #FFB8E6",
"]. c #FBE5EE",
"[. c #FFFBFF",
"{. c None",
/* pixels */
"{.{.{.{.{.{.{.{.{.{.{.{.{.{.{.{.{.{.{.{.{.{.{.{.{.{.{.{.{.{.{.{.{.{.{.{.{.{.{.{.{.{.{.{.{.{.{.{.{.{.{.{.{.{.{.{.{.{.{.{.{.{.{.{.",
"{.{.{.{.{.{.{.{.{.{.{.{.{.{.{.{.{.{.{.{.{.{.{.{.{.{.{.{.{.{.{.{.{.{.{.{.{.{.{.{.{.{.{.{.{.{.{.{.{.{.{.{.{.{.{.{.{.{.{.{.{.{.{.{.",
"{.{.{.{.{.{.{.{.{.{.{.{.{.{.{.{.{.{.{.{.{.{.{.{.{.{.{.{.{.{.{.{.{.{.{.{.{.{.{.{.{.{.{.{.{.{.{.{.{.{.{.{.{.{.{.{.{.{.{.{.{.{.{.{.",
"{.{.{.{.{.{.{.{.{.{.{.{.{.{.{.{.{.{.{.{.{.{.{.{.{.{.{.{.{.{.{.{.{.{.{.{.{.{.{.{.{.{.{.{.{.{.{.{.{.{.{.{.{.{.{.{.{.{.{.{.{.{.{.{.",
"{.{.{.{.{.{.{.{.{.{.{.{.{.{.{.{.{.{.{.{.{.{.{.{.{.{.{.{.{.{.{.{.{.{.{.{.{.{.{.{.{.{.{.{.{.{.{.{.{.{.{.{.{.{.{.{.{.{.{.{.{.{.{.{.",
"{.{.{.{.{.{.{.{.{.{.{.{.{.{.{.{.{.{.{.{.{.{.{.{.{.{.{.{.{.{.{.{.{.{.{.{.{.{.{.{.{.{.{.{.{.{.{.{.{.{.{.{.{.{.{.{.{.{.{.{.{.{.{.{.",
"{.{.{.{.{.{.{.{.{.{.{.{.{.{.{.{.{.{.{.{.{.{.{.{.{.{.{.{.{.{.{.{.{.{.{.{.{.{.{.{.{.{.{.{.{.{.{.{.{.{.{.{.{.{.{.{.{.{.{.{.{.{.{.{.",
"{.{.{.{.{.{.{.{.{.{.{.{.{.{.{.{.{.{.{.{.{.{.{.{.{.{.{.{.{.{.{.{.{.{.{.{.{.{.{.{.{.{.{.{.{.{.{.{.{.{.{.{.{.{.{.{.{.{.{.{.{.{.{.{.",
"{.{.{.{.{.{.{.{.{.{.{.{.{.{.{.{.{.{.{.{.{.{.{.{.{.{.{.{.{.{.{.{.{.{.{.{.{.{.{.{.{.{.{.{.{.{.{.{.{.{.{.{.{.{.{.{.{.{.{.{.{.{.{.{.",
"{.{.{.{.{.{.{.{.{.{.{.{.{.{.{.{.{.{.{.{.{.{.{.{.{.{.{.{.{.{.{.{.{.{.{.{.{.{.{.{.{.{.{.{.{.{.{.{.{.{.{.{.{.{.{.{.{.{.{.{.{.{.{.{.",
"{.{.{.{.{.{.{.{.{.{.{.{.{.{.                    {.{.{.{.{.{.{.{.{.{.                  {.{.{.{.{.{.{.{.{.{.{.{.{.{.{.{.{.{.{.{.{.",
"{.{.{.{.{.{.{.{.{.{.{.{.{.{.                    {.{.{.{.{.{.{.{.{.{.                  {.{.{.{.{.{.{.{.{.{.{.{.{.{.{.{.{.{.{.{.{.",
"{.{.{.{.{.{.{.{.{.{.{.{.    < 3 r g g h j g s s                   ; s s j j j g g 3 3 %   {.{.{.{.{.{.{.{.{.{.{.{.{.{.{.{.{.{.{.",
"{.{.{.{.{.{.{.{.{.{.{.{.    t H ' Z.Z.I.!.A.5.5.                  - 5.5._.`.T.Z.Z.H A <     {.{.{.{.{.{.{.{.{.{.{.{.{.{.{.{.{.{.",
"{.{.{.{.{.{.{.{.{.{.{.{.    y Y ] A.S.I.~.J.0.a.+ + o X X o o o o w 5.5.U./.K.n.n.Y Y 2     {.{.{.{.{.{.{.{.{.{.{.{.{.{.{.{.{.{.",
"{.{.{.{.{.{.{.{.{.{.{.{.    -.Z.L.`.`.`.`.`.`.`.Z.A.4.H U 5.5.5.5.5.5.5.U H { 5.5.Z.Z.u         {.{.{.{.{.{.{.{.{.{.{.{.{.{.{.{.",
"{.{.{.{.{.{.{.{.{.{.{.{.    -.Z.D.`.`.`.`.`.`.`.Z.Z.4.H U 5.5.5.5.5.5.5.H H { 5.5.Z.Z.u         {.{.{.{.{.{.{.{.{.{.{.{.{.{.{.{.",
"{.{.{.{.{.{.{.{.{.{.{.{.    :.I.R.`.`.`.`.`.`.`.E.~.J.V.V.K.K.K.K.K.K.K.C.V.v.c.c.@.@.I K d     {.{.{.{.{.{.{.{.{.{.{.{.{.{.{.{.",
"{.{.{.{.{.{.{.{.{.{.{.{.    >.~.~.`.`.`.`.`.`.`.`.`.`.`.`.`.`.`.`.`.`.`.`.`.T.Z.Z.H H [ 5.E     {.{.{.{.{.{.{.{.{.{.{.{.{.{.{.{.",
"{.{.{.{.{.{.{.{.{.{.{.{.    :.I.R._._.`._._._._._._.`.`.`.`.`.`.`.`.`.`.`.`.E.D.F.2.2.5.5.E     {.{.{.{.{.{.{.{.{.{.{.{.{.{.{.{.",
"{.{.{.{.{.{.{.{.{.{.{.{.    -.Z.S.!.!.!.!.!.!.!.!.!.).`.`.`.`.`.`.`.`.`.`.`.`.`.`.`.`.v.5.E           {.{.{.{.{.{.{.{.{.{.{.{.{.",
"{.{.{.{.{.{.{.{.{.{.{.{.    -.Z.S.!.!.!.!.!.!.!.!.!.)._.`.`.`.`.`.`.`.`.`.`.`.`.`.`.`.v.5.E           {.{.{.{.{.{.{.{.{.{.{.{.{.",
"{.{.{.{.{.{.{.{.{.{.{.{.    L 7.f.!.!.!.!.P.A.A.!.!.).`.`.`.`.`.`.N.a a W.`.`.`.`.a a j.I.v.M M #     {.{.{.{.{.{.{.{.{.{.{.{.{.",
"{.{.{.{.{.{.{.{.{.{.{.{.    L 5.s.!.!.!.!.P.Z.Z.!.!.).`.`.`.`.`.`.H.7 7 W.`.`.`.`.7 7 j.!.C.H H ;     {.{.{.{.{.{.{.{.{.{.{.{.{.",
"{.{.{.{.{.{.{.{.{.{.{.{.    r R 3.P.P.P.P.L.D.D.^.^._.`.`.`.`.`.`.Q.1.1.z.V.U.`.`.1.1.q.b.x.2.@.;     {.{.{.{.{.{.{.{.{.{.{.{.{.",
"{.{.{.{.{.{.{.{.{.{.{.{.    > 7 S Z.Z.Z.Z.D.!.!.`.`.`.`.`.`.`.`.`.'.[.[.W H k.`.`.[.[.l.H { Z.Z.q         {.{.{.{.{.{.{.{.{.{.{.",
"{.{.{.{.{.{.{.{.{.{.{.{.    & 7 S Z.Z.Z.Z.D.!.!.`.`.`.`.`.`.`.`.`.'.[.[.W H k.`.`.[.[.l.H ' Z.Z.:         {.{.{.{.{.{.{.{.{.{.{.",
"{.{.{.{.{.{.{.{.{.{.{.{.    t H 2.`.`.`.`.`.`.`.`.`.`.`.`.`.`.`.`.J.H H 8 7 ,.`.`.H H x 7 P `.`.2.A t     {.{.{.{.{.{.{.{.{.{.{.",
"{.{.{.{.{.{.{.{.{.{.{.{.    t A 2.`.`.`.`.`.`.`.`.`.`.`.`.`.`.`.`.J.H H 8 7 ,.`.`.A H x 7 P `.`.2.H t     {.{.{.{.{.{.{.{.{.{.{.",
"{.{.{.{.{.{.{.{.{.{.{.{.    D [ 7.`.`.`.`.`.`.`.`.`.`.`.`.`.`.`.`.T.[ [ & # :.`.`.[ [ r # u `.`.7.[ D     {.{.{.{.{.{.{.{.{.{.{.",
"{.{.{.{.{.{.{.{.{.{.{.{.    L 5.d.`.`.`.`.`.`.`.`.`.`.`.`.`.`.`.`.T.5.5.@   j `.`.5.5.i   p _.`.d.5.L     {.{.{.{.{.{.{.{.{.{.{.",
"{.{.{.{.{.{.{.{.{.{.{.{.    L 5.d.`.`.`.`.`.`.`.`.`.`.`.`.(.(.(.(.T.0.7.+   j `.`.a.0.i   q (.(.x.9.L     {.{.{.{.{.{.{.{.{.{.{.",
"{.{.{.{.{.{.{.{.{.{.{.{.    K 5.x.`.`.`.`.`.`.`.`.`.`.`.(.w.w.w.w.y.!.!.@   ;.`.`.`.`.f   = w.w.&.5.K     {.{.{.{.{.{.{.{.{.{.{.",
"{.{.{.{.{.{.{.{.{.{.{.{.    K 5.d.`.`.`.`.`.`.`.`.`.`.`.(.w.w.w.w.y.!.~.@   ;.`.`.`.`.f   0 w.w.%.5.K     {.{.{.{.{.{.{.{.{.{.{.",
"{.{.{.{.{.{.{.{.{.{.{.{.    K 5.x.`.`.`.`.`.`.`.`.`.`.`.(.G.E.G.G.E._._.u.u.Y.`.`.`.`.H.M.M.G.G.@.T y     {.{.{.{.{.{.{.{.{.{.{.",
"{.{.{.{.{.{.{.{.{.{.{.{.    K 5.d.`.`.`.`.`.`.`.`.`.`.`.`.`.`.`.`.`.`.`.`.`.`.`.`.`.`.`.`.`.`.`.2.H t     {.{.{.{.{.{.{.{.{.{.{.",
"{.{.{.{.{.{.{.{.{.{.{.{.# # F [ 7.)._.`.`.`.`.`.`.`.`.`.`.`.`.`.`.`.`.`.`.`.`.`.`.K.K.).`.(.F.F.' A e # # {.{.{.{.{.{.{.{.{.{.{.",
"{.{.{.{.{.{.{.{.{.    . 7 7 n H ] ~.!._.`.`.`.`.`.`.`.`.`.`.`.`.`.`.`.`.`.`.`.`.`.5.5.K.`.T.6.5.Z B z 7 7       {.{.{.{.{.{.{.{.",
"{.{.{.{.{.{.{.{.{.    . 7 7 n H ] !.!._.`.`.`.`.`.`.`.`.`.`.`.`.`.`.`.`.`.`.`.`.`.5.5.K.`.T.5.5.Z B z 7 7       {.{.{.{.{.{.{.{.",
"{.{.{.{.{.{.{.{.{.    X N N B B ^ A.A.R.~.~.~.~.~.~.).`.`.`.`.`.`.`.`.`.`.`.).~.~.I.I.t.| g.].].h.+...! !       {.{.{.{.{.{.{.{.",
"{.{.{.{.{.{.{.{.{.    X B B B B ^ Z.Z.I.!.!.!.!.!.!.).`.`.`.`.`.`.`.`.`.`.`.^.!.!.!.!.&./ 9.[.[.m.w.X./ /       {.{.{.{.{.{.{.{.",
"{.{.{.{.{.{.{.{.{.    X B B B B Z 5.4.C.L.L.L.L.L.L.!.^.).).).).).).).).).^.R.L.L.p.p.*.X.*.E.I.y.w.+. . .      {.{.{.{.{.{.{.{.",
"{.{.{.{.{.{.{.{.{.    X B B B B V H H d.Z.Z.Z.Z.Z.Z.L.!.!.!.!.!.!.!.!.!.!.!.L.Z.Z./ / X.w.w.w.w.w.w.w.w.w.      {.{.{.{.{.{.{.{.",
"{.{.{.{.{.{.{.{.{.    X B B B B V A A s.n.B.Z.Z.Z.Z.L.I.I.!.R.R.R.R.R.R.!.R.D.n.n.( ( o.w.w.w.w.w.w.w.e.O.      {.{.{.{.{.{.{.{.",
"{.{.{.{.{.{.{.{.{.    X B B B B B B B #.5.s.Z.Z.Z.Z.Z.Z.Z.Z.Z.Z.Z.Z.Z.Z.Z.Z.f.5.5.w.w.w.w.w.w.w.w.w.X./ /       {.{.{.{.{.{.{.{.",
"{.{.{.{.{.{.{.{.{.    X B B B B B B B [ 5.s.Z.Z.Z.Z.Z.Z.Z.Z.Z.Z.Z.Z.Z.Z.Z.Z.f.5.5.w.w.w.w.w.w.w.w.w.X./ /       {.{.{.{.{.{.{.{.",
"{.{.{.{.{.{.{.{.{.    X B B B B B B B n G Q @.@.s.s.c.Z.Z.Z.Z.Z.Z.Z.Z.Z.Z.Z.6.^ ^ w.w.w.w.w.w.w.w.w.| c c       {.{.{.{.{.{.{.{.",
"{.{.{.{.{.{.{.{.{.    X B B B B B B B 6 7 b H A 5.5.x.Z.Z.Z.Z.Z.Z.Z.Z.Z.Z.Z.$.B B w.w.w.w.w.w.w.w.e.) 7 7       {.{.{.{.{.{.{.{.",
"{.{.{.{.{.{.{.{.{.{.  # k k k k k k k 1 > 9 b b E E <.8.8.x.x.s.d.d.d.d.i.i.} B B w.w.w.w.w.w.w.+.+.J > >     {.{.{.{.{.{.{.{.{.",
"{.{.{.{.{.{.{.{.{.{.{.{.                            % 7 8 H H H A H H H 8 7 l B B w.w.w.w.w.w.w.( / m     {.{.{.{.{.{.{.{.{.{.{.",
"{.{.{.{.{.{.{.{.{.{.{.{.                            % 7 8 H H H H H H H 8 7 l B B w.w.w.w.w.w.w._ / m     {.{.{.{.{.{.{.{.{.{.{.",
"{.{.{.{.{.{.{.{.{.{.{.{.{.{.{.{.{.{.{.{.{.{.{.{.    . . . X o X X X X X . . 4 B B ( ( ( ( ~ C C = O X {.{.{.{.{.{.{.{.{.{.{.{.{.",
"{.{.{.{.{.{.{.{.{.{.{.{.{.{.{.{.{.{.{.{.{.{.{.{.                            1 B B / / / / ! B B *     {.{.{.{.{.{.{.{.{.{.{.{.{.",
"{.{.{.{.{.{.{.{.{.{.{.{.{.{.{.{.{.{.{.{.{.{.{.{.                            , 5 5 m m m m m 5 5 *   {.{.{.{.{.{.{.{.{.{.{.{.{.{.",
"{.{.{.{.{.{.{.{.{.{.{.{.{.{.{.{.{.{.{.{.{.{.{.{.{.{.{.{.{.{.{.{.{.{.{.{.{.{.                    {.{.{.{.{.{.{.{.{.{.{.{.{.{.{.{.",
"{.{.{.{.{.{.{.{.{.{.{.{.{.{.{.{.{.{.{.{.{.{.{.{.{.{.{.{.{.{.{.{.{.{.{.{.{.{.                    {.{.{.{.{.{.{.{.{.{.{.{.{.{.{.{.",
"{.{.{.{.{.{.{.{.{.{.{.{.{.{.{.{.{.{.{.{.{.{.{.{.{.{.{.{.{.{.{.{.{.{.{.{.{.{.{.{.{.{.{.{.{.{.{.{.{.{.{.{.{.{.{.{.{.{.{.{.{.{.{.{.",
"{.{.{.{.{.{.{.{.{.{.{.{.{.{.{.{.{.{.{.{.{.{.{.{.{.{.{.{.{.{.{.{.{.{.{.{.{.{.{.{.{.{.{.{.{.{.{.{.{.{.{.{.{.{.{.{.{.{.{.{.{.{.{.{.",
"{.{.{.{.{.{.{.{.{.{.{.{.{.{.{.{.{.{.{.{.{.{.{.{.{.{.{.{.{.{.{.{.{.{.{.{.{.{.{.{.{.{.{.{.{.{.{.{.{.{.{.{.{.{.{.{.{.{.{.{.{.{.{.{.",
"{.{.{.{.{.{.{.{.{.{.{.{.{.{.{.{.{.{.{.{.{.{.{.{.{.{.{.{.{.{.{.{.{.{.{.{.{.{.{.{.{.{.{.{.{.{.{.{.{.{.{.{.{.{.{.{.{.{.{.{.{.{.{.{.",
"{.{.{.{.{.{.{.{.{.{.{.{.{.{.{.{.{.{.{.{.{.{.{.{.{.{.{.{.{.{.{.{.{.{.{.{.{.{.{.{.{.{.{.{.{.{.{.{.{.{.{.{.{.{.{.{.{.{.{.{.{.{.{.{.",
"{.{.{.{.{.{.{.{.{.{.{.{.{.{.{.{.{.{.{.{.{.{.{.{.{.{.{.{.{.{.{.{.{.{.{.{.{.{.{.{.{.{.{.{.{.{.{.{.{.{.{.{.{.{.{.{.{.{.{.{.{.{.{.{.",
"{.{.{.{.{.{.{.{.{.{.{.{.{.{.{.{.{.{.{.{.{.{.{.{.{.{.{.{.{.{.{.{.{.{.{.{.{.{.{.{.{.{.{.{.{.{.{.{.{.{.{.{.{.{.{.{.{.{.{.{.{.{.{.{.",
"{.{.{.{.{.{.{.{.{.{.{.{.{.{.{.{.{.{.{.{.{.{.{.{.{.{.{.{.{.{.{.{.{.{.{.{.{.{.{.{.{.{.{.{.{.{.{.{.{.{.{.{.{.{.{.{.{.{.{.{.{.{.{.{."
};
