/* XPM */
static char *result[] = {
/* columns rows colors chars-per-pixel */
"64 64 242 2 ",
"   c black",
".  c #0C0202",
"X  c #0B0204",
"o  c #160005",
"O  c #170005",
"+  c #160407",
"@  c #180404",
"#  c #19070A",
"$  c #1C090E",
"%  c #1F0E14",
"&  c #230207",
"*  c #250606",
"=  c #2A0507",
"-  c #2B0707",
";  c #2D000A",
":  c #310808",
">  c #30080B",
",  c #350014",
"<  c #3A0A10",
"1  c #3C0B13",
"2  c #20141C",
"3  c #44000F",
"4  c #570E0E",
"5  c #440C15",
"6  c #460E19",
"7  c #460F19",
"8  c #5A0014",
"9  c #5A0617",
"0  c #5A101C",
"q  c #680F11",
"w  c #6D0E13",
"e  c #6C0118",
"r  c #770C16",
"t  c #7A0C16",
"y  c #710019",
"u  c #7D001C",
"i  c #7F001E",
"p  c #611010",
"a  c #621010",
"s  c #631010",
"d  c #400621",
"f  c #531B2B",
"g  c #5F1F31",
"h  c #680520",
"j  c #690227",
"k  c #6B0029",
"l  c #6C042B",
"z  c #7E032A",
"x  c #711424",
"c  c #6D1231",
"v  c #4D2334",
"b  c #522130",
"n  c #5C2A3D",
"m  c #5C2A3E",
"M  c #6F202E",
"N  c #772026",
"B  c #6F2439",
"V  c #5F3548",
"C  c #7D2941",
"Z  c #60374A",
"A  c #603D53",
"S  c #8F031F",
"D  c #89041E",
"F  c #810A19",
"G  c #830A1A",
"H  c #87091A",
"J  c #8A091C",
"K  c #8C081C",
"L  c #96061F",
"P  c #82161F",
"I  c #9E0024",
"U  c #9A0625",
"Y  c #920824",
"T  c #87182B",
"R  c #811E28",
"E  c #961A29",
"W  c #9C0831",
"Q  c #9E1C31",
"!  c #9E1C32",
"~  c #A00423",
"^  c #A50324",
"/  c #A7002E",
"(  c #A0062D",
")  c #B50029",
"_  c #B9002E",
"`  c #AB0639",
"'  c #BD0033",
"]  c #86202B",
"[  c #B52039",
"{  c #C10038",
"}  c #C5003D",
"|  c #BB0048",
" . c #8E2F41",
".. c #8D2A49",
"X. c #9B3447",
"o. c #BA2540",
"O. c #BD2A46",
"+. c #BF2A47",
"@. c #BF2A48",
"#. c #A73756",
"$. c #A93C5C",
"%. c #B73A5A",
"&. c #CA0143",
"*. c #C8024A",
"=. c #C90B4E",
"-. c #D60052",
";. c #D70956",
":. c #DB0358",
">. c #CB2258",
",. c #C93456",
"<. c #EA0C6B",
"1. c #DA2462",
"2. c #AD405A",
"3. c #B74163",
"4. c #B94361",
"5. c #BC486C",
"6. c #C74162",
"7. c #C24065",
"8. c #C64165",
"9. c #C74165",
"0. c #CE4166",
"q. c #CF4267",
"w. c #D9446C",
"e. c #D6486F",
"r. c #DD4972",
"t. c #DE4973",
"y. c #DB4D76",
"u. c #CD577F",
"i. c #CA597D",
"p. c #DD5079",
"a. c #DE537D",
"s. c #E14E79",
"d. c #E0537D",
"f. c #E2527E",
"g. c #FF1884",
"h. c #FF298F",
"j. c #BF7AA7",
"k. c #D05983",
"l. c #DA5980",
"z. c #E45380",
"x. c #E75886",
"c. c #E65B88",
"v. c #E75D8A",
"b. c #E45E8B",
"n. c #E65F8E",
"m. c #E95B88",
"M. c #E85C8A",
"N. c #EA5D8C",
"B. c #FA4F98",
"V. c #D86390",
"C. c #D86391",
"Z. c #D96997",
"A. c #EA608F",
"S. c #EC608F",
"D. c #EA6492",
"F. c #EA6595",
"G. c #EA6695",
"H. c #EF6797",
"J. c #EC6997",
"K. c #EA6999",
"L. c #EA6A9B",
"P. c #EC6D9D",
"I. c #EE6D9C",
"U. c #ED6E9F",
"Y. c #F06798",
"T. c #F16798",
"R. c #F46C9F",
"E. c #FB5BA2",
"W. c #FF5DB1",
"Q. c #DB77A3",
"!. c #D87EAA",
"~. c #D87EAB",
"^. c #F56FA2",
"/. c #FA69A9",
"(. c #F771A5",
"). c #F875A9",
"_. c #F877AC",
"`. c #F979AD",
"'. c #FF6EBC",
"]. c #FA7DB1",
"[. c #F97DB3",
"{. c #FF77C1",
"}. c #BFBCBF",
"|. c #DF80AD",
" X c #E38DAE",
".X c #E285B6",
"XX c #ED81B4",
"oX c #F381B6",
"OX c #FA80B5",
"+X c #FB81B5",
"@X c #F783B9",
"#X c #FA83BA",
"$X c #FB85B9",
"%X c #FC85B9",
"&X c #FC86BA",
"*X c #FB89BB",
"=X c #FD89BD",
"-X c #FD8ABE",
";X c #E796BD",
":X c #EE97BC",
">X c #E6A6B8",
",X c #DF8DC2",
"<X c #FB88C0",
"1X c #FB89C1",
"2X c #FD8BC0",
"3X c #FE8CC0",
"4X c #FE8EC2",
"5X c #FA8DC5",
"6X c #FD8EC4",
"7X c #FE8FC5",
"8X c #FF88CD",
"9X c #FE90C4",
"0X c #FF90C4",
"qX c #FF92C6",
"wX c #FC90C9",
"eX c #FE92C8",
"rX c #FF94C9",
"tX c #FF96CC",
"yX c #FF97CE",
"uX c #FF98CF",
"iX c #FD96D0",
"pX c #FF9AD2",
"aX c #FF9CD5",
"sX c #FE9CD7",
"dX c #FF9ED8",
"fX c #FE9ED9",
"gX c #CFAAC3",
"hX c #CAB9C0",
"jX c #ECA6C7",
"kX c #F5A4CF",
"lX c #F7ADCF",
"zX c #F3B8CA",
"xX c #FFA0DB",
"cX c #FFA1DD",
"vX c #FFA2DE",
"bX c #FDBAE3",
"nX c #FFC0ED",
"mX c #FFD3F7",
"MX c #FFD9F2",
"NX c #F6E0E6",
"BX c #FFFBFF",
"VX c None",
/* pixels */
"VXVXVXVXVXVXVXVXVXVXVXVXVXVXVXVXVXVXVXVXVXVXVXVXVXVXVXVXVXVXVXVXVXVXVXVXVXVXVXVXVXVXVXVXVXVXVXVXVXVXVXVXVXVXVXVXVXVXVXVXVXVXVXVX",
"VXVXVXVXVXVXVXVXVXVXVXVXVXVXVXVXVXVXVXVXVXVXVXVXVXVXVXVXVXVXVXVXVXVXVXVXVXVXVXVXVXVXVXVXVXVXVXVXVXVXVXVXVXVXVXVXVXVXVXVXVXVXVXVX",
"VXVXVXVXVXVXVXVXVXVXVXVXVXVXVXVXVXVXVXVXVXVXVXVXVXVXVXVXVXVXVXVXVXVXVXVXVXVXVXVXVXVXVXVXVXVXVXVXVXVXVXVXVXVXVXVXVXVXVXVXVXVXVXVX",
"VXVXVXVXVXVXVXVXVXVXVXVXVXVXVXVXVXVXVXVXVXVXVXVXVXVXVXVXVXVXVXVXVXVXVXVXVXVXVXVXVXVXVXVXVXVXVXVXVXVXVXVXVXVXVXVXVXVXVXVXVXVXVXVX",
"VXVXVXVXVXVXVXVXVXVXVXVXVXVXVXVXVXVXVXVXVXVXVXVXVXVXVXVXVXVXVXVXVXVXVXVXVXVXVXVXVXVXVXVXVXVXVXVXVXVXVXVXVXVXVXVXVXVXVXVXVXVXVXVX",
"VXVXVXVXVXVXVXVXVXVXVXVXVXVXVXVXVXVXVXVXVXVXVXVXVXVXVXVXVXVXVXVXVXVXVXVXVXVXVXVXVXVXVXVXVXVXVXVXVXVXVXVXVXVXVXVXVXVXVXVXVXVXVXVX",
"VXVXVXVXVXVXVXVXVXVXVXVXVXVXVXVXVXVXVXVXVXVXVXVXVXVXVXVXVXVXVXVXVXVXVXVXVXVXVXVXVXVXVXVXVXVXVXVXVXVXVXVXVXVXVXVXVXVXVXVXVXVXVXVX",
"VXVXVXVXVXVXVXVXVXVXVXVXVXVXVXVXVXVXVXVXVXVXVXVXVXVXVXVXVXVXVXVXVXVXVXVXVXVXVXVXVXVXVXVXVXVXVXVXVXVXVXVXVXVXVXVXVXVXVXVXVXVXVXVX",
"VXVXVXVXVXVXVXVXVXVXVXVXVXVXVXVXVXVXVXVXVXVXVXVXVXVXVXVXVXVXVXVXVXVXVXVXVXVXVXVXVXVXVXVXVXVXVXVXVXVXVXVXVXVXVXVXVXVXVXVXVXVXVXVX",
"VXVXVXVXVXVXVXVXVXVXVXVXVXVXVXVXVXVXVXVXVXVXVXVXVXVXVXVXVXVXVXVXVXVXVXVXVXVXVXVXVXVXVXVXVXVXVXVXVXVXVXVXVXVXVXVXVXVXVXVXVXVXVXVX",
"VXVXVXVXVXVXVXVXVXVXVXVXVXVXVXVXVXVX                  VXVXVX                        VXVXVXVXVXVXVXVXVXVXVXVXVXVXVXVXVXVXVXVXVXVX",
"VXVXVXVXVXVXVXVXVXVXVXVXVXVXVXVXVXVX                  VXVXVX                        VXVXVXVXVXVXVXVXVXVXVXVXVXVXVXVXVXVXVXVXVXVX",
"VXVXVXVXVXVXVXVXVXVXVXVXVXVXVX    1 ! ! k.C.C.C.C.C.C. .a ] 7.7.Q.|.|.|.|.C.C.v         VXVXVXVXVXVXVXVXVXVXVXVXVXVXVXVXVXVXVXVX",
"VXVXVXVXVXVXVXVXVXVXVXVXVXVXVX    5 [ [ H.(.(.(.(.(.(.X.s R t.t.*XqXqXqXqX(.(.n         VXVXVXVXVXVXVXVXVXVXVXVXVXVXVXVXVXVXVXVX",
"VXVXVXVXVXVXVXVXVXVXVXVXVXVXVX    b l.l.@X1X1X1X<X+X+Xi.2.4.t.t.J.I.I.I.I.e.e.M : -               VXVXVXVXVXVXVXVXVXVXVXVXVXVXVX",
"VXVXVXVXVXVXVXVXVXVXVXVXVXVXVX    Z qXqXxXvXvXvXxXqXqX].(.Y.t.t.t.t.t.t.t.[ [ P s 4               VXVXVXVXVXVXVXVXVXVXVXVXVXVXVX",
"VXVXVXVXVXVXVXVXVXVXVXVXVXVXVX    Z qXqXxXvXvXvXxXqXqX].(.Y.t.t.t.t.t.t.t.[ [ P s 4               VXVXVXVXVXVXVXVXVXVXVXVXVXVXVX",
"VXVXVXVXVXVXVXVXVXVXVXVXVXVXVX    Z qXqXxXvXvXvXxXqXqXqXqX=X(.(.sXvXvXvXvXvXvX#X(.R.t.t.@.[ T           VXVXVXVXVXVXVXVXVXVXVXVX",
"VXVXVXVXVXVXVXVXVXVXVXVXVXVXVX    Z qXqXxXvXvXvXxXqXqXqXqX=X(.(.sXvXvXvXvXvXvX#X(.R.t.t.@.[ T           VXVXVXVXVXVXVXVXVXVXVXVX",
"VXVXVXVXVXVXVXVXVXVXVXVXVXVXVX    Z qXqXyXuXuXuXyXqXqXqXqX0X&X&XfXvXvXvXvXvXvXiXwX5XoXoXb.a.9.x x X     VXVXVXVXVXVXVXVXVXVXVXVX",
"VXVXVXVXVXVXVXVXVXVXVXVXVXVXVX    Z qXqXqXqXqXqXqXqXqXqXqXqXqXqXxXvXvXvXvXvXvXvXvXvXvXvX[.(.v.[ [ +     VXVXVXVXVXVXVXVXVXVXVXVX",
"VXVXVXVXVXVXVXVXVXVXVXVXVXVXVX    V =X=X9XqXqXqXqXqXqX4X=X3XqXqXxXvXvXvXvXvXvX,Xj.j.vXvXU.v.p.+.+.#     VXVXVXVXVXVXVXVXVXVXVXVX",
"VXVXVXVXVXVXVXVXVXVXVXVXVX        m (.(.4XqXqXqXqXqXqX].(.`.qXqXxXvXvXvXvXvXvXA   2 vXvX6.[ +.t.t.$         VXVXVXVXVXVXVXVXVXVX",
"VXVXVXVXVXVXVXVXVXVXVXVXVX        m (.(.4XqXqXqXqXqXqX].(.`.qXqXxXvXvXvXvXvXvXA   2 vXvX6.[ +.t.t.$         VXVXVXVXVXVXVXVXVXVX",
"VXVXVXVXVXVXVXVXVXVXVXVXVX    C #.u.-X-X].`.`.`.`.`.`.+X-X7XdXdXvXvXvXvXvXvXvXgX}.hX6.6. XjX:XT.T.$.#.f     VXVXVXVXVXVXVXVXVXVX",
"VXVXVXVXVXVXVXVXVXVXVXVXVX    #.t.D.qXqX).(.(.(.(.(.(.%XqXtXvXvXvXvXvXvXvXvXvXMXBXNX[ [ jXmXbX(.(.s.t.B     VXVXVXVXVXVXVXVXVXVX",
"VXVXVXVXVXVXVXVXVXVXVXVXVX    #.t.G.uXuXOX].].].].].].6XuXpXvXvXvXvXvXvXvXvXvXlXzX>XE E ;XnXkXa.a.r.t.B     VXVXVXVXVXVXVXVXVXVX",
"VXVXVXVXVXVXVXVXVXVXVXVXVX    #.t.L.vXvXrXqXqXqXqXqXqXaXvXvXvXvXvXvXvXvXvXvXvXL.t.q.s s ~.vXXX[ [ w.t.B     VXVXVXVXVXVXVXVXVXVX",
"VXVXVXVXVXVXVXVXVXVXVXVXVX    #.t.L.vXvXrXqXqXqXqXqXqXaXvXvXvXvXvXvXvXvXvXvXvXL.t.q.s s ~.vXXX[ [ w.t.B     VXVXVXVXVXVXVXVXVXVX",
"VXVXVXVXVXVXVXVXVXVXVXVXVX    #.t.L.vXvXvXvXvXvXvXvXvXvXvXvXvXvXvXvXvXvXvXvXvX#X(.V.    j.vX!.s s 0.t.B     VXVXVXVXVXVXVXVXVXVX",
"VXVXVXVXVXVXVXVXVXVXVXVXVX    #.t.L.vXvXvXvXvXvXvXvXvXvXvXvXvXvXvXvXvXvXvXvXvX#X(.V.    j.vX!.s s 0.t.B     VXVXVXVXVXVXVXVXVXVX",
"VXVXVXVXVXVXVXVXVXVXVXVXVX    #.t.L.vXvXvXvXvXvXvXvXvXvXvXvXvXvXvXvX8XW.W.W.W./.(.V.    j.vX!.s s >.1.c     VXVXVXVXVXVXVXVXVXVX",
"VXVXVXVXVXVXVXVXVXVXVXVXVX    #.t.L.vXvXvXvXvXvXvXvXvXvXvXvXvXvXvXvX'.g.g.g.g.B.(.V.    j.vX!.s s *.-.k     VXVXVXVXVXVXVXVXVXVX",
"VXVXVXVXVXVXVXVXVXVXVXVXVX    #.t.K.xXxXvXvXvXvXvXvXvXvXvXvXvXvXvXvX{.h.h.h.h.E._.Z.2 2 j.vX.XN N =.;.l     VXVXVXVXVXVXVXVXVXVX",
"VXVXVXVXVXVXVXVXVXVXp s 4     #.t.D.qXqXxXvXvXvXvXvXvXvXvXvXvXvXvXvXvXvXvXvXvXvXvXvXvXvXvXvXdXqXqXf.t.B     VXVXVXVXVXVXVXVXVXVX",
"VXVXVXVXVXVXVXVXVXVXp s 4     #.t.D.qXqXxXvXvXvXvXvXvXvXvXvXvXvXvXvXvXvXvXvXvXvXvXvXvXvXvXvXdXqXqXf.t.B     VXVXVXVXVXVXVXVXVXVX",
"VXVXVXVXVXVXVXVXs s J ~ S     #.t.M.`.`.eXtXtXtXyXvXvXvXvXvXvXvXvXvXvXvXvXvXvXvXvXcXtXtXP.n.F.`.`.s.t.B     VXVXVXVXVXVXVXVXVXVX",
"VXVXVXVXVXVXVXVXs s L ) I     #.t.x.(.(.4XqXqXqXrXvXvXvXvXvXvXvXvXvXvXvXvXvXvXvXvXxXqXqXc.t.z.(.(.s.t.B     VXVXVXVXVXVXVXVXVXVX",
"VXVXVXVXVXVXVXVXs s U ' / d d ..#.5.Y.Y.$X=X=X=X2XdXdXdXdXdXdXdXdXdXdXdXdXdXdXdXdXaX=X=XA.z.m.(.(.3.#.g     VXVXVXVXVXVXVXVXVXVX",
"VXVXVXVXVXVXVXVXs s ` -.:.g.g.d   f t.t.R.(.(.(.).qXqXqXqXqXqXqXqXqXqXqXqXqXqXqXqX4X(.(.(.(.(.(.(.%     VXVXVXVXVXVXVXVXVXVXVXVX",
"VXVXVXVXVXVXVXVXs s ` -.:.g.g.d   f t.t.R.(.(.(.).qXqXqXqXqXqXqXqXqXqXqXqXqXqXqXqX4X(.(.(.(.(.(.(.%     VXVXVXVXVXVXVXVXVXVXVXVX",
"VXVXVXVXVXVXVXVXs s ` -.:.g.g.d   6 o.o.H.(.(.(.(.).).).).).).).).).).).).).).).).).(.(.(.(.v.O.O.+     VXVXVXVXVXVXVXVXVXVXVXVX",
"VXVXVXVXVXVXVXVXs s ` -.:.g.g.d   5 [ [ H.(.(.(.(.(.(.(.(.(.(.(.(.(.(.(.(.(.(.(.(.(.(.(.(.(.v.[ [ +     VXVXVXVXVXVXVXVXVXVXVXVX",
"VXVXVXVXVXVXVXVXs s ( } &.<.<.z 8 9 0 0 8.e.d.N.S.(.(.(.(.(.(.(.(.(.(.(.(.(.(.(.(.^.N.N.y.e.%.0 0 j k h a a VXVXVXVXVXVXVXVXVXVX",
"VXVXVXVXVXVXVXVXs s L ) _ -.-.' ) y     Q [ ,.t.s.(.(.(.(.(.(.(.(.(.(.(.(.(.(.(.(.R.t.t.@.[ T     | -.W s s VXVXVXVXVXVXVXVXVXVX",
"VXVXVXVXVXVXVXVXs s L ) _ -.-.' ) y     Q [ ,.t.s.(.(.(.(.(.(.(.(.(.(.(.(.(.(.(.(.R.t.t.@.[ T     | -.W s s VXVXVXVXVXVXVXVXVXVX",
"VXVXVXVXVXVXVXVXVXVXp s w ) ) ) ) ) ) ) o       . s s E [ +.t.t.t.t.t.t.t.[ [ P s 4         , -.-.-.-.W s s VXVXVXVXVXVXVXVXVXVX",
"VXVXVXVXVXVXVXVXVXVXp s w ) ) ) ) ) ) ) o       . s s E [ +.t.t.t.t.t.t.t.[ [ P s 4         , -.-.-.-.W s s VXVXVXVXVXVXVXVXVXVX",
"VXVXVXVXVXVXVXVXVXVXVXVXVXF F F F L ) ) u y y y e * * < 5 7 f f f f f f f 5 5 > * = y y y y i { { { { Y s s VXVXVXVXVXVXVXVXVXVX",
"VXVXVXVXVXVXVXVXVXVXVXVXVXs s s s F ) ) ) ) ) ) I                                 O ) ) ) ) ) ) ) ) ) K s s VXVXVXVXVXVXVXVXVXVX",
"VXVXVXVXVXVXVXVXVXVXVXVXVXs s s s G ~ ~ ~ ~ ~ ~ D @ @ & ; ; ; ; ; ; ; ; ; ; ; ; ; 3 ) ) ^ ~ ~ ~ ~ ~ ~ H s s VXVXVXVXVXVXVXVXVXVX",
"VXVXVXVXVXVXVXVXVXVXVXVXVXVXVXVXVXVXs s s s s s s s s L ) ) ) ) ) ) ) ) ) ) ) ) ) ) ) ) r s s s s s s a VXVXVXVXVXVXVXVXVXVXVXVX",
"VXVXVXVXVXVXVXVXVXVXVXVXVXVXVXVXVXVXs s s s s s s s s L ) ) ) ) ) ) ) ) ) ) ) ) ) ) ) ) r s s s s s s a VXVXVXVXVXVXVXVXVXVXVXVX",
"VXVXVXVXVXVXVXVXVXVXVXVXVXVXVXVXVXVXVXVXVXVXVXVXVXVXVXt r r r r r r r r r r r r r r r r q s s VXVXVXVXVXVXVXVXVXVXVXVXVXVXVXVXVX",
"VXVXVXVXVXVXVXVXVXVXVXVXVXVXVXVXVXVXVXVXVXVXVXVXVXVXVXp s s s s s s s s s s s s s s s s s s s VXVXVXVXVXVXVXVXVXVXVXVXVXVXVXVXVX",
"VXVXVXVXVXVXVXVXVXVXVXVXVXVXVXVXVXVXVXVXVXVXVXVXVXVXVXVXs s s s s s s s s s s s s s s s s s VXVXVXVXVXVXVXVXVXVXVXVXVXVXVXVXVXVX",
"VXVXVXVXVXVXVXVXVXVXVXVXVXVXVXVXVXVXVXVXVXVXVXVXVXVXVXVXVXVXVXVXVXVXVXVXVXVXVXVXVXVXVXVXVXVXVXVXVXVXVXVXVXVXVXVXVXVXVXVXVXVXVXVX",
"VXVXVXVXVXVXVXVXVXVXVXVXVXVXVXVXVXVXVXVXVXVXVXVXVXVXVXVXVXVXVXVXVXVXVXVXVXVXVXVXVXVXVXVXVXVXVXVXVXVXVXVXVXVXVXVXVXVXVXVXVXVXVXVX",
"VXVXVXVXVXVXVXVXVXVXVXVXVXVXVXVXVXVXVXVXVXVXVXVXVXVXVXVXVXVXVXVXVXVXVXVXVXVXVXVXVXVXVXVXVXVXVXVXVXVXVXVXVXVXVXVXVXVXVXVXVXVXVXVX",
"VXVXVXVXVXVXVXVXVXVXVXVXVXVXVXVXVXVXVXVXVXVXVXVXVXVXVXVXVXVXVXVXVXVXVXVXVXVXVXVXVXVXVXVXVXVXVXVXVXVXVXVXVXVXVXVXVXVXVXVXVXVXVXVX",
"VXVXVXVXVXVXVXVXVXVXVXVXVXVXVXVXVXVXVXVXVXVXVXVXVXVXVXVXVXVXVXVXVXVXVXVXVXVXVXVXVXVXVXVXVXVXVXVXVXVXVXVXVXVXVXVXVXVXVXVXVXVXVXVX",
"VXVXVXVXVXVXVXVXVXVXVXVXVXVXVXVXVXVXVXVXVXVXVXVXVXVXVXVXVXVXVXVXVXVXVXVXVXVXVXVXVXVXVXVXVXVXVXVXVXVXVXVXVXVXVXVXVXVXVXVXVXVXVXVX",
"VXVXVXVXVXVXVXVXVXVXVXVXVXVXVXVXVXVXVXVXVXVXVXVXVXVXVXVXVXVXVXVXVXVXVXVXVXVXVXVXVXVXVXVXVXVXVXVXVXVXVXVXVXVXVXVXVXVXVXVXVXVXVXVX",
"VXVXVXVXVXVXVXVXVXVXVXVXVXVXVXVXVXVXVXVXVXVXVXVXVXVXVXVXVXVXVXVXVXVXVXVXVXVXVXVXVXVXVXVXVXVXVXVXVXVXVXVXVXVXVXVXVXVXVXVXVXVXVXVX"
};
