/* XPM */
static char *result[] = {
/* columns rows colors chars-per-pixel */
"64 64 245 2 ",
"   c black",
".  c #0D0407",
"X  c #160407",
"o  c #180404",
"O  c #1C090E",
"+  c #1F0E14",
"@  c #240606",
"#  c #2D000A",
"$  c #2D080E",
"%  c #360709",
"&  c #310808",
"*  c #3E0A0A",
"=  c #320D15",
"-  c #37121C",
";  c #37121D",
":  c #201F20",
">  c #391722",
",  c #3A1722",
"<  c #3D1C29",
"1  c #3E1C29",
"2  c #3D1E2B",
"3  c #3E1E2B",
"4  c #3D1F2C",
"5  c #46040E",
"6  c #470C0C",
"7  c #4A0C0C",
"8  c #500D0E",
"9  c #560E0E",
"0  c #5A0E0E",
"q  c #440C15",
"w  c #5A0014",
"e  c #40121A",
"r  c #4A111C",
"t  c #6E0E13",
"y  c #6F0E13",
"u  c #7A0C16",
"i  c #710019",
"p  c #7A0D1D",
"a  c #621010",
"s  c #631010",
"d  c #67121E",
"f  c #77141A",
"g  c #72171C",
"h  c #4A1825",
"j  c #571020",
"k  c #531B2B",
"l  c #711424",
"z  c #600931",
"x  c #760937",
"c  c #7B1E32",
"v  c #77183E",
"b  c #402431",
"n  c #4D2232",
"m  c #752F46",
"M  c #7E2B43",
"N  c #603D53",
"B  c #7B3852",
"V  c #820A19",
"C  c #87091B",
"Z  c #8C081C",
"A  c #800C20",
"S  c #960829",
"D  c #8C1824",
"F  c #87182B",
"G  c #8A1C2A",
"H  c #961A29",
"J  c #860033",
"K  c #860435",
"L  c #9C0831",
"P  c #9E0934",
"I  c #88173D",
"U  c #9F143C",
"Y  c #AA0226",
"T  c #B50029",
"R  c #B5042B",
"E  c #B5082D",
"W  c #B90F35",
"Q  c #B0093F",
"!  c #A91E3D",
"~  c #B51433",
"^  c #B51835",
"/  c #B91F3D",
"(  c #902239",
")  c #B52039",
"_  c #C5003D",
"`  c #9F0F53",
"'  c #B90442",
"]  c #BA0844",
"[  c #B1144A",
"{  c #8B2D47",
"}  c #8B2E47",
"|  c #8B2D48",
" . c #9A3447",
".. c #A02C41",
"X. c #BA2540",
"o. c #BD2A46",
"O. c #BF2A47",
"+. c #BE3651",
"@. c #BF3B5A",
"#. c #C70640",
"$. c #C90042",
"%. c #CA0043",
"&. c #C8024A",
"*. c #CF0349",
"=. c #D0094B",
"-. c #D1094B",
";. c #D60052",
":. c #D70956",
">. c #DB0358",
",. c #C41558",
"<. c #E0065E",
"1. c #C32F4E",
"2. c #C42F4F",
"3. c #C63454",
"4. c #C53857",
"5. c #CA3658",
"6. c #CA3659",
"7. c #CF395D",
"8. c #E30F61",
"9. c #EA0C6B",
"0. c #ED126D",
"q. c #EF0F71",
"w. c #F51579",
"e. c #F61579",
"r. c #FA157D",
"t. c #FB167F",
"y. c #DA2462",
"u. c #D02F64",
"i. c #CE3E62",
"p. c #CF3E62",
"a. c #D43E64",
"s. c #80516F",
"d. c #B54360",
"f. c #B1516B",
"g. c #8F617F",
"h. c #CE4266",
"j. c #C04D6D",
"k. c #D14065",
"l. c #D8446C",
"z. c #CF4F75",
"x. c #DE4973",
"c. c #D15176",
"v. c #D05177",
"b. c #D3537B",
"n. c #D15479",
"m. c #DE537D",
"M. c #E04D78",
"N. c #E14E79",
"B. c #E14E7A",
"V. c #E2527E",
"C. c #E4537F",
"Z. c #FF1884",
"A. c #FF298F",
"S. c #A0658B",
"D. c #B8698F",
"F. c #AF6F99",
"G. c #E45380",
"H. c #E15580",
"J. c #E15680",
"K. c #E75885",
"L. c #E75886",
"P. c #E65986",
"I. c #E65B87",
"U. c #E65B88",
"Y. c #E65D8A",
"T. c #E75D8A",
"R. c #E65E8C",
"E. c #E65F8D",
"W. c #FB4494",
"Q. c #FB4D99",
"!. c #C56B91",
"~. c #CA7598",
"^. c #E8608C",
"/. c #E16591",
"(. c #E46591",
"). c #ED6292",
"_. c #EE6292",
"`. c #EA6492",
"'. c #E86594",
"]. c #EE6494",
"[. c #EF6595",
"{. c #EA6A9B",
"}. c #EE6D9C",
"|. c #F16798",
" X c #F26B9C",
".X c #F36C9E",
"XX c #E67696",
"oX c #FF5DB1",
"OX c #D87EAA",
"+X c #EE75A8",
"@X c #F771A5",
"#X c #F674A7",
"$X c #F875A9",
"%X c #F877AC",
"&X c #F57BAC",
"*X c #F979AD",
"=X c #E27FB0",
"-X c #F37DB2",
";X c #FA7DB1",
":X c #FD73B9",
">X c #FF7FC7",
",X c #CF83B4",
"<X c #ED81B4",
"1X c #E38FB0",
"2X c #F780B1",
"3X c #F584B5",
"4X c #FA83BA",
"5X c #FC85B9",
"6X c #F28BBA",
"7X c #FB89BB",
"8X c #FB89BC",
"9X c #FD89BD",
"0X c #FD8ABE",
"qX c #EB8DC1",
"wX c #F78CC3",
"eX c #FB89C1",
"rX c #FE8EC2",
"tX c #FD8FC4",
"yX c #F190C0",
"uX c #FF92C6",
"iX c #F692C9",
"pX c #FA94CB",
"aX c #FF94C9",
"sX c #FF96CC",
"dX c #FD96CF",
"fX c #FF98CF",
"gX c #FF91D3",
"hX c #FB97D1",
"jX c #FD96D0",
"kX c #FF9AD2",
"lX c #FF9BD4",
"zX c #FD9BD6",
"xX c #FF9CD5",
"cX c #FE9CD7",
"vX c #FF9DD7",
"bX c #FF9ED8",
"nX c #FF9FDA",
"mX c #FFA0DB",
"MX c #FFA2DE",
"NX c #FFAEE4",
"BX c #FDBAE3",
"VX c #FFCEEE",
"CX c #FFD3F7",
"ZX c #FFFBFF",
"AX c None",
/* pixels */
"AXAXAXAXAXAXAXAXAXAXAXAXAXAXAXAXAXAXAXAXAXAXAXAXAXAXAXAXAXAXAXAXAXAXAXAXAXAXAXAXAXAXAXAXAXAXAXAXAXAXAXAXAXAXAXAXAXAXAXAXAXAXAXAX",
"AXAXAXAXAXAXAXAXAXAXAXAXAXAXAXAXAXAXAXAXAXAXAXAXAXAXAXAXAXAXAXAXAXAXAXAXAXAXAXAXAXAXAXAXAXAXAXAXAXAXAXAXAXAXAXAXAXAXAXAXAXAXAXAX",
"AXAXAXAXAXAXAXAXAXAXAXAXAXAXAXAXAXAXAXAXAXAXAXAXAXAXAXAXAXAXAXAXAXAXAXAXAXAXAXAXAXAXAXAXAXAXAXAXAXAXAXAXAXAXAXAXAXAXAXAXAXAXAXAX",
"AXAXAXAXAXAXAXAXAXAXAXAXAXAXAXAXAXAXAXAXAXAXAXAXAXAXAXAXAXAXAXAXAXAXAXAXAXAXAXAXAXAXAXAXAXAXAXAXAXAXAXAXAXAXAXAXAXAXAXAXAXAXAXAX",
"AXAXAXAXAXAXAXAXAXAXAXAXAXAXAXAXAXAXAXAXAXAXAXAXAXAXAXAXAXAXAXAXAXAXAXAXAXAXAXAXAXAXAXAXAXAXAXAXAXAXAXAXAXAXAXAXAXAXAXAXAXAXAXAX",
"AXAXAXAXAXAXAXAXAXAXAXAXAXAXAXAXAXAXAXAXAXAXAXAXAXAXAXAXAXAXAXAXAXAXAXAXAXAXAXAXAXAXAXAXAXAXAXAXAXAXAXAXAXAXAXAXAXAXAXAXAXAXAXAX",
"AXAXAXAXAXAXAXAXAXAXAXAXAXAXAXAXAXAXAXAXAXAXAXAXAXAXAXAXAXAXAXAXAXAXAXAXAXAXAXAXAXAXAXAXAXAXAXAXAXAXAXAXAXAXAXAXAXAXAXAXAXAXAXAX",
"AXAXAXAXAXAXAXAXAXAXAXAXAXAXAXAXAXAXAXAXAXAXAXAXAXAXAXAXAXAXAXAXAXAXAXAXAXAXAXAXAXAXAXAXAXAXAXAXAXAXAXAXAXAXAXAXAXAXAXAXAXAXAXAX",
"AXAXAXAXAXAXAXAXAXAXAXAXAXAXAXAXAXAXAXAXAXAXAXAXAXAXAXAXAXAXAXAXAXAXAXAXAXAXAXAXAXAXAXAXAXAXAXAXAXAXAXAXAXAXAXAXAXAXAXAXAXAXAXAX",
"AXAXAXAXAXAXAXAXAXAXAXAXAXAXAXAXAXAX                  AXAXAX                        AXAXAXAXAXAXAXAXAXAXAXAXAXAXAXAXAXAXAXAXAXAX",
"AXAXAXAXAXAXAXAXAXAXAXAXAXAXAXAXAXAX                    AXAX                        AXAXAXAXAXAXAXAXAXAXAXAXAXAXAXAXAXAXAXAXAXAX",
"AXAXAXAXAXAXAXAXAXAXAXAXAXAXAXAXAXAX$ $ > < < < < - - e AXAX- - 4 b b b b 2 < +     AXAXAXAXAXAXAXAXAXAXAXAXAXAXAXAXAXAXAXAXAXAX",
"AXAXAXAXAXAXAXAXAXAXAXAXAXAXAX    $ ) ) T.@X@X@X@Xx.x...s g x.x.2XuXuXuXuX$X@XB         AXAXAXAXAXAXAXAXAXAXAXAXAXAXAXAXAXAXAXAX",
"AXAXAXAXAXAXAXAXAXAXAXAXAXAXAX    $ ) ) T.@X@X@X@Xx.x...s g x.x.2XuXuXuXuX$X@XB         AXAXAXAXAXAXAXAXAXAXAXAXAXAXAXAXAXAXAXAX",
"AXAXAXAXAXAXAXAXAXAXAXAXAXAXAX    b 3X3XpXcXcXcXcX7X7X(.h.h.x.x.M.V.V.V.V.1.o.G 9 9               AXAXAXAXAXAXAXAXAXAXAXAXAXAXAX",
"AXAXAXAXAXAXAXAXAXAXAXAXAXAXAX    b uXuXbXMXMXMXMXuXuX}.x.x.x.x.x.x.x.x.x.X.) D s s               AXAXAXAXAXAXAXAXAXAXAXAXAXAXAX",
"AXAXAXAXAXAXAXAXAXAXAXAXAXAXAX    b uXuXbXMXMXMXMXuXuX&X`.^.x.x.'.{.{.{.{.b.v.d. . .k k r q $       AXAXAXAXAXAXAXAXAXAXAXAXAXAX",
"AXAXAXAXAXAXAXAXAXAXAXAXAXAXAX    b uXuXbXMXMXMXMXuXuXuXuX8Xx.x.wXMXMXMXMXMXMXeX@X@Xx.x.2.) F           AXAXAXAXAXAXAXAXAXAXAXAX",
"AXAXAXAXAXAXAXAXAXAXAXAXAXAXAX    b uXuXbXMXMXMXMXuXuXuXuX8Xx.x.wXMXMXMXMXMXMXeX@X@Xx.x.2.) F           AXAXAXAXAXAXAXAXAXAXAXAX",
"AXAXAXAXAXAXAXAXAXAXAXAXAXAXAX    b uXuXuXuXuXuXuXuXuXuXuXrX@X@XjXMXMXMXMXMXMXMXMXMXMXMX4X@XT.) ) $     AXAXAXAXAXAXAXAXAXAXAXAX",
"AXAXAXAXAXAXAXAXAXAXAXAXAXAXAX    b uXuXuXuXuXuXuXuXuXuXuXrX@X@XjXMXMXMXMXMXMXMXMXMXMXMX4X@XT.) ) $     AXAXAXAXAXAXAXAXAXAXAXAX",
"AXAXAXAXAXAXAXAXAXAXAXAXAX        3 ;X;XrXuXuXuXuXuXuXuXuXrX@X@XjXMXMXMXMXMXMXF.N N MXMX/.i.k.7.7.=         AXAXAXAXAXAXAXAXAXAX",
"AXAXAXAXAXAXAXAXAXAXAXAXAX        1 @X@X0XuXuXuXuXuXuXuXuXrX@X@XjXMXMXMXMXMXMXs.    MXMXc.) O.x.x.-         AXAXAXAXAXAXAXAXAXAX",
"AXAXAXAXAXAXAXAXAXAXAXAXAX    . O n $X$X5XrXrXrXrXuXuXuXuXrX%X%XjXMXMXMXMXMXMXg.: : iXiXn.+.4.B.B.k O .     AXAXAXAXAXAXAXAXAXAX",
"AXAXAXAXAXAXAXAXAXAXAXAXAX    | x.I.uXuX*X@X@X@X@XuXuXuXuXaXMXMXMXMXMXMXMXMXMXVXZXZX) ) 1XCXBX@X@XC.x.{     AXAXAXAXAXAXAXAXAXAX",
"AXAXAXAXAXAXAXAXAXAXAXAXAX    | x.I.uXuX*X@X@X@X@XuXuXuXuXaXMXMXMXMXMXMXMXMXMXVXZXZX) ) 1XCXBX@X@XC.x.{     AXAXAXAXAXAXAXAXAXAX",
"AXAXAXAXAXAXAXAXAXAXAXAXAX    | x.R.bXbXtX0X0X0X0XuXuXfXbXnXMXMXMXMXMXMXMXMXMX6XXXXXf f ~.NXyX3.3.l.x.{     AXAXAXAXAXAXAXAXAXAX",
"AXAXAXAXAXAXAXAXAXAXAXAXAX    | x.E.MXMXsXuXuXuXuXuXuXkXMXMXMXMXMXMXMXMXMXMXMX+Xx.x.s s !.MX<X) ) a.x.{     AXAXAXAXAXAXAXAXAXAX",
"AXAXAXAXAXAXAXAXAXAXAXAXAX    | x.E.MXMXlXfXfXfXfXfXfXvXMXMXMXMXMXMXMXMXMXMXMX-XL.L.* * D.MX=XH H p.x.{     AXAXAXAXAXAXAXAXAXAX",
"AXAXAXAXAXAXAXAXAXAXAXAXAX    | x.E.MXMXMXMXMXMXMXMXMXMXMXMXMXMXMXMXMXMXMXMXMXeX@X@X    S.MXOXs s @.x.{     AXAXAXAXAXAXAXAXAXAX",
"AXAXAXAXAXAXAXAXAXAXAXAXAX    | x.E.MXMXMXMXMXMXMXMXMXMXMXMXMXMXMXMXMXMXMXMXMXeX@X@X    S.MXOXs s @.x.{     AXAXAXAXAXAXAXAXAXAX",
"AXAXAXAXAXAXAXAXAXAXAXAXAX    | x.E.MXMXMXMXMXMXMXMXMXMXMXMXMXMXMXMX>XA.A.A.A.Q.@X@X    S.MXOXs s ] :.K     AXAXAXAXAXAXAXAXAXAX",
"AXAXAXAXAXAXAXAXAXAXAXAXAX    | x.E.MXMXMXMXMXMXMXMXMXMXMXMXMXMXMXMX>XZ.Z.Z.Z.W.@X@X    S.MXOXs s ' ;.J     AXAXAXAXAXAXAXAXAXAX",
"AXAXAXAXAXAXAXAXAXAXAXAXAX    | x.Y.kXkXmXMXMXMXMXMXMXMXMXMXMXMXMXMXgXoXoXoXoX:XeXeXs.s.,XMXqXf.f.u.y.I     AXAXAXAXAXAXAXAXAXAX",
"AXAXAXAXAXAXAXAXAXAXAXAXAX    | x.I.uXuXbXMXMXMXMXMXMXMXMXMXMXMXMXMXMXMXMXMXMXMXMXMXMXMXMXMXbXuXuXU.x.{     AXAXAXAXAXAXAXAXAXAX",
"AXAXAXAXAXAXAXAXAXAXAXAXAX    | x.P.rXrXxXmXmXmXmXMXMXMXMXMXMXMXMXMXMXMXMXMXMXMXMXMXmXmXzXhXdXrXrXU.x.{     AXAXAXAXAXAXAXAXAXAX",
"AXAXAXAXAXAXAXAXAXAXa s s     | x.G.@X@X0XuXuXuXuXMXMXMXMXMXMXMXMXMXMXMXMXMXMXMXMXMXuXuX`.x.G.@X@XC.x.{     AXAXAXAXAXAXAXAXAXAX",
"AXAXAXAXAXAXAXAXAXAXa s s     | x.G.@X@X0XuXuXuXuXMXMXMXMXMXMXMXMXMXMXMXMXMXMXMXMXMXuXuX`.x.G.@X@XC.x.{     AXAXAXAXAXAXAXAXAXAX",
"AXAXAXAXAXAXAXAXs s U ,.,.` ` v k M K.K.#X;X;X;X;XfXfXfXfXfXfXfXfXfXfXfXfXfXfXfXfXfX;X;X X_.[.@X@Xm k h AXAXAXAXAXAXAXAXAXAXAXAX",
"AXAXAXAXAXAXAXAXa s [ Z.Z.Z.Z.z   ; x.x.|.@X@X@X@XuXuXuXuXuXuXuXuXuXuXuXuXuXuXuXuXuX@X@X@X@X@X@X@X<     AXAXAXAXAXAXAXAXAXAXAXAX",
"AXAXAXAXAXAXAXAXa s [ Z.Z.Z.Z.x # j a.a.].@X@X@X@X9X9X9X9X9X9X9X9X9X9X9X9X9X9X9X9X9X@X@X@X@X.XT.T.,     AXAXAXAXAXAXAXAXAXAXAXAX",
"AXAXAXAXAXAXAXAXa s [ Z.Z.Z.Z.-.T E ) ) T.@X@X@X@X@X@X@X@X@X@X@X@X@X@X@X@X@X@X@X@X@X@X@X@X@XT.) ) $     AXAXAXAXAXAXAXAXAXAXAXAX",
"AXAXAXAXAXAXAXAXa s [ Z.Z.Z.Z.-.T E ) ) T.@X@X@X@X@X@X@X@X@X@X@X@X@X@X@X@X@X@X@X@X@X@X@X@X@XT.) ) $     AXAXAXAXAXAXAXAXAXAXAXAX",
"AXAXAXAXAXAXAXAXa s P >.>.Z.Z.t.w.8.R R / o.6.N.N.@X@X@X@X@X@X@X@X@X@X@X@X@X@X@X@X@XN.N.5.o.( X X 8 9 0 AXAXAXAXAXAXAXAXAXAXAXAX",
"AXAXAXAXAXAXAXAXa s L ;.;.Z.Z.Z.Z.0.T T ^ ) 2.x.x.@X@X@X@X@X@X@X@X@X@X@X@X@X@X@X@X@Xx.x.2.) F     7 s s AXAXAXAXAXAXAXAXAXAXAXAX",
"AXAXAXAXAXAXAXAXa s S %.%.q.q.r.Z.e.=.=.W ~ ! } } j.j.z.m.H.).).).).).).).J.m.z.j.j.} } c l d @ @ 6 s AXAXAXAXAXAXAXAXAXAXAXAXAX",
"AXAXAXAXAXAXAXAXa s Z T T ;.;.q.Z.Z.Z.Z.#.T i     s s D ) X.x.x.x.x.x.x.x.X.) D s s         o s s AXAXAXAXAXAXAXAXAXAXAXAXAXAXAX",
"AXAXAXAXAXAXAXAXa s Z T T ;.;.q.Z.Z.Z.Z.#.T i     s s D ) X.x.x.x.x.x.x.x.X.) D s s         o s s AXAXAXAXAXAXAXAXAXAXAXAXAXAXAX",
"AXAXAXAXAXAXAXAXAXAXa s s T T $.;.<.Z.Z.#.T T T T                                   T T V s s AXAXAXAXAXAXAXAXAXAXAXAXAXAXAXAXAX",
"AXAXAXAXAXAXAXAXAXAXa s s T T $.;.<.Z.Z.#.T T T T                                   T T V s s AXAXAXAXAXAXAXAXAXAXAXAXAXAXAXAXAX",
"AXAXAXAXAXAXAXAXAXAXAXa a Z Z S L Q 9.9.*._ _ _ _ & & 5 w w w w w w w w w % & & & & Z Z u a AXAXAXAXAXAXAXAXAXAXAXAXAXAXAXAXAXAX",
"AXAXAXAXAXAXAXAXAXAXAXAXAXs s s s A ;.;.;.;.;.;.;.s s Z T T T T T T T T T t s s s s s s AXAXAXAXAXAXAXAXAXAXAXAXAXAXAXAXAXAXAXAX",
"AXAXAXAXAXAXAXAXAXAXAXAXAXa a a a p &.&.&.&.&.&.&.s s C Y Y Y Y Y Y Y Y Y y a a a a a a AXAXAXAXAXAXAXAXAXAXAXAXAXAXAXAXAXAXAXAX",
"AXAXAXAXAXAXAXAXAXAXAXAXAXAXAXAXAXAXs s s s s s s s s s s s s s s s s s s AXAXAXAXAXAXAXAXAXAXAXAXAXAXAXAXAXAXAXAXAXAXAXAXAXAXAX",
"AXAXAXAXAXAXAXAXAXAXAXAXAXAXAXAXAXAXs s s s s s s s s s s s s s s s s s s AXAXAXAXAXAXAXAXAXAXAXAXAXAXAXAXAXAXAXAXAXAXAXAXAXAXAX",
"AXAXAXAXAXAXAXAXAXAXAXAXAXAXAXAXAXAXAXAXAXAXAXAXAXAXAXAXAXAXAXAXAXAXAXAXAXAXAXAXAXAXAXAXAXAXAXAXAXAXAXAXAXAXAXAXAXAXAXAXAXAXAXAX",
"AXAXAXAXAXAXAXAXAXAXAXAXAXAXAXAXAXAXAXAXAXAXAXAXAXAXAXAXAXAXAXAXAXAXAXAXAXAXAXAXAXAXAXAXAXAXAXAXAXAXAXAXAXAXAXAXAXAXAXAXAXAXAXAX",
"AXAXAXAXAXAXAXAXAXAXAXAXAXAXAXAXAXAXAXAXAXAXAXAXAXAXAXAXAXAXAXAXAXAXAXAXAXAXAXAXAXAXAXAXAXAXAXAXAXAXAXAXAXAXAXAXAXAXAXAXAXAXAXAX",
"AXAXAXAXAXAXAXAXAXAXAXAXAXAXAXAXAXAXAXAXAXAXAXAXAXAXAXAXAXAXAXAXAXAXAXAXAXAXAXAXAXAXAXAXAXAXAXAXAXAXAXAXAXAXAXAXAXAXAXAXAXAXAXAX",
"AXAXAXAXAXAXAXAXAXAXAXAXAXAXAXAXAXAXAXAXAXAXAXAXAXAXAXAXAXAXAXAXAXAXAXAXAXAXAXAXAXAXAXAXAXAXAXAXAXAXAXAXAXAXAXAXAXAXAXAXAXAXAXAX",
"AXAXAXAXAXAXAXAXAXAXAXAXAXAXAXAXAXAXAXAXAXAXAXAXAXAXAXAXAXAXAXAXAXAXAXAXAXAXAXAXAXAXAXAXAXAXAXAXAXAXAXAXAXAXAXAXAXAXAXAXAXAXAXAX",
"AXAXAXAXAXAXAXAXAXAXAXAXAXAXAXAXAXAXAXAXAXAXAXAXAXAXAXAXAXAXAXAXAXAXAXAXAXAXAXAXAXAXAXAXAXAXAXAXAXAXAXAXAXAXAXAXAXAXAXAXAXAXAXAX",
"AXAXAXAXAXAXAXAXAXAXAXAXAXAXAXAXAXAXAXAXAXAXAXAXAXAXAXAXAXAXAXAXAXAXAXAXAXAXAXAXAXAXAXAXAXAXAXAXAXAXAXAXAXAXAXAXAXAXAXAXAXAXAXAX",
"AXAXAXAXAXAXAXAXAXAXAXAXAXAXAXAXAXAXAXAXAXAXAXAXAXAXAXAXAXAXAXAXAXAXAXAXAXAXAXAXAXAXAXAXAXAXAXAXAXAXAXAXAXAXAXAXAXAXAXAXAXAXAXAX"
};
