/* XPM */
static char *result[] = {
/* columns rows colors chars-per-pixel */
"64 64 40 1 ",
"  c #D3AA00",
". c #D4A800",
"X c #D4AA00",
"o c #D4AB00",
"O c #D5AB00",
"+ c #D6AA00",
"@ c #D6AB00",
"# c #D5AC00",
"$ c #D9AE00",
"% c #D9AF00",
"& c #DAAE00",
"* c #DEB100",
"= c #DDB200",
"- c #DEB200",
"; c #E2B500",
": c #E6B800",
"> c #E7B800",
", c #E6B900",
"< c #EABB00",
"1 c #EABC00",
"2 c #EBBC00",
"3 c #EDBF00",
"4 c #EEBF00",
"5 c #EFBF00",
"6 c #F2C200",
"7 c #F3C300",
"8 c #F6C600",
"9 c #F7C600",
"0 c #FBC900",
"q c #FBCB00",
"w c #FCCA00",
"e c #FDCA00",
"r c #FCCB00",
"t c #FDCB00",
"y c #FECA00",
"u c #FECB00",
"i c #FECC00",
"p c #FFCC00",
"a c #FFCD00",
"s c None",
/* pixels */
"ssssssssssssssssssssssssssssssssssssssssssssssssssssssssssssssss",
"ssssssssssssssssssssssssssssssssssssssssssssssssssssssssssssssss",
"ssssssssssssssssssssssssssssssssssssssssssssssssssssssssssssssss",
"ssssssssssssssssssssssssssssssssssssssssssssssssssssssssssssssss",
"ssssssssssssssssssssssssssssssssssssssssssssssssssssssssssssssss",
"ssssssssssssssssssssssssssssssssssssssssssssssssssssssssssssssss",
"ssssssssssssssssssssssssssssssssssssssssssssssssssssssssssssssss",
"ssssssssssssssssssssssssssssssssssssssssssssssssssssssssssssssss",
"ssssssssssssssssssssssssssssssssssssssssssssssssssssssssssssssss",
"ssssssssssssssssssssssssssssssssssssssssssssssssssssssssssssssss",
"ssssssssssssssssssssssssssssssssssssssssssssssssssssssssssssssss",
"ssssssssssssssssssssssssssssssssssssssssssssssssssssssssssssssss",
"ssssssssssssssssssssssssssssssssssssssssssssssssssssssssssssssss",
"ssssssssssssssssssssssssssssssssssssssssssssssssssssssssssssssss",
"ssssssssssssssssssssssssssssssssssssssssssssssssssssssssssssssss",
"sssssssssssssssssssssssssssssttttqssssssssssssssssssssssssssssss",
"sssssssssssssssssssssssssssssatttwssssssssssssssssssssssssssssss",
"sssssssssssssssssssssssssssssutttwssssssssssssssssssssssssssssss",
"sssssssssssssssssssssssssssssptttrssssssssssssssssssssssssssssss",
"sssssssssssssssssssssssssssssutttessssssssssssssssssssssssssssss",
"sssssssssssssssssssssssssssssitttissssssssssssssssssssssssssssss",
"sssssssssssssssssssssssssssssytttussssssssssssssssssssssssssssss",
"sssssssssssssssssssssssssssssuttttssssssssssssssssssssssssssssss",
"sssssssssssssssssssssssssssssuttttssssssssssssssssssssssssssssss",
"sssssssssssssssssssssssssssssutttussssssssssssssssssssssssssssss",
"sssssssssssssssssssssssssssssutttussssssssssssssssssssssssssssss",
"sssssssssssssssssssssssssssssuttttssssssssssssssssssssssssssssss",
"sssssssssssssssssssssssssssssuttttssssssssssssssssssssssssssssss",
"sssssssssssssssssssssssssssssuttttssssssssssssssssssssssssssssss",
"sssssssssssssssssssssssssssssuttttssssssssssssssssssssssssssssss",
"sssssssssssssssssssssssssssssuttttssssssssssssssssssssssssssssss",
"sssssssssssssssssssssssssssssuttttssssssssssssssssssssssssssssss",
"sssssssssssssssssssssssssssssuttttssssssssssssssssssssssssssssss",
"sssssssssssssssssssssssssssssuttttssssssssssssssssssssssssssssss",
"sssssssssssssssssssssssssssssuttttssssssssssssssssssssssssssssss",
"sssssssssssssssssssssssssssssuttttssssssssssssssssssssssssssssss",
"sssssssssssssssssssssssssssssuttttssssssssssssssssssssssssssssss",
"sssssssssssssssssssssssssssssw0000ssssssssssssssssssssssssssssss",
"sssssssssssssssssssssssssssss98889ssssssssssssssssssssssssssssss",
"sssssssssssssssssssssssssssss76666ssssssssssssssssssssssssssssss",
"sssssssssssssssssssssssssssss54443ssssssssssssssssssssssssssssss",
"sssssssssssssssssssssssssssss2<<<1ssssssssssssssssssssssssssssss",
"sssssssssssssssssssssssssssss>:::,ssssssssssssssssssssssssssssss",
"sssssssssssssssssssssssssssss;;;;;ssssssssssssssssssssssssssssss",
"sssssssssssssssssssssssssssss=***-ssssssssssssssssssssssssssssss",
"sssssssssssssssssssssssssssss%&&&$ssssssssssssssssssssssssssssss",
"sssssssssssssssssssssssssssss#OO@+ssssssssssssssssssssssssssssss",
"sssssssssssssssssssssssssssss XXX ssssssssssssssssssssssssssssss",
"sssssssssssssssssssssssssssssoXXX.ssssssssssssssssssssssssssssss",
"sssssssssssssssssssssssssssss#XXXsssssssssssssssssssssssssssssss",
"ssssssssssssssssssssssssssssssssssssssssssssssssssssssssssssssss",
"ssssssssssssssssssssssssssssssssssssssssssssssssssssssssssssssss",
"ssssssssssssssssssssssssssssssssssssssssssssssssssssssssssssssss",
"ssssssssssssssssssssssssssssssssssssssssssssssssssssssssssssssss",
"ssssssssssssssssssssssssssssssssssssssssssssssssssssssssssssssss",
"ssssssssssssssssssssssssssssssssssssssssssssssssssssssssssssssss",
"ssssssssssssssssssssssssssssssssssssssssssssssssssssssssssssssss",
"ssssssssssssssssssssssssssssssssssssssssssssssssssssssssssssssss",
"ssssssssssssssssssssssssssssssssssssssssssssssssssssssssssssssss",
"ssssssssssssssssssssssssssssssssssssssssssssssssssssssssssssssss",
"ssssssssssssssssssssssssssssssssssssssssssssssssssssssssssssssss",
"ssssssssssssssssssssssssssssssssssssssssssssssssssssssssssssssss",
"ssssssssssssssssssssssssssssssssssssssssssssssssssssssssssssssss",
"ssssssssssssssssssssssssssssssssssssssssssssssssssssssssssssssss"
};
