/* XPM */
static char *result[] = {
/* columns rows colors chars-per-pixel */
"64 64 74 1 ",
"  c #BF6600",
". c #C66F00",
"X c #C97400",
"o c #CC7A04",
"O c #C76C11",
"+ c #CE7E19",
"@ c #CF8B06",
"# c #CE850F",
"$ c #D68501",
"% c #D18B00",
"& c #DC8D00",
"* c #DE8A0F",
"= c #DC9200",
"- c #CE8115",
"; c #D58C1A",
": c #DB991F",
"> c #E38C00",
", c #E98E00",
"< c #E49100",
"1 c #EE9500",
"2 c #E69C00",
"3 c #EE9B00",
"4 c #F09600",
"5 c #F19E00",
"6 c #D5AB00",
"7 c #DAAF00",
"8 c #DDB100",
"9 c #E7A200",
"0 c #EEA300",
"q c #EEAC00",
"w c #F5A400",
"e c #F6AC00",
"r c #E3B600",
"t c #EEB200",
"y c #E7B900",
"u c #ECBC00",
"i c #F5B400",
"p c #F9B700",
"a c #F5BB00",
"s c #FABD00",
"d c #CF8E27",
"f c #DA9E36",
"g c #E2BC30",
"h c #EFC000",
"j c #ECCD00",
"k c #F5C300",
"l c #FAC500",
"z c #F6CA00",
"x c #FECC00",
"c c #F5D400",
"v c #FDD400",
"b c #F4DC00",
"n c #FDDA00",
"m c #F7E200",
"M c #FEE400",
"N c #FEEC00",
"B c #FAE80F",
"V c #FEF500",
"C c #FEFB00",
"Z c #FEFE0F",
"A c #FEFE11",
"S c #E8CB38",
"D c #FAE926",
"F c #FDFD2E",
"G c #F9E93D",
"H c #FDFD30",
"J c #E3C045",
"K c #E4C44B",
"L c #F7EE46",
"P c #FDFC4D",
"I c #F9E854",
"U c #F8F467",
"Y c #FCFC69",
"T c None",
/* pixels */
"TTTTTTTTTTTTTTTTTTTTTTTTTTTTTTTTTTTTTTTTTTTTTTTTTTTTTTTTTTTTTTTT",
"TTTTTTTTTTTTTTTTTTTTTTTTTTTTTTTTTTTTTTTTTTTTTTTTTTTTTTTTTTTTTTTT",
"TTTTTTTTTTTTTTTTTTTTTTTTTTTTTTTTTTTTTTTTTTTTTTTTTTTTTTTTTTTTTTTT",
"TTTTTTTTTTTTTTTTTTTTTTTTTTTTTTTTTTTTTTTTTTTTTTTTTTTTTTTTTTTTTTTT",
"TTTTTTTTTTTTTTTTTTTTTTTTTTTTTTTTTTTTTTTTTTTTTTTTTTTTTTTTTTTTTTTT",
"TTTTTTTTTTTTTTTTTTTTTTTTTTTTTTTTTTTTTTTTTTTTTTTTTTTTTTTTTTTTTTTT",
"TTTTTTTTTTTTTTTTTTTTTTTTTTTTTTTTTTTTTTTTTTTTTTTTTTTTTTTTTTTTTTTT",
"TTTTTTTTTTTTTTTTTTTTTTTTTTTTTTTTTTTTTTTTTTTTTTTTTTTTTTTTTTTTTTTT",
"TTTTTTTTTTTTTTTTTTTTTTTTTTTTTTTTTTTTTTTTTTTTTTTTTTTTTTTTTTTTTTTT",
"TTTTTTTTTTTTTTTTTTTTTTTTTTTTTTTTTTTTTTTTTTTTTTTTTTTTTTTTTTTTTTTT",
"TTTTTTTTTTTTTTTTTTTTTTTTTTTTTTTTTTTTTTTTTTTTTTTTTTTTTTTTTTTTTTTT",
"TTTTTTTTTTTTTTTTTTTTTTTTTTTTTTTTTTTTTTTTTTTTTTTTTTTTTTTTTTTTTTTT",
"TTTTTTTTTTTTTTTTTTTTTTTTTTTTTTTTTTTTTTTTTTTTTTTTTTTTTTTTTTTTTTTT",
"TTTTTTTTTTTTTTTTTTTTTTTTTTTTTTTTTTTTTTTTTTTTTTTTTTTTTTTTTTTTTTTT",
"TTTTTTTTTTTTTTTTTTTTTTTTTTTTVNNMMnvxxTTTTTTTTTTTTTTTTTTTTTTTTTTT",
"TTTTTTTTTTTTTTTTTTTTTTTTTCVVMcvxzvnvxxxxTTTTTTTTTTTTTTTTTTTTTTTT",
"TTTTTTTTTTTTTTTTTTTTTTTTCVbkaaiieeilxxxxxTTTTTTTTTTTTTTTTTTTTTTT",
"TTTTTTTTTTTTTTTTTTTTTTTCmzaaaiiieeewilvvxxTTTTTTTTTTTTTTTTTTTTTT",
"TTTTTTTTTTTTTTTTTTTTTTCmkaaaiiieeewwwelnvxxTTTTTTTTTTTTTTTTTTTTT",
"TTTTTTTTTTTTTTTTTTTTTCmkaaiaiiieewwwweevMxxxTTTTTTTTTTTTTTTTTTTT",
"TTTTTTTTTTTTTTTTTTTTCNkaaaiiiaC9wwwweeiiMMxxxTTTTTTTTTTTTTTTTTTT",
"TTTTTTTTTTTTTTTTTTTTCzaaaaiieNCm5wweeeiplVvxxTTTTTTTTTTTTTTTTTTT",
"TTTTTTTTTTTTTTTTTTTCbkaaaiiizCCCiweeeppaaMNxxxTTTTTTTTTTTTTTTTTT",
"TTTTTTTTTTTTTTTTTTTVkaaaiieaCCCCV5eeiiiakzCvxxTTTTTTTTTTTTTTTTTT",
"TTTTTTTTTTTTTTTTTTCnaaiiiiiMCCCCCjwiiiaalkNMxxTTTTTTTTTTTTTTTTTT",
"TTTTTTTTTTTTTTTTTTCzaaaiianCCVCCCCziiaskkzvMxxxTTTTTTTTTTTTTTTTT",
"TTTTTTTTTTTTTTTTTTNaaailnNNNNNNNNNNMzkkkzakMxxxTTTTTTTTTTTTTTTTT",
"TTTTTTTTTTTTTTTTTVbtiznMMMmMMMMMMMMMMnvlaapvxxxTTTTTTTTTTTTTTTTT",
"TTTTTTTTTTTTTTTTTVz02unvnvnvnnvnvnnvnnvz$iixxxxTTTTTTTTTTTTTTTTT",
"TTTTTTTTTTTTTTTTTNa00>xxvxxxxxxvvvxvxvxo9ielxxxTTTTTTTTTTTTTTTTT",
"TTTTTTTTTTTTTTTTTNi002qxxxxxxxxxxxxxxxiXieepllxTTTTTTTTTTTTTTTTT",
"TTTTTTTTTTTTTTTTTNq033&xxxxxxxxxxxxxxx 0eewpxlxTTTTTTTTTTTTTTTTT",
"TTTTTTTTTTTTTTTTTMt33349xxxxxxxxxxxxx=&eewwpxllTTTTTTTTTTTTTTTTT",
"TTTTTTTTTTTTTTTTTMi3333>lxxxxxxxxxxxa.iew5wplkkTTTTTTTTTTTTTTTTT",
"TTTTTTTTTTTTTTTTTMa33311xnvnnvnvvvnn=>wwwwwslkkTTTTTTTTTTTTTTTTT",
"TTTTTTTTTTTTTTTTTna31413cNNMMNMMMMMM%31145wlkkkTTTTTTTTTTTTTTTTT",
"TTTTTTTTTTTTTTTTTTl31113MCVCVVVCVCVV@311113xhkkTTTTTTTTTTTTTTTTT",
"TTTTTTTTTTTTTTTTTTzw1133BAAAAAAAAZAZ@31111wxuuuTTTTTTTTTTTTTTTTT",
"TTTTTTTTTTTTTTTTTTve1333DHHHHHFHFFFF#11111akuuTTTTTTTTTTTTTTTTTT",
"TTTTTTTTTTTTTTTTTTTl3335LPPPPSgLPPPP-1111wxuyuTTTTTTTTTTTTTTTTTT",
"TTTTTTTTTTTTTTTTTTTve300IUKdo=2$:JYY+1111pkryTTTTTTTTTTTTTTTTTTT",
"TTTTTTTTTTTTTTTTTTTTv000;o=ttqq05<>fO1110xyryTTTTTTTTTTTTTTTTTTT",
"TTTTTTTTTTTTTTTTTTTTnz00qqttiq033111,113lh8rTTTTTTTTTTTTTTTTTTTT",
"TTTTTTTTTTTTTTTTTTTTTMzqqqttq0033111111sl888TTTTTTTTTTTTTTTTTTTT",
"TTTTTTTTTTTTTTTTTTTTTTVcitqqq031111111al868TTTTTTTTTTTTTTTTTTTTT",
"TTTTTTTTTTTTTTTTTTTTTTTVmuqq03311111wll766TTTTTTTTTTTTTTTTTTTTTT",
"TTTTTTTTTTTTTTTTTTTTTTTTCVzt3311113alk766TTTTTTTTTTTTTTTTTTTTTTT",
"TTTTTTTTTTTTTTTTTTTTTTTTTNBnlaipalxly66TTTTTTTTTTTTTTTTTTTTTTTTT",
"TTTTTTTTTTTTTTTTTTTTTTTTTTTTvxxxxky66TTTTTTTTTTTTTTTTTTTTTTTTTTT",
"TTTTTTTTTTTTTTTTTTTTTTTTTTTTTTTTTTTTTTTTTTTTTTTTTTTTTTTTTTTTTTTT",
"TTTTTTTTTTTTTTTTTTTTTTTTTTTTTTTTTTTTTTTTTTTTTTTTTTTTTTTTTTTTTTTT",
"TTTTTTTTTTTTTTTTTTTTTTTTTTTTTTTTTTTTTTTTTTTTTTTTTTTTTTTTTTTTTTTT",
"TTTTTTTTTTTTTTTTTTTTTTTTTTTTTTTTTTTTTTTTTTTTTTTTTTTTTTTTTTTTTTTT",
"TTTTTTTTTTTTTTTTTTTTTTTTTTTTTTTTTTTTTTTTTTTTTTTTTTTTTTTTTTTTTTTT",
"TTTTTTTTTTTTTTTTTTTTTTTTTTTTTTTTTTTTTTTTTTTTTTTTTTTTTTTTTTTTTTTT",
"TTTTTTTTTTTTTTTTTTTTTTTTTTTTTTTTTTTTTTTTTTTTTTTTTTTTTTTTTTTTTTTT",
"TTTTTTTTTTTTTTTTTTTTTTTTTTTTTTTTTTTTTTTTTTTTTTTTTTTTTTTTTTTTTTTT",
"TTTTTTTTTTTTTTTTTTTTTTTTTTTTTTTTTTTTTTTTTTTTTTTTTTTTTTTTTTTTTTTT",
"TTTTTTTTTTTTTTTTTTTTTTTTTTTTTTTTTTTTTTTTTTTTTTTTTTTTTTTTTTTTTTTT",
"TTTTTTTTTTTTTTTTTTTTTTTTTTTTTTTTTTTTTTTTTTTTTTTTTTTTTTTTTTTTTTTT",
"TTTTTTTTTTTTTTTTTTTTTTTTTTTTTTTTTTTTTTTTTTTTTTTTTTTTTTTTTTTTTTTT",
"TTTTTTTTTTTTTTTTTTTTTTTTTTTTTTTTTTTTTTTTTTTTTTTTTTTTTTTTTTTTTTTT",
"TTTTTTTTTTTTTTTTTTTTTTTTTTTTTTTTTTTTTTTTTTTTTTTTTTTTTTTTTTTTTTTT",
"TTTTTTTTTTTTTTTTTTTTTTTTTTTTTTTTTTTTTTTTTTTTTTTTTTTTTTTTTTTTTTTT"
};
