/* XPM */
static char *result[] = {
/* columns rows colors chars-per-pixel */
"64 64 70 1 ",
"  c #B75B00",
". c #B95C00",
"X c #BF5D0C",
"o c #BE6500",
"O c #BF630E",
"+ c #C26A0F",
"@ c #CB7102",
"# c #C57A03",
"$ c #CA7A00",
"% c #C4740C",
"& c #DA7900",
"* c #CE8100",
"= c #D48304",
"- c #DD8401",
"; c #D68D00",
": c #DB8B00",
"> c #DD9400",
", c #CB8115",
"< c #CD841E",
"1 c #DB901C",
"2 c #D8981E",
"3 c #E48700",
"4 c #E98E00",
"5 c #E49300",
"6 c #EE9500",
"7 c #E79F00",
"8 c #EE9B00",
"9 c #F29D00",
"0 c #EEA400",
"q c #E6AF00",
"w c #EEAC00",
"e c #EBA70E",
"r c #F4A400",
"t c #F5AC00",
"y c #EDB200",
"u c #E5BE00",
"i c #EFBA00",
"p c #F5B300",
"a c #F5BB00",
"s c #F9BC00",
"d c #F1B30C",
"f c #F1B413",
"g c #D1972E",
"h c #D49B3F",
"j c #DFB53A",
"k c #F5C300",
"l c #FAC400",
"z c #F6CC00",
"x c #FECC00",
"c c #F6D300",
"v c #FDD400",
"b c #F4DB00",
"n c #FDDC00",
"m c #FDE300",
"M c #F6EA00",
"N c #FDEB00",
"B c #FEF500",
"V c #FEFD00",
"C c #FEFE0D",
"Z c #FDFD2B",
"A c #F2E33C",
"S c #DCAA42",
"D c #E7C949",
"F c #FDFD46",
"G c #FDFD49",
"H c #F7EF5C",
"J c #EBD466",
"K c #FAF763",
"L c #FCFC65",
"P c None",
/* pixels */
"PPPPPPPPPPPPPPPPPPPPPPPPPPPPPPPPPPPPPPPPPPPPPPPPPPPPPPPPPPPPPPPP",
"PPPPPPPPPPPPPPPPPPPPPPPPPPPPPPPPPPPPPPPPPPPPPPPPPPPPPPPPPPPPPPPP",
"PPPPPPPPPPPPPPPPPPPPPPPPPPPPPPPPPPPPPPPPPPPPPPPPPPPPPPPPPPPPPPPP",
"PPPPPPPPPPPPPPPPPPPPPPPPPPPPPPPPPPPPPPPPPPPPPPPPPPPPPPPPPPPPPPPP",
"PPPPPPPPPPPPPPPPPPPPPPPPPPPPPPPPPPPPPPPPPPPPPPPPPPPPPPPPPPPPPPPP",
"PPPPPPPPPPPPPPPPPPPPPPPPPPPPPPPPPPPPPPPPPPPPPPPPPPPPPPPPPPPPPPPP",
"PPPPPPPPPPPPPPPPPPPPPPPPPPPPPPPPPPPPPPPPPPPPPPPPPPPPPPPPPPPPPPPP",
"PPPPPPPPPPPPPPPPPPPPPPPPPPPPPPPPPPPPPPPPPPPPPPPPPPPPPPPPPPPPPPPP",
"PPPPPPPPPPPPPPPPPPPPPPPPPPPPPPPPPPPPPPPPPPPPPPPPPPPPPPPPPPPPPPPP",
"PPPPPPPPPPPPPPPPPPPPPPPPPPPPPPPPPPPPPPPPPPPPPPPPPPPPPPPPPPPPPPPP",
"PPPPPPPPPPPPPPPPPPPPPPPPPPPPPPPPPPPPPPPPPPPPPPPPPPPPPPPPPPPPPPPP",
"PPPPPPPPPPPPPPPPPPPPPPPPPPPPPPPPPPPPPPPPPPPPPPPPPPPPPPPPPPPPPPPP",
"PPPPPPPPPPPPPPPPPPPPPPPPPPPPPPPPPPPPPPPPPPPPPPPPPPPPPPPPPPPPPPPP",
"PPPPPPPPPPPPPPPPPPPPPPPPPPPPPPPPPPPPPPPPPPPPPPPPPPPPPPPPPPPPPPPP",
"PPPPPPPPPPPPPPPPPPPPPPPPPPPPPPPPPPPPPPPPPPPPPPPPPPPPPPPPPPPPPPPP",
"PPPPPPPPPPPPPPPPPPPPPPPPPPnnmmmmNNBBBPPPPPPPPPPPPPPPPPPPPPPPPPPP",
"PPPPPPPPPPPPPPPPPPPPPPPPxvvxaasaklznMBVVPPPPPPPPPPPPPPPPPPPPPPPP",
"PPPPPPPPPPPPPPPPPPPPPPxxlstttttppppaazMBVPPPPPPPPPPPPPPPPPPPPPPP",
"PPPPPPPPPPPPPPPPPPPPPvvarrrrttttpppaaakcNVVPPPPPPPPPPPPPPPPPPPPP",
"PPPPPPPPPPPPPPPPPPPPnvprrrrrttttpppppaaalMVVPPPPPPPPPPPPPPPPPPPP",
"PPPPPPPPPPPPPPPPPPPmvpttrrrrrtrqappppaaaakcVVPPPPPPPPPPPPPPPPPPP",
"PPPPPPPPPPPPPPPPPPNnpptttrrrrr0MVptppppaakkcVVPPPPPPPPPPPPPPPPPP",
"PPPPPPPPPPPPPPPPPBNsappttttrr6kVVBatpppaaaakbVPPPPPPPPPPPPPPPPPP",
"PPPPPPPPPPPPPPPPVBcaappptttrtqVVVVBpppppaaaalNVPPPPPPPPPPPPPPPPP",
"PPPPPPPPPPPPPPPPVmkaaaappttt>VVVVVVNtppppaaaazBVPPPPPPPPPPPPPPPP",
"PPPPPPPPPPPPPPPBBzkkaaapppt0MVVVVVVVvttpppaaakMVPPPPPPPPPPPPPPPP",
"PPPPPPPPPPPPPPPmMkkkkkaaapkbBVBVVBVBVnlppppaaacBPPPPPPPPPPPPPPPP",
"PPPPPPPPPPPPPPPmlakklkalcmNNNNNNNNNNNNNmckappaaBBPPPPPPPPPPPPPPP",
"PPPPPPPPPPPPPPvnapaklcnnmmmmmmmmnmmmnmmnmnmvatwbBPPPPPPPPPPPPPPP",
"PPPPPPPPPPPPPPvxtpp$qvnvvvvnvvvvvvvvvvvvvvvl:0wkBPPPPPPPPPPPPPPP",
"PPPPPPPPPPPPPPxlttp0 kxxxxxxxxxxxxvxxxxxxxx5000yNPPPPPPPPPPPPPPP",
"PPPPPPPPPPPPPPxsrttp>oxxxxxxxxxxxxxxxxxxxx05080pNPPPPPPPPPPPPPPP",
"PPPPPPPPPPPPPPxs9rttp$;xxxxxxxxxxxxxxxxxxa-8880wmPPPPPPPPPPPPPPP",
"PPPPPPPPPPPPPPxsrrrttt pxxxxxxxxxxxxxxxxx588888wmPPPPPPPPPPPPPPP",
"PPPPPPPPPPPPPPxsrr9rtt7olxxxxxxxxxxxxxxx7568888wmPPPPPPPPPPPPPPP",
"PPPPPPPPPPPPPPxlr9rrrrr@>vvvvvvvvvvvvvvv0668888pnPPPPPPPPPPPPPPP",
"PPPPPPPPPPPPPPxxr9966685$mmmmmmmmNmmmmmNt666688anPPPPPPPPPPPPPPP",
"PPPPPPPPPPPPPPPxr6666666*BBBBBBBBBBBBBBBw666688znPPPPPPPPPPPPPPP",
"PPPPPPPPPPPPPPPxp6666666#CCCCCCCCCCCCCCCp88666rvPPPPPPPPPPPPPPPP",
"PPPPPPPPPPPPPPPxx9666666%ZZZZZZZZZZZZZZZd88866pvPPPPPPPPPPPPPPPP",
"PPPPPPPPPPPPPPPPxp666646+FFFFFZGFFFGGFGGf88888xxPPPPPPPPPPPPPPPP",
"PPPPPPPPPPPPPPPPxl066666OLLLHjg=@@%gDKLLf0088axPPPPPPPPPPPPPPPPP",
"PPPPPPPPPPPPPPPPPxl96666XJS1-600wwdw:@<he008pvPPPPPPPPPPPPPPPPPP",
"PPPPPPPPPPPPPPPPPPxs6666&36668800wwyyyw0000ynnPPPPPPPPPPPPPPPPPP",
"PPPPPPPPPPPPPPPPPPPxp6666666688800twyyywwwanmPPPPPPPPPPPPPPPPPPP",
"PPPPPPPPPPPPPPPPPPPPxl9666666668800wwyywwcmNPPPPPPPPPPPPPPPPPPPP",
"PPPPPPPPPPPPPPPPPPPPPxlp666666668800wwykMBBPPPPPPPPPPPPPPPPPPPPP",
"PPPPPPPPPPPPPPPPPPPPPPxxlt66666688800iMVVPPPPPPPPPPPPPPPPPPPPPPP",
"PPPPPPPPPPPPPPPPPPPPPPPPxxxatr988rtkvNBPPPPPPPPPPPPPPPPPPPPPPPPP",
"PPPPPPPPPPPPPPPPPPPPPPPPPPPxxxxxxxvnnPPPPPPPPPPPPPPPPPPPPPPPPPPP",
"PPPPPPPPPPPPPPPPPPPPPPPPPPPPPPPPPPPPPPPPPPPPPPPPPPPPPPPPPPPPPPPP",
"PPPPPPPPPPPPPPPPPPPPPPPPPPPPPPPPPPPPPPPPPPPPPPPPPPPPPPPPPPPPPPPP",
"PPPPPPPPPPPPPPPPPPPPPPPPPPPPPPPPPPPPPPPPPPPPPPPPPPPPPPPPPPPPPPPP",
"PPPPPPPPPPPPPPPPPPPPPPPPPPPPPPPPPPPPPPPPPPPPPPPPPPPPPPPPPPPPPPPP",
"PPPPPPPPPPPPPPPPPPPPPPPPPPPPPPPPPPPPPPPPPPPPPPPPPPPPPPPPPPPPPPPP",
"PPPPPPPPPPPPPPPPPPPPPPPPPPPPPPPPPPPPPPPPPPPPPPPPPPPPPPPPPPPPPPPP",
"PPPPPPPPPPPPPPPPPPPPPPPPPPPPPPPPPPPPPPPPPPPPPPPPPPPPPPPPPPPPPPPP",
"PPPPPPPPPPPPPPPPPPPPPPPPPPPPPPPPPPPPPPPPPPPPPPPPPPPPPPPPPPPPPPPP",
"PPPPPPPPPPPPPPPPPPPPPPPPPPPPPPPPPPPPPPPPPPPPPPPPPPPPPPPPPPPPPPPP",
"PPPPPPPPPPPPPPPPPPPPPPPPPPPPPPPPPPPPPPPPPPPPPPPPPPPPPPPPPPPPPPPP",
"PPPPPPPPPPPPPPPPPPPPPPPPPPPPPPPPPPPPPPPPPPPPPPPPPPPPPPPPPPPPPPPP",
"PPPPPPPPPPPPPPPPPPPPPPPPPPPPPPPPPPPPPPPPPPPPPPPPPPPPPPPPPPPPPPPP",
"PPPPPPPPPPPPPPPPPPPPPPPPPPPPPPPPPPPPPPPPPPPPPPPPPPPPPPPPPPPPPPPP",
"PPPPPPPPPPPPPPPPPPPPPPPPPPPPPPPPPPPPPPPPPPPPPPPPPPPPPPPPPPPPPPPP"
};
