/* XPM */
static char *result[] = {
/* columns rows colors chars-per-pixel */
"64 64 207 2 ",
"   c #100820",
".  c #191136",
"X  c #1C1438",
"o  c #1D153B",
"O  c #1A123E",
"+  c #1F173E",
"@  c #201844",
"#  c #261E4F",
"$  c #201850",
"%  c #221A50",
"&  c #231B50",
"*  c #251D50",
"=  c #241C52",
"-  c #282050",
";  c #392D70",
":  c #383077",
">  c #3D3577",
",  c #3E367B",
"<  c #403274",
"1  c #413478",
"2  c #42347A",
"3  c #43357D",
"4  c #B96C29",
"5  c #BA6C29",
"6  c #B36A34",
"7  c #B26B34",
"8  c #B36B34",
"9  c #CE7108",
"0  c #D17308",
"q  c #D17408",
"w  c #D47608",
"e  c #D47908",
"r  c #D77908",
"t  c #D47B08",
"y  c #D47F08",
"u  c #DA7B08",
"i  c #DD7D08",
"p  c #C76F13",
"a  c #C06E1E",
"s  c #C16E1E",
"d  c #9E6655",
"f  c #A4674A",
"g  c #A5674A",
"h  c #A4684A",
"j  c #A5684A",
"k  c #976460",
"l  c #90626B",
"z  c #90636B",
"x  c #896176",
"c  c #D78008",
"v  c #D48208",
"b  c #DA8108",
"n  c #DA8308",
"m  c #DA8508",
"M  c #DA8708",
"N  c #DA9308",
"B  c #E08008",
"V  c #E08308",
"C  c #E38308",
"Z  c #E08508",
"A  c #E08608",
"S  c #E68508",
"D  c #E08808",
"F  c #E08F08",
"G  c #E68E08",
"H  c #E98808",
"J  c #EA8808",
"K  c #EC8A08",
"L  c #ED8A08",
"P  c #ED8B08",
"I  c #ED8E08",
"U  c #F08D08",
"Y  c #F38F08",
"T  c #E69108",
"R  c #E69208",
"E  c #E39608",
"W  c #E69508",
"Q  c #EA9408",
"!  c #EC9708",
"~  c #E39808",
"^  c #E69A08",
"/  c #E69E08",
"(  c #EC9A08",
")  c #F39008",
"_  c #F39208",
"`  c #F99508",
"'  c #F29908",
"]  c #F39A08",
"[  c #F39D08",
"{  c #F39F08",
"}  c #F99908",
"|  c #FF9A08",
" . c #E6A108",
".. c #E0A508",
"X. c #EDA208",
"o. c #ECA508",
"O. c #EDA508",
"+. c #E6AB08",
"@. c #EFAD08",
"#. c #ECAF08",
"$. c #F3A208",
"%. c #F3A708",
"&. c #F6A708",
"*. c #F9A108",
"=. c #F9A708",
"-. c #FCA408",
";. c #FFA408",
":. c #FFA608",
">. c #F3AE08",
",. c #F3AF08",
"<. c #FFA908",
"1. c #F9AC08",
"2. c #FFAE08",
"3. c #E6B608",
"4. c #E9BB08",
"5. c #F3B208",
"6. c #F3B708",
"7. c #F9B208",
"8. c #FCB008",
"9. c #FFB008",
"0. c #FFB208",
"q. c #FFB308",
"w. c #FFB708",
"e. c #F9B808",
"r. c #F9B908",
"t. c #FCB808",
"y. c #FFB808",
"u. c #F9BE08",
"i. c #FFBD08",
"p. c #FFBE08",
"a. c #ECC708",
"s. c #F9C008",
"d. c #F9C308",
"f. c #FFC008",
"g. c #FFC208",
"h. c #FFC308",
"j. c #FFC408",
"k. c #F9CB08",
"l. c #FCC808",
"z. c #FFC908",
"x. c #FFCA08",
"c. c #FFCC08",
"v. c #FFCD08",
"b. c #F9D108",
"n. c #FCD008",
"m. c #FFD108",
"M. c #FCD308",
"N. c #FFD208",
"B. c #FFD308",
"V. c #F9D508",
"C. c #FFD408",
"Z. c #FFD508",
"A. c #FFD608",
"S. c #FFD708",
"D. c #F3D808",
"F. c #F3D908",
"G. c #FFD808",
"H. c #FFD908",
"J. c #FCDB08",
"K. c #FFDF08",
"L. c #FFE008",
"P. c #FFE308",
"I. c #FFE608",
"U. c #F9EA08",
"Y. c #FFEA08",
"T. c #FFED08",
"R. c #FFEF08",
"E. c #FFF108",
"W. c #FFF408",
"Q. c #FFF708",
"!. c #FFFB08",
"~. c #3D3581",
"^. c #443680",
"/. c #423A8B",
"(. c #483E89",
"). c #484091",
"_. c #4A4291",
"`. c #504090",
"'. c #54469A",
"]. c #52459D",
"[. c #56499F",
"{. c #7B5E8C",
"}. c #7C5E8C",
"|. c #745C97",
" X c #755C97",
".X c #5E4FAD",
"XX c #5C52AE",
"oX c #6E5BA2",
"OX c #6759AD",
"+X c #675AAD",
"@X c #6058B8",
"#X c #665BC1",
"$X c #6E5ECC",
"%X c #6C61CD",
"&X c #7464CC",
"*X c #7264D6",
"=X c #7A6BD1",
"-X c #7467DB",
";X c #7E71DB",
":X c #786AE2",
">X c #826081",
",X c #836081",
"<X c #8476E2",
"1X c #8070F0",
"2X c #8676F0",
"3X c #8C7CF0",
"4X c #9080F0",
/* pixels */
"`.$X2X4X4X4X4X4X4X4X4X4X4X4X4X4X4X4X4X4X4X4X4X4X4X4X4X4X4X4X4X4X4X4X4X4X4X4X4X4X4X4X4X4X4X4X4X4X4X4X4X4X4X4X4X4X4X4X4X4X1X%X).$ ",
"`.&X3X4X4X4X4X4X4X4X4X4X4X4X4X4X4X4X4X4X4X4X4X4X4X4X4X4X4X4X4X4X4X4X4X4X4X4X4X4X4X4X4X4X4X4X4X4X4X4X4X4X4X4X4X4X4X4X4X4X1X%X_.* ",
"'.=X4X4X<X<X<X<X<X<X<X<X<X<X<X<X<X<X<X<X<X<X<X<X<X<X<X<X<X<X<X<X<X<X<X<X<X<X<X<X<X<X<X<X<X<X<X<X<X<X<X<X<X<X<X<X<X<X<X<X:X#X(.- ",
"@X;X4X4X@X@X@X@X@X@X@X@X@X@X@X@X@X@X@X@X@X@X@X@X@X@X@X@X@X@X@X@X@X@X@X@X@X@X@X@X@X@X@X@X@X@X@X@X@X@X@X@X@X@X@X@X@X@X@X@X@X[.1 - ",
"@X-X-X@X@X@X@X@X@X@X@X@X@X@X@X@X@X@X@X@X@X@X@X@X@X@X@X@X@X@X@X@X@X@X@X@X@X@X@X@X@X@X@X@X@X@X@X@X@X@X@X@X@X@X@X@X@X@X@X@X@X> +   ",
"@X-X-X@X@X@X@X@X@X@X@X@X@X@X@X@X@X@X@X@X@X@X@X@X@X@X@X@X@X@X@X@X@X@X@X@X@X@X@X@X@X@X@X@X@X@X@X@X@X@X@X@X@X@X@X@X@X@X@X@X@X> +   ",
"@X-X-X@X@X@X@X@X@X@X@X@X@X@X@X@X@X@X@X@X@X@X@X@X@X@X@X@X@X@X@X@X@X@X@X@X@X@X@X@X@X@X@X@X@X@X@X@X@X@X@X@X@X@X@X@X@X@X@X@X@X> +   ",
"@X-X-X@X@X@X@X@X@X@X@X@X@X@X@X@X@X@X@X@X@X@X@X@X@X@X@X@X@X@X@X@X@X@X@X@X@X@X@X@X@X@X@X@X@X@X@X@X@X@X@X@X@X@X@X@X@X@X@X@X@X> +   ",
"@X-X-X@X@X@X@X@X@X@X@X@X@X@X@X@X@X@X@X@X@X@X@X@X@X@X@X@X>Xx x x x x x x {.@X@X@X@X@X@X@X@X@X@X@X@X@X@X@X@X@X@X@X@X@X@X@X@X> +   ",
"@X-X-X@X@X@X@X@X@X@X@X@X@X@X@X@X@X@X@X@X@X@X@X@X@X@X@X@Xs 9 9 9 9 9 9 9 f @X@X@X@X@X@X@X@X@X@X@X@X@X@X@X@X@X@X@X@X@X@X@X@X> +   ",
"@X-X-X@X@X@X@X@X@X@X@X@X@X@X@X@X@X@X@X@X@X@X@X@X@X@X>Xs 9 9 t r.r.o.9 9 p s @X@X@X@X@X@X@X@X@X@X@X@X@X@X@X@X@X@X@X@X@X@X@X> +   ",
"@X-X-X@X@X@X@X@X@X@X@X@X@X@X@X@X@X@X@X@X@X@X@X@X@X@Xx 9 C / 4.K.K.V.3.T i 9 @X@X@X@X@X@X@X@X@X@X@X@X@X@X@X@X@X@X@X@X@X@X@X> +   ",
"@X-X-X@X@X@X@X@X@X@X@X@X@X@X@X@X@X@X@X@X@X@X@X@X@X@Xx 9 ` x.!.!.!.!.!.0.K 9 @X@X@X@X@X@X@X@X@X@X@X@X@X@X@X@X@X@X@X@X@X@X@X> +   ",
"@X-X-X@X@X@X@X@X@X@X@X@X@X@X@X@X@X@X@X@X@X@X@X@X@X8 9 9 e.K.!.!.!.!.!.m.o.9 9 k @X@X@X@X@X@X@X@X@X@X@X@X@X@X@X@X@X@X@X@X@X> +   ",
"@X-X-X@X@X@X@X@X@X@X@X@X@X@X@X@X@X@X@X@X@X@X@X@X@X8 u P J.E.!.!.!.!.!.T.d.P 9 k @X@X@X@X@X@X@X@X@X@X@X@X@X@X@X@X@X@X@X@X@X> +   ",
"@X-X-X@X@X@X@X@X@X@X@X@X@X@X@X@X@X@X@X@X@X@X@X@X{.5 V ;.E.!.!.!.!.!.!.!.H.;.9 h {.@X@X@X@X@X@X@X@X@X@X@X@X@X@X@X@X@X@X@X@X> +   ",
"@X-X-X@X@X@X@X@X@X@X@X@X@X@X@X@X@X@X@X@X@X@X@XoX9 9 F h.W.!.!.!.!.!.!.!.I.h.9 9 a @X@X@X@X@X@X@X@X@X@X@X@X@X@X@X@X@X@X@X@X> +   ",
"@X-X-X@X@X@X@X@X@X@X@X@X@X@X@X@X@X@X@X@X@X@X@XoX9 J 7.T.!.!.!.!.!.!.!.!.W.T.) B a @X@X@X@X@X@X@X@X@X@X@X@X@X@X@X@X@X@X@X@X> +   ",
"XX*X-X@X@X@X@X@X@X@X@X@X@X@X@X@X@X@X@X@X@X@X{.z 9 [ z.!.!.!.!.!.!.!.!.!.!.!.<.G p x OX@X@X@X@X@X@X@X@X@X@X@X@X@X@X@X@X@X@X> +   ",
"`.$X-X@X@X@X@X@X@X@X@X@X@X@X@X@X@X@X@X@X@X@Xg 9 9 ,.G.!.!.!.!.!.!.!.!.!.!.!.h.^ 9 9 }.@X@X@X@X@X@X@X@X@X@X@X@X@X@X@X@X@X@X> +   ",
"@X-X-X@X@X@X@X@X@X@X@X@X@X@X@X@X@X@Xs 9 9 9 9 9 9 F.!.!.!.!.!.!.!.!.!.!.!.!.!.3.9 9 9 9 9 9 f @X@X@X@X@X@X@X@X@X@X@X@X@X@X> +   ",
"@X-X-X@X@X@X@X@X@X@X@X@X@X+Xk k k k p u S ^ +.3.3.U.!.!.!.!.!.!.!.!.!.!.!.!.!.D.3.3. .W S 0 4 k k k z @X@X@X@X@X@X@X@X@X@X> +   ",
"@X-X-X@X@X@X@X@X@X@X@XoXoX{.9 w e t v Q :.x.Y.!.!.!.!.!.!.!.!.!.!.!.!.!.!.!.!.!.!.!.G.g.:.M y t w 0 a oXoXOX@X@X@X@X@X@X@X> +   ",
"@X-X-X@X@X@X@X@X@X@X@X9 9 9 9 ) ;.h.W.!.!.!.!.!.!.!.!.!.!.!.!.!.!.!.!.!.!.!.!.!.!.!.!.!.!.!.I.h.| B 9 9 9 f @X@X@X@X@X@X@X> +   ",
"@X-X-X@X@X@X@X@X@X{.j 9 i I O.k.H.I.Q.!.!.!.!.!.!.!.!.!.!.!.!.!.!.!.!.!.!.!.!.!.!.!.!.!.!.!.W.I.S.6.X.P w a j OX@X@X@X@X@X> +   ",
"@X-X-X@X@X@X@X@X@Xx 9 9 R w.m.E.!.!.!.!.!.!.!.!.!.!.!.!.!.!.!.!.!.!.!.!.!.!.!.!.!.!.!.!.!.!.!.!.!.K.c.0.b 9 9 oX@X@X@X@X@X> +   ",
"@X-X-X@X@X@X@X@X@Xx 9 9 3.!.!.!.!.!.!.!.!.!.!.!.!.!.!.!.!.!.!.!.!.!.!.!.!.!.!.!.!.!.!.!.!.!.!.!.!.!.!.!.N 9 9 oX@X@X@X@X@X> +   ",
"@X-X-X@X@X@X@X@X@Xx 9 ` l.!.!.!.!.!.!.!.!.!.!.!.!.!.!.!.!.!.!.!.!.!.!.!.!.!.!.!.!.!.!.!.!.!.!.!.!.!.!.!.8.H 9 oX@X@X@X@X@X> +   ",
"@X-X-X@X@X@X@X@X@Xx 9 | x.!.!.!.!.!.!.!.!.!.!.!.!.!.!.!.!.!.!.!.!.!.!.!.!.!.!.!.!.!.!.!.!.!.!.!.!.!.!.!.0.K 9 oX@X@X@X@X@X> +   ",
"@X-X-X@X@X@X@X@X@Xx 9 | x.!.!.!.!.!.!.!.!.!.!.!.!.!.!.!.!.!.!.!.!.!.!.!.!.!.!.!.!.!.!.!.!.!.!.!.!.!.!.!.0.K 9 oX@X@X@X@X@X> +   ",
"@X-X-X@X@X@X@X@X@Xx 9 9 ^ x.!.!.!.!.!.!.!.!.!.!.!.!.!.!.!.!.!.!.!.!.!.!.!.!.!.!.!.!.!.!.!.!.!.!.!.!.W.h.m 9 9 oX@X@X@X@X@X> +   ",
"@X-X-X@X@X@X@X@X@XoXx 9 c ~ G.W.!.!.!.!.!.!.!.!.!.!.!.!.!.!.!.!.!.!.!.!.!.!.!.!.!.!.!.!.!.!.!.!.!.I.n.F t 6 x OX@X@X@X@X@X> +   ",
"@X-X-X@X@X@X@X@X@X@X@Xa p t e.T.!.!.!.!.!.!.!.!.!.!.!.!.!.!.!.!.!.!.!.!.!.!.!.!.!.!.!.!.!.!.!.!.!.M.>.9 a d @X@X@X@X@X@X@X> +   ",
"@X-X-X@X@X@X@X@X@X@X@X@Xk 9 9 F.!.!.!.!.!.!.!.!.!.!.!.!.!.!.!.!.!.!.!.!.!.!.!.!.!.!.!.!.!.!.!.!.!...9 9 }.@X@X@X@X@X@X@X@X> +   ",
"@X-X-X@X@X@X@X@X@X@X@X@Xk 9 9 $.j.!.!.!.!.!.!.!.!.!.!.!.!.!.!.!.!.!.!.!.!.!.!.!.!.!.!.!.!.!.!.!.0.A 9 9 }.@X@X@X@X@X@X@X@X> +   ",
"@X-X-X@X@X@X@X@X@X@X@X@Xx 7 9 H &.T.Q.!.!.!.!.!.!.!.!.!.!.!.!.!.!.!.!.!.!.!.!.!.!.!.!.!.!.!.Q.T.Y u 9 7  X@X@X@X@X@X@X@X@X> +   ",
"@X-X-X@X@X@X@X@X@X@X@X@X@XoX9 9 m h.W.!.!.!.!.!.!.!.!.!.!.!.!.!.!.!.!.!.!.!.!.!.!.!.!.!.!.!.I.h.9 9 a @X@X@X@X@X@X@X@X@X@X> +   ",
"@X-X-X@X@X@X@X@X@X@X@X@X@X@XoX4 9 t s.P.!.!.!.!.!.!.!.!.!.!.!.!.!.!.!.!.!.!.!.!.!.!.!.!.!.m.@.t 9 l oX@X@X@X@X@X@X@X@X@X@X> +   ",
"@X-X-X@X@X@X@X@X@X@X@X@X@X@X@Xx j 9 =.Z.!.!.!.!.!.!.!.!.!.!.!.!.!.!.!.!.!.!.!.!.!.!.!.!.!.y.! 9 k |.@X@X@X@X@X@X@X@X@X@X@X> +   ",
"@X-X-X@X@X@X@X@X@X@X@X@X@X@X@X@X{.9 ` x.!.!.!.!.!.!.!.!.!.!.!.!.!.!.!.!.!.!.!.!.!.!.!.!.!.:.K 9 @X@X@X@X@X@X@X@X@X@X@X@X@X> +   ",
"@X-X-X@X@X@X@X@X@X@X@X@X@X@X@X@X{.9 ` x.!.!.!.!.!.!.!.!.!.!.!.!.!.!.!.!.!.!.!.!.!.!.!.!.!.:.K 9 @X@X@X@X@X@X@X@X@X@X@X@X@X> +   ",
"@X-X-X@X@X@X@X@X@X@X@X@X@X@X@X@X{.9 1.S.!.!.!.!.!.!.!.!.!.!.!.!.!.!.!.!.!.!.!.!.!.!.!.!.!.i.( 9 @X@X@X@X@X@X@X@X@X@X@X@X@X> +   ",
"@X-X-X@X@X@X@X@X@X@X@X@X@X@X@X|.z 9 d.I.!.!.!.!.!.!.!.!.!.!.!.!.!.!.!.!.!.!.!.!.!.!.!.!.!.C.#.9 {.oX@X@X@X@X@X@X@X@X@X@X@X, @   ",
"@X-X-X@X@X@X@X@X@X@X@X@X@X@X@X8 9 9 U.!.!.!.!.!.!.!.!.!.!.!.!.!.!.!.!.!.!.!.!.!.!.!.!.!.!.!.a.9 9 x @X@X@X@X@X@X@X@X@X@X@X/.=   ",
"@X-X-X@X@X@X@X@X@X@X@X@X@X@X@X8 r ) R.!.!.!.!.!.!.!.!.!.!.!.!.!.!.!.!.!.!.!.!.!.!.!.!.!.!.!.b.) 9 x @X@X@X@X@X@X@X@X@X@X@X/.=   ",
"@X-X-X@X@X@X@X@X@X@X@X@X@X@X@X8 u | R.!.!.!.!.!.!.!.!.!.!.!.!.!.!.!.!.!.!.!.!.!.!.!.!.!.!.!.A.| 9 x @X@X@X@X@X@X@X@X@X@X@X/.=   ",
"@X-X-X@X@X@X@X@X@X@X@X@X@X@X@X8 u | R.!.!.!.!.!.!.!.!.!.!.!.!.!.!.!.!.!.!.!.!.!.!.!.!.!.!.!.A.| 9 x @X@X@X@X@X@X@X@X@X@X@X/.=   ",
"@X-X-X@X@X@X@X@X@X@X@X@X@X@X@X8 m h.W.!.!.!.!.!.!.!.!.!.!.K.h.h.h.h.h.T.!.!.!.!.!.!.!.!.!.!.I.h.9 x @X@X@X@X@X@X@X@X@X@X@X/.=   ",
"@X-X-X@X@X@X@X@X@X@X@X@X@X@X@X8 m h.W.!.!.!.!.!.!.!.E.K.v.5.^ ^ ^ ^ ^ u.N.K.!.!.!.!.!.!.!.!.I.h.9 x @X@X@X@X@X@X@X@X@X@X@X/.=   ",
"@X-X-X@X@X@X@X@X@X@X@X@X@X@X@X8 n p.T.Q.!.!.!.!.W.R.J.e.} C 9 a a p 9 K *.e.R.E.W.!.!.!.!.W.L.p.9 x @X@X@X@X@X@X@X@X@X@X@X/.=   ",
"@X-X-X@X@X@X@X@X@X@X@X@X@X@X@X8 u | p.K.!.!.!.W.h.;.K 9 9 9 a @X@X{.9 9 9 9 | 2.x.!.!.!.!.x.q.| 9 x @X@X@X@X@X@X@X@X@X@X@X/.=   ",
"@X-X-X@X@X@X@X@X@X@X@X@X@X@X@X8 q B -.f.G.G.z.t.F Z u 9 z x ,X@X@X+Xx x g 9 B D E p.B.G.G.9.' B 9 x @X@X@X@X@X@X@X@X@X@X@X/.=   ",
"@X-X-X@X@X@X@X@X@X@X@X@X@X@X@Xd 4 9 U { >.>.] L 9 4 7 7 OX@X@X@X@X@X@X@X>X7 7 s w Y %.>.>._ C 9 7 {.@X@X@X@X@X@X@X@X@X@X@X/.=   ",
"@X-X-X@X@X@X@X@X@X@X@X@X@X@X@X@X{.9 9 9 9 9 9 9 9 }.@X@X@X@X@X@X@X@X@X@X@X@X@Xk 9 9 9 9 9 9 9 9 @X@X@X@X@X@X@X@X@X@X@X@X@X/.=   ",
"@X-X-X@X@X@X@X@X@X@X@X@X@X@X@X@X@XoXoXoXoXoXoXoXoXOX@X@X@X@X@X@X@X@X@X@X@X@X@XOXoXoXoXoXoXoXoXoX@X@X@X@X@X@X@X@X@X@X@X@X@X/.=   ",
"@X-X-X@X@X@X@X@X@X@X@X@X@X@X@X@X@X@X@X@X@X@X@X@X@X@X@X@X@X@X@X@X@X@X@X@X@X@X@X@X@X@X@X@X@X@X@X@X@X@X@X@X@X@X@X@X@X@X@X@X@X/.=   ",
"@X-X-X@X@X@X@X@X@X@X@X@X@X@X@X@X@X@X@X@X@X@X@X@X@X@X@X@X@X@X@X@X@X@X@X@X@X@X@X@X@X@X@X@X@X@X@X@X@X@X@X@X@X@X@X@X@X@X@X@X@X/.=   ",
"@X-X-X@X@X@X@X@X@X@X@X@X@X@X@X@X@X@X@X@X@X@X@X@X@X@X@X@X@X@X@X@X@X@X@X@X@X@X@X@X@X@X@X@X@X@X@X@X@X@X@X@X@X@X@X@X@X@X@X@X@X/.=   ",
"@X-X-X@X@X@X@X@X@X@X@X@X@X@X@X@X@X@X@X@X@X@X@X@X@X@X@X@X@X@X@X@X@X@X@X@X@X@X@X@X@X@X@X@X@X@X@X@X@X@X@X@X@X@X@X@X@X@X@X@X@X/.=   ",
"@X-X-X@X@X@X@X@X@X@X@X@X@X@X@X@X@X@X@X@X@X@X@X@X@X@X@X@X@X@X@X@X@X@X@X@X@X@X@X@X@X@X@X@X@X@X@X@X@X@X@X@X@X@X@X@X@X@X@X@X@X/.=   ",
"@X-X-X@X@X@X@X@X@X@X@X@X@X@X@X@X@X@X@X@X@X@X@X@X@X@X@X@X@X@X@X@X@X@X@X@X@X@X@X@X@X@X@X@X@X@X@X@X@X@X@X@X@X@X@X@X@X@X@X@X@X> +   ",
": ]..X[.[.[.[.[.[.[.[.[.[.[.[.[.[.[.[.[.[.[.[.[.[.[.[.[.[.[.[.[.[.[.[.[.[.[.[.[.[.[.[.[.[.[.[.[.[.[.[.[.[.[.[.[.[.[.[.[.~.# X + ",
"% ; ^.^.^.^.^.^.^.^.3 < < < < < < < < < < 2 ^.^.^.^.^.^.^.^.^.^.^.^.^.^.^.^.^.^.^.^.3 < < < < < < < < < < < < < < < < < % . o - ",
"- & $ $ $ $ $ $ $ $ O                     O $ $ $ $ $ $ $ $ $ $ $ $ $ $ $ $ $ $ $ $ O                                     + - - "
};
