/* XPM */
static char *result[] = {
/* columns rows colors chars-per-pixel */
"64 64 219 2 ",
"   c black",
".  c #090101",
"X  c #0C0202",
"o  c #0B0204",
"O  c #0D0407",
"+  c #130007",
"@  c #170005",
"#  c #160407",
"$  c #170407",
"%  c #10070A",
"&  c #190008",
"*  c #1A000A",
"=  c #1B000A",
"-  c #1C090E",
";  c #1D0B11",
":  c #1F0E14",
">  c #250606",
",  c #260606",
"<  c #2D080E",
"1  c #3E0A0A",
"2  c #290D15",
"3  c #300A11",
"4  c #340D12",
"5  c #320D15",
"6  c #341019",
"7  c #35121B",
"8  c #37121C",
"9  c #37121D",
"0  c #391420",
"q  c #391520",
"w  c #3E1C29",
"e  c #333233",
"r  c #4A0C0C",
"t  c #440C15",
"y  c #4F0E19",
"u  c #5A0014",
"i  c #5A101C",
"p  c #6D0E13",
"a  c #780C16",
"s  c #631010",
"d  c #491F2D",
"f  c #531B2B",
"g  c #651A2B",
"h  c #711424",
"j  c #710731",
"k  c #6A1F32",
"l  c #4D2334",
"z  c #562031",
"x  c #5C2A3D",
"c  c #5C2A3E",
"v  c #4E313D",
"b  c #612032",
"n  c #6F2439",
"m  c #403F40",
"M  c #82161F",
"N  c #87182B",
"B  c #860033",
"V  c #9E1C32",
"C  c #B50029",
"Z  c #BE0334",
"A  c #BF123B",
"S  c #912535",
"D  c #B52039",
"F  c #C10F3C",
"G  c #800C42",
"H  c #801A4A",
"J  c #AD0D4A",
"K  c #8B2D47",
"L  c #8B2D48",
"P  c #972740",
"I  c #A72C46",
"U  c #BF2A48",
"Y  c #BE304D",
"T  c #A73756",
"R  c #AA3B5C",
"E  c #B33B5C",
"W  c #C90042",
"Q  c #CA0043",
"!  c #CE084C",
"~  c #D2004D",
"^  c #D0094C",
"/  c #D60052",
"(  c #D50A51",
")  c #C51558",
"_  c #CE135B",
"`  c #E0065E",
"'  c #C42F4F",
"]  c #CE2A57",
"[  c #C93456",
"{  c #C23C5E",
"}  c #CE395D",
"|  c #CE395E",
" . c #D81260",
".. c #D81667",
"X. c #E10960",
"o. c #E30F61",
"O. c #ED0F6F",
"+. c #E81067",
"@. c #ED126D",
"#. c #ED126E",
"$. c #EF0F71",
"%. c #EF0F72",
"&. c #F21175",
"*. c #FB167F",
"=. c #CE3E62",
"-. c #D43E64",
";. c #D63B69",
":. c #E1256A",
">. c #984464",
",. c #9A4667",
"<. c #A44767",
"1. c #B94366",
"2. c #B3577D",
"3. c #C24065",
"4. c #C5446B",
"5. c #D04267",
"6. c #D6446A",
"7. c #D9406A",
"8. c #D84A72",
"9. c #DE4973",
"0. c #E14E79",
"q. c #E2507B",
"w. c #E3517D",
"e. c #E2527E",
"r. c #E4537F",
"t. c #FF1884",
"y. c #FF3494",
"u. c #807D80",
"i. c #E45380",
"p. c #E25480",
"a. c #E25481",
"s. c #E75885",
"d. c #E75886",
"f. c #E75D8A",
"g. c #EA5D8C",
"h. c #FA4F99",
"j. c #D86390",
"k. c #D86391",
"l. c #E1608B",
"z. c #E36791",
"x. c #E76490",
"c. c #E46592",
"v. c #EA6290",
"b. c #ED6292",
"n. c #EE6292",
"m. c #EA6492",
"M. c #EA6796",
"N. c #EC6896",
"B. c #EA6A9B",
"V. c #E96F9B",
"C. c #F06798",
"Z. c #F46C9E",
"A. c #F46C9F",
"S. c #E371A0",
"D. c #E373A4",
"F. c #ED76A3",
"G. c #EC75A7",
"H. c #F771A5",
"J. c #F572A6",
"K. c #F875A9",
"L. c #F977AB",
"P. c #F877AC",
"I. c #F07AAE",
"U. c #F27AAE",
"Y. c #F57DAD",
"T. c #F67EAF",
"R. c #FA7DB1",
"E. c #F97DB3",
"W. c #E880B4",
"Q. c #F780B1",
"!. c #F380B6",
"~. c #F381B6",
"^. c #FA81B4",
"/. c #FB80B5",
"(. c #FB81B5",
"). c #F981B7",
"_. c #F686BC",
"`. c #FA83BA",
"'. c #FB85BB",
"]. c #FC85B9",
"[. c #FC86BA",
"{. c #FA86BE",
"}. c #FB89BB",
"|. c #FD89BD",
" X c #F78BC3",
".X c #FB89C1",
"XX c #F98BC2",
"oX c #FC8BC2",
"OX c #FD8CC1",
"+X c #FE8EC2",
"@X c #F88EC6",
"#X c #FC8FC8",
"$X c #FC8FC9",
"%X c #FF92C6",
"&X c #F692CA",
"*X c #FC90C9",
"=X c #FF94C9",
"-X c #FC93CC",
";X c #FD93CC",
":X c #FF96CC",
">X c #FD95CF",
",X c #FF98CF",
"<X c #FB97D1",
"1X c #FD95D0",
"2X c #FD96D0",
"3X c #FD99D3",
"4X c #FF9AD2",
"5X c #FF9BD4",
"6X c #FF9CD5",
"7X c #FE9CD7",
"8X c #FF9DD7",
"9X c #FF9ED8",
"0X c #FF9FDA",
"qX c #FFA0DB",
"wX c #FFA1DD",
"eX c #FFA2DE",
"rX c #FFDFEF",
"tX c #FFFBFF",
"yX c None",
/* pixels */
"yXyXyXyXyXyXyXyXyXyXyXyXyXyXyXyXyXyXyXyXyXyXyXyXyXyXyXyXyXyXyXyXyXyXyXyXyXyXyXyXyXyXyXyXyXyXyXyXyXyXyXyXyXyXyXyXyXyXyXyXyXyXyXyX",
"yXyXyXyXyXyXyXyXyXyXyXyXyXyXyXyXyXyXyXyXyXyXyXyXyXyXyXyXyXyXyXyXyXyXyXyXyXyXyXyXyXyXyXyXyXyXyXyXyXyXyXyXyXyXyXyXyXyXyXyXyXyXyXyX",
"yXyXyXyXyXyXyXyXyXyXyXyXyXyXyXyXyXyXyXyXyXyXyXyXyXyXyXyXyXyXyXyXyXyXyXyXyXyXyXyXyXyXyXyXyXyXyXyXyXyXyXyXyXyXyXyXyXyXyXyXyXyXyXyX",
"yXyXyXyXyXyXyXyXyXyXyXyXyXyXyXyXyXyXyXyXyXyXyXyXyXyXyXyXyXyXyXyXyXyXyXyXyXyXyXyXyXyXyXyXyXyXyXyXyXyXyXyXyXyXyXyXyXyXyXyXyXyXyXyX",
"yXyXyXyXyXyXyXyXyXyXyXyXyXyXyXyXyXyXyXyXyXyXyXyXyXyXyXyXyXyXyXyXyXyXyXyXyXyXyXyXyXyXyXyXyXyXyXyXyXyXyXyXyXyXyXyXyXyXyXyXyXyXyXyX",
"yXyXyXyXyXyXyXyXyXyXyXyXyXyXyXyXyXyXyXyXyXyXyXyXyXyXyXyXyXyXyXyXyXyXyXyXyXyXyXyXyXyXyXyXyXyXyXyXyXyXyXyXyXyXyXyXyXyXyXyXyXyXyXyX",
"yXyXyXyXyXyXyXyXyXyXyXyXyXyXyXyXyXyXyXyXyXyXyXyXyXyXyXyXyXyXyXyXyXyXyXyXyXyXyXyXyXyXyXyXyXyXyXyXyXyXyXyXyXyXyXyXyXyXyXyXyXyXyXyX",
"yXyXyXyXyXyXyXyXyXyXyXyXyXyXyXyXyXyXyXyXyXyXyXyXyXyXyXyXyXyXyXyXyXyXyXyXyXyXyXyXyXyXyXyXyXyXyXyXyXyXyXyXyXyXyXyXyXyXyXyXyXyXyXyX",
"yXyXyXyXyXyXyXyXyXyXyXyXyXyXyXyXyXyXyXyXyXyXyXyXyXyXyXyXyXyXyXyXyXyXyXyXyXyXyXyXyXyXyXyXyXyXyXyXyXyXyXyXyXyXyXyXyXyXyXyXyXyXyXyX",
"yXyXyXyXyXyXyXyXyXyXyXyXyXyXyXyXyXyXyXyXyXyXyXyXyXyXyXyXyXyXyXyXyXyXyXyXyXyXyXyXyXyXyXyXyXyXyXyXyXyXyXyXyXyXyXyXyXyXyXyXyXyXyXyX",
"yXyXyXyXyXyXyXyXyXyXyXyXyXyXyXyXyXyXyXyXyXyXyXyXyXyXyXyXyXyXyXyXyXyXyXyXyXyXyXyXyXyXyXyXyXyXyXyXyXyXyXyXyXyXyXyXyXyXyXyXyXyXyXyX",
"yXyXyXyXyXyXyXyXyXyXyXyXyXyXyXyXyXyXyXyXyXyXyXyXyXyXyXyXyXyXyXyXyXyXyXyXyXyXyXyXyXyXyXyXyXyXyXyXyXyXyXyXyXyXyXyXyXyXyXyXyXyXyXyX",
"yXyXyXyXyXyXyXyXyXyXyXyXyXyXyX              yXyX                                  yXyXyXyXyXyXyXyXyXyXyXyXyXyXyXyXyXyXyXyXyXyXyX",
"yXyXyXyXyXyXyXyXyXyXyXyXyXyXyX              yXyX                                  yXyXyXyXyXyXyXyXyXyXyXyXyXyXyXyXyXyXyXyXyXyXyX",
"yXyXyXyXyXyXyXyXyXyXyXyXyX  e u.u.H G j u u         o i i k n n n n n n g i y               yXyXyXyXyXyXyXyXyXyXyXyXyXyXyXyXyXyX",
"yXyXyXyXyXyXyXyXyXyXyXyX    m tXtXy.t.o.C C         $ D D -.9.9.9.9.9.9.[ D V               yXyXyXyXyXyXyXyXyXyXyXyXyXyXyXyXyXyX",
"yXyXyXyXyXyXyXyXyXyXyXyX+ * v rXrXy.t.+.Z Z - - ; : 7 Y Y 8.p.p.p.p.p.p.5.Y I : : ; - O     yXyXyXyXyXyXyXyXyXyXyXyXyXyXyXyXyXyX",
"yXyXyXyXyXyXyXyXyXyX    B / ` t.t.t.t.t.t.t.9.9.b.H.P.eXeXeXeXeXeXeXeXeXeXeX7XH.H.d.9.T           yXyXyXyXyXyXyXyXyXyXyXyXyXyXyX",
"yXyXyXyXyXyXyXyXyXyX    B / ` t.t.t.t.t.t.t.9.9.b.H.P.eXeXeXeXeXeXeXeXeXeXeX7XH.H.d.9.T           yXyXyXyXyXyXyXyXyXyXyXyXyXyXyX",
"yXyXyXyXyXyXyXyX  . 1 1 J %.&.t.t.( ^ :.h.h.~.~.XX*X-XeXeXeXeXeXeXeXeXeXeXeX0X*X*X_.~.D.,.,.%         yXyXyXyXyXyXyXyXyXyXyXyXyX",
"yXyXyXyXyXyXyX    X s s ) t.t.t.t.Z C ] H.H.eXeXeXeXeXeXeXeXeXeXeXeXeXeXeXeXeXeXeXeXeX>XH.H.:         yXyXyXyXyXyXyXyXyXyXyXyXyX",
"yXyXyXyXyXyXyX    X a a _ t.*.#.#.F A ;.E.E.eXeXeXeXeXeXeXeXeXeXeXeXeXeXeXeXeXeXeXeXeX3XE.E.d 8 2     yXyXyXyXyXyXyXyXyXyXyXyXyX",
"yXyXyXyXyXyXyX    @ C C o.t.@.C C 7.9.B.eXeXeXeXeXeXeXeXeXeXeXeXeXeXeXeXeXeXeXeXeXeXeXeXeXeXa.9.K     yXyXyXyXyXyXyXyXyXyXyXyXyX",
"yXyXyXyXyXyXyX    @ C C o.t.@.C C 7.9.B.eXeXeXeXeXeXeXeXeXeXeXeXeXeXeXeXeXeXeXeXeXeXeXeXeXeXa.9.K     yXyXyXyXyXyXyXyXyXyXyXyXyX",
"yXyXyXyXyXyXyX    = ~ ~ O.t...p p l.Z.).eXeXeXeXeXeXeXeXeXeXeXeXeXeXeXeXeXeXeXeXeXeXeXeXeXeXJ.Z.>.        yXyXyXyXyXyXyXyXyXyXyX",
"yXyXyXyXyXyXyX    = / / $.t...s s c.H.`.eXeXeXeXeXeXeXeXeXeXeXeXeXeXeXeXeXeXeXeXeXeXeXeXeXeXP.H.,.        yXyXyXyXyXyXyXyXyXyXyX",
"yXyXyXyXyXyXyX    & Q Q X.$. .M M G.`.*XeXeXeXeXeXeXeXeXeXeXeXeXeXeXeXeXeXeXeXeXeXeXeXeXeXeX{.`.2.t t     yXyXyXyXyXyXyXyXyXyXyX",
"yXyXyXyXyXyXyX    @ C C W / ! D D &XeXeXeXeXeXeXeXeXeXeXeXeXeXeXeXeXeXeXeXeXeXeXeXeXeXeXeXeXeXeXS.D D     yXyXyXyXyXyXyXyXyXyXyX",
"yXyXyXyXyXyXyX    @ C C W / ! D D &XeXeXeXeXeXeXeXeXeXeXeXeXeXeXeXeXeXeXeXeXeXeXeXeXeXeXeXeXeXeXS.D D     yXyXyXyXyXyXyXyXyXyXyX",
"yXyXyXyXyXyXyXyXyXyX        9 9.9.<XeXeXeXeXeXeXeXeXeXeXeXeXeXeXeXeXeXeXeXeXeXeXeXeXeXeXeXeXeXeX!.9.9.    yXyXyXyXyXyXyXyXyXyXyX",
"yXyXyXyXyXyXyXyXyXyX        9 9.9.<XeXeXeXeXeXeXeXeXeXeXeXeXeXeXeXeXeXeXeXeXeXeXeXeXeXeXeXeXeXeX!.9.9.    yXyXyXyXyXyXyXyXyXyXyX",
"yXyXyXyXyXyXyXyXyXyXyXyX    9 9.9.<XeXeXeXeXeXeXeXeXeXeXeXeXeXeXeXeXeXeXeXeXeXeXeXeXeXeXeXeXeXeX!.9.9.    yXyXyXyXyXyXyXyXyXyXyX",
"yXyXyXyXyXyXyXyXyXyXyXyX    9 9.9.<XeXeXeXeXeXeXeXeXeXeXeXeXeXeXeXeXeXeXeXeXeXeXeXeXeXeXeXeXeXeX!.9.9.    yXyXyXyXyXyXyXyXyXyXyX",
"yXyXyXyXyXyXyXyXyXyXyXyX    9 9.9.<XeXeXeXeXeXeXeXeXeXeXeXeXeXeXeXeXeXeXeXeXeXeXeXeXeXeXeXeXeXeX!.9.9.    yXyXyXyXyXyXyXyXyXyXyX",
"yXyXyXyXyXyXyXyXyXyXyXyX    9 9.9.<XeXeXeXeXeXeXeXeXeXeXeXeXeXeXeXeXeXeXeXeXeXeXeXeXeXeXeXeXeXeX!.9.9.    yXyXyXyXyXyXyXyXyXyXyX",
"yXyXyXyXyXyXyXyXyXyXyXyX    9 9.9.<XeXeXeXeXeXeXeXeXeXeXeXeXeXeXeXeXeXeXeXeXeXeXeXeXeXeXeXeXeXeX!.9.9.    yXyXyXyXyXyXyXyXyXyXyX",
"yXyXyXyXyXyXyXyXyXyXyXyX    3 U U &XeXeXeXeXeXeXeXeXeXeXeXeXeXeXeXeXeXeXeXeXeXeXeXeXeXeXeXeX,X:XV.U U     yXyXyXyXyXyXyXyXyXyXyX",
"yXyXyXyXyXyXyXyXyXyXyXyX    < D D &XeXeXeXeXeXeXeXeXeXeXeXeXeXeXeXeXeXeXeXeXeXeXeXeXeXeXeXeX=X%Xz.D D     yXyXyXyXyXyXyXyXyXyXyX",
"yXyXyXyXyXyXyXyXyXyXyXyX    $ h h W.#X2XeXeX6X6XqXeXeXeXeXeXeXeXeXeXeXeXeXeXeXeXeX9X6X6X6X6X|.].x.' '       yXyXyXyXyXyXyXyXyXyX",
"yXyXyXyXyXyXyXyXyXyXyXyX          j.H.`.eXeX%X%X6XeXeXeXeXeXeXeXeXeXeXeXeXeXeXeXeX,X%X%X%X%XK.H.b.9.9.          yXyXyXyXyXyXyXyX",
"yXyXyXyXyXyXyXyXyXyXyXyX          j.H.`.eXeX%X%X6XeXeXeXeXeXeXeXeXeXeXeXeXeXeXeXeX,X%X%X%X%XK.H.b.9.9.          yXyXyXyXyXyXyXyX",
"yXyXyXyXyXyXyXyXyXyXyXyXyXyXyX    4.0.N.=X=XqXqXwXeXeXeXeXeXeX8X=X=XqXeX5X=X=X=X=X/.K.K.K.K.r.0.v.}.}.k.k.l     yXyXyXyXyXyXyXyX",
"yXyXyXyXyXyXyXyXyXyXyXyXyXyXyX    3.9.m.%X%XeXeXeXeXeXeXeXeXeX6X%X%XqXeX4X%X%X%X%XR.H.H.H.H.0.9.m.%X%XH.H.x     yXyXyXyXyXyXyXyX",
"yXyXyXyXyXyXyXyXyXyXyXyXyXyXyX    b n <.(.(.eXeXeXeXeXeXeXeXeX6X%X%XoX.X'.(.(.(.(.L.H.H.H.H.0.9.M.4X4XH.H.x     yXyXyXyXyXyXyXyX",
"yXyXyXyXyXyXyXyXyXyXyXyXyXyXyX        c H.H.eXeXeXeXeXeXeXeXeX6X%X%XK.H.H.H.H.H.H.H.H.H.H.H.0.9.B.eXeXH.H.x     yXyXyXyXyXyXyXyX",
"yXyXyXyXyXyXyXyXyXyXyXyXyXyXyX        c H.H.eXeXeXeXeXeXeXeXeX6X%X%XK.H.H.H.H.H.H.H.H.H.H.H.0.9.B.eXeXH.H.x     yXyXyXyXyXyXyXyX",
"yXyXyXyXyXyXyXyXyXyXyXyXyXyXyXyXyX    f 9.9.eXeXeXeXeXeXeXeXeX6X%X%Xe.9.g.H.H.H.H.d.9.9.9.9.A.H.`.eXeXH.H.x     yXyXyXyXyXyXyXyX",
"yXyXyXyXyXyXyXyXyXyXyXyXyXyXyXyXyX    f 9.9.eXeXeXeXeXeXeXeXeX6X%X%Xe.9.g.H.H.H.H.d.9.9.9.9.A.H.`.eXeXH.H.x     yXyXyXyXyXyXyXyX",
"yXyXyXyXyXyXyXyXyXyXyXyXyXyXyXyXyX    4 S S `.`.1XeXeXeXeXeXeX;XR.R.q.9.6.=.{ c c R 9.w.n.n.^.[.OX,X,Xs.s.z     yXyXyXyXyXyXyXyX",
"yXyXyXyXyXyXyXyXyXyXyXyXyXyXyXyXyX    > s s H.H.#XeXeXeXeXeXeX$XH.H.0.9.[ D V     L 9.i.H.H.+X%X%X%X%X9.9.f     yXyXyXyXyXyXyXyX",
"yXyXyXyXyXyXyXyXyXyXyXyXyXyXyXyXyX    , r r f.f.I. X X>X>X@X XU.f.f.E T P N h     n T 1.C.C.T.Q.Y.F.F.T T 8     yXyXyXyXyXyXyXyX",
"yXyXyXyXyXyXyXyXyXyXyXyXyXyXyXyXyXyXyXyX    D D } 9.0.H.H.r.9.| D D #                 9 9.9.9.9.| D D           yXyXyXyXyXyXyXyX",
"yXyXyXyXyXyXyXyXyXyXyXyXyXyXyXyXyXyXyXyX    D D } 9.0.H.H.r.9.| D D #                 9 9.9.9.9.| D D           yXyXyXyXyXyXyXyX",
"yXyXyXyXyXyXyXyXyXyXyXyXyXyXyXyXyXyXyXyXyXyX< < 6 9 q w w 0 9 5 < < yXyXyXyXyXyXyXyXyXyX9 9 9 9 5 < <       yXyXyXyXyXyXyXyXyXyX",
"yXyXyXyXyXyXyXyXyXyXyXyXyXyXyXyXyXyXyXyXyXyX                        yXyXyXyXyXyXyXyXyXyX                  yXyXyXyXyXyXyXyXyXyXyX",
"yXyXyXyXyXyXyXyXyXyXyXyXyXyXyXyXyXyXyXyXyXyX                        yXyXyXyXyXyXyXyXyXyX                  yXyXyXyXyXyXyXyXyXyXyX",
"yXyXyXyXyXyXyXyXyXyXyXyXyXyXyXyXyXyXyXyXyXyXyXyXyXyXyXyXyXyXyXyXyXyXyXyXyXyXyXyXyXyXyXyXyXyXyXyXyXyXyXyXyXyXyXyXyXyXyXyXyXyXyXyX",
"yXyXyXyXyXyXyXyXyXyXyXyXyXyXyXyXyXyXyXyXyXyXyXyXyXyXyXyXyXyXyXyXyXyXyXyXyXyXyXyXyXyXyXyXyXyXyXyXyXyXyXyXyXyXyXyXyXyXyXyXyXyXyXyX",
"yXyXyXyXyXyXyXyXyXyXyXyXyXyXyXyXyXyXyXyXyXyXyXyXyXyXyXyXyXyXyXyXyXyXyXyXyXyXyXyXyXyXyXyXyXyXyXyXyXyXyXyXyXyXyXyXyXyXyXyXyXyXyXyX",
"yXyXyXyXyXyXyXyXyXyXyXyXyXyXyXyXyXyXyXyXyXyXyXyXyXyXyXyXyXyXyXyXyXyXyXyXyXyXyXyXyXyXyXyXyXyXyXyXyXyXyXyXyXyXyXyXyXyXyXyXyXyXyXyX",
"yXyXyXyXyXyXyXyXyXyXyXyXyXyXyXyXyXyXyXyXyXyXyXyXyXyXyXyXyXyXyXyXyXyXyXyXyXyXyXyXyXyXyXyXyXyXyXyXyXyXyXyXyXyXyXyXyXyXyXyXyXyXyXyX",
"yXyXyXyXyXyXyXyXyXyXyXyXyXyXyXyXyXyXyXyXyXyXyXyXyXyXyXyXyXyXyXyXyXyXyXyXyXyXyXyXyXyXyXyXyXyXyXyXyXyXyXyXyXyXyXyXyXyXyXyXyXyXyXyX",
"yXyXyXyXyXyXyXyXyXyXyXyXyXyXyXyXyXyXyXyXyXyXyXyXyXyXyXyXyXyXyXyXyXyXyXyXyXyXyXyXyXyXyXyXyXyXyXyXyXyXyXyXyXyXyXyXyXyXyXyXyXyXyXyX",
"yXyXyXyXyXyXyXyXyXyXyXyXyXyXyXyXyXyXyXyXyXyXyXyXyXyXyXyXyXyXyXyXyXyXyXyXyXyXyXyXyXyXyXyXyXyXyXyXyXyXyXyXyXyXyXyXyXyXyXyXyXyXyXyX"
};
