/* XPM */
static char *result[] = {
/* columns rows colors chars-per-pixel */
"64 64 183 2 ",
"   c black",
".  c #0C0203",
"X  c #160206",
"o  c #180404",
"O  c #1A0009",
"+  c #1C090E",
"@  c #10070A",
"#  c #1E0D13",
"$  c #1F141C",
"%  c #2E0707",
"&  c #2D080E",
"*  c #310808",
"=  c #32000A",
"-  c #340113",
";  c #350A17",
":  c #37121D",
">  c #3A1722",
",  c #3E1C29",
"<  c #43000F",
"1  c #570E0E",
"2  c #440C15",
"3  c #5A0014",
"4  c #530014",
"5  c #48121B",
"6  c #61001C",
"7  c #631010",
"8  c #7B0719",
"9  c #400621",
"0  c #400F27",
"q  c #5C0F2F",
"w  c #491924",
"e  c #541C2A",
"r  c #6B0029",
"t  c #711424",
"y  c #751B2D",
"u  c #6A1E24",
"i  c #402431",
"p  c #402837",
"a  c #5B2738",
"s  c #772026",
"d  c #772229",
"f  c #6E2439",
"g  c #7E2135",
"h  c #6A2027",
"j  c #5F3A50",
"k  c #603D53",
"l  c #7B3852",
"z  c #783249",
"x  c #6F4661",
"c  c #7F4064",
"v  c #8C081C",
"b  c #9E0024",
"n  c #9E1C31",
"m  c #88182B",
"M  c #A20029",
"N  c #A9042D",
"B  c #B50029",
"V  c #B9002E",
"C  c #A01C2F",
"Z  c #BA0237",
"A  c #B51031",
"S  c #932237",
"D  c #B52039",
"F  c #AA243A",
"G  c #C4003C",
"H  c #BB0048",
"J  c #BE1F42",
"K  c #8B2D47",
"L  c #9C3448",
"P  c #853A4B",
"I  c #BE2A47",
"U  c #BF2C49",
"Y  c #A73756",
"T  c #A53F56",
"R  c #BF3B5A",
"E  c #BE3C52",
"W  c #A32942",
"Q  c #CE0048",
"!  c #C90041",
"~  c #D2004D",
"^  c #D60052",
"/  c #DB0458",
"(  c #DA0E5C",
")  c #D80155",
"_  c #E1065E",
"`  c #C42F4F",
"'  c #C73B5B",
"]  c #CE395D",
"[  c #C73455",
"{  c #DC1965",
"}  c #E50965",
"|  c #EA0C6B",
" . c #EF0F71",
".. c #F51277",
"X. c #F61279",
"o. c #CE3E63",
"O. c #D43F64",
"+. c #D83866",
"@. c #E63D77",
"#. c #E7377A",
"$. c #9A4667",
"%. c #994867",
"&. c #80516F",
"*. c #9F5B7C",
"=. c #BF4C6D",
"-. c #A25779",
";. c #C74162",
":. c #CF4569",
">. c #DE4973",
",. c #DB4A75",
"<. c #DC527C",
"1. c #D75078",
"2. c #D04E74",
"3. c #E24C7A",
"4. c #E24577",
"5. c #E3537F",
"6. c #FF1884",
"7. c #F92784",
"8. c #FF3A9A",
"9. c #FF3493",
"0. c #9E5F83",
"q. c #9F658B",
"w. c #AF6F98",
"e. c #DA5980",
"r. c #D05982",
"t. c #E35480",
"y. c #E75986",
"u. c #E65F8C",
"i. c #EB5E8D",
"p. c #EA5198",
"a. c #F95A9C",
"s. c #FD4198",
"d. c #DA618B",
"f. c #D17283",
"g. c #D86390",
"h. c #CA618B",
"j. c #EF6797",
"k. c #EC6D9D",
"l. c #F3649A",
"z. c #F36C9E",
"x. c #E2729F",
"c. c #FF4CA6",
"v. c #EF5FA2",
"b. c #FF54A7",
"n. c #CC74A2",
"m. c #E472A1",
"M. c #ED76A3",
"N. c #F771A5",
"B. c #F876AB",
"V. c #F876A9",
"C. c #FF6FBC",
"Z. c #FA7DB2",
"A. c #F37CB0",
"S. c #F36DAD",
"D. c #CF84B4",
"F. c #EC82AF",
"G. c #EA8CA8",
"H. c #F481B5",
"J. c #FB81B5",
"K. c #F684BA",
"L. c #FC89BC",
"P. c #FD87BB",
"I. c #EB82B7",
"U. c #DF8EC2",
"Y. c #FC8CC2",
"T. c #FC8FC8",
"R. c #EB90C4",
"E. c #FF92C6",
"W. c #F592CA",
"Q. c #FD94CB",
"!. c #FF98CF",
"~. c #F697C7",
"^. c #EF98D0",
"/. c #FC96D1",
"(. c #FE9BD5",
"). c #FF9DD9",
"_. c #FFA6D1",
"`. c #FFA2DE",
"'. c #F5BCD4",
"]. c #FFADE2",
"[. c #FFC3EA",
"{. c #FFFBFF",
"}. c None",
/* pixels */
"}.}.}.}.}.}.}.}.}.}.}.}.}.}.}.}.}.}.}.}.}.}.}.}.}.}.}.}.}.}.}.}.}.}.}.}.}.}.}.}.}.}.}.}.}.}.}.}.}.}.}.}.}.}.}.}.}.}.}.}.}.}.}.}.",
"}.}.}.}.}.}.}.}.}.}.}.}.}.}.}.}.}.}.}.}.}.}.}.}.}.}.}.}.}.}.}.}.}.}.}.}.}.}.}.}.}.}.}.}.}.}.}.}.}.}.}.}.}.}.}.}.}.}.}.}.}.}.}.}.",
"}.}.}.}.}.}.}.}.}.}.}.}.}.}.}.}.}.}.}.}.}.}.}.}.}.}.}.}.}.}.}.}.}.}.}.}.}.}.}.}.}.}.}.}.}.}.}.}.}.}.}.}.}.}.}.}.}.}.}.}.}.}.}.}.",
"}.}.}.}.}.}.}.}.}.}.}.}.}.}.}.}.}.}.}.}.}.}.}.}.}.}.}.}.}.}.}.}.}.}.}.}.}.}.}.}.}.}.}.}.}.}.}.}.}.}.}.}.}.}.}.}.}.}.}.}.}.}.}.}.",
"}.}.}.}.}.}.}.}.}.}.}.}.}.}.}.}.}.}.}.}.}.}.}.}.}.}.}.}.}.}.}.}.}.}.}.}.}.}.}.}.}.}.}.}.}.}.}.}.}.}.}.}.}.}.}.}.}.}.}.}.}.}.}.}.",
"}.}.}.}.}.}.}.}.}.}.}.}.}.}.}.}.}.}.}.}.}.}.}.}.}.}.}.}.}.}.}.}.}.}.}.}.}.}.}.}.}.}.}.}.}.}.}.}.}.}.}.}.}.}.}.}.}.}.}.}.}.}.}.}.",
"}.}.}.}.}.}.}.}.}.}.}.}.}.}.}.}.}.}.}.}.}.}.}.}.}.}.}.}.}.}.}.}.}.}.}.}.}.}.}.}.}.}.}.}.}.}.}.}.}.}.}.}.}.}.}.}.}.}.}.}.}.}.}.}.",
"}.}.}.}.}.}.}.}.}.}.}.}.}.}.}.}.}.}.}.}.}.}.}.}.}.}.}.}.}.}.}.}.}.}.}.}.}.}.}.}.}.}.}.}.}.}.}.}.}.}.}.}.}.}.}.}.}.}.}.}.}.}.}.}.",
"}.}.}.}.}.}.}.}.}.}.}.}.}.}.}.                    }.}.}.}.}.}.}.}.}.}.}.}.                    }.}.}.}.}.}.}.}.}.}.}.}.}.}.}.}.}.",
"}.}.}.}.}.}.}.}.}.}.}.}.}.}.}.                    }.}.}.}.}.}.}.}.}.}.}.}.                    }.}.}.}.}.}.}.}.}.}.}.}.}.}.}.}.}.",
"}.}.}.}.}.}.}.}.}.}.}.}.}.    % * w l l f f 5 * %     }.}.}.}.}.}.}.}.  . % % a l l l l @         }.}.}.}.}.}.}.}.}.}.}.}.}.}.}.",
"}.}.}.}.}.}.}.}.}.}.}.}.}.    1 7 L N.N.3.>.S 7 1     }.}.}.}.}.}.}.    . 7 7 =.N.N.V.V.#         }.}.}.}.}.}.}.}.}.}.}.}.}.}.}.",
"}.}.}.}.}.}.}.}.}.}.}.}.}.. . u s T B.B.e.t.L d h . . }.}.}.}.}.}.}.. . o s s 2.V.B.V.B.> + .     }.}.}.}.}.}.}.}.}.}.}.}.}.}.}.",
"}.}.}.}.}.}.}.}.}.}.    o 7 7 F.E./.`.`.).`.`.`.R.7 7 o             * 7 s E.E.(.`.`.`.`.t.>.K     }.}.}.}.}.}.}.}.}.}.}.}.}.}.}.",
"}.}.}.}.}.}.}.}.}.}.    o 7 7 F.Q./.`.`.].).`.`.R.7 7 o             * 7 s E.E.).`.`.`.`.t.>.K     }.}.}.}.}.}.}.}.}.}.}.}.}.}.}.",
"}.}.}.}.}.}.}.}.}.}.    ; R R Q.).).`.`.`.`.`.`.W.R ' S m S Y Y Y Y W C F ' ' <.u.k.!.!.z.j.$.    }.}.}.}.}.}.}.}.}.}.}.}.}.}.}.",
"}.}.}.}.}.}.}.}.}.}.    : >.>.(.`.`.`.`.`.`.`.`./.>.>.U D ` >.>.>.>.[ D D D A o.>.y.E.E.B.N.$.    }.}.}.}.}.}.}.}.}.}.}.}.}.}.}.",
"}.}.}.}.}.}.}.}.}.}.    > y.y./.`.`.`.`.`.`.`.`./.u.u.:.' 2.u.u.u.u.1.;.;.[ ' O.>.5.M.M.V.Z.%.    }.}.}.}.}.}.}.}.}.}.}.}.}.}.}.",
"}.}.}.}.}.}.}.}.}.}.    i E.E.`.`.`.`.`.`.`.`.`.`.`.`.!.E.!.`.`.].).`.`.).N.N.y.>.:.D D H.E.*.    }.}.}.}.}.}.}.}.}.}.}.}.}.}.}.",
"}.}.}.}.}.}.}.}.}.}.    i E.E.`.`.`.`.`.`.`.`.`.`.`.`.E.E.!.`.`.`.`.`.`.(.N.S.y.4.O.D D H.E.*.    }.}.}.}.}.}.}.}.}.}.}.}.}.}.}.",
"}.}.}.}.}.}.}.}.}.}.    , V.V.).`.`.`.`.`.`.`.`.`.`.`.`.`.`.`.`.`.`.`.`.].).)./.!.Y.j.j.' U y     }.}.}.}.}.}.}.}.}.}.}.}.}.}.}.",
"}.}.}.}.}.}.}.}.}.}.    , N.N.).`.`.`.`.`.`.`.`.`.`.`.`.`.`.`.`.`.`.`.`.].].].`.`.Q.N.N.U D t     }.}.}.}.}.}.}.}.}.}.}.}.}.}.}.",
"}.}.}.}.}.}.}.}.}.}.    > u.u.E./.`.`.`.`.`.`.`.`.`.`.`.`.D.&.&.A.Y./.`.^.c c n.Y.Y.L.Y.O.[ g     }.}.}.}.}.}.}.}.}.}.}.}.}.}.}.",
"}.}.}.}.}.}.}.}.}.}.    : >.>.L.E.!.`.`.`.`.`.`.`.`.`.`.`.q.    g.N.Y.`.U.    %.N.A.`.`.t.>.K     }.}.}.}.}.}.}.}.}.}.}.}.}.}.}.",
"}.}.}.}.}.}.}.}.}.}.    : >.>.L.E.!.`.`.`.`.`.`.`.`.`.`.`.q.    g.S.Y.`.U.    $.V.A.].`.t.>.K     }.}.}.}.}.}.}.}.}.}.}.}.}.}.}.",
"}.}.}.}.}.}.}.}.}.}.    & D D j.N.Z.E.E.`.`.`.`.`.`.`.`.`.[.{.{.E D d.`.].{.{.f.D ;.).].V.S.$.        }.}.}.}.}.}.}.}.}.}.}.}.}.",
"}.}.}.}.}.}.}.}.}.}.    & D D j.N.Z.E.E.`.`.`.`.`.`.`.`.`.[.{.{.E D d.`.].{.{.f.A :.`.`.V.N.$.        }.}.}.}.}.}.}.}.}.}.}.}.}.",
"}.}.}.}.}.}.}.}.}.}.    : ] ] K.Q.E.(.(.`.`.`.`.`.`.`.`.`.~.G.G.e 2 -.`.`.G.G.P 2 z `.`.T.T.h.t t     }.}.}.}.}.}.}.}.}.}.}.}.}.",
"}.}.}.}.}.}.}.}.}.}.    : >.>.W.`.`.`.`.`.`.`.`.`.`.`.`.`.H.>.>.# @ c ].!.>.>.e   p ].`.].).m.D D     }.}.}.}.}.}.}.}.}.}.}.}.}.",
"}.}.}.}.}.}.}.}.}.}.    : >.>.(.`.`.`.`.`.`.`.`.`.`.`.`.`.K.t.t.# @ c ]./.5.t.e   p ).`.`.].m.U `     }.}.}.}.}.}.}.}.}.}.}.}.}.",
"}.}.}.}.}.}.}.}.}.}.    : >.>.(.`.`.`.`.`.`.`.`.`.`.`.`.`.T.N.N.$   c ].(.N.N.j   p `.`.`.`.A.>.>.    }.}.}.}.}.}.}.}.}.}.}.}.}.",
"}.}.}.}.}.}.}.}.}.}.    : >.>./.`.`.`.`.`.`.`.`.`.`.`.`.`.T.N.N.#   c `.(.N.z.a   p `.`.`.`.H.>.>.    }.}.}.}.}.}.}.}.}.}.}.}.}.",
"}.}.}.}.}.}.}.}.}.}.    : >.>./.`.`.`.`.`.`.`.`.(.8.8.8.8.b././.$   &.].`./.!.j   0 8.8./.`.K.>.>.    }.}.}.}.}.}.}.}.}.}.}.}.}.",
"}.}.}.}.}.}.}.}.}.}.    : >.>./.`.`.`.`.`.`.`.`./.6.6.6.6.c.`.`.$   c `.].`.].j   9 6.6./.`.A.>.>.    }.}.}.}.}.}.}.}.}.}.}.}.}.",
"}.}.}.}.}.}.}.}.}.}.    ; ' ] !.`.`.`.`.`.`.`.`./.c.c.c.c.C.`.`.x k w.`.).T.T.0.j c c.c./.(.A.>.>.    }.}.}.}.}.}.}.}.}.}.}.}.}.",
"}.}.}.}.}.}.}.}.}.}.    & D D W.`.`.`.`.`.`.`.`.`.`.].`.`.`.`.`.`.`.`.`.).z.S.T.`.`.`.`.Q.T.V.>.>.    }.}.}.}.}.}.}.}.}.}.}.}.}.",
"}.}.}.}.}.}.}.}.}.}.    & D D W.`.].).`.`.`.`.`.`.`.`.`.`.`.`.`.`.`.`.`.(.N.N.T.`.`.`.`.E.E.V.>.>.    }.}.}.}.}.}.}.}.}.}.}.}.}.",
"}.}.}.}.}.}.}.}.}.}.    o 7 7 F.T./.`.`.`.`.`.`.`.`.`.`.`.`.`.`.`.`.`.`.W.D A x.`.).E.E.V.V.<.D D           }.}.}.}.}.}.}.}.}.}.",
"}.}.}.}.}.}.}.}.}.}.    o 7 7 F.T.Q.`.`.).`.`.`.`.`.`.`.`.`.`.`.`.`.`.`.~.D D m.`.).E.E.V.N.<.D D           }.}.}.}.}.}.}.}.}.}.",
"}.}.}.}.}.}.}.}.}.}.    . * * x.J.Y.(.(.(.(./.(./.Y.Y.v.p.p.p.p.p.p.S.Y.K.e.e.K.).E.J.J.N.N.3.A A r r 6 3 4     }.}.}.}.}.}.}.}.",
"}.}.}.}.}.}.}.}.}.}.          g.N.Z.E.E.E.E.E.E.Y.N.N.{ ) ) ^ ^ ^ ^ #.N.V.T.E.E.E.L.N.N.N.N.>.B B ^ ^ G B b     }.}.}.}.}.}.}.}.",
"}.}.}.}.}.}.}.}.}.}.          r.j.B.L.E.E.Y.E.Y.L.l.l.#.{ { / ) / / #.l.z.Y.Y.Y.Y.L.N.N.z.z.4.Z Z ) / G V M     }.}.}.}.}.}.}.}.",
"}.}.}.}.}.}.}.}.}.}.}.}.}.    n A ;.N.N.N.N.N.N.l.^ ^ '.{._.6.6.6.6.| ^ ( N.N.N.N.N.N.N.3.>.#.6.6.6.6.} ) H     }.}.}.}.}.}.}.}.",
"}.}.}.}.}.}.}.}.}.}.}.}.}.    n D :.N.N.N.N.N.N.l.^ ^ '.{._.6.6.6.6.| ^ ( N.N.N.N.N.N.N.3.4.#.6.6.6.6.} ) H     }.}.}.}.}.}.}.}.",
"}.}.}.}.}.}.}.}.}.}.}.}.}.    & & f 5.5.N.N.i.5.4.X.X.s.b.9.6.6.6.6.| ^ ( N.N.N.N.N.N.N.7.X.7.6.6.6.6.} ^ H     }.}.}.}.}.}.}.}.",
"}.}.}.}.}.}.}.}.}.}.}.}.}.        e >.>.N.N.y.4.4.6.6.6.6.6.6.6.6.6.| ^ ( N.N.N.N.N.N.N.7.7.6.6.6.6.6.} ^ H     }.}.}.}.}.}.}.}.",
"}.}.}.}.}.}.}.}.}.}.}.}.}.        w Y Y u.y.>.O.+.6.6.X.............} ^ ( N.N.z.l.l.a.a.6.6.6.6.6...../ Q Z     }.}.}.}.}.}.}.}.",
"}.}.}.}.}.}.}.}.}.}.}.}.}.}.}.          D D D D J 6.6._ ^ ^ ^ ^ ^ ^ ^ ^ ( N.N.y.4.4.6.6.6.6.6.6.6.^ ^ G B b     }.}.}.}.}.}.}.}.",
"}.}.}.}.}.}.}.}.}.}.}.}.}.}.}.          D D D D I 6.6._ ^ ^ ^ ^ ^ ^ ^ ^ ( N.N.y.>.@.6.6.6.6.6.6.6.^ ^ G B b     }.}.}.}.}.}.}.}.",
"}.}.}.}.}.}.}.}.}.}.}.}.}.}.}.}.}.}.    X X X X - ) / ) ^ ^ ^ ^ ^ ) G V M # # # + q 6.6.6.6.../ / V B 4 X X }.}.}.}.}.}.}.}.}.}.",
"}.}.}.}.}.}.}.}.}.}.}.}.}.}.}.}.}.}.            O ^ ^ ^ ^ ^ ^ ^ ^ ^ G B M         9 6.6.6.6. .^ ^ B B <     }.}.}.}.}.}.}.}.}.}.",
"}.}.}.}.}.}.}.}.}.}.}.}.}.}.}.}.}.}.            O G G ~ ^ ^ ^ ^ ! G N v 8         - | | | | _ G G 3 3 =   }.}.}.}.}.}.}.}.}.}.}.",
"}.}.}.}.}.}.}.}.}.}.}.}.}.}.}.}.}.}.}.}.}.}.    X B B Q ^ ^ ^ ^ V B v 7 1         - ) ) ^ ^ ! B B     }.}.}.}.}.}.}.}.}.}.}.}.}.",
"}.}.}.}.}.}.}.}.}.}.}.}.}.}.}.}.}.}.}.}.}.}.    X B B Q ^ ^ ^ ^ V B v 7 1         - ^ ^ ^ ^ ! B B     }.}.}.}.}.}.}.}.}.}.}.}.}.",
"}.}.}.}.}.}.}.}.}.}.}.}.}.}.}.}.}.}.}.}.}.}.}.}.}.                        }.}.}.}.}.              }.}.}.}.}.}.}.}.}.}.}.}.}.}.}.",
"}.}.}.}.}.}.}.}.}.}.}.}.}.}.}.}.}.}.}.}.}.}.}.}.}.                        }.}.}.}.}.              }.}.}.}.}.}.}.}.}.}.}.}.}.}.}.",
"}.}.}.}.}.}.}.}.}.}.}.}.}.}.}.}.}.}.}.}.}.}.}.}.}.}.}.}.}.}.}.}.}.}.}.}.}.}.}.}.}.}.}.}.}.}.}.}.}.}.}.}.}.}.}.}.}.}.}.}.}.}.}.}.",
"}.}.}.}.}.}.}.}.}.}.}.}.}.}.}.}.}.}.}.}.}.}.}.}.}.}.}.}.}.}.}.}.}.}.}.}.}.}.}.}.}.}.}.}.}.}.}.}.}.}.}.}.}.}.}.}.}.}.}.}.}.}.}.}.",
"}.}.}.}.}.}.}.}.}.}.}.}.}.}.}.}.}.}.}.}.}.}.}.}.}.}.}.}.}.}.}.}.}.}.}.}.}.}.}.}.}.}.}.}.}.}.}.}.}.}.}.}.}.}.}.}.}.}.}.}.}.}.}.}.",
"}.}.}.}.}.}.}.}.}.}.}.}.}.}.}.}.}.}.}.}.}.}.}.}.}.}.}.}.}.}.}.}.}.}.}.}.}.}.}.}.}.}.}.}.}.}.}.}.}.}.}.}.}.}.}.}.}.}.}.}.}.}.}.}.",
"}.}.}.}.}.}.}.}.}.}.}.}.}.}.}.}.}.}.}.}.}.}.}.}.}.}.}.}.}.}.}.}.}.}.}.}.}.}.}.}.}.}.}.}.}.}.}.}.}.}.}.}.}.}.}.}.}.}.}.}.}.}.}.}.",
"}.}.}.}.}.}.}.}.}.}.}.}.}.}.}.}.}.}.}.}.}.}.}.}.}.}.}.}.}.}.}.}.}.}.}.}.}.}.}.}.}.}.}.}.}.}.}.}.}.}.}.}.}.}.}.}.}.}.}.}.}.}.}.}.",
"}.}.}.}.}.}.}.}.}.}.}.}.}.}.}.}.}.}.}.}.}.}.}.}.}.}.}.}.}.}.}.}.}.}.}.}.}.}.}.}.}.}.}.}.}.}.}.}.}.}.}.}.}.}.}.}.}.}.}.}.}.}.}.}.",
"}.}.}.}.}.}.}.}.}.}.}.}.}.}.}.}.}.}.}.}.}.}.}.}.}.}.}.}.}.}.}.}.}.}.}.}.}.}.}.}.}.}.}.}.}.}.}.}.}.}.}.}.}.}.}.}.}.}.}.}.}.}.}.}."
};
