/* XPM */
static char *result[] = {
/* columns rows colors chars-per-pixel */
"64 64 186 2 ",
"   c black",
".  c #0B0204",
"X  c #0D0407",
"o  c #0F070A",
"O  c #160005",
"+  c #160407",
"@  c #1B000A",
"#  c #1C090E",
"$  c #1D0B11",
"%  c #1F0E14",
"&  c #1F0E15",
"*  c #22060A",
"=  c #2D000A",
"-  c #2D080E",
";  c #2A0D15",
":  c #290D16",
">  c #300A11",
",  c #37121C",
"<  c #37121D",
"1  c #3C1A26",
"2  c #3E1C29",
"3  c #43000F",
"4  c #430019",
"5  c #4E001C",
"6  c #50001E",
"7  c #50001F",
"8  c #5A101C",
"9  c #580428",
"0  c #5D072E",
"q  c #411722",
"w  c #451724",
"e  c #481C2B",
"r  c #711423",
"t  c #600931",
"y  c #5C2A3E",
"u  c #5D2A3E",
"i  c #612032",
"p  c #602537",
"a  c #6F2439",
"s  c #403F40",
"d  c #6C3148",
"f  c #7B3852",
"g  c #605E60",
"h  c #87182B",
"j  c #88182B",
"k  c #9E1C32",
"l  c #B50029",
"z  c #B52039",
"x  c #BB0048",
"c  c #802E47",
"v  c #8B2E47",
"b  c #9E2F4C",
"n  c #A92640",
"m  c #A72C46",
"M  c #BA2540",
"N  c #BF2A47",
"B  c #BE2E4A",
"V  c #BE304D",
"C  c #A73756",
"Z  c #AD3453",
"A  c #B73A5A",
"S  c #B63E60",
"D  c #CE0048",
"F  c #C31A4E",
"G  c #D60052",
"H  c #D11D55",
"J  c #C42F4F",
"K  c #C93456",
"L  c #CE395D",
"P  c #EA0C6B",
"I  c #FA157D",
"U  c #FA157E",
"Y  c #DD2A67",
"T  c #D43E64",
"R  c #D43F64",
"E  c #E53172",
"W  c #EA3679",
"Q  c #984868",
"!  c #815663",
"~  c #AF4D71",
"^  c #B5577D",
"/  c #B9557B",
"(  c #C74162",
")  c #C24065",
"_  c #C6496F",
"`  c #D04267",
"'  c #D74168",
"]  c #D9446C",
"[  c #D6486F",
"{  c #D84A72",
"}  c #DE4973",
"|  c #DA4B74",
" . c #E04D78",
".. c #E14E79",
"X. c #E2527D",
"o. c #E2527E",
"O. c #E4537F",
"+. c #FF1884",
"@. c #DF5680",
"#. c #DF5883",
"$. c #D55E8A",
"%. c #E25481",
"&. c #E75885",
"*. c #E65B87",
"=. c #E75D8A",
"-. c #E65F8D",
";. c #D86390",
":. c #D86391",
">. c #E8618E",
",. c #E36291",
"<. c #EE6292",
"1. c #EE6495",
"2. c #EF6797",
"3. c #E96895",
"4. c #EE6D9C",
"5. c #F06798",
"6. c #F16798",
"7. c #F1699B",
"8. c #F46C9E",
"9. c #F46C9F",
"0. c #EE74A7",
"q. c #EE75A8",
"w. c #E77AAD",
"e. c #F771A5",
"r. c #F276A7",
"t. c #F574A6",
"y. c #F775A8",
"u. c #F875A9",
"i. c #F977AB",
"p. c #F07AAD",
"a. c #F678AD",
"s. c #F578AE",
"d. c #F979AD",
"f. c #FA7DB1",
"g. c #F97DB3",
"h. c #F87EB4",
"j. c #9F9D9F",
"k. c #E880B4",
"l. c #F780B1",
"z. c #F580B3",
"x. c #FB80B5",
"c. c #FB81B5",
"v. c #FA81B7",
"b. c #FB83B8",
"n. c #FA83BA",
"m. c #F987BB",
"M. c #FB86BD",
"N. c #F987BE",
"B. c #FC87BD",
"V. c #FB88BE",
"C. c #FD89BD",
"Z. c #F78CC3",
"A. c #FB89C1",
"S. c #FC8AC0",
"D. c #FE8EC2",
"F. c #FB8FC5",
"G. c #FC8DC5",
"H. c #FC8FC8",
"J. c #FF92C6",
"K. c #F592CA",
"L. c #FC90C9",
"P. c #FE93C8",
"I. c #FF94C9",
"U. c #FC93CC",
"Y. c #FF96CC",
"T. c #FD95CF",
"R. c #FF98CF",
"E. c #FB97D1",
"W. c #FD96D0",
"Q. c #FD99D3",
"!. c #FF9AD2",
"~. c #FF9BD3",
"^. c #FD99D4",
"/. c #FE99D4",
"(. c #FE9BD7",
"). c #FF9CD5",
"_. c #FE9CD7",
"`. c #FF9DD7",
"'. c #FF9ED8",
"]. c #FE9FDA",
"[. c #FFA0DB",
"{. c #FFA1DD",
"}. c #FFA2DE",
"|. c #FFC2E0",
" X c #FFFBFF",
".X c None",
/* pixels */
".X.X.X.X.X.X.X.X.X.X.X.X.X.X.X.X.X.X.X.X.X.X.X.X.X.X.X.X.X.X.X.X.X.X.X.X.X.X.X.X.X.X.X.X.X.X.X.X.X.X.X.X.X.X.X.X.X.X.X.X.X.X.X.X",
".X.X.X.X.X.X.X.X.X.X.X.X.X.X.X.X.X.X.X.X.X.X.X.X.X.X.X.X.X.X.X.X.X.X.X.X.X.X.X.X.X.X.X.X.X.X.X.X.X.X.X.X.X.X.X.X.X.X.X.X.X.X.X.X",
".X.X.X.X.X.X.X.X.X.X.X.X.X.X.X.X.X.X.X.X.X.X.X.X.X.X.X.X.X.X.X.X.X.X.X.X.X.X.X.X.X.X.X.X.X.X.X.X.X.X.X.X.X.X.X.X.X.X.X.X.X.X.X.X",
".X.X.X.X.X.X.X.X.X.X.X.X.X.X.X.X.X.X.X.X.X.X.X.X.X.X.X.X.X.X.X.X.X.X.X.X.X.X.X.X.X.X.X.X.X.X.X.X.X.X.X.X.X.X.X.X.X.X.X.X.X.X.X.X",
".X.X.X.X.X.X.X.X.X.X.X.X.X.X.X.X.X.X.X.X.X.X.X.X.X.X.X.X.X.X.X.X.X.X.X.X.X.X.X.X.X.X.X.X.X.X.X.X.X.X.X.X.X.X.X.X.X.X.X.X.X.X.X.X",
".X.X.X.X.X.X.X.X.X.X.X.X.X.X.X.X.X.X.X.X.X.X.X.X.X.X.X.X.X.X.X.X.X.X.X.X.X.X.X.X.X.X.X.X.X.X.X.X.X.X.X.X.X.X.X.X.X.X.X.X.X.X.X.X",
".X.X.X.X.X.X.X.X.X.X.X.X.X.X.X.X.X.X.X.X.X.X.X.X.X.X.X.X.X.X.X.X.X.X.X.X.X.X.X.X.X.X.X.X.X.X.X.X.X.X.X.X.X.X.X.X.X.X.X.X.X.X.X.X",
".X.X.X.X.X.X.X.X.X.X.X.X.X.X.X.X.X.X.X.X.X.X.X.X.X.X.X.X.X.X.X.X.X.X.X.X.X.X.X.X.X.X.X.X.X.X.X.X.X.X.X.X.X.X.X.X.X.X.X.X.X.X.X.X",
".X.X.X.X.X.X.X.X.X.X.X.X.X.X.X.X.X.X.X.X.X.X.X.X.X.X.X.X.X.X.X.X.X.X.X.X.X.X.X.X.X.X.X.X.X.X.X.X.X.X.X.X.X.X.X.X.X.X.X.X.X.X.X.X",
".X.X.X.X.X.X.X.X.X.X.X.X.X.X.X.X.X.X.X.X.X.X.X.X.X.X.X.X.X.X.X.X.X.X.X.X.X.X.X.X.X.X.X.X.X.X.X.X.X.X.X.X.X.X.X.X.X.X.X.X.X.X.X.X",
".X.X.X.X.X.X.X.X.X.X.X.X.X.X.X.X.X.X.X.X.X.X.X.X.X.X.X.X.X.X.X.X.X.X.X.X.X.X.X.X.X.X.X.X.X.X.X.X.X.X.X.X.X.X.X.X.X.X.X.X.X.X.X.X",
".X.X.X.X.X.X.X.X.X.X.X.X.X.X.X.X.X.X.X.X.X.X.X.X                                  .X.X.X.X.X.X.X.X.X.X.X.X.X.X.X.X.X.X.X.X.X.X.X",
".X.X.X.X.X.X.X.X.X.X.X.X.X.X.X.X.X.X.X.X.X.X.X.X                                  .X.X.X.X.X.X.X.X.X.X.X.X.X.X.X.X.X.X.X.X.X.X.X",
".X.X.X.X.X.X.X.X.X.X.X.X.X.X.X.X.X.X.X.X.X.X.X.X    + - > , , , , , , , - - +     .X.X.X.X.X.X.X.X.X.X.X.X.X.X.X.X.X.X.X.X.X.X.X",
".X.X.X.X.X.X.X.X.X.X.X.X.X.X.X.X.X.X.X              r z N } } } } } } } z z 8               .X.X.X.X.X.X.X.X.X.X.X.X.X.X.X.X.X.X",
".X.X.X.X.X.X.X.X.X.X.X.X.X.X.X.X.X.X.X              r z N } } } } } } } z z 8               .X.X.X.X.X.X.X.X.X.X.X.X.X.X.X.X.X.X",
".X.X.X.X.X.X.X.X.X.X.X.X.X.X.X.X.X        i ) ) :.:.k.K.K.E.E.E.E.E.E.E.K.K.w.:.$.) ) ;         .X.X.X.X.X.X.X.X.X.X.X.X.X.X.X.X",
".X.X.X.X.X.X.X.X.X.X.X.X.X.X.X.X.X        a } } e.e.H.}.}.}.}.}.}.}.}.}.}.}.A.e.9.} } ,         .X.X.X.X.X.X.X.X.X.X.X.X.X.X.X.X",
".X.X.X.X.X.X.X.X.X.X.X.X.X.X.X        d f ^ q.q.A.A./.}.}.}.}.}.}.}.}.}.}.}.W.A.N.q.q.Q f u         .X.X.X.X.X.X.X.X.X.X.X.X.X.X",
".X.X.X.X.X.X.X.X.X.X.X.X.X.X          ;.e.A.}.}.}.}.}.}.}.}.}.}.}.}.}.}.}.}.}.}.}.}.}.g.e./           .X.X.X.X.X.X.X.X.X.X.X.X.X",
".X.X.X.X.X.X.X.X.X.X.X.X.X.X          ;.e.A.}.}.}.}.}.}.}.}.}.}.}.}.}.}.}.}.}.}.}.}.}.g.e./           .X.X.X.X.X.X.X.X.X.X.X.X.X",
".X.X.X.X.X.X.X.X.X.X.X.X.X.X    < } } E.}.}.}.}.}.}.}.}.}.}.}.}.}.}.}.}.}.}.}.}.}.}.}.}.}.Z.} } #             .X.X.X.X.X.X.X.X.X",
".X.X.X.X.X.X.X.X.X.X.X.X.X.X    < } } E.}.}.}.}.}.}.}.}.}.}.}.}.}.}.}.}.}.}.}.}.}.}.}.}.}.Z.} } #             .X.X.X.X.X.X.X.X.X",
".X.X.X.X.X.X.X.X.X.X.X.X        1 <.<.^.}.}.}.}.}.}.}.}.}.}.}.}.}.}.}.}.}.}.}.}.}.}.}.}.}.U.<.<.$   s j.j.          .X.X.X.X.X.X",
".X.X.X.X.X.X.X.X.X.X.X.X        2 e.e._.}.}.}.}.}.}.}.}.}.}.}.}.}.}.}.}.}.}.}.}.}.}.}.}.}.T.e.e.%   g  X X          .X.X.X.X.X.X",
".X.X.X.X.X.X.X.X.X.X.X.X    * - p g.g.].}.}.}.}.}.}.}.}.}.}.}.}.}.}.}.}.}.}.}.}.}.}.}.}.}.Q.g.g.q - ! |.|.= = O     .X.X.X.X.X.X",
".X.X.X.X.X.X.X.X.X.X.X.X    j z ( }.}.}.}.}.}.}.}.}.}.}.}.}.}.}.}.}.}.}.}.}.}.}.}.}.}.}.}.}.}.}.V z H +.+.l l 3     .X.X.X.X.X.X",
".X.X.X.X.X.X.X.X.X.X.X.X    j z ( }.}.}.}.}.}.}.}.}.}.}.}.}.}.}.}.}.}.}.}.}.}.}.}.}.}.}.}.}.}.}.V z H +.+.l l 3     .X.X.X.X.X.X",
".X.X.X.X.X.X.X.X.X.X        b R #.}.}.}.}.}.}.}.}.}.}.}.}.}.}.}.}.}.}.}.}.}.}.}.}.}.}.}.}.}.}.}.{ R E +.+.D D 5     .X.X.X.X.X.X",
".X.X.X.X.X.X.X.X.X          C } -.}.}.}.}.}.}.}.}.}.}.}.}.}.}.}.}.}.}.}.}.}.}.}.}.}.}.}.}.}.}.}.%.} W +.+.G G 7     .X.X.X.X.X.X",
".X.X.X.X.X.X.X.X.X    o y y S } -.}.}.}.}.}.}.}.}.}.'.).).).).).).'.}.}.}.}.}.}.}.}.}.}.}.}.}.}.%.} W +.+.G G 7     .X.X.X.X.X.X",
".X.X.X.X.X.X.X        & e.e.O.} -.}.}.}.}.}.}.}.}.}.R.J.J.J.J.J.J.R.}.}.}.}.}.}.}.}.}.}.}.}.}.}.%.} W +.+.G G 7     .X.X.X.X.X.X",
".X.X.X.X.X.X.X        & e.e.O.} -.}.}.}.}.}.}.}.}.}.R.J.J.J.J.J.J.R.}.}.}.}.}.}.}.}.}.}.}.}.}.}.%.} W +.+.G G 7     .X.X.X.X.X.X",
".X.X.X.X.X        i ) _ D.D.y.8.a.}.}.}.}.}.}.}.I.I.x.u.v.[.[.[.[.{.}.}.}.}.}.}.}.}.}.}.}.}.}.}.%.} W +.+.U U 0     .X.X.X.X.X.X",
".X.X.X.X.X        a } X.J.J.d.e.g.}.}.}.}.}.}.}.J.J.f.e.g.}.}.}.}.}.}.}.}.}.}.}.}.}.}.}.}.}.}.}.%.} W +.+.+.+.t     .X.X.X.X.X.X",
".X.X.X.X.X    a a ~ q.p.!.!.B.c.S.}.}.}.}.}.}.}.c.c.M.A.L.}.}.}.}.}.}.}.}.}.}.}.}.}.}.}.}.}.}.}.` K Y +.+.P P 9     .X.X.X.X.X.X",
".X.X.X.X.X    } } q.}.}.}.}.Y.J.Y.}.}.}.}.}.}.}.e.e.H.}.}.}.}.}.}.}.}.}.}.}.}.}.}.}.}.}.}.}.}.}.V z H +.+.G G 7     .X.X.X.X.X.X",
".X.X.X.X.X    } } 0.[.[.}.}.Y.J.P.(.(.}.}.}.}.}.e.e.H.}.}.}.}.}.}.}.}.}.}.}.}.}.}.}.}.}.}.].(.(.m k F I I x x 4     .X.X.X.X.X.X",
".X.X.X.X.X    } } 4.J.I.}.}.Y.J.C.e.e._.}.}.}.}.e.e.H.}.}.}.}.}.}.}.}.}.}.}.}.}.}.}.}.}.}.T.e.e.%   6 G G           .X.X.X.X.X.X",
".X.X.X.X.X    } } 4.J.I.}.}.Y.J.C.e.e._.}.}.}.}.e.e.H.}.}.}.}.}.}.}.}.}.}.}.}.}.}.}.}.}.}.T.e.e.%   6 G G           .X.X.X.X.X.X",
".X.X.X.X.X    J J @.f.x.R.R.b.f.t.&.&.h.n.G.R.R.&.&.z.R.~.}.}.}.}.}.}.}.}.}.`.R.R.R.R.V.n.s.&.&.$   @ 6 6       .X.X.X.X.X.X.X.X",
".X.X.X.X.X    z z [ e.u.J.J.d.e.5.} } 9.e.c.J.J.} } r.J.Y.}.}.}.}.}.}.}.}.}.!.J.J.J.J.d.e.5.} } #             .X.X.X.X.X.X.X.X.X",
".X.X.X.X.X    h h A =.>.l.l.y.e.1.T T 7.e.f.C.C.T T 3.l.m.'.'.{.}.}.}.}.'.'.F.l.l.C.C.i.e.,.C C X             .X.X.X.X.X.X.X.X.X",
".X.X.X.X.X        8 z M } } 6.e.=.z z 2.e.e.e.e.z z L } *.J.J.'.}.}.}.}.J.J.4.} ..e.e.e.e./           .X.X.X.X.X.X.X.X.X.X.X.X.X",
".X.X.X.X.X        8 z M } } 6.e.=.z z 2.e.e.e.e.z z L } *.J.J.'.}.}.}.}.J.J.4.} ..e.e.e.e./           .X.X.X.X.X.X.X.X.X.X.X.X.X",
".X.X.X.X.X.X.X    . + + # # $ % % + + % % c ....] ] J M M B B | %.%.%.%.o.o. .} } ....e % %     .X.X.X.X.X.X.X.X.X.X.X.X.X.X.X.X",
".X.X.X.X.X.X.X                            a } } } } J z z z z T } } } } } } } } } } } ,         .X.X.X.X.X.X.X.X.X.X.X.X.X.X.X.X",
".X.X.X.X.X.X.X                            w v v v v n z M J J ' } } } } L L Z v v v v :         .X.X.X.X.X.X.X.X.X.X.X.X.X.X.X.X",
".X.X.X.X.X.X.X.X.X.X.X.X.X.X.X.X.X.X.X              r z N } } } } } } } z z 8               .X.X.X.X.X.X.X.X.X.X.X.X.X.X.X.X.X.X",
".X.X.X.X.X.X.X.X.X.X.X.X.X.X.X.X.X.X.X              r z N } } } } } } } z z 8               .X.X.X.X.X.X.X.X.X.X.X.X.X.X.X.X.X.X",
".X.X.X.X.X.X.X.X.X.X.X.X.X.X.X.X.X.X.X.X.X.X.X.X                                  .X.X.X.X.X.X.X.X.X.X.X.X.X.X.X.X.X.X.X.X.X.X.X",
".X.X.X.X.X.X.X.X.X.X.X.X.X.X.X.X.X.X.X.X.X.X.X.X                                  .X.X.X.X.X.X.X.X.X.X.X.X.X.X.X.X.X.X.X.X.X.X.X",
".X.X.X.X.X.X.X.X.X.X.X.X.X.X.X.X.X.X.X.X.X.X.X.X.X.X.X.X.X.X.X.X.X.X.X.X.X.X.X.X.X.X.X.X.X.X.X.X.X.X.X.X.X.X.X.X.X.X.X.X.X.X.X.X",
".X.X.X.X.X.X.X.X.X.X.X.X.X.X.X.X.X.X.X.X.X.X.X.X.X.X.X.X.X.X.X.X.X.X.X.X.X.X.X.X.X.X.X.X.X.X.X.X.X.X.X.X.X.X.X.X.X.X.X.X.X.X.X.X",
".X.X.X.X.X.X.X.X.X.X.X.X.X.X.X.X.X.X.X.X.X.X.X.X.X.X.X.X.X.X.X.X.X.X.X.X.X.X.X.X.X.X.X.X.X.X.X.X.X.X.X.X.X.X.X.X.X.X.X.X.X.X.X.X",
".X.X.X.X.X.X.X.X.X.X.X.X.X.X.X.X.X.X.X.X.X.X.X.X.X.X.X.X.X.X.X.X.X.X.X.X.X.X.X.X.X.X.X.X.X.X.X.X.X.X.X.X.X.X.X.X.X.X.X.X.X.X.X.X",
".X.X.X.X.X.X.X.X.X.X.X.X.X.X.X.X.X.X.X.X.X.X.X.X.X.X.X.X.X.X.X.X.X.X.X.X.X.X.X.X.X.X.X.X.X.X.X.X.X.X.X.X.X.X.X.X.X.X.X.X.X.X.X.X",
".X.X.X.X.X.X.X.X.X.X.X.X.X.X.X.X.X.X.X.X.X.X.X.X.X.X.X.X.X.X.X.X.X.X.X.X.X.X.X.X.X.X.X.X.X.X.X.X.X.X.X.X.X.X.X.X.X.X.X.X.X.X.X.X",
".X.X.X.X.X.X.X.X.X.X.X.X.X.X.X.X.X.X.X.X.X.X.X.X.X.X.X.X.X.X.X.X.X.X.X.X.X.X.X.X.X.X.X.X.X.X.X.X.X.X.X.X.X.X.X.X.X.X.X.X.X.X.X.X",
".X.X.X.X.X.X.X.X.X.X.X.X.X.X.X.X.X.X.X.X.X.X.X.X.X.X.X.X.X.X.X.X.X.X.X.X.X.X.X.X.X.X.X.X.X.X.X.X.X.X.X.X.X.X.X.X.X.X.X.X.X.X.X.X",
".X.X.X.X.X.X.X.X.X.X.X.X.X.X.X.X.X.X.X.X.X.X.X.X.X.X.X.X.X.X.X.X.X.X.X.X.X.X.X.X.X.X.X.X.X.X.X.X.X.X.X.X.X.X.X.X.X.X.X.X.X.X.X.X",
".X.X.X.X.X.X.X.X.X.X.X.X.X.X.X.X.X.X.X.X.X.X.X.X.X.X.X.X.X.X.X.X.X.X.X.X.X.X.X.X.X.X.X.X.X.X.X.X.X.X.X.X.X.X.X.X.X.X.X.X.X.X.X.X",
".X.X.X.X.X.X.X.X.X.X.X.X.X.X.X.X.X.X.X.X.X.X.X.X.X.X.X.X.X.X.X.X.X.X.X.X.X.X.X.X.X.X.X.X.X.X.X.X.X.X.X.X.X.X.X.X.X.X.X.X.X.X.X.X",
".X.X.X.X.X.X.X.X.X.X.X.X.X.X.X.X.X.X.X.X.X.X.X.X.X.X.X.X.X.X.X.X.X.X.X.X.X.X.X.X.X.X.X.X.X.X.X.X.X.X.X.X.X.X.X.X.X.X.X.X.X.X.X.X"
};
