/* XPM */
static char *result[] = {
/* columns rows colors chars-per-pixel */
"64 64 235 2 ",
"   c black",
".  c #070101",
"X  c #0C0202",
"o  c #0D0202",
"O  c #0E0202",
"+  c #130106",
"@  c #160005",
"#  c #170005",
"$  c #160404",
"%  c #160407",
"&  c #170407",
"*  c #1D0007",
"=  c #190404",
"-  c #160209",
";  c #140508",
":  c #1A000A",
">  c #1B000A",
",  c #1C010A",
"<  c #1E000B",
"1  c #1D010D",
"2  c #1C090E",
"3  c #1D0B11",
"4  c #1F0E14",
"5  c #22060A",
"6  c #28000F",
"7  c #2D080E",
"8  c #200310",
"9  c #290D15",
"0  c #350014",
"q  c #330910",
"w  c #37121C",
"e  c #37121D",
"r  c #44000F",
"t  c #4A0C0C",
"y  c #570E0E",
"u  c #430C15",
"i  c #440C15",
"p  c #4C0019",
"a  c #470E19",
"s  c #4F0E19",
"d  c #50001E",
"f  c #4A111C",
"g  c #4A151F",
"h  c #5A101C",
"j  c #780C16",
"k  c #631010",
"l  c #4C1623",
"z  c #531B2B",
"x  c #620F2D",
"c  c #7D082D",
"v  c #661220",
"b  c #621727",
"n  c #6D1322",
"m  c #711424",
"M  c #5D2A3E",
"N  c #6D2235",
"B  c #6F2439",
"V  c #7B3852",
"C  c #88001E",
"Z  c #8F031F",
"A  c #9E0024",
"S  c #87182B",
"D  c #811E28",
"F  c #9C0831",
"G  c #901F35",
"H  c #9E1C32",
"J  c #9D133B",
"K  c #A00423",
"L  c #B50029",
"P  c #A1003D",
"I  c #BA0932",
"U  c #BD0E39",
"Y  c #A7263F",
"T  c #B52039",
"R  c #C10038",
"E  c #BB0048",
"W  c #8B2D47",
"Q  c #80314A",
"!  c #A82640",
"~  c #BD2A46",
"^  c #BF2A47",
"/  c #BF2A48",
"(  c #AF304C",
")  c #B0344E",
"_  c #A73756",
"`  c #C50740",
"'  c #CE0048",
"]  c #CB0B4D",
"[  c #D2004D",
"{  c #D1094B",
"}  c #C11442",
"|  c #D60052",
" . c #D80155",
".. c #D70956",
"X. c #DA0C56",
"o. c #DB0358",
"O. c #DE045B",
"+. c #D90C59",
"@. c #DA0E5C",
"#. c #DC0C5C",
"$. c #C31055",
"%. c #E1065E",
"&. c #C42F4F",
"*. c #C72856",
"=. c #CB2F5D",
"-. c #CA3658",
";. c #D81667",
":. c #DD1568",
">. c #E50965",
",. c #E70A68",
"<. c #E80A68",
"1. c #EA0C6B",
"2. c #EC126D",
"3. c #EC126E",
"4. c #EF0F72",
"5. c #F31275",
"6. c #F51278",
"7. c #F61579",
"8. c #FA157E",
"9. c #CE3E61",
"0. c #DC376A",
"q. c #E53377",
"w. c #E63D77",
"e. c #E6387B",
"r. c #974161",
"t. c #B04569",
"y. c #B65276",
"u. c #B85278",
"i. c #B9547B",
"p. c #B9557B",
"a. c #C24065",
"s. c #CE4166",
"d. c #D9446C",
"f. c #DE4676",
"g. c #DE4677",
"h. c #D64970",
"j. c #DC4972",
"k. c #DE4973",
"l. c #D8517C",
"z. c #D2597F",
"x. c #E14E79",
"c. c #E4537F",
"v. c #FD1681",
"b. c #FB1E82",
"n. c #FF1884",
"m. c #D55D8A",
"M. c #EB4686",
"N. c #E8458A",
"B. c #E25481",
"V. c #E75886",
"C. c #E75D8A",
"Z. c #EA5D8C",
"A. c #EF5590",
"S. c #EA5198",
"D. c #DA618B",
"F. c #D86390",
"G. c #D86391",
"H. c #DF6693",
"J. c #E96392",
"K. c #EA6392",
"L. c #ED6292",
"P. c #EF6395",
"I. c #E86594",
"U. c #EA6A9B",
"Y. c #F3639A",
"T. c #F06798",
"R. c #F2699B",
"E. c #F0699C",
"W. c #F36C9E",
"Q. c #F46C9F",
"!. c #E773A2",
"~. c #E27AA4",
"^. c #EE75A8",
"/. c #F771A5",
"(. c #F473A5",
"). c #F873A7",
"_. c #F275AB",
"`. c #F277AB",
"'. c #F977AB",
"]. c #F877AC",
"[. c #F67CAD",
"{. c #F979AD",
"}. c #F37DB2",
"|. c #F97DB0",
" X c #F97DB3",
".X c #F87FB8",
"XX c #EB83B7",
"oX c #F780B1",
"OX c #F684B5",
"+X c #FB81B5",
"@X c #F981B7",
"#X c #F581BA",
"$X c #F586BC",
"%X c #FA83BA",
"&X c #FC85B9",
"*X c #FC87BC",
"=X c #C8B1B3",
"-X c #F78CC3",
";X c #FB89C1",
":X c #FF8AC1",
">X c #FE8EC2",
",X c #FB8CC5",
"<X c #FD8EC4",
"1X c #FC8FC8",
"2X c #FC8FC9",
"3X c #FF92C6",
"4X c #F692CA",
"5X c #FA91C9",
"6X c #FC90C9",
"7X c #FE91C8",
"8X c #FF94CA",
"9X c #FC93CC",
"0X c #FD93CC",
"qX c #F895CD",
"wX c #FF96CC",
"eX c #FD95CF",
"rX c #FB97D1",
"tX c #FD96D0",
"yX c #FE99D1",
"uX c #FD99D3",
"iX c #FF9AD2",
"pX c #FE99D4",
"aX c #FF9CD5",
"sX c #FF9ED8",
"dX c #FF9FDA",
"fX c #EBA5C2",
"gX c #FFA5D1",
"hX c #FFA0DB",
"jX c #FFA1DD",
"kX c #FFA2DE",
"lX c #D8C0C3",
"zX c #FFC2E0",
"xX c #EBDEE1",
"cX c #FFFBFF",
"vX c None",
/* pixels */
"vXvXvXvXvXvXvXvXvXvXvXvXvXvXvXvXvXvXvXvXvXvXvXvXvXvXvXvXvXvXvXvXvXvXvXvXvXvXvXvXvXvXvXvXvXvXvXvXvXvXvXvXvXvXvXvXvXvXvXvXvXvXvXvX",
"vXvXvXvXvXvXvXvXvXvXvXvXvXvXvXvXvXvXvXvXvXvXvXvXvXvXvXvXvXvXvXvXvXvXvXvXvXvXvXvXvXvXvXvXvXvXvXvXvXvXvXvXvXvXvXvXvXvXvXvXvXvXvXvX",
"vXvXvXvXvXvXvXvXvXvXvXvXvXvXvXvXvXvXvXvXvXvXvXvXvXvXvXvXvXvXvXvXvXvXvXvXvXvXvXvXvXvXvXvXvXvXvXvXvXvXvXvXvXvXvXvXvXvXvXvXvXvXvXvX",
"vXvXvXvXvXvXvXvXvXvXvXvXvXvXvXvXvXvXvXvXvXvXvXvXvXvXvXvXvXvXvXvXvXvXvXvXvXvXvXvXvXvXvXvXvXvXvXvXvXvXvXvXvXvXvXvXvXvXvXvXvXvXvXvX",
"vXvXvXvXvXvXvXvXvXvXvXvXvXvXvXvXvXvXvXvXvXvXvXvXvXvXvXvXvXvXvXvXvXvXvXvXvXvXvXvXvXvXvXvXvXvXvXvXvXvXvXvXvXvXvXvXvXvXvXvXvXvXvXvX",
"vXvXvXvXvXvXvXvXvXvXvXvXvXvXvXvXvXvXvXvXvXvXvXvXvXvXvXvXvXvXvXvXvXvXvXvXvXvXvXvXvXvXvXvXvXvXvXvXvXvXvXvXvXvXvXvXvXvXvXvXvXvXvXvX",
"vXvXvXvXvXvXvXvXvXvXvXvXvXvXvXvXvXvXvXvXvXvXvXvXvXvXvXvXvXvXvXvXvXvXvXvXvXvXvXvXvXvXvXvXvXvXvXvXvXvXvXvXvXvXvXvXvXvXvXvXvXvXvXvX",
"vXvXvXvXvXvXvXvXvXvXvXvXvXvXvXvXvXvXvXvXvXvXvXvXvXvXvXvXvXvXvXvXvXvXvXvXvXvXvXvXvXvXvXvXvXvXvXvXvXvXvXvXvXvXvXvXvXvXvXvXvXvXvXvX",
"vXvXvXvXvXvXvXvXvXvXvXvXvXvXvXvXvXvXvXvXvXvXvXvXvXvXvXvXvXvXvXvXvXvXvXvXvXvXvXvXvXvXvXvXvXvXvXvXvXvXvXvXvXvXvXvXvXvXvXvXvXvXvXvX",
"vXvXvXvXvXvXvXvXvXvXvXvXvXvXvXvXvXvXvXvXvXvXvXvXvXvXvXvXvXvXvXvXvXvXvXvXvXvXvXvXvXvXvXvXvXvXvXvXvXvXvXvXvXvXvXvXvXvXvXvXvXvXvXvX",
"vXvXvXvXvXvXvXvXvXvXvXvXvXvXvXvXvXvXvXvXvXvXvXvXvXvXvXvXvXvXvXvXvXvXvXvXvXvXvXvXvXvXvXvXvXvXvXvXvXvXvXvXvXvXvXvXvXvXvXvXvXvXvXvX",
"vXvXvXvXvXvXvXvXvXvXvXvX                vXvXvXvXvXvXvXvXvX                vXvXvXvXvXvXvXvXvXvXvXvXvXvXvXvXvXvXvXvXvXvXvXvXvXvXvX",
"vXvXvXvXvXvXvXvXvXvXvX                    vXvXvXvXvXvXvX                    vXvXvXvXvXvXvXvXvXvXvXvXvXvXvXvXvXvXvXvXvXvXvXvXvXvX",
"vXvXvXvXvXvXvXvXvXvXvX* @ , 8 8 : : + X O vXvXvXvXvXvXvX< : 1 8 8 8 8 - X O vXvXvXvXvXvXvXvXvXvXvXvXvXvXvXvXvXvXvXvXvXvXvXvXvXvX",
"vXvXvXvXvXvXvXvXvX    C L { n.n.o.| F k y               E | >.n.n.n.n.J k y     vXvXvXvXvXvXvXvXvXvXvXvXvXvXvXvXvXvXvXvXvXvXvXvX",
"vXvXvXvXvXvXvXvXvX    C L { n.n.o.| F k y               E | >.n.n.n.n.J k y     vXvXvXvXvXvXvXvXvXvXvXvXvXvXvXvXvXvXvXvXvXvXvXvX",
"vXvXvXvXvXvXvX  . t t $.2.7.n.n.6.6.] K Z         6 P P 4.6.8.n.n.n.n.~.lX=Xt t $         vXvXvXvXvXvXvXvXvXvXvXvXvXvXvXvXvXvXvX",
"vXvXvXvXvXvX    X k k ;.n.n.n.n.n.n.X.L A         0 | | 8.n.n.n.n.n.n.gXcXxXk k =         vXvXvXvXvXvXvXvXvXvXvXvXvXvXvXvXvXvXvX",
"vXvXvXvXvXvX    X j j :.n.n.n.n.n.n.X.L A w w w w x %.%.v.n.n.n.n.n.n.:XzXfXD D g w 9     vXvXvXvXvXvXvXvXvXvXvXvXvXvXvXvXvXvXvX",
"vXvXvXvXvXvX    # L L 3.n.n.n.n.n.n.X.L I k.k.k.k.w.n.n.n.n.n.n.n.n.n.n.n.b.k.k.k.k.W           vXvXvXvXvXvXvXvXvXvXvXvXvXvXvXvX",
"vXvXvXvXvXvX    # L L 3.n.n.n.n.n.n.X.L I k.k.k.k.w.n.n.n.n.n.n.n.n.n.n.n.b.k.k.k.k.W           vXvXvXvXvXvXvXvXvXvXvXvXvXvXvXvX",
"vXvXvXvXvXvX    > [ [ 5.n.n.n.n.%.o.q.P.E.rXrXI.k.0.o.o.8.n.n.n.n.n.n.,.o.#.k.k.$XrXXXG.G.4         vXvXvXvXvXvXvXvXvXvXvXvXvXvX",
"vXvXvXvXvXvX    > | | 6.n.n.n.n.o.| e./.].kXkXU.k.0.| | 8.n.n.n.n.n.n.>.| ..k.k.-XkX2X/./.4         vXvXvXvXvXvXvXvXvXvXvXvXvXvX",
"vXvXvXvXvXvX    > | | >.1.1.1.1. .| N.;X,XkXkXU.k.0.| | <.1.1.1.1.1.1.O.| +.Z.Z.5XkXpX;X;XQ B e     vXvXvXvXvXvXvXvXvXvXvXvXvXvX",
"vXvXvXvXvXvX    > | | | | | | | | | S.kXkXkXkXU.k.0.| | | | | | | | | | | @././.tXkXkXkXkXB.k.B     vXvXvXvXvXvXvXvXvXvXvXvXvXvX",
"vXvXvXvXvXvX    > | | | | | | | | | S.kXkXkXkXU.k.0.| | | | | | | | | | | @././.tXkXkXkXkXB.k.B     vXvXvXvXvXvXvXvXvXvXvXvXvXvX",
"vXvXvXvXvXvX    # L L ' | | | | Y./.;XkXkXkXkX%X/.A.| | | | | | | L L f./.].kXkXkXkXkXkXkX]./.V         vXvXvXvXvXvXvXvXvXvXvXvX",
"vXvXvXvXvXvX    # L L ' | | | | Y./.;XkXkXkXkX%X/.A.| | | | | | | L L f./.].kXkXkXkXkXkXkX]./.V         vXvXvXvXvXvXvXvXvXvXvXvX",
"vXvXvXvXvXvXvXvXvXr r p d c } } #X6XpXkXkXkXkXtX6X.XM.M.` R R R R g.g._.6X9XkXkXkXkXkXkXkX0X6Xy.m v     vXvXvXvXvXvXvXvXvXvXvXvX",
"vXvXvXvXvXvXvXvXvX        i T T 4XkXkXkXkXkXkXkXkXeX/./.U L L L L /./.1XkXkXkXkXkXkXkXkXkXkXkXD.T H     vXvXvXvXvXvXvXvXvXvXvXvX",
"vXvXvXvXvXvXvXvXvX        a ^ ^ qXkXkXkXkXkXkXkXkXuX X X=.*.*.*.*. X XtXkXkXkXkXkXkXkXkXkXkXkXH.^ !     vXvXvXvXvXvXvXvXvXvXvXvX",
"vXvXvXvXvXvXvXvXvXvXvX    z k.k.rXkXkXkXkXkXkXkXkXkXkXkXkXkXkXkXkXkXkXkXkXkXkXkXkXkXkXkXkXkXkX^.k.a.    vXvXvXvXvXvXvXvXvXvXvXvX",
"vXvXvXvXvXvXvXvXvXvXvX    z k.k.rXkXkXkXkXkXkXkXkXkXkXkXkXkXkXkXkXkXkXkXkXkXkXkXkXkXkXkXkXkXkX^.k.a.    vXvXvXvXvXvXvXvXvXvXvXvX",
"vXvXvXvXvXvXvXvXvXvXvX    z k.k.rXkXkXkXkXkXkXkXkXkXkXkXkXkXkXkXkXkXkXkXkXkXkXkXkXkXkXkXkXkXkX^.k.a.          vXvXvXvXvXvXvXvXvX",
"vXvXvXvXvXvXvXvXvXvXvX    z k.k.rXkXkXkXkXkXkXkXkXkXkXkXkXkXkXkXkXkXkXkXkXkXkXkXkXkXkXkXkXkXkX^.k.a.          vXvXvXvXvXvXvXvXvX",
"vXvXvXvXvXvXvXvXvXvXvX    z k.k.rXkXkXkXkXkXkXkXkXkXkXkXkXkXkXkXkXkXkXkXkXkXkXkXkXkXkXkXkXkXkX}.V.l.z z f i q vXvXvXvXvXvXvXvXvX",
"vXvXvXvXvXvXvXvXvXvXvX    z k.k.rXkXkXkXkXkXkXkXkXkXkXkXkXkXkXkXkXkXkXkXkXkXkXkXkXkXkXkXkXkXkX;X/.Q.k.k.&.T S     vXvXvXvXvXvXvX",
"vXvXvXvXvXvXvXvXvXvXvX    z k.k.rXkXkXkXkXkXkXkXkXkXkXkXkXkXkXkXkXkXkXkXkXkXkXkXkXkXkXkXkXkXkX;X/.Q.k.k.&.T S     vXvXvXvXvXvXvX",
"vXvXvXvXvXvXvXvXvXvXvX    i T T OX3XiXkXkXkXkXkXkXkXkXkXkXkXkXkXkXkXkXkXkXkXkXkXkXkXkXkXkXkXkXkXkXkXkXkXU.k._     vXvXvXvXvXvXvX",
"vXvXvXvXvXvXvXvXvXvXvX    i T T OX3XiXkXkXkXkXkXkXkXkXkXkXkXkXkXkXkXkXkXkXkXkXkXkXkXkXkXkXkXkXkXkXkXkXkXU.k._     vXvXvXvXvXvXvX",
"vXvXvXvXvXvXvXvXvXvXvX    5 h h !.+X<XiXiXiXiXdXkXkXkXkXkXkXkXkXkXkXkXkXkXkXkXkXaXiXiXiXiXjXkXkXkXkXkXkX`.Z.t.    vXvXvXvXvXvXvX",
"vXvXvXvXvXvXvXvXvXvXvX          F./.+X3X3X3X3XaXkXkXkXkXkXkXkXkXkXkXkXkXkXkXkXkXwX3X3X3X3XhXkXkXkXkXkXkX%X/.p.    vXvXvXvXvXvXvX",
"vXvXvXvXvXvXvXvXvXvXvX          m.W.|.>X>X>X>XyXhXhXhXhXhXhXhXhXhXhXhXhXhXhXhXhX7X>X>X>X>XsXhXjXkXkXkXkX@XW.u.    vXvXvXvXvXvXvX",
"vXvXvXvXvXvXvXvXvXvXvXvXvXvX    a.k.Z././././.&X3X3X3X3X3X3X3X3X3X3X3X3X3X3X3X3X{././././.>X3XiXkXkXkXkXU.k._     vXvXvXvXvXvXvX",
"vXvXvXvXvXvXvXvXvXvXvXvXvXvX    a.k.Z././././.&X3X3X3X3X3X3X3X3X3X3X3X3X3X3X3X3X{././././.>X3XiXkXkXkXkXU.k._     vXvXvXvXvXvXvX",
"vXvXvXvXvXvXvXvXvXvXvXvXvXvX    e e r././././.'.{.{.{.{.{.{.{.{.{.{.{.{.{.{.{.{.)././././.{.{.*XwX8X X Xh./ G     vXvXvXvXvXvXvX",
"vXvXvXvXvXvXvXvXvXvXvXvXvXvX        V /./././././././././././././././././././././././././././.+X3X>X/./.9.T S     vXvXvXvXvXvXvX",
"vXvXvXvXvXvXvXvXvXvXvXvXvXvX        M i.i.T.T.Q././././././././././././././././.R.T.K.z.z.J.T.(.oX[.C.C.( S n     vXvXvXvXvXvXvX",
"vXvXvXvXvXvXvXvXvXvXvXvXvXvXvXvX        2 k.k.L././././././././././././././././.c.k.) k k s.k.k.k.d.T T u     vXvXvXvXvXvXvXvXvX",
"vXvXvXvXvXvXvXvXvXvXvXvXvXvXvXvX        2 k.k.L././././././././././././././././.c.k.) k k s.k.k.k.d.T T u     vXvXvXvXvXvXvXvXvX",
"vXvXvXvXvXvXvXvXvXvXvXvXvXvXvXvXvXvX      2 2 3 4 l ~ ~ j.x.x.x.x.x.x.-.~ Y 4 4 3 2 ; o o 2 2 2 2 2 % % vXvXvXvXvXvXvXvXvXvXvXvX",
"vXvXvXvXvXvXvXvXvXvXvXvXvXvXvXvXvXvX              7 T T d.k.k.k.k.k.k.&.T H                             vXvXvXvXvXvXvXvXvXvXvXvX",
"vXvXvXvXvXvXvXvXvXvXvXvXvXvXvXvXvXvXvX            & h h N B B B B B B b h s                             vXvXvXvXvXvXvXvXvXvXvXvX",
"vXvXvXvXvXvXvXvXvXvXvXvXvXvXvXvXvXvXvXvXvXvXvX                                  vXvXvXvXvXvXvXvXvXvXvXvXvXvXvXvXvXvXvXvXvXvXvXvX",
"vXvXvXvXvXvXvXvXvXvXvXvXvXvXvXvXvXvXvXvXvXvXvX                                  vXvXvXvXvXvXvXvXvXvXvXvXvXvXvXvXvXvXvXvXvXvXvXvX",
"vXvXvXvXvXvXvXvXvXvXvXvXvXvXvXvXvXvXvXvXvXvXvXvXvXvXvXvXvXvXvXvXvXvXvXvXvXvXvXvXvXvXvXvXvXvXvXvXvXvXvXvXvXvXvXvXvXvXvXvXvXvXvXvX",
"vXvXvXvXvXvXvXvXvXvXvXvXvXvXvXvXvXvXvXvXvXvXvXvXvXvXvXvXvXvXvXvXvXvXvXvXvXvXvXvXvXvXvXvXvXvXvXvXvXvXvXvXvXvXvXvXvXvXvXvXvXvXvXvX",
"vXvXvXvXvXvXvXvXvXvXvXvXvXvXvXvXvXvXvXvXvXvXvXvXvXvXvXvXvXvXvXvXvXvXvXvXvXvXvXvXvXvXvXvXvXvXvXvXvXvXvXvXvXvXvXvXvXvXvXvXvXvXvXvX",
"vXvXvXvXvXvXvXvXvXvXvXvXvXvXvXvXvXvXvXvXvXvXvXvXvXvXvXvXvXvXvXvXvXvXvXvXvXvXvXvXvXvXvXvXvXvXvXvXvXvXvXvXvXvXvXvXvXvXvXvXvXvXvXvX",
"vXvXvXvXvXvXvXvXvXvXvXvXvXvXvXvXvXvXvXvXvXvXvXvXvXvXvXvXvXvXvXvXvXvXvXvXvXvXvXvXvXvXvXvXvXvXvXvXvXvXvXvXvXvXvXvXvXvXvXvXvXvXvXvX",
"vXvXvXvXvXvXvXvXvXvXvXvXvXvXvXvXvXvXvXvXvXvXvXvXvXvXvXvXvXvXvXvXvXvXvXvXvXvXvXvXvXvXvXvXvXvXvXvXvXvXvXvXvXvXvXvXvXvXvXvXvXvXvXvX",
"vXvXvXvXvXvXvXvXvXvXvXvXvXvXvXvXvXvXvXvXvXvXvXvXvXvXvXvXvXvXvXvXvXvXvXvXvXvXvXvXvXvXvXvXvXvXvXvXvXvXvXvXvXvXvXvXvXvXvXvXvXvXvXvX",
"vXvXvXvXvXvXvXvXvXvXvXvXvXvXvXvXvXvXvXvXvXvXvXvXvXvXvXvXvXvXvXvXvXvXvXvXvXvXvXvXvXvXvXvXvXvXvXvXvXvXvXvXvXvXvXvXvXvXvXvXvXvXvXvX",
"vXvXvXvXvXvXvXvXvXvXvXvXvXvXvXvXvXvXvXvXvXvXvXvXvXvXvXvXvXvXvXvXvXvXvXvXvXvXvXvXvXvXvXvXvXvXvXvXvXvXvXvXvXvXvXvXvXvXvXvXvXvXvXvX"
};
