/* XPM */
static char *result[] = {
/* columns rows colors chars-per-pixel */
"64 64 236 2 ",
"   c black",
".  c #0C0202",
"X  c #0E0507",
"o  c #130005",
"O  c #170005",
"+  c #16080B",
"@  c #1C090E",
"#  c #1D0C11",
"$  c #1F0E15",
"%  c #1F1017",
"&  c #260606",
"*  c #2D080E",
"=  c #32000A",
"-  c #3C060B",
";  c #310808",
":  c #3D0A0A",
">  c #310012",
",  c #350014",
"<  c #201219",
"1  c #43000F",
"2  c #4A0C0C",
"3  c #440C15",
"4  c #4A0919",
"5  c #540013",
"6  c #5A0014",
"7  c #540E11",
"8  c #5A101C",
"9  c #6D0E13",
"0  c #63001F",
"q  c #780C16",
"w  c #710019",
"e  c #631010",
"r  c #6D1215",
"t  c #5C1220",
"y  c #5D1220",
"u  c #531B2B",
"i  c #6E0021",
"p  c #6B0029",
"a  c #6D012C",
"s  c #77022B",
"d  c #7E0029",
"f  c #7D0529",
"g  c #6E1E2F",
"h  c #711424",
"j  c #791B2E",
"k  c #770937",
"l  c #780738",
"z  c #7B0A3C",
"x  c #6E1F31",
"c  c #5C2A3D",
"v  c #6F2439",
"b  c #782131",
"n  c #7E344B",
"m  c #81161F",
"M  c #8E0A29",
"N  c #9E0024",
"B  c #910C2C",
"V  c #87182B",
"C  c #811E28",
"Z  c #8A1A2E",
"A  c #94102A",
"S  c #961A29",
"D  c #860033",
"F  c #9D133C",
"G  c #B50029",
"H  c #B9002E",
"J  c #A0003D",
"K  c #AA0639",
"L  c #AB0A3B",
"P  c #BD0033",
"I  c #B90C34",
"U  c #B9053C",
"Y  c #B51433",
"T  c #BF123B",
"R  c #BA193A",
"E  c #862632",
"W  c #882835",
"Q  c #92223A",
"!  c #B52039",
"~  c #C10038",
"^  c #C5003D",
"/  c #C1143E",
"(  c #800C42",
")  c #B90441",
"_  c #B90442",
"`  c #8B2E47",
"'  c #9E2F4B",
"]  c #973E5A",
"[  c #A02C41",
"{  c #BA2540",
"}  c #BF2A48",
"|  c #BE2E4B",
" . c #A23046",
".. c #AF334E",
"X. c #B5334F",
"o. c #B0344E",
"O. c #BE304E",
"+. c #A73756",
"@. c #C70640",
"#. c #CA0043",
"$. c #C70942",
"%. c #CE0048",
"&. c #CE0748",
"*. c #D3034E",
"=. c #D0094C",
"-. c #C41B44",
";. c #C51C48",
":. c #D60052",
">. c #DB0358",
",. c #DB0958",
"<. c #E0065E",
"1. c #C9244E",
"2. c #C42F4F",
"3. c #CF2E57",
"4. c #C33352",
"5. c #C33554",
"6. c #C63454",
"7. c #C73359",
"8. c #CE395D",
"9. c #CE395E",
"0. c #CD3B5E",
"q. c #E50965",
"w. c #E60964",
"e. c #EC126E",
"r. c #E8196F",
"t. c #EF0F71",
"y. c #F51277",
"u. c #F61579",
"i. c #FA157E",
"p. c #C82963",
"a. c #CE3E61",
"s. c #D03E63",
"d. c #D43E64",
"f. c #9D4154",
"g. c #A34358",
"h. c #9A4667",
"j. c #A94160",
"k. c #B9557B",
"l. c #9D6869",
"z. c #C74162",
"x. c #CA4265",
"c. c #C04C6D",
"v. c #C04D6D",
"b. c #CF486D",
"n. c #D9446C",
"m. c #DA4871",
"M. c #DE4973",
"N. c #C45578",
"B. c #D15176",
"V. c #D3537A",
"C. c #DE537D",
"Z. c #E14E79",
"A. c #E4537F",
"S. c #FF1884",
"D. c #FF3493",
"F. c #BB5B82",
"G. c #B85C84",
"H. c #BD6A95",
"J. c #BF6E95",
"K. c #BF76A2",
"L. c #BF79A7",
"P. c #D25980",
"I. c #E44E81",
"U. c #E25480",
"Y. c #E75586",
"T. c #E75885",
"R. c #E75886",
"E. c #E65B87",
"W. c #E65F8D",
"Q. c #E95C8B",
"!. c #DB6691",
"~. c #E56594",
"^. c #ED6292",
"/. c #EE6292",
"(. c #EF6395",
"). c #E16D9B",
"_. c #E96998",
"`. c #EA6A9B",
"'. c #EE6D9C",
"]. c #EE6F9E",
"[. c #F06798",
"{. c #F16798",
"}. c #F46C9F",
"|. c #F66FA2",
" X c #EF71A4",
".X c #F771A5",
"XX c #F377A7",
"oX c #F477AC",
"OX c #F875A9",
"+X c #F979AD",
"@X c #FA7BAF",
"#X c #FF6DB2",
"$X c #FA7DB1",
"%X c #F97DB3",
"&X c #F280B6",
"*X c #F380B6",
"=X c #FB81B5",
"-X c #F683B9",
";X c #FA83BA",
":X c #FC85B9",
">X c #FC86BA",
",X c #FB89BB",
"<X c #F989BE",
"1X c #F78CC3",
"2X c #FB88C0",
"3X c #FB89C1",
"4X c #FB89C2",
"5X c #FA8AC2",
"6X c #FC89C0",
"7X c #FB8DC2",
"8X c #FE8EC2",
"9X c #FC8FC8",
"0X c #FC8FC9",
"qX c #FF92C6",
"wX c #FC90C9",
"eX c #FE91C8",
"rX c #FF94C9",
"tX c #FC93CC",
"yX c #FF96CC",
"uX c #FD95CF",
"iX c #FF98CF",
"pX c #FB97D1",
"aX c #FD96D0",
"sX c #FF9AD2",
"dX c #FF9AD3",
"fX c #FE99D4",
"gX c #FF9CD5",
"hX c #FE9CD7",
"jX c #FF9DD7",
"kX c #FF9ED8",
"lX c #FF9FDA",
"zX c #FFA0DB",
"xX c #FFA1DD",
"cX c #FFA2DE",
"vX c #FFFBFF",
"bX c None",
/* pixels */
"bXbXbXbXbXbXbXbXbXbXbXbXbXbXbXbXbXbXbXbXbXbXbXbXbXbXbXbXbXbXbXbXbXbXbXbXbXbXbXbXbXbXbXbXbXbXbXbXbXbXbXbXbXbXbXbXbXbXbXbXbXbXbXbX",
"bXbXbXbXbXbXbXbXbXbXbXbXbXbXbXbXbXbXbXbXbXbXbXbXbXbXbXbXbXbXbXbXbXbXbXbXbXbXbXbXbXbXbXbXbXbXbXbXbXbXbXbXbXbXbXbXbXbXbXbXbXbXbXbX",
"bXbXbXbXbXbXbXbXbXbXbXbXbXbXbXbXbXbXbXbXbXbXbXbXbXbXbXbXbXbXbXbXbXbXbXbXbXbXbXbXbXbXbXbXbXbXbXbXbXbXbXbXbXbXbXbXbXbXbXbXbXbXbXbX",
"bXbXbXbXbXbXbXbXbXbXbXbXbXbXbXbXbXbXbXbXbXbXbXbXbXbXbXbXbXbXbXbXbXbXbXbXbXbXbXbXbXbXbXbXbXbXbXbXbXbXbXbXbXbXbXbXbXbXbXbXbXbXbXbX",
"bXbXbXbXbXbXbXbXbXbXbXbXbXbXbXbXbXbXbXbXbXbXbXbXbXbXbXbXbXbXbXbXbXbXbXbXbXbXbXbXbXbXbXbXbXbXbXbXbXbXbXbXbXbXbXbXbXbXbXbXbXbXbXbX",
"bXbXbXbXbXbXbXbXbXbXbXbXbXbXbXbXbXbXbXbXbXbXbXbXbXbXbXbXbXbXbXbXbXbXbXbXbXbXbXbXbXbXbXbXbXbXbXbXbXbXbXbXbXbXbXbXbXbXbXbXbXbXbXbX",
"bXbXbXbXbXbXbXbXbXbXbXbXbXbXbXbXbXbXbXbXbXbXbXbXbXbXbXbXbXbXbXbXbXbXbXbXbXbXbXbXbXbXbXbXbXbXbXbXbXbXbXbXbXbXbXbXbXbXbXbXbXbXbXbX",
"bXbXbXbXbXbXbXbXbXbXbXbXbXbXbXbXbXbXbXbXbXbXbXbXbXbXbXbXbXbXbXbXbXbXbXbXbXbXbXbXbXbXbXbXbXbXbXbXbXbXbXbXbXbXbXbXbXbXbXbXbXbXbXbX",
"bXbXbXbXbXbXbXbXbXbXbXbXbXbXbXbX                        bXbXbX                        bXbXbXbXbXbXbXbXbXbXbXbXbXbXbXbXbXbXbXbXbX",
"bXbXbXbXbXbXbXbXbXbXbXbXbXbXbXbX                        bXbXbX                        bXbXbXbXbXbXbXbXbXbXbXbXbXbXbXbXbXbXbXbXbX",
"bXbXbXbXbXbXbXbXbXbXbXbXbXbX    & ; - 6 6 z ( l p p 6 6 =   o 6 6 k ( ( ( ( a p 0 6 5         bXbXbXbXbXbXbXbXbXbXbXbXbXbXbXbXbX",
"bXbXbXbXbXbXbXbXbXbXbXbXbXbX    : e q G G u.S.t.:.:.G G 1   O G G e.S.S.S.S.>.:.^ G N           bXbXbXbXbXbXbXbXbXbXbXbXbXbXbXbX",
"bXbXbXbXbXbXbXbXbXbXbXbXbXbX    : e q G G u.S.t.:.:.G G 1   O G G e.S.S.S.S.>.:.^ G N           bXbXbXbXbXbXbXbXbXbXbXbXbXbXbXbX",
"bXbXbXbXbXbXbXbXbXbXbXbXbXbX    w G @.S.S.>.:.K e e e e e e 9 G G G G ~ :.:.i.S.S.S.D.vXvXl.e 2     bXbXbXbXbXbXbXbXbXbXbXbXbXbX",
"bXbXbXbXbXbXbXbXbXbXbXbXbXbX    w G @.S.S.>.:.K e e e e e e 9 G G G G ~ :.:.i.S.S.S.D.vXvXl.e 2     bXbXbXbXbXbXbXbXbXbXbXbXbXbX",
"bXbXbXbXbXbXbXbXbXbXbXbXbXbX    d #.U F F B M A S S o.o.o.o.X.3.3.R Y I ~ ~ &.=.,.w.r.#X#Xp.K f     bXbXbXbXbXbXbXbXbXbXbXbXbXbX",
"bXbXbXbXbXbXbXbXbXbXbXbXbXbX    D :.) e e e e m ! ! M.M.M.M.M.M.M.} ! Y G G G G ^ :.>.S.S.q.:.J     bXbXbXbXbXbXbXbXbXbXbXbXbXbX",
"bXbXbXbXbXbXbXbXbXbXbXbXbXbX    s _ L C C E W  .z.z.W.W.W.W.W.W.W.b.z.7.;.;./ T $.%.*.y.y.<.:.J     bXbXbXbXbXbXbXbXbXbXbXbXbXbX",
"bXbXbXbXbXbXbXbXbXbXbXbXbXbX    : e C M.M.}..X;XcXcXcXcXcXcXcXcXcXcXcX0X.X.XZ.M.1.G H :.:.:.:.J     bXbXbXbXbXbXbXbXbXbXbXbXbXbX",
"bXbXbXbXbXbXbXbXbXbXbXbXbXbX    : e C M.M.}..X;XcXcXcXcXcXcXcXcXcXcXcX0X.X.XZ.M.1.G H :.:.:.:.J     bXbXbXbXbXbXbXbXbXbXbXbXbXbX",
"bXbXbXbXbXbXbXbXbXbXbXbX        n P.!.1X1XaXaXhXcXcXcXcXcXcXcXcXcXcXcXhXaXaX1X1X XY.I.P P i , > bXbXbXbXbXbXbXbXbXbXbXbXbXbXbXbX",
"bXbXbXbXbXbXbXbXbXbXbX          h..X%XcXcXcXcXcXcXcXcXcXcXcXcXcXcXcXcXcXcXcXcXcX3X.X(.G G 1     bXbXbXbXbXbXbXbXbXbXbXbXbXbXbXbX",
"bXbXbXbXbXbXbXbXbXbXbX    X u u G.;X4XcXcXcXcXcXcXcXcXcXcXcXcXcXcXcXcXcXcXcXcXcXtX;XoX-.-.4     bXbXbXbXbXbXbXbXbXbXbXbXbXbXbXbX",
"bXbXbXbXbXbXbXbXbXbXbX    @ M.M.&XcXcXcXcXcXcXcXcXcXcXcXcXcXcXcXcXcXcXcXcXcXcXcXcXcXpXM.M.u     bXbXbXbXbXbXbXbXbXbXbXbXbXbXbXbX",
"bXbXbXbXbXbXbXbXbXbXbX    @ M.M.&XcXcXcXcXcXcXcXcXcXcXcXcXcXcXcXcXcXcXcXcXcXcXcXcXcXpXM.M.u     bXbXbXbXbXbXbXbXbXbXbXbXbXbXbXbX",
"bXbXbXbXbXbXbXbXbX        $ .X.X9XcXcXcXcXcXcXcXcXcXcXcXcXcXcXcXcXcXcXcXcXcXcXcXcXcXhX.X.Xc         bXbXbXbXbXbXbXbXbXbXbXbXbXbX",
"bXbXbXbXbXbXbXbXbX        $ .X.X9XcXcXcXcXcXcXcXcXcXcXcXcXcXcXcXcXcXcXcXcXcXcXcXcXcXhX.X.Xc         bXbXbXbXbXbXbXbXbXbXbXbXbXbX",
"bXbXbXbXbXbXbXbXbX    * 8 x 3X3XfXcXcXcXcXcXcXcXcXcXcXcXcXcXcXcXcXcXcXcXcXcXcXcXcXcXlX3X3X] 8 3     bXbXbXbXbXbXbXbXbXbXbXbXbXbX",
"bXbXbXbXbXbXbXbXbX    8 ! O.cXcXcXcXcXcXcXcXcXcXcXcXcXcXcXcXcXcXcXcXcXcXcXcXcXcXcXcXcXcXcXB.! V     bXbXbXbXbXbXbXbXbXbXbXbXbXbX",
"bXbXbXbXbXbXbXbXbX    y { 5.cXcXcXcXcXcXcXcXcXcXcXcXcXcXcXcXcXcXcXcXcXcXcXcXcXcXcXcXcXcXcXV.{ Z     bXbXbXbXbXbXbXbXbXbXbXbXbXbX",
"bXbXbXbXbXbXbXbXbX    v M.U.cXcXcXcXcXcXcXcXcXcXcXcXcXcXcXcXcXcXcXcXcXcXcXcXcXcXcXcXcXcXcX`.M.+.    bXbXbXbXbXbXbXbXbXbXbXbXbXbX",
"bXbXbXbXbXbXbXbXbX    v M.U.cXcXcXcXcXcXcXcXcXcXcXcXcXcXcXcXcXcXcXcXcXcXcXcXcXcXcXcXcXcXcX`.M.+.    bXbXbXbXbXbXbXbXbXbXbXbXbXbX",
"bXbXbXbXbXbXbXbXbX    v M.U.cXcXcXcXcXcXcXcXcXcXcXcXcXcXcXcXcXcXcXcXcXcXcXcXcXcXcXcXcXcXcX`.M.+.    bXbXbXbXbXbXbXbXbXbXbXbXbXbX",
"bXbXbXbXbXbXbXbXbX    v M.U.cXcXcXcXcXcXcXcXcXcXcXcXcXcXcXcXcXcXcXcXcXcXcXcXcXcXcXcXcXcXcX`.M.+.    bXbXbXbXbXbXbXbXbXbXbXbXbXbX",
"bXbXbXbXbXbXbXbXbX    v M.U.cXcXcXcXcXcXcXcXcXcXcXcXcXcXcXcXcXcXcXcXcXcXcXcXcXcXcXcXcXcXcX~.d.'     bXbXbXbXbXbXbXbXbXbXbXbXbXbX",
"bXbXbXbXbXbXbXbXbX    v M.U.cXcXcXcXcXcXcXcXcXcXcXcXcXcXcXcXcXcXcXcXcXcXcXcXcXcXcXcXcXcXcXB.! V     bXbXbXbXbXbXbXbXbXbXbXbXbXbX",
"bXbXbXbXbXbXbXbXbX    v M.U.cXcXcXcXcXcXcXcXcXcXcXcXcXcXcXcXcXcXcXcXcXcXcXcXcXcXcXcXcXcXcXB.! V     bXbXbXbXbXbXbXbXbXbXbXbXbXbX",
"bXbXbXbXbXbXbXbXbX    t { 4.rXrXjXcXcXcXcXcXcXcXcXcXcXcXcXcXcXcXcXcXcXcXcXcXcXcXcXcXzXrXrXg.r 7     bXbXbXbXbXbXbXbXbXbXbXbXbXbX",
"bXbXbXbXbXbXbXbXbX    8 ! | qXqXgXcXcXcXcXcXcXcXcXcXcXcXcXcXcXcXcXcXcXcXcXcXcXcXcXcXzXqXqXf.e 2     bXbXbXbXbXbXbXbXbXbXbXbXbXbX",
"bXbXbXbXbXbXbXbXbX    * 8 g =X=XeXsXsXsXsXxXcXcXcXcXcXcXcXcXcXcXcXcXcXlXsXsXxXcXcXcXxXsXsXN.[ b     bXbXbXbXbXbXbXbXbXbXbXbXbXbX",
"bXbXbXbXbXbXbXbXbX        $ .X.X:XqXqXqXqXzXcXcXcXcXcXcXcXcXcXcXcXcXcXgXqXqXzXcXcXcXcXcXcX`.M.+.    bXbXbXbXbXbXbXbXbXbXbXbXbXbX",
"bXbXbXbXbXbXbXbXbX        $ .X.X:XqXqXqXqXzXcXcXcXcXcXcXcXcXcXcXcXcXcXgXqXqXzXcXcXcXcXcXcX`.M.+.    bXbXbXbXbXbXbXbXbXbXbXbXbXbX",
"bXbXbXbXbXbXbXbXbXbXbX    @ M.M.^..X.X.X.X8XqXqXqXqXqXqXqXqXqXqXqXqXqX>X.X.XhXcXcXcXcXcXcX;X.Xk.    bXbXbXbXbXbXbXbXbXbXbXbXbXbX",
"bXbXbXbXbXbXbXbXbXbXbX    @ M.M.^..X.X.X.X8XqXqXqXqXqXqXqXqXqXqXqXqXqX>X.X.XhXcXcXcXcXcXcX;X.Xk.    bXbXbXbXbXbXbXbXbXbXbXbXbXbX",
"bXbXbXbXbXbXbXbXbXbXbX    # /./.}..X.X.X.X@X$X$X$X$X$X$X$X$X$X$X$X$X$X+X.X.XhXcXcXcXcXcXcXaXwXH.    bXbXbXbXbXbXbXbXbXbXbXbXbXbX",
"bXbXbXbXbXbXbXbXbXbXbX    $ .X.X.X.X.X.X.X.X.X.X.X.X.X.X.X.X.X.X.X.X.X.X.X.XhXcXcXcXcXcXcXcXcXL.    bXbXbXbXbXbXbXbXbXbXbXbXbXbX",
"bXbXbXbXbXbXbXbXbXbXbX    $ +X+XOX.X|.[.[.|..X.X.X.X.X.X.X.X.X.X.X.X.X.X.X.XhXcXcXcXcXcXcXzXkXK.    bXbXbXbXbXbXbXbXbXbXbXbXbXbX",
"bXbXbXbXbXbXbXbXbXbXbX    < qXqX$X.X[.M.M.}..X.X.X.X.X.X.X.X.X.X.X.X.X.X.X.XhXcXcXcXcXcXcXiXqXJ.    bXbXbXbXbXbXbXbXbXbXbXbXbXbX",
"bXbXbXbXbXbXbXbXbXbXbX    < qXqX$X.X[.M.M.}..X.X.X.X.X.X.X.X.X.X.X.X.X.X.X.XhXcXcXcXcXcXcXiXqXJ.    bXbXbXbXbXbXbXbXbXbXbXbXbXbX",
"bXbXbXbXbXbXbXbXbXbXbX    % +X+X2XaX5X{.{.T.A.m.6.6.A.A.A.A.A.A.A.0.6.s.A.A.7XyXgXcXcXcXcX6X+XF.    bXbXbXbXbXbXbXbXbXbXbXbXbXbX",
"bXbXbXbXbXbXbXbXbXbXbX    $ .X.X9XcXuX.X.XZ.M.9.! ! M.M.M.M.M.M.M.} ! 2.M.M.,XqXsXcXcXcXcX;X.Xk.    bXbXbXbXbXbXbXbXbXbXbXbXbXbX",
"bXbXbXbXbXbXbXbXbXbXbX    + v.v.).*X-X$X$XQ.R.x.S S ` ` ` ` ` ` ` j h Q 8.8.].XX<XgXdX9X9X_.C.j.    bXbXbXbXbXbXbXbXbXbXbXbXbXbX",
"bXbXbXbXbXbXbXbXbXbXbX    . e e ..M.E.qXqXOX.Xc.e e                   3 ! ! n.M.'.qX8X.X.Xa.! V     bXbXbXbXbXbXbXbXbXbXbXbXbXbX",
"bXbXbXbXbXbXbXbXbXbXbX    . e e ..M.E.qXqXOX.Xc.e e                   3 ! ! n.M.'.qX8X.X.Xa.! V     bXbXbXbXbXbXbXbXbXbXbXbXbXbX",
"bXbXbXbXbXbXbXbXbXbXbXbXbXbX                            bXbXbXbXbXbXbXbX                        bXbXbXbXbXbXbXbXbXbXbXbXbXbXbXbX",
"bXbXbXbXbXbXbXbXbXbXbXbXbXbX                            bXbXbXbXbXbXbXbX                        bXbXbXbXbXbXbXbXbXbXbXbXbXbXbXbX",
"bXbXbXbXbXbXbXbXbXbXbXbXbXbX                            bXbXbXbXbXbXbXbX                      bXbXbXbXbXbXbXbXbXbXbXbXbXbXbXbXbX",
"bXbXbXbXbXbXbXbXbXbXbXbXbXbXbXbXbXbXbXbXbXbXbXbXbXbXbXbXbXbXbXbXbXbXbXbXbXbXbXbXbXbXbXbXbXbXbXbXbXbXbXbXbXbXbXbXbXbXbXbXbXbXbXbX",
"bXbXbXbXbXbXbXbXbXbXbXbXbXbXbXbXbXbXbXbXbXbXbXbXbXbXbXbXbXbXbXbXbXbXbXbXbXbXbXbXbXbXbXbXbXbXbXbXbXbXbXbXbXbXbXbXbXbXbXbXbXbXbXbX",
"bXbXbXbXbXbXbXbXbXbXbXbXbXbXbXbXbXbXbXbXbXbXbXbXbXbXbXbXbXbXbXbXbXbXbXbXbXbXbXbXbXbXbXbXbXbXbXbXbXbXbXbXbXbXbXbXbXbXbXbXbXbXbXbX",
"bXbXbXbXbXbXbXbXbXbXbXbXbXbXbXbXbXbXbXbXbXbXbXbXbXbXbXbXbXbXbXbXbXbXbXbXbXbXbXbXbXbXbXbXbXbXbXbXbXbXbXbXbXbXbXbXbXbXbXbXbXbXbXbX",
"bXbXbXbXbXbXbXbXbXbXbXbXbXbXbXbXbXbXbXbXbXbXbXbXbXbXbXbXbXbXbXbXbXbXbXbXbXbXbXbXbXbXbXbXbXbXbXbXbXbXbXbXbXbXbXbXbXbXbXbXbXbXbXbX",
"bXbXbXbXbXbXbXbXbXbXbXbXbXbXbXbXbXbXbXbXbXbXbXbXbXbXbXbXbXbXbXbXbXbXbXbXbXbXbXbXbXbXbXbXbXbXbXbXbXbXbXbXbXbXbXbXbXbXbXbXbXbXbXbX",
"bXbXbXbXbXbXbXbXbXbXbXbXbXbXbXbXbXbXbXbXbXbXbXbXbXbXbXbXbXbXbXbXbXbXbXbXbXbXbXbXbXbXbXbXbXbXbXbXbXbXbXbXbXbXbXbXbXbXbXbXbXbXbXbX"
};
