/* XPM */
static char *result[] = {
/* columns rows colors chars-per-pixel */
"64 64 209 2 ",
"   c black",
".  c #160407",
"X  c #180404",
"o  c #1A000A",
"O  c #1B090E",
"+  c #1C090E",
"@  c #1D0C11",
"#  c #1F0E15",
"$  c #250606",
"%  c #22060A",
"&  c #28070B",
"*  c #2C050A",
"=  c #28000F",
"-  c #2D080E",
";  c #310808",
":  c #2A0D15",
">  c #2A0E15",
",  c #290D16",
"<  c #350014",
"1  c #300E16",
"2  c #2E151F",
"3  c #2F151F",
"4  c #37121C",
"5  c #37121D",
"6  c #3E1C29",
"7  c #400610",
"8  c #440C15",
"9  c #450C16",
"0  c #50001E",
"q  c #5A101C",
"w  c #710E18",
"e  c #631010",
"r  c #77141A",
"t  c #451724",
"y  c #4C1623",
"u  c #511621",
"i  c #531B2B",
"p  c #6B0029",
"a  c #601D29",
"s  c #711424",
"d  c #7B0131",
"f  c #4D2334",
"g  c #5C2A3E",
"h  c #6F2439",
"j  c #672A3F",
"k  c #5E3044",
"l  c #5F3548",
"z  c #60374A",
"x  c #7A3953",
"c  c #800C20",
"v  c #890C28",
"b  c #87182B",
"n  c #821E29",
"m  c #B50029",
"M  c #A01C2E",
"N  c #882835",
"B  c #852838",
"V  c #96263E",
"C  c #B52039",
"Z  c #C10038",
"A  c #8B2E47",
"S  c #982C46",
"D  c #9A3447",
"F  c #903F44",
"G  c #863B57",
"H  c #913754",
"J  c #BD2A46",
"K  c #BF2A48",
"L  c #BE2E4B",
"P  c #A73756",
"I  c #BF3B5A",
"U  c #BF1263",
"Y  c #BB1861",
"T  c #C90042",
"R  c #CA0042",
"E  c #C51C48",
"W  c #D60052",
"Q  c #D80155",
"!  c #DB0358",
"~  c #CE1C52",
"^  c #D8125A",
"/  c #E0065E",
"(  c #CE2A57",
")  c #D0255B",
"_  c #C63454",
"`  c #DB1160",
"'  c #DB1760",
"]  c #DE1C67",
"[  c #DB1F68",
"{  c #E80A67",
"}  c #EA0C6B",
"|  c #E11D6A",
" . c #EF0F71",
".. c #F51277",
"X. c #F51278",
"o. c #F7147B",
"O. c #FA157D",
"+. c #FA157E",
"@. c #D13764",
"#. c #D63966",
"$. c #E12875",
"%. c #E52F79",
"&. c #E5377E",
"*. c #8A4A4C",
"=. c #9D465D",
"-. c #984463",
";. c #9A4666",
":. c #A44A6C",
">. c #B04669",
",. c #BC4D72",
"<. c #BE5475",
"1. c #B85279",
"2. c #B9547C",
"3. c #B9557C",
"4. c #D6486F",
"5. c #C84E75",
"6. c #DE4677",
"7. c #DE4973",
"8. c #DC4A79",
"9. c #DB5078",
"0. c #DB517A",
"q. c #DE537D",
"w. c #E4537F",
"e. c #FD1680",
"r. c #FB1E82",
"t. c #FF1884",
"y. c #FD2E8C",
"u. c #E53D81",
"i. c #EF3A88",
"p. c #F83691",
"a. c #FE3797",
"s. c #FF3A9A",
"d. c #BB728A",
"f. c #C65E83",
"g. c #EA498C",
"h. c #E15680",
"j. c #E75885",
"k. c #E65B88",
"l. c #E35C8B",
"z. c #EA5D8C",
"x. c #FF439B",
"c. c #C56B91",
"v. c #D86390",
"b. c #D66B98",
"n. c #E36391",
"m. c #ED6292",
"M. c #EA6492",
"N. c #EA6A9B",
"B. c #F16798",
"V. c #F46C9F",
"C. c #FD4FA5",
"Z. c #FF4CA6",
"A. c #FF51A3",
"S. c #D87DAA",
"D. c #F267A6",
"F. c #EE75A8",
"G. c #F771A5",
"H. c #F374A6",
"J. c #F674A7",
"K. c #F776A9",
"L. c #F875A9",
"P. c #F877AC",
"I. c #F979AD",
"U. c #F27EB3",
"Y. c #FA7DB1",
"T. c #F97DB3",
"R. c #F380B6",
"E. c #FB81B5",
"W. c #F981B7",
"Q. c #FA80B8",
"!. c #FA83BA",
"~. c #FC86BA",
"^. c #FD87BB",
"/. c #FB89BC",
"(. c #FD89BD",
"). c #FD8ABE",
"_. c #EF9CBE",
"`. c #F78CC3",
"'. c #FB89C1",
"]. c #FF89C1",
"[. c #FC8AC0",
"{. c #FE8EC2",
"}. c #FE8FC5",
"|. c #EF99C3",
" X c #FF92C6",
".X c #FE94CB",
"XX c #FE95CB",
"oX c #FF93CC",
"OX c #FF96CC",
"+X c #FD95CF",
"@X c #FF98CF",
"#X c #FB97D1",
"$X c #FF9AD2",
"%X c #FC99D4",
"&X c #FF9CD5",
"*X c #FE9CD7",
"=X c #FF9ED8",
"-X c #FF9FDA",
";X c #FFA0DB",
":X c #FFA1DD",
">X c #FFA2DE",
",X c #FFADE2",
"<X c #FFB8E6",
"1X c #D8C0C3",
"2X c #ECC4CE",
"3X c #FFC2E0",
"4X c #FFD9F3",
"5X c #FFFBFF",
"6X c None",
/* pixels */
"6X6X6X6X6X6X6X6X6X6X6X6X6X6X6X6X6X6X6X6X6X6X6X6X6X6X6X6X6X6X6X6X6X6X6X6X6X6X6X6X6X6X6X6X6X6X6X6X6X6X6X6X6X6X6X6X6X6X6X6X6X6X6X6X",
"6X6X6X6X6X6X6X6X6X6X6X6X6X6X6X6X6X6X6X6X6X6X6X6X6X6X6X6X6X6X6X6X6X6X6X6X6X6X6X6X6X6X6X6X6X6X6X6X6X6X6X6X6X6X6X6X6X6X6X6X6X6X6X6X",
"6X6X6X6X6X6X6X6X6X6X6X6X6X6X6X6X6X6X6X6X6X6X6X6X6X6X6X6X6X6X6X6X6X6X6X6X6X6X6X6X6X6X6X6X6X6X6X6X6X6X6X6X6X6X6X6X6X6X6X6X6X6X6X6X",
"6X6X6X6X6X6X6X6X6X6X6X6X6X6X6X6X6X6X6X6X6X6X6X6X6X6X6X6X6X6X6X6X6X6X6X6X6X6X6X6X6X6X6X6X6X6X6X6X6X6X6X6X6X6X6X6X6X6X6X6X6X6X6X6X",
"6X6X6X6X6X6X6X6X6X6X6X6X6X6X6X6X6X6X6X6X6X6X6X6X6X6X6X6X6X6X6X6X6X6X6X6X6X6X6X6X6X6X6X6X6X6X6X6X6X6X6X6X6X6X6X6X6X6X6X6X6X6X6X6X",
"6X6X6X6X6X6X6X6X6X6X6X6X6X6X6X6X6X6X6X6X6X6X6X6X6X6X6X6X6X6X6X6X6X6X6X6X6X6X6X6X6X6X6X6X6X6X6X6X6X6X6X6X6X6X6X6X6X6X6X6X6X6X6X6X",
"6X6X6X6X6X6X6X6X6X6X6X6X6X6X6X6X6X6X6X6X6X6X6X6X6X6X6X6X6X6X6X6X6X6X6X6X6X6X6X6X6X6X6X6X6X6X6X6X6X6X6X6X6X6X6X6X6X6X6X6X6X6X6X6X",
"6X6X6X6X6X6X6X6X6X6X6X6X6X6X6X6X6X6X6X6X6X6X6X6X6X6X6X6X6X6X6X6X6X6X6X6X6X6X6X6X6X6X6X6X6X6X6X6X6X6X6X6X6X6X6X6X6X6X6X6X6X6X6X6X",
"6X6X6X6X6X6X6X6X6X6X6X6X6X6X6X6X6X6X6X6X6X6X6X6X6X6X6X6X6X6X6X6X6X6X6X6X6X6X6X6X6X6X6X6X6X6X6X6X6X6X6X6X6X6X6X6X6X6X6X6X6X6X6X6X",
"6X6X6X6X6X6X6X6X6X6X6X6X6X6X6X6X6X6X6X6X6X6X6X6X6X6X6X6X6X6X6X6X6X6X6X6X6X6X6X6X6X6X6X6X6X6X6X6X6X6X6X6X6X6X6X6X6X6X6X6X6X6X6X6X",
"6X6X6X6X6X6X6X6X6X6X6X6X6X6X6X6X6X6X6X6X6X6X6X6X6X6X6X6X6X6X6X6X6X6X6X6X6X6X6X6X6X6X6X6X6X6X6X6X6X6X6X6X6X6X6X6X6X6X6X6X6X6X6X6X",
"6X6X6X6X6X6X6X6X6X6X6X6X6X6X6X6X6X6X6X6X6X6X6X6X6X6X6X6X6X6X6X6X6X6X6X6X6X6X6X6X6X6X6X6X6X6X6X6X6X6X6X6X6X6X6X6X6X6X6X6X6X6X6X6X",
"6X6X6X6X6X6X6X6X6X6X6X6X6X6X6X6X6X6X6X6X6X6X6X6X6X6X6X6X6X6X6X6X6X6X6X6X6X6X6X6X6X6X6X6X6X6X6X6X6X6X6X6X6X6X6X6X6X6X6X6X6X6X6X6X",
"6X6X6X6X6X6X6X6X6X6X6X6X6X6X6X6X6X6X6X6X6X6X6X6X6X6X6X6X6X6X6X6X6X6X6X6X6X6X6X6X6X6X6X6X6X6X6X6X6X6X6X6X6X6X6X6X6X6X6X6X6X6X6X6X",
"6X6X6X6X6X6X6X6X6X6X6X6X6X6X6X6X6X6X6X6X6X6X6X6X6X6X6X6X6X6X6X6X6X6X6X6X6X6X6X6X6X6X6X6X6X6X6X6X6X6X6X6X6X6X6X6X6X6X6X6X6X6X6X6X",
"6X6X6X6X6X6X6X6X6X6X6X6X6X6X6X6X6X6X6X6X6X6X6X                                  6X6X6X6X6X6X6X6X6X6X6X6X6X6X6X6X6X6X6X6X6X6X6X6X",
"6X6X6X6X6X6X6X6X6X6X6X6X6X6X6X6X6X6X6X6X6X6X6X                                  6X6X6X6X6X6X6X6X6X6X6X6X6X6X6X6X6X6X6X6X6X6X6X6X",
"6X6X6X6X6X6X6X6X6X6X6X6X6X6X6X6X6X6X6X6X6X6X6X    . - - 4 4 4 4 1 X X & - %     6X6X6X6X6X6X6X6X6X6X6X6X6X6X6X6X6X6X6X6X6X6X6X6X",
"6X6X6X6X6X6X6X6X6X                                q C C 7.7.7.7.I e e M C s               6X6X6X6X6X6X6X6X6X6X6X6X6X6X6X6X6X6X6X",
"6X6X6X6X6X6X6X6X6X                                q C C 7.7.7.7.I e e M C s               6X6X6X6X6X6X6X6X6X6X6X6X6X6X6X6X6X6X6X",
"6X6X6X6X6X6X          P P >.3.1.P P :   > P P Y U b.2X2Xn n f.`.|.1X1XF r B 3.3.P P i         6X6X6X6X6X6X6X6X6X6X6X6X6X6X6X6X6X",
"6X6X6X6X6X6X          7.7.z.G.V.7.7.4   5 7.7.r.t.].5X5Xe e c.>X<X5X5X*.e D G.G.7.7.h         6X6X6X6X6X6X6X6X6X6X6X6X6X6X6X6X6X",
"6X6X6X6X6X6X    O i i M.M.H.!.W.N.N.G g x N.N.C.Z.oX4X4X=.=.S.>X,X4X4Xd.=.<.m.m.N.N.:.g f       6X6X6X6X6X6X6X6X6X6X6X6X6X6X6X6X",
"6X6X6X6X6X6X    i 7.7. X X$X>X>X>X>XT.G.T.>X>X>X>X>X>X>X>X>X>X>X>X>X>X>X>XR.7.7.>X>X'.G.v.          6X6X6X6X6X6X6X6X6X6X6X6X6X6X",
"6X6X6X6X6X6X    i 7.7. X X$X>X>X>X>XT.G.T.>X>X>X>X>X>X>X>X>X>X>X>X>X>X>X>XR.7.7.>X>X'.G.v.          6X6X6X6X6X6X6X6X6X6X6X6X6X6X",
"6X6X6X6X6X6X    g G.G.>X>X>X>X>X>X>X>X>X>X>X>X>X>X>X>X>X>X>X@X X X X X X X@X>X>X>X>X>X>X#X7.7.4                   6X6X6X6X6X6X6X",
"6X6X6X6X6X6X    g G.G.>X>X>X>X>X>X>X>X>X>X>X>X>X>X>X>X>X>X>X@X X X X X X X@X>X>X>X>X>X>X#X7.7.4                   6X6X6X6X6X6X6X",
"6X6X6X6X6X6X    k E.E.>X>X>X>X>X>X>X>X>X>X>X>X>X>X>X>X>X$X$XD.g.g.g.g.g.g.D.$X$X>X>X>X>X%Xz.z.a ; 7 p p p p <         6X6X6X6X6X",
"6X6X6X6X6X6X    z  X X>X>X>X>X>X>X>X>X>X>X>X>X>X>X>X>X>X X X&.W W W W W W &. X X>X>X>X>X*XG.G.N e c W W W W p         6X6X6X6X6X",
"6X6X6X6X6X6X    l {.{.>X>X>X>X>X>X>X>X>X>X>X>X>X>X:X;X;XQ.Q.u.[ ` ! ! ! ! %.Q.Q.;X;X:X>X*XP.P.V w v ! ! ! ! d o o     6X6X6X6X6X",
"6X6X6X6X6X6X    g G.G.>X>X>X>X>X>X>X>X>X>X>X>X>X>X$X X XW W _.5X3Xt.t.t.t. .W W  X X$X>X>X>X>X$.W / t.t.t.t.} W W     6X6X6X6X6X",
"6X6X6X6X6X6X    g G.G.>X>X>X>X>X>X>X>X>X>X>X>X>X>X$X X XW W _.5X3Xt.t.t.t. .W W  X X$X>X>X>X>X$.W / t.t.t.t.} W W     6X6X6X6X6X",
"6X6X6X6X6X6X    y _ _ OXOX&X>X:XOXOX-X>X>X>X>X>X>XU.k.k.W W i.A.x.t.t.t.t. .W W  X X$X>X>X>X>Xp.X.o.t.t.t.t.+.X.X.    6X6X6X6X6X",
"6X6X6X6X6X6X    8 C C  X X$X>X;X X X=X>X>X>X>X>X>XF.7.7.W W  .t.t.t.t.t.t. .W W  X X$X>X>X>X>Xs.t.t.t.t.t.t.t.t.t.    6X6X6X6X6X",
"6X6X6X6X6X6X    9 b b (.(..X=X&X X X=X>X>X>X>X>X>XF.7.7.W W  .t.e.........{ W W  X X$X>X>X+X+Xa.t.t.t.t.t.t.O.....    6X6X6X6X6X",
"6X6X6X6X6X6X6X6X6X    G.G.E. X X X X=X>X>X>X>X>X>XF.7.7.W W  .t...W W W W W W W  X X$X>X*XG.G.y.t.t.t.t.t.t.} W W     6X6X6X6X6X",
"6X6X6X6X6X6X6X6X6X    G.G.E. X X X X=X>X>X>X>X>X>XF.7.7.W W  .t...W W W W W W W  X X$X>X*XG.G.y.t.t.t.t.t.t.} W W     6X6X6X6X6X",
"6X6X6X6X6X6X6X6X6X    J J 9.L.I. X X=X>X>X>X>X>X>XF.7.7.W W Q ! ! W W W W W W W  X X$X>X*XG.G.| ! ! ! ! ! ! Q W W     6X6X6X6X6X",
"6X6X6X6X6X6X6X6X6X    C C 4.G.L. X X=X>X>X>X>X>X>XF.7.7.W W W W W W W W W W W W  X X$X>X*XG.G.] W W W W W W W W W     6X6X6X6X6X",
"6X6X6X6X6X6X6X6X6X    q q S 4.0. X X=X>X>X>X>X>X>XF.7.7.W W W W W W W W W W W W  X X$X>X%Xz.z.' W W W W W W W W W     6X6X6X6X6X",
"6X6X6X6X6X6X6X6X6X6X6X    q C L  X X=X>X>X>X>X>X>XF.7.7.W W W W W W W W W W W W  X X$X>X#X7.7.^ W W W W W W W W W     6X6X6X6X6X",
"6X6X6X6X6X6X6X6X6X6X6X    q C L  X X=X>X>X>X>X>X>XF.7.7.W W W W W W W W W W W W  X X$X>X#X7.7.^ W W W W W W W W W     6X6X6X6X6X",
"6X6X6X6X6X6X6X6X6X6X6X        # G.G.). X X X X;X>X'.G.G.m m T W W W W W W R m m >X>X$X X/.7.7.n e c W W W W p         6X6X6X6X6X",
"6X6X6X6X6X6X6X6X6X6X6X        # G.G.). X X X X;X>X'.G.G.m m T W W W W W W R m m >X>X$X X/.7.7.n e c W W W W p         6X6X6X6X6X",
"6X6X6X6X6X6X6X6X6X6X6X6X6X    @ j.j.J.Y.Y.Y.Y.XX@X}.~.~.6.6.~ Z Z Z Z Z Z ) l.l.@X@X[.Y.K.7.7.u $ * 0 0 0 0 =     6X6X6X6X6X6X6X",
"6X6X6X6X6X6X6X6X6X6X6X6X6X    + 7.7.B.G.G.G.G.{. X X X XG.G.( m m m m m m @. X X X XE.G.V.7.7.4                   6X6X6X6X6X6X6X",
"6X6X6X6X6X6X6X6X6X6X6X6X6X    + P P n.G.G.G.G.^.(.(.(.(.G.G.#.E E E E E E 8.(.(.(.(.Y.G.V.P P ,                   6X6X6X6X6X6X6X",
"6X6X6X6X6X6X6X6X6X6X6X6X6X          2.G.G.G.G.G.G.G.G.G.G.G.G.G.G.G.G.G.G.G.G.G.G.G.G.G.v.          6X6X6X6X6X6X6X6X6X6X6X6X6X6X",
"6X6X6X6X6X6X6X6X6X6X6X6X6X          2.G.G.G.G.G.G.G.G.G.G.G.G.G.G.G.G.G.G.G.G.G.G.G.G.G.v.          6X6X6X6X6X6X6X6X6X6X6X6X6X6X",
"6X6X6X6X6X6X6X6X6X6X6X6X6X6X6X6X    3 6 j w.w.V.G.G.G.G.G.G.G.G.G.G.G.G.G.G.G.G.w.w.H 6 2     6X6X6X6X6X6X6X6X6X6X6X6X6X6X6X6X6X",
"6X6X6X6X6X6X6X6X6X6X6X6X6X6X6X6X        5 7.7.V.G.G.G.G.G.G.G.G.G.G.G.G.G.G.G.G.7.7.h         6X6X6X6X6X6X6X6X6X6X6X6X6X6X6X6X6X",
"6X6X6X6X6X6X6X6X6X6X6X6X6X6X6X6X        O A A -.;.,.q.q.m.m.m.m.m.m.m.h.q.5.;.;.A A t         6X6X6X6X6X6X6X6X6X6X6X6X6X6X6X6X6X",
"6X6X6X6X6X6X6X6X6X6X6X6X6X6X6X6X6X6X              q C C 7.7.7.7.7.7.7.K C s               6X6X6X6X6X6X6X6X6X6X6X6X6X6X6X6X6X6X6X",
"6X6X6X6X6X6X6X6X6X6X6X6X6X6X6X6X6X6X              q C C 7.7.7.7.7.7.7.K C s               6X6X6X6X6X6X6X6X6X6X6X6X6X6X6X6X6X6X6X",
"6X6X6X6X6X6X6X6X6X6X6X6X6X6X6X6X6X6X6X6X6X6X6X                                  6X6X6X6X6X6X6X6X6X6X6X6X6X6X6X6X6X6X6X6X6X6X6X6X",
"6X6X6X6X6X6X6X6X6X6X6X6X6X6X6X6X6X6X6X6X6X6X6X                                  6X6X6X6X6X6X6X6X6X6X6X6X6X6X6X6X6X6X6X6X6X6X6X6X",
"6X6X6X6X6X6X6X6X6X6X6X6X6X6X6X6X6X6X6X6X6X6X6X6X                                6X6X6X6X6X6X6X6X6X6X6X6X6X6X6X6X6X6X6X6X6X6X6X6X",
"6X6X6X6X6X6X6X6X6X6X6X6X6X6X6X6X6X6X6X6X6X6X6X6X6X6X6X6X6X6X6X6X6X6X6X6X6X6X6X6X6X6X6X6X6X6X6X6X6X6X6X6X6X6X6X6X6X6X6X6X6X6X6X6X",
"6X6X6X6X6X6X6X6X6X6X6X6X6X6X6X6X6X6X6X6X6X6X6X6X6X6X6X6X6X6X6X6X6X6X6X6X6X6X6X6X6X6X6X6X6X6X6X6X6X6X6X6X6X6X6X6X6X6X6X6X6X6X6X6X",
"6X6X6X6X6X6X6X6X6X6X6X6X6X6X6X6X6X6X6X6X6X6X6X6X6X6X6X6X6X6X6X6X6X6X6X6X6X6X6X6X6X6X6X6X6X6X6X6X6X6X6X6X6X6X6X6X6X6X6X6X6X6X6X6X",
"6X6X6X6X6X6X6X6X6X6X6X6X6X6X6X6X6X6X6X6X6X6X6X6X6X6X6X6X6X6X6X6X6X6X6X6X6X6X6X6X6X6X6X6X6X6X6X6X6X6X6X6X6X6X6X6X6X6X6X6X6X6X6X6X",
"6X6X6X6X6X6X6X6X6X6X6X6X6X6X6X6X6X6X6X6X6X6X6X6X6X6X6X6X6X6X6X6X6X6X6X6X6X6X6X6X6X6X6X6X6X6X6X6X6X6X6X6X6X6X6X6X6X6X6X6X6X6X6X6X",
"6X6X6X6X6X6X6X6X6X6X6X6X6X6X6X6X6X6X6X6X6X6X6X6X6X6X6X6X6X6X6X6X6X6X6X6X6X6X6X6X6X6X6X6X6X6X6X6X6X6X6X6X6X6X6X6X6X6X6X6X6X6X6X6X",
"6X6X6X6X6X6X6X6X6X6X6X6X6X6X6X6X6X6X6X6X6X6X6X6X6X6X6X6X6X6X6X6X6X6X6X6X6X6X6X6X6X6X6X6X6X6X6X6X6X6X6X6X6X6X6X6X6X6X6X6X6X6X6X6X"
};
