/* XPM */
static char *result[] = {
/* columns rows colors chars-per-pixel */
"64 64 161 2 ",
"   c black",
".  c #0D0304",
"X  c #150105",
"o  c #190205",
"O  c #1A000A",
"+  c #1C090E",
"@  c #1F0E14",
"#  c #1F141C",
"$  c #2D080E",
"%  c #3B0D16",
"&  c #37121D",
"*  c #3D1C29",
"=  c #440C15",
"-  c #4F0E19",
";  c #5A0014",
":  c #50001F",
">  c #5A101C",
",  c #631010",
"<  c #580725",
"1  c #531B2B",
"2  c #5F1523",
"3  c #661220",
"4  c #711424",
"5  c #77192B",
"6  c #600932",
"7  c #402837",
"8  c #572A39",
"9  c #6F2439",
"0  c #6C3148",
"q  c #603D53",
"w  c #7E4B68",
"e  c #96061F",
"r  c #9E0024",
"t  c #961A29",
"y  c #9E1C32",
"u  c #87182B",
"i  c #B50029",
"p  c #BD0033",
"a  c #AA1E35",
"s  c #84253B",
"d  c #952239",
"f  c #A5233B",
"g  c #B52039",
"h  c #C10038",
"j  c #B90442",
"k  c #BA1B4F",
"l  c #8B2D47",
"z  c #9B2142",
"x  c #8A3443",
"c  c #9A3953",
"v  c #BA2540",
"b  c #BD2A46",
"n  c #BF2B49",
"m  c #BE304D",
"M  c #A73756",
"N  c #A23E5B",
"B  c #BF3B5A",
"V  c #CE0048",
"C  c #D1094B",
"Z  c #CD0F5D",
"A  c #D60052",
"S  c #DB0358",
"D  c #D80E5E",
"F  c #D8125A",
"G  c #D91B5E",
"H  c #E0065E",
"J  c #C42F4F",
"K  c #C53454",
"L  c #CC395C",
"P  c #D4295D",
"I  c #DE1B66",
"U  c #D11163",
"Y  c #DF1574",
"T  c #ED126E",
"R  c #EF0F71",
"E  c #EC1574",
"W  c #F41276",
"Q  c #FA157E",
"!  c #DA2462",
"~  c #CE3E61",
"^  c #D43760",
"/  c #DD356C",
"(  c #D43E64",
")  c #EA3779",
"_  c #E6387B",
"`  c #8A4A4C",
"'  c #BE435B",
"]  c #9A4667",
"[  c #905B7D",
"{  c #AA4567",
"}  c #B9557C",
"|  c #A26179",
" . c #C2425E",
".. c #C24065",
"X. c #CF486C",
"o. c #D5466B",
"O. c #C7576A",
"+. c #DE4973",
"@. c #D14D74",
"#. c #CF547B",
"$. c #D15176",
"%. c #DB547C",
"&. c #E24375",
"*. c #E14E79",
"=. c #E34679",
"-. c #E3537E",
";. c #D0677F",
":. c #FF1884",
">. c #FE2388",
",. c #B85C84",
"<. c #BC6791",
"1. c #C75983",
"2. c #ED4587",
"3. c #EA478A",
"4. c #E45480",
"5. c #E65E8C",
"6. c #E95B8A",
"7. c #EC5792",
"8. c #D87299",
"9. c #D66996",
"0. c #EC6392",
"q. c #EC6B9B",
"w. c #F16798",
"e. c #F46C9E",
"r. c #F866A0",
"t. c #F369A4",
"y. c #E371A0",
"u. c #EE71A2",
"i. c #F771A5",
"p. c #F876AB",
"a. c #F17CAF",
"s. c #FF6EBC",
"d. c #FA7EB1",
"f. c #F08EAE",
"g. c #F480B5",
"h. c #FB81B5",
"j. c #FB84BA",
"k. c #FC8ABD",
"l. c #F586BC",
"z. c #F992BC",
"x. c #F697BC",
"c. c #C4A2A5",
"v. c #F78CC3",
"b. c #FC8CC2",
"n. c #FC8FC9",
"m. c #FF92C6",
"M. c #FF95CB",
"N. c #FF98CF",
"B. c #F692C9",
"V. c #FC97D1",
"C. c #FF9CD5",
"Z. c #FF9ED8",
"A. c #F7ABCA",
"S. c #FFA2DE",
"D. c #F8B9D3",
"F. c #F2B8CB",
"G. c #FFADE2",
"H. c #FFDFEF",
"J. c #FFF0FB",
"K. c #FFFBFF",
"L. c None",
/* pixels */
"L.L.L.L.L.L.L.L.L.L.L.L.L.L.L.L.L.L.L.L.L.L.L.L.L.L.L.L.L.L.L.L.L.L.L.L.L.L.L.L.L.L.L.L.L.L.L.L.L.L.L.L.L.L.L.L.L.L.L.L.L.L.L.L.",
"L.L.L.L.L.L.L.L.L.L.L.L.L.L.L.L.L.L.L.L.L.L.L.L.L.L.L.L.L.L.L.L.L.L.L.L.L.L.L.L.L.L.L.L.L.L.L.L.L.L.L.L.L.L.L.L.L.L.L.L.L.L.L.L.",
"L.L.L.L.L.L.L.L.L.L.L.L.L.L.L.L.L.L.L.L.L.L.L.L.L.L.L.L.L.L.L.L.L.L.L.L.L.L.L.L.L.L.L.L.L.L.L.L.L.L.L.L.L.L.L.L.L.L.L.L.L.L.L.L.",
"L.L.L.L.L.L.L.L.L.L.L.L.L.L.L.L.L.L.L.L.L.L.L.L.L.L.L.L.L.L.L.L.L.L.L.L.L.L.L.L.L.L.L.L.L.L.L.L.L.L.L.L.L.L.L.L.L.L.L.L.L.L.L.L.",
"L.L.L.L.L.L.L.L.L.L.L.L.L.L.L.L.L.L.L.L.L.L.L.L.L.L.L.L.L.L.L.L.L.L.L.L.L.L.L.L.L.L.L.L.L.L.L.L.L.L.L.L.L.L.L.L.L.L.L.L.L.L.L.L.",
"L.L.L.L.L.L.L.L.L.L.L.L.L.L.L.L.L.L.L.L.L.L.L.L.L.L.L.L.L.L.L.L.L.L.L.L.L.L.L.L.L.L.L.L.L.L.L.L.L.L.L.L.L.L.L.L.L.L.L.L.L.L.L.L.",
"L.L.L.L.L.L.L.L.L.L.L.L.L.L.L.L.L.L.L.L.L.L.L.L.L.L.L.L.L.L.L.L.L.L.L.L.L.L.L.L.L.L.L.L.L.L.L.L.L.L.L.L.L.L.L.L.L.L.L.L.L.L.L.L.",
"L.L.L.L.L.L.L.L.L.L.L.L.L.L.L.L.L.L.L.L.L.L.L.L.L.L.L.L.L.L.L.L.L.L.L.L.L.L.L.L.L.L.L.L.L.L.L.L.L.L.L.L.L.L.L.L.L.L.L.L.L.L.L.L.",
"L.L.L.L.L.L.L.L.L.L.L.L.L.L.L.L.L.L.L.L.L.L.L.L.L.L.L.L.L.L.L.L.L.L.L.L.L.L.L.L.L.L.L.L.L.L.L.L.L.L.L.L.L.L.L.L.L.L.L.L.L.L.L.L.",
"L.L.L.L.L.L.L.L.L.L.L.L.L.L.L.L.L.L.L.L.L.L.L.L.L.L.L.L.L.L.L.L.L.L.L.L.L.L.L.L.L.L.L.L.L.L.L.L.L.L.L.L.L.L.L.L.L.L.L.L.L.L.L.L.",
"L.L.L.L.L.L.L.L.L.L.L.L.L.L.L.L.L.L.L.L.L.L.L.              L.L.L.L.L.L.L.L.L.L.                  L.L.L.L.L.L.L.L.L.L.L.L.L.L.L.",
"L.L.L.L.L.L.L.L.L.L.L.L.L.L.L.L.L.L.L.L.L.L.L.              L.L.L.L.L.L.L.L.L.L.                  L.L.L.L.L.L.L.L.L.L.L.L.L.L.L.",
"L.L.L.L.L.L.L.L.L.L.L.L.L.L.L.L.L.L.        = g g g g g g y                   = g g +.+.+.+.( k g $     L.L.L.L.L.L.L.L.L.L.L.L.",
"L.L.L.L.L.L.L.L.L.L.L.L.L.L.L.L.L.L.        = g g g g g g y                   = g g +.+.+.+.+.a g $     L.L.L.L.L.L.L.L.L.L.L.L.",
"L.L.L.L.L.L.L.L.L.L.L.L.L.L.L.L.        9 l { y.y.y.y.y.y.9.l l 5 4 -     3 4 c y.y.d.a.a.d.a.4.%.d 4 -     L.L.L.L.L.L.L.L.L.L.",
"L.L.L.L.L.L.L.L.L.L.L.L.L.L.L.          M +.q.S.S.S.S.S.S.V.+.+.n g u     y g $.G.Z.G.S.G.S.S.t.i.K g 4     L.L.L.L.L.L.L.L.L.L.",
"L.L.L.L.L.L.L.L.L.L.L.L.L.L.L.    . + + { 4.u.Z.S.S.S.S.S.V.-.-.m v y @ @ f v @.V.C.S.S.S.S.C.p.p.L v 4     L.L.L.L.L.L.L.L.L.L.",
"L.L.L.L.L.L.L.L.L.L.L.L.L.        & +.+.v.Z.S.G.S.S.S.S.S.S.m.m.5.+.4.i.i.*.+.+.+.+.S.S.S.S.S.S.S.5.+.l     L.L.L.L.L.L.L.L.L.L.",
"L.L.L.L.L.L.L.L.L.L.L.L.L.        & +.+.v.S.S.S.S.S.S.S.S.Z.m.m.6.+.4.i.i.*.+.+.+.+.S.S.S.S.S.S.G.5.+.l     L.L.L.L.L.L.L.L.L.L.",
"L.L.L.L.L.L.L.L.L.L.L.        0 ,.1.w.w.n.S.S.S.S.S.S.S.S.S.Z.C.5.+.6.V.V.v.v.g.w.q.5.5.l.S.S.N.M.5.+.l     L.L.L.L.L.L.L.L.L.L.",
"L.L.L.L.L.L.L.L.L.L.          ] i.i.i.i.V.S.S.S.S.S.S.S.S.S.S.S.5.+.5.G.S.S.S.n.i.i.+.+.g.S.S.m.b.6.*.l     L.L.L.L.L.L.L.L.L.L.",
"L.L.L.L.L.L.L.L.L.L.      1 1 ,.j.d.d.d.n.Z.Z.S.S.S.S.S.S.S.C.C.5.+.5.S.S.S.S.M.j.j.+.+.a.C.V.j.j.+.^ 9     L.L.L.L.L.L.L.L.L.L.",
"L.L.L.L.L.L.L.L.L.L.      +.+.g.G.C.m.m.m.m.V.S.S.S.S.S.S.Z.m.m.5.+.5.S.S.S.S.S.S.S.+.+.u.M.b.i.i.K g 4     L.L.L.L.L.L.L.L.L.L.",
"L.L.L.L.L.L.L.L.L.L.      +.+.g.S.Z.m.m.m.m.V.S.S.S.S.S.S.S.m.m.6.+.5.S.S.S.S.S.S.S.+.+.i.m.m.i.i.K g 4     L.L.L.L.L.L.L.L.L.L.",
"L.L.L.L.L.L.L.L.          e.e.b.S.S.S.Z.M.m.m.M.M.m.M.M.M.k.-.-.a.k.b.S.S.S.S.S.S.S.e.e.o.n n b J & X X L.L.L.L.L.L.L.L.L.L.L.L.",
"L.L.L.L.L.L.L.L.          t.i.n.S.S.S.S.M.n.m.m.m.m.m.m.m.k.+.+.d.n.N.S.S.S.S.S.S.S.i.i.~ g g g g $     L.L.L.L.L.L.L.L.L.L.L.L.",
"L.L.L.L.L.L.L.L.    $ > > b.b.C.S.S.S.S.C.V.V.m.m.h.d.h.h.d.q.e.n.V.C.S.S.S.S.S.S.S.v.b.X.g a > > X     L.L.L.L.L.L.L.L.L.L.L.L.",
"L.L.L.L.L.L.L.L.    > g g G.Z.S.S.S.S.S.Z.G.C.n.m.i.i.i.i.p.m.n.C.S.S.S.S.S.S.S.S.S.Z.S.$.g y           L.L.L.L.L.L.L.L.L.L.L.L.",
"L.L.L.L.L.L.L.L.    > g g S.S.S.S.S.S.S.S.S.C.n.m.i.i.i.i.p.n.n.Z.S.Z.G.S.S.S.S.S.S.S.S.$.g y           L.L.L.L.L.L.L.L.L.L.L.L.",
"L.L.L.L.L.L.L.L.    9 +.+.S.S.S.S.S.S.S.S.S.S.S.Z.G.S.S.S.S.S.S.S.S.S.S.S.S.S.S.S.S.S.S.q.+...    L.L.L.L.L.L.L.L.L.L.L.L.L.L.L.",
"L.L.L.L.L.L.L.L.    9 +.+.S.S.S.S.S.S.S.S.S.S.S.S.S.S.S.S.S.S.S.S.S.S.S.S.S.S.S.S.S.S.S.q.+...    L.L.L.L.L.L.L.L.L.L.L.L.L.L.L.",
"L.L.L.L.L.L.L.L.    9 +.+.S.S.S.S.S.S.S.S.S.S.S.S.S.S.S.S.Z.d.b.w q [ S.S.k.j.<.q q S.S.q.+...    L.L.L.L.L.L.L.L.L.L.L.L.L.L.L.",
"L.L.L.L.L.L.L.L.    9 +.+.S.S.S.S.S.S.S.S.S.S.S.S.S.S.S.G.C.i.i.*   7 S.S.p.i.]     S.S.q.+...    L.L.L.L.L.L.L.L.L.L.L.L.L.L.L.",
"L.L.L.L.L.L.L.L.    9 +.+.S.S.S.S.S.S.S.S.S.S.S.S.S.S.S.Z.C.z.z.8 o 8 S.S.z.z.| o o S.S.q.+...    L.L.L.L.L.L.L.L.L.L.L.L.L.L.L.",
"L.L.L.L.L.L.L.L.    9 +.+.S.S.S.S.S.S.S.S.S.S.S.S.S.S.S.S.G.K.K.` , x S.S.J.K.c., , S.S.q.+.'     L.L.L.L.L.L.L.L.L.L.L.L.L.L.L.",
"L.L.L.L.L.L.L.L.    9 +.+.S.S.S.S.S.S.S.S.S.S.S.S.S.S.S.S.G.K.K.` , x S.S.J.K.c., , S.S.q.+...    L.L.L.L.L.L.L.L.L.L.L.L.L.L.L.",
"L.L.L.L.L.L.L.L.    2 n J m.M.C.S.S.S.S.S.S.S.S.S.S.S.S.Z.Z.O.O.~ B #.S.S.;.O.' K B V.M.%.b f     L.L.L.L.L.L.L.L.L.L.L.L.L.L.L.",
"L.L.L.L.L.L.L.L.    > g g m.m.C.S.S.S.S.S.S.S.S.S.S.S.S.G.B.g g ~ +.5.S.S.m g n +.+.M.m.X.g f     L.L.L.L.L.L.L.L.L.L.L.L.L.L.L.",
"L.L.L.L.L.L.L.L.    % 4 4 j.j.M.C.C.C.Z.S.S.Z.C.C.s.s.s.s.t.t t 4.0.u.S.G.s 4 z ) ) j.j.{ , 3     L.L.L.L.L.L.L.L.L.L.L.L.L.L.L.",
"L.L.L.L.L.L.L.L.          i.i.j.m.m.n.n.C.G.C.m.n.:.:.:.:.E , , 8.B.n.G.Z.#   6 :.:.i.p.8         L.L.L.L.L.L.L.L.L.L.L.L.L.L.L.",
"L.L.L.L.L.L.L.L.          i.i.j.m.m.m.m.Z.S.C.m.m.:.:.:.:.E , , 8.m.M.S.S.#   6 :.:.i.i.8         L.L.L.L.L.L.L.L.L.L.L.L.L.L.L.",
"L.L.L.L.L.L.L.L.L.L.      +.+.0.i.i.i.i.k.m.m.m.m.m.m.m.m.m.m.m.B.m.m.m.m.m.m.j.i.i.+.+.1     L.L.L.L.L.L.L.L.L.L.L.L.L.L.L.L.L.",
"L.L.L.L.L.L.L.L.L.L.      +.+.0.i.i.i.i.b.m.m.m.m.m.m.m.m.m.m.m.m.m.m.m.m.m.m.j.i.i.+.+.1     L.L.L.L.L.L.L.L.L.L.L.L.L.L.L.L.L.",
"L.L.L.L.L.L.L.L.L.L.      +.+.f.D.z._ _ 2.3.7.q.q.h.h.h.h.h.h.h.i.q.i.h.h.h.h.t._ _ ! ! <     L.L.L.L.L.L.L.L.L.L.L.L.L.L.L.L.L.",
"L.L.L.L.L.L.L.L.L.L.      +.+.F.K.D.A A A A G +.+.i.i.i.i.i.i.i.-.+.4.i.i.i.i.2.A A A A :     L.L.L.L.L.L.L.L.L.L.L.L.L.L.L.L.L.",
"L.L.L.L.L.L.L.L.L.L.      &.&.A.H.A.S S S S I &.&.e.e.i.i.i.i.i.4.%.4.i.i.r.r.2.S S S S < o o L.L.L.L.L.L.L.L.L.L.L.L.L.L.L.L.L.",
"L.L.L.L.L.L.L.L.L.L.      :.:.:.:.:.:.:.:.:.:.:.:.+.=.6.i.i.i.i.i.i.i.i.i.>.:.:.:.:.:.:.C i r     L.L.L.L.L.L.L.L.L.L.L.L.L.L.L.",
"L.L.L.L.L.L.L.L.L.L.      :.:.:.:.:.:.:.:.:.:.:.:.+.+.6.i.i.i.i.i.i.i.i.i.>.:.:.:.:.:.:.C i r     L.L.L.L.L.L.L.L.L.L.L.L.L.L.L.",
"L.L.L.L.L.L.L.L.L.L.      H H W :.:.:.:.:.:.:.:.:.F F / 4.-.-.-.-.4.=.I I Q :.:.:.:.:.:.W T U     L.L.L.L.L.L.L.L.L.L.L.L.L.L.L.",
"L.L.L.L.L.L.L.L.L.L.      A A R :.:.:.:.:.:.:.:.:.A A ! +.+.+.+.+.+./ A A Q :.:.:.:.:.:.:.:.Y     L.L.L.L.L.L.L.L.L.L.L.L.L.L.L.",
"L.L.L.L.L.L.L.L.L.L.      j j D T E W W W W W W W V V k M M ^ ^ ^ ^ P A A W W W W W W W E T Z     L.L.L.L.L.L.L.L.L.L.L.L.L.L.L.",
"L.L.L.L.L.L.L.L.L.L.      , , e i p A A A A A A A i i ;   o i i i i p A A A A A A A A A h i r     L.L.L.L.L.L.L.L.L.L.L.L.L.L.L.",
"L.L.L.L.L.L.L.L.L.L.      , , e i p A A A A A A A i i ;   o i i i i p A A A A A A A A A p i r     L.L.L.L.L.L.L.L.L.L.L.L.L.L.L.",
"L.L.L.L.L.L.L.L.L.L.L.L.L.. . X o o O O O O O O O o o X L.L.o o o o X O O O O O O O O O O O O L.L.L.L.L.L.L.L.L.L.L.L.L.L.L.L.L.",
"L.L.L.L.L.L.L.L.L.L.L.L.L.                              L.L.                                  L.L.L.L.L.L.L.L.L.L.L.L.L.L.L.L.L.",
"L.L.L.L.L.L.L.L.L.L.L.L.L.                            L.L.L.                                L.L.L.L.L.L.L.L.L.L.L.L.L.L.L.L.L.L.",
"L.L.L.L.L.L.L.L.L.L.L.L.L.L.L.L.L.L.L.L.L.L.L.L.L.L.L.L.L.L.L.L.L.L.L.L.L.L.L.L.L.L.L.L.L.L.L.L.L.L.L.L.L.L.L.L.L.L.L.L.L.L.L.L.",
"L.L.L.L.L.L.L.L.L.L.L.L.L.L.L.L.L.L.L.L.L.L.L.L.L.L.L.L.L.L.L.L.L.L.L.L.L.L.L.L.L.L.L.L.L.L.L.L.L.L.L.L.L.L.L.L.L.L.L.L.L.L.L.L.",
"L.L.L.L.L.L.L.L.L.L.L.L.L.L.L.L.L.L.L.L.L.L.L.L.L.L.L.L.L.L.L.L.L.L.L.L.L.L.L.L.L.L.L.L.L.L.L.L.L.L.L.L.L.L.L.L.L.L.L.L.L.L.L.L.",
"L.L.L.L.L.L.L.L.L.L.L.L.L.L.L.L.L.L.L.L.L.L.L.L.L.L.L.L.L.L.L.L.L.L.L.L.L.L.L.L.L.L.L.L.L.L.L.L.L.L.L.L.L.L.L.L.L.L.L.L.L.L.L.L.",
"L.L.L.L.L.L.L.L.L.L.L.L.L.L.L.L.L.L.L.L.L.L.L.L.L.L.L.L.L.L.L.L.L.L.L.L.L.L.L.L.L.L.L.L.L.L.L.L.L.L.L.L.L.L.L.L.L.L.L.L.L.L.L.L.",
"L.L.L.L.L.L.L.L.L.L.L.L.L.L.L.L.L.L.L.L.L.L.L.L.L.L.L.L.L.L.L.L.L.L.L.L.L.L.L.L.L.L.L.L.L.L.L.L.L.L.L.L.L.L.L.L.L.L.L.L.L.L.L.L.",
"L.L.L.L.L.L.L.L.L.L.L.L.L.L.L.L.L.L.L.L.L.L.L.L.L.L.L.L.L.L.L.L.L.L.L.L.L.L.L.L.L.L.L.L.L.L.L.L.L.L.L.L.L.L.L.L.L.L.L.L.L.L.L.L.",
"L.L.L.L.L.L.L.L.L.L.L.L.L.L.L.L.L.L.L.L.L.L.L.L.L.L.L.L.L.L.L.L.L.L.L.L.L.L.L.L.L.L.L.L.L.L.L.L.L.L.L.L.L.L.L.L.L.L.L.L.L.L.L.L."
};
