/* XPM */
static char *result[] = {
/* columns rows colors chars-per-pixel */
"64 64 235 2 ",
"   c black",
".  c #0C0202",
"X  c #0D0407",
"o  c #130004",
"O  c #160005",
"+  c #16080B",
"@  c #1C090E",
"#  c #1D0B11",
"$  c #1F0E14",
"%  c #1F1016",
"&  c #1F1219",
"*  c #260606",
"=  c #2D080E",
"-  c #32000C",
";  c #3C060B",
":  c #310808",
">  c #3E0A0A",
",  c #310012",
"<  c #350014",
"1  c #44000F",
"2  c #4A0C0C",
"3  c #500D0E",
"4  c #430C15",
"5  c #440C15",
"6  c #490919",
"7  c #540013",
"8  c #5A0014",
"9  c #5A101C",
"0  c #6E0E13",
"q  c #63001F",
"w  c #770C16",
"e  c #710019",
"r  c #631010",
"t  c #6D1215",
"y  c #5C1220",
"u  c #5D1220",
"i  c #531B2B",
"p  c #6B0029",
"a  c #6E012C",
"s  c #700327",
"d  c #7D0029",
"f  c #711424",
"g  c #76192B",
"h  c #760936",
"j  c #780738",
"k  c #7B0B3C",
"l  c #6E1E30",
"z  c #6E1F31",
"x  c #5C2A3E",
"c  c #6F2439",
"v  c #782131",
"b  c #82161F",
"n  c #83042C",
"m  c #8E0A29",
"M  c #9E0024",
"N  c #900C2C",
"B  c #811E28",
"V  c #821E29",
"C  c #88182B",
"Z  c #94102A",
"A  c #961A29",
"S  c #860033",
"D  c #8C1D31",
"F  c #9D133C",
"G  c #B50029",
"H  c #B9002E",
"J  c #A1003D",
"K  c #AA0639",
"L  c #AB0639",
"P  c #AB0A3C",
"I  c #BD0033",
"U  c #B90C34",
"Y  c #B51433",
"T  c #BF123B",
"R  c #BD1C3E",
"E  c #882835",
"W  c #922239",
"Q  c #B52039",
"!  c #C10038",
"~  c #C5003D",
"^  c #800C42",
"/  c #B90442",
"(  c #8B2E47",
")  c #9F2F4B",
"_  c #9D3247",
"`  c #883A55",
"'  c #973E5A",
"]  c #A02C41",
"[  c #BA2540",
"{  c #BF2A47",
"}  c #BE2E4A",
"|  c #B5334F",
" . c #B0344E",
".. c #BE304D",
"X. c #A73756",
"o. c #A53B5A",
"O. c #C70640",
"+. c #C40546",
"@. c #CA0043",
"#. c #C70942",
"$. c #CE0048",
"%. c #CE0749",
"&. c #D2014E",
"*. c #D0094C",
"=. c #C41B44",
"-. c #C51C48",
";. c #D60052",
":. c #DB0358",
">. c #DB0958",
",. c #C9244E",
"<. c #C42F4F",
"1. c #CF2E57",
"2. c #C33352",
"3. c #C73257",
"4. c #C33555",
"5. c #C63454",
"6. c #CE395D",
"7. c #CD3C5E",
"8. c #E30761",
"9. c #E50965",
"0. c #E60964",
"q. c #ED126D",
"w. c #EF0F71",
"e. c #E81970",
"r. c #F51277",
"t. c #F61579",
"y. c #FA157E",
"u. c #C92963",
"i. c #CE3E62",
"p. c #D43E64",
"a. c #9D4054",
"s. c #A34358",
"d. c #9A4667",
"f. c #BF4C6D",
"g. c #B9547C",
"h. c #9D6869",
"j. c #C74162",
"k. c #CB4164",
"l. c #C04D6D",
"z. c #CF486D",
"x. c #D24166",
"c. c #D7466D",
"v. c #D9446C",
"b. c #DE4677",
"n. c #DE4973",
"m. c #C45678",
"M. c #D15077",
"N. c #D3537B",
"B. c #DE537D",
"V. c #E14E79",
"C. c #E4537F",
"Z. c #FF1884",
"A. c #FF3494",
"S. c #BB5B82",
"D. c #B85C84",
"F. c #BF6E95",
"G. c #BD6D98",
"H. c #BF77A2",
"J. c #BF7AA7",
"K. c #D25980",
"L. c #E25481",
"P. c #E75586",
"I. c #E75886",
"U. c #E65B88",
"Y. c #E65F8D",
"T. c #E95C8B",
"R. c #DB6690",
"E. c #E36290",
"W. c #ED6292",
"Q. c #EE6292",
"!. c #EF6395",
"~. c #E16D9B",
"^. c #E96998",
"/. c #EA6A9B",
"(. c #EE6D9C",
"). c #F06798",
"_. c #F16798",
"`. c #F46C9F",
"'. c #EE709E",
"]. c #F66FA2",
"[. c #EF71A4",
"{. c #F771A5",
"}. c #F377A7",
"|. c #F873A7",
" X c #F476AC",
".X c #F875A9",
"XX c #F979AD",
"oX c #FA7BAF",
"OX c #FF6DB2",
"+X c #F37CB0",
"@X c #FA7DB1",
"#X c #F97DB3",
"$X c #F380B6",
"%X c #FB81B5",
"&X c #FA83BA",
"*X c #FC85B9",
"=X c #FC86BA",
"-X c #FB87BE",
";X c #FB89BC",
":X c #F989BE",
">X c #F78CC3",
",X c #FB89C1",
"<X c #FA8AC2",
"1X c #FC8FC3",
"2X c #FE8EC2",
"3X c #F98EC6",
"4X c #FC8CC5",
"5X c #FC8DC6",
"6X c #FC8FC8",
"7X c #FC8FC9",
"8X c #FF92C6",
"9X c #FC90C9",
"0X c #FE91C8",
"qX c #FF94C9",
"wX c #FC93CC",
"eX c #FC93CD",
"rX c #FF96CC",
"tX c #FF98CF",
"yX c #FB97D1",
"uX c #FD96D0",
"iX c #FD99D3",
"pX c #FF9AD2",
"aX c #FE9AD3",
"sX c #FE99D4",
"dX c #FF9CD5",
"fX c #FE9CD7",
"gX c #FF9DD7",
"hX c #FF9ED8",
"jX c #FE9FDA",
"kX c #FF9FDA",
"lX c #FFA0DB",
"zX c #FFA1DD",
"xX c #FFA2DE",
"cX c #FFFBFF",
"vX c None",
/* pixels */
"vXvXvXvXvXvXvXvXvXvXvXvXvXvXvXvXvXvXvXvXvXvXvXvXvXvXvXvXvXvXvXvXvXvXvXvXvXvXvXvXvXvXvXvXvXvXvXvXvXvXvXvXvXvXvXvXvXvXvXvXvXvXvXvX",
"vXvXvXvXvXvXvXvXvXvXvXvXvXvXvXvXvXvXvXvXvXvXvXvXvXvXvXvXvXvXvXvXvXvXvXvXvXvXvXvXvXvXvXvXvXvXvXvXvXvXvXvXvXvXvXvXvXvXvXvXvXvXvXvX",
"vXvXvXvXvXvXvXvXvXvXvXvXvXvXvXvXvXvXvXvXvXvXvXvXvXvXvXvXvXvXvXvXvXvXvXvXvXvXvXvXvXvXvXvXvXvXvXvXvXvXvXvXvXvXvXvXvXvXvXvXvXvXvXvX",
"vXvXvXvXvXvXvXvXvXvXvXvXvXvXvXvXvXvXvXvXvXvXvXvXvXvXvXvXvXvXvXvXvXvXvXvXvXvXvXvXvXvXvXvXvXvXvXvXvXvXvXvXvXvXvXvXvXvXvXvXvXvXvXvX",
"vXvXvXvXvXvXvXvXvXvXvXvXvXvXvXvXvXvXvXvXvXvXvXvXvXvXvXvXvXvXvXvXvXvXvXvXvXvXvXvXvXvXvXvXvXvXvXvXvXvXvXvXvXvXvXvXvXvXvXvXvXvXvXvX",
"vXvXvXvXvXvXvXvXvXvXvXvXvXvXvXvXvXvXvXvXvXvXvXvXvXvXvXvXvXvXvXvXvXvXvXvXvXvXvXvXvXvXvXvXvXvXvXvXvXvXvXvXvXvXvXvXvXvXvXvXvXvXvXvX",
"vXvXvXvXvXvXvXvXvXvXvXvXvXvXvXvXvXvXvXvXvXvXvXvXvXvXvXvXvXvXvXvXvXvXvXvXvXvXvXvXvXvXvXvXvXvXvXvXvXvXvXvXvXvXvXvXvXvXvXvXvXvXvXvX",
"vXvXvXvXvXvXvXvXvXvXvXvXvXvXvXvXvXvXvXvXvXvXvXvXvXvXvXvXvXvXvXvXvXvXvXvXvXvXvXvXvXvXvXvXvXvXvXvXvXvXvXvXvXvXvXvXvXvXvXvXvXvXvXvX",
"vXvXvXvXvXvXvXvXvXvXvXvXvXvXvXvXvXvXvXvXvX                        vXvXvX                        vXvXvXvXvXvXvXvXvXvXvXvXvXvXvXvX",
"vXvXvXvXvXvXvXvXvXvXvXvXvXvXvXvXvXvXvXvXvX                        vXvXvX                        vXvXvXvXvXvXvXvXvXvXvXvXvXvXvXvX",
"vXvXvXvXvXvXvXvXvXvXvXvXvXvXvXvXvX        7 8 q p a ^ ^ ^ ^ h 8 8 o   - 8 8 p p j ^ k 8 8 ; : *     vXvXvXvXvXvXvXvXvXvXvXvXvXvX",
"vXvXvXvXvXvXvXvXvXvXvXvXvXvXvXvX          M G ~ ;.:.Z.Z.Z.Z.q.G G O   1 G G ;.;.w.Z.t.G G w r >     vXvXvXvXvXvXvXvXvXvXvXvXvXvX",
"vXvXvXvXvXvXvXvXvXvXvXvXvXvXvXvX          M G ~ ;.:.Z.Z.Z.Z.q.G G O   1 G G ;.;.w.Z.t.G G w r >     vXvXvXvXvXvXvXvXvXvXvXvXvXvX",
"vXvXvXvXvXvXvXvXvXvXvXvXvXvX    2 r h.cXcXA.Z.Z.Z.y.;.;.! G G G G 0 r r r r r r L ;.:.Z.Z.O.G e     vXvXvXvXvXvXvXvXvXvXvXvXvXvX",
"vXvXvXvXvXvXvXvXvXvXvXvXvXvX    2 r h.cXcXA.Z.Z.Z.y.;.;.! G G G G 0 r r r r r r L ;.:.Z.Z.O.G e     vXvXvXvXvXvXvXvXvXvXvXvXvXvX",
"vXvXvXvXvXvXvXvXvXvXvXvXvXvX    n K u.OXOXe.0.>.*.%.! ! U Y R 1.1.|  . . . .A A Z m N F F +.@.d     vXvXvXvXvXvXvXvXvXvXvXvXvXvX",
"vXvXvXvXvXvXvXvXvXvXvXvXvXvX    J ;.9.Z.Z.:.;.~ G G G G Y Q { n.n.n.n.n.n.n.Q Q b r r r r / ;.S     vXvXvXvXvXvXvXvXvXvXvXvXvXvX",
"vXvXvXvXvXvXvXvXvXvXvXvXvXvX    J ;.8.r.r.&.$.#.T T -.-.3.j.z.Y.Y.Y.Y.Y.Y.Y.j.j._ E E B B P / s     vXvXvXvXvXvXvXvXvXvXvXvXvXvX",
"vXvXvXvXvXvXvXvXvXvXvXvXvXvX    J ;.;.;.;.H G ,.n.V.{.{.6XxXxXxXxXxXxXxXxXxXxXxX&X{.`.n.n.V r >     vXvXvXvXvXvXvXvXvXvXvXvXvXvX",
"vXvXvXvXvXvXvXvXvXvXvXvXvXvX    J ;.;.;.;.H G ,.n.V.{.{.6XxXxXxXxXxXxXxXxXxXxXxX&X{.`.n.n.V r >     vXvXvXvXvXvXvXvXvXvXvXvXvXvX",
"vXvXvXvXvXvXvXvXvXvXvXvXvXvXvXvX, < q I I b.P.[.>X3XuXuXjXxXxXxXxXxXxXxXxXxXxXxXiXuXeX>X>XR.K.`         vXvXvXvXvXvXvXvXvXvXvXvX",
"vXvXvXvXvXvXvXvXvXvXvXvXvXvXvXvX    1 G G !.{.,XxXxXxXxXxXxXxXxXxXxXxXxXxXxXxXxXxXxXxXxXxX#X{.d.          vXvXvXvXvXvXvXvXvXvXvX",
"vXvXvXvXvXvXvXvXvXvXvXvXvXvXvXvX    6 =.=. X&XwXxXxXxXxXxXxXxXxXxXxXxXxXxXxXxXxXxXxXxXxXxX4X&XD.i i X     vXvXvXvXvXvXvXvXvXvXvX",
"vXvXvXvXvXvXvXvXvXvXvXvXvXvXvXvX    i n.n.yXxXxXxXxXxXxXxXxXxXxXxXxXxXxXxXxXxXxXxXxXxXxXxXxXxX$Xn.n.@     vXvXvXvXvXvXvXvXvXvXvX",
"vXvXvXvXvXvXvXvXvXvXvXvXvXvXvXvX    i n.n.yXxXxXxXxXxXxXxXxXxXxXxXxXxXxXxXxXxXxXxXxXxXxXxXxXxX$Xn.n.@     vXvXvXvXvXvXvXvXvXvXvX",
"vXvXvXvXvXvXvXvXvXvXvXvXvXvX        x {.{.fXxXxXxXxXxXxXxXxXxXxXxXxXxXxXxXxXxXxXxXxXxXxXxXxXxX7X{.{.$         vXvXvXvXvXvXvXvXvX",
"vXvXvXvXvXvXvXvXvXvXvXvXvXvX        x {.{.fXxXxXxXxXxXxXxXxXxXxXxXxXxXxXxXxXxXxXxXxXxXxXxXxXxX7X{.{.$         vXvXvXvXvXvXvXvXvX",
"vXvXvXvXvXvXvXvXvXvXvXvXvXvX    5 9 ' ,X,XjXxXxXxXxXxXxXxXxXxXxXxXxXxXxXxXxXxXxXxXxXxXxXxXxXxXsX,X,Xz 9 =     vXvXvXvXvXvXvXvXvX",
"vXvXvXvXvXvXvXvXvXvXvXvXvXvX    C Q M.xXxXxXxXxXxXxXxXxXxXxXxXxXxXxXxXxXxXxXxXxXxXxXxXxXxXxXxXxXxXxX..Q 9     vXvXvXvXvXvXvXvXvX",
"vXvXvXvXvXvXvXvXvXvXvXvXvXvX    D [ N.xXxXxXxXxXxXxXxXxXxXxXxXxXxXxXxXxXxXxXxXxXxXxXxXxXxXxXxXxXxXxX4.[ u     vXvXvXvXvXvXvXvXvX",
"vXvXvXvXvXvXvXvXvXvXvXvXvXvX    X.n./.xXxXxXxXxXxXxXxXxXxXxXxXxXxXxXxXxXxXxXxXxXxXxXxXxXxXxXxXxXxXxXL.n.c     vXvXvXvXvXvXvXvXvX",
"vXvXvXvXvXvXvXvXvXvXvXvXvXvX    X.n./.xXxXxXxXxXxXxXxXxXxXxXxXxXxXxXxXxXxXxXxXxXxXxXxXxXxXxXxXxXxXxXL.n.c     vXvXvXvXvXvXvXvXvX",
"vXvXvXvXvXvXvXvXvXvXvXvXvXvX    X.n./.xXxXxXxXxXxXxXxXxXxXxXxXxXxXxXxXxXxXxXxXxXxXxXxXxXxXxXxXxXxXxXL.n.c     vXvXvXvXvXvXvXvXvX",
"vXvXvXvXvXvXvXvXvXvXvXvXvXvX    X.n./.xXxXxXxXxXxXxXxXxXxXxXxXxXxXxXxXxXxXxXxXxXxXxXxXxXxXxXxXxXxXxXL.n.c     vXvXvXvXvXvXvXvXvX",
"vXvXvXvXvXvXvXvXvXvXvXvXvXvX    ) p.E.xXxXxXxXxXxXxXxXxXxXxXxXxXxXxXxXxXxXxXxXxXxXxXxXxXxXxXxXxXxXxXL.n.c     vXvXvXvXvXvXvXvXvX",
"vXvXvXvXvXvXvXvXvXvXvXvXvXvX    C Q M.xXxXxXxXxXxXxXxXxXxXxXxXxXxXxXxXxXxXxXxXxXxXxXxXxXxXxXxXxXxXxXL.n.c     vXvXvXvXvXvXvXvXvX",
"vXvXvXvXvXvXvXvXvXvXvXvXvXvX    C Q M.xXxXxXxXxXxXxXxXxXxXxXxXxXxXxXxXxXxXxXxXxXxXxXxXxXxXxXxXxXxXxXL.n.c     vXvXvXvXvXvXvXvXvX",
"vXvXvXvXvXvXvXvXvXvXvXvXvXvX    3 t s.qXqXlXxXxXxXxXxXxXxXxXxXxXxXxXxXxXxXxXxXxXxXxXxXxXxXxXxXgXqXqX2.[ y     vXvXvXvXvXvXvXvXvX",
"vXvXvXvXvXvXvXvXvXvXvXvXvXvX    2 r a.8X8XlXxXxXxXxXxXxXxXxXxXxXxXxXxXxXxXxXxXxXxXxXxXxXxXxXxXdX8X8X} Q 9     vXvXvXvXvXvXvXvXvX",
"vXvXvXvXvXvXvXvXvXvXvXvXvXvX    v ] m.pXpXzXxXxXxXzXpXpXkXxXxXxXxXxXxXxXxXxXxXxXxXxXzXpXpXpXpX0X%X%Xl 9 =     vXvXvXvXvXvXvXvXvX",
"vXvXvXvXvXvXvXvXvXvXvXvXvXvX    X.n./.xXxXxXxXxXxXlX8X8XdXxXxXxXxXxXxXxXxXxXxXxXxXxXlX8X8X8X8X=X{.{.$         vXvXvXvXvXvXvXvXvX",
"vXvXvXvXvXvXvXvXvXvXvXvXvXvX    X.n./.xXxXxXxXxXxXlX8X8XdXxXxXxXxXxXxXxXxXxXxXxXxXxXlX8X8X8X8X=X{.{.$         vXvXvXvXvXvXvXvXvX",
"vXvXvXvXvXvXvXvXvXvXvXvXvXvX    g.{.&XxXxXxXxXxXxXfX{.{.*X8X8X8X8X8X8X8X8X8X8X8X8X8X2X{.{.{.{.W.n.n.@     vXvXvXvXvXvXvXvXvXvXvX",
"vXvXvXvXvXvXvXvXvXvXvXvXvXvX    g.{.&XxXxXxXxXxXxXfX{.{.*X8X8X8X8X8X8X8X8X8X8X8X8X8X2X{.{.{.{.W.n.n.@     vXvXvXvXvXvXvXvXvXvXvX",
"vXvXvXvXvXvXvXvXvXvXvXvXvXvX    G.9XuXxXxXxXxXxXxXfX{.{.XX@X@X@X@X@X@X@X@X@X@X@X@X@XoX{.{.{.{.`.Q.Q.#     vXvXvXvXvXvXvXvXvXvXvX",
"vXvXvXvXvXvXvXvXvXvXvXvXvXvX    J.xXxXxXxXxXxXxXxXfX{.{.{.{.{.{.{.{.{.{.{.{.{.{.{.{.{.{.{.{.{.{.{.{.$     vXvXvXvXvXvXvXvXvXvXvX",
"vXvXvXvXvXvXvXvXvXvXvXvXvXvX    H.hXkXxXxXxXxXxXxXfX{.{.{.{.{.{.{.{.{.{.{.{.{.{.{.{.{.).).].{.|.XXXX%     vXvXvXvXvXvXvXvXvXvXvX",
"vXvXvXvXvXvXvXvXvXvXvXvXvXvX    F.8XtXxXxXxXxXxXxXfX{.{.{.{.{.{.{.{.{.{.{.{.{.{.{.{.`.n.n._.{.@X8X8X&     vXvXvXvXvXvXvXvXvXvXvX",
"vXvXvXvXvXvXvXvXvXvXvXvXvXvX    F.8XtXxXxXxXxXxXxXfX{.{.{.{.{.{.{.{.{.{.{.{.{.{.{.{.`.n.n._.{.@X8X8X&     vXvXvXvXvXvXvXvXvXvXvX",
"vXvXvXvXvXvXvXvXvXvXvXvXvXvX    S.XX-XxXxXxXxXdXrX1XC.C.x.5.7.C.C.C.C.C.C.C.5.5.c.C.C._._.<XuX5XXXXX$     vXvXvXvXvXvXvXvXvXvXvX",
"vXvXvXvXvXvXvXvXvXvXvXvXvXvX    g.{.&XxXxXxXxXpX8X;Xn.n.<.Q { n.n.n.n.n.n.n.Q Q 6.n.V.{.{.uXxX7X{.{.$     vXvXvXvXvXvXvXvXvXvXvX",
"vXvXvXvXvXvXvXvXvXvXvXvXvXvX    o.B.^.6X6XaXdX:X}.'.6.6.W f g ( ( ( ( ( ( ( A A k.I.T.@X@X+X$X~.l.l.+     vXvXvXvXvXvXvXvXvXvXvX",
"vXvXvXvXvXvXvXvXvXvXvXvXvXvX    C Q i.{.{.2X8X(.n.v.Q Q 4                   r r f.{..X8X8XU.n. .r r .     vXvXvXvXvXvXvXvXvXvXvX",
"vXvXvXvXvXvXvXvXvXvXvXvXvXvX    C Q i.{.{.2X8X(.n.v.Q Q 4                   r r f.{..X8X8XU.n. .r r .     vXvXvXvXvXvXvXvXvXvXvX",
"vXvXvXvXvXvXvXvXvXvXvXvXvXvXvXvX                        vXvXvXvXvXvXvXvX                            vXvXvXvXvXvXvXvXvXvXvXvXvXvX",
"vXvXvXvXvXvXvXvXvXvXvXvXvXvXvXvX                        vXvXvXvXvXvXvXvX                            vXvXvXvXvXvXvXvXvXvXvXvXvXvX",
"vXvXvXvXvXvXvXvXvXvXvXvXvXvXvXvXvX                      vXvXvXvXvXvXvXvX                            vXvXvXvXvXvXvXvXvXvXvXvXvXvX",
"vXvXvXvXvXvXvXvXvXvXvXvXvXvXvXvXvXvXvXvXvXvXvXvXvXvXvXvXvXvXvXvXvXvXvXvXvXvXvXvXvXvXvXvXvXvXvXvXvXvXvXvXvXvXvXvXvXvXvXvXvXvXvXvX",
"vXvXvXvXvXvXvXvXvXvXvXvXvXvXvXvXvXvXvXvXvXvXvXvXvXvXvXvXvXvXvXvXvXvXvXvXvXvXvXvXvXvXvXvXvXvXvXvXvXvXvXvXvXvXvXvXvXvXvXvXvXvXvXvX",
"vXvXvXvXvXvXvXvXvXvXvXvXvXvXvXvXvXvXvXvXvXvXvXvXvXvXvXvXvXvXvXvXvXvXvXvXvXvXvXvXvXvXvXvXvXvXvXvXvXvXvXvXvXvXvXvXvXvXvXvXvXvXvXvX",
"vXvXvXvXvXvXvXvXvXvXvXvXvXvXvXvXvXvXvXvXvXvXvXvXvXvXvXvXvXvXvXvXvXvXvXvXvXvXvXvXvXvXvXvXvXvXvXvXvXvXvXvXvXvXvXvXvXvXvXvXvXvXvXvX",
"vXvXvXvXvXvXvXvXvXvXvXvXvXvXvXvXvXvXvXvXvXvXvXvXvXvXvXvXvXvXvXvXvXvXvXvXvXvXvXvXvXvXvXvXvXvXvXvXvXvXvXvXvXvXvXvXvXvXvXvXvXvXvXvX",
"vXvXvXvXvXvXvXvXvXvXvXvXvXvXvXvXvXvXvXvXvXvXvXvXvXvXvXvXvXvXvXvXvXvXvXvXvXvXvXvXvXvXvXvXvXvXvXvXvXvXvXvXvXvXvXvXvXvXvXvXvXvXvXvX",
"vXvXvXvXvXvXvXvXvXvXvXvXvXvXvXvXvXvXvXvXvXvXvXvXvXvXvXvXvXvXvXvXvXvXvXvXvXvXvXvXvXvXvXvXvXvXvXvXvXvXvXvXvXvXvXvXvXvXvXvXvXvXvXvX"
};
