/* XPM */
static char *result[] = {
/* columns rows colors chars-per-pixel */
"64 64 213 2 ",
"   c black",
".  c #0D0407",
"X  c #160407",
"o  c #180404",
"O  c #1A000A",
"+  c #1B090E",
"@  c #1C090E",
"#  c #1D0B11",
"$  c #1F0E14",
"%  c #250606",
"&  c #28070B",
"*  c #28000F",
"=  c #2D080E",
"-  c #33040E",
";  c #310808",
":  c #2A0D15",
">  c #290E15",
",  c #2A0E15",
"<  c #290D16",
"1  c #2F0E16",
"2  c #350014",
"3  c #330910",
"4  c #2E151F",
"5  c #37121C",
"6  c #37121D",
"7  c #3E1C29",
"8  c #400610",
"9  c #430C15",
"0  c #50001E",
"q  c #47111C",
"w  c #5A101C",
"e  c #710E18",
"r  c #631010",
"t  c #77141A",
"y  c #451724",
"u  c #561721",
"i  c #531B2B",
"p  c #6B0029",
"a  c #601D29",
"s  c #711423",
"d  c #7B0131",
"f  c #4D2333",
"g  c #5C2A3D",
"h  c #5C2A3E",
"j  c #6F2439",
"k  c #672A3F",
"l  c #5E3144",
"z  c #5E3448",
"x  c #60374A",
"c  c #7A3953",
"v  c #800C20",
"b  c #8E0A29",
"n  c #87182B",
"m  c #811E28",
"M  c #821E29",
"N  c #B50029",
"B  c #A01C2F",
"V  c #882835",
"C  c #902A3D",
"Z  c #B52039",
"A  c #C10038",
"S  c #8B2E47",
"D  c #982C46",
"F  c #9A3045",
"G  c #9B3447",
"H  c #903F45",
"J  c #863B57",
"K  c #913754",
"L  c #BD2A46",
"P  c #BF2A47",
"I  c #BE2E4A",
"U  c #A73756",
"Y  c #BF3B5A",
"T  c #BF1263",
"R  c #BD1562",
"E  c #C90042",
"W  c #CA0042",
"Q  c #C51C48",
"!  c #D60052",
"~  c #D80155",
"^  c #DB0358",
"/  c #CE1C52",
"(  c #D8125A",
")  c #E1065E",
"_  c #CE2A57",
"`  c #D0255A",
"'  c #C63454",
"]  c #DB1760",
"[  c #DE1C66",
"{  c #DB1F68",
"}  c #EA0C6A",
"|  c #EA0C6B",
" . c #E31F6D",
".. c #EF0F71",
"X. c #F51277",
"o. c #F51278",
"O. c #F8137B",
"+. c #FA157D",
"@. c #FA157E",
"#. c #D13763",
"$. c #E02875",
"%. c #E52E79",
"&. c #E5377E",
"*. c #8A4B4B",
"=. c #9D465D",
"-. c #984463",
";. c #9A4666",
":. c #A44A6C",
">. c #B04669",
",. c #BC4D72",
"<. c #B65075",
"1. c #BF5475",
"2. c #B9557B",
"3. c #B9557C",
"4. c #B1647B",
"5. c #D7406F",
"6. c #DA406F",
"7. c #D6486F",
"8. c #C84F76",
"9. c #DE4677",
"0. c #DE4973",
"q. c #DB5078",
"w. c #DB517A",
"e. c #DE537D",
"r. c #E4537F",
"t. c #FD1681",
"y. c #FB1E82",
"u. c #FF1884",
"i. c #EF2B80",
"p. c #FD2E8C",
"a. c #E53D81",
"s. c #F73691",
"d. c #FE3797",
"f. c #FF3A9A",
"g. c #EA498C",
"h. c #E35784",
"j. c #E75885",
"k. c #E65B88",
"l. c #E35C8B",
"z. c #EA5D8C",
"x. c #FF439B",
"c. c #CF6790",
"v. c #C46B91",
"b. c #D86390",
"n. c #D66B98",
"m. c #E36291",
"M. c #E66797",
"N. c #ED6292",
"B. c #EA6492",
"V. c #EA6A9B",
"C. c #F06798",
"Z. c #F46C9F",
"A. c #FD4FA5",
"S. c #FF4CA6",
"D. c #FF51A3",
"F. c #D87DAA",
"G. c #F267A6",
"H. c #F56FA2",
"J. c #EE75A8",
"K. c #F771A5",
"L. c #F374A6",
"P. c #F574A6",
"I. c #F776A9",
"U. c #F875A9",
"Y. c #F877AC",
"T. c #F979AD",
"R. c #F27EB3",
"E. c #FA7DB1",
"W. c #F97DB3",
"Q. c #F280B6",
"!. c #FB81B5",
"~. c #F981B7",
"^. c #FA80B8",
"/. c #FA83BA",
"(. c #FC85B9",
"). c #FC86BA",
"_. c #FB89BB",
"`. c #FD89BD",
"'. c #EF9DBE",
"]. c #F78CC3",
"[. c #FB89C1",
"{. c #FF89C1",
"}. c #FC8AC0",
"|. c #FE8EC2",
" X c #FE8FC5",
".X c #EF99C3",
"XX c #FF92C6",
"oX c #FE94CB",
"OX c #FF95CB",
"+X c #FF93CC",
"@X c #FF96CC",
"#X c #FD95CF",
"$X c #FF98CF",
"%X c #FB97D1",
"&X c #FF9AD2",
"*X c #FD99D4",
"=X c #FF9CD5",
"-X c #FE9CD7",
";X c #FF9DD7",
":X c #FF9ED8",
">X c #FE9FDA",
",X c #FF9FDA",
"<X c #FFA0DB",
"1X c #FFA1DD",
"2X c #FFA2DE",
"3X c #FFB3E4",
"4X c #FFB8E6",
"5X c #D8C0C3",
"6X c #ECC4CE",
"7X c #FFC2E0",
"8X c #FFD9F3",
"9X c #FFFBFF",
"0X c None",
/* pixels */
"0X0X0X0X0X0X0X0X0X0X0X0X0X0X0X0X0X0X0X0X0X0X0X0X0X0X0X0X0X0X0X0X0X0X0X0X0X0X0X0X0X0X0X0X0X0X0X0X0X0X0X0X0X0X0X0X0X0X0X0X0X0X0X0X",
"0X0X0X0X0X0X0X0X0X0X0X0X0X0X0X0X0X0X0X0X0X0X0X0X0X0X0X0X0X0X0X0X0X0X0X0X0X0X0X0X0X0X0X0X0X0X0X0X0X0X0X0X0X0X0X0X0X0X0X0X0X0X0X0X",
"0X0X0X0X0X0X0X0X0X0X0X0X0X0X0X0X0X0X0X0X0X0X0X0X0X0X0X0X0X0X0X0X0X0X0X0X0X0X0X0X0X0X0X0X0X0X0X0X0X0X0X0X0X0X0X0X0X0X0X0X0X0X0X0X",
"0X0X0X0X0X0X0X0X0X0X0X0X0X0X0X0X0X0X0X0X0X0X0X0X0X0X0X0X0X0X0X0X0X0X0X0X0X0X0X0X0X0X0X0X0X0X0X0X0X0X0X0X0X0X0X0X0X0X0X0X0X0X0X0X",
"0X0X0X0X0X0X0X0X0X0X0X0X0X0X0X0X0X0X0X0X0X0X0X0X0X0X0X0X0X0X0X0X0X0X0X0X0X0X0X0X0X0X0X0X0X0X0X0X0X0X0X0X0X0X0X0X0X0X0X0X0X0X0X0X",
"0X0X0X0X0X0X0X0X0X0X0X0X0X0X0X0X0X0X0X0X0X0X0X0X0X0X0X0X0X0X0X0X0X0X0X0X0X0X0X0X0X0X0X0X0X0X0X0X0X0X0X0X0X0X0X0X0X0X0X0X0X0X0X0X",
"0X0X0X0X0X0X0X0X0X0X0X0X0X0X0X0X0X0X0X0X0X0X0X0X0X0X0X0X0X0X0X0X0X0X0X0X0X0X0X0X0X0X0X0X0X0X0X0X0X0X0X0X0X0X0X0X0X0X0X0X0X0X0X0X",
"0X0X0X0X0X0X0X0X0X0X0X0X0X0X0X0X0X0X0X0X0X0X0X0X0X0X0X0X0X0X0X0X0X0X0X0X0X0X0X0X0X0X0X0X0X0X0X0X0X0X0X0X0X0X0X0X0X0X0X0X0X0X0X0X",
"0X0X0X0X0X0X0X0X0X0X0X0X0X0X0X0X0X0X0X0X0X0X0X0X0X0X0X0X0X0X0X0X0X0X0X0X0X0X0X0X0X0X0X0X0X0X0X0X0X0X0X0X0X0X0X0X0X0X0X0X0X0X0X0X",
"0X0X0X0X0X0X0X0X0X0X0X0X0X0X0X0X0X0X0X0X0X0X0X0X0X0X0X0X0X0X0X0X0X0X0X0X0X0X0X0X0X0X0X0X0X0X0X0X0X0X0X0X0X0X0X0X0X0X0X0X0X0X0X0X",
"0X0X0X0X0X0X0X0X0X0X0X0X0X0X0X0X0X0X0X0X0X0X0X0X0X0X0X0X0X0X0X0X0X0X0X0X0X0X0X0X0X0X0X0X0X0X0X0X0X0X0X0X0X0X0X0X0X0X0X0X0X0X0X0X",
"0X0X0X0X0X0X0X0X0X0X0X0X0X0X0X0X0X0X0X0X0X0X0X0X0X0X0X0X0X0X0X0X0X0X0X0X0X0X0X0X0X0X0X0X0X0X0X0X0X0X0X0X0X0X0X0X0X0X0X0X0X0X0X0X",
"0X0X0X0X0X0X0X0X0X0X0X0X0X0X0X0X0X0X0X0X0X0X0X0X0X0X0X0X0X0X0X0X0X0X0X0X0X0X0X0X0X0X0X0X0X0X0X0X0X0X0X0X0X0X0X0X0X0X0X0X0X0X0X0X",
"0X0X0X0X0X0X0X0X0X0X0X0X0X0X0X0X0X0X0X0X0X0X0X0X0X0X0X0X0X0X0X0X0X0X0X0X0X0X0X0X0X0X0X0X0X0X0X0X0X0X0X0X0X0X0X0X0X0X0X0X0X0X0X0X",
"0X0X0X0X0X0X0X0X0X0X0X0X0X0X0X0X0X0X0X0X0X0X0X0X0X0X0X0X0X0X0X0X0X0X0X0X0X0X0X0X0X0X0X0X0X0X0X0X0X0X0X0X0X0X0X0X0X0X0X0X0X0X0X0X",
"0X0X0X0X0X0X0X0X0X0X0X0X0X0X0X0X0X0X0X0X0X0X0X0X                                  0X0X0X0X0X0X0X0X0X0X0X0X0X0X0X0X0X0X0X0X0X0X0X",
"0X0X0X0X0X0X0X0X0X0X0X0X0X0X0X0X0X0X0X0X0X0X0X0X                                  0X0X0X0X0X0X0X0X0X0X0X0X0X0X0X0X0X0X0X0X0X0X0X",
"0X0X0X0X0X0X0X0X0X0X0X0X0X0X0X0X0X0X0X0X0X0X0X0X    X = & o o 1 5 5 5 5 = = X     0X0X0X0X0X0X0X0X0X0X0X0X0X0X0X0X0X0X0X0X0X0X0X",
"0X0X0X0X0X0X0X0X0X0X0X0X0X0X0X0X0X0X0X              s Z B r r Y 0.0.0.0.Z Z w                                 0X0X0X0X0X0X0X0X0X",
"0X0X0X0X0X0X0X0X0X0X0X0X0X0X0X0X0X0X0X              s Z B r r Y 0.0.0.0.Z Z w                                 0X0X0X0X0X0X0X0X0X",
"0X0X0X0X0X0X0X0X0X0X0X0X0X0X0X0X0X        i U U 3.3.F t H 5X5X.X].c.M M 6X6Xn.T R U U :   , U U <.3.>.U U           0X0X0X0X0X0X",
"0X0X0X0X0X0X0X0X0X0X0X0X0X0X0X0X0X        j 0.0.K.K.G r *.9X9X4X2Xv.r r 9X9X{.u.y.0.0.5   6 0.0.Z.K.z.0.0.          0X0X0X0X0X0X",
"0X0X0X0X0X0X0X0X0X0X0X0X0X0X0X0X0X    f h :.V.V.N.N.1.=.4.8X8X3X2XF.=.=.8X8X+XS.A.V.V.J h c V.V.~./.L.B.B.i i +     0X0X0X0X0X0X",
"0X0X0X0X0X0X0X0X0X0X0X0X0X0X          b.K.[.2X2X0.0.Q.2X2X2X2X2X2X2X2X2X2X2X2X2X2X2X2XW.K.W.2X2X2X2X&XXXXX0.0.i     0X0X0X0X0X0X",
"0X0X0X0X0X0X0X0X0X0X0X0X0X0X          b.K.[.2X2X0.0.Q.2X2X2X2X2X2X2X2X2X2X2X2X2X2X2X2XW.K.W.2X2X2X2X&XXXXX0.0.i     0X0X0X0X0X0X",
"0X0X0X0X0X0X0X                  6 0.0.%X2X2X2X2X2X2X$XXXXXXXXXXXXX$X2X2X2X2X2X2X2X2X2X2X2X2X2X2X2X2X2X2X2XK.K.g     0X0X0X0X0X0X",
"0X0X0X0X0X0X0X                  6 0.0.%X2X2X2X2X2X2X$XXXXXXXXXXXXX$X2X2X2X2X2X2X2X2X2X2X2X2X2X2X2X2X2X2X2XK.K.g     0X0X0X0X0X0X",
"0X0X0X0X0X        2 p p p p 8 ; a z.z.*X2X2X2X2X&X&XG.g.g.g.g.g.g.G.&X&X2X2X2X2X2X2X2X2X2X2X2X2X2X2X2X2X2X!.!.l     0X0X0X0X0X0X",
"0X0X0X0X0X        p ! ! ! ! v r V K.K.-X2X2X2X2XXXXX&.! ! ! ! ! ! &.XXXX2X2X2X2X2X2X2X2X2X2X2X2X2X2X2X2X2XXXXXx     0X0X0X0X0X0X",
"0X0X0X0X0X    O O d ^ ^ ^ ^ b e C Y.Y.-X2X1X<X<X^.^.%.^ ^ ^ ^ { { a.^.^.<X<X1X2X2X2X2X2X2X2X2X2X2X2X2X2X2X|.|.z     0X0X0X0X0X0X",
"0X0X0X0X0X    ! ! | u.u.u.u.) ! $.2X2X2X2X&XXXXX! ! ..u.u.u.u.7X9X'.! ! XXXX&X2X2X2X2X2X2X2X2X2X2X2X2X2X2XK.K.g     0X0X0X0X0X0X",
"0X0X0X0X0X    ! ! | u.u.u.u.) ! $.2X2X2X2X&XXXXX! ! ..u.u.u.u.7X9X'.! ! XXXX&X2X2X2X2X2X2X2X2X2X2X2X2X2X2XK.K.g     0X0X0X0X0X0X",
"0X0X0X0X0X    o.o.@.u.u.u.u.O.o.s.2X2X2X2X&XXXXX! ! ..u.u.u.u.x.D.i.! ! k.k.R.2X2X2X2X2X2X,X@X@X<X2X=X@X@X' ' q     0X0X0X0X0X0X",
"0X0X0X0X0X    u.u.u.u.u.u.u.u.u.f.2X2X2X2X&XXXXX! ! ..u.u.u.u.u.u...! ! 0.0.J.2X2X2X2X2X2X:XXXXX<X2X&XXXXXZ Z 9     0X0X0X0X0X0X",
"0X0X0X0X0X    X.X.+.u.u.u.u.u.u.d.#X#X>X2X&XXXXX! ! } X.X.X.X.t.u...! ! 0.0.J.2X2X2X2X2X2X:XXXXX;X:XoX`.`.n n 3     0X0X0X0X0X0X",
"0X0X0X0X0X    ! ! | u.u.u.u.u.u.p.K.K.-X2X&XXXXX! ! ! ! ! ! ! o.u...! ! 0.0.J.2X2X2X2X2X2X:XXXXXXXXX!.K.K.    0X0X0X0X0X0X0X0X0X",
"0X0X0X0X0X    ! ! | u.u.u.u.u.u.p.K.K.-X2X&XXXXX! ! ! ! ! ! ! o.u...! ! 0.0.J.2X2X2X2X2X2X:XXXXXXXXX!.K.K.    0X0X0X0X0X0X0X0X0X",
"0X0X0X0X0X    ! ! ~ ^ ^ ^ ^ ^ ^  .K.K.-X2X&XXXXX! ! ! ! ! ! ! ~ ^ ~ ! ! 0.0.J.2X2X2X2X2X2X:XXXXXT.U.q.L L     0X0X0X0X0X0X0X0X0X",
"0X0X0X0X0X    ! ! ! ! ! ! ! ! ! [ K.K.-X2X&XXXXX! ! ! ! ! ! ! ! ! ! ! ! 0.0.J.2X2X2X2X2X2X:XXXXXU.K.7.Z Z     0X0X0X0X0X0X0X0X0X",
"0X0X0X0X0X    ! ! ! ! ! ! ! ! ! ] z.z.*X2X&XXXXX! ! ! ! ! ! ! ! ! ! ! ! 0.0.J.2X2X2X2X2X2X:XXXXXw.7.D w w     0X0X0X0X0X0X0X0X0X",
"0X0X0X0X0X    ! ! ! ! ! ! ! ! ! ( 0.0.%X2X&XXXXX! ! ! ! ! ! ! ! ! ! ! ! 0.0.J.2X2X2X2X2X2X:XXXXXI Z w     0X0X0X0X0X0X0X0X0X0X0X",
"0X0X0X0X0X    ! ! ! ! ! ! ! ! ! ( 0.0.%X2X&XXXXX! ! ! ! ! ! ! ! ! ! ! ! 0.0.J.2X2X2X2X2X2X:XXXXXI Z w     0X0X0X0X0X0X0X0X0X0X0X",
"0X0X0X0X0X        p ! ! ! ! v r m 0.0._.XX&X2X2XN N E ! ! ! ! ! ! W N N K.K.[.2X<XXXXXXXXX`.K.K.$         0X0X0X0X0X0X0X0X0X0X0X",
"0X0X0X0X0X        p ! ! ! ! v r m 0.0._.XX&X2X2XN N E ! ! ! ! ! ! W N N K.K.[.2X<XXXXXXXXX`.K.K.$         0X0X0X0X0X0X0X0X0X0X0X",
"0X0X0X0X0X0X0X    * 0 0 0 0 - % u 0.0.I.E.}.$X$Xl.l.` A A A A A A / 9.9.).). X$XOXE.E.E.E.P.j.j.#     0X0X0X0X0X0X0X0X0X0X0X0X0X",
"0X0X0X0X0X0X0X                  6 0.0.Z.K.!.XXXXXXXX#.N N N N N N _ K.K.XXXXXXXX|.K.K.K.K.C.0.0.@     0X0X0X0X0X0X0X0X0X0X0X0X0X",
"0X0X0X0X0X0X0X                  > U U M.K.E.`.`.`.`.5.Q Q Q Q Q Q 6.K.K.`.`.`.`.(.K.K.K.K.m.U U .     0X0X0X0X0X0X0X0X0X0X0X0X0X",
"0X0X0X0X0X0X0X0X0X0X0X0X0X0X          b.K.K.K.K.K.K.K.K.K.K.K.K.K.K.K.K.K.K.K.K.K.K.K.K.K.2.          0X0X0X0X0X0X0X0X0X0X0X0X0X",
"0X0X0X0X0X0X0X0X0X0X0X0X0X0X          b.K.K.K.K.K.K.K.K.K.K.K.K.K.K.K.K.K.K.K.K.K.K.K.K.K.2.          0X0X0X0X0X0X0X0X0X0X0X0X0X",
"0X0X0X0X0X0X0X0X0X0X0X0X0X0X0X0X0X    7 7 K r.r.K.K.K.K.K.K.K.K.K.K.K.K.K.K.K.K.H.r.r.k 7 4     0X0X0X0X0X0X0X0X0X0X0X0X0X0X0X0X",
"0X0X0X0X0X0X0X0X0X0X0X0X0X0X0X0X0X        j 0.0.K.K.K.K.K.K.K.K.K.K.K.K.K.K.K.K.Z.0.0.5         0X0X0X0X0X0X0X0X0X0X0X0X0X0X0X0X",
"0X0X0X0X0X0X0X0X0X0X0X0X0X0X0X0X0X        y S S ;.;.8.e.h.N.N.N.N.N.N.N.e.e.,.;.-.S S <         0X0X0X0X0X0X0X0X0X0X0X0X0X0X0X0X",
"0X0X0X0X0X0X0X0X0X0X0X0X0X0X0X0X0X0X0X              s Z P 0.0.0.0.0.0.0.Z Z w               0X0X0X0X0X0X0X0X0X0X0X0X0X0X0X0X0X0X",
"0X0X0X0X0X0X0X0X0X0X0X0X0X0X0X0X0X0X0X              s Z P 0.0.0.0.0.0.0.Z Z w               0X0X0X0X0X0X0X0X0X0X0X0X0X0X0X0X0X0X",
"0X0X0X0X0X0X0X0X0X0X0X0X0X0X0X0X0X0X0X0X0X0X0X0X                                  0X0X0X0X0X0X0X0X0X0X0X0X0X0X0X0X0X0X0X0X0X0X0X",
"0X0X0X0X0X0X0X0X0X0X0X0X0X0X0X0X0X0X0X0X0X0X0X0X                                  0X0X0X0X0X0X0X0X0X0X0X0X0X0X0X0X0X0X0X0X0X0X0X",
"0X0X0X0X0X0X0X0X0X0X0X0X0X0X0X0X0X0X0X0X0X0X0X0X                                0X0X0X0X0X0X0X0X0X0X0X0X0X0X0X0X0X0X0X0X0X0X0X0X",
"0X0X0X0X0X0X0X0X0X0X0X0X0X0X0X0X0X0X0X0X0X0X0X0X0X0X0X0X0X0X0X0X0X0X0X0X0X0X0X0X0X0X0X0X0X0X0X0X0X0X0X0X0X0X0X0X0X0X0X0X0X0X0X0X",
"0X0X0X0X0X0X0X0X0X0X0X0X0X0X0X0X0X0X0X0X0X0X0X0X0X0X0X0X0X0X0X0X0X0X0X0X0X0X0X0X0X0X0X0X0X0X0X0X0X0X0X0X0X0X0X0X0X0X0X0X0X0X0X0X",
"0X0X0X0X0X0X0X0X0X0X0X0X0X0X0X0X0X0X0X0X0X0X0X0X0X0X0X0X0X0X0X0X0X0X0X0X0X0X0X0X0X0X0X0X0X0X0X0X0X0X0X0X0X0X0X0X0X0X0X0X0X0X0X0X",
"0X0X0X0X0X0X0X0X0X0X0X0X0X0X0X0X0X0X0X0X0X0X0X0X0X0X0X0X0X0X0X0X0X0X0X0X0X0X0X0X0X0X0X0X0X0X0X0X0X0X0X0X0X0X0X0X0X0X0X0X0X0X0X0X",
"0X0X0X0X0X0X0X0X0X0X0X0X0X0X0X0X0X0X0X0X0X0X0X0X0X0X0X0X0X0X0X0X0X0X0X0X0X0X0X0X0X0X0X0X0X0X0X0X0X0X0X0X0X0X0X0X0X0X0X0X0X0X0X0X",
"0X0X0X0X0X0X0X0X0X0X0X0X0X0X0X0X0X0X0X0X0X0X0X0X0X0X0X0X0X0X0X0X0X0X0X0X0X0X0X0X0X0X0X0X0X0X0X0X0X0X0X0X0X0X0X0X0X0X0X0X0X0X0X0X",
"0X0X0X0X0X0X0X0X0X0X0X0X0X0X0X0X0X0X0X0X0X0X0X0X0X0X0X0X0X0X0X0X0X0X0X0X0X0X0X0X0X0X0X0X0X0X0X0X0X0X0X0X0X0X0X0X0X0X0X0X0X0X0X0X"
};
