/* XPM */
static char *result[] = {
/* columns rows colors chars-per-pixel */
"64 64 221 2 ",
"   c black",
".  c #090101",
"X  c #0C0202",
"o  c #0B0204",
"O  c #0F070A",
"+  c #110104",
"@  c #130007",
"#  c #160005",
"$  c #160407",
"%  c #170407",
"&  c #190007",
"*  c #1D0505",
"=  c #1A000A",
"-  c #1B000A",
";  c #1B090E",
":  c #1C090E",
">  c #1D0B11",
",  c #1F0E14",
"<  c #1F0E15",
"1  c #250606",
"2  c #22060A",
"3  c #2D080E",
"4  c #3E0A0A",
"5  c #2F0A11",
"6  c #340D12",
"7  c #320D15",
"8  c #341019",
"9  c #35121C",
"0  c #37121C",
"q  c #37121D",
"w  c #391520",
"e  c #3E1C29",
"r  c #333233",
"t  c #4A0C0C",
"y  c #440C15",
"u  c #4F0E18",
"i  c #5A0014",
"p  c #5A101C",
"a  c #6D0E13",
"s  c #780C16",
"d  c #631010",
"f  c #451724",
"g  c #531B2B",
"h  c #651A2B",
"j  c #711424",
"k  c #7C1627",
"l  c #720731",
"z  c #6A1F32",
"x  c #4D2333",
"c  c #562031",
"v  c #5C2A3D",
"b  c #5C2A3E",
"n  c #612032",
"m  c #6F2439",
"M  c #403F40",
"N  c #5B3F4A",
"B  c #82161F",
"V  c #87182B",
"C  c #860033",
"Z  c #9E1C31",
"A  c #B50029",
"S  c #BE0334",
"D  c #BF123B",
"F  c #912535",
"G  c #B52039",
"H  c #800C42",
"J  c #801A4A",
"K  c #AE0D4A",
"L  c #8B2D47",
"P  c #8B2D48",
"I  c #972740",
"U  c #A72D46",
"Y  c #BF2A48",
"T  c #BE304D",
"R  c #A73756",
"E  c #AA3C5C",
"W  c #CA0042",
"Q  c #CA0043",
"!  c #CE084C",
"~  c #D2004D",
"^  c #D0094C",
"/  c #C81546",
"(  c #D60052",
")  c #D50A51",
"_  c #C41558",
"`  c #CA145A",
"'  c #D0105A",
"]  c #E1065E",
"[  c #C42F4F",
"{  c #CE2A57",
"}  c #C93456",
"|  c #C33C5E",
" . c #CE395D",
".. c #CE395E",
"X. c #D81667",
"o. c #DD1568",
"O. c #E10960",
"+. c #E30F61",
"@. c #ED0F6F",
"#. c #E81067",
"$. c #EC126E",
"%. c #ED126E",
"&. c #EF0F71",
"*. c #EF0F72",
"=. c #F51278",
"-. c #FB167E",
";. c #CE3E62",
":. c #D43F64",
">. c #D43A68",
",. c #E2256A",
"<. c #984464",
"1. c #9A4667",
"2. c #A34768",
"3. c #B94366",
"4. c #B3577D",
"5. c #C24065",
"6. c #C5456B",
"7. c #D04267",
"8. c #D6446A",
"9. c #D9406A",
"0. c #DE4973",
"q. c #DA4C76",
"w. c #E14E79",
"e. c #E2507B",
"r. c #E2527D",
"t. c #E4537F",
"y. c #FF1884",
"u. c #FF3493",
"i. c #807D80",
"p. c #E45380",
"a. c #E25480",
"s. c #E75885",
"d. c #E75886",
"f. c #E75D8A",
"g. c #EA5D8C",
"h. c #FA4F99",
"j. c #D86390",
"k. c #D86391",
"l. c #E1608C",
"z. c #E9628F",
"x. c #E36792",
"c. c #E66490",
"v. c #E46592",
"b. c #ED6292",
"n. c #EE6292",
"m. c #EA6492",
"M. c #EA6796",
"N. c #EC6896",
"B. c #E66D99",
"V. c #EA6A9B",
"C. c #F06798",
"Z. c #F46C9E",
"A. c #F46C9F",
"S. c #D671A1",
"D. c #E371A0",
"F. c #ED76A3",
"G. c #EC75A7",
"H. c #F771A5",
"J. c #F572A5",
"K. c #F875A9",
"L. c #F877AB",
"P. c #F877AC",
"I. c #F27AAA",
"U. c #F07AAE",
"Y. c #F27AAE",
"T. c #F67CAD",
"R. c #FA7DB1",
"E. c #F97DB3",
"W. c #E880B3",
"Q. c #F780B1",
"!. c #F280B6",
"~. c #F381B6",
"^. c #FA80B4",
"/. c #FA81B4",
"(. c #FB81B5",
"). c #F981B7",
"_. c #F686BC",
"`. c #FA83BA",
"'. c #FB85BB",
"]. c #FC85B9",
"[. c #FC86BA",
"{. c #FB86BE",
"}. c #FB89BB",
"|. c #FC88BC",
" X c #F78BC3",
".X c #FB89C1",
"XX c #F98AC3",
"oX c #FB8AC2",
"OX c #FD8CC1",
"+X c #FE8EC2",
"@X c #F88EC6",
"#X c #F88FC6",
"$X c #FC8FC8",
"%X c #FC8FC9",
"&X c #FF92C6",
"*X c #F692C9",
"=X c #FC90C9",
"-X c #FF94C9",
";X c #FD93CC",
":X c #F894CD",
">X c #FD94CD",
",X c #FF96CC",
"<X c #FD95CF",
"1X c #FF97CE",
"2X c #FF98CF",
"3X c #FB97D1",
"4X c #FD96D0",
"5X c #FF9AD2",
"6X c #FE99D4",
"7X c #FF9BD4",
"8X c #FF9CD5",
"9X c #FE9CD7",
"0X c #FF9DD7",
"qX c #FF9ED8",
"wX c #FE9FDA",
"eX c #FFA0DB",
"rX c #FFA1DD",
"tX c #FFA2DE",
"yX c #FFDFEF",
"uX c #FFFBFF",
"iX c None",
/* pixels */
"iXiXiXiXiXiXiXiXiXiXiXiXiXiXiXiXiXiXiXiXiXiXiXiXiXiXiXiXiXiXiXiXiXiXiXiXiXiXiXiXiXiXiXiXiXiXiXiXiXiXiXiXiXiXiXiXiXiXiXiXiXiXiXiX",
"iXiXiXiXiXiXiXiXiXiXiXiXiXiXiXiXiXiXiXiXiXiXiXiXiXiXiXiXiXiXiXiXiXiXiXiXiXiXiXiXiXiXiXiXiXiXiXiXiXiXiXiXiXiXiXiXiXiXiXiXiXiXiXiX",
"iXiXiXiXiXiXiXiXiXiXiXiXiXiXiXiXiXiXiXiXiXiXiXiXiXiXiXiXiXiXiXiXiXiXiXiXiXiXiXiXiXiXiXiXiXiXiXiXiXiXiXiXiXiXiXiXiXiXiXiXiXiXiXiX",
"iXiXiXiXiXiXiXiXiXiXiXiXiXiXiXiXiXiXiXiXiXiXiXiXiXiXiXiXiXiXiXiXiXiXiXiXiXiXiXiXiXiXiXiXiXiXiXiXiXiXiXiXiXiXiXiXiXiXiXiXiXiXiXiX",
"iXiXiXiXiXiXiXiXiXiXiXiXiXiXiXiXiXiXiXiXiXiXiXiXiXiXiXiXiXiXiXiXiXiXiXiXiXiXiXiXiXiXiXiXiXiXiXiXiXiXiXiXiXiXiXiXiXiXiXiXiXiXiXiX",
"iXiXiXiXiXiXiXiXiXiXiXiXiXiXiXiXiXiXiXiXiXiXiXiXiXiXiXiXiXiXiXiXiXiXiXiXiXiXiXiXiXiXiXiXiXiXiXiXiXiXiXiXiXiXiXiXiXiXiXiXiXiXiXiX",
"iXiXiXiXiXiXiXiXiXiXiXiXiXiXiXiXiXiXiXiXiXiXiXiXiXiXiXiXiXiXiXiXiXiXiXiXiXiXiXiXiXiXiXiXiXiXiXiXiXiXiXiXiXiXiXiXiXiXiXiXiXiXiXiX",
"iXiXiXiXiXiXiXiXiXiXiXiXiXiXiXiXiXiXiXiXiXiXiXiXiXiXiXiXiXiXiXiXiXiXiXiXiXiXiXiXiXiXiXiXiXiXiXiXiXiXiXiXiXiXiXiXiXiXiXiXiXiXiXiX",
"iXiXiXiXiXiXiXiXiXiXiXiXiXiXiXiXiXiXiXiXiXiXiXiXiXiXiXiXiXiXiXiXiXiXiXiXiXiXiXiXiXiXiXiXiXiXiXiXiXiXiXiXiXiXiXiXiXiXiXiXiXiXiXiX",
"iXiXiXiXiXiXiXiXiXiXiXiXiXiXiXiXiXiXiXiXiXiXiXiXiXiXiXiXiXiXiXiXiXiXiXiXiXiXiXiXiXiXiXiXiXiXiXiXiXiXiXiXiXiXiXiXiXiXiXiXiXiXiXiX",
"iXiXiXiXiXiXiXiXiXiXiXiXiXiXiXiXiXiXiXiXiXiXiXiXiXiXiXiXiXiXiXiXiXiXiXiXiXiXiXiXiXiXiXiXiXiXiXiXiXiXiXiXiXiXiXiXiXiXiXiXiXiXiXiX",
"iXiXiXiXiXiXiXiXiXiXiXiXiXiXiXiXiXiXiXiXiXiXiXiXiXiXiXiXiXiXiXiXiXiXiXiXiXiXiXiXiXiXiXiXiXiXiXiXiXiXiXiXiXiXiXiXiXiXiXiXiXiXiXiX",
"iXiXiXiXiXiXiXiXiXiXiXiXiXiXiXiXiXiXiXiXiXiXiX                                  iXiX              iXiXiXiXiXiXiXiXiXiXiXiXiXiXiX",
"iXiXiXiXiXiXiXiXiXiXiXiXiXiXiXiXiXiXiXiXiXiXiX                                  iXiX              iXiXiXiXiXiXiXiXiXiXiXiXiXiXiX",
"iXiXiXiXiXiXiXiXiXiXiXiXiXiXiXiXiXiX              u p h m m m m m m z p p o         i i l H J i.i.r   iXiXiXiXiXiXiXiXiXiXiXiXiX",
"iXiXiXiXiXiXiXiXiXiXiXiXiXiXiXiXiXiX              Z G } 0.0.0.0.0.0.:.G G $         A A +.y.u.uXuXM     iXiXiXiXiXiXiXiXiXiXiXiX",
"iXiXiXiXiXiXiXiXiXiXiXiXiXiXiXiXiXiX    : : > , , U T 7.a.a.a.a.a.a.q.T T 9 , > : : S S #.y.u.yXyXN = @ iXiXiXiXiXiXiXiXiXiXiXiX",
"iXiXiXiXiXiXiXiXiXiXiXiXiXiXiX          R 0.d.H.H.9XtXtXtXtXtXtXtXtXtXtXtXP.H.b.0.0.y.y.y.y.y.y.y.] ( C     iXiXiXiXiXiXiXiXiXiX",
"iXiXiXiXiXiXiXiXiXiXiXiXiXiXiX          R 0.d.H.H.9XtXtXtXtXtXtXtXtXtXtXtXP.H.b.0.0.y.y.y.y.y.y.y.] ( C     iXiXiXiXiXiXiXiXiXiX",
"iXiXiXiXiXiXiXiXiXiXiXiXiX        O 1.1.S.~._.=X=XwXtXtXtXtXtXtXtXtXtXtXtX;X=XXX~.~.h.h.,.^ ) y.y.=.*.K 4 4 .   iXiXiXiXiXiXiXiX",
"iXiXiXiXiXiXiXiXiXiXiXiXiX        < H.H.4XtXtXtXtXtXtXtXtXtXtXtXtXtXtXtXtXtXtXtXtXtXH.H.{ A S y.y.y.y._ d d X     iXiXiXiXiXiXiX",
"iXiXiXiXiXiXiXiXiXiXiXiXiX    ; 0 c E.E.6XtXtXtXtXtXtXtXtXtXtXtXtXtXtXtXtXtXtXtXtXtXE.E.>.D / %.%.-.y.` s s +     iXiXiXiXiXiXiX",
"iXiXiXiXiXiXiXiXiXiXiXiXiX    P 0.a.tXtXtXtXtXtXtXtXtXtXtXtXtXtXtXtXtXtXtXtXtXtXtXtXtXtXV.0.9.A A $.y.+.A A #     iXiXiXiXiXiXiX",
"iXiXiXiXiXiXiXiXiXiXiXiXiX    P 0.a.tXtXtXtXtXtXtXtXtXtXtXtXtXtXtXtXtXtXtXtXtXtXtXtXtXtXV.0.9.A A $.y.+.A A #     iXiXiXiXiXiXiX",
"iXiXiXiXiXiXiXiXiXiXiX        <.Z.J.tXtXtXtXtXtXtXtXtXtXtXtXtXtXtXtXtXtXtXtXtXtXtXtXtXtX).Z.l.a a o.y.@.~ ~ -     iXiXiXiXiXiXiX",
"iXiXiXiXiXiXiXiXiXiXiX        1.H.P.tXtXtXtXtXtXtXtXtXtXtXtXtXtXtXtXtXtXtXtXtXtXtXtXtXtX`.H.v.d d X.y.&.( ( -     iXiXiXiXiXiXiX",
"iXiXiXiXiXiXiXiXiXiXiX    y y 4.`.{.tXtXtXtXtXtXtXtXtXtXtXtXtXtXtXtXtXtXtXtXtXtXtXtXtXtX=X`.G.B B ' &.O.Q Q &     iXiXiXiXiXiXiX",
"iXiXiXiXiXiXiXiXiXiXiX    G G D.tXtXtXtXtXtXtXtXtXtXtXtXtXtXtXtXtXtXtXtXtXtXtXtXtXtXtXtXtXtX*XG G ! ( W A A #     iXiXiXiXiXiXiX",
"iXiXiXiXiXiXiXiXiXiXiX    G G D.tXtXtXtXtXtXtXtXtXtXtXtXtXtXtXtXtXtXtXtXtXtXtXtXtXtXtXtXtXtX*XG G ! ( W A A #     iXiXiXiXiXiXiX",
"iXiXiXiXiXiXiXiXiXiXiX    0.0.!.tXtXtXtXtXtXtXtXtXtXtXtXtXtXtXtXtXtXtXtXtXtXtXtXtXtXtXtXtXtX3X0.0.0         iXiXiXiXiXiXiXiXiXiX",
"iXiXiXiXiXiXiXiXiXiXiX    0.0.!.tXtXtXtXtXtXtXtXtXtXtXtXtXtXtXtXtXtXtXtXtXtXtXtXtXtXtXtXtXtX3X0.0.0         iXiXiXiXiXiXiXiXiXiX",
"iXiXiXiXiXiXiXiXiXiXiX    0.0.!.tXtXtXtXtXtXtXtXtXtXtXtXtXtXtXtXtXtXtXtXtXtXtXtXtXtXtXtXtXtX3X0.0.0     iXiXiXiXiXiXiXiXiXiXiXiX",
"iXiXiXiXiXiXiXiXiXiXiX    0.0.!.tXtXtXtXtXtXtXtXtXtXtXtXtXtXtXtXtXtXtXtXtXtXtXtXtXtXtXtXtXtX3X0.0.0     iXiXiXiXiXiXiXiXiXiXiXiX",
"iXiXiXiXiXiXiXiXiXiXiX    0.0.!.tXtXtXtXtXtXtXtXtXtXtXtXtXtXtXtXtXtXtXtXtXtXtXtXtXtXtXtXtXtX3X0.0.0     iXiXiXiXiXiXiXiXiXiXiXiX",
"iXiXiXiXiXiXiXiXiXiXiX    0.0.!.tXtXtXtXtXtXtXtXtXtXtXtXtXtXtXtXtXtXtXtXtXtXtXtXtXtXtXtXtXtX3X0.0.0     iXiXiXiXiXiXiXiXiXiXiXiX",
"iXiXiXiXiXiXiXiXiXiXiX    0.0.!.tXtXtXtXtXtXtXtXtXtXtXtXtXtXtXtXtXtXtXtXtXtXtXtXtXtXtXtXtXtX3X0.0.0     iXiXiXiXiXiXiXiXiXiXiXiX",
"iXiXiXiXiXiXiXiXiXiXiX    Y Y B.,X1XtXtXtXtXtXtXtXtXtXtXtXtXtXtXtXtXtXtXtXtXtXtXtXtXtXtXtXtX:XY Y 5     iXiXiXiXiXiXiXiXiXiXiXiX",
"iXiXiXiXiXiXiXiXiXiXiX    G G x.&X-XtXtXtXtXtXtXtXtXtXtXtXtXtXtXtXtXtXtXtXtXtXtXtXtXtXtXtXtX*XG G 3     iXiXiXiXiXiXiXiXiXiXiXiX",
"iXiXiXiXiXiXiXiXiXiX      [ [ c.].|.8X8X8X8XqXtXtXtXtXtXtXtXtXtXtXtXtXtXtXtXtXeX8X8XtXtX4X$XW.j j 2     iXiXiXiXiXiXiXiXiXiXiXiX",
"iXiXiXiXiXiXiXiX          0.0.b.H.K.&X&X&X&X2XtXtXtXtXtXtXtXtXtXtXtXtXtXtXtXtX8X&X&XtXtX`.H.j.          iXiXiXiXiXiXiXiXiXiXiXiX",
"iXiXiXiXiXiXiXiX          0.0.b.H.K.&X&X&X&X2XtXtXtXtXtXtXtXtXtXtXtXtXtXtXtXtX8X&X&XtXtX`.H.j.          iXiXiXiXiXiXiXiXiXiXiXiX",
"iXiXiXiXiXiXiXiX    x k.k.}.}.z.w.t.K.K.K.K.^.-X-X-X-X7XtXeX-X-X0XtXtXtXtXtXtXrXeXeX-X-XN.w.6.    iXiXiXiXiXiXiXiXiXiXiXiXiXiXiX",
"iXiXiXiXiXiXiXiX    b H.H.&X&Xm.0.w.H.H.H.H.R.&X&X&X&X5XtXeX&X&X8XtXtXtXtXtXtXtXtXtX&X&Xm.0.5.    iXiXiXiXiXiXiXiXiXiXiXiXiXiXiX",
"iXiXiXiXiXiXiXiX    b H.H.5X5XM.0.w.H.H.H.H.L.(.(.(.(.'..XoX&X&X8XtXtXtXtXtXtXtXtXtX(.(.2.m n     iXiXiXiXiXiXiXiXiXiXiXiXiXiXiX",
"iXiXiXiXiXiXiXiX    b H.H.tXtXV.0.w.H.H.H.H.H.H.H.H.H.H.H.K.&X&X8XtXtXtXtXtXtXtXtXtXH.H.v         iXiXiXiXiXiXiXiXiXiXiXiXiXiXiX",
"iXiXiXiXiXiXiXiX    b H.H.tXtXV.0.w.H.H.H.H.H.H.H.H.H.H.H.K.&X&X8XtXtXtXtXtXtXtXtXtXH.H.v         iXiXiXiXiXiXiXiXiXiXiXiXiXiXiX",
"iXiXiXiXiXiXiXiX    b H.H.tXtX`.H.A.0.0.0.0.d.H.H.H.H.g.0.r.&X&X8XtXtXtXtXtXtXtXtXtX0.0.g     iXiXiXiXiXiXiXiXiXiXiXiXiXiXiXiXiX",
"iXiXiXiXiXiXiXiX    b H.H.tXtX`.H.A.0.0.0.0.d.H.H.H.H.g.0.r.&X&X8XtXtXtXtXtXtXtXtXtX0.0.g     iXiXiXiXiXiXiXiXiXiXiXiXiXiXiXiXiX",
"iXiXiXiXiXiXiXiX    c s.s.2X2XOX[./.n.n.w.0.E b b | ;.8.0.e.R.R.>XtXtXtXtXtXtX<X`.`.F F 6     iXiXiXiXiXiXiXiXiXiXiXiXiXiXiXiXiX",
"iXiXiXiXiXiXiXiX    g 0.0.&X&X&X&X+XH.H.t.0.L     Z G } 0.w.H.H.$XtXtXtXtXtXtX%XH.H.d d 1     iXiXiXiXiXiXiXiXiXiXiXiXiXiXiXiXiX",
"iXiXiXiXiXiXiXiX    f R R F.F.I.Q.T.C.C.3.R n     k V I R E f.f.U. X#X<X<X@X XY.f.f.t t *     iXiXiXiXiXiXiXiXiXiXiXiXiXiXiXiXiX",
"iXiXiXiXiXiXiXiX          G G  .0.0.0.0.0                 % G G  .0.p.H.H.w.0...G G     iXiXiXiXiXiXiXiXiXiXiXiXiXiXiXiXiXiXiXiX",
"iXiXiXiXiXiXiXiX          G G  .0.0.0.0.0                 % G G  .0.p.H.H.w.0...G G     iXiXiXiXiXiXiXiXiXiXiXiXiXiXiXiXiXiXiXiX",
"iXiXiXiXiXiXiXiXiXiX      3 3 8 q q q q iXiXiXiXiXiXiXiXiXiX3 3 8 q w e e q q 7 3 3 iXiXiXiXiXiXiXiXiXiXiXiXiXiXiXiXiXiXiXiXiXiX",
"iXiXiXiXiXiXiXiXiXiXiX                  iXiXiXiXiXiXiXiXiXiX                        iXiXiXiXiXiXiXiXiXiXiXiXiXiXiXiXiXiXiXiXiXiX",
"iXiXiXiXiXiXiXiXiXiXiX                  iXiXiXiXiXiXiXiXiXiX                        iXiXiXiXiXiXiXiXiXiXiXiXiXiXiXiXiXiXiXiXiXiX",
"iXiXiXiXiXiXiXiXiXiXiXiXiXiXiXiXiXiXiXiXiXiXiXiXiXiXiXiXiXiXiXiXiXiXiXiXiXiXiXiXiXiXiXiXiXiXiXiXiXiXiXiXiXiXiXiXiXiXiXiXiXiXiXiX",
"iXiXiXiXiXiXiXiXiXiXiXiXiXiXiXiXiXiXiXiXiXiXiXiXiXiXiXiXiXiXiXiXiXiXiXiXiXiXiXiXiXiXiXiXiXiXiXiXiXiXiXiXiXiXiXiXiXiXiXiXiXiXiXiX",
"iXiXiXiXiXiXiXiXiXiXiXiXiXiXiXiXiXiXiXiXiXiXiXiXiXiXiXiXiXiXiXiXiXiXiXiXiXiXiXiXiXiXiXiXiXiXiXiXiXiXiXiXiXiXiXiXiXiXiXiXiXiXiXiX",
"iXiXiXiXiXiXiXiXiXiXiXiXiXiXiXiXiXiXiXiXiXiXiXiXiXiXiXiXiXiXiXiXiXiXiXiXiXiXiXiXiXiXiXiXiXiXiXiXiXiXiXiXiXiXiXiXiXiXiXiXiXiXiXiX",
"iXiXiXiXiXiXiXiXiXiXiXiXiXiXiXiXiXiXiXiXiXiXiXiXiXiXiXiXiXiXiXiXiXiXiXiXiXiXiXiXiXiXiXiXiXiXiXiXiXiXiXiXiXiXiXiXiXiXiXiXiXiXiXiX",
"iXiXiXiXiXiXiXiXiXiXiXiXiXiXiXiXiXiXiXiXiXiXiXiXiXiXiXiXiXiXiXiXiXiXiXiXiXiXiXiXiXiXiXiXiXiXiXiXiXiXiXiXiXiXiXiXiXiXiXiXiXiXiXiX",
"iXiXiXiXiXiXiXiXiXiXiXiXiXiXiXiXiXiXiXiXiXiXiXiXiXiXiXiXiXiXiXiXiXiXiXiXiXiXiXiXiXiXiXiXiXiXiXiXiXiXiXiXiXiXiXiXiXiXiXiXiXiXiXiX",
"iXiXiXiXiXiXiXiXiXiXiXiXiXiXiXiXiXiXiXiXiXiXiXiXiXiXiXiXiXiXiXiXiXiXiXiXiXiXiXiXiXiXiXiXiXiXiXiXiXiXiXiXiXiXiXiXiXiXiXiXiXiXiXiX"
};
