/* XPM */
static char *result[] = {
/* columns rows colors chars-per-pixel */
"64 64 182 2 ",
"   c black",
".  c #0B0002",
"X  c #0B0204",
"o  c #160407",
"O  c #10070A",
"+  c #1B000A",
"@  c #1A090E",
"#  c #1B090E",
"$  c #1C090E",
"%  c #1D0C11",
"&  c #1F0E14",
"*  c #1F0E15",
"=  c #22060A",
"-  c #2D000A",
";  c #2D080E",
":  c #300A12",
">  c #37121C",
",  c #37121D",
"<  c #3A1723",
"1  c #3D1C29",
"2  c #44000F",
"3  c #420019",
"4  c #4C001A",
"5  c #50001E",
"6  c #50001F",
"7  c #5A101C",
"8  c #580428",
"9  c #5D072F",
"0  c #451724",
"q  c #4C1623",
"w  c #711424",
"e  c #600932",
"r  c #562032",
"t  c #5C2A3E",
"y  c #612032",
"u  c #602537",
"i  c #6F2439",
"p  c #403F40",
"a  c #6C3148",
"s  c #7B3852",
"d  c #764657",
"f  c #605E60",
"g  c #87182B",
"h  c #9E1C32",
"j  c #B50029",
"k  c #B52039",
"l  c #B7223D",
"z  c #BB0048",
"x  c #802E47",
"c  c #8B2E47",
"v  c #9F2F4B",
"b  c #A92641",
"n  c #A72C47",
"m  c #BA2540",
"M  c #BC2A46",
"N  c #BF2A48",
"B  c #BE2E4A",
"V  c #BE304E",
"C  c #A73756",
"Z  c #AD3453",
"A  c #B73A5A",
"S  c #CE0048",
"D  c #C3194E",
"F  c #D60052",
"G  c #D11D55",
"H  c #C42F4F",
"J  c #C93456",
"K  c #CE395D",
"L  c #CE395E",
"P  c #EA0C6B",
"I  c #FA157D",
"U  c #FA157E",
"Y  c #DD2A67",
"T  c #D43E64",
"R  c #D43F64",
"E  c #E32F6F",
"W  c #EA3679",
"Q  c #984868",
"!  c #AF4D71",
"~  c #B5577D",
"^  c #B9547C",
"/  c #C74162",
"(  c #C24065",
")  c #C5456B",
"_  c #C7496F",
"`  c #D04267",
"'  c #D9446C",
"]  c #D6486F",
"[  c #D84A72",
"{  c #DE4973",
"}  c #DA4C75",
"|  c #E04D78",
" . c #E14E79",
".. c #E2527E",
"X. c #FF1884",
"o. c #DF5680",
"O. c #DE5782",
"+. c #D55E8A",
"@. c #E45380",
"#. c #E25480",
"$. c #E25481",
"%. c #E75885",
"&. c #E65B88",
"*. c #E75D8A",
"=. c #E65F8E",
"-. c #D86390",
";. c #D86391",
":. c #E36391",
">. c #EA6190",
",. c #EE6292",
"<. c #EA6694",
"1. c #EE6494",
"2. c #EF6797",
"3. c #EE6D9C",
"4. c #F06798",
"5. c #F16798",
"6. c #F46C9E",
"7. c #F46C9F",
"8. c #EE74A7",
"9. c #EE75A8",
"0. c #E77AAD",
"q. c #F771A5",
"w. c #F376A7",
"e. c #F674A7",
"r. c #F774A8",
"t. c #F875A9",
"y. c #F977AB",
"u. c #F07AAD",
"i. c #F678AD",
"p. c #F979AD",
"a. c #F87BB0",
"s. c #FA7DB1",
"d. c #F97DB3",
"f. c #F87EB4",
"g. c #F97EB4",
"h. c #9F9D9F",
"j. c #E880B4",
"k. c #F780B1",
"l. c #F680B3",
"z. c #FA80B4",
"x. c #FA80B5",
"c. c #FB81B5",
"v. c #F882B4",
"b. c #FA83BA",
"n. c #FB84B9",
"m. c #F987BB",
"M. c #FB86BD",
"N. c #FA87BE",
"B. c #FC88BC",
"V. c #FD89BD",
"C. c #FD8ABE",
"Z. c #F78CC3",
"A. c #FB89C0",
"S. c #FB89C1",
"D. c #FC89C0",
"F. c #FE8EC2",
"G. c #FB8FC5",
"H. c #FC8DC5",
"J. c #FC8FC9",
"K. c #FF92C6",
"L. c #F592CA",
"P. c #FA91C9",
"I. c #FF94C9",
"U. c #F895CD",
"Y. c #FF96CC",
"T. c #FF98CF",
"R. c #FB97D1",
"E. c #FD96D0",
"W. c #FF9AD2",
"Q. c #FC99D4",
"!. c #FE99D4",
"~. c #FE9BD7",
"^. c #FF9CD5",
"/. c #FE9CD7",
"(. c #FF9DD7",
"). c #FF9ED8",
"_. c #FFA0DB",
"`. c #FFA1DD",
"'. c #FFA2DE",
"]. c #FFC2E0",
"[. c #FFFBFF",
"{. c None",
/* pixels */
"{.{.{.{.{.{.{.{.{.{.{.{.{.{.{.{.{.{.{.{.{.{.{.{.{.{.{.{.{.{.{.{.{.{.{.{.{.{.{.{.{.{.{.{.{.{.{.{.{.{.{.{.{.{.{.{.{.{.{.{.{.{.{.{.",
"{.{.{.{.{.{.{.{.{.{.{.{.{.{.{.{.{.{.{.{.{.{.{.{.{.{.{.{.{.{.{.{.{.{.{.{.{.{.{.{.{.{.{.{.{.{.{.{.{.{.{.{.{.{.{.{.{.{.{.{.{.{.{.{.",
"{.{.{.{.{.{.{.{.{.{.{.{.{.{.{.{.{.{.{.{.{.{.{.{.{.{.{.{.{.{.{.{.{.{.{.{.{.{.{.{.{.{.{.{.{.{.{.{.{.{.{.{.{.{.{.{.{.{.{.{.{.{.{.{.",
"{.{.{.{.{.{.{.{.{.{.{.{.{.{.{.{.{.{.{.{.{.{.{.{.{.{.{.{.{.{.{.{.{.{.{.{.{.{.{.{.{.{.{.{.{.{.{.{.{.{.{.{.{.{.{.{.{.{.{.{.{.{.{.{.",
"{.{.{.{.{.{.{.{.{.{.{.{.{.{.{.{.{.{.{.{.{.{.{.{.{.{.{.{.{.{.{.{.{.{.{.{.{.{.{.{.{.{.{.{.{.{.{.{.{.{.{.{.{.{.{.{.{.{.{.{.{.{.{.{.",
"{.{.{.{.{.{.{.{.{.{.{.{.{.{.{.{.{.{.{.{.{.{.{.{.{.{.{.{.{.{.{.{.{.{.{.{.{.{.{.{.{.{.{.{.{.{.{.{.{.{.{.{.{.{.{.{.{.{.{.{.{.{.{.{.",
"{.{.{.{.{.{.{.{.{.{.{.{.{.{.{.{.{.{.{.{.{.{.{.{.{.{.{.{.{.{.{.{.{.{.{.{.{.{.{.{.{.{.{.{.{.{.{.{.{.{.{.{.{.{.{.{.{.{.{.{.{.{.{.{.",
"{.{.{.{.{.{.{.{.{.{.{.{.{.{.{.{.{.{.{.{.{.{.{.{.{.{.{.{.{.{.{.{.{.{.{.{.{.{.{.{.{.{.{.{.{.{.{.{.{.{.{.{.{.{.{.{.{.{.{.{.{.{.{.{.",
"{.{.{.{.{.{.{.{.{.{.{.{.{.{.{.{.{.{.{.{.{.{.{.{.{.{.{.{.{.{.{.{.{.{.{.{.{.{.{.{.{.{.{.{.{.{.{.{.{.{.{.{.{.{.{.{.{.{.{.{.{.{.{.{.",
"{.{.{.{.{.{.{.{.{.{.{.{.{.{.{.{.{.{.{.{.{.{.{.{.{.{.{.{.{.{.{.{.{.{.{.{.{.{.{.{.{.{.{.{.{.{.{.{.{.{.{.{.{.{.{.{.{.{.{.{.{.{.{.{.",
"{.{.{.{.{.{.{.{.{.{.{.{.{.{.{.{.{.{.{.{.{.{.{.{.{.{.{.{.{.{.{.{.{.{.{.{.{.{.{.{.{.{.{.{.{.{.{.{.{.{.{.{.{.{.{.{.{.{.{.{.{.{.{.{.",
"{.{.{.{.{.{.{.{.{.{.{.{.{.{.{.{.{.{.{.{.{.{.{.                                  {.{.{.{.{.{.{.{.{.{.{.{.{.{.{.{.{.{.{.{.{.{.{.{.",
"{.{.{.{.{.{.{.{.{.{.{.{.{.{.{.{.{.{.{.{.{.{.{.                                  {.{.{.{.{.{.{.{.{.{.{.{.{.{.{.{.{.{.{.{.{.{.{.{.",
"{.{.{.{.{.{.{.{.{.{.{.{.{.{.{.{.{.{.{.{.{.{.{.    o ; ; > > > > > > > : ; =     {.{.{.{.{.{.{.{.{.{.{.{.{.{.{.{.{.{.{.{.{.{.{.{.",
"{.{.{.{.{.{.{.{.{.{.{.{.{.{.{.{.{.{.              7 k k { { { { { { { N k w               {.{.{.{.{.{.{.{.{.{.{.{.{.{.{.{.{.{.{.",
"{.{.{.{.{.{.{.{.{.{.{.{.{.{.{.{.{.{.              7 k k { { { { { { { N k w               {.{.{.{.{.{.{.{.{.{.{.{.{.{.{.{.{.{.{.",
"{.{.{.{.{.{.{.{.{.{.{.{.{.{.{.{.        , ( ( +.;.0.L.L.R.R.R.R.R.R.R.U.L.j.;.;.( ( y         {.{.{.{.{.{.{.{.{.{.{.{.{.{.{.{.{.",
"{.{.{.{.{.{.{.{.{.{.{.{.{.{.{.{.        , { { 7.q.S.'.'.'.'.'.'.'.'.'.'.'.J.q.q.{ { i         {.{.{.{.{.{.{.{.{.{.{.{.{.{.{.{.{.",
"{.{.{.{.{.{.{.{.{.{.{.{.{.{.        t s Q 9.9.N.S.E.'.'.'.'.'.'.'.'.'.'.'.!.S.S.9.9.~ s a         {.{.{.{.{.{.{.{.{.{.{.{.{.{.{.",
"{.{.{.{.{.{.{.{.{.{.{.{.{.          ^ q.d.'.'.'.'.'.'.'.'.'.'.'.'.'.'.'.'.'.'.'.'.'.S.q.-.          {.{.{.{.{.{.{.{.{.{.{.{.{.{.",
"{.{.{.{.{.{.{.{.{.{.{.{.{.          ^ q.d.'.'.'.'.'.'.'.'.'.'.'.'.'.'.'.'.'.'.'.'.'.S.q.-.          {.{.{.{.{.{.{.{.{.{.{.{.{.{.",
"{.{.{.{.{.{.{.{.{.            $ { { Z.'.'.'.'.'.'.'.'.'.'.'.'.'.'.'.'.'.'.'.'.'.'.'.'.'.R.{ { >     {.{.{.{.{.{.{.{.{.{.{.{.{.{.",
"{.{.{.{.{.{.{.{.{.            $ { { Z.'.'.'.'.'.'.'.'.'.'.'.'.'.'.'.'.'.'.'.'.'.'.'.'.'.R.{ { >     {.{.{.{.{.{.{.{.{.{.{.{.{.{.",
"{.{.{.{.{.{.          h.h.p   % ,.,.P.'.'.'.'.'.'.'.'.'.'.'.'.'.'.'.'.'.'.'.'.'.'.'.'.'.Q.,.,.<         {.{.{.{.{.{.{.{.{.{.{.{.",
"{.{.{.{.{.{.          [.[.f   * q.q.E.'.'.'.'.'.'.'.'.'.'.'.'.'.'.'.'.'.'.'.'.'.'.'.'.'./.q.q.1         {.{.{.{.{.{.{.{.{.{.{.{.",
"{.{.{.{.{.{.    . - - ].].d ; q d.d.!.'.'.'.'.'.'.'.'.'.'.'.'.'.'.'.'.'.'.'.'.'.'.'.'.'./.d.d.u ; =     {.{.{.{.{.{.{.{.{.{.{.{.",
"{.{.{.{.{.{.    2 j j X.X.G k V '.'.'.'.'.'.'.'.'.'.'.'.'.'.'.'.'.'.'.'.'.'.'.'.'.'.'.'.'.'.'./ k g     {.{.{.{.{.{.{.{.{.{.{.{.",
"{.{.{.{.{.{.    2 j j X.X.G k V '.'.'.'.'.'.'.'.'.'.'.'.'.'.'.'.'.'.'.'.'.'.'.'.'.'.'.'.'.'.'./ k g     {.{.{.{.{.{.{.{.{.{.{.{.",
"{.{.{.{.{.{.    4 S S X.X.E R } '.'.'.'.'.'.'.'.'.'.'.'.'.'.'.'.'.'.'.'.'.'.'.'.'.'.'.'.'.'.'.O.R v         {.{.{.{.{.{.{.{.{.{.",
"{.{.{.{.{.{.    5 F F X.X.W { #.'.'.'.'.'.'.'.'.'.'.'.'.'.'.'.'.'.'.'.'.'.'.'.'.'.'.'.'.'.'.'.=.{ C           {.{.{.{.{.{.{.{.{.",
"{.{.{.{.{.{.    5 F F X.X.W { #.'.'.'.'.'.'.'.'.'.'.'.'.'.'.).^.^.^.^.^.^.).'.'.'.'.'.'.'.'.'.=.{ ) t t O     {.{.{.{.{.{.{.{.{.",
"{.{.{.{.{.{.    5 F F X.X.W { #.'.'.'.'.'.'.'.'.'.'.'.'.'.'.T.K.K.K.K.K.K.T.'.'.'.'.'.'.'.'.'.=.{ @.q.q.&         {.{.{.{.{.{.{.",
"{.{.{.{.{.{.    5 F F X.X.W { #.'.'.'.'.'.'.'.'.'.'.'.'.'.'.T.K.K.K.K.K.K.T.'.'.'.'.'.'.'.'.'.=.{ @.q.q.&         {.{.{.{.{.{.{.",
"{.{.{.{.{.{.    9 U U X.X.W { #.'.'.'.'.'.'.'.'.'.'.'.'.'.'.`._._._._.g.t.z.I.I.'.'.'.'.'.'.'.a.6.e.F.F._ ( y         {.{.{.{.{.",
"{.{.{.{.{.{.    e X.X.X.X.W { #.'.'.'.'.'.'.'.'.'.'.'.'.'.'.'.'.'.'.'.d.q.s.K.K.'.'.'.'.'.'.'.d.q.p.K.K...{ i         {.{.{.{.{.",
"{.{.{.{.{.{.    8 P P X.X.Y J ` '.'.'.'.'.'.'.'.'.'.'.'.'.'.'.'.'.'.'.J.S.M.c.c.'.'.'.'.'.'.'.D.c.B.W.W.u.9.! i i     {.{.{.{.{.",
"{.{.{.{.{.{.    5 F F X.X.G k V '.'.'.'.'.'.'.'.'.'.'.'.'.'.'.'.'.'.'.'.'.J.q.q.'.'.'.'.'.'.'.Y.K.Y.'.'.'.'.9.{ {     {.{.{.{.{.",
"{.{.{.{.{.{.    3 z z I I D h n ~.~.'.'.'.'.'.'.'.'.'.'.'.'.'.'.'.'.'.'.'.J.q.q.'.'.'.'.'.~.~.Y.K.Y.'.'._._.8.{ {     {.{.{.{.{.",
"{.{.{.{.{.{.          F F 6   * q.q.E.'.'.'.'.'.'.'.'.'.'.'.'.'.'.'.'.'.'.J.q.q.'.'.'.'./.q.q.C.K.Y.'.'.I.K.3.{ {     {.{.{.{.{.",
"{.{.{.{.{.{.          F F 6   * q.q.E.'.'.'.'.'.'.'.'.'.'.'.'.'.'.'.'.'.'.J.q.q.'.'.'.'./.q.q.C.K.Y.'.'.I.K.3.{ {     {.{.{.{.{.",
"{.{.{.{.{.{.{.{.      5 5 +   % %.%.i.b.A.T.T.T.T.(.'.'.'.'.'.'.'.'.'.W.T.l.%.%.T.T.H.b.f.%.%.e.s.n.T.T.x.s.o.H H     {.{.{.{.{.",
"{.{.{.{.{.{.{.{.{.            $ { { 5.q.p.K.K.K.K.W.'.'.'.'.'.'.'.'.'.Y.K.w.{ { K.K.c.q.7.{ { 5.q.p.K.K.t.q.] k k     {.{.{.{.{.",
"{.{.{.{.{.{.{.{.{.            $ C C :.q.y.V.V.v.k.G.).).'.'.'.'.`.).).m.k.<.T T V.V.s.q.7.T T 1.q.r.k.k.>.*.A g g     {.{.{.{.{.",
"{.{.{.{.{.{.{.{.{.{.{.{.{.          ^ q.q.q.q. .{ 3.K.K.'.'.'.'.).K.K.&.{ L k k q.q.q.q.2.k k *.q.4.{ { m k 7         {.{.{.{.{.",
"{.{.{.{.{.{.{.{.{.{.{.{.{.          ^ q.q.q.q. .{ 3.K.K.'.'.'.'.).K.K.&.{ L k k q.q.q.q.2.k k *.q.4.{ { m k 7         {.{.{.{.{.",
"{.{.{.{.{.{.{.{.{.{.{.{.{.{.{.{.    O & r  . .{ { | ....$.$.$.$.[ B B M m H ' '  . .x & & o o @ & & $ $ o o X     {.{.{.{.{.{.{.",
"{.{.{.{.{.{.{.{.{.{.{.{.{.{.{.{.        , { { { { { { { { { { { R k k k k H { { { { i                             {.{.{.{.{.{.{.",
"{.{.{.{.{.{.{.{.{.{.{.{.{.{.{.{.        # c c c c Z K K { { { { ' H H l k b c c c c 0                             {.{.{.{.{.{.{.",
"{.{.{.{.{.{.{.{.{.{.{.{.{.{.{.{.{.{.              7 k k { { { { { { { N k w               {.{.{.{.{.{.{.{.{.{.{.{.{.{.{.{.{.{.{.",
"{.{.{.{.{.{.{.{.{.{.{.{.{.{.{.{.{.{.              7 k k { { { { { { { N k w               {.{.{.{.{.{.{.{.{.{.{.{.{.{.{.{.{.{.{.",
"{.{.{.{.{.{.{.{.{.{.{.{.{.{.{.{.{.{.{.{.{.{.{.                                  {.{.{.{.{.{.{.{.{.{.{.{.{.{.{.{.{.{.{.{.{.{.{.{.",
"{.{.{.{.{.{.{.{.{.{.{.{.{.{.{.{.{.{.{.{.{.{.{.                                  {.{.{.{.{.{.{.{.{.{.{.{.{.{.{.{.{.{.{.{.{.{.{.{.",
"{.{.{.{.{.{.{.{.{.{.{.{.{.{.{.{.{.{.{.{.{.{.{.{.{.{.{.{.{.{.{.{.{.{.{.{.{.{.{.{.{.{.{.{.{.{.{.{.{.{.{.{.{.{.{.{.{.{.{.{.{.{.{.{.",
"{.{.{.{.{.{.{.{.{.{.{.{.{.{.{.{.{.{.{.{.{.{.{.{.{.{.{.{.{.{.{.{.{.{.{.{.{.{.{.{.{.{.{.{.{.{.{.{.{.{.{.{.{.{.{.{.{.{.{.{.{.{.{.{.",
"{.{.{.{.{.{.{.{.{.{.{.{.{.{.{.{.{.{.{.{.{.{.{.{.{.{.{.{.{.{.{.{.{.{.{.{.{.{.{.{.{.{.{.{.{.{.{.{.{.{.{.{.{.{.{.{.{.{.{.{.{.{.{.{.",
"{.{.{.{.{.{.{.{.{.{.{.{.{.{.{.{.{.{.{.{.{.{.{.{.{.{.{.{.{.{.{.{.{.{.{.{.{.{.{.{.{.{.{.{.{.{.{.{.{.{.{.{.{.{.{.{.{.{.{.{.{.{.{.{.",
"{.{.{.{.{.{.{.{.{.{.{.{.{.{.{.{.{.{.{.{.{.{.{.{.{.{.{.{.{.{.{.{.{.{.{.{.{.{.{.{.{.{.{.{.{.{.{.{.{.{.{.{.{.{.{.{.{.{.{.{.{.{.{.{.",
"{.{.{.{.{.{.{.{.{.{.{.{.{.{.{.{.{.{.{.{.{.{.{.{.{.{.{.{.{.{.{.{.{.{.{.{.{.{.{.{.{.{.{.{.{.{.{.{.{.{.{.{.{.{.{.{.{.{.{.{.{.{.{.{.",
"{.{.{.{.{.{.{.{.{.{.{.{.{.{.{.{.{.{.{.{.{.{.{.{.{.{.{.{.{.{.{.{.{.{.{.{.{.{.{.{.{.{.{.{.{.{.{.{.{.{.{.{.{.{.{.{.{.{.{.{.{.{.{.{.",
"{.{.{.{.{.{.{.{.{.{.{.{.{.{.{.{.{.{.{.{.{.{.{.{.{.{.{.{.{.{.{.{.{.{.{.{.{.{.{.{.{.{.{.{.{.{.{.{.{.{.{.{.{.{.{.{.{.{.{.{.{.{.{.{.",
"{.{.{.{.{.{.{.{.{.{.{.{.{.{.{.{.{.{.{.{.{.{.{.{.{.{.{.{.{.{.{.{.{.{.{.{.{.{.{.{.{.{.{.{.{.{.{.{.{.{.{.{.{.{.{.{.{.{.{.{.{.{.{.{.",
"{.{.{.{.{.{.{.{.{.{.{.{.{.{.{.{.{.{.{.{.{.{.{.{.{.{.{.{.{.{.{.{.{.{.{.{.{.{.{.{.{.{.{.{.{.{.{.{.{.{.{.{.{.{.{.{.{.{.{.{.{.{.{.{.",
"{.{.{.{.{.{.{.{.{.{.{.{.{.{.{.{.{.{.{.{.{.{.{.{.{.{.{.{.{.{.{.{.{.{.{.{.{.{.{.{.{.{.{.{.{.{.{.{.{.{.{.{.{.{.{.{.{.{.{.{.{.{.{.{.",
"{.{.{.{.{.{.{.{.{.{.{.{.{.{.{.{.{.{.{.{.{.{.{.{.{.{.{.{.{.{.{.{.{.{.{.{.{.{.{.{.{.{.{.{.{.{.{.{.{.{.{.{.{.{.{.{.{.{.{.{.{.{.{.{."
};
