/* XPM */
static char *result[] = {
/* columns rows colors chars-per-pixel */
"64 64 167 2 ",
"   c black",
".  c #0C0202",
"X  c #150306",
"o  c #190404",
"O  c #1B000A",
"+  c #1C090E",
"@  c #1F0D13",
"#  c #101010",
"$  c #240307",
"%  c #22060A",
"&  c #2D080E",
"*  c #2D000A",
"=  c #310808",
"-  c #3D000E",
";  c #300D13",
":  c #3D0B12",
">  c #37121C",
",  c #201F20",
"<  c #44000F",
"1  c #560E0E",
"2  c #440613",
"3  c #5A0014",
"4  c #6E0E13",
"5  c #73051A",
"6  c #631010",
"7  c #72171C",
"8  c #4A1624",
"9  c #531B2C",
"0  c #651227",
"q  c #711424",
"w  c #781A25",
"e  c #5C2A3E",
"r  c #592538",
"t  c #642134",
"y  c #6F2439",
"u  c #7C2940",
"i  c #6C3148",
"p  c #74344C",
"a  c #7B3852",
"s  c #88001E",
"d  c #820A19",
"f  c #8B081D",
"g  c #87001F",
"h  c #81161F",
"j  c #9E0024",
"k  c #920225",
"l  c #8C1824",
"z  c #821E29",
"x  c #89192B",
"c  c #9E1C32",
"v  c #A00423",
"b  c #A80628",
"n  c #B50029",
"m  c #B9002E",
"M  c #B5082D",
"N  c #B00127",
"B  c #A01C2F",
"V  c #AA0639",
"C  c #BE0234",
"Z  c #B40537",
"A  c #AB1E34",
"S  c #BF123B",
"D  c #BA1538",
"F  c #882835",
"G  c #83283F",
"H  c #942637",
"J  c #B52039",
"K  c #C4013B",
"L  c #BB0543",
"P  c #B81F53",
"I  c #8B2E47",
"U  c #9B2B46",
"Y  c #80314A",
"T  c #9A3447",
"R  c #A02C42",
"E  c #A92641",
"W  c #B22944",
"Q  c #BE2A46",
"!  c #B62F4A",
"~  c #A73756",
"^  c #A53C56",
"/  c #BF3B5A",
"(  c #CA0043",
")  c #D60052",
"_  c #DB0358",
"`  c #C41558",
"'  c #C9244E",
"]  c #C42F4F",
"[  c #C93456",
"{  c #CF395D",
"}  c #D81667",
"|  c #EB136D",
" . c #EE1374",
".. c #F41276",
"X. c #F51278",
"o. c #CE3E62",
"O. c #D43E64",
"+. c #D73473",
"@. c #E13F7D",
"#. c #9F425F",
"$. c #AD405A",
"%. c #BA495B",
"&. c #BA4C71",
"*. c #B94F72",
"=. c #CE4166",
"-. c #C04D6D",
";. c #C34466",
":. c #D6486F",
">. c #D6476E",
",. c #C7576A",
"<. c #C44C70",
"1. c #DE4973",
"2. c #D05177",
"3. c #C65477",
"4. c #E14E79",
"5. c #E4537F",
"6. c #FF1884",
"7. c #FD2E8C",
"8. c #FE3892",
"9. c #DE5985",
"0. c #E54283",
"q. c #E75886",
"w. c #E65E8C",
"e. c #EA5E8C",
"r. c #E25481",
"t. c #FC4999",
"y. c #C46182",
"u. c #D86391",
"i. c #E2618B",
"p. c #E46492",
"a. c #ED6292",
"s. c #EB6A9B",
"d. c #F16798",
"f. c #F36C9E",
"g. c #EE75A8",
"h. c #EC75A7",
"j. c #F771A5",
"k. c #F877AC",
"l. c #F979AD",
"z. c #F078AC",
"x. c #F97DB2",
"c. c #9F9D9F",
"v. c #B18587",
"b. c #E881B4",
"n. c #FA81B3",
"m. c #FB85BB",
"M. c #FD89BD",
"N. c #F78CC3",
"B. c #FC8BC2",
"V. c #FC8FC8",
"C. c #EC90C4",
"Z. c #FF92C6",
"A. c #F692CA",
"S. c #FE95CB",
"D. c #FF98CF",
"F. c #FB97D1",
"G. c #FE9BD5",
"H. c #FF9ED9",
"J. c #F59ED3",
"K. c #FFA2DE",
"L. c #FDA1D4",
"P. c #FFADE2",
"I. c #D8C0C3",
"U. c #F7CFDC",
"Y. c #FADCE9",
"T. c #FFFBFF",
"R. c None",
/* pixels */
"R.R.R.R.R.R.R.R.R.R.R.R.R.R.R.R.R.R.R.R.R.R.R.R.R.R.R.R.R.R.R.R.R.R.R.R.R.R.R.R.R.R.R.R.R.R.R.R.R.R.R.R.R.R.R.R.R.R.R.R.R.R.R.R.",
"R.R.R.R.R.R.R.R.R.R.R.R.R.R.R.R.R.R.R.R.R.R.R.R.R.R.R.R.R.R.R.R.R.R.R.R.R.R.R.R.R.R.R.R.R.R.R.R.R.R.R.R.R.R.R.R.R.R.R.R.R.R.R.R.",
"R.R.R.R.R.R.R.R.R.R.R.R.R.R.R.R.R.R.R.R.R.R.R.R.R.R.R.R.R.R.R.R.R.R.R.R.R.R.R.R.R.R.R.R.R.R.R.R.R.R.R.R.R.R.R.R.R.R.R.R.R.R.R.R.",
"R.R.R.R.R.R.R.R.R.R.R.R.R.R.R.R.R.R.R.R.R.R.R.R.R.R.R.R.R.R.R.R.R.R.R.R.R.R.R.R.R.R.R.R.R.R.R.R.R.R.R.R.R.R.R.R.R.R.R.R.R.R.R.R.",
"R.R.R.R.R.R.R.R.R.R.R.R.R.R.R.R.R.R.R.R.R.R.R.R.R.R.R.R.R.R.R.R.R.R.R.R.R.R.R.R.R.R.R.R.R.R.R.R.R.R.R.R.R.R.R.R.R.R.R.R.R.R.R.R.",
"R.R.R.R.R.R.R.R.R.R.R.R.R.R.R.R.R.R.R.R.R.R.R.R.R.R.R.R.R.R.R.R.R.R.R.R.R.R.R.R.R.R.R.R.R.R.R.R.R.R.R.R.R.R.R.R.R.R.R.R.R.R.R.R.",
"R.R.R.R.R.R.R.R.R.R.R.R.R.R.R.R.R.R.R.R.R.R.R.R.R.R.R.R.R.R.R.R.R.R.R.R.R.R.R.R.R.R.R.R.R.R.R.R.R.R.R.R.R.R.R.R.R.R.R.R.R.R.R.R.",
"R.R.R.R.R.R.R.R.R.R.R.R.R.R.R.R.R.R.R.R.R.R.R.R.R.R.R.R.R.R.R.R.R.R.R.R.R.R.R.R.R.R.R.R.R.R.R.R.R.R.R.R.R.R.R.R.R.R.R.R.R.R.R.R.",
"R.R.R.R.R.R.R.R.R.R.R.R.R.R.R.R.R.R.R.R.R.R.R.R.R.R.R.R.R.R.R.R.R.R.R.R.R.R.R.R.R.R.R.R.R.R.R.R.R.R.R.R.R.R.R.R.R.R.R.R.R.R.R.R.",
"R.R.R.R.R.R.R.R.R.R.R.R.R.R.R.R.R.R.R.R.R.R.                                  R.R.R.R.R.R.R.R.R.R.R.R.R.R.R.R.R.R.R.R.R.R.R.R.R.",
"R.R.R.R.R.R.R.R.R.R.R.R.R.R.R.R.R.R.R.R.R.R.                                  R.R.R.R.R.R.R.R.R.R.R.R.R.R.R.R.R.R.R.R.R.R.R.R.R.",
"R.R.R.R.R.R.R.R.R.R.R.R.R.R.R.R.R.R.R.R.        % x x ~ ~ ~ ~ ~ ~ ~ U x w               R.R.R.R.R.R.R.R.R.R.R.R.R.R.R.R.R.R.R.R.",
"R.R.R.R.R.R.R.R.R.R.R.R.R.R.R.R.R.R.R.R.        & A J O.1.1.1.1.1.1.[ J c               R.R.R.R.R.R.R.R.R.R.R.R.R.R.R.R.R.R.R.R.",
"R.R.R.R.R.R.R.R.R.R.R.R.R.R.R.R.R.R.R.R.9 9 r e p 2.2.p.s.s.s.s.s.s.9.2.<.e e 9 9 >     R.R.R.R.R.R.R.R.R.R.R.R.R.R.R.R.R.R.R.R.",
"R.R.R.R.R.R.R.R.R.R.R.R.R.R.R.          1.1.a.j.x.K.P.H.K.K.K.K.K.K.K.K.H.j.j.r.4.~           R.R.R.R.R.R.R.R.R.R.R.R.R.R.R.R.R.",
"R.R.R.R.R.R.R.R.R.R.R.R.R.R.R.          1.1.a.j.x.K.K.K.K.K.K.K.K.K.K.K.H.j.j.r.4.~           R.R.R.R.R.R.R.R.R.R.R.R.R.R.R.R.R.",
"R.R.R.R.R.R.R.R.R.R.R.R.R.        i u.u.F.F.F.H.H.K.K.K.K.K.K.K.K.K.K.K.K.G.H.F.F.B.u.u.@         R.R.R.R.R.R.R.R.R.R.R.R.R.R.R.",
"R.R.R.R.R.R.R.R.R.R.R.R.R.        a j.j.K.K.K.K.K.K.K.K.K.K.K.K.K.K.K.K.K.K.K.K.H.F.j.j.@         R.R.R.R.R.R.R.R.R.R.R.R.R.R.R.",
"R.R.R.R.R.R.R.R.R.R.R.R.R.    t y *.V.N.K.K.K.K.K.K.K.K.K.K.K.K.K.K.K.K.K.K.K.K.K.H.N.N.Y y >         R.R.R.R.R.R.R.R.R.R.R.R.R.",
"R.R.R.R.R.R.R.R.R.R.R.R.R.    ;.1.g.P.H.K.K.K.K.K.K.K.K.K.K.K.K.K.K.K.K.K.K.K.H.K.K.H.P.q.1.y         R.R.R.R.R.R.R.R.R.R.R.R.R.",
"R.R.R.R.R.R.R.R.R.R.R.R.R.    ;.4.z.K.K.K.K.K.K.K.K.K.K.K.K.K.K.K.K.K.K.H.H.K.P.K.K.K.K.q.4.u X X . . R.R.R.R.R.R.R.R.R.R.R.R.R.",
"R.R.R.R.R.R.R.R.R.R.          u.j.N.K.K.K.K.K.K.K.K.K.K.K.K.K.K.K.K.F.V.Z.Z.Z.H.K.K.K.K.k.j.:.D J 6 6 %     R.R.R.R.R.R.R.R.R.R.",
"R.R.R.R.R.R.R.R.R.R.          u.j.B.K.K.K.K.K.K.K.K.K.K.K.K.K.K.K.H.G.Z.Z.Z.V.H.K.P.K.K.k.j.:.D J 6 6 $     R.R.R.R.R.R.R.R.R.R.",
"R.R.R.R.R.R.R.R.R.R.    % q q b.V.G.K.K.K.K.K.K.K.K.K.K.K.K.K.K.K.P.H.G.G.Z.Z.V.F.F.K.K.S.A.p.o.{ y.y.#.I y     R.R.R.R.R.R.R.R.",
"R.R.R.R.R.R.R.R.R.R.    & J J A.K.K.K.K.K.K.K.K.K.K.K.K.K.K.K.K.K.K.K.K.K.V.V.Z.V.S.P.K.K.K.g.1.1.Z.Z.a.1.~     R.R.R.R.R.R.R.R.",
"R.R.R.R.R.R.R.R.R.R.    ; Q Q F.K.K.K.K.K.K.K.K.K.K.K.K.K.K.K.K.K.K.K.K.H.F.S.B.m.V.H.K.K.K.g.1.1.M.M.s.i.&.> > R.R.R.R.R.R.R.R.",
"R.R.R.R.R.R.R.R.R.R.    > 1.1.F.K.K.K.K.K.K.K.K.K.K.K.K.K.K.K.K.K.K.K.K.K.K.K.x.j.x.H.P.K.K.g.1.1.j.j.V.K.V.1.1.>     R.R.R.R.R.",
"R.R.R.R.R.R.R.R.R.R.    > 1.1.F.K.K.K.K.K.K.K.K.K.K.K.K.K.K.K.K.K.K.K.K.K.K.K.x.j.x.K.K.K.K.g.1.1.j.j.V.K.N.1.1.>     R.R.R.R.R.",
"R.R.R.R.R.R.R.R.R.R.    > 1.1.F.K.K.K.K.K.K.K.K.K.K.K.K.K.K.K.K.K.K.K.K.H.Z.S.e.1.s.K.K.K.K.m.f.f.j.j.V.K.N.1.1.>     R.R.R.R.R.",
"R.R.R.R.R.R.R.R.R.R.    > 1.1.F.K.K.K.K.K.K.K.K.K.K.K.K.K.K.K.K.K.K.K.K.K.Z.Z.w.1.w.K.K.K.K.B.j.j.j.j.V.K.N.1.1.>     R.R.R.R.R.",
"R.R.R.R.R.R.R.R.R.R.< < 0 1.1.F.K.K.K.K.K.K.K.K.K.K.K.G.G.H.P.K.K.K.L.G.D.m.m.q.1.w.K.K.K.K.B.j.j.j.j.V.K.N.1.1.>     R.R.R.R.R.",
"R.R.R.R.R.R.R.R.    s n K 1.1.L.K.K.K.K.K.K.K.K.K.K.K.G.V.F.H.K.K.K.G.Z.B.j.j.5.1.w.K.K.K.K.M.j.j.j.j.V.K.N.1.1.>     R.R.R.R.R.",
"R.R.R.R.R.R.R.R.    s n D 1.1.F.K.K.K.K.K.K.K.K.K.K.K.D.Z.D.K.K.K.K.G.Z.B.j.j.5.1.w.K.K.K.K.B.f.j.j.j.V.P.N.1.1.>     R.R.R.R.R.",
"R.R.R.R.R.          s n M J J A.K.K.K.K.K.K.K.K.K.K.K.S.Z.Z.Z.Z.Z.Z.n.j.f.4.4.a.j.x.K.K.K.K.g.4.4.f.j.q.1.^           R.R.R.R.R.",
"R.R.R.R.R.          s n M J D A.K.K.K.K.K.K.K.K.K.K.K.D.Z.Z.Z.Z.Z.Z.n.j.d.4.1.a.j.x.K.K.K.P.g.4.1.f.j.q.1.^           R.R.R.R.R.",
"R.R.R.R.R.    # c.c.P ( Z h w h.x.B.F.F.K.K.K.K.K.K.K.G.G.V.x.x.x.x.f.q.q.a.a.m.A.S.K.K.m.m.3.x H o.o.I 9 8       R.R.R.R.R.R.R.",
"R.R.R.R.R.    , T.T.4.) S 6 6 p.j.x.S.Z.P.H.K.P.K.K.K.K.K.V.j.j.j.j.e.1.4.j.j.S.K.K.K.K.l.j.$.6 6 D J 2         R.R.R.R.R.R.R.R.",
"R.R.R.R.R.    , Y.Y.8._ L 6 6 w.f.x.V.V.H.H.H.H.K.K.P.L.L.V.j.j.n.n.i.=.>.f.f.L.P.J.C.C.j.f.^ 1 1 c c :         R.R.R.R.R.R.R.R.",
"R.R.R.R.R.    O ) )  .6.} 6 6 =.4.e.j.j.Z.Z.Z.V.F.K.H.S.Z.m.j.j.T.T.v.6 7 1.1.U.T.I.6 6 =.1.y         R.R.R.R.R.R.R.R.R.R.R.R.R.",
"R.R.R.R.R.    X ) )  .6.} 6 6 =.1.e.j.j.Z.Z.Z.V.S.H.P.S.Z.m.j.j.T.T.v.6 7 1.1.U.T.I.6 6 =.1.y         R.R.R.R.R.R.R.R.R.R.R.R.R.",
"R.R.R.R.R.    O ) ) ..6.| j j x z %.j.j.l.l.l.l.l.n.x.t.8.+.F F ,.,.%.[ %.z z %.,.%.B B 8 > @     R.R.R.R.R.R.R.R.R.R.R.R.R.R.R.",
"R.R.R.R.R.    O ) ) X.6.| n n 4 4 ~ j.j.j.j.j.j.j.j.j.7.6.` 6 6 J J [ 1.=.6 6 B D J J J X         R.R.R.R.R.R.R.R.R.R.R.R.R.R.R.",
"R.R.R.R.R.    X V V  .6...K K f d R -.-.a.a.f.j.j.j.f.t.8.+.T T { =.1.w.r.T T ! ] E q q .         R.R.R.R.R.R.R.R.R.R.R.R.R.R.R.",
"R.R.R.R.R.    . 6 6 } 6...) ) n n f 6 6 4.1.a.j.j.j.j.j.j.j.j.j.j.j.j.j.j.j.j.5.1.~           R.R.R.R.R.R.R.R.R.R.R.R.R.R.R.R.R.",
"R.R.R.R.R.    . 6 6 } 6.X.) ) m n f 6 6 1.1.a.j.j.j.j.j.j.j.j.j.j.j.j.j.j.j.j.5.1.~           R.R.R.R.R.R.R.R.R.R.R.R.R.R.R.R.R.",
"R.R.R.R.R.R.R.R.. X k C K ) ) m n N b b + + + @ 8 ] ' >.4.4.4.4.5.1.o.Q J w 7 ; + +     R.R.R.R.R.R.R.R.R.R.R.R.R.R.R.R.R.R.R.R.",
"R.R.R.R.R.R.R.R.    s n K ) ) m n n n n         ; A J O.1.1.1.1.1.1.[ J A 6 6 o         R.R.R.R.R.R.R.R.R.R.R.R.R.R.R.R.R.R.R.R.",
"R.R.R.R.R.R.R.R.    < 3 5 K K n n n n n 3 3 $   % l l H R W ' ' ' ' D D B & = X         R.R.R.R.R.R.R.R.R.R.R.R.R.R.R.R.R.R.R.R.",
"R.R.R.R.R.R.R.R.        * n n n n n n n n n <   o 6 6 6 6 d n n n n n n j     R.R.R.R.R.R.R.R.R.R.R.R.R.R.R.R.R.R.R.R.R.R.R.R.R.",
"R.R.R.R.R.R.R.R.        $ j j j j j j j j j -   X 1 1 1 1 4 j j j j j j g     R.R.R.R.R.R.R.R.R.R.R.R.R.R.R.R.R.R.R.R.R.R.R.R.R.",
"R.R.R.R.R.R.R.R.R.R.                        R.R.R.                        R.R.R.R.R.R.R.R.R.R.R.R.R.R.R.R.R.R.R.R.R.R.R.R.R.R.R.",
"R.R.R.R.R.R.R.R.R.R.                        R.R.R.                        R.R.R.R.R.R.R.R.R.R.R.R.R.R.R.R.R.R.R.R.R.R.R.R.R.R.R.",
"R.R.R.R.R.R.R.R.R.R.R.R.R.R.R.R.R.R.R.R.R.R.R.R.R.R.R.R.R.R.R.R.R.R.R.R.R.R.R.R.R.R.R.R.R.R.R.R.R.R.R.R.R.R.R.R.R.R.R.R.R.R.R.R.",
"R.R.R.R.R.R.R.R.R.R.R.R.R.R.R.R.R.R.R.R.R.R.R.R.R.R.R.R.R.R.R.R.R.R.R.R.R.R.R.R.R.R.R.R.R.R.R.R.R.R.R.R.R.R.R.R.R.R.R.R.R.R.R.R.",
"R.R.R.R.R.R.R.R.R.R.R.R.R.R.R.R.R.R.R.R.R.R.R.R.R.R.R.R.R.R.R.R.R.R.R.R.R.R.R.R.R.R.R.R.R.R.R.R.R.R.R.R.R.R.R.R.R.R.R.R.R.R.R.R.",
"R.R.R.R.R.R.R.R.R.R.R.R.R.R.R.R.R.R.R.R.R.R.R.R.R.R.R.R.R.R.R.R.R.R.R.R.R.R.R.R.R.R.R.R.R.R.R.R.R.R.R.R.R.R.R.R.R.R.R.R.R.R.R.R.",
"R.R.R.R.R.R.R.R.R.R.R.R.R.R.R.R.R.R.R.R.R.R.R.R.R.R.R.R.R.R.R.R.R.R.R.R.R.R.R.R.R.R.R.R.R.R.R.R.R.R.R.R.R.R.R.R.R.R.R.R.R.R.R.R.",
"R.R.R.R.R.R.R.R.R.R.R.R.R.R.R.R.R.R.R.R.R.R.R.R.R.R.R.R.R.R.R.R.R.R.R.R.R.R.R.R.R.R.R.R.R.R.R.R.R.R.R.R.R.R.R.R.R.R.R.R.R.R.R.R.",
"R.R.R.R.R.R.R.R.R.R.R.R.R.R.R.R.R.R.R.R.R.R.R.R.R.R.R.R.R.R.R.R.R.R.R.R.R.R.R.R.R.R.R.R.R.R.R.R.R.R.R.R.R.R.R.R.R.R.R.R.R.R.R.R.",
"R.R.R.R.R.R.R.R.R.R.R.R.R.R.R.R.R.R.R.R.R.R.R.R.R.R.R.R.R.R.R.R.R.R.R.R.R.R.R.R.R.R.R.R.R.R.R.R.R.R.R.R.R.R.R.R.R.R.R.R.R.R.R.R.",
"R.R.R.R.R.R.R.R.R.R.R.R.R.R.R.R.R.R.R.R.R.R.R.R.R.R.R.R.R.R.R.R.R.R.R.R.R.R.R.R.R.R.R.R.R.R.R.R.R.R.R.R.R.R.R.R.R.R.R.R.R.R.R.R.",
"R.R.R.R.R.R.R.R.R.R.R.R.R.R.R.R.R.R.R.R.R.R.R.R.R.R.R.R.R.R.R.R.R.R.R.R.R.R.R.R.R.R.R.R.R.R.R.R.R.R.R.R.R.R.R.R.R.R.R.R.R.R.R.R.",
"R.R.R.R.R.R.R.R.R.R.R.R.R.R.R.R.R.R.R.R.R.R.R.R.R.R.R.R.R.R.R.R.R.R.R.R.R.R.R.R.R.R.R.R.R.R.R.R.R.R.R.R.R.R.R.R.R.R.R.R.R.R.R.R.",
"R.R.R.R.R.R.R.R.R.R.R.R.R.R.R.R.R.R.R.R.R.R.R.R.R.R.R.R.R.R.R.R.R.R.R.R.R.R.R.R.R.R.R.R.R.R.R.R.R.R.R.R.R.R.R.R.R.R.R.R.R.R.R.R."
};
