/* XPM */
static char *result[] = {
/* columns rows colors chars-per-pixel */
"64 64 241 2 ",
"   c black",
".  c #0E0002",
"X  c #0C0202",
"o  c #0D0202",
"O  c #0E0202",
"+  c #100303",
"@  c #110104",
"#  c #130106",
"$  c #160005",
"%  c #160404",
"&  c #160407",
"*  c #180404",
"=  c #160209",
"-  c #140508",
";  c #1A000A",
":  c #1B000A",
">  c #1C010A",
",  c #1E000B",
"<  c #1D010D",
"1  c #1B090E",
"2  c #1C090E",
"3  c #1D0B11",
"4  c #1F0E14",
"5  c #1F0E15",
"6  c #22060A",
"7  c #28000F",
"8  c #2D080E",
"9  c #200310",
"0  c #2A0E15",
"q  c #350014",
"w  c #37121C",
"e  c #37121D",
"r  c #44000F",
"t  c #4A0C0C",
"y  c #560E0E",
"u  c #430C15",
"i  c #440C15",
"p  c #450C16",
"a  c #4E001C",
"s  c #4F0E18",
"d  c #50001E",
"f  c #40141F",
"g  c #49111C",
"h  c #4A111C",
"j  c #4A151F",
"k  c #5A101C",
"l  c #780C16",
"z  c #631010",
"x  c #531B2B",
"c  c #620F2D",
"v  c #7D082D",
"b  c #661220",
"n  c #6C1321",
"m  c #631827",
"M  c #711424",
"N  c #5D2A3E",
"B  c #6C2235",
"V  c #6F2439",
"C  c #7B3852",
"Z  c #87001F",
"A  c #8A041E",
"S  c #9E0024",
"D  c #87182B",
"F  c #811E28",
"G  c #88182B",
"H  c #9C0831",
"J  c #9E1C31",
"K  c #9D133C",
"L  c #A00423",
"P  c #AC042B",
"I  c #B50029",
"U  c #A1003D",
"Y  c #BA0932",
"T  c #BD0E38",
"R  c #8F2036",
"E  c #A6243D",
"W  c #B52039",
"Q  c #C10038",
"!  c #BB0048",
"~  c #8B2D48",
"^  c #80314A",
"/  c #A62640",
"(  c #BD2A46",
")  c #BF2A47",
"_  c #BF2A48",
"`  c #AF334E",
"'  c #A73350",
"]  c #A73756",
"[  c #C60740",
"{  c #CE0048",
"}  c #CB0B4D",
"|  c #D2004D",
" . c #D1094B",
".. c #C11442",
"X. c #D60052",
"o. c #D90155",
"O. c #D70956",
"+. c #DA0C56",
"@. c #DB0358",
"#. c #DE045B",
"$. c #D80B5A",
"%. c #DA0E5D",
"&. c #DC0C5C",
"*. c #C31155",
"=. c #E0065E",
"-. c #E1065E",
";. c #C42F4F",
":. c #C72856",
">. c #CA3659",
",. c #D81667",
"<. c #DD1569",
"1. c #E50964",
"2. c #E50965",
"3. c #E80A68",
"4. c #E80B68",
"5. c #EA0C6B",
"6. c #EC126D",
"7. c #ED126D",
"8. c #E51170",
"9. c #F11373",
"0. c #F51277",
"q. c #F51278",
"w. c #F7147B",
"e. c #F8137B",
"r. c #FA157E",
"t. c #CF3766",
"y. c #CE3E62",
"u. c #DC376B",
"i. c #DF386E",
"p. c #E53377",
"a. c #E63D77",
"s. c #E6387B",
"d. c #974161",
"f. c #B04669",
"g. c #B65075",
"h. c #B65276",
"j. c #B9547B",
"k. c #B9547C",
"l. c #C24065",
"z. c #CF4267",
"x. c #D9446C",
"c. c #D44A6F",
"v. c #DE4677",
"b. c #DC4972",
"n. c #DE4973",
"m. c #D8517C",
"M. c #D2597F",
"N. c #E14E79",
"B. c #FB1E82",
"V. c #FF1884",
"C. c #C75A82",
"Z. c #D45E8A",
"A. c #EB4686",
"S. c #E8458A",
"D. c #E45380",
"F. c #E25480",
"G. c #E75886",
"H. c #E75D8A",
"J. c #EA5D8C",
"K. c #EF5490",
"L. c #EA5198",
"P. c #DA618B",
"I. c #D86390",
"U. c #D86391",
"Y. c #DF6693",
"T. c #E2608C",
"R. c #ED6292",
"E. c #EF6395",
"W. c #E86595",
"Q. c #EA6A9B",
"!. c #F3639B",
"~. c #F06798",
"^. c #F0699D",
"/. c #F3699C",
"(. c #F36C9E",
"). c #F46C9F",
"_. c #F66FA2",
"`. c #E773A2",
"'. c #EE75A8",
"]. c #F771A5",
"[. c #F473A5",
"{. c #F773A7",
"}. c #F275AB",
"|. c #F277AA",
" X c #F875A9",
".X c #F877AB",
"XX c #F877AC",
"oX c #F47CAC",
"OX c #F979AD",
"+X c #F37DB2",
"@X c #F77BB7",
"#X c #F97DB0",
"$X c #F97DB3",
"%X c #FF7CBA",
"&X c #EB83B7",
"*X c #EB89B3",
"=X c #F780B1",
"-X c #F380B6",
";X c #F684B4",
":X c #FB81B5",
">X c #F981B7",
",X c #F581B9",
"<X c #FA83BA",
"1X c #FC86BA",
"2X c #FC87BC",
"3X c #C4A3A5",
"4X c #F78CC3",
"5X c #FB89C1",
"6X c #FE8EC2",
"7X c #FC8CC5",
"8X c #FD8EC4",
"9X c #FC8FC8",
"0X c #FC8FC9",
"qX c #FF92C6",
"wX c #F692C9",
"eX c #FA91C9",
"rX c #FC90C9",
"tX c #FE92C8",
"yX c #FE93C8",
"uX c #FC93CC",
"iX c #FD93CC",
"pX c #FF96CC",
"aX c #FD95CF",
"sX c #FB97D1",
"dX c #FD96D0",
"fX c #FE99D1",
"gX c #FF9AD2",
"hX c #FE99D4",
"jX c #FF9CD5",
"kX c #FF9ED8",
"lX c #FF9FDA",
"zX c #FFA6D1",
"xX c #FFA0DB",
"cX c #FFA1DD",
"vX c #FFA2DE",
"bX c #F3B7D1",
"nX c #D8C0C3",
"mX c #FFC2E0",
"MX c #ECDEE1",
"NX c #FFFBFF",
"BX c None",
/* pixels */
"BXBXBXBXBXBXBXBXBXBXBXBXBXBXBXBXBXBXBXBXBXBXBXBXBXBXBXBXBXBXBXBXBXBXBXBXBXBXBXBXBXBXBXBXBXBXBXBXBXBXBXBXBXBXBXBXBXBXBXBXBXBXBXBX",
"BXBXBXBXBXBXBXBXBXBXBXBXBXBXBXBXBXBXBXBXBXBXBXBXBXBXBXBXBXBXBXBXBXBXBXBXBXBXBXBXBXBXBXBXBXBXBXBXBXBXBXBXBXBXBXBXBXBXBXBXBXBXBXBX",
"BXBXBXBXBXBXBXBXBXBXBXBXBXBXBXBXBXBXBXBXBXBXBXBXBXBXBXBXBXBXBXBXBXBXBXBXBXBXBXBXBXBXBXBXBXBXBXBXBXBXBXBXBXBXBXBXBXBXBXBXBXBXBXBX",
"BXBXBXBXBXBXBXBXBXBXBXBXBXBXBXBXBXBXBXBXBXBXBXBXBXBXBXBXBXBXBXBXBXBXBXBXBXBXBXBXBXBXBXBXBXBXBXBXBXBXBXBXBXBXBXBXBXBXBXBXBXBXBXBX",
"BXBXBXBXBXBXBXBXBXBXBXBXBXBXBXBXBXBXBXBXBXBXBXBXBXBXBXBXBXBXBXBXBXBXBXBXBXBXBXBXBXBXBXBXBXBXBXBXBXBXBXBXBXBXBXBXBXBXBXBXBXBXBXBX",
"BXBXBXBXBXBXBXBXBXBXBXBXBXBXBXBXBXBXBXBXBXBXBXBXBXBXBXBXBXBXBXBXBXBXBXBXBXBXBXBXBXBXBXBXBXBXBXBXBXBXBXBXBXBXBXBXBXBXBXBXBXBXBXBX",
"BXBXBXBXBXBXBXBXBXBXBXBXBXBXBXBXBXBXBXBXBXBXBXBXBXBXBXBXBXBXBXBXBXBXBXBXBXBXBXBXBXBXBXBXBXBXBXBXBXBXBXBXBXBXBXBXBXBXBXBXBXBXBXBX",
"BXBXBXBXBXBXBXBXBXBXBXBXBXBXBXBXBXBXBXBXBXBXBXBXBXBXBXBXBXBXBXBXBXBXBXBXBXBXBXBXBXBXBXBXBXBXBXBXBXBXBXBXBXBXBXBXBXBXBXBXBXBXBXBX",
"BXBXBXBXBXBXBXBXBXBXBXBXBXBXBXBXBXBXBXBXBXBXBXBXBXBXBXBXBXBXBXBXBXBXBXBXBXBXBXBXBXBXBXBXBXBXBXBXBXBXBXBXBXBXBXBXBXBXBXBXBXBXBXBX",
"BXBXBXBXBXBXBXBXBXBXBXBXBXBXBXBXBXBXBXBXBXBXBXBXBXBXBXBXBXBXBXBXBXBXBXBXBXBXBXBXBXBXBXBXBXBXBXBXBXBXBXBXBXBXBXBXBXBXBXBXBXBXBXBX",
"BXBXBXBXBXBXBXBXBXBXBXBXBXBXBXBXBXBXBXBXBXBXBXBXBXBXBXBXBXBXBXBXBXBXBXBXBXBXBXBXBXBXBXBXBXBXBXBXBXBXBXBXBXBXBXBXBXBXBXBXBXBXBXBX",
"BXBXBXBXBXBXBXBXBXBXBXBXBXBXBXBXBXBXBXBXBXBXBXBXBXBXBX                BXBXBXBXBXBXBXBXBX                BXBXBXBXBXBXBXBXBXBXBXBX",
"BXBXBXBXBXBXBXBXBXBXBXBXBXBXBXBXBXBXBXBXBXBXBXBXBXBX                    BXBXBXBXBXBXBX                    BXBXBXBXBXBXBXBXBXBXBX",
"BXBXBXBXBXBXBXBXBXBXBXBXBXBXBXBXBXBXBXBXBXBXBXBXBXBXO X = 9 9 9 9 < ; , BXBXBXBXBXBXBXO X # ; ; 9 9 > $ . BXBXBXBXBXBXBXBXBXBXBX",
"BXBXBXBXBXBXBXBXBXBXBXBXBXBXBXBXBXBXBXBXBXBXBXBX    y z K V.V.V.V.2.X.!               y z H X.@.V.V. .I Z     BXBXBXBXBXBXBXBXBX",
"BXBXBXBXBXBXBXBXBXBXBXBXBXBXBXBXBXBXBXBXBXBXBXBX    y z K V.V.V.V.2.X.!               y z H X.@.V.V. .I Z     BXBXBXBXBXBXBXBXBX",
"BXBXBXBXBXBXBXBXBXBXBXBXBXBXBXBXBXBXBX        % t t 3XnX*XV.V.V.V.e.q.8.U U 7         A L } q.w.V.V.9.6.*.t t +     BXBXBXBXBXBX",
"BXBXBXBXBXBXBXBXBXBXBXBXBXBXBXBXBXBXBX        * z z MXNXzXV.V.V.V.V.V.r.X.X.q         S I +.V.V.V.V.V.V.,.z z X     BXBXBXBXBXBX",
"BXBXBXBXBXBXBXBXBXBXBXBXBXBXBXBXBXBXBX    1 w j F F bXmX%XV.V.V.V.V.V.r.-.-.c w w w w P I +.V.V.V.V.V.V.<.l l @     BXBXBXBXBXBX",
"BXBXBXBXBXBXBXBXBXBXBXBXBXBXBXBX          ~ n.n.n.n.B.V.V.V.V.V.V.V.V.V.V.V.a.n.n.n.n.Y I +.V.V.V.V.V.V.7.I I $     BXBXBXBXBXBX",
"BXBXBXBXBXBXBXBXBXBXBXBXBXBXBXBX          ~ n.n.n.n.B.V.V.V.V.V.V.V.V.V.V.V.a.n.n.n.n.Y I +.V.V.V.V.V.V.7.I I $     BXBXBXBXBXBX",
"BXBXBXBXBXBXBXBXBXBXBXBXBXBX        5 U.U.&XsX-Xn.n.&.@.3.V.V.V.V.V.V.r.@.@.i.n.W.sXsX^.E.p.@.=.V.V.V.V.0.| | :     BXBXBXBXBXBX",
"BXBXBXBXBXBXBXBXBXBXBXBXBXBX        5 ].].9XvX4Xn.n.O.X.2.V.V.V.V.V.V.r.X.X.u.n.Q.vXvXXX].s.X.@.V.V.V.V.0.X.X.:     BXBXBXBXBXBX",
"BXBXBXBXBXBXBXBXBXBXBXBXBXBX    e V ^ 5X5XhXvXeXJ.J.$.X.#.5.5.5.5.5.5.4.X.X.u.n.Q.vXvX7X5XS.X.o.5.5.5.5.1.X.X.:     BXBXBXBXBXBX",
"BXBXBXBXBXBXBXBXBXBXBXBXBXBX    V n.F.vXvXvXvXaX].].%.X.X.X.X.X.X.X.X.X.X.X.u.n.Q.vXvXvXvXL.X.X.X.X.X.X.X.X.X.:     BXBXBXBXBXBX",
"BXBXBXBXBXBXBXBXBXBXBXBXBXBX    V n.F.vXvXvXvXaX].].%.X.X.X.X.X.X.X.X.X.X.X.u.n.Q.vXvXvXvXL.X.X.X.X.X.X.X.X.X.:     BXBXBXBXBXBX",
"BXBXBXBXBXBXBXBXBXBXBXBX        C ].XXvXvXvXvXvXvXvXXX].v.I I X.X.X.X.X.X.X.K.].<XvXvXvXvX5X].!.X.X.X.X.{ I I $     BXBXBXBXBXBX",
"BXBXBXBXBXBXBXBXBXBXBXBX        C ].XXvXvXvXvXvXvXvXXX].v.I I X.X.X.X.X.X.X.K.].<XvXvXvXvX5X].!.X.X.X.X.{ I I $     BXBXBXBXBXBX",
"BXBXBXBXBXBXBXBXBXBXBXBX    b M h.rXuXvXvXvXvXvXvXvXiXrX}.v.v.Q Q Q Q [ A.A.@XrXdXvXvXvXvXhXrX,X....v d a r r BXBXBXBXBXBXBXBXBX",
"BXBXBXBXBXBXBXBXBXBXBXBX    J W P.vXvXvXvXvXvXvXvXvXvXvX0X].].I I I I T ].].dXvXvXvXvXvXvXvXvXwXW W u         BXBXBXBXBXBXBXBXBX",
"BXBXBXBXBXBXBXBXBXBXBXBX    E ) Y.vXvXvXvXvXvXvXvXvXvXvXiX$X$X:.:.:.:.t.$X$XhXvXvXvXvXvXvXvXvXwX) ) h         BXBXBXBXBXBXBXBXBX",
"BXBXBXBXBXBXBXBXBXBXBXBX    l.n.'.vXvXvXvXvXvXvXvXvXvXvXvXvXvXvXvXvXvXvXvXvXvXvXvXvXvXvXvXvXvXsXn.n.x     BXBXBXBXBXBXBXBXBXBXBX",
"BXBXBXBXBXBXBXBXBXBXBXBX    l.n.'.vXvXvXvXvXvXvXvXvXvXvXvXvXvXvXvXvXvXvXvXvXvXvXvXvXvXvXvXvXvXsXn.n.x     BXBXBXBXBXBXBXBXBXBXBX",
"BXBXBXBXBXBXBXBXBX          l.n.'.vXvXvXvXvXvXvXvXvXvXvXvXvXvXvXvXvXvXvXvXvXvXvXvXvXvXvXvXvXvXsXn.n.x     BXBXBXBXBXBXBXBXBXBXBX",
"BXBXBXBXBXBXBXBXBX          l.n.'.vXvXvXvXvXvXvXvXvXvXvXvXvXvXvXvXvXvXvXvXvXvXvXvXvXvXvXvXvXvXsXn.n.x     BXBXBXBXBXBXBXBXBXBXBX",
"BXBXBXBXBXBXBXBXBXp i g x x m.G.+XvXvXvXvXvXvXvXvXvXvXvXvXvXvXvXvXvXvXvXvXvXvXvXvXvXvXvXvXvXvXsXn.n.x     BXBXBXBXBXBXBXBXBXBXBX",
"BXBXBXBXBXBXBX    G W ;.n.n.).].5XvXvXvXvXvXvXvXvXvXvXvXvXvXvXvXvXvXvXvXvXvXvXvXvXvXvXvXvXvXvXsXn.n.x     BXBXBXBXBXBXBXBXBXBXBX",
"BXBXBXBXBXBXBX    G W ;.n.n.).].5XvXvXvXvXvXvXvXvXvXvXvXvXvXvXvXvXvXvXvXvXvXvXvXvXvXvXvXvXvXvXsXn.n.x     BXBXBXBXBXBXBXBXBXBXBX",
"BXBXBXBXBXBXBX    ] n.Q.vXvXvXvXvXvXvXvXvXvXvXvXvXvXvXvXvXvXvXvXvXvXvXvXvXvXvXvXvXvXvXvXvXgXqX;XW W u     BXBXBXBXBXBXBXBXBXBXBX",
"BXBXBXBXBXBXBX    ] n.Q.vXvXvXvXvXvXvXvXvXvXvXvXvXvXvXvXvXvXvXvXvXvXvXvXvXvXvXvXvXvXvXvXvXgXqX;XW W u     BXBXBXBXBXBXBXBXBXBXBX",
"BXBXBXBXBXBXBX    f.J.|.vXvXvXvXvXvXcXgXgXgXgXjXvXvXvXvXvXvXvXvXvXvXvXvXvXvXvXvXlXgXgXgXgX8X:X`.k k 6     BXBXBXBXBXBXBXBXBXBXBX",
"BXBXBXBXBXBXBX    k.].<XvXvXvXvXvXvXxXqXqXqXqXpXvXvXvXvXvXvXvXvXvXvXvXvXvXvXvXvXjXqXqXqXqX:X].I.          BXBXBXBXBXBXBXBXBXBXBX",
"BXBXBXBXBXBXBX    g.(.>XvXvXvXvXcXxXkX6X6X6X6XyXxXxXxXxXxXxXxXxXxXxXxXxXxXxXxXxXfX6X6X6X6X#X(.Z.          BXBXBXBXBXBXBXBXBXBXBX",
"BXBXBXBXBXBXBX    ] n.Q.vXvXvXvXgXqX6X].].].].OXqXqXqXqXqXqXqXqXqXqXqXqXqXqXqXqX1X].].].].J.n.l.    BXBXBXBXBXBXBXBXBXBXBXBXBXBX",
"BXBXBXBXBXBXBX    ] n.Q.vXvXvXvXgXqX6X].].].].OXqXqXqXqXqXqXqXqXqXqXqXqXqXqXqXqX1X].].].].J.n.l.    BXBXBXBXBXBXBXBXBXBXBXBXBXBX",
"BXBXBXBXBXBXBX    R _ c.$X$XtXpX2XOX.X].].].].{.OXOXOXOXOXOXOXOXOXOXOXOXOXOXOXOX X].].].].d.e 0     BXBXBXBXBXBXBXBXBXBXBXBXBXBX",
"BXBXBXBXBXBXBX    G W y.].].6XqX:X].].].].].].].].].].].].].].].].].].].].].].].].].].].].C         BXBXBXBXBXBXBXBXBXBXBXBXBXBX",
"BXBXBXBXBXBXBX    n D ' H.H.oX=X[.~.~.M.M.T.~./.].].].].].].].].].].].].].].].]._.~.~.C.j.N         BXBXBXBXBXBXBXBXBXBXBXBXBXBX",
"BXBXBXBXBXBXBXBXBX    i W W x.n.n.n.z.z z ` n.D.].].].].].].].].].].].].].].].].R.n.n.2         BXBXBXBXBXBXBXBXBXBXBXBXBXBXBXBX",
"BXBXBXBXBXBXBXBXBX    i W W x.n.n.n.z.z z ` n.D.].].].].].].].].].].].].].].].].R.n.n.2         BXBXBXBXBXBXBXBXBXBXBXBXBXBXBXBX",
"BXBXBXBXBXBXBXBXBXBXBXBX& & 2 2 2 2 2 o o - 2 2 4 4 / ( >.N.N.N.N.N.N.b.( ( f 4 3 2 2       BXBXBXBXBXBXBXBXBXBXBXBXBXBXBXBXBXBX",
"BXBXBXBXBXBXBXBXBXBXBXBX                            J W ;.n.n.n.n.n.n.x.W W 8               BXBXBXBXBXBXBXBXBXBXBXBXBXBXBXBXBXBX",
"BXBXBXBXBXBXBXBXBXBXBXBX                            s k m V V V V V V B k k &             BXBXBXBXBXBXBXBXBXBXBXBXBXBXBXBXBXBXBX",
"BXBXBXBXBXBXBXBXBXBXBXBXBXBXBXBXBXBXBXBXBXBXBXBX                                  BXBXBXBXBXBXBXBXBXBXBXBXBXBXBXBXBXBXBXBXBXBXBX",
"BXBXBXBXBXBXBXBXBXBXBXBXBXBXBXBXBXBXBXBXBXBXBXBX                                  BXBXBXBXBXBXBXBXBXBXBXBXBXBXBXBXBXBXBXBXBXBXBX",
"BXBXBXBXBXBXBXBXBXBXBXBXBXBXBXBXBXBXBXBXBXBXBXBXBXBXBXBXBXBXBXBXBXBXBXBXBXBXBXBXBXBXBXBXBXBXBXBXBXBXBXBXBXBXBXBXBXBXBXBXBXBXBXBX",
"BXBXBXBXBXBXBXBXBXBXBXBXBXBXBXBXBXBXBXBXBXBXBXBXBXBXBXBXBXBXBXBXBXBXBXBXBXBXBXBXBXBXBXBXBXBXBXBXBXBXBXBXBXBXBXBXBXBXBXBXBXBXBXBX",
"BXBXBXBXBXBXBXBXBXBXBXBXBXBXBXBXBXBXBXBXBXBXBXBXBXBXBXBXBXBXBXBXBXBXBXBXBXBXBXBXBXBXBXBXBXBXBXBXBXBXBXBXBXBXBXBXBXBXBXBXBXBXBXBX",
"BXBXBXBXBXBXBXBXBXBXBXBXBXBXBXBXBXBXBXBXBXBXBXBXBXBXBXBXBXBXBXBXBXBXBXBXBXBXBXBXBXBXBXBXBXBXBXBXBXBXBXBXBXBXBXBXBXBXBXBXBXBXBXBX",
"BXBXBXBXBXBXBXBXBXBXBXBXBXBXBXBXBXBXBXBXBXBXBXBXBXBXBXBXBXBXBXBXBXBXBXBXBXBXBXBXBXBXBXBXBXBXBXBXBXBXBXBXBXBXBXBXBXBXBXBXBXBXBXBX",
"BXBXBXBXBXBXBXBXBXBXBXBXBXBXBXBXBXBXBXBXBXBXBXBXBXBXBXBXBXBXBXBXBXBXBXBXBXBXBXBXBXBXBXBXBXBXBXBXBXBXBXBXBXBXBXBXBXBXBXBXBXBXBXBX",
"BXBXBXBXBXBXBXBXBXBXBXBXBXBXBXBXBXBXBXBXBXBXBXBXBXBXBXBXBXBXBXBXBXBXBXBXBXBXBXBXBXBXBXBXBXBXBXBXBXBXBXBXBXBXBXBXBXBXBXBXBXBXBXBX",
"BXBXBXBXBXBXBXBXBXBXBXBXBXBXBXBXBXBXBXBXBXBXBXBXBXBXBXBXBXBXBXBXBXBXBXBXBXBXBXBXBXBXBXBXBXBXBXBXBXBXBXBXBXBXBXBXBXBXBXBXBXBXBXBX",
"BXBXBXBXBXBXBXBXBXBXBXBXBXBXBXBXBXBXBXBXBXBXBXBXBXBXBXBXBXBXBXBXBXBXBXBXBXBXBXBXBXBXBXBXBXBXBXBXBXBXBXBXBXBXBXBXBXBXBXBXBXBXBXBX"
};
