/* XPM */
static char *result[] = {
/* columns rows colors chars-per-pixel */
"64 64 165 2 ",
"   c black",
".  c #0C0203",
"X  c #150306",
"o  c #1A0404",
"O  c #1B000A",
"+  c #1C090E",
"@  c #1F0D14",
"#  c gray12",
"$  c #101010",
"%  c #250606",
"&  c #220409",
"*  c #2D000A",
"=  c #2D080E",
"-  c #310808",
";  c #38000D",
":  c #320C12",
">  c #3C0B13",
",  c #37121D",
"<  c #3B111A",
"1  c #44000F",
"2  c #560E0E",
"3  c #440C15",
"4  c #5A0014",
"5  c #40141F",
"6  c #6D0E13",
"7  c #73051A",
"8  c #631010",
"9  c #72171C",
"0  c #531B2B",
"q  c #451723",
"w  c #711424",
"e  c #741925",
"r  c #5C2A3E",
"t  c #582335",
"y  c #6F2439",
"u  c #612032",
"i  c #7E2A41",
"p  c #6C3148",
"a  c #7F344C",
"s  c #7B3852",
"d  c #87001F",
"f  c #820A19",
"g  c #8B081C",
"h  c #81161F",
"j  c #9E0024",
"k  c #91032A",
"l  c #8C1824",
"z  c #821E29",
"x  c #88182B",
"c  c #801924",
"v  c #9E1C32",
"b  c #A00423",
"n  c #AA0226",
"m  c #A40F2C",
"M  c #B50029",
"N  c #B9002E",
"B  c #B5082D",
"V  c #B00127",
"C  c #A01C2F",
"Z  c #AA0639",
"A  c #BE0234",
"S  c #BB063C",
"D  c #AA1E34",
"F  c #BF123B",
"G  c #BA1538",
"H  c #882835",
"J  c #942637",
"K  c #B52039",
"L  c #C3003A",
"P  c #BC0645",
"I  c #872B44",
"U  c #9B2B46",
"Y  c #80314A",
"T  c #9A3447",
"R  c #A02C42",
"E  c #B32945",
"W  c #BE2A46",
"Q  c #B0344E",
"!  c #A73756",
"~  c #A53C56",
"^  c #BE3755",
"/  c #CA0043",
"(  c #D60052",
")  c #DB0358",
"_  c #C51558",
"`  c #C9244E",
"'  c #C42F4F",
"]  c #C93456",
"[  c #CF395D",
"{  c #D81667",
"}  c #E7146D",
"|  c #EC126E",
" . c #EF1270",
".. c #F51277",
"X. c #F51278",
"o. c #C62F60",
"O. c #CE3E62",
"+. c #CD326E",
"@. c #D43F64",
"#. c #D63773",
"$. c #E0387A",
"%. c #9F425E",
"&. c #AD405A",
"*. c #BA495B",
"=. c #BB4C72",
"-. c #B94F72",
";. c #CF4267",
":. c #C24D6E",
">. c #C34566",
",. c #D4466C",
"<. c #D6486F",
"1. c #C7576A",
"2. c #DE4973",
"3. c #D05177",
"4. c #C65477",
"5. c #E14E79",
"6. c #FF1884",
"7. c #FD2E8C",
"8. c #FE3892",
"9. c #DD5E89",
"0. c #E35480",
"q. c #E75986",
"w. c #E65F8E",
"e. c #EA5D8C",
"r. c #FD4698",
"t. c #C46182",
"y. c #D86391",
"u. c #E2618C",
"i. c #E9608E",
"p. c #E56593",
"a. c #EC6292",
"s. c #EA6A9B",
"d. c #F06798",
"f. c #F36C9E",
"g. c #EE75A8",
"h. c #EC75A7",
"j. c #F771A5",
"k. c #F877AC",
"l. c #F979AD",
"z. c #F078AC",
"x. c #F97DB2",
"c. c #9F9D9F",
"v. c #B18587",
"b. c #EA85BA",
"n. c #FA81B3",
"m. c #FB85BA",
"M. c #FD89BD",
"N. c #F78CC3",
"B. c #FC8BC2",
"V. c #FC8FC9",
"C. c #EC90C4",
"Z. c #FF92C6",
"A. c #F692C9",
"S. c #FE95CB",
"D. c #FF98CF",
"F. c #FB97D1",
"G. c #FF9BD5",
"H. c #FF9ED9",
"J. c #FFA2DE",
"K. c #FFADE2",
"L. c #D8C0C3",
"P. c #F7CEDC",
"I. c #FADCE9",
"U. c #FFFBFF",
"Y. c None",
/* pixels */
"Y.Y.Y.Y.Y.Y.Y.Y.Y.Y.Y.Y.Y.Y.Y.Y.Y.Y.Y.Y.Y.Y.Y.Y.Y.Y.Y.Y.Y.Y.Y.Y.Y.Y.Y.Y.Y.Y.Y.Y.Y.Y.Y.Y.Y.Y.Y.Y.Y.Y.Y.Y.Y.Y.Y.Y.Y.Y.Y.Y.Y.Y.Y.Y.",
"Y.Y.Y.Y.Y.Y.Y.Y.Y.Y.Y.Y.Y.Y.Y.Y.Y.Y.Y.Y.Y.Y.Y.Y.Y.Y.Y.Y.Y.Y.Y.Y.Y.Y.Y.Y.Y.Y.Y.Y.Y.Y.Y.Y.Y.Y.Y.Y.Y.Y.Y.Y.Y.Y.Y.Y.Y.Y.Y.Y.Y.Y.Y.Y.",
"Y.Y.Y.Y.Y.Y.Y.Y.Y.Y.Y.Y.Y.Y.Y.Y.Y.Y.Y.Y.Y.Y.Y.Y.Y.Y.Y.Y.Y.Y.Y.Y.Y.Y.Y.Y.Y.Y.Y.Y.Y.Y.Y.Y.Y.Y.Y.Y.Y.Y.Y.Y.Y.Y.Y.Y.Y.Y.Y.Y.Y.Y.Y.Y.",
"Y.Y.Y.Y.Y.Y.Y.Y.Y.Y.Y.Y.Y.Y.Y.Y.Y.Y.Y.Y.Y.Y.Y.Y.Y.Y.Y.Y.Y.Y.Y.Y.Y.Y.Y.Y.Y.Y.Y.Y.Y.Y.Y.Y.Y.Y.Y.Y.Y.Y.Y.Y.Y.Y.Y.Y.Y.Y.Y.Y.Y.Y.Y.Y.",
"Y.Y.Y.Y.Y.Y.Y.Y.Y.Y.Y.Y.Y.Y.Y.Y.Y.Y.Y.Y.Y.Y.Y.Y.Y.Y.Y.Y.Y.Y.Y.Y.Y.Y.Y.Y.Y.Y.Y.Y.Y.Y.Y.Y.Y.Y.Y.Y.Y.Y.Y.Y.Y.Y.Y.Y.Y.Y.Y.Y.Y.Y.Y.Y.",
"Y.Y.Y.Y.Y.Y.Y.Y.Y.Y.Y.Y.Y.Y.Y.Y.Y.Y.Y.Y.Y.Y.Y.Y.Y.Y.Y.Y.Y.Y.Y.Y.Y.Y.Y.Y.Y.Y.Y.Y.Y.Y.Y.Y.Y.Y.Y.Y.Y.Y.Y.Y.Y.Y.Y.Y.Y.Y.Y.Y.Y.Y.Y.Y.",
"Y.Y.Y.Y.Y.Y.Y.Y.Y.Y.Y.Y.Y.Y.Y.Y.Y.Y.Y.Y.Y.Y.Y.Y.Y.Y.Y.Y.Y.Y.Y.Y.Y.Y.Y.Y.Y.Y.Y.Y.Y.Y.Y.Y.Y.Y.Y.Y.Y.Y.Y.Y.Y.Y.Y.Y.Y.Y.Y.Y.Y.Y.Y.Y.",
"Y.Y.Y.Y.Y.Y.Y.Y.Y.Y.Y.Y.Y.Y.Y.Y.Y.Y.Y.Y.Y.Y.Y.Y.Y.Y.Y.Y.Y.Y.Y.Y.Y.Y.Y.Y.Y.Y.Y.Y.Y.Y.Y.Y.Y.Y.Y.Y.Y.Y.Y.Y.Y.Y.Y.Y.Y.Y.Y.Y.Y.Y.Y.Y.",
"Y.Y.Y.Y.Y.Y.Y.Y.Y.Y.Y.Y.Y.Y.Y.Y.Y.Y.Y.Y.Y.Y.Y.Y.Y.Y.Y.Y.Y.Y.Y.Y.Y.Y.Y.Y.Y.Y.Y.Y.Y.Y.Y.Y.Y.Y.Y.Y.Y.Y.Y.Y.Y.Y.Y.Y.Y.Y.Y.Y.Y.Y.Y.Y.",
"Y.Y.Y.Y.Y.Y.Y.Y.Y.Y.Y.Y.Y.Y.Y.Y.Y.Y.Y.Y.Y.Y.Y.Y.Y.                                  Y.Y.Y.Y.Y.Y.Y.Y.Y.Y.Y.Y.Y.Y.Y.Y.Y.Y.Y.Y.Y.Y.",
"Y.Y.Y.Y.Y.Y.Y.Y.Y.Y.Y.Y.Y.Y.Y.Y.Y.Y.Y.Y.Y.Y.Y.Y.Y.                                  Y.Y.Y.Y.Y.Y.Y.Y.Y.Y.Y.Y.Y.Y.Y.Y.Y.Y.Y.Y.Y.Y.",
"Y.Y.Y.Y.Y.Y.Y.Y.Y.Y.Y.Y.Y.Y.Y.Y.Y.Y.Y.Y.              w x U ~ ~ ! ! ! ! T x x &         Y.Y.Y.Y.Y.Y.Y.Y.Y.Y.Y.Y.Y.Y.Y.Y.Y.Y.Y.Y.",
"Y.Y.Y.Y.Y.Y.Y.Y.Y.Y.Y.Y.Y.Y.Y.Y.Y.Y.Y.Y.              v K ] 2.2.2.2.2.2.@.K K =         Y.Y.Y.Y.Y.Y.Y.Y.Y.Y.Y.Y.Y.Y.Y.Y.Y.Y.Y.Y.",
"Y.Y.Y.Y.Y.Y.Y.Y.Y.Y.Y.Y.Y.Y.Y.Y.Y.Y.Y.Y.    q 0 t r r :.3.9.s.s.s.s.s.s.p.3.3.a r r 0 0 Y.Y.Y.Y.Y.Y.Y.Y.Y.Y.Y.Y.Y.Y.Y.Y.Y.Y.Y.Y.",
"Y.Y.Y.Y.Y.Y.Y.Y.Y.Y.Y.Y.Y.Y.Y.Y.Y.          ! 2.0.j.j.G.J.J.J.J.J.J.J.J.J.J.J.x.j.a.5.2.          Y.Y.Y.Y.Y.Y.Y.Y.Y.Y.Y.Y.Y.Y.Y.",
"Y.Y.Y.Y.Y.Y.Y.Y.Y.Y.Y.Y.Y.Y.Y.Y.Y.          ! 2.0.j.j.H.J.J.J.J.J.J.J.J.J.J.J.x.j.a.2.2.          Y.Y.Y.Y.Y.Y.Y.Y.Y.Y.Y.Y.Y.Y.Y.",
"Y.Y.Y.Y.Y.Y.Y.Y.Y.Y.Y.Y.Y.Y.Y.        @ y.y.C.F.D.G.G.J.J.J.J.J.J.J.J.J.J.J.J.J.H.F.F.F.y.y.p         Y.Y.Y.Y.Y.Y.Y.Y.Y.Y.Y.Y.Y.",
"Y.Y.Y.Y.Y.Y.Y.Y.Y.Y.Y.Y.Y.Y.Y.        @ j.j.F.H.J.J.J.J.J.J.J.J.J.J.J.J.J.J.J.J.J.H.K.J.j.j.s         Y.Y.Y.Y.Y.Y.Y.Y.Y.Y.Y.Y.Y.",
"Y.Y.Y.Y.Y.Y.Y.Y.Y.Y.Y.Y.Y.        , y a B.B.G.K.J.J.J.J.J.J.J.J.J.J.J.J.J.J.J.J.J.J.J.J.B.B.-.p u     Y.Y.Y.Y.Y.Y.Y.Y.Y.Y.Y.Y.Y.",
"Y.Y.Y.Y.Y.Y.Y.Y.Y.Y.Y.Y.Y.        y 2.0.J.J.J.H.J.J.J.J.J.J.J.J.J.J.J.J.J.J.J.J.J.J.J.J.J.H.g.2.>.    Y.Y.Y.Y.Y.Y.Y.Y.Y.Y.Y.Y.Y.",
"Y.Y.Y.Y.Y.Y.Y.Y.Y.Y.Y.Y.Y.. . X X i 5.q.J.J.J.J.J.J.J.J.J.J.J.J.J.J.J.J.J.J.J.J.J.J.J.J.J.J.z.0.>.    Y.Y.Y.Y.Y.Y.Y.Y.Y.Y.Y.Y.Y.",
"Y.Y.Y.Y.Y.Y.Y.Y.Y.Y.    % 8 8 K G <.j.k.J.J.J.J.G.Z.M.Z.Z.G.J.J.J.J.J.J.J.J.J.J.J.J.J.J.J.J.N.j.y.          Y.Y.Y.Y.Y.Y.Y.Y.Y.Y.",
"Y.Y.Y.Y.Y.Y.Y.Y.Y.Y.    % 8 8 K K 3.j.k.J.J.J.J.J.Z.Z.Z.Z.D.J.J.J.J.J.J.J.J.J.J.J.J.J.J.J.J.B.j.y.          Y.Y.Y.Y.Y.Y.Y.Y.Y.Y.",
"Y.Y.Y.Y.Y.Y.Y.Y.    I I %.t.t.[ [ p.V.V.J.J.F.F.D.Z.Z.G.D.J.J.J.J.J.J.J.J.J.J.J.J.J.J.J.J.J.F.V.b.w w X     Y.Y.Y.Y.Y.Y.Y.Y.Y.Y.",
"Y.Y.Y.Y.Y.Y.Y.Y.    ! 2.p.Z.Z.2.2.g.J.J.J.J.F.V.V.Z.Z.J.J.J.J.J.J.J.J.J.J.J.J.J.J.J.J.J.J.J.J.J.A.K D =     Y.Y.Y.Y.Y.Y.Y.Y.Y.Y.",
"Y.Y.Y.Y.Y.Y.Y.Y., , =.w.j.M.M.2.2.g.J.J.J.J.V.M.B.S.S.J.J.J.J.J.J.J.J.J.J.J.J.J.J.J.J.J.J.J.J.J.A.` ' :     Y.Y.Y.Y.Y.Y.Y.Y.Y.Y.",
"Y.Y.Y.Y.Y.    , 2.2.N.J.V.j.j.2.2.g.J.K.J.J.x.j.x.J.J.J.J.J.J.J.J.J.J.J.J.J.J.J.J.J.J.J.J.J.J.J.A.2.2.,     Y.Y.Y.Y.Y.Y.Y.Y.Y.Y.",
"Y.Y.Y.Y.Y.    , 2.2.N.J.V.j.j.2.2.g.J.H.J.J.x.j.x.J.J.J.J.J.J.J.J.J.J.J.J.J.J.J.J.J.J.J.J.J.J.J.D.2.2.,     Y.Y.Y.Y.Y.Y.Y.Y.Y.Y.",
"Y.Y.Y.Y.Y.    , 2.2.N.J.V.j.j.f.f.B.J.J.J.J.w.5.e.S.Z.J.J.J.J.J.J.J.J.H.J.J.J.J.J.J.J.J.J.J.J.J.F.2.2.,     Y.Y.Y.Y.Y.Y.Y.Y.Y.Y.",
"Y.Y.Y.Y.Y.    , 2.2.N.J.V.j.j.j.f.B.J.J.J.J.w.2.q.Z.Z.J.J.J.J.J.J.J.J.K.J.J.J.J.J.J.J.J.J.J.J.J.F.2.2.,     Y.Y.Y.Y.Y.Y.Y.Y.Y.Y.",
"Y.Y.Y.Y.Y.    , 2.2.N.J.V.j.j.j.j.B.J.J.J.J.w.2.q.M.m.G.G.J.J.J.J.J.G.G.J.J.J.J.J.J.J.J.J.J.K.H.F.2.2.w 1 ; Y.Y.Y.Y.Y.Y.Y.Y.Y.Y.",
"Y.Y.Y.Y.Y.    , 2.2.N.J.V.j.j.j.j.B.J.J.J.J.w.2.5.j.j.M.Z.D.J.J.J.J.F.V.F.J.J.J.J.J.J.J.J.J.H.K.F.2.2.F M d     Y.Y.Y.Y.Y.Y.Y.Y.",
"Y.Y.Y.Y.Y.    , 2.2.N.J.V.j.j.j.f.B.K.J.J.J.i.2.5.j.j.M.Z.G.J.J.J.J.D.Z.S.J.J.J.J.J.J.J.J.J.J.J.F.2.2.F M d     Y.Y.Y.Y.Y.Y.Y.Y.",
"Y.Y.Y.Y.Y.          ! 2.q.j.j.2.2.h.H.J.J.J.x.j.d.2.5.f.j.n.Z.Z.V.V.Z.Z.S.J.J.J.J.J.J.J.J.J.J.J.A.K K B M d           Y.Y.Y.Y.Y.",
"Y.Y.Y.Y.Y.          ! 2.q.j.j.2.2.g.J.J.J.J.x.j.d.5.2.f.j.n.M.Z.Z.Z.Z.Z.D.J.J.J.J.J.J.J.J.J.J.J.A.K K B M d           Y.Y.Y.Y.Y.",
"Y.Y.Y.Y.Y.Y.Y.      , 0 I O.O.J J 4.m.M.J.J.D.A.m.a.a.q.q.f.n.n.x.x.V.G.G.J.J.J.J.J.J.J.D.D.B.m.h.h h S / o.c.c.$     Y.Y.Y.Y.Y.",
"Y.Y.Y.Y.Y.Y.Y.Y.        3 K K 8 8 ~ k.k.J.J.J.J.D.j.j.2.2.i.j.f.j.j.Z.J.J.J.J.J.J.J.J.J.Z.Z.x.j.p.8 8 P ( $.U.U.#     Y.Y.Y.Y.Y.",
"Y.Y.Y.Y.Y.Y.Y.Y.        > v v 2 2 ~ f.j.C.C.K.K.D.f.f.,.;.u.n.n.j.j.B.J.J.J.J.J.J.J.H.J.B.V.x.f.u.8 8 P ) $.I.I.#     Y.Y.Y.Y.Y.",
"Y.Y.Y.Y.Y.Y.Y.Y.Y.Y.Y.Y.Y.        y 2.@.8 8 L.U.P.2.2.9 8 v.U.U.j.j.m.Z.S.J.J.S.Z.Z.Z.Z.j.j.i.2.;.8 8 { 6...( ( O     Y.Y.Y.Y.Y.",
"Y.Y.Y.Y.Y.Y.Y.Y.Y.Y.Y.Y.Y.        y 2.;.8 8 L.U.P.2.2.9 8 v.U.U.j.j.m.Z.S.J.J.S.Z.Z.Z.Z.j.j.i.2.;.8 8 { 6...( ( O     Y.Y.Y.Y.Y.",
"Y.Y.Y.Y.Y.Y.Y.Y.Y.Y.Y.Y.Y.Y.Y.    @ , < C C *.1.*.z z Q *.>.1.1.H H +.8.r.x.x.l.l.l.l.l.j.j.*.x c b j } 6...( ( O     Y.Y.Y.Y.Y.",
"Y.Y.Y.Y.Y.Y.Y.Y.Y.Y.Y.Y.Y.Y.Y.        X K K K K C 8 8 ;.2.] K K 8 8 _ 6.7.j.j.j.j.j.j.j.j.j.&.8 6 M M | 6...( ( O     Y.Y.Y.Y.Y.",
"Y.Y.Y.Y.Y.Y.Y.Y.Y.Y.Y.Y.Y.Y.Y.        . w w W ' ^ T T 5.q.2.O.O.T T #.8.r.j.j.j.j.f.a.a.1.=.J f g L L  .6.} Z Z X     Y.Y.Y.Y.Y.",
"Y.Y.Y.Y.Y.Y.Y.Y.Y.Y.Y.Y.Y.Y.Y.Y.Y.          ! 2.5.j.l.j.j.j.j.j.j.j.j.j.j.j.j.j.j.a.2.5.8 6 g M M ( ( X.6.{ 8 8 .     Y.Y.Y.Y.Y.",
"Y.Y.Y.Y.Y.Y.Y.Y.Y.Y.Y.Y.Y.Y.Y.Y.Y.          ! 2.5.l.j.l.j.j.j.j.j.j.j.j.j.j.j.j.j.a.5.2.8 8 g M N ( ( ..6.{ 8 8 .     Y.Y.Y.Y.Y.",
"Y.Y.Y.Y.Y.Y.Y.Y.Y.Y.Y.Y.Y.Y.Y.Y.Y.Y.Y.Y.    . @ : 9 e K W @.5.5.5.5.5.5.,.W W q @ + + + n n V M N ( ( L A k . . Y.Y.Y.Y.Y.Y.Y.Y.",
"Y.Y.Y.Y.Y.Y.Y.Y.Y.Y.Y.Y.Y.Y.Y.Y.Y.Y.Y.Y.        o 8 8 D D ] 2.2.2.2.2.2.;.K K -         M M M M N ( ( A M d     Y.Y.Y.Y.Y.Y.Y.Y.",
"Y.Y.Y.Y.Y.Y.Y.Y.Y.Y.Y.Y.Y.Y.Y.Y.Y.Y.Y.Y.        X - - C G L ` ` ` ` E U J l l %   & 4 4 M M M M M / L 7 4 1     Y.Y.Y.Y.Y.Y.Y.Y.",
"Y.Y.Y.Y.Y.Y.Y.Y.Y.Y.Y.Y.Y.Y.Y.Y.Y.Y.Y.Y.Y.Y.Y.Y.Y.    j M M M M M M f 8 8 8 8 o   1 M M M M M M M M M *         Y.Y.Y.Y.Y.Y.Y.Y.",
"Y.Y.Y.Y.Y.Y.Y.Y.Y.Y.Y.Y.Y.Y.Y.Y.Y.Y.Y.Y.Y.Y.Y.Y.Y.    d j j j j j b 7 2 2 2 2 o   ; j j j j j j j j j *         Y.Y.Y.Y.Y.Y.Y.Y.",
"Y.Y.Y.Y.Y.Y.Y.Y.Y.Y.Y.Y.Y.Y.Y.Y.Y.Y.Y.Y.Y.Y.Y.Y.Y.Y.Y.                        Y.Y.Y.                        Y.Y.Y.Y.Y.Y.Y.Y.Y.Y.",
"Y.Y.Y.Y.Y.Y.Y.Y.Y.Y.Y.Y.Y.Y.Y.Y.Y.Y.Y.Y.Y.Y.Y.Y.Y.Y.Y.                        Y.Y.Y.                        Y.Y.Y.Y.Y.Y.Y.Y.Y.Y.",
"Y.Y.Y.Y.Y.Y.Y.Y.Y.Y.Y.Y.Y.Y.Y.Y.Y.Y.Y.Y.Y.Y.Y.Y.Y.Y.Y.Y.Y.Y.Y.Y.Y.Y.Y.Y.Y.Y.Y.Y.Y.Y.Y.Y.Y.Y.Y.Y.Y.Y.Y.Y.Y.Y.Y.Y.Y.Y.Y.Y.Y.Y.Y.Y.",
"Y.Y.Y.Y.Y.Y.Y.Y.Y.Y.Y.Y.Y.Y.Y.Y.Y.Y.Y.Y.Y.Y.Y.Y.Y.Y.Y.Y.Y.Y.Y.Y.Y.Y.Y.Y.Y.Y.Y.Y.Y.Y.Y.Y.Y.Y.Y.Y.Y.Y.Y.Y.Y.Y.Y.Y.Y.Y.Y.Y.Y.Y.Y.Y.",
"Y.Y.Y.Y.Y.Y.Y.Y.Y.Y.Y.Y.Y.Y.Y.Y.Y.Y.Y.Y.Y.Y.Y.Y.Y.Y.Y.Y.Y.Y.Y.Y.Y.Y.Y.Y.Y.Y.Y.Y.Y.Y.Y.Y.Y.Y.Y.Y.Y.Y.Y.Y.Y.Y.Y.Y.Y.Y.Y.Y.Y.Y.Y.Y.",
"Y.Y.Y.Y.Y.Y.Y.Y.Y.Y.Y.Y.Y.Y.Y.Y.Y.Y.Y.Y.Y.Y.Y.Y.Y.Y.Y.Y.Y.Y.Y.Y.Y.Y.Y.Y.Y.Y.Y.Y.Y.Y.Y.Y.Y.Y.Y.Y.Y.Y.Y.Y.Y.Y.Y.Y.Y.Y.Y.Y.Y.Y.Y.Y.",
"Y.Y.Y.Y.Y.Y.Y.Y.Y.Y.Y.Y.Y.Y.Y.Y.Y.Y.Y.Y.Y.Y.Y.Y.Y.Y.Y.Y.Y.Y.Y.Y.Y.Y.Y.Y.Y.Y.Y.Y.Y.Y.Y.Y.Y.Y.Y.Y.Y.Y.Y.Y.Y.Y.Y.Y.Y.Y.Y.Y.Y.Y.Y.Y.",
"Y.Y.Y.Y.Y.Y.Y.Y.Y.Y.Y.Y.Y.Y.Y.Y.Y.Y.Y.Y.Y.Y.Y.Y.Y.Y.Y.Y.Y.Y.Y.Y.Y.Y.Y.Y.Y.Y.Y.Y.Y.Y.Y.Y.Y.Y.Y.Y.Y.Y.Y.Y.Y.Y.Y.Y.Y.Y.Y.Y.Y.Y.Y.Y.",
"Y.Y.Y.Y.Y.Y.Y.Y.Y.Y.Y.Y.Y.Y.Y.Y.Y.Y.Y.Y.Y.Y.Y.Y.Y.Y.Y.Y.Y.Y.Y.Y.Y.Y.Y.Y.Y.Y.Y.Y.Y.Y.Y.Y.Y.Y.Y.Y.Y.Y.Y.Y.Y.Y.Y.Y.Y.Y.Y.Y.Y.Y.Y.Y.",
"Y.Y.Y.Y.Y.Y.Y.Y.Y.Y.Y.Y.Y.Y.Y.Y.Y.Y.Y.Y.Y.Y.Y.Y.Y.Y.Y.Y.Y.Y.Y.Y.Y.Y.Y.Y.Y.Y.Y.Y.Y.Y.Y.Y.Y.Y.Y.Y.Y.Y.Y.Y.Y.Y.Y.Y.Y.Y.Y.Y.Y.Y.Y.Y.",
"Y.Y.Y.Y.Y.Y.Y.Y.Y.Y.Y.Y.Y.Y.Y.Y.Y.Y.Y.Y.Y.Y.Y.Y.Y.Y.Y.Y.Y.Y.Y.Y.Y.Y.Y.Y.Y.Y.Y.Y.Y.Y.Y.Y.Y.Y.Y.Y.Y.Y.Y.Y.Y.Y.Y.Y.Y.Y.Y.Y.Y.Y.Y.Y.",
"Y.Y.Y.Y.Y.Y.Y.Y.Y.Y.Y.Y.Y.Y.Y.Y.Y.Y.Y.Y.Y.Y.Y.Y.Y.Y.Y.Y.Y.Y.Y.Y.Y.Y.Y.Y.Y.Y.Y.Y.Y.Y.Y.Y.Y.Y.Y.Y.Y.Y.Y.Y.Y.Y.Y.Y.Y.Y.Y.Y.Y.Y.Y.Y.",
"Y.Y.Y.Y.Y.Y.Y.Y.Y.Y.Y.Y.Y.Y.Y.Y.Y.Y.Y.Y.Y.Y.Y.Y.Y.Y.Y.Y.Y.Y.Y.Y.Y.Y.Y.Y.Y.Y.Y.Y.Y.Y.Y.Y.Y.Y.Y.Y.Y.Y.Y.Y.Y.Y.Y.Y.Y.Y.Y.Y.Y.Y.Y.Y.",
"Y.Y.Y.Y.Y.Y.Y.Y.Y.Y.Y.Y.Y.Y.Y.Y.Y.Y.Y.Y.Y.Y.Y.Y.Y.Y.Y.Y.Y.Y.Y.Y.Y.Y.Y.Y.Y.Y.Y.Y.Y.Y.Y.Y.Y.Y.Y.Y.Y.Y.Y.Y.Y.Y.Y.Y.Y.Y.Y.Y.Y.Y.Y.Y."
};
